%TF.GenerationSoftware,KiCad,Pcbnew,(5.1.9)-1*%
%TF.CreationDate,2021-04-08T21:07:20+02:00*%
%TF.ProjectId,Ardumower,41726475-6d6f-4776-9572-2e6b69636164,rev?*%
%TF.SameCoordinates,Original*%
%TF.FileFunction,Copper,L2,Bot*%
%TF.FilePolarity,Positive*%
%FSLAX46Y46*%
G04 Gerber Fmt 4.6, Leading zero omitted, Abs format (unit mm)*
G04 Created by KiCad (PCBNEW (5.1.9)-1) date 2021-04-08 21:07:20*
%MOMM*%
%LPD*%
G01*
G04 APERTURE LIST*
%TA.AperFunction,ComponentPad*%
%ADD10O,1.700000X1.700000*%
%TD*%
%TA.AperFunction,ComponentPad*%
%ADD11R,1.700000X1.700000*%
%TD*%
%TA.AperFunction,ComponentPad*%
%ADD12C,3.790000*%
%TD*%
%TA.AperFunction,ComponentPad*%
%ADD13C,2.000000*%
%TD*%
%TA.AperFunction,ComponentPad*%
%ADD14C,1.524000*%
%TD*%
%TA.AperFunction,ComponentPad*%
%ADD15O,1.600000X1.600000*%
%TD*%
%TA.AperFunction,ComponentPad*%
%ADD16C,1.600000*%
%TD*%
%TA.AperFunction,ComponentPad*%
%ADD17O,2.032000X2.032000*%
%TD*%
%TA.AperFunction,ComponentPad*%
%ADD18R,2.032000X2.032000*%
%TD*%
%TA.AperFunction,ComponentPad*%
%ADD19C,1.800000*%
%TD*%
%TA.AperFunction,ComponentPad*%
%ADD20R,1.800000X1.800000*%
%TD*%
%TA.AperFunction,ComponentPad*%
%ADD21O,1.727200X1.727200*%
%TD*%
%TA.AperFunction,ComponentPad*%
%ADD22C,3.000000*%
%TD*%
%TA.AperFunction,ComponentPad*%
%ADD23R,3.000000X3.000000*%
%TD*%
%TA.AperFunction,ComponentPad*%
%ADD24O,2.200000X2.200000*%
%TD*%
%TA.AperFunction,ComponentPad*%
%ADD25R,2.200000X2.200000*%
%TD*%
%TA.AperFunction,ComponentPad*%
%ADD26R,1.600000X1.600000*%
%TD*%
%TA.AperFunction,ViaPad*%
%ADD27C,0.800000*%
%TD*%
%TA.AperFunction,Conductor*%
%ADD28C,0.250000*%
%TD*%
G04 APERTURE END LIST*
D10*
%TO.P,J19,3*%
%TO.N,Net-(J19-Pad3)*%
X139010000Y-121270000D03*
%TO.P,J19,2*%
%TO.N,GND*%
X139010000Y-118730000D03*
D11*
%TO.P,J19,1*%
%TO.N,+5V*%
X139010000Y-116190000D03*
%TD*%
D12*
%TO.P,REF\u002A\u002A,1*%
%TO.N,N/C*%
X44350000Y-39200000D03*
%TD*%
%TO.P,REF2,2*%
%TO.N,N/C*%
X44590000Y-127280000D03*
%TD*%
%TO.P,REF3,3*%
%TO.N,N/C*%
X204760000Y-126830000D03*
%TD*%
%TO.P,REF4,4*%
%TO.N,N/C*%
X204600000Y-39120000D03*
%TD*%
D13*
%TO.P,U2,~*%
%TO.N,N/C*%
X198431500Y-86296500D03*
X198431500Y-127063500D03*
D14*
%TO.P,U2,31*%
X176524000Y-90170000D03*
%TO.P,U2,30*%
X176524000Y-92710000D03*
%TO.P,U2,29*%
X176524000Y-100330000D03*
%TO.P,U2,28*%
X176524000Y-102870000D03*
%TO.P,U2,27*%
X176524000Y-105410000D03*
%TO.P,U2,26*%
X176524000Y-113030000D03*
%TO.P,U2,25*%
X176524000Y-115570000D03*
%TO.P,U2,24*%
%TO.N,Net-(U2-Pad24)*%
X197352000Y-98298000D03*
%TO.P,U2,23*%
%TO.N,Net-(U2-Pad23)*%
X197352000Y-101854000D03*
%TO.P,U2,22*%
%TO.N,+24V*%
X197352000Y-105410000D03*
%TO.P,U2,21*%
%TO.N,GND*%
X197352000Y-108966000D03*
%TO.P,U2,20*%
%TO.N,Net-(U2-Pad20)*%
X197352000Y-112522000D03*
%TO.P,U2,19*%
%TO.N,Net-(U2-Pad19)*%
X197352000Y-116078000D03*
%TO.P,U2,18*%
%TO.N,pinMotorRightSense*%
X173984000Y-85090000D03*
%TO.P,U2,17*%
%TO.N,pinMotorRightFault*%
X173984000Y-87630000D03*
%TO.P,U2,16*%
%TO.N,GND*%
X173984000Y-90170000D03*
%TO.P,U2,15*%
%TO.N,IOREV*%
X173984000Y-92710000D03*
%TO.P,U2,14*%
%TO.N,pinMotorRightPWM*%
X173984000Y-95250000D03*
%TO.P,U2,13*%
%TO.N,pinMotorRightDir*%
X173984000Y-97790000D03*
%TO.P,U2,12*%
%TO.N,Net-(U2-Pad12)*%
X173984000Y-100330000D03*
%TO.P,U2,11*%
%TO.N,Net-(U2-Pad11)*%
X173984000Y-102870000D03*
%TO.P,U2,10*%
%TO.N,pinMotorEnable*%
X173984000Y-105410000D03*
%TO.P,U2,9*%
%TO.N,pinMotorLeftSense*%
X173984000Y-107950000D03*
%TO.P,U2,8*%
%TO.N,pinMotorLeftFault*%
X173984000Y-110490000D03*
%TO.P,U2,7*%
%TO.N,GND*%
X173984000Y-113030000D03*
%TO.P,U2,6*%
%TO.N,IOREV*%
X173984000Y-115570000D03*
%TO.P,U2,5*%
%TO.N,pinMotorLeftPWM*%
X173984000Y-118110000D03*
%TO.P,U2,4*%
%TO.N,pinMotorLeftDir*%
X173984000Y-120650000D03*
%TO.P,U2,3*%
%TO.N,IOREV*%
X173984000Y-123190000D03*
%TO.P,U2,2*%
%TO.N,GND*%
X173984000Y-125730000D03*
%TO.P,U2,1*%
%TO.N,Net-(U2-Pad1)*%
X173984000Y-128270000D03*
%TD*%
D13*
%TO.P,U1,~*%
%TO.N,N/C*%
X198431500Y-39116500D03*
X198431500Y-79883500D03*
D14*
%TO.P,U1,31*%
X176524000Y-42990000D03*
%TO.P,U1,30*%
X176524000Y-45530000D03*
%TO.P,U1,29*%
X176524000Y-53150000D03*
%TO.P,U1,28*%
X176524000Y-55690000D03*
%TO.P,U1,27*%
X176524000Y-58230000D03*
%TO.P,U1,26*%
X176524000Y-65850000D03*
%TO.P,U1,25*%
X176524000Y-68390000D03*
%TO.P,U1,24*%
%TO.N,Net-(U1-Pad24)*%
X197352000Y-51118000D03*
%TO.P,U1,23*%
%TO.N,Net-(U1-Pad23)*%
X197352000Y-54674000D03*
%TO.P,U1,22*%
%TO.N,+24V*%
X197352000Y-58230000D03*
%TO.P,U1,21*%
%TO.N,GND*%
X197352000Y-61786000D03*
%TO.P,U1,20*%
%TO.N,Net-(U1-Pad20)*%
X197352000Y-65342000D03*
%TO.P,U1,19*%
%TO.N,Net-(U1-Pad19)*%
X197352000Y-68898000D03*
%TO.P,U1,18*%
%TO.N,pinMotorMowSense*%
X173984000Y-37910000D03*
%TO.P,U1,17*%
%TO.N,pinMotorMowFault*%
X173984000Y-40450000D03*
%TO.P,U1,16*%
%TO.N,GND*%
X173984000Y-42990000D03*
%TO.P,U1,15*%
%TO.N,IOREV*%
X173984000Y-45530000D03*
%TO.P,U1,14*%
%TO.N,pinMotorMowPWM*%
X173984000Y-48070000D03*
%TO.P,U1,13*%
%TO.N,pinMotorMowDir*%
X173984000Y-50610000D03*
%TO.P,U1,12*%
%TO.N,Net-(U1-Pad12)*%
X173984000Y-53150000D03*
%TO.P,U1,11*%
%TO.N,Net-(U1-Pad11)*%
X173984000Y-55690000D03*
%TO.P,U1,10*%
%TO.N,pinMotorMowEnable*%
X173984000Y-58230000D03*
%TO.P,U1,9*%
%TO.N,IOREV*%
X173984000Y-60770000D03*
%TO.P,U1,8*%
%TO.N,pinMotorMowFault*%
X173984000Y-63310000D03*
%TO.P,U1,7*%
%TO.N,GND*%
X173984000Y-65850000D03*
%TO.P,U1,6*%
%TO.N,IOREV*%
X173984000Y-68390000D03*
%TO.P,U1,5*%
%TO.N,pinMotorMowPWM*%
X173984000Y-70930000D03*
%TO.P,U1,4*%
%TO.N,pinMotorMowDir*%
X173984000Y-73470000D03*
%TO.P,U1,3*%
%TO.N,IOREV*%
X173984000Y-76010000D03*
%TO.P,U1,2*%
%TO.N,GND*%
X173984000Y-78550000D03*
%TO.P,U1,1*%
%TO.N,Net-(U1-Pad1)*%
X173984000Y-81090000D03*
%TD*%
D15*
%TO.P,R28,2*%
%TO.N,pinMotorRightFault*%
X190080000Y-114910000D03*
D16*
%TO.P,R28,1*%
%TO.N,Net-(J28-Pad7)*%
X187540000Y-114910000D03*
%TD*%
D15*
%TO.P,R27,2*%
%TO.N,GND*%
X190080000Y-108880000D03*
D16*
%TO.P,R27,1*%
%TO.N,Net-(J28-Pad7)*%
X187540000Y-108880000D03*
%TD*%
D15*
%TO.P,R26,2*%
%TO.N,pinOdometryRight*%
X190080000Y-102690000D03*
D16*
%TO.P,R26,1*%
%TO.N,Net-(J28-Pad6)*%
X187540000Y-102690000D03*
%TD*%
D15*
%TO.P,R25,2*%
%TO.N,GND*%
X190150000Y-96580000D03*
D16*
%TO.P,R25,1*%
%TO.N,Net-(J28-Pad6)*%
X187610000Y-96580000D03*
%TD*%
D15*
%TO.P,R24,2*%
%TO.N,pinMotorMowFault*%
X190140000Y-89680000D03*
D16*
%TO.P,R24,1*%
%TO.N,Net-(J27-Pad7)*%
X187600000Y-89680000D03*
%TD*%
D15*
%TO.P,R23,2*%
%TO.N,GND*%
X189950000Y-83370000D03*
D16*
%TO.P,R23,1*%
%TO.N,Net-(J27-Pad7)*%
X187410000Y-83370000D03*
%TD*%
D15*
%TO.P,R22,2*%
%TO.N,pinMotorMowRpm*%
X189950000Y-77970000D03*
D16*
%TO.P,R22,1*%
%TO.N,Net-(J27-Pad6)*%
X187410000Y-77970000D03*
%TD*%
D15*
%TO.P,R21,2*%
%TO.N,GND*%
X190040000Y-71750000D03*
D16*
%TO.P,R21,1*%
%TO.N,Net-(J27-Pad6)*%
X187500000Y-71750000D03*
%TD*%
D15*
%TO.P,R20,2*%
%TO.N,pinMotorLeftFault*%
X190140000Y-64970000D03*
D16*
%TO.P,R20,1*%
%TO.N,Net-(J26-Pad7)*%
X187600000Y-64970000D03*
%TD*%
D15*
%TO.P,R19,2*%
%TO.N,GND*%
X190140000Y-58750000D03*
D16*
%TO.P,R19,1*%
%TO.N,Net-(J26-Pad7)*%
X187600000Y-58750000D03*
%TD*%
D15*
%TO.P,R18,2*%
%TO.N,pinOdometryLeft*%
X190050000Y-52530000D03*
D16*
%TO.P,R18,1*%
%TO.N,Net-(J26-Pad6)*%
X187510000Y-52530000D03*
%TD*%
D15*
%TO.P,R17,2*%
%TO.N,GND*%
X190230000Y-46310000D03*
D16*
%TO.P,R17,1*%
%TO.N,Net-(J26-Pad6)*%
X187690000Y-46310000D03*
%TD*%
D10*
%TO.P,JP6,2*%
%TO.N,Net-(J28-Pad1)*%
X193910000Y-107010000D03*
D11*
%TO.P,JP6,1*%
%TO.N,+5V*%
X193910000Y-104470000D03*
%TD*%
D10*
%TO.P,JP5,2*%
%TO.N,Net-(J27-Pad1)*%
X193910000Y-79470000D03*
D11*
%TO.P,JP5,1*%
%TO.N,+5V*%
X193910000Y-76930000D03*
%TD*%
D10*
%TO.P,JP4,2*%
%TO.N,Net-(J26-Pad1)*%
X193910000Y-56480000D03*
D11*
%TO.P,JP4,1*%
%TO.N,+5V*%
X193910000Y-53940000D03*
%TD*%
D10*
%TO.P,J28,8*%
%TO.N,GND*%
X179810000Y-109390000D03*
%TO.P,J28,7*%
%TO.N,Net-(J28-Pad7)*%
X182350000Y-109390000D03*
%TO.P,J28,6*%
%TO.N,Net-(J28-Pad6)*%
X179810000Y-106850000D03*
%TO.P,J28,5*%
%TO.N,pinMotorEnable*%
X182350000Y-106850000D03*
%TO.P,J28,4*%
%TO.N,pinMotorRightPWM*%
X179810000Y-104310000D03*
%TO.P,J28,3*%
%TO.N,MotorBreak*%
X182350000Y-104310000D03*
%TO.P,J28,2*%
%TO.N,pinMotorRightDir*%
X179810000Y-101770000D03*
D11*
%TO.P,J28,1*%
%TO.N,Net-(J28-Pad1)*%
X182350000Y-101770000D03*
%TD*%
D10*
%TO.P,J27,8*%
%TO.N,GND*%
X179970000Y-83840000D03*
%TO.P,J27,7*%
%TO.N,Net-(J27-Pad7)*%
X182510000Y-83840000D03*
%TO.P,J27,6*%
%TO.N,Net-(J27-Pad6)*%
X179970000Y-81300000D03*
%TO.P,J27,5*%
%TO.N,pinMotorMowEnable*%
X182510000Y-81300000D03*
%TO.P,J27,4*%
%TO.N,pinMotorMowPWM*%
X179970000Y-78760000D03*
%TO.P,J27,3*%
%TO.N,MotorMowBreak*%
X182510000Y-78760000D03*
%TO.P,J27,2*%
%TO.N,pinMotorMowDir*%
X179970000Y-76220000D03*
D11*
%TO.P,J27,1*%
%TO.N,Net-(J27-Pad1)*%
X182510000Y-76220000D03*
%TD*%
D10*
%TO.P,J26,8*%
%TO.N,GND*%
X179970000Y-58660000D03*
%TO.P,J26,7*%
%TO.N,Net-(J26-Pad7)*%
X182510000Y-58660000D03*
%TO.P,J26,6*%
%TO.N,Net-(J26-Pad6)*%
X179970000Y-56120000D03*
%TO.P,J26,5*%
%TO.N,pinMotorEnable*%
X182510000Y-56120000D03*
%TO.P,J26,4*%
%TO.N,pinMotorLeftPWM*%
X179970000Y-53580000D03*
%TO.P,J26,3*%
%TO.N,MotorBreak*%
X182510000Y-53580000D03*
%TO.P,J26,2*%
%TO.N,pinMotorLeftDir*%
X179970000Y-51040000D03*
D11*
%TO.P,J26,1*%
%TO.N,Net-(J26-Pad1)*%
X182510000Y-51040000D03*
%TD*%
D17*
%TO.P,J16,2*%
%TO.N,pinUserSwitch1*%
X99830000Y-120340000D03*
D18*
%TO.P,J16,1*%
%TO.N,GND*%
X97290000Y-120340000D03*
%TD*%
D19*
%TO.P,D4,2*%
%TO.N,Net-(D4-Pad2)*%
X69840000Y-42670000D03*
D20*
%TO.P,D4,1*%
%TO.N,GND*%
X69840000Y-40130000D03*
%TD*%
D19*
%TO.P,D2,2*%
%TO.N,Net-(D2-Pad2)*%
X55280000Y-42670000D03*
D20*
%TO.P,D2,1*%
%TO.N,GND*%
X55280000Y-40130000D03*
%TD*%
D17*
%TO.P,J18,2*%
%TO.N,pinUserSwitch3*%
X107910000Y-120310000D03*
D18*
%TO.P,J18,1*%
%TO.N,GND*%
X105370000Y-120310000D03*
%TD*%
D17*
%TO.P,J17,2*%
%TO.N,pinUserSwitch2*%
X107880000Y-114290000D03*
D18*
%TO.P,J17,1*%
%TO.N,GND*%
X105340000Y-114290000D03*
%TD*%
D10*
%TO.P,JP2,2*%
%TO.N,Net-(JP2-Pad2)*%
X75230000Y-118450000D03*
D11*
%TO.P,JP2,1*%
%TO.N,pinBuzzer*%
X75230000Y-115910000D03*
%TD*%
D10*
%TO.P,JP1,2*%
%TO.N,Net-(D1-Pad2)*%
X47250000Y-63950000D03*
D11*
%TO.P,JP1,1*%
%TO.N,Net-(J1-Pad2)*%
X44710000Y-63950000D03*
%TD*%
D10*
%TO.P,J22,4*%
%TO.N,+3V3*%
X54360000Y-62150000D03*
%TO.P,J22,3*%
X54360000Y-59610000D03*
%TO.P,J22,2*%
X54360000Y-57070000D03*
D11*
%TO.P,J22,1*%
X54360000Y-54530000D03*
%TD*%
D10*
%TO.P,J21,6*%
%TO.N,pinVoltageMeasurement*%
X43060000Y-100500000D03*
%TO.P,J21,5*%
%TO.N,pinChargeRelay*%
X43060000Y-97960000D03*
%TO.P,J21,4*%
%TO.N,pinChargeCurrent*%
X43060000Y-95420000D03*
%TO.P,J21,3*%
%TO.N,pinChargeVoltage*%
X43060000Y-92880000D03*
%TO.P,J21,2*%
%TO.N,pinBatterySwitch*%
X43060000Y-90340000D03*
D11*
%TO.P,J21,1*%
%TO.N,pinBatteryVoltage*%
X43060000Y-87800000D03*
%TD*%
D10*
%TO.P,J20,4*%
%TO.N,pinRemoteSwitch*%
X54450000Y-106170000D03*
%TO.P,J20,3*%
%TO.N,pinRemoteMow*%
X51910000Y-106170000D03*
%TO.P,J20,2*%
%TO.N,pinRemoteSteer*%
X49370000Y-106170000D03*
D11*
%TO.P,J20,1*%
%TO.N,pinRemoteSpeed*%
X46830000Y-106170000D03*
%TD*%
D17*
%TO.P,J15,2*%
%TO.N,pinButton*%
X97360000Y-114360000D03*
D18*
%TO.P,J15,1*%
%TO.N,GND*%
X99900000Y-114360000D03*
%TD*%
D10*
%TO.P,J14,6*%
%TO.N,GND*%
X117350000Y-41530000D03*
%TO.P,J14,5*%
%TO.N,+3V3*%
X117350000Y-44070000D03*
%TO.P,J14,4*%
%TO.N,SDA1*%
X117350000Y-46610000D03*
%TO.P,J14,3*%
%TO.N,SCL1*%
X117350000Y-49150000D03*
%TO.P,J14,2*%
%TO.N,Net-(J14-Pad2)*%
X117350000Y-51690000D03*
D11*
%TO.P,J14,1*%
%TO.N,Net-(J14-Pad1)*%
X117350000Y-54230000D03*
%TD*%
D10*
%TO.P,J12,4*%
%TO.N,pinSonarLeftEcho*%
X134910000Y-49180000D03*
%TO.P,J12,3*%
%TO.N,Net-(J12-Pad3)*%
X134910000Y-46640000D03*
%TO.P,J12,2*%
%TO.N,GND*%
X134910000Y-44100000D03*
D11*
%TO.P,J12,1*%
%TO.N,+5V*%
X134910000Y-41560000D03*
%TD*%
D10*
%TO.P,J11,4*%
%TO.N,pinSonarCenterEcho*%
X145220000Y-49230000D03*
%TO.P,J11,3*%
%TO.N,Net-(J11-Pad3)*%
X145220000Y-46690000D03*
%TO.P,J11,2*%
%TO.N,GND*%
X145220000Y-44150000D03*
D11*
%TO.P,J11,1*%
%TO.N,+5V*%
X145220000Y-41610000D03*
%TD*%
D10*
%TO.P,J10,4*%
%TO.N,pinSonarRightEcho*%
X155550000Y-49180000D03*
%TO.P,J10,3*%
%TO.N,Net-(J10-Pad3)*%
X155550000Y-46640000D03*
%TO.P,J10,2*%
%TO.N,GND*%
X155550000Y-44100000D03*
D11*
%TO.P,J10,1*%
%TO.N,+5V*%
X155550000Y-41560000D03*
%TD*%
D10*
%TO.P,J5,4*%
%TO.N,pinBumperLeft*%
X124840000Y-49130000D03*
%TO.P,J5,3*%
%TO.N,GND*%
X124840000Y-46590000D03*
%TO.P,J5,2*%
%TO.N,pinBumperRight*%
X124840000Y-44050000D03*
D11*
%TO.P,J5,1*%
%TO.N,GND*%
X124840000Y-41510000D03*
%TD*%
D10*
%TO.P,J4,4*%
%TO.N,SCL1*%
X110270000Y-49110000D03*
%TO.P,J4,3*%
%TO.N,SDA1*%
X110270000Y-46570000D03*
%TO.P,J4,2*%
%TO.N,GND*%
X110270000Y-44030000D03*
D11*
%TO.P,J4,1*%
%TO.N,+3V3*%
X110270000Y-41490000D03*
%TD*%
D10*
%TO.P,J3,4*%
%TO.N,SCL0*%
X102460000Y-49020000D03*
%TO.P,J3,3*%
%TO.N,SDA0*%
X102460000Y-46480000D03*
%TO.P,J3,2*%
%TO.N,GND*%
X102460000Y-43940000D03*
D11*
%TO.P,J3,1*%
%TO.N,+3V3*%
X102460000Y-41400000D03*
%TD*%
D10*
%TO.P,J2,4*%
%TO.N,SCL0*%
X94930000Y-49030000D03*
%TO.P,J2,3*%
%TO.N,SDA0*%
X94930000Y-46490000D03*
%TO.P,J2,2*%
%TO.N,GND*%
X94930000Y-43950000D03*
D11*
%TO.P,J2,1*%
%TO.N,+3V3*%
X94930000Y-41410000D03*
%TD*%
D10*
%TO.P,J23,4*%
%TO.N,GND*%
X59160000Y-62160000D03*
%TO.P,J23,3*%
X59160000Y-59620000D03*
%TO.P,J23,2*%
X59160000Y-57080000D03*
D11*
%TO.P,J23,1*%
X59160000Y-54540000D03*
%TD*%
D21*
%TO.P,XA1,MISO*%
%TO.N,Net-(XA1-PadMISO)*%
X133737000Y-80730000D03*
%TO.P,XA1,GND6*%
%TO.N,GND*%
X166630000Y-103590000D03*
%TO.P,XA1,GND5*%
X164090000Y-103590000D03*
%TO.P,XA1,D53*%
%TO.N,pinBuzzer*%
X166630000Y-101050000D03*
%TO.P,XA1,D52*%
%TO.N,pinRemoteSwitch*%
X164090000Y-101050000D03*
%TO.P,XA1,D51*%
%TO.N,pinButton*%
X166630000Y-98510000D03*
%TO.P,XA1,D50*%
%TO.N,pinChargeRelay*%
X164090000Y-98510000D03*
%TO.P,XA1,D49*%
%TO.N,Net-(XA1-PadD49)*%
X166630000Y-95970000D03*
%TO.P,XA1,D48*%
%TO.N,pinUserSwitch3*%
X164090000Y-95970000D03*
%TO.P,XA1,D47*%
%TO.N,pinUserSwitch2*%
X166630000Y-93430000D03*
%TO.P,XA1,D46*%
%TO.N,pinUserSwitch1*%
X164090000Y-93430000D03*
%TO.P,XA1,D45*%
%TO.N,pinDropLeft*%
X166630000Y-90890000D03*
%TO.P,XA1,D44*%
%TO.N,pinRain*%
X164090000Y-90890000D03*
%TO.P,XA1,D43*%
%TO.N,pinLawnBackSend*%
X166630000Y-88350000D03*
%TO.P,XA1,D42*%
%TO.N,pinLawnBackRecv*%
X164090000Y-88350000D03*
%TO.P,XA1,D41*%
%TO.N,pinLawnFrontSend*%
X166630000Y-85810000D03*
%TO.P,XA1,D40*%
%TO.N,pinLawnFrontRecv*%
X164090000Y-85810000D03*
%TO.P,XA1,D39*%
%TO.N,pinBumperLeft*%
X166630000Y-83270000D03*
%TO.P,XA1,D38*%
%TO.N,pinBumperRight*%
X164090000Y-83270000D03*
%TO.P,XA1,D37*%
%TO.N,pinMotorEnable*%
X166630000Y-80730000D03*
%TO.P,XA1,D36*%
%TO.N,pinSonarLeftEcho*%
X164090000Y-80730000D03*
%TO.P,XA1,D35*%
%TO.N,pinTilt*%
X166630000Y-78190000D03*
%TO.P,XA1,D34*%
%TO.N,pinSonarLeftTrigger*%
X164090000Y-78190000D03*
%TO.P,XA1,D33*%
%TO.N,pinMotorRightDir*%
X166630000Y-75650000D03*
%TO.P,XA1,D32*%
%TO.N,pinSonarRightEcho*%
X164090000Y-75650000D03*
%TO.P,XA1,D31*%
%TO.N,pinMotorLeftDir*%
X166630000Y-73110000D03*
%TO.P,XA1,D30*%
%TO.N,pinSonarRightTrigger*%
X164090000Y-73110000D03*
%TO.P,XA1,D29*%
%TO.N,pinMotorMowDir*%
X166630000Y-70570000D03*
%TO.P,XA1,D28*%
%TO.N,pinMotorMowEnable*%
X164090000Y-70570000D03*
%TO.P,XA1,D27*%
%TO.N,pinMotorRightFault*%
X166630000Y-68030000D03*
%TO.P,XA1,D26*%
%TO.N,pinMotorMowFault*%
X164090000Y-68030000D03*
%TO.P,XA1,D25*%
%TO.N,pinMotorLeftFault*%
X166630000Y-65490000D03*
%TO.P,XA1,D24*%
%TO.N,pinSonarCenterTrigger*%
X164090000Y-65490000D03*
%TO.P,XA1,D23*%
%TO.N,pinDropRight*%
X166630000Y-62950000D03*
%TO.P,XA1,D22*%
%TO.N,pinSonarCenterEcho*%
X164090000Y-62950000D03*
%TO.P,XA1,5V4*%
%TO.N,Net-(XA1-Pad5V4)*%
X166630000Y-60410000D03*
%TO.P,XA1,5V3*%
%TO.N,Net-(XA1-Pad5V3)*%
X164090000Y-60410000D03*
%TO.P,XA1,CANT*%
%TO.N,pinOdometryRight2*%
X161550000Y-108670000D03*
%TO.P,XA1,CANR*%
%TO.N,pinOdometryRight*%
X159010000Y-108670000D03*
%TO.P,XA1,DAC1*%
%TO.N,pinOdometryLeft2*%
X156470000Y-108670000D03*
%TO.P,XA1,DAC0*%
%TO.N,pinOdometryLeft*%
X153930000Y-108670000D03*
%TO.P,XA1,A11*%
%TO.N,pinMotorMowRpm*%
X151390000Y-108670000D03*
%TO.P,XA1,A10*%
%TO.N,Net-(XA1-PadA10)*%
X148850000Y-108670000D03*
%TO.P,XA1,A9*%
%TO.N,pinChargeVoltage*%
X146310000Y-108670000D03*
%TO.P,XA1,A8*%
%TO.N,pinChargeCurrent*%
X143770000Y-108670000D03*
%TO.P,XA1,A7*%
%TO.N,pinVoltageMeasurement*%
X138690000Y-108670000D03*
%TO.P,XA1,A6*%
%TO.N,pinPerimeterCenter*%
X136150000Y-108670000D03*
%TO.P,XA1,A5*%
%TO.N,pinPerimeterLeft*%
X133610000Y-108670000D03*
%TO.P,XA1,A4*%
%TO.N,pinPerimeterRight*%
X131070000Y-108670000D03*
%TO.P,XA1,A3*%
%TO.N,pinMotorMowSense*%
X128530000Y-108670000D03*
%TO.P,XA1,A2*%
%TO.N,pinBatteryVoltage*%
X125990000Y-108670000D03*
%TO.P,XA1,A1*%
%TO.N,pinMotorLeftSense*%
X123450000Y-108670000D03*
%TO.P,XA1,*%
%TO.N,*%
X98050000Y-108670000D03*
%TO.P,XA1,D11*%
%TO.N,pinRemoteSteer*%
X104146000Y-60410000D03*
%TO.P,XA1,D12*%
%TO.N,pinRemoteMow*%
X101606000Y-60410000D03*
%TO.P,XA1,D13*%
%TO.N,pinLED*%
X99066000Y-60410000D03*
%TO.P,XA1,AREF*%
%TO.N,Net-(C1-Pad2)*%
X93986000Y-60410000D03*
%TO.P,XA1,SDA1*%
%TO.N,SDA1*%
X91446000Y-60410000D03*
%TO.P,XA1,SCL1*%
%TO.N,SCL1*%
X88906000Y-60410000D03*
%TO.P,XA1,D10*%
%TO.N,pinRemoteSpeed*%
X106686000Y-60410000D03*
%TO.P,XA1,D9*%
%TO.N,Net-(XA1-PadD9)*%
X109226000Y-60410000D03*
%TO.P,XA1,D8*%
%TO.N,Net-(XA1-PadD8)*%
X111766000Y-60410000D03*
%TO.P,XA1,GND1*%
%TO.N,GND*%
X96526000Y-60410000D03*
%TO.P,XA1,D7*%
%TO.N,pinRedLED*%
X115830000Y-60410000D03*
%TO.P,XA1,D6*%
%TO.N,pinGreenLED*%
X118370000Y-60410000D03*
%TO.P,XA1,D5*%
%TO.N,pinMotorLeftPWM*%
X120910000Y-60410000D03*
%TO.P,XA1,D4*%
%TO.N,pinBatterySwitch*%
X123450000Y-60410000D03*
%TO.P,XA1,D3*%
%TO.N,pinMotorRightPWM*%
X125990000Y-60410000D03*
%TO.P,XA1,D2*%
%TO.N,pinMotorMowPWM*%
X128530000Y-60410000D03*
%TO.P,XA1,D1*%
%TO.N,TX0*%
X131070000Y-60410000D03*
%TO.P,XA1,D0*%
%TO.N,RX0*%
X133610000Y-60410000D03*
%TO.P,XA1,D14*%
%TO.N,GPS_RX*%
X138690000Y-60410000D03*
%TO.P,XA1,D15*%
%TO.N,GPS_TX*%
X141230000Y-60410000D03*
%TO.P,XA1,D16*%
%TO.N,TX2*%
X143770000Y-60410000D03*
%TO.P,XA1,D17*%
%TO.N,RX2*%
X146310000Y-60410000D03*
%TO.P,XA1,D18*%
%TO.N,TX1*%
X148850000Y-60410000D03*
%TO.P,XA1,D19*%
%TO.N,RX1*%
X151390000Y-60410000D03*
%TO.P,XA1,D20*%
%TO.N,SDA0*%
X153930000Y-60410000D03*
%TO.P,XA1,D21*%
%TO.N,SCL0*%
X156470000Y-60410000D03*
%TO.P,XA1,IORF*%
%TO.N,IOREV*%
X100590000Y-108670000D03*
%TO.P,XA1,RST1*%
%TO.N,Reset*%
X103130000Y-108670000D03*
%TO.P,XA1,3V3*%
%TO.N,+3V3*%
X105670000Y-108670000D03*
%TO.P,XA1,5V1*%
%TO.N,+5V*%
X108210000Y-108670000D03*
%TO.P,XA1,GND2*%
%TO.N,GND*%
X110750000Y-108670000D03*
%TO.P,XA1,GND3*%
X113290000Y-108670000D03*
%TO.P,XA1,VIN*%
%TO.N,+9V*%
X115830000Y-108670000D03*
%TO.P,XA1,A0*%
%TO.N,pinMotorRightSense*%
X120910000Y-108670000D03*
%TO.P,XA1,5V2*%
%TO.N,Net-(XA1-Pad5V2)*%
X136277000Y-80730000D03*
%TO.P,XA1,SCK*%
%TO.N,Net-(XA1-PadSCK)*%
X133737000Y-83270000D03*
%TO.P,XA1,MOSI*%
%TO.N,Net-(XA1-PadMOSI)*%
X136277000Y-83270000D03*
%TO.P,XA1,GND4*%
%TO.N,Net-(XA1-PadGND4)*%
X136277000Y-85810000D03*
%TO.P,XA1,RST2*%
%TO.N,Net-(XA1-PadRST2)*%
X133737000Y-85810000D03*
%TD*%
D13*
%TO.P,SP1,1*%
%TO.N,GND*%
X66040000Y-114800160D03*
%TO.P,SP1,2*%
%TO.N,Net-(JP2-Pad2)*%
X66040000Y-122399840D03*
%TD*%
D15*
%TO.P,R15,2*%
%TO.N,Net-(D6-Pad2)*%
X85670000Y-47080000D03*
D16*
%TO.P,R15,1*%
%TO.N,pinRedLED*%
X83130000Y-47080000D03*
%TD*%
D15*
%TO.P,R14,2*%
%TO.N,Net-(D5-Pad2)*%
X78570000Y-47040000D03*
D16*
%TO.P,R14,1*%
%TO.N,pinGreenLED*%
X76030000Y-47040000D03*
%TD*%
D15*
%TO.P,R13,2*%
%TO.N,Net-(D4-Pad2)*%
X71170000Y-46950000D03*
D16*
%TO.P,R13,1*%
%TO.N,pinLED*%
X68630000Y-46950000D03*
%TD*%
D15*
%TO.P,R12,2*%
%TO.N,+5V*%
X63620000Y-46990000D03*
D16*
%TO.P,R12,1*%
%TO.N,Net-(D3-Pad2)*%
X61080000Y-46990000D03*
%TD*%
D15*
%TO.P,R11,2*%
%TO.N,+3V3*%
X56660000Y-47040000D03*
D16*
%TO.P,R11,1*%
%TO.N,Net-(D2-Pad2)*%
X54120000Y-47040000D03*
%TD*%
D15*
%TO.P,R10,2*%
%TO.N,GND*%
X121490000Y-114020000D03*
D16*
%TO.P,R10,1*%
%TO.N,Net-(J19-Pad3)*%
X121490000Y-116560000D03*
%TD*%
D15*
%TO.P,R9,2*%
%TO.N,pinPerimeterLeft*%
X121520000Y-120000000D03*
D16*
%TO.P,R9,1*%
%TO.N,Net-(J19-Pad3)*%
X121520000Y-122540000D03*
%TD*%
D15*
%TO.P,R8,2*%
%TO.N,GND*%
X133530000Y-114260000D03*
D16*
%TO.P,R8,1*%
%TO.N,Net-(J13-Pad3)*%
X133530000Y-116800000D03*
%TD*%
D15*
%TO.P,R7,2*%
%TO.N,pinPerimeterRight*%
X133530000Y-120100000D03*
D16*
%TO.P,R7,1*%
%TO.N,Net-(J13-Pad3)*%
X133530000Y-122640000D03*
%TD*%
D15*
%TO.P,R6,2*%
%TO.N,GND*%
X160530000Y-49370000D03*
D16*
%TO.P,R6,1*%
%TO.N,Net-(J10-Pad3)*%
X160530000Y-46830000D03*
%TD*%
D15*
%TO.P,R5,2*%
%TO.N,GND*%
X140080000Y-40930000D03*
D16*
%TO.P,R5,1*%
%TO.N,Net-(J12-Pad3)*%
X140080000Y-43470000D03*
%TD*%
D15*
%TO.P,R4,2*%
%TO.N,GND*%
X150160000Y-40970000D03*
D16*
%TO.P,R4,1*%
%TO.N,Net-(J11-Pad3)*%
X150160000Y-43510000D03*
%TD*%
D15*
%TO.P,R3,2*%
%TO.N,pinSonarRightTrigger*%
X160570000Y-40950000D03*
D16*
%TO.P,R3,1*%
%TO.N,Net-(J10-Pad3)*%
X160570000Y-43490000D03*
%TD*%
D15*
%TO.P,R2,2*%
%TO.N,pinSonarLeftTrigger*%
X140090000Y-49270000D03*
D16*
%TO.P,R2,1*%
%TO.N,Net-(J12-Pad3)*%
X140090000Y-46730000D03*
%TD*%
D15*
%TO.P,R1,2*%
%TO.N,pinSonarCenterTrigger*%
X150150000Y-49320000D03*
D16*
%TO.P,R1,1*%
%TO.N,Net-(J11-Pad3)*%
X150150000Y-46780000D03*
%TD*%
D10*
%TO.P,J24,4*%
%TO.N,RX2*%
X63790000Y-62200000D03*
%TO.P,J24,3*%
%TO.N,TX2*%
X63790000Y-59660000D03*
%TO.P,J24,2*%
%TO.N,RX1*%
X63790000Y-57120000D03*
D11*
%TO.P,J24,1*%
%TO.N,TX1*%
X63790000Y-54580000D03*
%TD*%
D10*
%TO.P,J13,3*%
%TO.N,Net-(J13-Pad3)*%
X127500000Y-121100000D03*
%TO.P,J13,2*%
%TO.N,GND*%
X127500000Y-118560000D03*
D11*
%TO.P,J13,1*%
%TO.N,+5V*%
X127500000Y-116020000D03*
%TD*%
D10*
%TO.P,J9,3*%
%TO.N,pinRain*%
X91760000Y-119880000D03*
%TO.P,J9,2*%
%TO.N,GND*%
X91760000Y-117340000D03*
D11*
%TO.P,J9,1*%
%TO.N,+3V3*%
X91760000Y-114800000D03*
%TD*%
D10*
%TO.P,J8,3*%
%TO.N,pinTilt*%
X85510000Y-119870000D03*
%TO.P,J8,2*%
%TO.N,GND*%
X85510000Y-117330000D03*
D11*
%TO.P,J8,1*%
%TO.N,+3V3*%
X85510000Y-114790000D03*
%TD*%
D10*
%TO.P,J7,3*%
%TO.N,pinDropRight*%
X54670000Y-119280000D03*
%TO.P,J7,2*%
%TO.N,GND*%
X54670000Y-116740000D03*
D11*
%TO.P,J7,1*%
%TO.N,+3V3*%
X54670000Y-114200000D03*
%TD*%
D10*
%TO.P,J6,3*%
%TO.N,pinDropLeft*%
X46750000Y-119350000D03*
%TO.P,J6,2*%
%TO.N,GND*%
X46750000Y-116810000D03*
D11*
%TO.P,J6,1*%
%TO.N,+3V3*%
X46750000Y-114270000D03*
%TD*%
D22*
%TO.P,J1,2*%
%TO.N,Net-(J1-Pad2)*%
X46490000Y-55740000D03*
D23*
%TO.P,J1,1*%
%TO.N,GND*%
X46490000Y-50660000D03*
%TD*%
D19*
%TO.P,D6,2*%
%TO.N,Net-(D6-Pad2)*%
X84250000Y-42670000D03*
D20*
%TO.P,D6,1*%
%TO.N,GND*%
X84250000Y-40130000D03*
%TD*%
D19*
%TO.P,D5,2*%
%TO.N,Net-(D5-Pad2)*%
X77230000Y-42620000D03*
D20*
%TO.P,D5,1*%
%TO.N,GND*%
X77230000Y-40080000D03*
%TD*%
D19*
%TO.P,D3,2*%
%TO.N,Net-(D3-Pad2)*%
X62290000Y-42670000D03*
D20*
%TO.P,D3,1*%
%TO.N,GND*%
X62290000Y-40130000D03*
%TD*%
D24*
%TO.P,D1,2*%
%TO.N,Net-(D1-Pad2)*%
X47420000Y-69360000D03*
D25*
%TO.P,D1,1*%
%TO.N,+9V*%
X47420000Y-79520000D03*
%TD*%
D16*
%TO.P,C1,2*%
%TO.N,Net-(C1-Pad2)*%
X74750000Y-53370000D03*
D26*
%TO.P,C1,1*%
%TO.N,GND*%
X72250000Y-53370000D03*
%TD*%
D27*
%TO.N,pinMotorRightFault*%
X188779800Y-106360500D03*
%TO.N,IOREV*%
X176739700Y-95577200D03*
X113830400Y-112123100D03*
%TO.N,pinMotorLeftFault*%
X185498400Y-57889700D03*
%TO.N,pinMotorLeftPWM*%
X123914100Y-56463800D03*
%TO.N,pinMotorLeftDir*%
X170279800Y-53863400D03*
%TO.N,pinMotorMowPWM*%
X145921600Y-69887400D03*
%TO.N,pinOdometryLeft*%
X181702900Y-114283400D03*
%TO.N,pinDropLeft*%
X108448300Y-97677400D03*
%TO.N,pinDropRight*%
X52349500Y-114012700D03*
%TO.N,pinButton*%
X109232000Y-98334400D03*
%TO.N,pinChargeRelay*%
X111004800Y-98770500D03*
%TO.N,pinTilt*%
X107642400Y-98345000D03*
%TO.N,pinChargeVoltage*%
X116173200Y-103400800D03*
%TO.N,pinChargeCurrent*%
X113207300Y-100481400D03*
%TO.N,+5V*%
X168949300Y-113502900D03*
%TO.N,Net-(J27-Pad1)*%
X188725400Y-63738200D03*
%TO.N,Net-(J28-Pad1)*%
X190095500Y-107085800D03*
%TD*%
D28*
%TO.N,SCL1*%
X88906000Y-60410000D02*
X90094900Y-60410000D01*
X90094900Y-60410000D02*
X90094900Y-60781500D01*
X90094900Y-60781500D02*
X90922100Y-61608700D01*
X90922100Y-61608700D02*
X94504400Y-61608700D01*
X94504400Y-61608700D02*
X95256000Y-60857100D01*
X95256000Y-60857100D02*
X95256000Y-59963300D01*
X95256000Y-59963300D02*
X106109300Y-49110000D01*
X106109300Y-49110000D02*
X110270000Y-49110000D01*
%TO.N,SDA1*%
X109094700Y-46570000D02*
X107270300Y-46570000D01*
X107270300Y-46570000D02*
X94619200Y-59221100D01*
X94619200Y-59221100D02*
X93452200Y-59221100D01*
X93452200Y-59221100D02*
X92634900Y-60038400D01*
X92634900Y-60038400D02*
X92634900Y-60410000D01*
X110270000Y-46570000D02*
X109094700Y-46570000D01*
X91446000Y-60410000D02*
X92634900Y-60410000D01*
%TO.N,pinMotorRightFault*%
X190080000Y-114910000D02*
X190080000Y-113784700D01*
X188779800Y-106360500D02*
X188779800Y-112484500D01*
X188779800Y-112484500D02*
X190080000Y-113784700D01*
X166630000Y-68030000D02*
X166630000Y-69218900D01*
X166630000Y-69218900D02*
X167001600Y-69218900D01*
X167001600Y-69218900D02*
X167818900Y-70036200D01*
X167818900Y-70036200D02*
X167818900Y-81464900D01*
X167818900Y-81464900D02*
X173984000Y-87630000D01*
%TO.N,IOREV*%
X173984000Y-115570000D02*
X169927900Y-115570000D01*
X169927900Y-115570000D02*
X168218700Y-113860800D01*
X168218700Y-113860800D02*
X168218700Y-113198500D01*
X168218700Y-113198500D02*
X172197200Y-109220000D01*
X172197200Y-109220000D02*
X174347200Y-109220000D01*
X174347200Y-109220000D02*
X177650000Y-105917200D01*
X177650000Y-105917200D02*
X177650000Y-96487500D01*
X177650000Y-96487500D02*
X176739700Y-95577200D01*
X173984000Y-60770000D02*
X175071400Y-59682600D01*
X175071400Y-59682600D02*
X175071400Y-58135800D01*
X175071400Y-58135800D02*
X176247200Y-56960000D01*
X176247200Y-56960000D02*
X176844100Y-56960000D01*
X176844100Y-56960000D02*
X177646000Y-56158100D01*
X177646000Y-56158100D02*
X177646000Y-49192000D01*
X177646000Y-49192000D02*
X173984000Y-45530000D01*
X173984000Y-68390000D02*
X172846600Y-67252600D01*
X172846600Y-67252600D02*
X172846600Y-61907400D01*
X172846600Y-61907400D02*
X173984000Y-60770000D01*
X173984000Y-92710000D02*
X175073400Y-91620600D01*
X175073400Y-91620600D02*
X175073400Y-77099400D01*
X175073400Y-77099400D02*
X173984000Y-76010000D01*
X101778900Y-108670000D02*
X101778900Y-109041500D01*
X101778900Y-109041500D02*
X104860500Y-112123100D01*
X104860500Y-112123100D02*
X113830400Y-112123100D01*
X100590000Y-108670000D02*
X101778900Y-108670000D01*
%TO.N,pinMotorRightPWM*%
X125990000Y-60410000D02*
X127178900Y-60410000D01*
X127178900Y-60410000D02*
X127178900Y-60781500D01*
X127178900Y-60781500D02*
X156017400Y-89620000D01*
X156017400Y-89620000D02*
X168354000Y-89620000D01*
X168354000Y-89620000D02*
X173984000Y-95250000D01*
%TO.N,pinMotorEnable*%
X182510000Y-57295300D02*
X182877300Y-57295300D01*
X182877300Y-57295300D02*
X184141500Y-58559500D01*
X184141500Y-58559500D02*
X184141500Y-86672700D01*
X184141500Y-86672700D02*
X176412600Y-94401600D01*
X176412600Y-94401600D02*
X175457000Y-94401600D01*
X175457000Y-94401600D02*
X175075400Y-94783200D01*
X175075400Y-94783200D02*
X175075400Y-95746300D01*
X175075400Y-95746300D02*
X174301700Y-96520000D01*
X174301700Y-96520000D02*
X173712700Y-96520000D01*
X173712700Y-96520000D02*
X172882100Y-97350600D01*
X172882100Y-97350600D02*
X172882100Y-104308100D01*
X172882100Y-104308100D02*
X173984000Y-105410000D01*
X166630000Y-81918900D02*
X167033300Y-81918900D01*
X167033300Y-81918900D02*
X171540100Y-86425700D01*
X171540100Y-86425700D02*
X171540100Y-91828600D01*
X171540100Y-91828600D02*
X173827100Y-94115600D01*
X173827100Y-94115600D02*
X174407800Y-94115600D01*
X174407800Y-94115600D02*
X175075400Y-94783200D01*
X182510000Y-56120000D02*
X182510000Y-57295300D01*
X166630000Y-80730000D02*
X166630000Y-81918900D01*
%TO.N,pinMotorLeftFault*%
X189684200Y-66551100D02*
X186904500Y-66551100D01*
X186904500Y-66551100D02*
X185498400Y-65145000D01*
X185498400Y-65145000D02*
X185498400Y-57889700D01*
X189684200Y-66551100D02*
X191572700Y-68439600D01*
X191572700Y-68439600D02*
X191572700Y-89838900D01*
X191572700Y-89838900D02*
X181080000Y-100331600D01*
X181080000Y-100331600D02*
X181080000Y-102248300D01*
X181080000Y-102248300D02*
X180288300Y-103040000D01*
X180288300Y-103040000D02*
X179312600Y-103040000D01*
X179312600Y-103040000D02*
X178526800Y-103825800D01*
X178526800Y-103825800D02*
X178526800Y-105947200D01*
X178526800Y-105947200D02*
X173984000Y-110490000D01*
X190140000Y-66095300D02*
X189684200Y-66551100D01*
X190140000Y-64970000D02*
X190140000Y-66095300D01*
%TO.N,pinMotorLeftPWM*%
X173984000Y-118110000D02*
X176213400Y-118110000D01*
X176213400Y-118110000D02*
X188054500Y-106268900D01*
X188054500Y-106268900D02*
X188054500Y-106060100D01*
X188054500Y-106060100D02*
X188479400Y-105635200D01*
X188479400Y-105635200D02*
X189080300Y-105635200D01*
X189080300Y-105635200D02*
X189090500Y-105645400D01*
X189090500Y-105645400D02*
X194896300Y-105645400D01*
X194896300Y-105645400D02*
X195588200Y-104953500D01*
X195588200Y-104953500D02*
X195588200Y-65998400D01*
X195588200Y-65998400D02*
X188870000Y-59280200D01*
X188870000Y-59280200D02*
X188870000Y-58272900D01*
X188870000Y-58272900D02*
X183001800Y-52404700D01*
X183001800Y-52404700D02*
X181953200Y-52404700D01*
X181953200Y-52404700D02*
X181145300Y-53212600D01*
X181145300Y-53212600D02*
X181145300Y-53580000D01*
X120910000Y-60410000D02*
X120910000Y-59221100D01*
X120910000Y-59221100D02*
X121156800Y-59221100D01*
X121156800Y-59221100D02*
X123914100Y-56463800D01*
X179970000Y-53580000D02*
X181145300Y-53580000D01*
%TO.N,pinMotorLeftDir*%
X166630000Y-73110000D02*
X166630000Y-71921100D01*
X166630000Y-71921100D02*
X166258500Y-71921100D01*
X166258500Y-71921100D02*
X165424500Y-71087100D01*
X165424500Y-71087100D02*
X165424500Y-67538600D01*
X165424500Y-67538600D02*
X166203100Y-66760000D01*
X166203100Y-66760000D02*
X167112100Y-66760000D01*
X167112100Y-66760000D02*
X170279800Y-63592300D01*
X170279800Y-63592300D02*
X170279800Y-53863400D01*
X173984000Y-120650000D02*
X187231700Y-120650000D01*
X187231700Y-120650000D02*
X200255600Y-107626100D01*
X200255600Y-107626100D02*
X200255600Y-58912800D01*
X200255600Y-58912800D02*
X197437500Y-56094700D01*
X197437500Y-56094700D02*
X196800500Y-56094700D01*
X196800500Y-56094700D02*
X195821500Y-55115700D01*
X195821500Y-55115700D02*
X192924700Y-55115700D01*
X192924700Y-55115700D02*
X192641500Y-54832500D01*
X192641500Y-54832500D02*
X192641500Y-52879300D01*
X192641500Y-52879300D02*
X189626900Y-49864700D01*
X189626900Y-49864700D02*
X181512500Y-49864700D01*
X181512500Y-49864700D02*
X181145300Y-50231900D01*
X181145300Y-50231900D02*
X181145300Y-51040000D01*
X179970000Y-51040000D02*
X181145300Y-51040000D01*
%TO.N,pinMotorMowSense*%
X128530000Y-108670000D02*
X128530000Y-107481100D01*
X128530000Y-107481100D02*
X124639500Y-103590600D01*
X124639500Y-103590600D02*
X124639500Y-50687700D01*
X124639500Y-50687700D02*
X123656300Y-49704500D01*
X123656300Y-49704500D02*
X123656300Y-43525600D01*
X123656300Y-43525600D02*
X124446500Y-42735400D01*
X124446500Y-42735400D02*
X137385300Y-42735400D01*
X137385300Y-42735400D02*
X137920700Y-42200000D01*
X137920700Y-42200000D02*
X140859600Y-42200000D01*
X140859600Y-42200000D02*
X145149600Y-37910000D01*
X145149600Y-37910000D02*
X173984000Y-37910000D01*
%TO.N,pinMotorMowFault*%
X173984000Y-40450000D02*
X175432100Y-41898100D01*
X175432100Y-41898100D02*
X175432100Y-46336600D01*
X175432100Y-46336600D02*
X178774800Y-49679300D01*
X178774800Y-49679300D02*
X178774800Y-54137600D01*
X178774800Y-54137600D02*
X179413500Y-54776300D01*
X179413500Y-54776300D02*
X182829100Y-54776300D01*
X182829100Y-54776300D02*
X184760700Y-56707900D01*
X184760700Y-56707900D02*
X184760700Y-66051800D01*
X184760700Y-66051800D02*
X188770000Y-70061100D01*
X188770000Y-70061100D02*
X188770000Y-74897200D01*
X188770000Y-74897200D02*
X191096300Y-77223500D01*
X191096300Y-77223500D02*
X191096300Y-87598400D01*
X191096300Y-87598400D02*
X190140000Y-88554700D01*
X173984000Y-63310000D02*
X178774800Y-58519200D01*
X178774800Y-58519200D02*
X178774800Y-55415000D01*
X178774800Y-55415000D02*
X179413500Y-54776300D01*
X190140000Y-89680000D02*
X190140000Y-88554700D01*
%TO.N,pinMotorMowPWM*%
X173984000Y-70930000D02*
X176371100Y-70930000D01*
X176371100Y-70930000D02*
X181145300Y-75704200D01*
X181145300Y-75704200D02*
X181145300Y-76776800D01*
X181145300Y-76776800D02*
X180337400Y-77584700D01*
X180337400Y-77584700D02*
X179970000Y-77584700D01*
X173984000Y-48070000D02*
X175119600Y-49205600D01*
X175119600Y-49205600D02*
X175119600Y-51061300D01*
X175119600Y-51061300D02*
X174300900Y-51880000D01*
X174300900Y-51880000D02*
X173707200Y-51880000D01*
X173707200Y-51880000D02*
X171945900Y-53641300D01*
X171945900Y-53641300D02*
X171945900Y-68891900D01*
X171945900Y-68891900D02*
X173984000Y-70930000D01*
X179970000Y-78760000D02*
X179970000Y-77584700D01*
X128530000Y-60410000D02*
X129718900Y-60410000D01*
X129718900Y-60410000D02*
X129718900Y-60781500D01*
X129718900Y-60781500D02*
X138824800Y-69887400D01*
X138824800Y-69887400D02*
X145921600Y-69887400D01*
%TO.N,pinMotorMowDir*%
X173984000Y-50610000D02*
X171495600Y-53098400D01*
X171495600Y-53098400D02*
X171495600Y-70981600D01*
X171495600Y-70981600D02*
X173984000Y-73470000D01*
X179970000Y-76220000D02*
X178794700Y-76220000D01*
X173984000Y-73470000D02*
X176044700Y-73470000D01*
X176044700Y-73470000D02*
X178794700Y-76220000D01*
%TO.N,pinMotorMowEnable*%
X182510000Y-81300000D02*
X182510000Y-80124700D01*
X173984000Y-58230000D02*
X172396200Y-59817800D01*
X172396200Y-59817800D02*
X172396200Y-68372200D01*
X172396200Y-68372200D02*
X173684000Y-69660000D01*
X173684000Y-69660000D02*
X178165200Y-69660000D01*
X178165200Y-69660000D02*
X183691200Y-75186000D01*
X183691200Y-75186000D02*
X183691200Y-79248100D01*
X183691200Y-79248100D02*
X182814600Y-80124700D01*
X182814600Y-80124700D02*
X182510000Y-80124700D01*
%TO.N,pinOdometryRight*%
X190080000Y-102690000D02*
X190080000Y-103815300D01*
X159010000Y-108670000D02*
X160198900Y-108670000D01*
X160198900Y-108670000D02*
X160198900Y-109041500D01*
X160198900Y-109041500D02*
X167827800Y-116670400D01*
X167827800Y-116670400D02*
X177016100Y-116670400D01*
X177016100Y-116670400D02*
X187585100Y-106101400D01*
X187585100Y-106101400D02*
X187585100Y-105872300D01*
X187585100Y-105872300D02*
X189642100Y-103815300D01*
X189642100Y-103815300D02*
X190080000Y-103815300D01*
%TO.N,pinOdometryLeft*%
X190050000Y-52530000D02*
X190050000Y-54486100D01*
X190050000Y-54486100D02*
X193241700Y-57677800D01*
X193241700Y-57677800D02*
X194689500Y-57677800D01*
X194689500Y-57677800D02*
X195225000Y-57142300D01*
X195225000Y-57142300D02*
X197848200Y-57142300D01*
X197848200Y-57142300D02*
X199805300Y-59099400D01*
X199805300Y-59099400D02*
X199805300Y-104889600D01*
X199805300Y-104889600D02*
X196039500Y-108655400D01*
X196039500Y-108655400D02*
X196039500Y-110567700D01*
X196039500Y-110567700D02*
X190521500Y-116085700D01*
X190521500Y-116085700D02*
X183505200Y-116085700D01*
X183505200Y-116085700D02*
X181702900Y-114283400D01*
%TO.N,+24V*%
X197352000Y-58230000D02*
X196264600Y-59317400D01*
X196264600Y-59317400D02*
X196264600Y-104322600D01*
X196264600Y-104322600D02*
X197352000Y-105410000D01*
%TO.N,pinDropLeft*%
X46750000Y-118174700D02*
X47047600Y-118174700D01*
X47047600Y-118174700D02*
X53180000Y-112042300D01*
X53180000Y-112042300D02*
X53180000Y-105775800D01*
X53180000Y-105775800D02*
X61339600Y-97616200D01*
X61339600Y-97616200D02*
X108387100Y-97616200D01*
X108387100Y-97616200D02*
X108448300Y-97677400D01*
X46750000Y-119350000D02*
X46750000Y-118174700D01*
%TO.N,pinBumperLeft*%
X165441100Y-83270000D02*
X165441100Y-83641500D01*
X165441100Y-83641500D02*
X164622000Y-84460600D01*
X164622000Y-84460600D02*
X161520600Y-84460600D01*
X161520600Y-84460600D02*
X146222100Y-69162100D01*
X146222100Y-69162100D02*
X145753600Y-69162100D01*
X145753600Y-69162100D02*
X126015300Y-49423800D01*
X126015300Y-49423800D02*
X126015300Y-49130000D01*
X124840000Y-49130000D02*
X126015300Y-49130000D01*
X166630000Y-83270000D02*
X165441100Y-83270000D01*
%TO.N,pinBumperRight*%
X164090000Y-83270000D02*
X164090000Y-82081100D01*
X164090000Y-82081100D02*
X163718500Y-82081100D01*
X163718500Y-82081100D02*
X142500000Y-60862600D01*
X142500000Y-60862600D02*
X142500000Y-59978200D01*
X142500000Y-59978200D02*
X126571800Y-44050000D01*
X126571800Y-44050000D02*
X124840000Y-44050000D01*
%TO.N,pinDropRight*%
X54670000Y-118104700D02*
X54302700Y-118104700D01*
X54302700Y-118104700D02*
X52349500Y-116151500D01*
X52349500Y-116151500D02*
X52349500Y-114012700D01*
X54670000Y-119280000D02*
X54670000Y-118104700D01*
%TO.N,pinBuzzer*%
X76405300Y-115910000D02*
X86999300Y-126504000D01*
X86999300Y-126504000D02*
X140365800Y-126504000D01*
X140365800Y-126504000D02*
X157675900Y-109193900D01*
X157675900Y-109193900D02*
X157675900Y-108313000D01*
X157675900Y-108313000D02*
X163750000Y-102238900D01*
X163750000Y-102238900D02*
X164623800Y-102238900D01*
X164623800Y-102238900D02*
X165441100Y-101421600D01*
X165441100Y-101421600D02*
X165441100Y-101050000D01*
X75230000Y-115910000D02*
X76405300Y-115910000D01*
X166630000Y-101050000D02*
X165441100Y-101050000D01*
%TO.N,pinRemoteSwitch*%
X54450000Y-106170000D02*
X69158900Y-106170000D01*
X69158900Y-106170000D02*
X89042600Y-126053700D01*
X89042600Y-126053700D02*
X138457500Y-126053700D01*
X138457500Y-126053700D02*
X155200000Y-109311200D01*
X155200000Y-109311200D02*
X155200000Y-108253100D01*
X155200000Y-108253100D02*
X162403100Y-101050000D01*
X162403100Y-101050000D02*
X164090000Y-101050000D01*
%TO.N,pinButton*%
X97360000Y-113018700D02*
X99320000Y-111058700D01*
X99320000Y-111058700D02*
X99320000Y-108246400D01*
X99320000Y-108246400D02*
X109232000Y-98334400D01*
X97360000Y-114360000D02*
X97360000Y-113018700D01*
%TO.N,pinChargeRelay*%
X111004800Y-98770500D02*
X111004800Y-98430000D01*
X111004800Y-98430000D02*
X109054900Y-96480100D01*
X109054900Y-96480100D02*
X45715200Y-96480100D01*
X45715200Y-96480100D02*
X44235300Y-97960000D01*
X43060000Y-97960000D02*
X44235300Y-97960000D01*
%TO.N,pinUserSwitch3*%
X109251300Y-120310000D02*
X114544700Y-125603400D01*
X114544700Y-125603400D02*
X138270900Y-125603400D01*
X138270900Y-125603400D02*
X150120000Y-113754300D01*
X150120000Y-113754300D02*
X150120000Y-108248200D01*
X150120000Y-108248200D02*
X162398200Y-95970000D01*
X162398200Y-95970000D02*
X164090000Y-95970000D01*
X107910000Y-120310000D02*
X109251300Y-120310000D01*
%TO.N,pinUserSwitch2*%
X109221300Y-114290000D02*
X110811500Y-114290000D01*
X110811500Y-114290000D02*
X121224300Y-124702800D01*
X121224300Y-124702800D02*
X137897700Y-124702800D01*
X137897700Y-124702800D02*
X145040000Y-117560500D01*
X145040000Y-117560500D02*
X145040000Y-108227000D01*
X145040000Y-108227000D02*
X161041400Y-92225600D01*
X161041400Y-92225600D02*
X164607900Y-92225600D01*
X164607900Y-92225600D02*
X165441100Y-93058800D01*
X165441100Y-93058800D02*
X165441100Y-93430000D01*
X107880000Y-114290000D02*
X109221300Y-114290000D01*
X166630000Y-93430000D02*
X165441100Y-93430000D01*
%TO.N,pinUserSwitch1*%
X101171300Y-120340000D02*
X102542700Y-118968600D01*
X102542700Y-118968600D02*
X114853200Y-118968600D01*
X114853200Y-118968600D02*
X121037700Y-125153100D01*
X121037700Y-125153100D02*
X138084300Y-125153100D01*
X138084300Y-125153100D02*
X147580000Y-115657400D01*
X147580000Y-115657400D02*
X147580000Y-108255000D01*
X147580000Y-108255000D02*
X162405000Y-93430000D01*
X162405000Y-93430000D02*
X164090000Y-93430000D01*
X99830000Y-120340000D02*
X101171300Y-120340000D01*
%TO.N,pinRain*%
X91760000Y-119880000D02*
X92935300Y-119880000D01*
X164090000Y-90890000D02*
X159791400Y-90890000D01*
X159791400Y-90890000D02*
X140793900Y-109887500D01*
X140793900Y-109887500D02*
X140793900Y-121169700D01*
X140793900Y-121169700D02*
X137711100Y-124252500D01*
X137711100Y-124252500D02*
X121641000Y-124252500D01*
X121641000Y-124252500D02*
X110308800Y-112920300D01*
X110308800Y-112920300D02*
X104211700Y-112920300D01*
X104211700Y-112920300D02*
X98427300Y-118704700D01*
X98427300Y-118704700D02*
X94110600Y-118704700D01*
X94110600Y-118704700D02*
X92935300Y-119880000D01*
%TO.N,pinSonarLeftEcho*%
X134910000Y-49180000D02*
X134910000Y-50355300D01*
X164090000Y-80730000D02*
X164090000Y-79541100D01*
X164090000Y-79541100D02*
X163718500Y-79541100D01*
X163718500Y-79541100D02*
X145040000Y-60862600D01*
X145040000Y-60862600D02*
X145040000Y-59971100D01*
X145040000Y-59971100D02*
X135424200Y-50355300D01*
X135424200Y-50355300D02*
X134910000Y-50355300D01*
%TO.N,pinTilt*%
X85510000Y-118694700D02*
X85922000Y-118694700D01*
X85922000Y-118694700D02*
X86685300Y-117931400D01*
X86685300Y-117931400D02*
X86685300Y-117676800D01*
X86685300Y-117676800D02*
X106017100Y-98345000D01*
X106017100Y-98345000D02*
X107642400Y-98345000D01*
X85510000Y-119870000D02*
X85510000Y-118694700D01*
%TO.N,pinSonarLeftTrigger*%
X140090000Y-49270000D02*
X140090000Y-50395300D01*
X164090000Y-78190000D02*
X164090000Y-77001100D01*
X164090000Y-77001100D02*
X163718500Y-77001100D01*
X163718500Y-77001100D02*
X147580000Y-60862600D01*
X147580000Y-60862600D02*
X147580000Y-57885300D01*
X147580000Y-57885300D02*
X140090000Y-50395300D01*
%TO.N,pinSonarRightEcho*%
X155550000Y-49180000D02*
X155550000Y-50355300D01*
X164090000Y-75650000D02*
X164090000Y-74461100D01*
X164090000Y-74461100D02*
X163718500Y-74461100D01*
X163718500Y-74461100D02*
X158172800Y-68915400D01*
X158172800Y-68915400D02*
X158172800Y-52978100D01*
X158172800Y-52978100D02*
X155550000Y-50355300D01*
%TO.N,pinSonarRightTrigger*%
X160570000Y-40950000D02*
X160570000Y-42075300D01*
X164090000Y-73110000D02*
X164090000Y-71921100D01*
X164090000Y-71921100D02*
X163718500Y-71921100D01*
X163718500Y-71921100D02*
X162888100Y-71090700D01*
X162888100Y-71090700D02*
X162888100Y-67550300D01*
X162888100Y-67550300D02*
X163597300Y-66841100D01*
X163597300Y-66841100D02*
X164421300Y-66841100D01*
X164421300Y-66841100D02*
X165314400Y-65948000D01*
X165314400Y-65948000D02*
X165314400Y-46538400D01*
X165314400Y-46538400D02*
X160851300Y-42075300D01*
X160851300Y-42075300D02*
X160570000Y-42075300D01*
%TO.N,pinSonarCenterTrigger*%
X150150000Y-49320000D02*
X151275300Y-49320000D01*
X164090000Y-65490000D02*
X164090000Y-64301100D01*
X164090000Y-64301100D02*
X163718400Y-64301100D01*
X163718400Y-64301100D02*
X162901100Y-63483800D01*
X162901100Y-63483800D02*
X162901100Y-54842600D01*
X162901100Y-54842600D02*
X156056600Y-47998100D01*
X156056600Y-47998100D02*
X152597200Y-47998100D01*
X152597200Y-47998100D02*
X151275300Y-49320000D01*
%TO.N,pinChargeVoltage*%
X116173200Y-103400800D02*
X116173200Y-102223000D01*
X116173200Y-102223000D02*
X106830200Y-92880000D01*
X106830200Y-92880000D02*
X43060000Y-92880000D01*
%TO.N,pinChargeCurrent*%
X113207300Y-100481400D02*
X113207300Y-99941100D01*
X113207300Y-99941100D02*
X108686200Y-95420000D01*
X108686200Y-95420000D02*
X44235300Y-95420000D01*
X43060000Y-95420000D02*
X44235300Y-95420000D01*
%TO.N,pinVoltageMeasurement*%
X43060000Y-100500000D02*
X44235300Y-100500000D01*
X138690000Y-108670000D02*
X137501100Y-108670000D01*
X137501100Y-108670000D02*
X137501100Y-108298500D01*
X137501100Y-108298500D02*
X136156200Y-106953600D01*
X136156200Y-106953600D02*
X131101400Y-106953600D01*
X131101400Y-106953600D02*
X129800000Y-108255000D01*
X129800000Y-108255000D02*
X129800000Y-109082800D01*
X129800000Y-109082800D02*
X128975200Y-109907600D01*
X128975200Y-109907600D02*
X122975900Y-109907600D01*
X122975900Y-109907600D02*
X122180000Y-109111700D01*
X122180000Y-109111700D02*
X122180000Y-108243100D01*
X122180000Y-108243100D02*
X118822400Y-104885500D01*
X118822400Y-104885500D02*
X116064500Y-104885500D01*
X116064500Y-104885500D02*
X110214800Y-99035800D01*
X110214800Y-99035800D02*
X110214800Y-98276900D01*
X110214800Y-98276900D02*
X108868400Y-96930500D01*
X108868400Y-96930500D02*
X47804800Y-96930500D01*
X47804800Y-96930500D02*
X44235300Y-100500000D01*
%TO.N,pinPerimeterLeft*%
X122645300Y-120000000D02*
X125449900Y-117195400D01*
X125449900Y-117195400D02*
X128556300Y-117195400D01*
X128556300Y-117195400D02*
X133610000Y-112141700D01*
X133610000Y-112141700D02*
X133610000Y-108670000D01*
X121520000Y-120000000D02*
X122645300Y-120000000D01*
%TO.N,pinPerimeterRight*%
X133530000Y-120100000D02*
X133530000Y-118974700D01*
X131070000Y-108670000D02*
X132258900Y-108670000D01*
X132258900Y-108670000D02*
X132258900Y-108298500D01*
X132258900Y-108298500D02*
X133086600Y-107470800D01*
X133086600Y-107470800D02*
X134119200Y-107470800D01*
X134119200Y-107470800D02*
X134817200Y-108168800D01*
X134817200Y-108168800D02*
X134817200Y-117687500D01*
X134817200Y-117687500D02*
X133530000Y-118974700D01*
%TO.N,pinBatteryVoltage*%
X43060000Y-87800000D02*
X43060000Y-88975300D01*
X125990000Y-108670000D02*
X124801100Y-108670000D01*
X124801100Y-108670000D02*
X124801100Y-108298500D01*
X124801100Y-108298500D02*
X108112600Y-91610000D01*
X108112600Y-91610000D02*
X42600100Y-91610000D01*
X42600100Y-91610000D02*
X41884700Y-90894600D01*
X41884700Y-90894600D02*
X41884700Y-89783200D01*
X41884700Y-89783200D02*
X42692600Y-88975300D01*
X42692600Y-88975300D02*
X43060000Y-88975300D01*
%TO.N,pinRemoteSteer*%
X102957100Y-60410000D02*
X102957100Y-60781600D01*
X102957100Y-60781600D02*
X77762800Y-85975900D01*
X77762800Y-85975900D02*
X42087000Y-85975900D01*
X42087000Y-85975900D02*
X40976700Y-87086200D01*
X40976700Y-87086200D02*
X40976700Y-102488200D01*
X40976700Y-102488200D02*
X45833800Y-107345300D01*
X45833800Y-107345300D02*
X47827500Y-107345300D01*
X47827500Y-107345300D02*
X48194700Y-106978100D01*
X48194700Y-106978100D02*
X48194700Y-106170000D01*
X49370000Y-106170000D02*
X48194700Y-106170000D01*
X104146000Y-60410000D02*
X102957100Y-60410000D01*
%TO.N,pinRemoteMow*%
X100417100Y-60410000D02*
X100417100Y-60781500D01*
X100417100Y-60781500D02*
X75684600Y-85514000D01*
X75684600Y-85514000D02*
X41900400Y-85514000D01*
X41900400Y-85514000D02*
X40526400Y-86888000D01*
X40526400Y-86888000D02*
X40526400Y-102674800D01*
X40526400Y-102674800D02*
X45647200Y-107795600D01*
X45647200Y-107795600D02*
X49476500Y-107795600D01*
X49476500Y-107795600D02*
X50734700Y-106537400D01*
X50734700Y-106537400D02*
X50734700Y-106170000D01*
X51910000Y-106170000D02*
X50734700Y-106170000D01*
X101606000Y-60410000D02*
X100417100Y-60410000D01*
%TO.N,pinRemoteSpeed*%
X105497100Y-60410000D02*
X105497100Y-60781500D01*
X105497100Y-60781500D02*
X79705000Y-86573600D01*
X79705000Y-86573600D02*
X42126300Y-86573600D01*
X42126300Y-86573600D02*
X41427000Y-87272900D01*
X41427000Y-87272900D02*
X41427000Y-100529300D01*
X41427000Y-100529300D02*
X45892400Y-104994700D01*
X45892400Y-104994700D02*
X46830000Y-104994700D01*
X46830000Y-106170000D02*
X46830000Y-104994700D01*
X106686000Y-60410000D02*
X105497100Y-60410000D01*
%TO.N,pinBatterySwitch*%
X122261100Y-60410000D02*
X122261100Y-60781500D01*
X122261100Y-60781500D02*
X92702600Y-90340000D01*
X92702600Y-90340000D02*
X44235300Y-90340000D01*
X43060000Y-90340000D02*
X44235300Y-90340000D01*
X123450000Y-60410000D02*
X122261100Y-60410000D01*
%TO.N,SCL0*%
X94930000Y-49030000D02*
X96105300Y-49030000D01*
X102460000Y-49020000D02*
X96115300Y-49020000D01*
X96115300Y-49020000D02*
X96105300Y-49030000D01*
%TO.N,+5V*%
X127500000Y-116020000D02*
X126324700Y-116020000D01*
X108210000Y-108670000D02*
X109398900Y-108670000D01*
X109398900Y-108670000D02*
X109398900Y-109041600D01*
X109398900Y-109041600D02*
X110216200Y-109858900D01*
X110216200Y-109858900D02*
X120163600Y-109858900D01*
X120163600Y-109858900D02*
X126324700Y-116020000D01*
X155550000Y-41560000D02*
X156725300Y-41560000D01*
X193910000Y-53940000D02*
X193910000Y-52764700D01*
X193910000Y-52764700D02*
X189431600Y-48286300D01*
X189431600Y-48286300D02*
X184194700Y-48286300D01*
X184194700Y-48286300D02*
X175264500Y-39356100D01*
X175264500Y-39356100D02*
X158929200Y-39356100D01*
X158929200Y-39356100D02*
X156725300Y-41560000D01*
X63620000Y-46990000D02*
X64745300Y-46990000D01*
X134910000Y-41560000D02*
X133734700Y-41560000D01*
X133734700Y-41560000D02*
X132399300Y-40224600D01*
X132399300Y-40224600D02*
X101413900Y-40224600D01*
X101413900Y-40224600D02*
X96487400Y-45151100D01*
X96487400Y-45151100D02*
X66584200Y-45151100D01*
X66584200Y-45151100D02*
X64745300Y-46990000D01*
X192734700Y-101554900D02*
X192734700Y-102119400D01*
X192734700Y-102119400D02*
X193910000Y-103294700D01*
X193910000Y-78105300D02*
X193542700Y-78105300D01*
X193542700Y-78105300D02*
X192734700Y-78913300D01*
X192734700Y-78913300D02*
X192734700Y-101554900D01*
X168949300Y-113502900D02*
X170692200Y-111760000D01*
X170692200Y-111760000D02*
X174339000Y-111760000D01*
X174339000Y-111760000D02*
X177979000Y-108120000D01*
X177979000Y-108120000D02*
X183707500Y-108120000D01*
X183707500Y-108120000D02*
X188810000Y-103017500D01*
X188810000Y-103017500D02*
X188810000Y-102342900D01*
X188810000Y-102342900D02*
X189598000Y-101554900D01*
X189598000Y-101554900D02*
X192734700Y-101554900D01*
X155550000Y-41560000D02*
X154374700Y-41560000D01*
X145220000Y-41610000D02*
X146395300Y-41610000D01*
X146395300Y-41610000D02*
X146890900Y-42105600D01*
X146890900Y-42105600D02*
X153829100Y-42105600D01*
X153829100Y-42105600D02*
X154374700Y-41560000D01*
X193910000Y-104470000D02*
X193910000Y-103294700D01*
X193910000Y-76930000D02*
X193910000Y-78105300D01*
%TO.N,pinMotorMowRpm*%
X189950000Y-79095300D02*
X184760400Y-84284900D01*
X184760400Y-84284900D02*
X184760400Y-86749300D01*
X184760400Y-86749300D02*
X176657800Y-94851900D01*
X176657800Y-94851900D02*
X176439300Y-94851900D01*
X176439300Y-94851900D02*
X176014400Y-95276800D01*
X176014400Y-95276800D02*
X176014400Y-95713900D01*
X176014400Y-95713900D02*
X175415100Y-96313200D01*
X175415100Y-96313200D02*
X175415100Y-105518700D01*
X175415100Y-105518700D02*
X174425500Y-106508300D01*
X174425500Y-106508300D02*
X173543300Y-106508300D01*
X173543300Y-106508300D02*
X172882300Y-105847300D01*
X172882300Y-105847300D02*
X172882300Y-105546500D01*
X172882300Y-105546500D02*
X167188200Y-99852400D01*
X167188200Y-99852400D02*
X161025000Y-99852400D01*
X161025000Y-99852400D02*
X152578900Y-108298500D01*
X152578900Y-108298500D02*
X152578900Y-108670000D01*
X189950000Y-77970000D02*
X189950000Y-79095300D01*
X151390000Y-108670000D02*
X152578900Y-108670000D01*
%TO.N,+3V3*%
X110270000Y-41490000D02*
X109094700Y-41490000D01*
X102460000Y-41400000D02*
X109004700Y-41400000D01*
X109004700Y-41400000D02*
X109094700Y-41490000D01*
X56660000Y-47040000D02*
X56660000Y-48165300D01*
X54360000Y-54530000D02*
X54360000Y-50465300D01*
X54360000Y-50465300D02*
X56660000Y-48165300D01*
X54360000Y-57070000D02*
X54360000Y-54530000D01*
X54360000Y-62150000D02*
X54360000Y-66570800D01*
X54360000Y-66570800D02*
X40071100Y-80859700D01*
X40071100Y-80859700D02*
X40071100Y-106415800D01*
X40071100Y-106415800D02*
X46750000Y-113094700D01*
X54360000Y-62150000D02*
X54360000Y-59610000D01*
X110270000Y-41490000D02*
X111445300Y-41490000D01*
X111445300Y-41490000D02*
X114025300Y-44070000D01*
X114025300Y-44070000D02*
X117350000Y-44070000D01*
X46750000Y-114270000D02*
X46750000Y-113094700D01*
X54360000Y-57070000D02*
X54360000Y-59610000D01*
X56660000Y-47040000D02*
X57785300Y-47040000D01*
X94930000Y-41410000D02*
X93754700Y-41410000D01*
X93754700Y-41410000D02*
X90464000Y-44700700D01*
X90464000Y-44700700D02*
X60124600Y-44700700D01*
X60124600Y-44700700D02*
X57785300Y-47040000D01*
%TO.N,Net-(D2-Pad2)*%
X55280000Y-42670000D02*
X54120000Y-43830000D01*
X54120000Y-43830000D02*
X54120000Y-47040000D01*
%TO.N,Net-(J12-Pad3)*%
X140090000Y-46730000D02*
X140080000Y-46720000D01*
X140080000Y-46720000D02*
X140080000Y-43470000D01*
%TO.N,Net-(J13-Pad3)*%
X132344600Y-121100000D02*
X132344600Y-117985400D01*
X132344600Y-117985400D02*
X133530000Y-116800000D01*
X133530000Y-122640000D02*
X132344600Y-121454600D01*
X132344600Y-121454600D02*
X132344600Y-121100000D01*
X132344600Y-121100000D02*
X128675300Y-121100000D01*
X127500000Y-121100000D02*
X128675300Y-121100000D01*
%TO.N,Net-(JP2-Pad2)*%
X75230000Y-118450000D02*
X74054700Y-118450000D01*
X66040000Y-122399800D02*
X70104900Y-122399800D01*
X70104900Y-122399800D02*
X74054700Y-118450000D01*
%TO.N,MotorBreak*%
X182350000Y-103134700D02*
X183158100Y-103134700D01*
X183158100Y-103134700D02*
X183525300Y-102767500D01*
X183525300Y-102767500D02*
X183525300Y-98535900D01*
X183525300Y-98535900D02*
X192023000Y-90038200D01*
X192023000Y-90038200D02*
X192023000Y-65250500D01*
X192023000Y-65250500D02*
X190589900Y-63817400D01*
X190589900Y-63817400D02*
X189672000Y-63817400D01*
X189672000Y-63817400D02*
X189003200Y-64486200D01*
X189003200Y-64486200D02*
X189003200Y-65164300D01*
X189003200Y-65164300D02*
X188072100Y-66095400D01*
X188072100Y-66095400D02*
X187112600Y-66095400D01*
X187112600Y-66095400D02*
X186376500Y-65359300D01*
X186376500Y-65359300D02*
X186376500Y-57446500D01*
X186376500Y-57446500D02*
X182510000Y-53580000D01*
X182350000Y-104310000D02*
X182350000Y-103134700D01*
%TO.N,Net-(J26-Pad1)*%
X192734700Y-56480000D02*
X192191200Y-55936500D01*
X192191200Y-55936500D02*
X192191200Y-53075100D01*
X192191200Y-53075100D02*
X190156100Y-51040000D01*
X190156100Y-51040000D02*
X183685300Y-51040000D01*
X193910000Y-56480000D02*
X192734700Y-56480000D01*
X182510000Y-51040000D02*
X183685300Y-51040000D01*
%TO.N,Net-(J19-Pad3)*%
X139010000Y-121270000D02*
X137834700Y-121270000D01*
X137834700Y-121270000D02*
X135319800Y-123784900D01*
X135319800Y-123784900D02*
X122764900Y-123784900D01*
X122764900Y-123784900D02*
X121520000Y-122540000D01*
X121520000Y-122540000D02*
X120393700Y-121413700D01*
X120393700Y-121413700D02*
X120393700Y-117656300D01*
X120393700Y-117656300D02*
X121490000Y-116560000D01*
%TO.N,Net-(J26-Pad7)*%
X187600000Y-58750000D02*
X187600000Y-64970000D01*
%TO.N,Net-(J27-Pad7)*%
X187410000Y-83370000D02*
X187600000Y-83560000D01*
X187600000Y-83560000D02*
X187600000Y-89680000D01*
%TO.N,Net-(J27-Pad6)*%
X187410000Y-77970000D02*
X187500000Y-77880000D01*
X187500000Y-77880000D02*
X187500000Y-71750000D01*
%TO.N,Net-(J27-Pad1)*%
X193910000Y-79470000D02*
X195085400Y-78294600D01*
X195085400Y-78294600D02*
X195085400Y-67676000D01*
X195085400Y-67676000D02*
X190776300Y-63366900D01*
X190776300Y-63366900D02*
X189096700Y-63366900D01*
X189096700Y-63366900D02*
X188725400Y-63738200D01*
%TO.N,Net-(J28-Pad7)*%
X187540000Y-114910000D02*
X187540000Y-108880000D01*
%TO.N,Net-(J28-Pad6)*%
X187540000Y-102690000D02*
X187540000Y-96650000D01*
X187540000Y-96650000D02*
X187610000Y-96580000D01*
X180985300Y-106850000D02*
X180985300Y-106482600D01*
X180985300Y-106482600D02*
X181793200Y-105674700D01*
X181793200Y-105674700D02*
X184555300Y-105674700D01*
X184555300Y-105674700D02*
X187540000Y-102690000D01*
X179810000Y-106850000D02*
X180985300Y-106850000D01*
%TO.N,Net-(J28-Pad1)*%
X192734700Y-107010000D02*
X190171300Y-107010000D01*
X190171300Y-107010000D02*
X190095500Y-107085800D01*
X193910000Y-107010000D02*
X192734700Y-107010000D01*
%TD*%
M02*
