M48
; DRILL file {KiCad (5.1.9)-1} date 04/11/21 16:44:44
; FORMAT={-:-/ absolute / metric / decimal}
; #@! TF.CreationDate,2021-04-11T16:44:44+02:00
; #@! TF.GenerationSoftware,Kicad,Pcbnew,(5.1.9)-1
; #@! TF.FileFunction,Plated,1,2,PTH
FMAT,2
METRIC
T1C0.762
T2C0.800
T3C0.800
T4C0.900
T5C1.000
T6C1.100
T7C1.501
T8C1.520
T9C1.524
T10C2.000
T11C3.200
%
G90
G05
T1
X119.36Y-124.88
X121.9Y-124.88
X122.662Y-110.656
X124.44Y-122.34
X124.44Y-124.88
X125.964Y-110.656
X126.98Y-122.34
X126.98Y-124.88
X129.52Y-124.88
T2
X88.45Y-141.23
X96.07Y-141.23
X98.78Y-140.65
X103.76Y-127.51
X103.76Y-135.13
X106.4Y-140.65
X108.06Y-120.77
X109.98Y-127.68
X109.98Y-135.3
X112.74Y-146.29
X112.76Y-152.58
X115.68Y-120.77
X119.59Y-130.37
X119.59Y-137.99
X120.36Y-146.29
X120.38Y-152.58
X124.83Y-141.53
X124.83Y-149.15
X131.2Y-141.56
X131.2Y-149.18
T3
X159.28Y-139.84
X159.28Y-142.38
T4
X88.63Y-129.87
X91.17Y-129.87
X110.06Y-140.73
X112.66Y-140.73
X115.26Y-140.73
X124.58Y-136.03
X127.18Y-136.03
X129.78Y-136.03
T5
X73.4Y-126.62
X73.4Y-129.16
X73.4Y-131.7
X73.4Y-134.24
X73.4Y-136.78
X73.4Y-139.32
T6
X81.78Y-120.72
X86.86Y-120.72
X94.04Y-135.05
X94.12Y-120.75
X96.326Y-135.05
X98.612Y-135.05
X104.28Y-120.75
X145.22Y-131.04
X150.3Y-131.04
X151.83Y-137.988
X151.83Y-140.274
X151.83Y-142.56
X155.09Y-131.59
X165.25Y-131.59
T7
X88.225Y-112.321
X110.227Y-112.321
X138.619Y-122.63
X160.621Y-122.63
T8
X140.23Y-111.07
X145.31Y-111.07
X153.67Y-111.07
X158.75Y-111.07
X167.3Y-111.17
X171.01Y-119.84
X171.01Y-124.92
X171.01Y-132.99
X171.01Y-138.07
X171.01Y-145.93
X171.01Y-151.01
X172.38Y-111.17
T9
X80.14Y-109.47
X80.14Y-114.55
T10
X115.55Y-109.132
X115.55Y-124.88
X133.33Y-109.132
X133.33Y-124.88
T11
X73.08Y-107.94
X73.25Y-151.03
X99.226Y-112.321
X149.62Y-122.63
X179.61Y-107.83
X179.68Y-151.21
T0
M30
