M48
; DRILL file {KiCad (5.1.9)-1} date 04/13/21 19:13:19
; FORMAT={-:-/ absolute / metric / decimal}
; #@! TF.CreationDate,2021-04-13T19:13:19+02:00
; #@! TF.GenerationSoftware,Kicad,Pcbnew,(5.1.9)-1
FMAT,2
METRIC
T1C0.762
T2C0.800
T3C0.800
T4C0.900
T5C1.000
T6C1.100
T7C1.501
T8C1.520
T9C1.524
T10C2.000
T11C3.200
%
G90
G05
T1
X114.39Y-124.33
X116.93Y-124.33
X117.692Y-110.106
X119.47Y-121.79
X119.47Y-124.33
X120.994Y-110.106
X122.01Y-121.79
X122.01Y-124.33
X124.55Y-124.33
T2
X90.17Y-136.0
X90.17Y-140.91
X90.57Y-124.09
X97.6Y-119.01
X97.79Y-136.0
X97.79Y-140.91
X98.19Y-124.09
X101.49Y-140.83
X102.01Y-128.56
X102.01Y-136.18
X105.22Y-119.01
X106.9Y-128.56
X106.9Y-136.18
X109.11Y-140.83
X110.86Y-151.1
X110.99Y-145.79
X118.48Y-151.1
X118.61Y-145.79
X122.9Y-144.34
X122.9Y-151.96
T3
X121.13Y-131.06
X123.67Y-131.06
T4
X91.67Y-129.96
X94.27Y-129.96
X96.87Y-129.96
X102.83Y-124.05
X105.37Y-124.05
X125.07Y-137.18
X127.67Y-137.18
X130.27Y-137.18
T5
X72.72Y-128.63
X72.72Y-131.17
X72.72Y-133.71
X72.72Y-136.25
X72.72Y-138.79
X72.72Y-141.33
T6
X79.33Y-123.97
X83.88Y-119.01
X84.41Y-123.97
X94.04Y-119.01
X112.448Y-129.96
X114.734Y-129.96
X117.02Y-129.96
X129.1Y-142.07
X129.1Y-152.23
X145.76Y-126.52
X147.36Y-134.31
X147.36Y-139.39
X148.046Y-126.52
X150.332Y-126.52
T7
X82.619Y-110.95
X104.621Y-110.95
X137.47Y-118.089
X137.47Y-140.091
T8
X135.23Y-148.44
X135.4Y-110.34
X140.31Y-148.44
X140.48Y-110.34
X148.18Y-148.46
X149.32Y-110.26
X153.26Y-148.46
X154.4Y-110.26
X157.68Y-118.6
X157.68Y-123.68
X157.95Y-132.17
X157.95Y-137.25
T9
X75.64Y-114.35
X75.64Y-119.43
T10
X110.58Y-108.582
X110.58Y-124.33
X128.36Y-108.582
X128.36Y-124.33
T11
X73.16Y-107.94
X73.25Y-150.97
X93.62Y-110.95
X137.47Y-129.09
X160.75Y-150.82
X160.83Y-107.84
T0
M30
