%TF.GenerationSoftware,KiCad,Pcbnew,(5.1.9)-1*%
%TF.CreationDate,2021-04-13T21:26:07+02:00*%
%TF.ProjectId,charge_pcb,63686172-6765-45f7-9063-622e6b696361,rev?*%
%TF.SameCoordinates,Original*%
%TF.FileFunction,Legend,Top*%
%TF.FilePolarity,Positive*%
%FSLAX46Y46*%
G04 Gerber Fmt 4.6, Leading zero omitted, Abs format (unit mm)*
G04 Created by KiCad (PCBNEW (5.1.9)-1) date 2021-04-13 21:26:07*
%MOMM*%
%LPD*%
G01*
G04 APERTURE LIST*
%ADD10C,0.100000*%
%ADD11C,0.150000*%
%ADD12C,0.300000*%
%ADD13C,0.400000*%
%ADD14C,0.200000*%
%ADD15C,0.250000*%
%ADD16C,0.120000*%
G04 APERTURE END LIST*
D10*
D11*
X177002200Y-166007200D02*
X177002200Y-198007200D01*
X285002200Y-198007200D01*
X285002200Y-166007200D01*
X177002200Y-166007200D01*
D10*
D11*
X10000000Y-10000000D02*
X10000000Y-200007200D01*
X287002200Y-200007200D01*
X287002200Y-10000000D01*
X10000000Y-10000000D01*
D10*
D11*
X12000000Y-12000000D02*
X12000000Y-198007200D01*
X285002200Y-198007200D01*
X285002200Y-12000000D01*
X12000000Y-12000000D01*
D10*
D11*
X60000000Y-12000000D02*
X60000000Y-10000000D01*
D10*
D11*
X110000000Y-12000000D02*
X110000000Y-10000000D01*
D10*
D11*
X160000000Y-12000000D02*
X160000000Y-10000000D01*
D10*
D11*
X210000000Y-12000000D02*
X210000000Y-10000000D01*
D10*
D11*
X260000000Y-12000000D02*
X260000000Y-10000000D01*
D10*
D11*
X36065476Y-11588095D02*
X35322619Y-11588095D01*
X35694047Y-11588095D02*
X35694047Y-10288095D01*
X35570238Y-10473809D01*
X35446428Y-10597619D01*
X35322619Y-10659523D01*
D10*
D11*
X85322619Y-10411904D02*
X85384523Y-10350000D01*
X85508333Y-10288095D01*
X85817857Y-10288095D01*
X85941666Y-10350000D01*
X86003571Y-10411904D01*
X86065476Y-10535714D01*
X86065476Y-10659523D01*
X86003571Y-10845238D01*
X85260714Y-11588095D01*
X86065476Y-11588095D01*
D10*
D11*
X135260714Y-10288095D02*
X136065476Y-10288095D01*
X135632142Y-10783333D01*
X135817857Y-10783333D01*
X135941666Y-10845238D01*
X136003571Y-10907142D01*
X136065476Y-11030952D01*
X136065476Y-11340476D01*
X136003571Y-11464285D01*
X135941666Y-11526190D01*
X135817857Y-11588095D01*
X135446428Y-11588095D01*
X135322619Y-11526190D01*
X135260714Y-11464285D01*
D10*
D11*
X185941666Y-10721428D02*
X185941666Y-11588095D01*
X185632142Y-10226190D02*
X185322619Y-11154761D01*
X186127380Y-11154761D01*
D10*
D11*
X236003571Y-10288095D02*
X235384523Y-10288095D01*
X235322619Y-10907142D01*
X235384523Y-10845238D01*
X235508333Y-10783333D01*
X235817857Y-10783333D01*
X235941666Y-10845238D01*
X236003571Y-10907142D01*
X236065476Y-11030952D01*
X236065476Y-11340476D01*
X236003571Y-11464285D01*
X235941666Y-11526190D01*
X235817857Y-11588095D01*
X235508333Y-11588095D01*
X235384523Y-11526190D01*
X235322619Y-11464285D01*
D10*
D11*
X285941666Y-10288095D02*
X285694047Y-10288095D01*
X285570238Y-10350000D01*
X285508333Y-10411904D01*
X285384523Y-10597619D01*
X285322619Y-10845238D01*
X285322619Y-11340476D01*
X285384523Y-11464285D01*
X285446428Y-11526190D01*
X285570238Y-11588095D01*
X285817857Y-11588095D01*
X285941666Y-11526190D01*
X286003571Y-11464285D01*
X286065476Y-11340476D01*
X286065476Y-11030952D01*
X286003571Y-10907142D01*
X285941666Y-10845238D01*
X285817857Y-10783333D01*
X285570238Y-10783333D01*
X285446428Y-10845238D01*
X285384523Y-10907142D01*
X285322619Y-11030952D01*
D10*
D11*
X60000000Y-198007200D02*
X60000000Y-200007200D01*
D10*
D11*
X110000000Y-198007200D02*
X110000000Y-200007200D01*
D10*
D11*
X160000000Y-198007200D02*
X160000000Y-200007200D01*
D10*
D11*
X210000000Y-198007200D02*
X210000000Y-200007200D01*
D10*
D11*
X260000000Y-198007200D02*
X260000000Y-200007200D01*
D10*
D11*
X36065476Y-199595295D02*
X35322619Y-199595295D01*
X35694047Y-199595295D02*
X35694047Y-198295295D01*
X35570238Y-198481009D01*
X35446428Y-198604819D01*
X35322619Y-198666723D01*
D10*
D11*
X85322619Y-198419104D02*
X85384523Y-198357200D01*
X85508333Y-198295295D01*
X85817857Y-198295295D01*
X85941666Y-198357200D01*
X86003571Y-198419104D01*
X86065476Y-198542914D01*
X86065476Y-198666723D01*
X86003571Y-198852438D01*
X85260714Y-199595295D01*
X86065476Y-199595295D01*
D10*
D11*
X135260714Y-198295295D02*
X136065476Y-198295295D01*
X135632142Y-198790533D01*
X135817857Y-198790533D01*
X135941666Y-198852438D01*
X136003571Y-198914342D01*
X136065476Y-199038152D01*
X136065476Y-199347676D01*
X136003571Y-199471485D01*
X135941666Y-199533390D01*
X135817857Y-199595295D01*
X135446428Y-199595295D01*
X135322619Y-199533390D01*
X135260714Y-199471485D01*
D10*
D11*
X185941666Y-198728628D02*
X185941666Y-199595295D01*
X185632142Y-198233390D02*
X185322619Y-199161961D01*
X186127380Y-199161961D01*
D10*
D11*
X236003571Y-198295295D02*
X235384523Y-198295295D01*
X235322619Y-198914342D01*
X235384523Y-198852438D01*
X235508333Y-198790533D01*
X235817857Y-198790533D01*
X235941666Y-198852438D01*
X236003571Y-198914342D01*
X236065476Y-199038152D01*
X236065476Y-199347676D01*
X236003571Y-199471485D01*
X235941666Y-199533390D01*
X235817857Y-199595295D01*
X235508333Y-199595295D01*
X235384523Y-199533390D01*
X235322619Y-199471485D01*
D10*
D11*
X285941666Y-198295295D02*
X285694047Y-198295295D01*
X285570238Y-198357200D01*
X285508333Y-198419104D01*
X285384523Y-198604819D01*
X285322619Y-198852438D01*
X285322619Y-199347676D01*
X285384523Y-199471485D01*
X285446428Y-199533390D01*
X285570238Y-199595295D01*
X285817857Y-199595295D01*
X285941666Y-199533390D01*
X286003571Y-199471485D01*
X286065476Y-199347676D01*
X286065476Y-199038152D01*
X286003571Y-198914342D01*
X285941666Y-198852438D01*
X285817857Y-198790533D01*
X285570238Y-198790533D01*
X285446428Y-198852438D01*
X285384523Y-198914342D01*
X285322619Y-199038152D01*
D10*
D11*
X10000000Y-60000000D02*
X12000000Y-60000000D01*
D10*
D11*
X10000000Y-110000000D02*
X12000000Y-110000000D01*
D10*
D11*
X10000000Y-160000000D02*
X12000000Y-160000000D01*
D10*
D11*
X10690476Y-35216666D02*
X11309523Y-35216666D01*
X10566666Y-35588095D02*
X11000000Y-34288095D01*
X11433333Y-35588095D01*
D10*
D11*
X11092857Y-84907142D02*
X11278571Y-84969047D01*
X11340476Y-85030952D01*
X11402380Y-85154761D01*
X11402380Y-85340476D01*
X11340476Y-85464285D01*
X11278571Y-85526190D01*
X11154761Y-85588095D01*
X10659523Y-85588095D01*
X10659523Y-84288095D01*
X11092857Y-84288095D01*
X11216666Y-84350000D01*
X11278571Y-84411904D01*
X11340476Y-84535714D01*
X11340476Y-84659523D01*
X11278571Y-84783333D01*
X11216666Y-84845238D01*
X11092857Y-84907142D01*
X10659523Y-84907142D01*
D10*
D11*
X11402380Y-135464285D02*
X11340476Y-135526190D01*
X11154761Y-135588095D01*
X11030952Y-135588095D01*
X10845238Y-135526190D01*
X10721428Y-135402380D01*
X10659523Y-135278571D01*
X10597619Y-135030952D01*
X10597619Y-134845238D01*
X10659523Y-134597619D01*
X10721428Y-134473809D01*
X10845238Y-134350000D01*
X11030952Y-134288095D01*
X11154761Y-134288095D01*
X11340476Y-134350000D01*
X11402380Y-134411904D01*
D10*
D11*
X10659523Y-185588095D02*
X10659523Y-184288095D01*
X10969047Y-184288095D01*
X11154761Y-184350000D01*
X11278571Y-184473809D01*
X11340476Y-184597619D01*
X11402380Y-184845238D01*
X11402380Y-185030952D01*
X11340476Y-185278571D01*
X11278571Y-185402380D01*
X11154761Y-185526190D01*
X10969047Y-185588095D01*
X10659523Y-185588095D01*
D10*
D11*
X287002200Y-60000000D02*
X285002200Y-60000000D01*
D10*
D11*
X287002200Y-110000000D02*
X285002200Y-110000000D01*
D10*
D11*
X287002200Y-160000000D02*
X285002200Y-160000000D01*
D10*
D11*
X285692676Y-35216666D02*
X286311723Y-35216666D01*
X285568866Y-35588095D02*
X286002200Y-34288095D01*
X286435533Y-35588095D01*
D10*
D11*
X286095057Y-84907142D02*
X286280771Y-84969047D01*
X286342676Y-85030952D01*
X286404580Y-85154761D01*
X286404580Y-85340476D01*
X286342676Y-85464285D01*
X286280771Y-85526190D01*
X286156961Y-85588095D01*
X285661723Y-85588095D01*
X285661723Y-84288095D01*
X286095057Y-84288095D01*
X286218866Y-84350000D01*
X286280771Y-84411904D01*
X286342676Y-84535714D01*
X286342676Y-84659523D01*
X286280771Y-84783333D01*
X286218866Y-84845238D01*
X286095057Y-84907142D01*
X285661723Y-84907142D01*
D10*
D11*
X286404580Y-135464285D02*
X286342676Y-135526190D01*
X286156961Y-135588095D01*
X286033152Y-135588095D01*
X285847438Y-135526190D01*
X285723628Y-135402380D01*
X285661723Y-135278571D01*
X285599819Y-135030952D01*
X285599819Y-134845238D01*
X285661723Y-134597619D01*
X285723628Y-134473809D01*
X285847438Y-134350000D01*
X286033152Y-134288095D01*
X286156961Y-134288095D01*
X286342676Y-134350000D01*
X286404580Y-134411904D01*
D10*
D11*
X285661723Y-185588095D02*
X285661723Y-184288095D01*
X285971247Y-184288095D01*
X286156961Y-184350000D01*
X286280771Y-184473809D01*
X286342676Y-184597619D01*
X286404580Y-184845238D01*
X286404580Y-185030952D01*
X286342676Y-185278571D01*
X286280771Y-185402380D01*
X286156961Y-185526190D01*
X285971247Y-185588095D01*
X285661723Y-185588095D01*
D10*
D11*
X200434342Y-193785771D02*
X200434342Y-192285771D01*
X200791485Y-192285771D01*
X201005771Y-192357200D01*
X201148628Y-192500057D01*
X201220057Y-192642914D01*
X201291485Y-192928628D01*
X201291485Y-193142914D01*
X201220057Y-193428628D01*
X201148628Y-193571485D01*
X201005771Y-193714342D01*
X200791485Y-193785771D01*
X200434342Y-193785771D01*
X202577200Y-193785771D02*
X202577200Y-193000057D01*
X202505771Y-192857200D01*
X202362914Y-192785771D01*
X202077200Y-192785771D01*
X201934342Y-192857200D01*
X202577200Y-193714342D02*
X202434342Y-193785771D01*
X202077200Y-193785771D01*
X201934342Y-193714342D01*
X201862914Y-193571485D01*
X201862914Y-193428628D01*
X201934342Y-193285771D01*
X202077200Y-193214342D01*
X202434342Y-193214342D01*
X202577200Y-193142914D01*
X203077200Y-192785771D02*
X203648628Y-192785771D01*
X203291485Y-192285771D02*
X203291485Y-193571485D01*
X203362914Y-193714342D01*
X203505771Y-193785771D01*
X203648628Y-193785771D01*
X204720057Y-193714342D02*
X204577200Y-193785771D01*
X204291485Y-193785771D01*
X204148628Y-193714342D01*
X204077200Y-193571485D01*
X204077200Y-193000057D01*
X204148628Y-192857200D01*
X204291485Y-192785771D01*
X204577200Y-192785771D01*
X204720057Y-192857200D01*
X204791485Y-193000057D01*
X204791485Y-193142914D01*
X204077200Y-193285771D01*
X205434342Y-193642914D02*
X205505771Y-193714342D01*
X205434342Y-193785771D01*
X205362914Y-193714342D01*
X205434342Y-193642914D01*
X205434342Y-193785771D01*
X205434342Y-192857200D02*
X205505771Y-192928628D01*
X205434342Y-193000057D01*
X205362914Y-192928628D01*
X205434342Y-192857200D01*
X205434342Y-193000057D01*
D10*
D11*
X177002200Y-194507200D02*
X285002200Y-194507200D01*
D10*
D11*
X178434342Y-196585771D02*
X178434342Y-195085771D01*
X179291485Y-196585771D02*
X178648628Y-195728628D01*
X179291485Y-195085771D02*
X178434342Y-195942914D01*
X179934342Y-196585771D02*
X179934342Y-195585771D01*
X179934342Y-195085771D02*
X179862914Y-195157200D01*
X179934342Y-195228628D01*
X180005771Y-195157200D01*
X179934342Y-195085771D01*
X179934342Y-195228628D01*
X181505771Y-196442914D02*
X181434342Y-196514342D01*
X181220057Y-196585771D01*
X181077200Y-196585771D01*
X180862914Y-196514342D01*
X180720057Y-196371485D01*
X180648628Y-196228628D01*
X180577200Y-195942914D01*
X180577200Y-195728628D01*
X180648628Y-195442914D01*
X180720057Y-195300057D01*
X180862914Y-195157200D01*
X181077200Y-195085771D01*
X181220057Y-195085771D01*
X181434342Y-195157200D01*
X181505771Y-195228628D01*
X182791485Y-196585771D02*
X182791485Y-195800057D01*
X182720057Y-195657200D01*
X182577200Y-195585771D01*
X182291485Y-195585771D01*
X182148628Y-195657200D01*
X182791485Y-196514342D02*
X182648628Y-196585771D01*
X182291485Y-196585771D01*
X182148628Y-196514342D01*
X182077200Y-196371485D01*
X182077200Y-196228628D01*
X182148628Y-196085771D01*
X182291485Y-196014342D01*
X182648628Y-196014342D01*
X182791485Y-195942914D01*
X184148628Y-196585771D02*
X184148628Y-195085771D01*
X184148628Y-196514342D02*
X184005771Y-196585771D01*
X183720057Y-196585771D01*
X183577200Y-196514342D01*
X183505771Y-196442914D01*
X183434342Y-196300057D01*
X183434342Y-195871485D01*
X183505771Y-195728628D01*
X183577200Y-195657200D01*
X183720057Y-195585771D01*
X184005771Y-195585771D01*
X184148628Y-195657200D01*
X186005771Y-195800057D02*
X186505771Y-195800057D01*
X186720057Y-196585771D02*
X186005771Y-196585771D01*
X186005771Y-195085771D01*
X186720057Y-195085771D01*
X187362914Y-196442914D02*
X187434342Y-196514342D01*
X187362914Y-196585771D01*
X187291485Y-196514342D01*
X187362914Y-196442914D01*
X187362914Y-196585771D01*
X188077200Y-196585771D02*
X188077200Y-195085771D01*
X188434342Y-195085771D01*
X188648628Y-195157200D01*
X188791485Y-195300057D01*
X188862914Y-195442914D01*
X188934342Y-195728628D01*
X188934342Y-195942914D01*
X188862914Y-196228628D01*
X188791485Y-196371485D01*
X188648628Y-196514342D01*
X188434342Y-196585771D01*
X188077200Y-196585771D01*
X189577200Y-196442914D02*
X189648628Y-196514342D01*
X189577200Y-196585771D01*
X189505771Y-196514342D01*
X189577200Y-196442914D01*
X189577200Y-196585771D01*
X190220057Y-196157200D02*
X190934342Y-196157200D01*
X190077200Y-196585771D02*
X190577200Y-195085771D01*
X191077200Y-196585771D01*
X191577200Y-196442914D02*
X191648628Y-196514342D01*
X191577200Y-196585771D01*
X191505771Y-196514342D01*
X191577200Y-196442914D01*
X191577200Y-196585771D01*
X194577200Y-195585771D02*
X194577200Y-197085771D01*
X194577200Y-195657200D02*
X194720057Y-195585771D01*
X195005771Y-195585771D01*
X195148628Y-195657200D01*
X195220057Y-195728628D01*
X195291485Y-195871485D01*
X195291485Y-196300057D01*
X195220057Y-196442914D01*
X195148628Y-196514342D01*
X195005771Y-196585771D01*
X194720057Y-196585771D01*
X194577200Y-196514342D01*
X196577200Y-196514342D02*
X196434342Y-196585771D01*
X196148628Y-196585771D01*
X196005771Y-196514342D01*
X195934342Y-196442914D01*
X195862914Y-196300057D01*
X195862914Y-195871485D01*
X195934342Y-195728628D01*
X196005771Y-195657200D01*
X196148628Y-195585771D01*
X196434342Y-195585771D01*
X196577200Y-195657200D01*
X197220057Y-196585771D02*
X197220057Y-195085771D01*
X197220057Y-195657200D02*
X197362914Y-195585771D01*
X197648628Y-195585771D01*
X197791485Y-195657200D01*
X197862914Y-195728628D01*
X197934342Y-195871485D01*
X197934342Y-196300057D01*
X197862914Y-196442914D01*
X197791485Y-196514342D01*
X197648628Y-196585771D01*
X197362914Y-196585771D01*
X197220057Y-196514342D01*
X198577200Y-195585771D02*
X198577200Y-196585771D01*
X198577200Y-195728628D02*
X198648628Y-195657200D01*
X198791485Y-195585771D01*
X199005771Y-195585771D01*
X199148628Y-195657200D01*
X199220057Y-195800057D01*
X199220057Y-196585771D01*
X200505771Y-196514342D02*
X200362914Y-196585771D01*
X200077200Y-196585771D01*
X199934342Y-196514342D01*
X199862914Y-196371485D01*
X199862914Y-195800057D01*
X199934342Y-195657200D01*
X200077200Y-195585771D01*
X200362914Y-195585771D01*
X200505771Y-195657200D01*
X200577200Y-195800057D01*
X200577200Y-195942914D01*
X199862914Y-196085771D01*
X201077200Y-195585771D02*
X201362914Y-196585771D01*
X201648628Y-195871485D01*
X201934342Y-196585771D01*
X202220057Y-195585771D01*
X204362914Y-197157200D02*
X204291485Y-197085771D01*
X204148628Y-196871485D01*
X204077200Y-196728628D01*
X204005771Y-196514342D01*
X203934342Y-196157200D01*
X203934342Y-195871485D01*
X204005771Y-195514342D01*
X204077200Y-195300057D01*
X204148628Y-195157200D01*
X204291485Y-194942914D01*
X204362914Y-194871485D01*
X205648628Y-195085771D02*
X204934342Y-195085771D01*
X204862914Y-195800057D01*
X204934342Y-195728628D01*
X205077200Y-195657200D01*
X205434342Y-195657200D01*
X205577200Y-195728628D01*
X205648628Y-195800057D01*
X205720057Y-195942914D01*
X205720057Y-196300057D01*
X205648628Y-196442914D01*
X205577200Y-196514342D01*
X205434342Y-196585771D01*
X205077200Y-196585771D01*
X204934342Y-196514342D01*
X204862914Y-196442914D01*
X206362914Y-196442914D02*
X206434342Y-196514342D01*
X206362914Y-196585771D01*
X206291485Y-196514342D01*
X206362914Y-196442914D01*
X206362914Y-196585771D01*
X207862914Y-196585771D02*
X207005771Y-196585771D01*
X207434342Y-196585771D02*
X207434342Y-195085771D01*
X207291485Y-195300057D01*
X207148628Y-195442914D01*
X207005771Y-195514342D01*
X208505771Y-196442914D02*
X208577200Y-196514342D01*
X208505771Y-196585771D01*
X208434342Y-196514342D01*
X208505771Y-196442914D01*
X208505771Y-196585771D01*
X209291485Y-196585771D02*
X209577200Y-196585771D01*
X209720057Y-196514342D01*
X209791485Y-196442914D01*
X209934342Y-196228628D01*
X210005771Y-195942914D01*
X210005771Y-195371485D01*
X209934342Y-195228628D01*
X209862914Y-195157200D01*
X209720057Y-195085771D01*
X209434342Y-195085771D01*
X209291485Y-195157200D01*
X209220057Y-195228628D01*
X209148628Y-195371485D01*
X209148628Y-195728628D01*
X209220057Y-195871485D01*
X209291485Y-195942914D01*
X209434342Y-196014342D01*
X209720057Y-196014342D01*
X209862914Y-195942914D01*
X209934342Y-195871485D01*
X210005771Y-195728628D01*
X210505771Y-197157200D02*
X210577200Y-197085771D01*
X210720057Y-196871485D01*
X210791485Y-196728628D01*
X210862914Y-196514342D01*
X210934342Y-196157200D01*
X210934342Y-195871485D01*
X210862914Y-195514342D01*
X210791485Y-195300057D01*
X210720057Y-195157200D01*
X210577200Y-194942914D01*
X210505771Y-194871485D01*
X211648628Y-196014342D02*
X212791485Y-196014342D01*
X214291485Y-196585771D02*
X213434342Y-196585771D01*
X213862914Y-196585771D02*
X213862914Y-195085771D01*
X213720057Y-195300057D01*
X213577200Y-195442914D01*
X213434342Y-195514342D01*
D10*
D11*
X177002200Y-191507200D02*
X285002200Y-191507200D01*
D10*
D12*
X264411485Y-193785771D02*
X263911485Y-193071485D01*
X263554342Y-193785771D02*
X263554342Y-192285771D01*
X264125771Y-192285771D01*
X264268628Y-192357200D01*
X264340057Y-192428628D01*
X264411485Y-192571485D01*
X264411485Y-192785771D01*
X264340057Y-192928628D01*
X264268628Y-193000057D01*
X264125771Y-193071485D01*
X263554342Y-193071485D01*
X265625771Y-193714342D02*
X265482914Y-193785771D01*
X265197200Y-193785771D01*
X265054342Y-193714342D01*
X264982914Y-193571485D01*
X264982914Y-193000057D01*
X265054342Y-192857200D01*
X265197200Y-192785771D01*
X265482914Y-192785771D01*
X265625771Y-192857200D01*
X265697200Y-193000057D01*
X265697200Y-193142914D01*
X264982914Y-193285771D01*
X266197200Y-192785771D02*
X266554342Y-193785771D01*
X266911485Y-192785771D01*
X267482914Y-193642914D02*
X267554342Y-193714342D01*
X267482914Y-193785771D01*
X267411485Y-193714342D01*
X267482914Y-193642914D01*
X267482914Y-193785771D01*
X267482914Y-192857200D02*
X267554342Y-192928628D01*
X267482914Y-193000057D01*
X267411485Y-192928628D01*
X267482914Y-192857200D01*
X267482914Y-193000057D01*
D10*
D11*
X178362914Y-193714342D02*
X178577200Y-193785771D01*
X178934342Y-193785771D01*
X179077200Y-193714342D01*
X179148628Y-193642914D01*
X179220057Y-193500057D01*
X179220057Y-193357200D01*
X179148628Y-193214342D01*
X179077200Y-193142914D01*
X178934342Y-193071485D01*
X178648628Y-193000057D01*
X178505771Y-192928628D01*
X178434342Y-192857200D01*
X178362914Y-192714342D01*
X178362914Y-192571485D01*
X178434342Y-192428628D01*
X178505771Y-192357200D01*
X178648628Y-192285771D01*
X179005771Y-192285771D01*
X179220057Y-192357200D01*
X179862914Y-193785771D02*
X179862914Y-192785771D01*
X179862914Y-192285771D02*
X179791485Y-192357200D01*
X179862914Y-192428628D01*
X179934342Y-192357200D01*
X179862914Y-192285771D01*
X179862914Y-192428628D01*
X180434342Y-192785771D02*
X181220057Y-192785771D01*
X180434342Y-193785771D01*
X181220057Y-193785771D01*
X182362914Y-193714342D02*
X182220057Y-193785771D01*
X181934342Y-193785771D01*
X181791485Y-193714342D01*
X181720057Y-193571485D01*
X181720057Y-193000057D01*
X181791485Y-192857200D01*
X181934342Y-192785771D01*
X182220057Y-192785771D01*
X182362914Y-192857200D01*
X182434342Y-193000057D01*
X182434342Y-193142914D01*
X181720057Y-193285771D01*
X183077200Y-193642914D02*
X183148628Y-193714342D01*
X183077200Y-193785771D01*
X183005771Y-193714342D01*
X183077200Y-193642914D01*
X183077200Y-193785771D01*
X183077200Y-192857200D02*
X183148628Y-192928628D01*
X183077200Y-193000057D01*
X183005771Y-192928628D01*
X183077200Y-192857200D01*
X183077200Y-193000057D01*
X184862914Y-193357200D02*
X185577200Y-193357200D01*
X184720057Y-193785771D02*
X185220057Y-192285771D01*
X185720057Y-193785771D01*
X186862914Y-192785771D02*
X186862914Y-193785771D01*
X186505771Y-192214342D02*
X186148628Y-193285771D01*
X187077200Y-193285771D01*
D10*
D11*
X263434342Y-196585771D02*
X263434342Y-195085771D01*
X264791485Y-196585771D02*
X264791485Y-195085771D01*
X264791485Y-196514342D02*
X264648628Y-196585771D01*
X264362914Y-196585771D01*
X264220057Y-196514342D01*
X264148628Y-196442914D01*
X264077200Y-196300057D01*
X264077200Y-195871485D01*
X264148628Y-195728628D01*
X264220057Y-195657200D01*
X264362914Y-195585771D01*
X264648628Y-195585771D01*
X264791485Y-195657200D01*
X265505771Y-196442914D02*
X265577200Y-196514342D01*
X265505771Y-196585771D01*
X265434342Y-196514342D01*
X265505771Y-196442914D01*
X265505771Y-196585771D01*
X265505771Y-195657200D02*
X265577200Y-195728628D01*
X265505771Y-195800057D01*
X265434342Y-195728628D01*
X265505771Y-195657200D01*
X265505771Y-195800057D01*
X268148628Y-196585771D02*
X267291485Y-196585771D01*
X267720057Y-196585771D02*
X267720057Y-195085771D01*
X267577200Y-195300057D01*
X267434342Y-195442914D01*
X267291485Y-195514342D01*
X269862914Y-195014342D02*
X268577200Y-196942914D01*
X271148628Y-196585771D02*
X270291485Y-196585771D01*
X270720057Y-196585771D02*
X270720057Y-195085771D01*
X270577200Y-195300057D01*
X270434342Y-195442914D01*
X270291485Y-195514342D01*
D10*
D11*
X177002200Y-187507200D02*
X285002200Y-187507200D01*
D10*
D13*
X178714580Y-188211961D02*
X179857438Y-188211961D01*
X179036009Y-190211961D02*
X179286009Y-188211961D01*
X180274104Y-190211961D02*
X180440771Y-188878628D01*
X180524104Y-188211961D02*
X180416961Y-188307200D01*
X180500295Y-188402438D01*
X180607438Y-188307200D01*
X180524104Y-188211961D01*
X180500295Y-188402438D01*
X181107438Y-188878628D02*
X181869342Y-188878628D01*
X181476485Y-188211961D02*
X181262200Y-189926247D01*
X181333628Y-190116723D01*
X181512200Y-190211961D01*
X181702676Y-190211961D01*
X182655057Y-190211961D02*
X182476485Y-190116723D01*
X182405057Y-189926247D01*
X182619342Y-188211961D01*
X184190771Y-190116723D02*
X183988390Y-190211961D01*
X183607438Y-190211961D01*
X183428866Y-190116723D01*
X183357438Y-189926247D01*
X183452676Y-189164342D01*
X183571723Y-188973866D01*
X183774104Y-188878628D01*
X184155057Y-188878628D01*
X184333628Y-188973866D01*
X184405057Y-189164342D01*
X184381247Y-189354819D01*
X183405057Y-189545295D01*
X185155057Y-190021485D02*
X185238390Y-190116723D01*
X185131247Y-190211961D01*
X185047914Y-190116723D01*
X185155057Y-190021485D01*
X185131247Y-190211961D01*
X185286009Y-188973866D02*
X185369342Y-189069104D01*
X185262200Y-189164342D01*
X185178866Y-189069104D01*
X185286009Y-188973866D01*
X185262200Y-189164342D01*
D10*
D11*
X178934342Y-185600057D02*
X178434342Y-185600057D01*
X178434342Y-186385771D02*
X178434342Y-184885771D01*
X179148628Y-184885771D01*
X179720057Y-186385771D02*
X179720057Y-185385771D01*
X179720057Y-184885771D02*
X179648628Y-184957200D01*
X179720057Y-185028628D01*
X179791485Y-184957200D01*
X179720057Y-184885771D01*
X179720057Y-185028628D01*
X180648628Y-186385771D02*
X180505771Y-186314342D01*
X180434342Y-186171485D01*
X180434342Y-184885771D01*
X181791485Y-186314342D02*
X181648628Y-186385771D01*
X181362914Y-186385771D01*
X181220057Y-186314342D01*
X181148628Y-186171485D01*
X181148628Y-185600057D01*
X181220057Y-185457200D01*
X181362914Y-185385771D01*
X181648628Y-185385771D01*
X181791485Y-185457200D01*
X181862914Y-185600057D01*
X181862914Y-185742914D01*
X181148628Y-185885771D01*
X182505771Y-186242914D02*
X182577200Y-186314342D01*
X182505771Y-186385771D01*
X182434342Y-186314342D01*
X182505771Y-186242914D01*
X182505771Y-186385771D01*
X182505771Y-185457200D02*
X182577200Y-185528628D01*
X182505771Y-185600057D01*
X182434342Y-185528628D01*
X182505771Y-185457200D01*
X182505771Y-185600057D01*
X185005771Y-186314342D02*
X184862914Y-186385771D01*
X184577200Y-186385771D01*
X184434342Y-186314342D01*
X184362914Y-186242914D01*
X184291485Y-186100057D01*
X184291485Y-185671485D01*
X184362914Y-185528628D01*
X184434342Y-185457200D01*
X184577200Y-185385771D01*
X184862914Y-185385771D01*
X185005771Y-185457200D01*
X185648628Y-186385771D02*
X185648628Y-184885771D01*
X186291485Y-186385771D02*
X186291485Y-185600057D01*
X186220057Y-185457200D01*
X186077200Y-185385771D01*
X185862914Y-185385771D01*
X185720057Y-185457200D01*
X185648628Y-185528628D01*
X187648628Y-186385771D02*
X187648628Y-185600057D01*
X187577200Y-185457200D01*
X187434342Y-185385771D01*
X187148628Y-185385771D01*
X187005771Y-185457200D01*
X187648628Y-186314342D02*
X187505771Y-186385771D01*
X187148628Y-186385771D01*
X187005771Y-186314342D01*
X186934342Y-186171485D01*
X186934342Y-186028628D01*
X187005771Y-185885771D01*
X187148628Y-185814342D01*
X187505771Y-185814342D01*
X187648628Y-185742914D01*
X188362914Y-186385771D02*
X188362914Y-185385771D01*
X188362914Y-185671485D02*
X188434342Y-185528628D01*
X188505771Y-185457200D01*
X188648628Y-185385771D01*
X188791485Y-185385771D01*
X189934342Y-185385771D02*
X189934342Y-186600057D01*
X189862914Y-186742914D01*
X189791485Y-186814342D01*
X189648628Y-186885771D01*
X189434342Y-186885771D01*
X189291485Y-186814342D01*
X189934342Y-186314342D02*
X189791485Y-186385771D01*
X189505771Y-186385771D01*
X189362914Y-186314342D01*
X189291485Y-186242914D01*
X189220057Y-186100057D01*
X189220057Y-185671485D01*
X189291485Y-185528628D01*
X189362914Y-185457200D01*
X189505771Y-185385771D01*
X189791485Y-185385771D01*
X189934342Y-185457200D01*
X191220057Y-186314342D02*
X191077200Y-186385771D01*
X190791485Y-186385771D01*
X190648628Y-186314342D01*
X190577200Y-186171485D01*
X190577200Y-185600057D01*
X190648628Y-185457200D01*
X190791485Y-185385771D01*
X191077200Y-185385771D01*
X191220057Y-185457200D01*
X191291485Y-185600057D01*
X191291485Y-185742914D01*
X190577200Y-185885771D01*
X191577200Y-186528628D02*
X192720057Y-186528628D01*
X193077200Y-185385771D02*
X193077200Y-186885771D01*
X193077200Y-185457200D02*
X193220057Y-185385771D01*
X193505771Y-185385771D01*
X193648628Y-185457200D01*
X193720057Y-185528628D01*
X193791485Y-185671485D01*
X193791485Y-186100057D01*
X193720057Y-186242914D01*
X193648628Y-186314342D01*
X193505771Y-186385771D01*
X193220057Y-186385771D01*
X193077200Y-186314342D01*
X195077200Y-186314342D02*
X194934342Y-186385771D01*
X194648628Y-186385771D01*
X194505771Y-186314342D01*
X194434342Y-186242914D01*
X194362914Y-186100057D01*
X194362914Y-185671485D01*
X194434342Y-185528628D01*
X194505771Y-185457200D01*
X194648628Y-185385771D01*
X194934342Y-185385771D01*
X195077200Y-185457200D01*
X195720057Y-186385771D02*
X195720057Y-184885771D01*
X195720057Y-185457200D02*
X195862914Y-185385771D01*
X196148628Y-185385771D01*
X196291485Y-185457200D01*
X196362914Y-185528628D01*
X196434342Y-185671485D01*
X196434342Y-186100057D01*
X196362914Y-186242914D01*
X196291485Y-186314342D01*
X196148628Y-186385771D01*
X195862914Y-186385771D01*
X195720057Y-186314342D01*
X197077200Y-186242914D02*
X197148628Y-186314342D01*
X197077200Y-186385771D01*
X197005771Y-186314342D01*
X197077200Y-186242914D01*
X197077200Y-186385771D01*
X197791485Y-186385771D02*
X197791485Y-184885771D01*
X197934342Y-185814342D02*
X198362914Y-186385771D01*
X198362914Y-185385771D02*
X197791485Y-185957200D01*
X199005771Y-186385771D02*
X199005771Y-185385771D01*
X199005771Y-184885771D02*
X198934342Y-184957200D01*
X199005771Y-185028628D01*
X199077200Y-184957200D01*
X199005771Y-184885771D01*
X199005771Y-185028628D01*
X200362914Y-186314342D02*
X200220057Y-186385771D01*
X199934342Y-186385771D01*
X199791485Y-186314342D01*
X199720057Y-186242914D01*
X199648628Y-186100057D01*
X199648628Y-185671485D01*
X199720057Y-185528628D01*
X199791485Y-185457200D01*
X199934342Y-185385771D01*
X200220057Y-185385771D01*
X200362914Y-185457200D01*
X201648628Y-186385771D02*
X201648628Y-185600057D01*
X201577200Y-185457200D01*
X201434342Y-185385771D01*
X201148628Y-185385771D01*
X201005771Y-185457200D01*
X201648628Y-186314342D02*
X201505771Y-186385771D01*
X201148628Y-186385771D01*
X201005771Y-186314342D01*
X200934342Y-186171485D01*
X200934342Y-186028628D01*
X201005771Y-185885771D01*
X201148628Y-185814342D01*
X201505771Y-185814342D01*
X201648628Y-185742914D01*
X203005771Y-186385771D02*
X203005771Y-184885771D01*
X203005771Y-186314342D02*
X202862914Y-186385771D01*
X202577200Y-186385771D01*
X202434342Y-186314342D01*
X202362914Y-186242914D01*
X202291485Y-186100057D01*
X202291485Y-185671485D01*
X202362914Y-185528628D01*
X202434342Y-185457200D01*
X202577200Y-185385771D01*
X202862914Y-185385771D01*
X203005771Y-185457200D01*
X203362914Y-186528628D02*
X204505771Y-186528628D01*
X204862914Y-185385771D02*
X204862914Y-186885771D01*
X204862914Y-185457200D02*
X205005771Y-185385771D01*
X205291485Y-185385771D01*
X205434342Y-185457200D01*
X205505771Y-185528628D01*
X205577200Y-185671485D01*
X205577200Y-186100057D01*
X205505771Y-186242914D01*
X205434342Y-186314342D01*
X205291485Y-186385771D01*
X205005771Y-186385771D01*
X204862914Y-186314342D01*
X206862914Y-186314342D02*
X206720057Y-186385771D01*
X206434342Y-186385771D01*
X206291485Y-186314342D01*
X206220057Y-186242914D01*
X206148628Y-186100057D01*
X206148628Y-185671485D01*
X206220057Y-185528628D01*
X206291485Y-185457200D01*
X206434342Y-185385771D01*
X206720057Y-185385771D01*
X206862914Y-185457200D01*
X207505771Y-186385771D02*
X207505771Y-184885771D01*
X207505771Y-185457200D02*
X207648628Y-185385771D01*
X207934342Y-185385771D01*
X208077200Y-185457200D01*
X208148628Y-185528628D01*
X208220057Y-185671485D01*
X208220057Y-186100057D01*
X208148628Y-186242914D01*
X208077200Y-186314342D01*
X207934342Y-186385771D01*
X207648628Y-186385771D01*
X207505771Y-186314342D01*
D10*
D11*
X177002200Y-181507200D02*
X285002200Y-181507200D01*
D10*
D11*
X178362914Y-183614342D02*
X178577200Y-183685771D01*
X178934342Y-183685771D01*
X179077200Y-183614342D01*
X179148628Y-183542914D01*
X179220057Y-183400057D01*
X179220057Y-183257200D01*
X179148628Y-183114342D01*
X179077200Y-183042914D01*
X178934342Y-182971485D01*
X178648628Y-182900057D01*
X178505771Y-182828628D01*
X178434342Y-182757200D01*
X178362914Y-182614342D01*
X178362914Y-182471485D01*
X178434342Y-182328628D01*
X178505771Y-182257200D01*
X178648628Y-182185771D01*
X179005771Y-182185771D01*
X179220057Y-182257200D01*
X179862914Y-183685771D02*
X179862914Y-182185771D01*
X180505771Y-183685771D02*
X180505771Y-182900057D01*
X180434342Y-182757200D01*
X180291485Y-182685771D01*
X180077200Y-182685771D01*
X179934342Y-182757200D01*
X179862914Y-182828628D01*
X181791485Y-183614342D02*
X181648628Y-183685771D01*
X181362914Y-183685771D01*
X181220057Y-183614342D01*
X181148628Y-183471485D01*
X181148628Y-182900057D01*
X181220057Y-182757200D01*
X181362914Y-182685771D01*
X181648628Y-182685771D01*
X181791485Y-182757200D01*
X181862914Y-182900057D01*
X181862914Y-183042914D01*
X181148628Y-183185771D01*
X183077200Y-183614342D02*
X182934342Y-183685771D01*
X182648628Y-183685771D01*
X182505771Y-183614342D01*
X182434342Y-183471485D01*
X182434342Y-182900057D01*
X182505771Y-182757200D01*
X182648628Y-182685771D01*
X182934342Y-182685771D01*
X183077200Y-182757200D01*
X183148628Y-182900057D01*
X183148628Y-183042914D01*
X182434342Y-183185771D01*
X183577200Y-182685771D02*
X184148628Y-182685771D01*
X183791485Y-182185771D02*
X183791485Y-183471485D01*
X183862914Y-183614342D01*
X184005771Y-183685771D01*
X184148628Y-183685771D01*
X184648628Y-183542914D02*
X184720057Y-183614342D01*
X184648628Y-183685771D01*
X184577200Y-183614342D01*
X184648628Y-183542914D01*
X184648628Y-183685771D01*
X184648628Y-182757200D02*
X184720057Y-182828628D01*
X184648628Y-182900057D01*
X184577200Y-182828628D01*
X184648628Y-182757200D01*
X184648628Y-182900057D01*
D10*
D11*
X197002200Y-191507200D02*
X197002200Y-194507200D01*
D10*
D11*
X261002200Y-191507200D02*
X261002200Y-198007200D01*
D14*
X113852380Y-123126190D02*
X113852380Y-122507142D01*
X114233333Y-122840476D01*
X114233333Y-122697619D01*
X114280952Y-122602380D01*
X114328571Y-122554761D01*
X114423809Y-122507142D01*
X114661904Y-122507142D01*
X114757142Y-122554761D01*
X114804761Y-122602380D01*
X114852380Y-122697619D01*
X114852380Y-122983333D01*
X114804761Y-123078571D01*
X114757142Y-123126190D01*
X114757142Y-122078571D02*
X114804761Y-122030952D01*
X114852380Y-122078571D01*
X114804761Y-122126190D01*
X114757142Y-122078571D01*
X114852380Y-122078571D01*
X113852380Y-121697619D02*
X113852380Y-121078571D01*
X114233333Y-121411904D01*
X114233333Y-121269047D01*
X114280952Y-121173809D01*
X114328571Y-121126190D01*
X114423809Y-121078571D01*
X114661904Y-121078571D01*
X114757142Y-121126190D01*
X114804761Y-121173809D01*
X114852380Y-121269047D01*
X114852380Y-121554761D01*
X114804761Y-121650000D01*
X114757142Y-121697619D01*
X113852380Y-120792857D02*
X114852380Y-120459523D01*
X113852380Y-120126190D01*
D12*
X142688571Y-153397142D02*
X143831428Y-153397142D01*
X143260000Y-153968571D02*
X143260000Y-152825714D01*
X154298571Y-153267142D02*
X155441428Y-153267142D01*
X154870000Y-153838571D02*
X154870000Y-152695714D01*
X145288571Y-105257142D02*
X146431428Y-105257142D01*
X145860000Y-105828571D02*
X145860000Y-104685714D01*
X75248571Y-110787142D02*
X76391428Y-110787142D01*
X75820000Y-111358571D02*
X75820000Y-110215714D01*
X82691428Y-148828571D02*
X82691428Y-147328571D01*
X83191428Y-148400000D01*
X83691428Y-147328571D01*
X83691428Y-148828571D01*
X84620000Y-148828571D02*
X84477142Y-148757142D01*
X84405714Y-148685714D01*
X84334285Y-148542857D01*
X84334285Y-148114285D01*
X84405714Y-147971428D01*
X84477142Y-147900000D01*
X84620000Y-147828571D01*
X84834285Y-147828571D01*
X84977142Y-147900000D01*
X85048571Y-147971428D01*
X85120000Y-148114285D01*
X85120000Y-148542857D01*
X85048571Y-148685714D01*
X84977142Y-148757142D01*
X84834285Y-148828571D01*
X84620000Y-148828571D01*
X85620000Y-147828571D02*
X85905714Y-148828571D01*
X86191428Y-148114285D01*
X86477142Y-148828571D01*
X86762857Y-147828571D01*
X87905714Y-148757142D02*
X87762857Y-148828571D01*
X87477142Y-148828571D01*
X87334285Y-148757142D01*
X87262857Y-148614285D01*
X87262857Y-148042857D01*
X87334285Y-147900000D01*
X87477142Y-147828571D01*
X87762857Y-147828571D01*
X87905714Y-147900000D01*
X87977142Y-148042857D01*
X87977142Y-148185714D01*
X87262857Y-148328571D01*
X88620000Y-148828571D02*
X88620000Y-147828571D01*
X88620000Y-148114285D02*
X88691428Y-147971428D01*
X88762857Y-147900000D01*
X88905714Y-147828571D01*
X89048571Y-147828571D01*
X91548571Y-148685714D02*
X91477142Y-148757142D01*
X91262857Y-148828571D01*
X91120000Y-148828571D01*
X90905714Y-148757142D01*
X90762857Y-148614285D01*
X90691428Y-148471428D01*
X90620000Y-148185714D01*
X90620000Y-147971428D01*
X90691428Y-147685714D01*
X90762857Y-147542857D01*
X90905714Y-147400000D01*
X91120000Y-147328571D01*
X91262857Y-147328571D01*
X91477142Y-147400000D01*
X91548571Y-147471428D01*
X92191428Y-148828571D02*
X92191428Y-147328571D01*
X92834285Y-148828571D02*
X92834285Y-148042857D01*
X92762857Y-147900000D01*
X92620000Y-147828571D01*
X92405714Y-147828571D01*
X92262857Y-147900000D01*
X92191428Y-147971428D01*
X94191428Y-148828571D02*
X94191428Y-148042857D01*
X94120000Y-147900000D01*
X93977142Y-147828571D01*
X93691428Y-147828571D01*
X93548571Y-147900000D01*
X94191428Y-148757142D02*
X94048571Y-148828571D01*
X93691428Y-148828571D01*
X93548571Y-148757142D01*
X93477142Y-148614285D01*
X93477142Y-148471428D01*
X93548571Y-148328571D01*
X93691428Y-148257142D01*
X94048571Y-148257142D01*
X94191428Y-148185714D01*
X94905714Y-148828571D02*
X94905714Y-147828571D01*
X94905714Y-148114285D02*
X94977142Y-147971428D01*
X95048571Y-147900000D01*
X95191428Y-147828571D01*
X95334285Y-147828571D01*
X96477142Y-147828571D02*
X96477142Y-149042857D01*
X96405714Y-149185714D01*
X96334285Y-149257142D01*
X96191428Y-149328571D01*
X95977142Y-149328571D01*
X95834285Y-149257142D01*
X96477142Y-148757142D02*
X96334285Y-148828571D01*
X96048571Y-148828571D01*
X95905714Y-148757142D01*
X95834285Y-148685714D01*
X95762857Y-148542857D01*
X95762857Y-148114285D01*
X95834285Y-147971428D01*
X95905714Y-147900000D01*
X96048571Y-147828571D01*
X96334285Y-147828571D01*
X96477142Y-147900000D01*
X97191428Y-148828571D02*
X97191428Y-147828571D01*
X97191428Y-147328571D02*
X97120000Y-147400000D01*
X97191428Y-147471428D01*
X97262857Y-147400000D01*
X97191428Y-147328571D01*
X97191428Y-147471428D01*
X97905714Y-147828571D02*
X97905714Y-148828571D01*
X97905714Y-147971428D02*
X97977142Y-147900000D01*
X98120000Y-147828571D01*
X98334285Y-147828571D01*
X98477142Y-147900000D01*
X98548571Y-148042857D01*
X98548571Y-148828571D01*
X99905714Y-147828571D02*
X99905714Y-149042857D01*
X99834285Y-149185714D01*
X99762857Y-149257142D01*
X99620000Y-149328571D01*
X99405714Y-149328571D01*
X99262857Y-149257142D01*
X99905714Y-148757142D02*
X99762857Y-148828571D01*
X99477142Y-148828571D01*
X99334285Y-148757142D01*
X99262857Y-148685714D01*
X99191428Y-148542857D01*
X99191428Y-148114285D01*
X99262857Y-147971428D01*
X99334285Y-147900000D01*
X99477142Y-147828571D01*
X99762857Y-147828571D01*
X99905714Y-147900000D01*
X102262857Y-148042857D02*
X102477142Y-148114285D01*
X102548571Y-148185714D01*
X102620000Y-148328571D01*
X102620000Y-148542857D01*
X102548571Y-148685714D01*
X102477142Y-148757142D01*
X102334285Y-148828571D01*
X101762857Y-148828571D01*
X101762857Y-147328571D01*
X102262857Y-147328571D01*
X102405714Y-147400000D01*
X102477142Y-147471428D01*
X102548571Y-147614285D01*
X102548571Y-147757142D01*
X102477142Y-147900000D01*
X102405714Y-147971428D01*
X102262857Y-148042857D01*
X101762857Y-148042857D01*
X103477142Y-148828571D02*
X103334285Y-148757142D01*
X103262857Y-148685714D01*
X103191428Y-148542857D01*
X103191428Y-148114285D01*
X103262857Y-147971428D01*
X103334285Y-147900000D01*
X103477142Y-147828571D01*
X103691428Y-147828571D01*
X103834285Y-147900000D01*
X103905714Y-147971428D01*
X103977142Y-148114285D01*
X103977142Y-148542857D01*
X103905714Y-148685714D01*
X103834285Y-148757142D01*
X103691428Y-148828571D01*
X103477142Y-148828571D01*
X105262857Y-148828571D02*
X105262857Y-148042857D01*
X105191428Y-147900000D01*
X105048571Y-147828571D01*
X104762857Y-147828571D01*
X104620000Y-147900000D01*
X105262857Y-148757142D02*
X105120000Y-148828571D01*
X104762857Y-148828571D01*
X104620000Y-148757142D01*
X104548571Y-148614285D01*
X104548571Y-148471428D01*
X104620000Y-148328571D01*
X104762857Y-148257142D01*
X105120000Y-148257142D01*
X105262857Y-148185714D01*
X105977142Y-148828571D02*
X105977142Y-147828571D01*
X105977142Y-148114285D02*
X106048571Y-147971428D01*
X106120000Y-147900000D01*
X106262857Y-147828571D01*
X106405714Y-147828571D01*
X107548571Y-148828571D02*
X107548571Y-147328571D01*
X107548571Y-148757142D02*
X107405714Y-148828571D01*
X107120000Y-148828571D01*
X106977142Y-148757142D01*
X106905714Y-148685714D01*
X106834285Y-148542857D01*
X106834285Y-148114285D01*
X106905714Y-147971428D01*
X106977142Y-147900000D01*
X107120000Y-147828571D01*
X107405714Y-147828571D01*
X107548571Y-147900000D01*
X91834285Y-151378571D02*
X91834285Y-149878571D01*
X91834285Y-150450000D02*
X91977142Y-150378571D01*
X92262857Y-150378571D01*
X92405714Y-150450000D01*
X92477142Y-150521428D01*
X92548571Y-150664285D01*
X92548571Y-151092857D01*
X92477142Y-151235714D01*
X92405714Y-151307142D01*
X92262857Y-151378571D01*
X91977142Y-151378571D01*
X91834285Y-151307142D01*
X93048571Y-150378571D02*
X93405714Y-151378571D01*
X93762857Y-150378571D02*
X93405714Y-151378571D01*
X93262857Y-151735714D01*
X93191428Y-151807142D01*
X93048571Y-151878571D01*
X95405714Y-151307142D02*
X95620000Y-151378571D01*
X95977142Y-151378571D01*
X96120000Y-151307142D01*
X96191428Y-151235714D01*
X96262857Y-151092857D01*
X96262857Y-150950000D01*
X96191428Y-150807142D01*
X96120000Y-150735714D01*
X95977142Y-150664285D01*
X95691428Y-150592857D01*
X95548571Y-150521428D01*
X95477142Y-150450000D01*
X95405714Y-150307142D01*
X95405714Y-150164285D01*
X95477142Y-150021428D01*
X95548571Y-149950000D01*
X95691428Y-149878571D01*
X96048571Y-149878571D01*
X96262857Y-149950000D01*
X96905714Y-151235714D02*
X96977142Y-151307142D01*
X96905714Y-151378571D01*
X96834285Y-151307142D01*
X96905714Y-151235714D01*
X96905714Y-151378571D01*
X97620000Y-151378571D02*
X97620000Y-149878571D01*
X97977142Y-149878571D01*
X98191428Y-149950000D01*
X98334285Y-150092857D01*
X98405714Y-150235714D01*
X98477142Y-150521428D01*
X98477142Y-150735714D01*
X98405714Y-151021428D01*
X98334285Y-151164285D01*
X98191428Y-151307142D01*
X97977142Y-151378571D01*
X97620000Y-151378571D01*
X92262857Y-152428571D02*
X92762857Y-153928571D01*
X93262857Y-152428571D01*
X94548571Y-153928571D02*
X93691428Y-153928571D01*
X94120000Y-153928571D02*
X94120000Y-152428571D01*
X93977142Y-152642857D01*
X93834285Y-152785714D01*
X93691428Y-152857142D01*
X95191428Y-153785714D02*
X95262857Y-153857142D01*
X95191428Y-153928571D01*
X95120000Y-153857142D01*
X95191428Y-153785714D01*
X95191428Y-153928571D01*
X96191428Y-152428571D02*
X96334285Y-152428571D01*
X96477142Y-152500000D01*
X96548571Y-152571428D01*
X96620000Y-152714285D01*
X96691428Y-153000000D01*
X96691428Y-153357142D01*
X96620000Y-153642857D01*
X96548571Y-153785714D01*
X96477142Y-153857142D01*
X96334285Y-153928571D01*
X96191428Y-153928571D01*
X96048571Y-153857142D01*
X95977142Y-153785714D01*
X95905714Y-153642857D01*
X95834285Y-153357142D01*
X95834285Y-153000000D01*
X95905714Y-152714285D01*
X95977142Y-152571428D01*
X96048571Y-152500000D01*
X96191428Y-152428571D01*
D15*
X75056666Y-141528571D02*
X75199523Y-141576190D01*
X75247142Y-141623809D01*
X75294761Y-141719047D01*
X75294761Y-141861904D01*
X75247142Y-141957142D01*
X75199523Y-142004761D01*
X75104285Y-142052380D01*
X74723333Y-142052380D01*
X74723333Y-141052380D01*
X75056666Y-141052380D01*
X75151904Y-141100000D01*
X75199523Y-141147619D01*
X75247142Y-141242857D01*
X75247142Y-141338095D01*
X75199523Y-141433333D01*
X75151904Y-141480952D01*
X75056666Y-141528571D01*
X74723333Y-141528571D01*
X76151904Y-142052380D02*
X76151904Y-141528571D01*
X76104285Y-141433333D01*
X76009047Y-141385714D01*
X75818571Y-141385714D01*
X75723333Y-141433333D01*
X76151904Y-142004761D02*
X76056666Y-142052380D01*
X75818571Y-142052380D01*
X75723333Y-142004761D01*
X75675714Y-141909523D01*
X75675714Y-141814285D01*
X75723333Y-141719047D01*
X75818571Y-141671428D01*
X76056666Y-141671428D01*
X76151904Y-141623809D01*
X76485238Y-141385714D02*
X76866190Y-141385714D01*
X76628095Y-141052380D02*
X76628095Y-141909523D01*
X76675714Y-142004761D01*
X76770952Y-142052380D01*
X76866190Y-142052380D01*
X77056666Y-141385714D02*
X77437619Y-141385714D01*
X77199523Y-141052380D02*
X77199523Y-141909523D01*
X77247142Y-142004761D01*
X77342380Y-142052380D01*
X77437619Y-142052380D01*
X78151904Y-142004761D02*
X78056666Y-142052380D01*
X77866190Y-142052380D01*
X77770952Y-142004761D01*
X77723333Y-141909523D01*
X77723333Y-141528571D01*
X77770952Y-141433333D01*
X77866190Y-141385714D01*
X78056666Y-141385714D01*
X78151904Y-141433333D01*
X78199523Y-141528571D01*
X78199523Y-141623809D01*
X77723333Y-141719047D01*
X78628095Y-142052380D02*
X78628095Y-141385714D01*
X78628095Y-141576190D02*
X78675714Y-141480952D01*
X78723333Y-141433333D01*
X78818571Y-141385714D01*
X78913809Y-141385714D01*
X79151904Y-141385714D02*
X79390000Y-142052380D01*
X79628095Y-141385714D02*
X79390000Y-142052380D01*
X79294761Y-142290476D01*
X79247142Y-142338095D01*
X79151904Y-142385714D01*
X79866190Y-141052380D02*
X80199523Y-142052380D01*
X80532857Y-141052380D01*
X81009047Y-142052380D02*
X80913809Y-142004761D01*
X80866190Y-141957142D01*
X80818571Y-141861904D01*
X80818571Y-141576190D01*
X80866190Y-141480952D01*
X80913809Y-141433333D01*
X81009047Y-141385714D01*
X81151904Y-141385714D01*
X81247142Y-141433333D01*
X81294761Y-141480952D01*
X81342380Y-141576190D01*
X81342380Y-141861904D01*
X81294761Y-141957142D01*
X81247142Y-142004761D01*
X81151904Y-142052380D01*
X81009047Y-142052380D01*
X81913809Y-142052380D02*
X81818571Y-142004761D01*
X81770952Y-141909523D01*
X81770952Y-141052380D01*
X82151904Y-141385714D02*
X82532857Y-141385714D01*
X82294761Y-141052380D02*
X82294761Y-141909523D01*
X82342380Y-142004761D01*
X82437619Y-142052380D01*
X82532857Y-142052380D01*
X83294761Y-142052380D02*
X83294761Y-141528571D01*
X83247142Y-141433333D01*
X83151904Y-141385714D01*
X82961428Y-141385714D01*
X82866190Y-141433333D01*
X83294761Y-142004761D02*
X83199523Y-142052380D01*
X82961428Y-142052380D01*
X82866190Y-142004761D01*
X82818571Y-141909523D01*
X82818571Y-141814285D01*
X82866190Y-141719047D01*
X82961428Y-141671428D01*
X83199523Y-141671428D01*
X83294761Y-141623809D01*
X84199523Y-141385714D02*
X84199523Y-142195238D01*
X84151904Y-142290476D01*
X84104285Y-142338095D01*
X84009047Y-142385714D01*
X83866190Y-142385714D01*
X83770952Y-142338095D01*
X84199523Y-142004761D02*
X84104285Y-142052380D01*
X83913809Y-142052380D01*
X83818571Y-142004761D01*
X83770952Y-141957142D01*
X83723333Y-141861904D01*
X83723333Y-141576190D01*
X83770952Y-141480952D01*
X83818571Y-141433333D01*
X83913809Y-141385714D01*
X84104285Y-141385714D01*
X84199523Y-141433333D01*
X85056666Y-142004761D02*
X84961428Y-142052380D01*
X84770952Y-142052380D01*
X84675714Y-142004761D01*
X84628095Y-141909523D01*
X84628095Y-141528571D01*
X84675714Y-141433333D01*
X84770952Y-141385714D01*
X84961428Y-141385714D01*
X85056666Y-141433333D01*
X85104285Y-141528571D01*
X85104285Y-141623809D01*
X84628095Y-141719047D01*
X75063809Y-138868571D02*
X75206666Y-138916190D01*
X75254285Y-138963809D01*
X75301904Y-139059047D01*
X75301904Y-139201904D01*
X75254285Y-139297142D01*
X75206666Y-139344761D01*
X75111428Y-139392380D01*
X74730476Y-139392380D01*
X74730476Y-138392380D01*
X75063809Y-138392380D01*
X75159047Y-138440000D01*
X75206666Y-138487619D01*
X75254285Y-138582857D01*
X75254285Y-138678095D01*
X75206666Y-138773333D01*
X75159047Y-138820952D01*
X75063809Y-138868571D01*
X74730476Y-138868571D01*
X76159047Y-139392380D02*
X76159047Y-138868571D01*
X76111428Y-138773333D01*
X76016190Y-138725714D01*
X75825714Y-138725714D01*
X75730476Y-138773333D01*
X76159047Y-139344761D02*
X76063809Y-139392380D01*
X75825714Y-139392380D01*
X75730476Y-139344761D01*
X75682857Y-139249523D01*
X75682857Y-139154285D01*
X75730476Y-139059047D01*
X75825714Y-139011428D01*
X76063809Y-139011428D01*
X76159047Y-138963809D01*
X76492380Y-138725714D02*
X76873333Y-138725714D01*
X76635238Y-138392380D02*
X76635238Y-139249523D01*
X76682857Y-139344761D01*
X76778095Y-139392380D01*
X76873333Y-139392380D01*
X77063809Y-138725714D02*
X77444761Y-138725714D01*
X77206666Y-138392380D02*
X77206666Y-139249523D01*
X77254285Y-139344761D01*
X77349523Y-139392380D01*
X77444761Y-139392380D01*
X78159047Y-139344761D02*
X78063809Y-139392380D01*
X77873333Y-139392380D01*
X77778095Y-139344761D01*
X77730476Y-139249523D01*
X77730476Y-138868571D01*
X77778095Y-138773333D01*
X77873333Y-138725714D01*
X78063809Y-138725714D01*
X78159047Y-138773333D01*
X78206666Y-138868571D01*
X78206666Y-138963809D01*
X77730476Y-139059047D01*
X78635238Y-139392380D02*
X78635238Y-138725714D01*
X78635238Y-138916190D02*
X78682857Y-138820952D01*
X78730476Y-138773333D01*
X78825714Y-138725714D01*
X78920952Y-138725714D01*
X79159047Y-138725714D02*
X79397142Y-139392380D01*
X79635238Y-138725714D02*
X79397142Y-139392380D01*
X79301904Y-139630476D01*
X79254285Y-139678095D01*
X79159047Y-139725714D01*
X79968571Y-139344761D02*
X80111428Y-139392380D01*
X80349523Y-139392380D01*
X80444761Y-139344761D01*
X80492380Y-139297142D01*
X80540000Y-139201904D01*
X80540000Y-139106666D01*
X80492380Y-139011428D01*
X80444761Y-138963809D01*
X80349523Y-138916190D01*
X80159047Y-138868571D01*
X80063809Y-138820952D01*
X80016190Y-138773333D01*
X79968571Y-138678095D01*
X79968571Y-138582857D01*
X80016190Y-138487619D01*
X80063809Y-138440000D01*
X80159047Y-138392380D01*
X80397142Y-138392380D01*
X80540000Y-138440000D01*
X80873333Y-138725714D02*
X81063809Y-139392380D01*
X81254285Y-138916190D01*
X81444761Y-139392380D01*
X81635238Y-138725714D01*
X82016190Y-139392380D02*
X82016190Y-138725714D01*
X82016190Y-138392380D02*
X81968571Y-138440000D01*
X82016190Y-138487619D01*
X82063809Y-138440000D01*
X82016190Y-138392380D01*
X82016190Y-138487619D01*
X82349523Y-138725714D02*
X82730476Y-138725714D01*
X82492380Y-138392380D02*
X82492380Y-139249523D01*
X82540000Y-139344761D01*
X82635238Y-139392380D01*
X82730476Y-139392380D01*
X83492380Y-139344761D02*
X83397142Y-139392380D01*
X83206666Y-139392380D01*
X83111428Y-139344761D01*
X83063809Y-139297142D01*
X83016190Y-139201904D01*
X83016190Y-138916190D01*
X83063809Y-138820952D01*
X83111428Y-138773333D01*
X83206666Y-138725714D01*
X83397142Y-138725714D01*
X83492380Y-138773333D01*
X83920952Y-139392380D02*
X83920952Y-138392380D01*
X84349523Y-139392380D02*
X84349523Y-138868571D01*
X84301904Y-138773333D01*
X84206666Y-138725714D01*
X84063809Y-138725714D01*
X83968571Y-138773333D01*
X83920952Y-138820952D01*
X75342380Y-136817142D02*
X75294761Y-136864761D01*
X75151904Y-136912380D01*
X75056666Y-136912380D01*
X74913809Y-136864761D01*
X74818571Y-136769523D01*
X74770952Y-136674285D01*
X74723333Y-136483809D01*
X74723333Y-136340952D01*
X74770952Y-136150476D01*
X74818571Y-136055238D01*
X74913809Y-135960000D01*
X75056666Y-135912380D01*
X75151904Y-135912380D01*
X75294761Y-135960000D01*
X75342380Y-136007619D01*
X75770952Y-136912380D02*
X75770952Y-135912380D01*
X76199523Y-136912380D02*
X76199523Y-136388571D01*
X76151904Y-136293333D01*
X76056666Y-136245714D01*
X75913809Y-136245714D01*
X75818571Y-136293333D01*
X75770952Y-136340952D01*
X77104285Y-136912380D02*
X77104285Y-136388571D01*
X77056666Y-136293333D01*
X76961428Y-136245714D01*
X76770952Y-136245714D01*
X76675714Y-136293333D01*
X77104285Y-136864761D02*
X77009047Y-136912380D01*
X76770952Y-136912380D01*
X76675714Y-136864761D01*
X76628095Y-136769523D01*
X76628095Y-136674285D01*
X76675714Y-136579047D01*
X76770952Y-136531428D01*
X77009047Y-136531428D01*
X77104285Y-136483809D01*
X77580476Y-136912380D02*
X77580476Y-136245714D01*
X77580476Y-136436190D02*
X77628095Y-136340952D01*
X77675714Y-136293333D01*
X77770952Y-136245714D01*
X77866190Y-136245714D01*
X78628095Y-136245714D02*
X78628095Y-137055238D01*
X78580476Y-137150476D01*
X78532857Y-137198095D01*
X78437619Y-137245714D01*
X78294761Y-137245714D01*
X78199523Y-137198095D01*
X78628095Y-136864761D02*
X78532857Y-136912380D01*
X78342380Y-136912380D01*
X78247142Y-136864761D01*
X78199523Y-136817142D01*
X78151904Y-136721904D01*
X78151904Y-136436190D01*
X78199523Y-136340952D01*
X78247142Y-136293333D01*
X78342380Y-136245714D01*
X78532857Y-136245714D01*
X78628095Y-136293333D01*
X79485238Y-136864761D02*
X79390000Y-136912380D01*
X79199523Y-136912380D01*
X79104285Y-136864761D01*
X79056666Y-136769523D01*
X79056666Y-136388571D01*
X79104285Y-136293333D01*
X79199523Y-136245714D01*
X79390000Y-136245714D01*
X79485238Y-136293333D01*
X79532857Y-136388571D01*
X79532857Y-136483809D01*
X79056666Y-136579047D01*
X79818571Y-135912380D02*
X80151904Y-136912380D01*
X80485238Y-135912380D01*
X80961428Y-136912380D02*
X80866190Y-136864761D01*
X80818571Y-136817142D01*
X80770952Y-136721904D01*
X80770952Y-136436190D01*
X80818571Y-136340952D01*
X80866190Y-136293333D01*
X80961428Y-136245714D01*
X81104285Y-136245714D01*
X81199523Y-136293333D01*
X81247142Y-136340952D01*
X81294761Y-136436190D01*
X81294761Y-136721904D01*
X81247142Y-136817142D01*
X81199523Y-136864761D01*
X81104285Y-136912380D01*
X80961428Y-136912380D01*
X81866190Y-136912380D02*
X81770952Y-136864761D01*
X81723333Y-136769523D01*
X81723333Y-135912380D01*
X82104285Y-136245714D02*
X82485238Y-136245714D01*
X82247142Y-135912380D02*
X82247142Y-136769523D01*
X82294761Y-136864761D01*
X82390000Y-136912380D01*
X82485238Y-136912380D01*
X83247142Y-136912380D02*
X83247142Y-136388571D01*
X83199523Y-136293333D01*
X83104285Y-136245714D01*
X82913809Y-136245714D01*
X82818571Y-136293333D01*
X83247142Y-136864761D02*
X83151904Y-136912380D01*
X82913809Y-136912380D01*
X82818571Y-136864761D01*
X82770952Y-136769523D01*
X82770952Y-136674285D01*
X82818571Y-136579047D01*
X82913809Y-136531428D01*
X83151904Y-136531428D01*
X83247142Y-136483809D01*
X84151904Y-136245714D02*
X84151904Y-137055238D01*
X84104285Y-137150476D01*
X84056666Y-137198095D01*
X83961428Y-137245714D01*
X83818571Y-137245714D01*
X83723333Y-137198095D01*
X84151904Y-136864761D02*
X84056666Y-136912380D01*
X83866190Y-136912380D01*
X83770952Y-136864761D01*
X83723333Y-136817142D01*
X83675714Y-136721904D01*
X83675714Y-136436190D01*
X83723333Y-136340952D01*
X83770952Y-136293333D01*
X83866190Y-136245714D01*
X84056666Y-136245714D01*
X84151904Y-136293333D01*
X85009047Y-136864761D02*
X84913809Y-136912380D01*
X84723333Y-136912380D01*
X84628095Y-136864761D01*
X84580476Y-136769523D01*
X84580476Y-136388571D01*
X84628095Y-136293333D01*
X84723333Y-136245714D01*
X84913809Y-136245714D01*
X85009047Y-136293333D01*
X85056666Y-136388571D01*
X85056666Y-136483809D01*
X84580476Y-136579047D01*
X75546190Y-134247142D02*
X75498571Y-134294761D01*
X75355714Y-134342380D01*
X75260476Y-134342380D01*
X75117619Y-134294761D01*
X75022380Y-134199523D01*
X74974761Y-134104285D01*
X74927142Y-133913809D01*
X74927142Y-133770952D01*
X74974761Y-133580476D01*
X75022380Y-133485238D01*
X75117619Y-133390000D01*
X75260476Y-133342380D01*
X75355714Y-133342380D01*
X75498571Y-133390000D01*
X75546190Y-133437619D01*
X75974761Y-134342380D02*
X75974761Y-133342380D01*
X76403333Y-134342380D02*
X76403333Y-133818571D01*
X76355714Y-133723333D01*
X76260476Y-133675714D01*
X76117619Y-133675714D01*
X76022380Y-133723333D01*
X75974761Y-133770952D01*
X77308095Y-134342380D02*
X77308095Y-133818571D01*
X77260476Y-133723333D01*
X77165238Y-133675714D01*
X76974761Y-133675714D01*
X76879523Y-133723333D01*
X77308095Y-134294761D02*
X77212857Y-134342380D01*
X76974761Y-134342380D01*
X76879523Y-134294761D01*
X76831904Y-134199523D01*
X76831904Y-134104285D01*
X76879523Y-134009047D01*
X76974761Y-133961428D01*
X77212857Y-133961428D01*
X77308095Y-133913809D01*
X77784285Y-134342380D02*
X77784285Y-133675714D01*
X77784285Y-133866190D02*
X77831904Y-133770952D01*
X77879523Y-133723333D01*
X77974761Y-133675714D01*
X78070000Y-133675714D01*
X78831904Y-133675714D02*
X78831904Y-134485238D01*
X78784285Y-134580476D01*
X78736666Y-134628095D01*
X78641428Y-134675714D01*
X78498571Y-134675714D01*
X78403333Y-134628095D01*
X78831904Y-134294761D02*
X78736666Y-134342380D01*
X78546190Y-134342380D01*
X78450952Y-134294761D01*
X78403333Y-134247142D01*
X78355714Y-134151904D01*
X78355714Y-133866190D01*
X78403333Y-133770952D01*
X78450952Y-133723333D01*
X78546190Y-133675714D01*
X78736666Y-133675714D01*
X78831904Y-133723333D01*
X79689047Y-134294761D02*
X79593809Y-134342380D01*
X79403333Y-134342380D01*
X79308095Y-134294761D01*
X79260476Y-134199523D01*
X79260476Y-133818571D01*
X79308095Y-133723333D01*
X79403333Y-133675714D01*
X79593809Y-133675714D01*
X79689047Y-133723333D01*
X79736666Y-133818571D01*
X79736666Y-133913809D01*
X79260476Y-134009047D01*
X80736666Y-134247142D02*
X80689047Y-134294761D01*
X80546190Y-134342380D01*
X80450952Y-134342380D01*
X80308095Y-134294761D01*
X80212857Y-134199523D01*
X80165238Y-134104285D01*
X80117619Y-133913809D01*
X80117619Y-133770952D01*
X80165238Y-133580476D01*
X80212857Y-133485238D01*
X80308095Y-133390000D01*
X80450952Y-133342380D01*
X80546190Y-133342380D01*
X80689047Y-133390000D01*
X80736666Y-133437619D01*
X81593809Y-133675714D02*
X81593809Y-134342380D01*
X81165238Y-133675714D02*
X81165238Y-134199523D01*
X81212857Y-134294761D01*
X81308095Y-134342380D01*
X81450952Y-134342380D01*
X81546190Y-134294761D01*
X81593809Y-134247142D01*
X82070000Y-134342380D02*
X82070000Y-133675714D01*
X82070000Y-133866190D02*
X82117619Y-133770952D01*
X82165238Y-133723333D01*
X82260476Y-133675714D01*
X82355714Y-133675714D01*
X82689047Y-134342380D02*
X82689047Y-133675714D01*
X82689047Y-133866190D02*
X82736666Y-133770952D01*
X82784285Y-133723333D01*
X82879523Y-133675714D01*
X82974761Y-133675714D01*
X83689047Y-134294761D02*
X83593809Y-134342380D01*
X83403333Y-134342380D01*
X83308095Y-134294761D01*
X83260476Y-134199523D01*
X83260476Y-133818571D01*
X83308095Y-133723333D01*
X83403333Y-133675714D01*
X83593809Y-133675714D01*
X83689047Y-133723333D01*
X83736666Y-133818571D01*
X83736666Y-133913809D01*
X83260476Y-134009047D01*
X84165238Y-133675714D02*
X84165238Y-134342380D01*
X84165238Y-133770952D02*
X84212857Y-133723333D01*
X84308095Y-133675714D01*
X84450952Y-133675714D01*
X84546190Y-133723333D01*
X84593809Y-133818571D01*
X84593809Y-134342380D01*
X84927142Y-133675714D02*
X85308095Y-133675714D01*
X85070000Y-133342380D02*
X85070000Y-134199523D01*
X85117619Y-134294761D01*
X85212857Y-134342380D01*
X85308095Y-134342380D01*
X75434285Y-131767142D02*
X75386666Y-131814761D01*
X75243809Y-131862380D01*
X75148571Y-131862380D01*
X75005714Y-131814761D01*
X74910476Y-131719523D01*
X74862857Y-131624285D01*
X74815238Y-131433809D01*
X74815238Y-131290952D01*
X74862857Y-131100476D01*
X74910476Y-131005238D01*
X75005714Y-130910000D01*
X75148571Y-130862380D01*
X75243809Y-130862380D01*
X75386666Y-130910000D01*
X75434285Y-130957619D01*
X75862857Y-131862380D02*
X75862857Y-130862380D01*
X76291428Y-131862380D02*
X76291428Y-131338571D01*
X76243809Y-131243333D01*
X76148571Y-131195714D01*
X76005714Y-131195714D01*
X75910476Y-131243333D01*
X75862857Y-131290952D01*
X77196190Y-131862380D02*
X77196190Y-131338571D01*
X77148571Y-131243333D01*
X77053333Y-131195714D01*
X76862857Y-131195714D01*
X76767619Y-131243333D01*
X77196190Y-131814761D02*
X77100952Y-131862380D01*
X76862857Y-131862380D01*
X76767619Y-131814761D01*
X76720000Y-131719523D01*
X76720000Y-131624285D01*
X76767619Y-131529047D01*
X76862857Y-131481428D01*
X77100952Y-131481428D01*
X77196190Y-131433809D01*
X77672380Y-131862380D02*
X77672380Y-131195714D01*
X77672380Y-131386190D02*
X77720000Y-131290952D01*
X77767619Y-131243333D01*
X77862857Y-131195714D01*
X77958095Y-131195714D01*
X78720000Y-131195714D02*
X78720000Y-132005238D01*
X78672380Y-132100476D01*
X78624761Y-132148095D01*
X78529523Y-132195714D01*
X78386666Y-132195714D01*
X78291428Y-132148095D01*
X78720000Y-131814761D02*
X78624761Y-131862380D01*
X78434285Y-131862380D01*
X78339047Y-131814761D01*
X78291428Y-131767142D01*
X78243809Y-131671904D01*
X78243809Y-131386190D01*
X78291428Y-131290952D01*
X78339047Y-131243333D01*
X78434285Y-131195714D01*
X78624761Y-131195714D01*
X78720000Y-131243333D01*
X79577142Y-131814761D02*
X79481904Y-131862380D01*
X79291428Y-131862380D01*
X79196190Y-131814761D01*
X79148571Y-131719523D01*
X79148571Y-131338571D01*
X79196190Y-131243333D01*
X79291428Y-131195714D01*
X79481904Y-131195714D01*
X79577142Y-131243333D01*
X79624761Y-131338571D01*
X79624761Y-131433809D01*
X79148571Y-131529047D01*
X80053333Y-131338571D02*
X80386666Y-131338571D01*
X80529523Y-131862380D02*
X80053333Y-131862380D01*
X80053333Y-130862380D01*
X80529523Y-130862380D01*
X80958095Y-131195714D02*
X80958095Y-131862380D01*
X80958095Y-131290952D02*
X81005714Y-131243333D01*
X81100952Y-131195714D01*
X81243809Y-131195714D01*
X81339047Y-131243333D01*
X81386666Y-131338571D01*
X81386666Y-131862380D01*
X82291428Y-131862380D02*
X82291428Y-131338571D01*
X82243809Y-131243333D01*
X82148571Y-131195714D01*
X81958095Y-131195714D01*
X81862857Y-131243333D01*
X82291428Y-131814761D02*
X82196190Y-131862380D01*
X81958095Y-131862380D01*
X81862857Y-131814761D01*
X81815238Y-131719523D01*
X81815238Y-131624285D01*
X81862857Y-131529047D01*
X81958095Y-131481428D01*
X82196190Y-131481428D01*
X82291428Y-131433809D01*
X82767619Y-131862380D02*
X82767619Y-130862380D01*
X82767619Y-131243333D02*
X82862857Y-131195714D01*
X83053333Y-131195714D01*
X83148571Y-131243333D01*
X83196190Y-131290952D01*
X83243809Y-131386190D01*
X83243809Y-131671904D01*
X83196190Y-131767142D01*
X83148571Y-131814761D01*
X83053333Y-131862380D01*
X82862857Y-131862380D01*
X82767619Y-131814761D01*
X83815238Y-131862380D02*
X83720000Y-131814761D01*
X83672380Y-131719523D01*
X83672380Y-130862380D01*
X84577142Y-131814761D02*
X84481904Y-131862380D01*
X84291428Y-131862380D01*
X84196190Y-131814761D01*
X84148571Y-131719523D01*
X84148571Y-131338571D01*
X84196190Y-131243333D01*
X84291428Y-131195714D01*
X84481904Y-131195714D01*
X84577142Y-131243333D01*
X84624761Y-131338571D01*
X84624761Y-131433809D01*
X84148571Y-131529047D01*
X74732380Y-128382380D02*
X75065714Y-129382380D01*
X75399047Y-128382380D01*
X75875238Y-129382380D02*
X75780000Y-129334761D01*
X75732380Y-129287142D01*
X75684761Y-129191904D01*
X75684761Y-128906190D01*
X75732380Y-128810952D01*
X75780000Y-128763333D01*
X75875238Y-128715714D01*
X76018095Y-128715714D01*
X76113333Y-128763333D01*
X76160952Y-128810952D01*
X76208571Y-128906190D01*
X76208571Y-129191904D01*
X76160952Y-129287142D01*
X76113333Y-129334761D01*
X76018095Y-129382380D01*
X75875238Y-129382380D01*
X76780000Y-129382380D02*
X76684761Y-129334761D01*
X76637142Y-129239523D01*
X76637142Y-128382380D01*
X77018095Y-128715714D02*
X77399047Y-128715714D01*
X77160952Y-128382380D02*
X77160952Y-129239523D01*
X77208571Y-129334761D01*
X77303809Y-129382380D01*
X77399047Y-129382380D01*
X78160952Y-129382380D02*
X78160952Y-128858571D01*
X78113333Y-128763333D01*
X78018095Y-128715714D01*
X77827619Y-128715714D01*
X77732380Y-128763333D01*
X78160952Y-129334761D02*
X78065714Y-129382380D01*
X77827619Y-129382380D01*
X77732380Y-129334761D01*
X77684761Y-129239523D01*
X77684761Y-129144285D01*
X77732380Y-129049047D01*
X77827619Y-129001428D01*
X78065714Y-129001428D01*
X78160952Y-128953809D01*
X79065714Y-128715714D02*
X79065714Y-129525238D01*
X79018095Y-129620476D01*
X78970476Y-129668095D01*
X78875238Y-129715714D01*
X78732380Y-129715714D01*
X78637142Y-129668095D01*
X79065714Y-129334761D02*
X78970476Y-129382380D01*
X78780000Y-129382380D01*
X78684761Y-129334761D01*
X78637142Y-129287142D01*
X78589523Y-129191904D01*
X78589523Y-128906190D01*
X78637142Y-128810952D01*
X78684761Y-128763333D01*
X78780000Y-128715714D01*
X78970476Y-128715714D01*
X79065714Y-128763333D01*
X79922857Y-129334761D02*
X79827619Y-129382380D01*
X79637142Y-129382380D01*
X79541904Y-129334761D01*
X79494285Y-129239523D01*
X79494285Y-128858571D01*
X79541904Y-128763333D01*
X79637142Y-128715714D01*
X79827619Y-128715714D01*
X79922857Y-128763333D01*
X79970476Y-128858571D01*
X79970476Y-128953809D01*
X79494285Y-129049047D01*
X80399047Y-129382380D02*
X80399047Y-128382380D01*
X80732380Y-129096666D01*
X81065714Y-128382380D01*
X81065714Y-129382380D01*
X81922857Y-129334761D02*
X81827619Y-129382380D01*
X81637142Y-129382380D01*
X81541904Y-129334761D01*
X81494285Y-129239523D01*
X81494285Y-128858571D01*
X81541904Y-128763333D01*
X81637142Y-128715714D01*
X81827619Y-128715714D01*
X81922857Y-128763333D01*
X81970476Y-128858571D01*
X81970476Y-128953809D01*
X81494285Y-129049047D01*
X82827619Y-129382380D02*
X82827619Y-128858571D01*
X82780000Y-128763333D01*
X82684761Y-128715714D01*
X82494285Y-128715714D01*
X82399047Y-128763333D01*
X82827619Y-129334761D02*
X82732380Y-129382380D01*
X82494285Y-129382380D01*
X82399047Y-129334761D01*
X82351428Y-129239523D01*
X82351428Y-129144285D01*
X82399047Y-129049047D01*
X82494285Y-129001428D01*
X82732380Y-129001428D01*
X82827619Y-128953809D01*
X83256190Y-129334761D02*
X83351428Y-129382380D01*
X83541904Y-129382380D01*
X83637142Y-129334761D01*
X83684761Y-129239523D01*
X83684761Y-129191904D01*
X83637142Y-129096666D01*
X83541904Y-129049047D01*
X83399047Y-129049047D01*
X83303809Y-129001428D01*
X83256190Y-128906190D01*
X83256190Y-128858571D01*
X83303809Y-128763333D01*
X83399047Y-128715714D01*
X83541904Y-128715714D01*
X83637142Y-128763333D01*
X84541904Y-128715714D02*
X84541904Y-129382380D01*
X84113333Y-128715714D02*
X84113333Y-129239523D01*
X84160952Y-129334761D01*
X84256190Y-129382380D01*
X84399047Y-129382380D01*
X84494285Y-129334761D01*
X84541904Y-129287142D01*
X85018095Y-129382380D02*
X85018095Y-128715714D01*
X85018095Y-128906190D02*
X85065714Y-128810952D01*
X85113333Y-128763333D01*
X85208571Y-128715714D01*
X85303809Y-128715714D01*
X86018095Y-129334761D02*
X85922857Y-129382380D01*
X85732380Y-129382380D01*
X85637142Y-129334761D01*
X85589523Y-129239523D01*
X85589523Y-128858571D01*
X85637142Y-128763333D01*
X85732380Y-128715714D01*
X85922857Y-128715714D01*
X86018095Y-128763333D01*
X86065714Y-128858571D01*
X86065714Y-128953809D01*
X85589523Y-129049047D01*
X86494285Y-129382380D02*
X86494285Y-128715714D01*
X86494285Y-128810952D02*
X86541904Y-128763333D01*
X86637142Y-128715714D01*
X86780000Y-128715714D01*
X86875238Y-128763333D01*
X86922857Y-128858571D01*
X86922857Y-129382380D01*
X86922857Y-128858571D02*
X86970476Y-128763333D01*
X87065714Y-128715714D01*
X87208571Y-128715714D01*
X87303809Y-128763333D01*
X87351428Y-128858571D01*
X87351428Y-129382380D01*
X88208571Y-129334761D02*
X88113333Y-129382380D01*
X87922857Y-129382380D01*
X87827619Y-129334761D01*
X87780000Y-129239523D01*
X87780000Y-128858571D01*
X87827619Y-128763333D01*
X87922857Y-128715714D01*
X88113333Y-128715714D01*
X88208571Y-128763333D01*
X88256190Y-128858571D01*
X88256190Y-128953809D01*
X87780000Y-129049047D01*
X88684761Y-128715714D02*
X88684761Y-129382380D01*
X88684761Y-128810952D02*
X88732380Y-128763333D01*
X88827619Y-128715714D01*
X88970476Y-128715714D01*
X89065714Y-128763333D01*
X89113333Y-128858571D01*
X89113333Y-129382380D01*
X89446666Y-128715714D02*
X89827619Y-128715714D01*
X89589523Y-128382380D02*
X89589523Y-129239523D01*
X89637142Y-129334761D01*
X89732380Y-129382380D01*
X89827619Y-129382380D01*
D16*
%TO.C,J3*%
X156940000Y-112800000D02*
X146780000Y-112800000D01*
X156940000Y-114070000D02*
X156940000Y-106450000D01*
X156940000Y-106450000D02*
X146780000Y-106450000D01*
X146780000Y-106450000D02*
X146780000Y-114070000D01*
X146780000Y-114070000D02*
X156940000Y-114070000D01*
%TO.C,D6*%
X102630000Y-125130000D02*
X102630000Y-125310000D01*
X102630000Y-122790000D02*
X102630000Y-122970000D01*
X102510000Y-125130000D02*
X102510000Y-125310000D01*
X102510000Y-122790000D02*
X102510000Y-122970000D01*
X105810000Y-125145000D02*
X105810000Y-125310000D01*
X105810000Y-122790000D02*
X105810000Y-122955000D01*
X102390000Y-125130000D02*
X102390000Y-125310000D01*
X102390000Y-122790000D02*
X102390000Y-122970000D01*
X102390000Y-125310000D02*
X105810000Y-125310000D01*
X102390000Y-122790000D02*
X105810000Y-122790000D01*
%TO.C,R9*%
X104680000Y-120380000D02*
X104680000Y-120050000D01*
X98140000Y-120380000D02*
X104680000Y-120380000D01*
X98140000Y-120050000D02*
X98140000Y-120380000D01*
X104680000Y-117640000D02*
X104680000Y-117970000D01*
X98140000Y-117640000D02*
X104680000Y-117640000D01*
X98140000Y-117970000D02*
X98140000Y-117640000D01*
D11*
%TO.C,U1*%
X130900000Y-126870000D02*
X108040000Y-126870000D01*
X108040000Y-107820000D02*
X108040000Y-105280000D01*
X108040000Y-105280000D02*
X130900000Y-105280000D01*
X130900000Y-105280000D02*
X130900000Y-107820000D01*
X130900000Y-107820000D02*
X130900000Y-106550000D01*
X130900000Y-126870000D02*
X130900000Y-107820000D01*
X108040000Y-107820000D02*
X108040000Y-126870000D01*
D16*
%TO.C,R8*%
X102030000Y-139790000D02*
X102030000Y-139460000D01*
X102030000Y-139460000D02*
X108570000Y-139460000D01*
X108570000Y-139460000D02*
X108570000Y-139790000D01*
X102030000Y-141870000D02*
X102030000Y-142200000D01*
X102030000Y-142200000D02*
X108570000Y-142200000D01*
X108570000Y-142200000D02*
X108570000Y-141870000D01*
%TO.C,R7*%
X117940000Y-152140000D02*
X117940000Y-152470000D01*
X117940000Y-152470000D02*
X111400000Y-152470000D01*
X111400000Y-152470000D02*
X111400000Y-152140000D01*
X117940000Y-150060000D02*
X117940000Y-149730000D01*
X117940000Y-149730000D02*
X111400000Y-149730000D01*
X111400000Y-149730000D02*
X111400000Y-150060000D01*
%TO.C,R6*%
X123940000Y-144880000D02*
X124270000Y-144880000D01*
X124270000Y-144880000D02*
X124270000Y-151420000D01*
X124270000Y-151420000D02*
X123940000Y-151420000D01*
X121860000Y-144880000D02*
X121530000Y-144880000D01*
X121530000Y-144880000D02*
X121530000Y-151420000D01*
X121530000Y-151420000D02*
X121860000Y-151420000D01*
%TO.C,R5*%
X111530000Y-144750000D02*
X111530000Y-144420000D01*
X111530000Y-144420000D02*
X118070000Y-144420000D01*
X118070000Y-144420000D02*
X118070000Y-144750000D01*
X111530000Y-146830000D02*
X111530000Y-147160000D01*
X111530000Y-147160000D02*
X118070000Y-147160000D01*
X118070000Y-147160000D02*
X118070000Y-146830000D01*
%TO.C,R4*%
X97250000Y-141950000D02*
X97250000Y-142280000D01*
X97250000Y-142280000D02*
X90710000Y-142280000D01*
X90710000Y-142280000D02*
X90710000Y-141950000D01*
X97250000Y-139870000D02*
X97250000Y-139540000D01*
X97250000Y-139540000D02*
X90710000Y-139540000D01*
X90710000Y-139540000D02*
X90710000Y-139870000D01*
%TO.C,R3*%
X97250000Y-137040000D02*
X97250000Y-137370000D01*
X97250000Y-137370000D02*
X90710000Y-137370000D01*
X90710000Y-137370000D02*
X90710000Y-137040000D01*
X97250000Y-134960000D02*
X97250000Y-134630000D01*
X97250000Y-134630000D02*
X90710000Y-134630000D01*
X90710000Y-134630000D02*
X90710000Y-134960000D01*
%TO.C,R2*%
X105860000Y-135640000D02*
X105530000Y-135640000D01*
X105530000Y-135640000D02*
X105530000Y-129100000D01*
X105530000Y-129100000D02*
X105860000Y-129100000D01*
X107940000Y-135640000D02*
X108270000Y-135640000D01*
X108270000Y-135640000D02*
X108270000Y-129100000D01*
X108270000Y-129100000D02*
X107940000Y-129100000D01*
%TO.C,R1*%
X100970000Y-135640000D02*
X100640000Y-135640000D01*
X100640000Y-135640000D02*
X100640000Y-129100000D01*
X100640000Y-129100000D02*
X100970000Y-129100000D01*
X103050000Y-135640000D02*
X103380000Y-135640000D01*
X103380000Y-135640000D02*
X103380000Y-129100000D01*
X103380000Y-129100000D02*
X103050000Y-129100000D01*
%TO.C,Q4*%
X144626000Y-125620000D02*
X144752000Y-125620000D01*
X146768000Y-125620000D02*
X147039000Y-125620000D01*
X149054000Y-125620000D02*
X149325000Y-125620000D01*
X151340000Y-125620000D02*
X151466000Y-125620000D01*
X144626000Y-118260000D02*
X145146000Y-118260000D01*
X150946000Y-118260000D02*
X151466000Y-118260000D01*
X144626000Y-118260000D02*
X144626000Y-125620000D01*
X151466000Y-118260000D02*
X151466000Y-125620000D01*
D10*
%TO.C,Q3*%
X130020000Y-138780000D02*
X130170000Y-138480000D01*
X130020000Y-138780000D02*
X129720000Y-138780000D01*
X125620000Y-138780000D02*
X125320000Y-138780000D01*
X125320000Y-138780000D02*
X125170000Y-138480000D01*
D11*
X129620000Y-135630000D02*
G75*
G03*
X125770000Y-135580000I-1950000J-1900000D01*
G01*
D16*
%TO.C,Q2*%
X118154000Y-130860000D02*
X118028000Y-130860000D01*
X116012000Y-130860000D02*
X115741000Y-130860000D01*
X113726000Y-130860000D02*
X113455000Y-130860000D01*
X111440000Y-130860000D02*
X111314000Y-130860000D01*
X118154000Y-138220000D02*
X117634000Y-138220000D01*
X111834000Y-138220000D02*
X111314000Y-138220000D01*
X118154000Y-138220000D02*
X118154000Y-130860000D01*
X111314000Y-138220000D02*
X111314000Y-130860000D01*
D10*
%TO.C,Q1*%
X96620000Y-131560000D02*
X96770000Y-131260000D01*
X96620000Y-131560000D02*
X96320000Y-131560000D01*
X92220000Y-131560000D02*
X91920000Y-131560000D01*
X91920000Y-131560000D02*
X91770000Y-131260000D01*
D11*
X96220000Y-128410000D02*
G75*
G03*
X92370000Y-128360000I-1950000J-1900000D01*
G01*
D16*
%TO.C,J7*%
X155140000Y-126220000D02*
X155140000Y-116060000D01*
X153870000Y-126220000D02*
X161490000Y-126220000D01*
X161490000Y-126220000D02*
X161490000Y-116060000D01*
X161490000Y-116060000D02*
X153870000Y-116060000D01*
X153870000Y-116060000D02*
X153870000Y-126220000D01*
%TO.C,J6*%
X132690000Y-145900000D02*
X142850000Y-145900000D01*
X132690000Y-144630000D02*
X132690000Y-152250000D01*
X132690000Y-152250000D02*
X142850000Y-152250000D01*
X142850000Y-152250000D02*
X142850000Y-144630000D01*
X142850000Y-144630000D02*
X132690000Y-144630000D01*
%TO.C,J5*%
X155410000Y-139790000D02*
X155410000Y-129630000D01*
X154140000Y-139790000D02*
X161760000Y-139790000D01*
X161760000Y-139790000D02*
X161760000Y-129630000D01*
X161760000Y-129630000D02*
X154140000Y-129630000D01*
X154140000Y-129630000D02*
X154140000Y-139790000D01*
%TO.C,J4*%
X145640000Y-145920000D02*
X155800000Y-145920000D01*
X145640000Y-144650000D02*
X145640000Y-152270000D01*
X145640000Y-152270000D02*
X155800000Y-152270000D01*
X155800000Y-152270000D02*
X155800000Y-144650000D01*
X155800000Y-144650000D02*
X145640000Y-144650000D01*
%TO.C,J2*%
X143020000Y-112880000D02*
X132860000Y-112880000D01*
X143020000Y-114150000D02*
X143020000Y-106530000D01*
X143020000Y-106530000D02*
X132860000Y-106530000D01*
X132860000Y-106530000D02*
X132860000Y-114150000D01*
X132860000Y-114150000D02*
X143020000Y-114150000D01*
%TO.C,J1*%
X74050000Y-127300000D02*
X71390000Y-127300000D01*
X74050000Y-140060000D02*
X74050000Y-127300000D01*
X71390000Y-140060000D02*
X71390000Y-127300000D01*
X74050000Y-140060000D02*
X71390000Y-140060000D01*
X74050000Y-141330000D02*
X74050000Y-142660000D01*
X74050000Y-142660000D02*
X72720000Y-142660000D01*
D11*
%TO.C,F2*%
X139969360Y-123090520D02*
X142471260Y-123090520D01*
X132468740Y-123090520D02*
X134970640Y-123090520D01*
X132468740Y-135089480D02*
X134970640Y-135089480D01*
X142471260Y-135089480D02*
X139969360Y-135089480D01*
X137470000Y-124589120D02*
X137470000Y-133590880D01*
X139969360Y-124589120D02*
X134970640Y-124589120D01*
X139969360Y-133590880D02*
X134970640Y-133590880D01*
X139369920Y-139089980D02*
X139969360Y-139089980D01*
X135570080Y-119090020D02*
X134970640Y-119090020D01*
X134970640Y-119090020D02*
X134970640Y-139089980D01*
X134970640Y-139089980D02*
X135570080Y-139089980D01*
X139969360Y-139089980D02*
X139969360Y-119090020D01*
X139969360Y-119090020D02*
X139369920Y-119090020D01*
X139369920Y-141088960D02*
X142471260Y-141088960D01*
X135570080Y-117091040D02*
X132468740Y-117091040D01*
X132468740Y-117091040D02*
X132468740Y-141088960D01*
X132468740Y-141088960D02*
X135570080Y-141088960D01*
X142471260Y-141088960D02*
X142471260Y-117091040D01*
X142471260Y-117091040D02*
X139369920Y-117091040D01*
%TO.C,F1*%
X87620520Y-108450640D02*
X87620520Y-105948740D01*
X87620520Y-115951260D02*
X87620520Y-113449360D01*
X99619480Y-115951260D02*
X99619480Y-113449360D01*
X99619480Y-105948740D02*
X99619480Y-108450640D01*
X89119120Y-110950000D02*
X98120880Y-110950000D01*
X89119120Y-108450640D02*
X89119120Y-113449360D01*
X98120880Y-108450640D02*
X98120880Y-113449360D01*
X103619980Y-109050080D02*
X103619980Y-108450640D01*
X83620020Y-112849920D02*
X83620020Y-113449360D01*
X83620020Y-113449360D02*
X103619980Y-113449360D01*
X103619980Y-113449360D02*
X103619980Y-112849920D01*
X103619980Y-108450640D02*
X83620020Y-108450640D01*
X83620020Y-108450640D02*
X83620020Y-109050080D01*
X105618960Y-109050080D02*
X105618960Y-105948740D01*
X81621040Y-112849920D02*
X81621040Y-115951260D01*
X81621040Y-115951260D02*
X105618960Y-115951260D01*
X105618960Y-115951260D02*
X105618960Y-112849920D01*
X105618960Y-105948740D02*
X81621040Y-105948740D01*
X81621040Y-105948740D02*
X81621040Y-109050080D01*
D16*
%TO.C,D5*%
X127630000Y-149870000D02*
X130570000Y-149870000D01*
X130570000Y-149870000D02*
X130570000Y-144430000D01*
X130570000Y-144430000D02*
X127630000Y-144430000D01*
X127630000Y-144430000D02*
X127630000Y-149870000D01*
X129100000Y-150890000D02*
X129100000Y-149870000D01*
X129100000Y-143410000D02*
X129100000Y-144430000D01*
X127630000Y-148970000D02*
X130570000Y-148970000D01*
X127630000Y-148850000D02*
X130570000Y-148850000D01*
X127630000Y-149090000D02*
X130570000Y-149090000D01*
%TO.C,D4*%
X150630000Y-131730000D02*
X150630000Y-141970000D01*
X145989000Y-131730000D02*
X145989000Y-141970000D01*
X150630000Y-131730000D02*
X145989000Y-131730000D01*
X150630000Y-141970000D02*
X145989000Y-141970000D01*
X149120000Y-131730000D02*
X149120000Y-141970000D01*
X150630000Y-135000000D02*
X149120000Y-135000000D01*
X150630000Y-138701000D02*
X149120000Y-138701000D01*
%TO.C,D3*%
X96500000Y-125210000D02*
X96500000Y-122970000D01*
X96500000Y-122970000D02*
X92260000Y-122970000D01*
X92260000Y-122970000D02*
X92260000Y-125210000D01*
X92260000Y-125210000D02*
X96500000Y-125210000D01*
X97150000Y-124090000D02*
X96500000Y-124090000D01*
X91610000Y-124090000D02*
X92260000Y-124090000D01*
X95780000Y-125210000D02*
X95780000Y-122970000D01*
X95660000Y-125210000D02*
X95660000Y-122970000D01*
X95900000Y-125210000D02*
X95900000Y-122970000D01*
%TO.C,D2*%
X86240000Y-117540000D02*
X86240000Y-120480000D01*
X86240000Y-120480000D02*
X91680000Y-120480000D01*
X91680000Y-120480000D02*
X91680000Y-117540000D01*
X91680000Y-117540000D02*
X86240000Y-117540000D01*
X85220000Y-119010000D02*
X86240000Y-119010000D01*
X92700000Y-119010000D02*
X91680000Y-119010000D01*
X87140000Y-117540000D02*
X87140000Y-120480000D01*
X87260000Y-117540000D02*
X87260000Y-120480000D01*
X87020000Y-117540000D02*
X87020000Y-120480000D01*
%TO.C,D1*%
X86990000Y-127240000D02*
X76750000Y-127240000D01*
X86990000Y-122599000D02*
X76750000Y-122599000D01*
X86990000Y-127240000D02*
X86990000Y-122599000D01*
X76750000Y-127240000D02*
X76750000Y-122599000D01*
X86990000Y-125730000D02*
X76750000Y-125730000D01*
X83720000Y-127240000D02*
X83720000Y-125730000D01*
X80019000Y-127240000D02*
X80019000Y-125730000D01*
D11*
%TO.C,C1*%
X121399240Y-128860360D02*
X121399240Y-129861120D01*
X120898860Y-129360740D02*
X121899620Y-129360740D01*
X125549600Y-131060000D02*
G75*
G03*
X125549600Y-131060000I-3149600J0D01*
G01*
%TO.C,BT1*%
X73100000Y-121970000D02*
X73100000Y-111810000D01*
X71830000Y-121970000D02*
X79450000Y-121970000D01*
X79450000Y-121970000D02*
X79450000Y-111810000D01*
X79450000Y-111810000D02*
X71830000Y-111810000D01*
X71830000Y-111810000D02*
X71830000Y-121970000D01*
%TO.C,J3*%
X151746666Y-114422380D02*
X151746666Y-115136666D01*
X151699047Y-115279523D01*
X151603809Y-115374761D01*
X151460952Y-115422380D01*
X151365714Y-115422380D01*
X152127619Y-114422380D02*
X152746666Y-114422380D01*
X152413333Y-114803333D01*
X152556190Y-114803333D01*
X152651428Y-114850952D01*
X152699047Y-114898571D01*
X152746666Y-114993809D01*
X152746666Y-115231904D01*
X152699047Y-115327142D01*
X152651428Y-115374761D01*
X152556190Y-115422380D01*
X152270476Y-115422380D01*
X152175238Y-115374761D01*
X152127619Y-115327142D01*
X147118095Y-105802380D02*
X147118095Y-104802380D01*
X147499047Y-104802380D01*
X147594285Y-104850000D01*
X147641904Y-104897619D01*
X147689523Y-104992857D01*
X147689523Y-105135714D01*
X147641904Y-105230952D01*
X147594285Y-105278571D01*
X147499047Y-105326190D01*
X147118095Y-105326190D01*
X148260952Y-105802380D02*
X148165714Y-105754761D01*
X148118095Y-105707142D01*
X148070476Y-105611904D01*
X148070476Y-105326190D01*
X148118095Y-105230952D01*
X148165714Y-105183333D01*
X148260952Y-105135714D01*
X148403809Y-105135714D01*
X148499047Y-105183333D01*
X148546666Y-105230952D01*
X148594285Y-105326190D01*
X148594285Y-105611904D01*
X148546666Y-105707142D01*
X148499047Y-105754761D01*
X148403809Y-105802380D01*
X148260952Y-105802380D01*
X148927619Y-105135714D02*
X149118095Y-105802380D01*
X149308571Y-105326190D01*
X149499047Y-105802380D01*
X149689523Y-105135714D01*
X150451428Y-105754761D02*
X150356190Y-105802380D01*
X150165714Y-105802380D01*
X150070476Y-105754761D01*
X150022857Y-105659523D01*
X150022857Y-105278571D01*
X150070476Y-105183333D01*
X150165714Y-105135714D01*
X150356190Y-105135714D01*
X150451428Y-105183333D01*
X150499047Y-105278571D01*
X150499047Y-105373809D01*
X150022857Y-105469047D01*
X150927619Y-105802380D02*
X150927619Y-105135714D01*
X150927619Y-105326190D02*
X150975238Y-105230952D01*
X151022857Y-105183333D01*
X151118095Y-105135714D01*
X151213333Y-105135714D01*
X152260952Y-105754761D02*
X152403809Y-105802380D01*
X152641904Y-105802380D01*
X152737142Y-105754761D01*
X152784761Y-105707142D01*
X152832380Y-105611904D01*
X152832380Y-105516666D01*
X152784761Y-105421428D01*
X152737142Y-105373809D01*
X152641904Y-105326190D01*
X152451428Y-105278571D01*
X152356190Y-105230952D01*
X152308571Y-105183333D01*
X152260952Y-105088095D01*
X152260952Y-104992857D01*
X152308571Y-104897619D01*
X152356190Y-104850000D01*
X152451428Y-104802380D01*
X152689523Y-104802380D01*
X152832380Y-104850000D01*
X153165714Y-105135714D02*
X153356190Y-105802380D01*
X153546666Y-105326190D01*
X153737142Y-105802380D01*
X153927619Y-105135714D01*
X154308571Y-105802380D02*
X154308571Y-105135714D01*
X154308571Y-104802380D02*
X154260952Y-104850000D01*
X154308571Y-104897619D01*
X154356190Y-104850000D01*
X154308571Y-104802380D01*
X154308571Y-104897619D01*
X154641904Y-105135714D02*
X155022857Y-105135714D01*
X154784761Y-104802380D02*
X154784761Y-105659523D01*
X154832380Y-105754761D01*
X154927619Y-105802380D01*
X155022857Y-105802380D01*
X155784761Y-105754761D02*
X155689523Y-105802380D01*
X155499047Y-105802380D01*
X155403809Y-105754761D01*
X155356190Y-105707142D01*
X155308571Y-105611904D01*
X155308571Y-105326190D01*
X155356190Y-105230952D01*
X155403809Y-105183333D01*
X155499047Y-105135714D01*
X155689523Y-105135714D01*
X155784761Y-105183333D01*
X156213333Y-105802380D02*
X156213333Y-104802380D01*
X156641904Y-105802380D02*
X156641904Y-105278571D01*
X156594285Y-105183333D01*
X156499047Y-105135714D01*
X156356190Y-105135714D01*
X156260952Y-105183333D01*
X156213333Y-105230952D01*
%TO.C,D6*%
X103361904Y-122242380D02*
X103361904Y-121242380D01*
X103600000Y-121242380D01*
X103742857Y-121290000D01*
X103838095Y-121385238D01*
X103885714Y-121480476D01*
X103933333Y-121670952D01*
X103933333Y-121813809D01*
X103885714Y-122004285D01*
X103838095Y-122099523D01*
X103742857Y-122194761D01*
X103600000Y-122242380D01*
X103361904Y-122242380D01*
X104790476Y-121242380D02*
X104600000Y-121242380D01*
X104504761Y-121290000D01*
X104457142Y-121337619D01*
X104361904Y-121480476D01*
X104314285Y-121670952D01*
X104314285Y-122051904D01*
X104361904Y-122147142D01*
X104409523Y-122194761D01*
X104504761Y-122242380D01*
X104695238Y-122242380D01*
X104790476Y-122194761D01*
X104838095Y-122147142D01*
X104885714Y-122051904D01*
X104885714Y-121813809D01*
X104838095Y-121718571D01*
X104790476Y-121670952D01*
X104695238Y-121623333D01*
X104504761Y-121623333D01*
X104409523Y-121670952D01*
X104361904Y-121718571D01*
X104314285Y-121813809D01*
X101056666Y-126573333D02*
X101156666Y-126606666D01*
X101323333Y-126606666D01*
X101390000Y-126573333D01*
X101423333Y-126540000D01*
X101456666Y-126473333D01*
X101456666Y-126406666D01*
X101423333Y-126340000D01*
X101390000Y-126306666D01*
X101323333Y-126273333D01*
X101190000Y-126240000D01*
X101123333Y-126206666D01*
X101090000Y-126173333D01*
X101056666Y-126106666D01*
X101056666Y-126040000D01*
X101090000Y-125973333D01*
X101123333Y-125940000D01*
X101190000Y-125906666D01*
X101356666Y-125906666D01*
X101456666Y-125940000D01*
X101656666Y-126140000D02*
X101923333Y-126140000D01*
X101756666Y-125906666D02*
X101756666Y-126506666D01*
X101790000Y-126573333D01*
X101856666Y-126606666D01*
X101923333Y-126606666D01*
X102456666Y-126606666D02*
X102456666Y-126240000D01*
X102423333Y-126173333D01*
X102356666Y-126140000D01*
X102223333Y-126140000D01*
X102156666Y-126173333D01*
X102456666Y-126573333D02*
X102390000Y-126606666D01*
X102223333Y-126606666D01*
X102156666Y-126573333D01*
X102123333Y-126506666D01*
X102123333Y-126440000D01*
X102156666Y-126373333D01*
X102223333Y-126340000D01*
X102390000Y-126340000D01*
X102456666Y-126306666D01*
X102690000Y-126140000D02*
X102956666Y-126140000D01*
X102790000Y-125906666D02*
X102790000Y-126506666D01*
X102823333Y-126573333D01*
X102890000Y-126606666D01*
X102956666Y-126606666D01*
X103190000Y-126606666D02*
X103190000Y-126140000D01*
X103190000Y-125906666D02*
X103156666Y-125940000D01*
X103190000Y-125973333D01*
X103223333Y-125940000D01*
X103190000Y-125906666D01*
X103190000Y-125973333D01*
X103623333Y-126606666D02*
X103556666Y-126573333D01*
X103523333Y-126540000D01*
X103490000Y-126473333D01*
X103490000Y-126273333D01*
X103523333Y-126206666D01*
X103556666Y-126173333D01*
X103623333Y-126140000D01*
X103723333Y-126140000D01*
X103790000Y-126173333D01*
X103823333Y-126206666D01*
X103856666Y-126273333D01*
X103856666Y-126473333D01*
X103823333Y-126540000D01*
X103790000Y-126573333D01*
X103723333Y-126606666D01*
X103623333Y-126606666D01*
X104156666Y-126140000D02*
X104156666Y-126606666D01*
X104156666Y-126206666D02*
X104190000Y-126173333D01*
X104256666Y-126140000D01*
X104356666Y-126140000D01*
X104423333Y-126173333D01*
X104456666Y-126240000D01*
X104456666Y-126606666D01*
X105656666Y-126606666D02*
X105323333Y-126606666D01*
X105323333Y-125906666D01*
X105890000Y-126240000D02*
X106123333Y-126240000D01*
X106223333Y-126606666D02*
X105890000Y-126606666D01*
X105890000Y-125906666D01*
X106223333Y-125906666D01*
X106523333Y-126606666D02*
X106523333Y-125906666D01*
X106690000Y-125906666D01*
X106790000Y-125940000D01*
X106856666Y-126006666D01*
X106890000Y-126073333D01*
X106923333Y-126206666D01*
X106923333Y-126306666D01*
X106890000Y-126440000D01*
X106856666Y-126506666D01*
X106790000Y-126573333D01*
X106690000Y-126606666D01*
X106523333Y-126606666D01*
%TO.C,R9*%
X101243333Y-117092380D02*
X100910000Y-116616190D01*
X100671904Y-117092380D02*
X100671904Y-116092380D01*
X101052857Y-116092380D01*
X101148095Y-116140000D01*
X101195714Y-116187619D01*
X101243333Y-116282857D01*
X101243333Y-116425714D01*
X101195714Y-116520952D01*
X101148095Y-116568571D01*
X101052857Y-116616190D01*
X100671904Y-116616190D01*
X101719523Y-117092380D02*
X101910000Y-117092380D01*
X102005238Y-117044761D01*
X102052857Y-116997142D01*
X102148095Y-116854285D01*
X102195714Y-116663809D01*
X102195714Y-116282857D01*
X102148095Y-116187619D01*
X102100476Y-116140000D01*
X102005238Y-116092380D01*
X101814761Y-116092380D01*
X101719523Y-116140000D01*
X101671904Y-116187619D01*
X101624285Y-116282857D01*
X101624285Y-116520952D01*
X101671904Y-116616190D01*
X101719523Y-116663809D01*
X101814761Y-116711428D01*
X102005238Y-116711428D01*
X102100476Y-116663809D01*
X102148095Y-116616190D01*
X102195714Y-116520952D01*
%TO.C,U1*%
X118327142Y-115888571D02*
X118327142Y-117102857D01*
X118398571Y-117245714D01*
X118470000Y-117317142D01*
X118612857Y-117388571D01*
X118898571Y-117388571D01*
X119041428Y-117317142D01*
X119112857Y-117245714D01*
X119184285Y-117102857D01*
X119184285Y-115888571D01*
X120684285Y-117388571D02*
X119827142Y-117388571D01*
X120255714Y-117388571D02*
X120255714Y-115888571D01*
X120112857Y-116102857D01*
X119970000Y-116245714D01*
X119827142Y-116317142D01*
X116827142Y-114336666D02*
X117303333Y-114336666D01*
X116731904Y-114622380D02*
X117065238Y-113622380D01*
X117398571Y-114622380D01*
X118303333Y-114527142D02*
X118255714Y-114574761D01*
X118112857Y-114622380D01*
X118017619Y-114622380D01*
X117874761Y-114574761D01*
X117779523Y-114479523D01*
X117731904Y-114384285D01*
X117684285Y-114193809D01*
X117684285Y-114050952D01*
X117731904Y-113860476D01*
X117779523Y-113765238D01*
X117874761Y-113670000D01*
X118017619Y-113622380D01*
X118112857Y-113622380D01*
X118255714Y-113670000D01*
X118303333Y-113717619D01*
X118684285Y-114574761D02*
X118827142Y-114622380D01*
X119065238Y-114622380D01*
X119160476Y-114574761D01*
X119208095Y-114527142D01*
X119255714Y-114431904D01*
X119255714Y-114336666D01*
X119208095Y-114241428D01*
X119160476Y-114193809D01*
X119065238Y-114146190D01*
X118874761Y-114098571D01*
X118779523Y-114050952D01*
X118731904Y-114003333D01*
X118684285Y-113908095D01*
X118684285Y-113812857D01*
X118731904Y-113717619D01*
X118779523Y-113670000D01*
X118874761Y-113622380D01*
X119112857Y-113622380D01*
X119255714Y-113670000D01*
X119589047Y-113622380D02*
X120255714Y-113622380D01*
X119827142Y-114622380D01*
X121160476Y-114622380D02*
X120589047Y-114622380D01*
X120874761Y-114622380D02*
X120874761Y-113622380D01*
X120779523Y-113765238D01*
X120684285Y-113860476D01*
X120589047Y-113908095D01*
X121541428Y-113717619D02*
X121589047Y-113670000D01*
X121684285Y-113622380D01*
X121922380Y-113622380D01*
X122017619Y-113670000D01*
X122065238Y-113717619D01*
X122112857Y-113812857D01*
X122112857Y-113908095D01*
X122065238Y-114050952D01*
X121493809Y-114622380D01*
X122112857Y-114622380D01*
%TO.C,R8*%
X105363333Y-139132380D02*
X105030000Y-138656190D01*
X104791904Y-139132380D02*
X104791904Y-138132380D01*
X105172857Y-138132380D01*
X105268095Y-138180000D01*
X105315714Y-138227619D01*
X105363333Y-138322857D01*
X105363333Y-138465714D01*
X105315714Y-138560952D01*
X105268095Y-138608571D01*
X105172857Y-138656190D01*
X104791904Y-138656190D01*
X105934761Y-138560952D02*
X105839523Y-138513333D01*
X105791904Y-138465714D01*
X105744285Y-138370476D01*
X105744285Y-138322857D01*
X105791904Y-138227619D01*
X105839523Y-138180000D01*
X105934761Y-138132380D01*
X106125238Y-138132380D01*
X106220476Y-138180000D01*
X106268095Y-138227619D01*
X106315714Y-138322857D01*
X106315714Y-138370476D01*
X106268095Y-138465714D01*
X106220476Y-138513333D01*
X106125238Y-138560952D01*
X105934761Y-138560952D01*
X105839523Y-138608571D01*
X105791904Y-138656190D01*
X105744285Y-138751428D01*
X105744285Y-138941904D01*
X105791904Y-139037142D01*
X105839523Y-139084761D01*
X105934761Y-139132380D01*
X106125238Y-139132380D01*
X106220476Y-139084761D01*
X106268095Y-139037142D01*
X106315714Y-138941904D01*
X106315714Y-138751428D01*
X106268095Y-138656190D01*
X106220476Y-138608571D01*
X106125238Y-138560952D01*
%TO.C,R7*%
X114763333Y-149312380D02*
X114430000Y-148836190D01*
X114191904Y-149312380D02*
X114191904Y-148312380D01*
X114572857Y-148312380D01*
X114668095Y-148360000D01*
X114715714Y-148407619D01*
X114763333Y-148502857D01*
X114763333Y-148645714D01*
X114715714Y-148740952D01*
X114668095Y-148788571D01*
X114572857Y-148836190D01*
X114191904Y-148836190D01*
X115096666Y-148312380D02*
X115763333Y-148312380D01*
X115334761Y-149312380D01*
%TO.C,R6*%
X121092380Y-148326666D02*
X120616190Y-148660000D01*
X121092380Y-148898095D02*
X120092380Y-148898095D01*
X120092380Y-148517142D01*
X120140000Y-148421904D01*
X120187619Y-148374285D01*
X120282857Y-148326666D01*
X120425714Y-148326666D01*
X120520952Y-148374285D01*
X120568571Y-148421904D01*
X120616190Y-148517142D01*
X120616190Y-148898095D01*
X120092380Y-147469523D02*
X120092380Y-147660000D01*
X120140000Y-147755238D01*
X120187619Y-147802857D01*
X120330476Y-147898095D01*
X120520952Y-147945714D01*
X120901904Y-147945714D01*
X120997142Y-147898095D01*
X121044761Y-147850476D01*
X121092380Y-147755238D01*
X121092380Y-147564761D01*
X121044761Y-147469523D01*
X120997142Y-147421904D01*
X120901904Y-147374285D01*
X120663809Y-147374285D01*
X120568571Y-147421904D01*
X120520952Y-147469523D01*
X120473333Y-147564761D01*
X120473333Y-147755238D01*
X120520952Y-147850476D01*
X120568571Y-147898095D01*
X120663809Y-147945714D01*
%TO.C,R5*%
X114633333Y-143872380D02*
X114300000Y-143396190D01*
X114061904Y-143872380D02*
X114061904Y-142872380D01*
X114442857Y-142872380D01*
X114538095Y-142920000D01*
X114585714Y-142967619D01*
X114633333Y-143062857D01*
X114633333Y-143205714D01*
X114585714Y-143300952D01*
X114538095Y-143348571D01*
X114442857Y-143396190D01*
X114061904Y-143396190D01*
X115538095Y-142872380D02*
X115061904Y-142872380D01*
X115014285Y-143348571D01*
X115061904Y-143300952D01*
X115157142Y-143253333D01*
X115395238Y-143253333D01*
X115490476Y-143300952D01*
X115538095Y-143348571D01*
X115585714Y-143443809D01*
X115585714Y-143681904D01*
X115538095Y-143777142D01*
X115490476Y-143824761D01*
X115395238Y-143872380D01*
X115157142Y-143872380D01*
X115061904Y-143824761D01*
X115014285Y-143777142D01*
%TO.C,R4*%
X93813333Y-143732380D02*
X93480000Y-143256190D01*
X93241904Y-143732380D02*
X93241904Y-142732380D01*
X93622857Y-142732380D01*
X93718095Y-142780000D01*
X93765714Y-142827619D01*
X93813333Y-142922857D01*
X93813333Y-143065714D01*
X93765714Y-143160952D01*
X93718095Y-143208571D01*
X93622857Y-143256190D01*
X93241904Y-143256190D01*
X94670476Y-143065714D02*
X94670476Y-143732380D01*
X94432380Y-142684761D02*
X94194285Y-143399047D01*
X94813333Y-143399047D01*
%TO.C,R3*%
X93813333Y-134012380D02*
X93480000Y-133536190D01*
X93241904Y-134012380D02*
X93241904Y-133012380D01*
X93622857Y-133012380D01*
X93718095Y-133060000D01*
X93765714Y-133107619D01*
X93813333Y-133202857D01*
X93813333Y-133345714D01*
X93765714Y-133440952D01*
X93718095Y-133488571D01*
X93622857Y-133536190D01*
X93241904Y-133536190D01*
X94146666Y-133012380D02*
X94765714Y-133012380D01*
X94432380Y-133393333D01*
X94575238Y-133393333D01*
X94670476Y-133440952D01*
X94718095Y-133488571D01*
X94765714Y-133583809D01*
X94765714Y-133821904D01*
X94718095Y-133917142D01*
X94670476Y-133964761D01*
X94575238Y-134012380D01*
X94289523Y-134012380D01*
X94194285Y-133964761D01*
X94146666Y-133917142D01*
%TO.C,R2*%
X104982380Y-132536666D02*
X104506190Y-132870000D01*
X104982380Y-133108095D02*
X103982380Y-133108095D01*
X103982380Y-132727142D01*
X104030000Y-132631904D01*
X104077619Y-132584285D01*
X104172857Y-132536666D01*
X104315714Y-132536666D01*
X104410952Y-132584285D01*
X104458571Y-132631904D01*
X104506190Y-132727142D01*
X104506190Y-133108095D01*
X104077619Y-132155714D02*
X104030000Y-132108095D01*
X103982380Y-132012857D01*
X103982380Y-131774761D01*
X104030000Y-131679523D01*
X104077619Y-131631904D01*
X104172857Y-131584285D01*
X104268095Y-131584285D01*
X104410952Y-131631904D01*
X104982380Y-132203333D01*
X104982380Y-131584285D01*
%TO.C,R1*%
X100092380Y-132536666D02*
X99616190Y-132870000D01*
X100092380Y-133108095D02*
X99092380Y-133108095D01*
X99092380Y-132727142D01*
X99140000Y-132631904D01*
X99187619Y-132584285D01*
X99282857Y-132536666D01*
X99425714Y-132536666D01*
X99520952Y-132584285D01*
X99568571Y-132631904D01*
X99616190Y-132727142D01*
X99616190Y-133108095D01*
X100092380Y-131584285D02*
X100092380Y-132155714D01*
X100092380Y-131870000D02*
X99092380Y-131870000D01*
X99235238Y-131965238D01*
X99330476Y-132060476D01*
X99378095Y-132155714D01*
%TO.C,Q4*%
X147950761Y-116774286D02*
X147855523Y-116726667D01*
X147760285Y-116631428D01*
X147617428Y-116488571D01*
X147522190Y-116440952D01*
X147426952Y-116440952D01*
X147474571Y-116679047D02*
X147379333Y-116631428D01*
X147284095Y-116536190D01*
X147236476Y-116345714D01*
X147236476Y-116012381D01*
X147284095Y-115821905D01*
X147379333Y-115726667D01*
X147474571Y-115679047D01*
X147665047Y-115679047D01*
X147760285Y-115726667D01*
X147855523Y-115821905D01*
X147903142Y-116012381D01*
X147903142Y-116345714D01*
X147855523Y-116536190D01*
X147760285Y-116631428D01*
X147665047Y-116679047D01*
X147474571Y-116679047D01*
X148760285Y-116012381D02*
X148760285Y-116679047D01*
X148522190Y-115631428D02*
X148284095Y-116345714D01*
X148903142Y-116345714D01*
%TO.C,Q3*%
X127574761Y-134377619D02*
X127479523Y-134330000D01*
X127384285Y-134234761D01*
X127241428Y-134091904D01*
X127146190Y-134044285D01*
X127050952Y-134044285D01*
X127098571Y-134282380D02*
X127003333Y-134234761D01*
X126908095Y-134139523D01*
X126860476Y-133949047D01*
X126860476Y-133615714D01*
X126908095Y-133425238D01*
X127003333Y-133330000D01*
X127098571Y-133282380D01*
X127289047Y-133282380D01*
X127384285Y-133330000D01*
X127479523Y-133425238D01*
X127527142Y-133615714D01*
X127527142Y-133949047D01*
X127479523Y-134139523D01*
X127384285Y-134234761D01*
X127289047Y-134282380D01*
X127098571Y-134282380D01*
X127860476Y-133282380D02*
X128479523Y-133282380D01*
X128146190Y-133663333D01*
X128289047Y-133663333D01*
X128384285Y-133710952D01*
X128431904Y-133758571D01*
X128479523Y-133853809D01*
X128479523Y-134091904D01*
X128431904Y-134187142D01*
X128384285Y-134234761D01*
X128289047Y-134282380D01*
X128003333Y-134282380D01*
X127908095Y-134234761D01*
X127860476Y-134187142D01*
%TO.C,Q2*%
X114638761Y-140800952D02*
X114543523Y-140753333D01*
X114448285Y-140658094D01*
X114305428Y-140515237D01*
X114210190Y-140467618D01*
X114114952Y-140467618D01*
X114162571Y-140705713D02*
X114067333Y-140658094D01*
X113972095Y-140562856D01*
X113924476Y-140372380D01*
X113924476Y-140039047D01*
X113972095Y-139848571D01*
X114067333Y-139753333D01*
X114162571Y-139705713D01*
X114353047Y-139705713D01*
X114448285Y-139753333D01*
X114543523Y-139848571D01*
X114591142Y-140039047D01*
X114591142Y-140372380D01*
X114543523Y-140562856D01*
X114448285Y-140658094D01*
X114353047Y-140705713D01*
X114162571Y-140705713D01*
X114972095Y-139800952D02*
X115019714Y-139753333D01*
X115114952Y-139705713D01*
X115353047Y-139705713D01*
X115448285Y-139753333D01*
X115495904Y-139800952D01*
X115543523Y-139896190D01*
X115543523Y-139991428D01*
X115495904Y-140134285D01*
X114924476Y-140705713D01*
X115543523Y-140705713D01*
%TO.C,Q1*%
X94174761Y-127157619D02*
X94079523Y-127110000D01*
X93984285Y-127014761D01*
X93841428Y-126871904D01*
X93746190Y-126824285D01*
X93650952Y-126824285D01*
X93698571Y-127062380D02*
X93603333Y-127014761D01*
X93508095Y-126919523D01*
X93460476Y-126729047D01*
X93460476Y-126395714D01*
X93508095Y-126205238D01*
X93603333Y-126110000D01*
X93698571Y-126062380D01*
X93889047Y-126062380D01*
X93984285Y-126110000D01*
X94079523Y-126205238D01*
X94127142Y-126395714D01*
X94127142Y-126729047D01*
X94079523Y-126919523D01*
X93984285Y-127014761D01*
X93889047Y-127062380D01*
X93698571Y-127062380D01*
X95079523Y-127062380D02*
X94508095Y-127062380D01*
X94793809Y-127062380D02*
X94793809Y-126062380D01*
X94698571Y-126205238D01*
X94603333Y-126300476D01*
X94508095Y-126348095D01*
%TO.C,J7*%
X152222380Y-121443333D02*
X152936666Y-121443333D01*
X153079523Y-121490952D01*
X153174761Y-121586190D01*
X153222380Y-121729047D01*
X153222380Y-121824285D01*
X152222380Y-121062380D02*
X152222380Y-120395714D01*
X153222380Y-120824285D01*
X163032380Y-125452857D02*
X162032380Y-125452857D01*
X162746666Y-125119523D01*
X162032380Y-124786190D01*
X163032380Y-124786190D01*
X163032380Y-124167142D02*
X162984761Y-124262380D01*
X162937142Y-124310000D01*
X162841904Y-124357619D01*
X162556190Y-124357619D01*
X162460952Y-124310000D01*
X162413333Y-124262380D01*
X162365714Y-124167142D01*
X162365714Y-124024285D01*
X162413333Y-123929047D01*
X162460952Y-123881428D01*
X162556190Y-123833809D01*
X162841904Y-123833809D01*
X162937142Y-123881428D01*
X162984761Y-123929047D01*
X163032380Y-124024285D01*
X163032380Y-124167142D01*
X162365714Y-123548095D02*
X162365714Y-123167142D01*
X162032380Y-123405238D02*
X162889523Y-123405238D01*
X162984761Y-123357619D01*
X163032380Y-123262380D01*
X163032380Y-123167142D01*
X163032380Y-122690952D02*
X162984761Y-122786190D01*
X162937142Y-122833809D01*
X162841904Y-122881428D01*
X162556190Y-122881428D01*
X162460952Y-122833809D01*
X162413333Y-122786190D01*
X162365714Y-122690952D01*
X162365714Y-122548095D01*
X162413333Y-122452857D01*
X162460952Y-122405238D01*
X162556190Y-122357619D01*
X162841904Y-122357619D01*
X162937142Y-122405238D01*
X162984761Y-122452857D01*
X163032380Y-122548095D01*
X163032380Y-122690952D01*
X163032380Y-121929047D02*
X162365714Y-121929047D01*
X162556190Y-121929047D02*
X162460952Y-121881428D01*
X162413333Y-121833809D01*
X162365714Y-121738571D01*
X162365714Y-121643333D01*
X163127619Y-121548095D02*
X163127619Y-120786190D01*
X163032380Y-119976666D02*
X162556190Y-120310000D01*
X163032380Y-120548095D02*
X162032380Y-120548095D01*
X162032380Y-120167142D01*
X162080000Y-120071904D01*
X162127619Y-120024285D01*
X162222857Y-119976666D01*
X162365714Y-119976666D01*
X162460952Y-120024285D01*
X162508571Y-120071904D01*
X162556190Y-120167142D01*
X162556190Y-120548095D01*
X163032380Y-119548095D02*
X162365714Y-119548095D01*
X162032380Y-119548095D02*
X162080000Y-119595714D01*
X162127619Y-119548095D01*
X162080000Y-119500476D01*
X162032380Y-119548095D01*
X162127619Y-119548095D01*
X162365714Y-118643333D02*
X163175238Y-118643333D01*
X163270476Y-118690952D01*
X163318095Y-118738571D01*
X163365714Y-118833809D01*
X163365714Y-118976666D01*
X163318095Y-119071904D01*
X162984761Y-118643333D02*
X163032380Y-118738571D01*
X163032380Y-118929047D01*
X162984761Y-119024285D01*
X162937142Y-119071904D01*
X162841904Y-119119523D01*
X162556190Y-119119523D01*
X162460952Y-119071904D01*
X162413333Y-119024285D01*
X162365714Y-118929047D01*
X162365714Y-118738571D01*
X162413333Y-118643333D01*
X163032380Y-118167142D02*
X162032380Y-118167142D01*
X163032380Y-117738571D02*
X162508571Y-117738571D01*
X162413333Y-117786190D01*
X162365714Y-117881428D01*
X162365714Y-118024285D01*
X162413333Y-118119523D01*
X162460952Y-118167142D01*
X162365714Y-117405238D02*
X162365714Y-117024285D01*
X162032380Y-117262380D02*
X162889523Y-117262380D01*
X162984761Y-117214761D01*
X163032380Y-117119523D01*
X163032380Y-117024285D01*
%TO.C,J6*%
X137616666Y-143012380D02*
X137616666Y-143726666D01*
X137569047Y-143869523D01*
X137473809Y-143964761D01*
X137330952Y-144012380D01*
X137235714Y-144012380D01*
X138521428Y-143012380D02*
X138330952Y-143012380D01*
X138235714Y-143060000D01*
X138188095Y-143107619D01*
X138092857Y-143250476D01*
X138045238Y-143440952D01*
X138045238Y-143821904D01*
X138092857Y-143917142D01*
X138140476Y-143964761D01*
X138235714Y-144012380D01*
X138426190Y-144012380D01*
X138521428Y-143964761D01*
X138569047Y-143917142D01*
X138616666Y-143821904D01*
X138616666Y-143583809D01*
X138569047Y-143488571D01*
X138521428Y-143440952D01*
X138426190Y-143393333D01*
X138235714Y-143393333D01*
X138140476Y-143440952D01*
X138092857Y-143488571D01*
X138045238Y-143583809D01*
X133173809Y-153832380D02*
X133173809Y-152832380D01*
X133507142Y-153546666D01*
X133840476Y-152832380D01*
X133840476Y-153832380D01*
X134459523Y-153832380D02*
X134364285Y-153784761D01*
X134316666Y-153737142D01*
X134269047Y-153641904D01*
X134269047Y-153356190D01*
X134316666Y-153260952D01*
X134364285Y-153213333D01*
X134459523Y-153165714D01*
X134602380Y-153165714D01*
X134697619Y-153213333D01*
X134745238Y-153260952D01*
X134792857Y-153356190D01*
X134792857Y-153641904D01*
X134745238Y-153737142D01*
X134697619Y-153784761D01*
X134602380Y-153832380D01*
X134459523Y-153832380D01*
X135078571Y-153165714D02*
X135459523Y-153165714D01*
X135221428Y-152832380D02*
X135221428Y-153689523D01*
X135269047Y-153784761D01*
X135364285Y-153832380D01*
X135459523Y-153832380D01*
X135935714Y-153832380D02*
X135840476Y-153784761D01*
X135792857Y-153737142D01*
X135745238Y-153641904D01*
X135745238Y-153356190D01*
X135792857Y-153260952D01*
X135840476Y-153213333D01*
X135935714Y-153165714D01*
X136078571Y-153165714D01*
X136173809Y-153213333D01*
X136221428Y-153260952D01*
X136269047Y-153356190D01*
X136269047Y-153641904D01*
X136221428Y-153737142D01*
X136173809Y-153784761D01*
X136078571Y-153832380D01*
X135935714Y-153832380D01*
X136697619Y-153832380D02*
X136697619Y-153165714D01*
X136697619Y-153356190D02*
X136745238Y-153260952D01*
X136792857Y-153213333D01*
X136888095Y-153165714D01*
X136983333Y-153165714D01*
X137078571Y-153927619D02*
X137840476Y-153927619D01*
X138650000Y-153737142D02*
X138602380Y-153784761D01*
X138459523Y-153832380D01*
X138364285Y-153832380D01*
X138221428Y-153784761D01*
X138126190Y-153689523D01*
X138078571Y-153594285D01*
X138030952Y-153403809D01*
X138030952Y-153260952D01*
X138078571Y-153070476D01*
X138126190Y-152975238D01*
X138221428Y-152880000D01*
X138364285Y-152832380D01*
X138459523Y-152832380D01*
X138602380Y-152880000D01*
X138650000Y-152927619D01*
X139507142Y-153165714D02*
X139507142Y-153832380D01*
X139078571Y-153165714D02*
X139078571Y-153689523D01*
X139126190Y-153784761D01*
X139221428Y-153832380D01*
X139364285Y-153832380D01*
X139459523Y-153784761D01*
X139507142Y-153737142D01*
X139840476Y-153165714D02*
X140221428Y-153165714D01*
X139983333Y-152832380D02*
X139983333Y-153689523D01*
X140030952Y-153784761D01*
X140126190Y-153832380D01*
X140221428Y-153832380D01*
X140411904Y-153165714D02*
X140792857Y-153165714D01*
X140554761Y-152832380D02*
X140554761Y-153689523D01*
X140602380Y-153784761D01*
X140697619Y-153832380D01*
X140792857Y-153832380D01*
X141507142Y-153784761D02*
X141411904Y-153832380D01*
X141221428Y-153832380D01*
X141126190Y-153784761D01*
X141078571Y-153689523D01*
X141078571Y-153308571D01*
X141126190Y-153213333D01*
X141221428Y-153165714D01*
X141411904Y-153165714D01*
X141507142Y-153213333D01*
X141554761Y-153308571D01*
X141554761Y-153403809D01*
X141078571Y-153499047D01*
X141983333Y-153832380D02*
X141983333Y-153165714D01*
X141983333Y-153356190D02*
X142030952Y-153260952D01*
X142078571Y-153213333D01*
X142173809Y-153165714D01*
X142269047Y-153165714D01*
%TO.C,J5*%
X152512380Y-135183333D02*
X153226666Y-135183333D01*
X153369523Y-135230952D01*
X153464761Y-135326190D01*
X153512380Y-135469047D01*
X153512380Y-135564285D01*
X152512380Y-134230952D02*
X152512380Y-134707142D01*
X152988571Y-134754761D01*
X152940952Y-134707142D01*
X152893333Y-134611904D01*
X152893333Y-134373809D01*
X152940952Y-134278571D01*
X152988571Y-134230952D01*
X153083809Y-134183333D01*
X153321904Y-134183333D01*
X153417142Y-134230952D01*
X153464761Y-134278571D01*
X153512380Y-134373809D01*
X153512380Y-134611904D01*
X153464761Y-134707142D01*
X153417142Y-134754761D01*
X163312380Y-138269047D02*
X162312380Y-138269047D01*
X163026666Y-137935714D01*
X162312380Y-137602380D01*
X163312380Y-137602380D01*
X163312380Y-136983333D02*
X163264761Y-137078571D01*
X163217142Y-137126190D01*
X163121904Y-137173809D01*
X162836190Y-137173809D01*
X162740952Y-137126190D01*
X162693333Y-137078571D01*
X162645714Y-136983333D01*
X162645714Y-136840476D01*
X162693333Y-136745238D01*
X162740952Y-136697619D01*
X162836190Y-136650000D01*
X163121904Y-136650000D01*
X163217142Y-136697619D01*
X163264761Y-136745238D01*
X163312380Y-136840476D01*
X163312380Y-136983333D01*
X162645714Y-136364285D02*
X162645714Y-135983333D01*
X162312380Y-136221428D02*
X163169523Y-136221428D01*
X163264761Y-136173809D01*
X163312380Y-136078571D01*
X163312380Y-135983333D01*
X163312380Y-135507142D02*
X163264761Y-135602380D01*
X163217142Y-135650000D01*
X163121904Y-135697619D01*
X162836190Y-135697619D01*
X162740952Y-135650000D01*
X162693333Y-135602380D01*
X162645714Y-135507142D01*
X162645714Y-135364285D01*
X162693333Y-135269047D01*
X162740952Y-135221428D01*
X162836190Y-135173809D01*
X163121904Y-135173809D01*
X163217142Y-135221428D01*
X163264761Y-135269047D01*
X163312380Y-135364285D01*
X163312380Y-135507142D01*
X163312380Y-134745238D02*
X162645714Y-134745238D01*
X162836190Y-134745238D02*
X162740952Y-134697619D01*
X162693333Y-134650000D01*
X162645714Y-134554761D01*
X162645714Y-134459523D01*
X163407619Y-134364285D02*
X163407619Y-133602380D01*
X163312380Y-132888095D02*
X163312380Y-133364285D01*
X162312380Y-133364285D01*
X163264761Y-132173809D02*
X163312380Y-132269047D01*
X163312380Y-132459523D01*
X163264761Y-132554761D01*
X163169523Y-132602380D01*
X162788571Y-132602380D01*
X162693333Y-132554761D01*
X162645714Y-132459523D01*
X162645714Y-132269047D01*
X162693333Y-132173809D01*
X162788571Y-132126190D01*
X162883809Y-132126190D01*
X162979047Y-132602380D01*
X162645714Y-131840476D02*
X162645714Y-131459523D01*
X163312380Y-131697619D02*
X162455238Y-131697619D01*
X162360000Y-131650000D01*
X162312380Y-131554761D01*
X162312380Y-131459523D01*
X162645714Y-131269047D02*
X162645714Y-130888095D01*
X162312380Y-131126190D02*
X163169523Y-131126190D01*
X163264761Y-131078571D01*
X163312380Y-130983333D01*
X163312380Y-130888095D01*
%TO.C,J4*%
X152726666Y-143112380D02*
X152726666Y-143826666D01*
X152679047Y-143969523D01*
X152583809Y-144064761D01*
X152440952Y-144112380D01*
X152345714Y-144112380D01*
X153631428Y-143445714D02*
X153631428Y-144112380D01*
X153393333Y-143064761D02*
X153155238Y-143779047D01*
X153774285Y-143779047D01*
X147806666Y-152717619D02*
X147854285Y-152670000D01*
X147949523Y-152622380D01*
X148187619Y-152622380D01*
X148282857Y-152670000D01*
X148330476Y-152717619D01*
X148378095Y-152812857D01*
X148378095Y-152908095D01*
X148330476Y-153050952D01*
X147759047Y-153622380D01*
X148378095Y-153622380D01*
X149235238Y-152955714D02*
X149235238Y-153622380D01*
X148997142Y-152574761D02*
X148759047Y-153289047D01*
X149378095Y-153289047D01*
X149616190Y-152622380D02*
X149949523Y-153622380D01*
X150282857Y-152622380D01*
X151568571Y-152622380D02*
X151759047Y-152622380D01*
X151854285Y-152670000D01*
X151949523Y-152765238D01*
X151997142Y-152955714D01*
X151997142Y-153289047D01*
X151949523Y-153479523D01*
X151854285Y-153574761D01*
X151759047Y-153622380D01*
X151568571Y-153622380D01*
X151473333Y-153574761D01*
X151378095Y-153479523D01*
X151330476Y-153289047D01*
X151330476Y-152955714D01*
X151378095Y-152765238D01*
X151473333Y-152670000D01*
X151568571Y-152622380D01*
X152854285Y-152955714D02*
X152854285Y-153622380D01*
X152425714Y-152955714D02*
X152425714Y-153479523D01*
X152473333Y-153574761D01*
X152568571Y-153622380D01*
X152711428Y-153622380D01*
X152806666Y-153574761D01*
X152854285Y-153527142D01*
X153187619Y-152955714D02*
X153568571Y-152955714D01*
X153330476Y-152622380D02*
X153330476Y-153479523D01*
X153378095Y-153574761D01*
X153473333Y-153622380D01*
X153568571Y-153622380D01*
%TO.C,J2*%
X137696666Y-114602380D02*
X137696666Y-115316666D01*
X137649047Y-115459523D01*
X137553809Y-115554761D01*
X137410952Y-115602380D01*
X137315714Y-115602380D01*
X138125238Y-114697619D02*
X138172857Y-114650000D01*
X138268095Y-114602380D01*
X138506190Y-114602380D01*
X138601428Y-114650000D01*
X138649047Y-114697619D01*
X138696666Y-114792857D01*
X138696666Y-114888095D01*
X138649047Y-115030952D01*
X138077619Y-115602380D01*
X138696666Y-115602380D01*
X135458571Y-105258571D02*
X135601428Y-105306190D01*
X135649047Y-105353809D01*
X135696666Y-105449047D01*
X135696666Y-105591904D01*
X135649047Y-105687142D01*
X135601428Y-105734761D01*
X135506190Y-105782380D01*
X135125238Y-105782380D01*
X135125238Y-104782380D01*
X135458571Y-104782380D01*
X135553809Y-104830000D01*
X135601428Y-104877619D01*
X135649047Y-104972857D01*
X135649047Y-105068095D01*
X135601428Y-105163333D01*
X135553809Y-105210952D01*
X135458571Y-105258571D01*
X135125238Y-105258571D01*
X136553809Y-105782380D02*
X136553809Y-105258571D01*
X136506190Y-105163333D01*
X136410952Y-105115714D01*
X136220476Y-105115714D01*
X136125238Y-105163333D01*
X136553809Y-105734761D02*
X136458571Y-105782380D01*
X136220476Y-105782380D01*
X136125238Y-105734761D01*
X136077619Y-105639523D01*
X136077619Y-105544285D01*
X136125238Y-105449047D01*
X136220476Y-105401428D01*
X136458571Y-105401428D01*
X136553809Y-105353809D01*
X136887142Y-105115714D02*
X137268095Y-105115714D01*
X137030000Y-104782380D02*
X137030000Y-105639523D01*
X137077619Y-105734761D01*
X137172857Y-105782380D01*
X137268095Y-105782380D01*
X137458571Y-105115714D02*
X137839523Y-105115714D01*
X137601428Y-104782380D02*
X137601428Y-105639523D01*
X137649047Y-105734761D01*
X137744285Y-105782380D01*
X137839523Y-105782380D01*
X138553809Y-105734761D02*
X138458571Y-105782380D01*
X138268095Y-105782380D01*
X138172857Y-105734761D01*
X138125238Y-105639523D01*
X138125238Y-105258571D01*
X138172857Y-105163333D01*
X138268095Y-105115714D01*
X138458571Y-105115714D01*
X138553809Y-105163333D01*
X138601428Y-105258571D01*
X138601428Y-105353809D01*
X138125238Y-105449047D01*
X139030000Y-105782380D02*
X139030000Y-105115714D01*
X139030000Y-105306190D02*
X139077619Y-105210952D01*
X139125238Y-105163333D01*
X139220476Y-105115714D01*
X139315714Y-105115714D01*
X139553809Y-105115714D02*
X139791904Y-105782380D01*
X140030000Y-105115714D02*
X139791904Y-105782380D01*
X139696666Y-106020476D01*
X139649047Y-106068095D01*
X139553809Y-106115714D01*
%TO.C,J1*%
X72386666Y-143112380D02*
X72386666Y-143826666D01*
X72339047Y-143969523D01*
X72243809Y-144064761D01*
X72100952Y-144112380D01*
X72005714Y-144112380D01*
X73386666Y-144112380D02*
X72815238Y-144112380D01*
X73100952Y-144112380D02*
X73100952Y-143112380D01*
X73005714Y-143255238D01*
X72910476Y-143350476D01*
X72815238Y-143398095D01*
X70980952Y-126612380D02*
X70980952Y-125612380D01*
X71361904Y-125612380D01*
X71457142Y-125660000D01*
X71504761Y-125707619D01*
X71552380Y-125802857D01*
X71552380Y-125945714D01*
X71504761Y-126040952D01*
X71457142Y-126088571D01*
X71361904Y-126136190D01*
X70980952Y-126136190D01*
X72552380Y-126517142D02*
X72504761Y-126564761D01*
X72361904Y-126612380D01*
X72266666Y-126612380D01*
X72123809Y-126564761D01*
X72028571Y-126469523D01*
X71980952Y-126374285D01*
X71933333Y-126183809D01*
X71933333Y-126040952D01*
X71980952Y-125850476D01*
X72028571Y-125755238D01*
X72123809Y-125660000D01*
X72266666Y-125612380D01*
X72361904Y-125612380D01*
X72504761Y-125660000D01*
X72552380Y-125707619D01*
X73314285Y-126088571D02*
X73457142Y-126136190D01*
X73504761Y-126183809D01*
X73552380Y-126279047D01*
X73552380Y-126421904D01*
X73504761Y-126517142D01*
X73457142Y-126564761D01*
X73361904Y-126612380D01*
X72980952Y-126612380D01*
X72980952Y-125612380D01*
X73314285Y-125612380D01*
X73409523Y-125660000D01*
X73457142Y-125707619D01*
X73504761Y-125802857D01*
X73504761Y-125898095D01*
X73457142Y-125993333D01*
X73409523Y-126040952D01*
X73314285Y-126088571D01*
X72980952Y-126088571D01*
X73742857Y-126707619D02*
X74504761Y-126707619D01*
X75266666Y-126612380D02*
X74695238Y-126612380D01*
X74980952Y-126612380D02*
X74980952Y-125612380D01*
X74885714Y-125755238D01*
X74790476Y-125850476D01*
X74695238Y-125898095D01*
%TO.C,F2*%
X143148571Y-129803333D02*
X143148571Y-130136666D01*
X143672380Y-130136666D02*
X142672380Y-130136666D01*
X142672380Y-129660476D01*
X142767619Y-129327142D02*
X142720000Y-129279523D01*
X142672380Y-129184285D01*
X142672380Y-128946190D01*
X142720000Y-128850952D01*
X142767619Y-128803333D01*
X142862857Y-128755714D01*
X142958095Y-128755714D01*
X143100952Y-128803333D01*
X143672380Y-129374761D01*
X143672380Y-128755714D01*
%TO.C,F1*%
X93080677Y-105017311D02*
X92747344Y-105017311D01*
X92747344Y-105541120D02*
X92747344Y-104541120D01*
X93223534Y-104541120D01*
X94128296Y-105541120D02*
X93556868Y-105541120D01*
X93842582Y-105541120D02*
X93842582Y-104541120D01*
X93747344Y-104683978D01*
X93652106Y-104779216D01*
X93556868Y-104826835D01*
%TO.C,D5*%
X131982380Y-147618095D02*
X130982380Y-147618095D01*
X130982380Y-147380000D01*
X131030000Y-147237142D01*
X131125238Y-147141904D01*
X131220476Y-147094285D01*
X131410952Y-147046666D01*
X131553809Y-147046666D01*
X131744285Y-147094285D01*
X131839523Y-147141904D01*
X131934761Y-147237142D01*
X131982380Y-147380000D01*
X131982380Y-147618095D01*
X130982380Y-146141904D02*
X130982380Y-146618095D01*
X131458571Y-146665714D01*
X131410952Y-146618095D01*
X131363333Y-146522857D01*
X131363333Y-146284761D01*
X131410952Y-146189523D01*
X131458571Y-146141904D01*
X131553809Y-146094285D01*
X131791904Y-146094285D01*
X131887142Y-146141904D01*
X131934761Y-146189523D01*
X131982380Y-146284761D01*
X131982380Y-146522857D01*
X131934761Y-146618095D01*
X131887142Y-146665714D01*
X127452380Y-152491904D02*
X126452380Y-152491904D01*
X127452380Y-151920476D02*
X126880952Y-152349047D01*
X126452380Y-151920476D02*
X127023809Y-152491904D01*
%TO.C,D4*%
X152082380Y-137588095D02*
X151082380Y-137588095D01*
X151082380Y-137350000D01*
X151130000Y-137207142D01*
X151225238Y-137111904D01*
X151320476Y-137064285D01*
X151510952Y-137016666D01*
X151653809Y-137016666D01*
X151844285Y-137064285D01*
X151939523Y-137111904D01*
X152034761Y-137207142D01*
X152082380Y-137350000D01*
X152082380Y-137588095D01*
X151415714Y-136159523D02*
X152082380Y-136159523D01*
X151034761Y-136397619D02*
X151749047Y-136635714D01*
X151749047Y-136016666D01*
%TO.C,D3*%
X93471904Y-122582380D02*
X93471904Y-121582380D01*
X93710000Y-121582380D01*
X93852857Y-121630000D01*
X93948095Y-121725238D01*
X93995714Y-121820476D01*
X94043333Y-122010952D01*
X94043333Y-122153809D01*
X93995714Y-122344285D01*
X93948095Y-122439523D01*
X93852857Y-122534761D01*
X93710000Y-122582380D01*
X93471904Y-122582380D01*
X94376666Y-121582380D02*
X94995714Y-121582380D01*
X94662380Y-121963333D01*
X94805238Y-121963333D01*
X94900476Y-122010952D01*
X94948095Y-122058571D01*
X94995714Y-122153809D01*
X94995714Y-122391904D01*
X94948095Y-122487142D01*
X94900476Y-122534761D01*
X94805238Y-122582380D01*
X94519523Y-122582380D01*
X94424285Y-122534761D01*
X94376666Y-122487142D01*
X97928095Y-126342380D02*
X97928095Y-125342380D01*
X98499523Y-126342380D02*
X98070952Y-125770952D01*
X98499523Y-125342380D02*
X97928095Y-125913809D01*
%TO.C,D2*%
X88221904Y-116992380D02*
X88221904Y-115992380D01*
X88460000Y-115992380D01*
X88602857Y-116040000D01*
X88698095Y-116135238D01*
X88745714Y-116230476D01*
X88793333Y-116420952D01*
X88793333Y-116563809D01*
X88745714Y-116754285D01*
X88698095Y-116849523D01*
X88602857Y-116944761D01*
X88460000Y-116992380D01*
X88221904Y-116992380D01*
X89174285Y-116087619D02*
X89221904Y-116040000D01*
X89317142Y-115992380D01*
X89555238Y-115992380D01*
X89650476Y-116040000D01*
X89698095Y-116087619D01*
X89745714Y-116182857D01*
X89745714Y-116278095D01*
X89698095Y-116420952D01*
X89126666Y-116992380D01*
X89745714Y-116992380D01*
X83618095Y-117362380D02*
X83618095Y-116362380D01*
X84189523Y-117362380D02*
X83760952Y-116790952D01*
X84189523Y-116362380D02*
X83618095Y-116933809D01*
%TO.C,D1*%
X81131904Y-128692380D02*
X81131904Y-127692380D01*
X81370000Y-127692380D01*
X81512857Y-127740000D01*
X81608095Y-127835238D01*
X81655714Y-127930476D01*
X81703333Y-128120952D01*
X81703333Y-128263809D01*
X81655714Y-128454285D01*
X81608095Y-128549523D01*
X81512857Y-128644761D01*
X81370000Y-128692380D01*
X81131904Y-128692380D01*
X82655714Y-128692380D02*
X82084285Y-128692380D01*
X82370000Y-128692380D02*
X82370000Y-127692380D01*
X82274761Y-127835238D01*
X82179523Y-127930476D01*
X82084285Y-127978095D01*
%TO.C,C1*%
X127202142Y-131226666D02*
X127249761Y-131274285D01*
X127297380Y-131417142D01*
X127297380Y-131512380D01*
X127249761Y-131655238D01*
X127154523Y-131750476D01*
X127059285Y-131798095D01*
X126868809Y-131845714D01*
X126725952Y-131845714D01*
X126535476Y-131798095D01*
X126440238Y-131750476D01*
X126345000Y-131655238D01*
X126297380Y-131512380D01*
X126297380Y-131417142D01*
X126345000Y-131274285D01*
X126392619Y-131226666D01*
X127297380Y-130274285D02*
X127297380Y-130845714D01*
X127297380Y-130560000D02*
X126297380Y-130560000D01*
X126440238Y-130655238D01*
X126535476Y-130750476D01*
X126583095Y-130845714D01*
%TO.C,BT1*%
X80648571Y-117675714D02*
X80696190Y-117532857D01*
X80743809Y-117485238D01*
X80839047Y-117437619D01*
X80981904Y-117437619D01*
X81077142Y-117485238D01*
X81124761Y-117532857D01*
X81172380Y-117628095D01*
X81172380Y-118009047D01*
X80172380Y-118009047D01*
X80172380Y-117675714D01*
X80220000Y-117580476D01*
X80267619Y-117532857D01*
X80362857Y-117485238D01*
X80458095Y-117485238D01*
X80553333Y-117532857D01*
X80600952Y-117580476D01*
X80648571Y-117675714D01*
X80648571Y-118009047D01*
X80172380Y-117151904D02*
X80172380Y-116580476D01*
X81172380Y-116866190D02*
X80172380Y-116866190D01*
X81172380Y-115723333D02*
X81172380Y-116294761D01*
X81172380Y-116009047D02*
X80172380Y-116009047D01*
X80315238Y-116104285D01*
X80410476Y-116199523D01*
X80458095Y-116294761D01*
X70847142Y-119905714D02*
X70894761Y-119953333D01*
X70942380Y-120096190D01*
X70942380Y-120191428D01*
X70894761Y-120334285D01*
X70799523Y-120429523D01*
X70704285Y-120477142D01*
X70513809Y-120524761D01*
X70370952Y-120524761D01*
X70180476Y-120477142D01*
X70085238Y-120429523D01*
X69990000Y-120334285D01*
X69942380Y-120191428D01*
X69942380Y-120096190D01*
X69990000Y-119953333D01*
X70037619Y-119905714D01*
X70942380Y-119477142D02*
X69942380Y-119477142D01*
X70942380Y-119048571D02*
X70418571Y-119048571D01*
X70323333Y-119096190D01*
X70275714Y-119191428D01*
X70275714Y-119334285D01*
X70323333Y-119429523D01*
X70370952Y-119477142D01*
X70942380Y-118143809D02*
X70418571Y-118143809D01*
X70323333Y-118191428D01*
X70275714Y-118286666D01*
X70275714Y-118477142D01*
X70323333Y-118572380D01*
X70894761Y-118143809D02*
X70942380Y-118239047D01*
X70942380Y-118477142D01*
X70894761Y-118572380D01*
X70799523Y-118620000D01*
X70704285Y-118620000D01*
X70609047Y-118572380D01*
X70561428Y-118477142D01*
X70561428Y-118239047D01*
X70513809Y-118143809D01*
X70942380Y-117667619D02*
X70275714Y-117667619D01*
X70466190Y-117667619D02*
X70370952Y-117620000D01*
X70323333Y-117572380D01*
X70275714Y-117477142D01*
X70275714Y-117381904D01*
X70275714Y-116620000D02*
X71085238Y-116620000D01*
X71180476Y-116667619D01*
X71228095Y-116715238D01*
X71275714Y-116810476D01*
X71275714Y-116953333D01*
X71228095Y-117048571D01*
X70894761Y-116620000D02*
X70942380Y-116715238D01*
X70942380Y-116905714D01*
X70894761Y-117000952D01*
X70847142Y-117048571D01*
X70751904Y-117096190D01*
X70466190Y-117096190D01*
X70370952Y-117048571D01*
X70323333Y-117000952D01*
X70275714Y-116905714D01*
X70275714Y-116715238D01*
X70323333Y-116620000D01*
X70894761Y-115762857D02*
X70942380Y-115858095D01*
X70942380Y-116048571D01*
X70894761Y-116143809D01*
X70799523Y-116191428D01*
X70418571Y-116191428D01*
X70323333Y-116143809D01*
X70275714Y-116048571D01*
X70275714Y-115858095D01*
X70323333Y-115762857D01*
X70418571Y-115715238D01*
X70513809Y-115715238D01*
X70609047Y-116191428D01*
%TD*%
M02*
