G04 #@! TF.GenerationSoftware,KiCad,Pcbnew,(5.1.9)-1*
G04 #@! TF.CreationDate,2021-05-24T15:14:23+02:00*
G04 #@! TF.ProjectId,charge_pcb,63686172-6765-45f7-9063-622e6b696361,rev?*
G04 #@! TF.SameCoordinates,Original*
G04 #@! TF.FileFunction,Legend,Top*
G04 #@! TF.FilePolarity,Positive*
%FSLAX46Y46*%
G04 Gerber Fmt 4.6, Leading zero omitted, Abs format (unit mm)*
G04 Created by KiCad (PCBNEW (5.1.9)-1) date 2021-05-24 15:14:23*
%MOMM*%
%LPD*%
G01*
G04 APERTURE LIST*
%ADD10C,0.300000*%
%ADD11C,0.200000*%
%ADD12C,0.120000*%
%ADD13C,0.150000*%
%ADD14C,0.100000*%
%ADD15C,5.600000*%
%ADD16C,3.600000*%
%ADD17O,1.600000X1.600000*%
%ADD18C,1.600000*%
%ADD19C,3.000000*%
%ADD20R,3.000000X3.000000*%
%ADD21O,2.000000X1.905000*%
%ADD22R,2.000000X1.905000*%
%ADD23O,1.905000X2.000000*%
%ADD24R,1.905000X2.000000*%
%ADD25O,2.200000X2.200000*%
%ADD26R,2.200000X2.200000*%
%ADD27O,1.700000X2.000000*%
%ADD28O,1.950000X1.700000*%
%ADD29C,1.800000*%
%ADD30R,1.800000X1.800000*%
%ADD31C,1.524000*%
%ADD32C,2.000000*%
%ADD33R,1.500000X1.500000*%
%ADD34C,1.500000*%
%ADD35C,3.200000*%
%ADD36O,4.000500X2.499360*%
%ADD37O,2.000000X2.000000*%
%ADD38R,2.000000X2.000000*%
%ADD39R,1.600000X1.600000*%
%ADD40C,1.501140*%
%ADD41C,2.540000*%
%ADD42R,2.540000X2.540000*%
G04 APERTURE END LIST*
D10*
X123888571Y-144887142D02*
X125031428Y-144887142D01*
X124460000Y-145458571D02*
X124460000Y-144315714D01*
D11*
X113852380Y-123126190D02*
X113852380Y-122507142D01*
X114233333Y-122840476D01*
X114233333Y-122697619D01*
X114280952Y-122602380D01*
X114328571Y-122554761D01*
X114423809Y-122507142D01*
X114661904Y-122507142D01*
X114757142Y-122554761D01*
X114804761Y-122602380D01*
X114852380Y-122697619D01*
X114852380Y-122983333D01*
X114804761Y-123078571D01*
X114757142Y-123126190D01*
X114757142Y-122078571D02*
X114804761Y-122030952D01*
X114852380Y-122078571D01*
X114804761Y-122126190D01*
X114757142Y-122078571D01*
X114852380Y-122078571D01*
X113852380Y-121697619D02*
X113852380Y-121078571D01*
X114233333Y-121411904D01*
X114233333Y-121269047D01*
X114280952Y-121173809D01*
X114328571Y-121126190D01*
X114423809Y-121078571D01*
X114661904Y-121078571D01*
X114757142Y-121126190D01*
X114804761Y-121173809D01*
X114852380Y-121269047D01*
X114852380Y-121554761D01*
X114804761Y-121650000D01*
X114757142Y-121697619D01*
X113852380Y-120792857D02*
X114852380Y-120459523D01*
X113852380Y-120126190D01*
D10*
X135318571Y-144887142D02*
X136461428Y-144887142D01*
X135890000Y-145458571D02*
X135890000Y-144315714D01*
X146748571Y-144887142D02*
X147891428Y-144887142D01*
X147320000Y-145458571D02*
X147320000Y-144315714D01*
X69278571Y-114407142D02*
X70421428Y-114407142D01*
X69850000Y-114978571D02*
X69850000Y-113835714D01*
X78875714Y-146718571D02*
X78875714Y-145218571D01*
X79447142Y-145218571D01*
X79590000Y-145290000D01*
X79661428Y-145361428D01*
X79732857Y-145504285D01*
X79732857Y-145718571D01*
X79661428Y-145861428D01*
X79590000Y-145932857D01*
X79447142Y-146004285D01*
X78875714Y-146004285D01*
X80590000Y-146718571D02*
X80447142Y-146647142D01*
X80375714Y-146575714D01*
X80304285Y-146432857D01*
X80304285Y-146004285D01*
X80375714Y-145861428D01*
X80447142Y-145790000D01*
X80590000Y-145718571D01*
X80804285Y-145718571D01*
X80947142Y-145790000D01*
X81018571Y-145861428D01*
X81090000Y-146004285D01*
X81090000Y-146432857D01*
X81018571Y-146575714D01*
X80947142Y-146647142D01*
X80804285Y-146718571D01*
X80590000Y-146718571D01*
X81590000Y-145718571D02*
X81875714Y-146718571D01*
X82161428Y-146004285D01*
X82447142Y-146718571D01*
X82732857Y-145718571D01*
X83875714Y-146647142D02*
X83732857Y-146718571D01*
X83447142Y-146718571D01*
X83304285Y-146647142D01*
X83232857Y-146504285D01*
X83232857Y-145932857D01*
X83304285Y-145790000D01*
X83447142Y-145718571D01*
X83732857Y-145718571D01*
X83875714Y-145790000D01*
X83947142Y-145932857D01*
X83947142Y-146075714D01*
X83232857Y-146218571D01*
X84590000Y-146718571D02*
X84590000Y-145718571D01*
X84590000Y-146004285D02*
X84661428Y-145861428D01*
X84732857Y-145790000D01*
X84875714Y-145718571D01*
X85018571Y-145718571D01*
X86018571Y-145932857D02*
X86232857Y-146004285D01*
X86304285Y-146075714D01*
X86375714Y-146218571D01*
X86375714Y-146432857D01*
X86304285Y-146575714D01*
X86232857Y-146647142D01*
X86090000Y-146718571D01*
X85518571Y-146718571D01*
X85518571Y-145218571D01*
X86018571Y-145218571D01*
X86161428Y-145290000D01*
X86232857Y-145361428D01*
X86304285Y-145504285D01*
X86304285Y-145647142D01*
X86232857Y-145790000D01*
X86161428Y-145861428D01*
X86018571Y-145932857D01*
X85518571Y-145932857D01*
X87232857Y-146718571D02*
X87090000Y-146647142D01*
X87018571Y-146575714D01*
X86947142Y-146432857D01*
X86947142Y-146004285D01*
X87018571Y-145861428D01*
X87090000Y-145790000D01*
X87232857Y-145718571D01*
X87447142Y-145718571D01*
X87590000Y-145790000D01*
X87661428Y-145861428D01*
X87732857Y-146004285D01*
X87732857Y-146432857D01*
X87661428Y-146575714D01*
X87590000Y-146647142D01*
X87447142Y-146718571D01*
X87232857Y-146718571D01*
X89018571Y-146718571D02*
X89018571Y-145932857D01*
X88947142Y-145790000D01*
X88804285Y-145718571D01*
X88518571Y-145718571D01*
X88375714Y-145790000D01*
X89018571Y-146647142D02*
X88875714Y-146718571D01*
X88518571Y-146718571D01*
X88375714Y-146647142D01*
X88304285Y-146504285D01*
X88304285Y-146361428D01*
X88375714Y-146218571D01*
X88518571Y-146147142D01*
X88875714Y-146147142D01*
X89018571Y-146075714D01*
X89732857Y-146718571D02*
X89732857Y-145718571D01*
X89732857Y-146004285D02*
X89804285Y-145861428D01*
X89875714Y-145790000D01*
X90018571Y-145718571D01*
X90161428Y-145718571D01*
X91304285Y-146718571D02*
X91304285Y-145218571D01*
X91304285Y-146647142D02*
X91161428Y-146718571D01*
X90875714Y-146718571D01*
X90732857Y-146647142D01*
X90661428Y-146575714D01*
X90590000Y-146432857D01*
X90590000Y-146004285D01*
X90661428Y-145861428D01*
X90732857Y-145790000D01*
X90875714Y-145718571D01*
X91161428Y-145718571D01*
X91304285Y-145790000D01*
X79161428Y-149268571D02*
X79161428Y-147768571D01*
X79161428Y-148340000D02*
X79304285Y-148268571D01*
X79590000Y-148268571D01*
X79732857Y-148340000D01*
X79804285Y-148411428D01*
X79875714Y-148554285D01*
X79875714Y-148982857D01*
X79804285Y-149125714D01*
X79732857Y-149197142D01*
X79590000Y-149268571D01*
X79304285Y-149268571D01*
X79161428Y-149197142D01*
X80375714Y-148268571D02*
X80732857Y-149268571D01*
X81090000Y-148268571D02*
X80732857Y-149268571D01*
X80590000Y-149625714D01*
X80518571Y-149697142D01*
X80375714Y-149768571D01*
X82732857Y-149197142D02*
X82947142Y-149268571D01*
X83304285Y-149268571D01*
X83447142Y-149197142D01*
X83518571Y-149125714D01*
X83590000Y-148982857D01*
X83590000Y-148840000D01*
X83518571Y-148697142D01*
X83447142Y-148625714D01*
X83304285Y-148554285D01*
X83018571Y-148482857D01*
X82875714Y-148411428D01*
X82804285Y-148340000D01*
X82732857Y-148197142D01*
X82732857Y-148054285D01*
X82804285Y-147911428D01*
X82875714Y-147840000D01*
X83018571Y-147768571D01*
X83375714Y-147768571D01*
X83590000Y-147840000D01*
X84232857Y-149125714D02*
X84304285Y-149197142D01*
X84232857Y-149268571D01*
X84161428Y-149197142D01*
X84232857Y-149125714D01*
X84232857Y-149268571D01*
X84947142Y-149268571D02*
X84947142Y-147768571D01*
X85304285Y-147768571D01*
X85518571Y-147840000D01*
X85661428Y-147982857D01*
X85732857Y-148125714D01*
X85804285Y-148411428D01*
X85804285Y-148625714D01*
X85732857Y-148911428D01*
X85661428Y-149054285D01*
X85518571Y-149197142D01*
X85304285Y-149268571D01*
X84947142Y-149268571D01*
X87518571Y-147697142D02*
X86232857Y-149625714D01*
X88518571Y-148482857D02*
X88732857Y-148554285D01*
X88804285Y-148625714D01*
X88875714Y-148768571D01*
X88875714Y-148982857D01*
X88804285Y-149125714D01*
X88732857Y-149197142D01*
X88590000Y-149268571D01*
X88018571Y-149268571D01*
X88018571Y-147768571D01*
X88518571Y-147768571D01*
X88661428Y-147840000D01*
X88732857Y-147911428D01*
X88804285Y-148054285D01*
X88804285Y-148197142D01*
X88732857Y-148340000D01*
X88661428Y-148411428D01*
X88518571Y-148482857D01*
X88018571Y-148482857D01*
X89518571Y-149125714D02*
X89590000Y-149197142D01*
X89518571Y-149268571D01*
X89447142Y-149197142D01*
X89518571Y-149125714D01*
X89518571Y-149268571D01*
X90732857Y-148482857D02*
X90947142Y-148554285D01*
X91018571Y-148625714D01*
X91090000Y-148768571D01*
X91090000Y-148982857D01*
X91018571Y-149125714D01*
X90947142Y-149197142D01*
X90804285Y-149268571D01*
X90232857Y-149268571D01*
X90232857Y-147768571D01*
X90732857Y-147768571D01*
X90875714Y-147840000D01*
X90947142Y-147911428D01*
X91018571Y-148054285D01*
X91018571Y-148197142D01*
X90947142Y-148340000D01*
X90875714Y-148411428D01*
X90732857Y-148482857D01*
X90232857Y-148482857D01*
X82090000Y-150318571D02*
X82590000Y-151818571D01*
X83090000Y-150318571D01*
X84375714Y-151818571D02*
X83518571Y-151818571D01*
X83947142Y-151818571D02*
X83947142Y-150318571D01*
X83804285Y-150532857D01*
X83661428Y-150675714D01*
X83518571Y-150747142D01*
X85018571Y-151675714D02*
X85090000Y-151747142D01*
X85018571Y-151818571D01*
X84947142Y-151747142D01*
X85018571Y-151675714D01*
X85018571Y-151818571D01*
X86018571Y-150318571D02*
X86161428Y-150318571D01*
X86304285Y-150390000D01*
X86375714Y-150461428D01*
X86447142Y-150604285D01*
X86518571Y-150890000D01*
X86518571Y-151247142D01*
X86447142Y-151532857D01*
X86375714Y-151675714D01*
X86304285Y-151747142D01*
X86161428Y-151818571D01*
X86018571Y-151818571D01*
X85875714Y-151747142D01*
X85804285Y-151675714D01*
X85732857Y-151532857D01*
X85661428Y-151247142D01*
X85661428Y-150890000D01*
X85732857Y-150604285D01*
X85804285Y-150461428D01*
X85875714Y-150390000D01*
X86018571Y-150318571D01*
X87947142Y-151818571D02*
X87090000Y-151818571D01*
X87518571Y-151818571D02*
X87518571Y-150318571D01*
X87375714Y-150532857D01*
X87232857Y-150675714D01*
X87090000Y-150747142D01*
D12*
X92480000Y-128810000D02*
X92810000Y-128810000D01*
X92810000Y-128810000D02*
X92810000Y-135350000D01*
X92810000Y-135350000D02*
X92480000Y-135350000D01*
X90400000Y-128810000D02*
X90070000Y-128810000D01*
X90070000Y-128810000D02*
X90070000Y-135350000D01*
X90070000Y-135350000D02*
X90400000Y-135350000D01*
X143510000Y-106680000D02*
X153670000Y-106680000D01*
X143510000Y-105410000D02*
X143510000Y-113030000D01*
X143510000Y-113030000D02*
X153670000Y-113030000D01*
X153670000Y-113030000D02*
X153670000Y-105410000D01*
X153670000Y-105410000D02*
X143510000Y-105410000D01*
X132080000Y-106680000D02*
X142240000Y-106680000D01*
X132080000Y-105410000D02*
X132080000Y-113030000D01*
X132080000Y-113030000D02*
X142240000Y-113030000D01*
X142240000Y-113030000D02*
X142240000Y-105410000D01*
X142240000Y-105410000D02*
X132080000Y-105410000D01*
X157480000Y-125730000D02*
X157480000Y-115570000D01*
X156210000Y-125730000D02*
X163830000Y-125730000D01*
X163830000Y-125730000D02*
X163830000Y-115570000D01*
X163830000Y-115570000D02*
X156210000Y-115570000D01*
X156210000Y-115570000D02*
X156210000Y-125730000D01*
X157480000Y-138430000D02*
X157480000Y-128270000D01*
X156210000Y-138430000D02*
X163830000Y-138430000D01*
X163830000Y-138430000D02*
X163830000Y-128270000D01*
X163830000Y-128270000D02*
X156210000Y-128270000D01*
X156210000Y-128270000D02*
X156210000Y-138430000D01*
X133350000Y-152400000D02*
X123190000Y-152400000D01*
X133350000Y-153670000D02*
X133350000Y-146050000D01*
X133350000Y-146050000D02*
X123190000Y-146050000D01*
X123190000Y-146050000D02*
X123190000Y-153670000D01*
X123190000Y-153670000D02*
X133350000Y-153670000D01*
X144780000Y-152400000D02*
X134620000Y-152400000D01*
X144780000Y-153670000D02*
X144780000Y-146050000D01*
X144780000Y-146050000D02*
X134620000Y-146050000D01*
X134620000Y-146050000D02*
X134620000Y-153670000D01*
X134620000Y-153670000D02*
X144780000Y-153670000D01*
X156210000Y-152400000D02*
X146050000Y-152400000D01*
X156210000Y-153670000D02*
X156210000Y-146050000D01*
X156210000Y-146050000D02*
X146050000Y-146050000D01*
X146050000Y-146050000D02*
X146050000Y-153670000D01*
X146050000Y-153670000D02*
X156210000Y-153670000D01*
X94520000Y-137200000D02*
X94520000Y-126960000D01*
X99161000Y-137200000D02*
X99161000Y-126960000D01*
X94520000Y-137200000D02*
X99161000Y-137200000D01*
X94520000Y-126960000D02*
X99161000Y-126960000D01*
X96030000Y-137200000D02*
X96030000Y-126960000D01*
X94520000Y-133930000D02*
X96030000Y-133930000D01*
X94520000Y-130229000D02*
X96030000Y-130229000D01*
X139011000Y-118650000D02*
X139011000Y-120160000D01*
X135310000Y-118650000D02*
X135310000Y-120160000D01*
X132040000Y-120160000D02*
X142280000Y-120160000D01*
X142280000Y-118650000D02*
X142280000Y-123291000D01*
X132040000Y-118650000D02*
X132040000Y-123291000D01*
X132040000Y-123291000D02*
X142280000Y-123291000D01*
X132040000Y-118650000D02*
X142280000Y-118650000D01*
X133950000Y-128070000D02*
X133950000Y-131010000D01*
X134190000Y-128070000D02*
X134190000Y-131010000D01*
X134070000Y-128070000D02*
X134070000Y-131010000D01*
X139630000Y-129540000D02*
X138610000Y-129540000D01*
X132150000Y-129540000D02*
X133170000Y-129540000D01*
X138610000Y-128070000D02*
X133170000Y-128070000D01*
X138610000Y-131010000D02*
X138610000Y-128070000D01*
X133170000Y-131010000D02*
X138610000Y-131010000D01*
X133170000Y-128070000D02*
X133170000Y-131010000D01*
X95150000Y-151860000D02*
X95480000Y-151860000D01*
X95150000Y-145320000D02*
X95150000Y-151860000D01*
X95480000Y-145320000D02*
X95150000Y-145320000D01*
X97890000Y-151860000D02*
X97560000Y-151860000D01*
X97890000Y-145320000D02*
X97890000Y-151860000D01*
X97560000Y-145320000D02*
X97890000Y-145320000D01*
X111450000Y-147110000D02*
X111450000Y-148360000D01*
X112700000Y-147110000D02*
X111450000Y-147110000D01*
X118600000Y-152610000D02*
X115550000Y-152610000D01*
X118600000Y-149660000D02*
X118600000Y-152610000D01*
X119350000Y-149660000D02*
X118600000Y-149660000D01*
X112500000Y-152610000D02*
X115550000Y-152610000D01*
X112500000Y-149660000D02*
X112500000Y-152610000D01*
X111750000Y-149660000D02*
X112500000Y-149660000D01*
X119350000Y-147410000D02*
X117550000Y-147410000D01*
X119350000Y-148160000D02*
X119350000Y-147410000D01*
X117550000Y-148160000D02*
X119350000Y-148160000D01*
X117550000Y-147410000D02*
X117550000Y-148160000D01*
X113550000Y-147410000D02*
X111750000Y-147410000D01*
X113550000Y-148160000D02*
X113550000Y-147410000D01*
X111750000Y-148160000D02*
X113550000Y-148160000D01*
X111750000Y-147410000D02*
X111750000Y-148160000D01*
X116050000Y-147410000D02*
X115050000Y-147410000D01*
X116050000Y-148160000D02*
X116050000Y-147410000D01*
X115050000Y-148160000D02*
X116050000Y-148160000D01*
X115050000Y-147410000D02*
X115050000Y-148160000D01*
X119360000Y-147400000D02*
X111740000Y-147400000D01*
X119360000Y-153370000D02*
X119360000Y-147400000D01*
X111740000Y-153370000D02*
X119360000Y-153370000D01*
X111740000Y-147400000D02*
X111740000Y-153370000D01*
X69640000Y-143820000D02*
X70890000Y-143820000D01*
X69640000Y-142570000D02*
X69640000Y-143820000D01*
X75140000Y-126670000D02*
X75140000Y-134720000D01*
X72190000Y-126670000D02*
X75140000Y-126670000D01*
X72190000Y-125920000D02*
X72190000Y-126670000D01*
X75140000Y-142770000D02*
X75140000Y-134720000D01*
X72190000Y-142770000D02*
X75140000Y-142770000D01*
X72190000Y-143520000D02*
X72190000Y-142770000D01*
X69940000Y-125920000D02*
X69940000Y-127720000D01*
X70690000Y-125920000D02*
X69940000Y-125920000D01*
X70690000Y-127720000D02*
X70690000Y-125920000D01*
X69940000Y-127720000D02*
X70690000Y-127720000D01*
X69940000Y-141720000D02*
X69940000Y-143520000D01*
X70690000Y-141720000D02*
X69940000Y-141720000D01*
X70690000Y-143520000D02*
X70690000Y-141720000D01*
X69940000Y-143520000D02*
X70690000Y-143520000D01*
X69940000Y-129220000D02*
X69940000Y-140220000D01*
X70690000Y-129220000D02*
X69940000Y-129220000D01*
X70690000Y-140220000D02*
X70690000Y-129220000D01*
X69940000Y-140220000D02*
X70690000Y-140220000D01*
X69930000Y-125910000D02*
X69930000Y-143530000D01*
X75900000Y-125910000D02*
X69930000Y-125910000D01*
X75900000Y-143530000D02*
X75900000Y-125910000D01*
X69930000Y-143530000D02*
X75900000Y-143530000D01*
X102630000Y-125130000D02*
X102630000Y-125310000D01*
X102630000Y-122790000D02*
X102630000Y-122970000D01*
X102510000Y-125130000D02*
X102510000Y-125310000D01*
X102510000Y-122790000D02*
X102510000Y-122970000D01*
X105810000Y-125145000D02*
X105810000Y-125310000D01*
X105810000Y-122790000D02*
X105810000Y-122955000D01*
X102390000Y-125130000D02*
X102390000Y-125310000D01*
X102390000Y-122790000D02*
X102390000Y-122970000D01*
X102390000Y-125310000D02*
X105810000Y-125310000D01*
X102390000Y-122790000D02*
X105810000Y-122790000D01*
X104680000Y-120380000D02*
X104680000Y-120050000D01*
X98140000Y-120380000D02*
X104680000Y-120380000D01*
X98140000Y-120050000D02*
X98140000Y-120380000D01*
X104680000Y-117640000D02*
X104680000Y-117970000D01*
X98140000Y-117640000D02*
X104680000Y-117640000D01*
X98140000Y-117970000D02*
X98140000Y-117640000D01*
D13*
X130900000Y-126870000D02*
X108040000Y-126870000D01*
X108040000Y-107820000D02*
X108040000Y-105280000D01*
X108040000Y-105280000D02*
X130900000Y-105280000D01*
X130900000Y-105280000D02*
X130900000Y-107820000D01*
X130900000Y-107820000D02*
X130900000Y-106550000D01*
X130900000Y-126870000D02*
X130900000Y-107820000D01*
X108040000Y-107820000D02*
X108040000Y-126870000D01*
D12*
X93250000Y-139930000D02*
X93250000Y-139600000D01*
X93250000Y-139600000D02*
X99790000Y-139600000D01*
X99790000Y-139600000D02*
X99790000Y-139930000D01*
X93250000Y-142010000D02*
X93250000Y-142340000D01*
X93250000Y-142340000D02*
X99790000Y-142340000D01*
X99790000Y-142340000D02*
X99790000Y-142010000D01*
X107410000Y-152140000D02*
X107410000Y-152470000D01*
X107410000Y-152470000D02*
X100870000Y-152470000D01*
X100870000Y-152470000D02*
X100870000Y-152140000D01*
X107410000Y-150060000D02*
X107410000Y-149730000D01*
X107410000Y-149730000D02*
X100870000Y-149730000D01*
X100870000Y-149730000D02*
X100870000Y-150060000D01*
X116110000Y-141200000D02*
X116110000Y-140870000D01*
X116110000Y-140870000D02*
X122650000Y-140870000D01*
X122650000Y-140870000D02*
X122650000Y-141200000D01*
X116110000Y-143280000D02*
X116110000Y-143610000D01*
X116110000Y-143610000D02*
X122650000Y-143610000D01*
X122650000Y-143610000D02*
X122650000Y-143280000D01*
X100870000Y-144750000D02*
X100870000Y-144420000D01*
X100870000Y-144420000D02*
X107410000Y-144420000D01*
X107410000Y-144420000D02*
X107410000Y-144750000D01*
X100870000Y-146830000D02*
X100870000Y-147160000D01*
X100870000Y-147160000D02*
X107410000Y-147160000D01*
X107410000Y-147160000D02*
X107410000Y-146830000D01*
X87090000Y-142010000D02*
X87090000Y-142340000D01*
X87090000Y-142340000D02*
X80550000Y-142340000D01*
X80550000Y-142340000D02*
X80550000Y-142010000D01*
X87090000Y-139930000D02*
X87090000Y-139600000D01*
X87090000Y-139600000D02*
X80550000Y-139600000D01*
X80550000Y-139600000D02*
X80550000Y-139930000D01*
X87090000Y-137040000D02*
X87090000Y-137370000D01*
X87090000Y-137370000D02*
X80550000Y-137370000D01*
X80550000Y-137370000D02*
X80550000Y-137040000D01*
X87090000Y-134960000D02*
X87090000Y-134630000D01*
X87090000Y-134630000D02*
X80550000Y-134630000D01*
X80550000Y-134630000D02*
X80550000Y-134960000D01*
X116110000Y-128500000D02*
X116110000Y-128170000D01*
X116110000Y-128170000D02*
X122650000Y-128170000D01*
X122650000Y-128170000D02*
X122650000Y-128500000D01*
X116110000Y-130580000D02*
X116110000Y-130910000D01*
X116110000Y-130910000D02*
X122650000Y-130910000D01*
X122650000Y-130910000D02*
X122650000Y-130580000D01*
X105180000Y-130080000D02*
X105510000Y-130080000D01*
X105510000Y-130080000D02*
X105510000Y-136620000D01*
X105510000Y-136620000D02*
X105180000Y-136620000D01*
X103100000Y-130080000D02*
X102770000Y-130080000D01*
X102770000Y-130080000D02*
X102770000Y-136620000D01*
X102770000Y-136620000D02*
X103100000Y-136620000D01*
D14*
X151000000Y-122250000D02*
X151150000Y-121950000D01*
X151000000Y-122250000D02*
X150700000Y-122250000D01*
X146600000Y-122250000D02*
X146300000Y-122250000D01*
X146300000Y-122250000D02*
X146150000Y-121950000D01*
D13*
X150600000Y-119100000D02*
G75*
G03*
X146750000Y-119050000I-1950000J-1900000D01*
G01*
D14*
X84960000Y-132410000D02*
X85110000Y-132110000D01*
X84960000Y-132410000D02*
X84660000Y-132410000D01*
X80560000Y-132410000D02*
X80260000Y-132410000D01*
X80260000Y-132410000D02*
X80110000Y-132110000D01*
D13*
X84560000Y-129260000D02*
G75*
G03*
X80710000Y-129210000I-1950000J-1900000D01*
G01*
X145699480Y-140929360D02*
X145699480Y-143431260D01*
X145699480Y-133428740D02*
X145699480Y-135930640D01*
X133700520Y-133428740D02*
X133700520Y-135930640D01*
X133700520Y-143431260D02*
X133700520Y-140929360D01*
X144200880Y-138430000D02*
X135199120Y-138430000D01*
X144200880Y-140929360D02*
X144200880Y-135930640D01*
X135199120Y-140929360D02*
X135199120Y-135930640D01*
X129700020Y-140329920D02*
X129700020Y-140929360D01*
X149699980Y-136530080D02*
X149699980Y-135930640D01*
X149699980Y-135930640D02*
X129700020Y-135930640D01*
X129700020Y-135930640D02*
X129700020Y-136530080D01*
X129700020Y-140929360D02*
X149699980Y-140929360D01*
X149699980Y-140929360D02*
X149699980Y-140329920D01*
X127701040Y-140329920D02*
X127701040Y-143431260D01*
X151698960Y-136530080D02*
X151698960Y-133428740D01*
X151698960Y-133428740D02*
X127701040Y-133428740D01*
X127701040Y-133428740D02*
X127701040Y-136530080D01*
X127701040Y-143431260D02*
X151698960Y-143431260D01*
X151698960Y-143431260D02*
X151698960Y-140329920D01*
X87620520Y-108450640D02*
X87620520Y-105948740D01*
X87620520Y-115951260D02*
X87620520Y-113449360D01*
X99619480Y-115951260D02*
X99619480Y-113449360D01*
X99619480Y-105948740D02*
X99619480Y-108450640D01*
X89119120Y-110950000D02*
X98120880Y-110950000D01*
X89119120Y-108450640D02*
X89119120Y-113449360D01*
X98120880Y-108450640D02*
X98120880Y-113449360D01*
X103619980Y-109050080D02*
X103619980Y-108450640D01*
X83620020Y-112849920D02*
X83620020Y-113449360D01*
X83620020Y-113449360D02*
X103619980Y-113449360D01*
X103619980Y-113449360D02*
X103619980Y-112849920D01*
X103619980Y-108450640D02*
X83620020Y-108450640D01*
X83620020Y-108450640D02*
X83620020Y-109050080D01*
X105618960Y-109050080D02*
X105618960Y-105948740D01*
X81621040Y-112849920D02*
X81621040Y-115951260D01*
X81621040Y-115951260D02*
X105618960Y-115951260D01*
X105618960Y-115951260D02*
X105618960Y-112849920D01*
X105618960Y-105948740D02*
X81621040Y-105948740D01*
X81621040Y-105948740D02*
X81621040Y-109050080D01*
D12*
X122100000Y-136090000D02*
X122100000Y-133150000D01*
X122100000Y-133150000D02*
X116660000Y-133150000D01*
X116660000Y-133150000D02*
X116660000Y-136090000D01*
X116660000Y-136090000D02*
X122100000Y-136090000D01*
X123120000Y-134620000D02*
X122100000Y-134620000D01*
X115640000Y-134620000D02*
X116660000Y-134620000D01*
X121200000Y-136090000D02*
X121200000Y-133150000D01*
X121080000Y-136090000D02*
X121080000Y-133150000D01*
X121320000Y-136090000D02*
X121320000Y-133150000D01*
X143470000Y-126270000D02*
X153710000Y-126270000D01*
X143470000Y-130911000D02*
X153710000Y-130911000D01*
X143470000Y-126270000D02*
X143470000Y-130911000D01*
X153710000Y-126270000D02*
X153710000Y-130911000D01*
X143470000Y-127780000D02*
X153710000Y-127780000D01*
X146740000Y-126270000D02*
X146740000Y-127780000D01*
X150441000Y-126270000D02*
X150441000Y-127780000D01*
X96500000Y-125210000D02*
X96500000Y-122970000D01*
X96500000Y-122970000D02*
X92260000Y-122970000D01*
X92260000Y-122970000D02*
X92260000Y-125210000D01*
X92260000Y-125210000D02*
X96500000Y-125210000D01*
X97150000Y-124090000D02*
X96500000Y-124090000D01*
X91610000Y-124090000D02*
X92260000Y-124090000D01*
X95780000Y-125210000D02*
X95780000Y-122970000D01*
X95660000Y-125210000D02*
X95660000Y-122970000D01*
X95900000Y-125210000D02*
X95900000Y-122970000D01*
X86240000Y-117540000D02*
X86240000Y-120480000D01*
X86240000Y-120480000D02*
X91680000Y-120480000D01*
X91680000Y-120480000D02*
X91680000Y-117540000D01*
X91680000Y-117540000D02*
X86240000Y-117540000D01*
X85220000Y-119010000D02*
X86240000Y-119010000D01*
X92700000Y-119010000D02*
X91680000Y-119010000D01*
X87140000Y-117540000D02*
X87140000Y-120480000D01*
X87260000Y-117540000D02*
X87260000Y-120480000D01*
X87020000Y-117540000D02*
X87020000Y-120480000D01*
X86990000Y-127240000D02*
X76750000Y-127240000D01*
X86990000Y-122599000D02*
X76750000Y-122599000D01*
X86990000Y-127240000D02*
X86990000Y-122599000D01*
X76750000Y-127240000D02*
X76750000Y-122599000D01*
X86990000Y-125730000D02*
X76750000Y-125730000D01*
X83720000Y-127240000D02*
X83720000Y-125730000D01*
X80019000Y-127240000D02*
X80019000Y-125730000D01*
D13*
X109489240Y-137500360D02*
X109489240Y-138501120D01*
X108988860Y-138000740D02*
X109989620Y-138000740D01*
X113639600Y-139700000D02*
G75*
G03*
X113639600Y-139700000I-3149600J0D01*
G01*
X73100000Y-121970000D02*
X73100000Y-111810000D01*
X71830000Y-121970000D02*
X79450000Y-121970000D01*
X79450000Y-121970000D02*
X79450000Y-111810000D01*
X79450000Y-111810000D02*
X71830000Y-111810000D01*
X71830000Y-111810000D02*
X71830000Y-121970000D01*
X89352380Y-132722857D02*
X88876190Y-133056190D01*
X89352380Y-133294285D02*
X88352380Y-133294285D01*
X88352380Y-132913333D01*
X88400000Y-132818095D01*
X88447619Y-132770476D01*
X88542857Y-132722857D01*
X88685714Y-132722857D01*
X88780952Y-132770476D01*
X88828571Y-132818095D01*
X88876190Y-132913333D01*
X88876190Y-133294285D01*
X89352380Y-131770476D02*
X89352380Y-132341904D01*
X89352380Y-132056190D02*
X88352380Y-132056190D01*
X88495238Y-132151428D01*
X88590476Y-132246666D01*
X88638095Y-132341904D01*
X89352380Y-130818095D02*
X89352380Y-131389523D01*
X89352380Y-131103809D02*
X88352380Y-131103809D01*
X88495238Y-131199047D01*
X88590476Y-131294285D01*
X88638095Y-131389523D01*
X145470952Y-113752380D02*
X145470952Y-114466666D01*
X145423333Y-114609523D01*
X145328095Y-114704761D01*
X145185238Y-114752380D01*
X145090000Y-114752380D01*
X145851904Y-113752380D02*
X146470952Y-113752380D01*
X146137619Y-114133333D01*
X146280476Y-114133333D01*
X146375714Y-114180952D01*
X146423333Y-114228571D01*
X146470952Y-114323809D01*
X146470952Y-114561904D01*
X146423333Y-114657142D01*
X146375714Y-114704761D01*
X146280476Y-114752380D01*
X145994761Y-114752380D01*
X145899523Y-114704761D01*
X145851904Y-114657142D01*
X147613809Y-114704761D02*
X147756666Y-114752380D01*
X147994761Y-114752380D01*
X148090000Y-114704761D01*
X148137619Y-114657142D01*
X148185238Y-114561904D01*
X148185238Y-114466666D01*
X148137619Y-114371428D01*
X148090000Y-114323809D01*
X147994761Y-114276190D01*
X147804285Y-114228571D01*
X147709047Y-114180952D01*
X147661428Y-114133333D01*
X147613809Y-114038095D01*
X147613809Y-113942857D01*
X147661428Y-113847619D01*
X147709047Y-113800000D01*
X147804285Y-113752380D01*
X148042380Y-113752380D01*
X148185238Y-113800000D01*
X148518571Y-114085714D02*
X148709047Y-114752380D01*
X148899523Y-114276190D01*
X149090000Y-114752380D01*
X149280476Y-114085714D01*
X149661428Y-114752380D02*
X149661428Y-114085714D01*
X149661428Y-113752380D02*
X149613809Y-113800000D01*
X149661428Y-113847619D01*
X149709047Y-113800000D01*
X149661428Y-113752380D01*
X149661428Y-113847619D01*
X149994761Y-114085714D02*
X150375714Y-114085714D01*
X150137619Y-113752380D02*
X150137619Y-114609523D01*
X150185238Y-114704761D01*
X150280476Y-114752380D01*
X150375714Y-114752380D01*
X151137619Y-114704761D02*
X151042380Y-114752380D01*
X150851904Y-114752380D01*
X150756666Y-114704761D01*
X150709047Y-114657142D01*
X150661428Y-114561904D01*
X150661428Y-114276190D01*
X150709047Y-114180952D01*
X150756666Y-114133333D01*
X150851904Y-114085714D01*
X151042380Y-114085714D01*
X151137619Y-114133333D01*
X151566190Y-114752380D02*
X151566190Y-113752380D01*
X151994761Y-114752380D02*
X151994761Y-114228571D01*
X151947142Y-114133333D01*
X151851904Y-114085714D01*
X151709047Y-114085714D01*
X151613809Y-114133333D01*
X151566190Y-114180952D01*
X134207619Y-113752380D02*
X134207619Y-114466666D01*
X134160000Y-114609523D01*
X134064761Y-114704761D01*
X133921904Y-114752380D01*
X133826666Y-114752380D01*
X134636190Y-113847619D02*
X134683809Y-113800000D01*
X134779047Y-113752380D01*
X135017142Y-113752380D01*
X135112380Y-113800000D01*
X135160000Y-113847619D01*
X135207619Y-113942857D01*
X135207619Y-114038095D01*
X135160000Y-114180952D01*
X134588571Y-114752380D01*
X135207619Y-114752380D01*
X136731428Y-114228571D02*
X136874285Y-114276190D01*
X136921904Y-114323809D01*
X136969523Y-114419047D01*
X136969523Y-114561904D01*
X136921904Y-114657142D01*
X136874285Y-114704761D01*
X136779047Y-114752380D01*
X136398095Y-114752380D01*
X136398095Y-113752380D01*
X136731428Y-113752380D01*
X136826666Y-113800000D01*
X136874285Y-113847619D01*
X136921904Y-113942857D01*
X136921904Y-114038095D01*
X136874285Y-114133333D01*
X136826666Y-114180952D01*
X136731428Y-114228571D01*
X136398095Y-114228571D01*
X137826666Y-114752380D02*
X137826666Y-114228571D01*
X137779047Y-114133333D01*
X137683809Y-114085714D01*
X137493333Y-114085714D01*
X137398095Y-114133333D01*
X137826666Y-114704761D02*
X137731428Y-114752380D01*
X137493333Y-114752380D01*
X137398095Y-114704761D01*
X137350476Y-114609523D01*
X137350476Y-114514285D01*
X137398095Y-114419047D01*
X137493333Y-114371428D01*
X137731428Y-114371428D01*
X137826666Y-114323809D01*
X138160000Y-114085714D02*
X138540952Y-114085714D01*
X138302857Y-113752380D02*
X138302857Y-114609523D01*
X138350476Y-114704761D01*
X138445714Y-114752380D01*
X138540952Y-114752380D01*
X139636190Y-114371428D02*
X140398095Y-114371428D01*
X140017142Y-114752380D02*
X140017142Y-113990476D01*
X154392380Y-124705714D02*
X155106666Y-124705714D01*
X155249523Y-124753333D01*
X155344761Y-124848571D01*
X155392380Y-124991428D01*
X155392380Y-125086666D01*
X154392380Y-123753333D02*
X154392380Y-124229523D01*
X154868571Y-124277142D01*
X154820952Y-124229523D01*
X154773333Y-124134285D01*
X154773333Y-123896190D01*
X154820952Y-123800952D01*
X154868571Y-123753333D01*
X154963809Y-123705714D01*
X155201904Y-123705714D01*
X155297142Y-123753333D01*
X155344761Y-123800952D01*
X155392380Y-123896190D01*
X155392380Y-124134285D01*
X155344761Y-124229523D01*
X155297142Y-124277142D01*
X155392380Y-122515238D02*
X154392380Y-122515238D01*
X155106666Y-122181904D01*
X154392380Y-121848571D01*
X155392380Y-121848571D01*
X155392380Y-121229523D02*
X155344761Y-121324761D01*
X155297142Y-121372380D01*
X155201904Y-121420000D01*
X154916190Y-121420000D01*
X154820952Y-121372380D01*
X154773333Y-121324761D01*
X154725714Y-121229523D01*
X154725714Y-121086666D01*
X154773333Y-120991428D01*
X154820952Y-120943809D01*
X154916190Y-120896190D01*
X155201904Y-120896190D01*
X155297142Y-120943809D01*
X155344761Y-120991428D01*
X155392380Y-121086666D01*
X155392380Y-121229523D01*
X154725714Y-120610476D02*
X154725714Y-120229523D01*
X154392380Y-120467619D02*
X155249523Y-120467619D01*
X155344761Y-120420000D01*
X155392380Y-120324761D01*
X155392380Y-120229523D01*
X155392380Y-119753333D02*
X155344761Y-119848571D01*
X155297142Y-119896190D01*
X155201904Y-119943809D01*
X154916190Y-119943809D01*
X154820952Y-119896190D01*
X154773333Y-119848571D01*
X154725714Y-119753333D01*
X154725714Y-119610476D01*
X154773333Y-119515238D01*
X154820952Y-119467619D01*
X154916190Y-119420000D01*
X155201904Y-119420000D01*
X155297142Y-119467619D01*
X155344761Y-119515238D01*
X155392380Y-119610476D01*
X155392380Y-119753333D01*
X155392380Y-118991428D02*
X154725714Y-118991428D01*
X154916190Y-118991428D02*
X154820952Y-118943809D01*
X154773333Y-118896190D01*
X154725714Y-118800952D01*
X154725714Y-118705714D01*
X154392380Y-135754761D02*
X155106666Y-135754761D01*
X155249523Y-135802380D01*
X155344761Y-135897619D01*
X155392380Y-136040476D01*
X155392380Y-136135714D01*
X154392380Y-134850000D02*
X154392380Y-135040476D01*
X154440000Y-135135714D01*
X154487619Y-135183333D01*
X154630476Y-135278571D01*
X154820952Y-135326190D01*
X155201904Y-135326190D01*
X155297142Y-135278571D01*
X155344761Y-135230952D01*
X155392380Y-135135714D01*
X155392380Y-134945238D01*
X155344761Y-134850000D01*
X155297142Y-134802380D01*
X155201904Y-134754761D01*
X154963809Y-134754761D01*
X154868571Y-134802380D01*
X154820952Y-134850000D01*
X154773333Y-134945238D01*
X154773333Y-135135714D01*
X154820952Y-135230952D01*
X154868571Y-135278571D01*
X154963809Y-135326190D01*
X155392380Y-133564285D02*
X154392380Y-133564285D01*
X155106666Y-133230952D01*
X154392380Y-132897619D01*
X155392380Y-132897619D01*
X155392380Y-132278571D02*
X155344761Y-132373809D01*
X155297142Y-132421428D01*
X155201904Y-132469047D01*
X154916190Y-132469047D01*
X154820952Y-132421428D01*
X154773333Y-132373809D01*
X154725714Y-132278571D01*
X154725714Y-132135714D01*
X154773333Y-132040476D01*
X154820952Y-131992857D01*
X154916190Y-131945238D01*
X155201904Y-131945238D01*
X155297142Y-131992857D01*
X155344761Y-132040476D01*
X155392380Y-132135714D01*
X155392380Y-132278571D01*
X154725714Y-131659523D02*
X154725714Y-131278571D01*
X154392380Y-131516666D02*
X155249523Y-131516666D01*
X155344761Y-131469047D01*
X155392380Y-131373809D01*
X155392380Y-131278571D01*
X155392380Y-130802380D02*
X155344761Y-130897619D01*
X155297142Y-130945238D01*
X155201904Y-130992857D01*
X154916190Y-130992857D01*
X154820952Y-130945238D01*
X154773333Y-130897619D01*
X154725714Y-130802380D01*
X154725714Y-130659523D01*
X154773333Y-130564285D01*
X154820952Y-130516666D01*
X154916190Y-130469047D01*
X155201904Y-130469047D01*
X155297142Y-130516666D01*
X155344761Y-130564285D01*
X155392380Y-130659523D01*
X155392380Y-130802380D01*
X155392380Y-130040476D02*
X154725714Y-130040476D01*
X154916190Y-130040476D02*
X154820952Y-129992857D01*
X154773333Y-129945238D01*
X154725714Y-129850000D01*
X154725714Y-129754761D01*
X126293809Y-144232380D02*
X126293809Y-144946666D01*
X126246190Y-145089523D01*
X126150952Y-145184761D01*
X126008095Y-145232380D01*
X125912857Y-145232380D01*
X126674761Y-144232380D02*
X127341428Y-144232380D01*
X126912857Y-145232380D01*
X128674761Y-144232380D02*
X128865238Y-144232380D01*
X128960476Y-144280000D01*
X129055714Y-144375238D01*
X129103333Y-144565714D01*
X129103333Y-144899047D01*
X129055714Y-145089523D01*
X128960476Y-145184761D01*
X128865238Y-145232380D01*
X128674761Y-145232380D01*
X128579523Y-145184761D01*
X128484285Y-145089523D01*
X128436666Y-144899047D01*
X128436666Y-144565714D01*
X128484285Y-144375238D01*
X128579523Y-144280000D01*
X128674761Y-144232380D01*
X129960476Y-144565714D02*
X129960476Y-145232380D01*
X129531904Y-144565714D02*
X129531904Y-145089523D01*
X129579523Y-145184761D01*
X129674761Y-145232380D01*
X129817619Y-145232380D01*
X129912857Y-145184761D01*
X129960476Y-145137142D01*
X130293809Y-144565714D02*
X130674761Y-144565714D01*
X130436666Y-144232380D02*
X130436666Y-145089523D01*
X130484285Y-145184761D01*
X130579523Y-145232380D01*
X130674761Y-145232380D01*
X137723809Y-144232380D02*
X137723809Y-144946666D01*
X137676190Y-145089523D01*
X137580952Y-145184761D01*
X137438095Y-145232380D01*
X137342857Y-145232380D01*
X138628571Y-144565714D02*
X138628571Y-145232380D01*
X138390476Y-144184761D02*
X138152380Y-144899047D01*
X138771428Y-144899047D01*
X140104761Y-144232380D02*
X140295238Y-144232380D01*
X140390476Y-144280000D01*
X140485714Y-144375238D01*
X140533333Y-144565714D01*
X140533333Y-144899047D01*
X140485714Y-145089523D01*
X140390476Y-145184761D01*
X140295238Y-145232380D01*
X140104761Y-145232380D01*
X140009523Y-145184761D01*
X139914285Y-145089523D01*
X139866666Y-144899047D01*
X139866666Y-144565714D01*
X139914285Y-144375238D01*
X140009523Y-144280000D01*
X140104761Y-144232380D01*
X141390476Y-144565714D02*
X141390476Y-145232380D01*
X140961904Y-144565714D02*
X140961904Y-145089523D01*
X141009523Y-145184761D01*
X141104761Y-145232380D01*
X141247619Y-145232380D01*
X141342857Y-145184761D01*
X141390476Y-145137142D01*
X141723809Y-144565714D02*
X142104761Y-144565714D01*
X141866666Y-144232380D02*
X141866666Y-145089523D01*
X141914285Y-145184761D01*
X142009523Y-145232380D01*
X142104761Y-145232380D01*
X149153809Y-144232380D02*
X149153809Y-144946666D01*
X149106190Y-145089523D01*
X149010952Y-145184761D01*
X148868095Y-145232380D01*
X148772857Y-145232380D01*
X149677619Y-145232380D02*
X149868095Y-145232380D01*
X149963333Y-145184761D01*
X150010952Y-145137142D01*
X150106190Y-144994285D01*
X150153809Y-144803809D01*
X150153809Y-144422857D01*
X150106190Y-144327619D01*
X150058571Y-144280000D01*
X149963333Y-144232380D01*
X149772857Y-144232380D01*
X149677619Y-144280000D01*
X149630000Y-144327619D01*
X149582380Y-144422857D01*
X149582380Y-144660952D01*
X149630000Y-144756190D01*
X149677619Y-144803809D01*
X149772857Y-144851428D01*
X149963333Y-144851428D01*
X150058571Y-144803809D01*
X150106190Y-144756190D01*
X150153809Y-144660952D01*
X151534761Y-144232380D02*
X151725238Y-144232380D01*
X151820476Y-144280000D01*
X151915714Y-144375238D01*
X151963333Y-144565714D01*
X151963333Y-144899047D01*
X151915714Y-145089523D01*
X151820476Y-145184761D01*
X151725238Y-145232380D01*
X151534761Y-145232380D01*
X151439523Y-145184761D01*
X151344285Y-145089523D01*
X151296666Y-144899047D01*
X151296666Y-144565714D01*
X151344285Y-144375238D01*
X151439523Y-144280000D01*
X151534761Y-144232380D01*
X152820476Y-144565714D02*
X152820476Y-145232380D01*
X152391904Y-144565714D02*
X152391904Y-145089523D01*
X152439523Y-145184761D01*
X152534761Y-145232380D01*
X152677619Y-145232380D01*
X152772857Y-145184761D01*
X152820476Y-145137142D01*
X153153809Y-144565714D02*
X153534761Y-144565714D01*
X153296666Y-144232380D02*
X153296666Y-145089523D01*
X153344285Y-145184761D01*
X153439523Y-145232380D01*
X153534761Y-145232380D01*
X94067619Y-132175238D02*
X94020000Y-132270476D01*
X93924761Y-132365714D01*
X93781904Y-132508571D01*
X93734285Y-132603809D01*
X93734285Y-132699047D01*
X93972380Y-132651428D02*
X93924761Y-132746666D01*
X93829523Y-132841904D01*
X93639047Y-132889523D01*
X93305714Y-132889523D01*
X93115238Y-132841904D01*
X93020000Y-132746666D01*
X92972380Y-132651428D01*
X92972380Y-132460952D01*
X93020000Y-132365714D01*
X93115238Y-132270476D01*
X93305714Y-132222857D01*
X93639047Y-132222857D01*
X93829523Y-132270476D01*
X93924761Y-132365714D01*
X93972380Y-132460952D01*
X93972380Y-132651428D01*
X93067619Y-131841904D02*
X93020000Y-131794285D01*
X92972380Y-131699047D01*
X92972380Y-131460952D01*
X93020000Y-131365714D01*
X93067619Y-131318095D01*
X93162857Y-131270476D01*
X93258095Y-131270476D01*
X93400952Y-131318095D01*
X93972380Y-131889523D01*
X93972380Y-131270476D01*
X137064761Y-118197619D02*
X136969523Y-118150000D01*
X136874285Y-118054761D01*
X136731428Y-117911904D01*
X136636190Y-117864285D01*
X136540952Y-117864285D01*
X136588571Y-118102380D02*
X136493333Y-118054761D01*
X136398095Y-117959523D01*
X136350476Y-117769047D01*
X136350476Y-117435714D01*
X136398095Y-117245238D01*
X136493333Y-117150000D01*
X136588571Y-117102380D01*
X136779047Y-117102380D01*
X136874285Y-117150000D01*
X136969523Y-117245238D01*
X137017142Y-117435714D01*
X137017142Y-117769047D01*
X136969523Y-117959523D01*
X136874285Y-118054761D01*
X136779047Y-118102380D01*
X136588571Y-118102380D01*
X137874285Y-117435714D02*
X137874285Y-118102380D01*
X137636190Y-117054761D02*
X137398095Y-117769047D01*
X138017142Y-117769047D01*
X135151904Y-127522380D02*
X135151904Y-126522380D01*
X135390000Y-126522380D01*
X135532857Y-126570000D01*
X135628095Y-126665238D01*
X135675714Y-126760476D01*
X135723333Y-126950952D01*
X135723333Y-127093809D01*
X135675714Y-127284285D01*
X135628095Y-127379523D01*
X135532857Y-127474761D01*
X135390000Y-127522380D01*
X135151904Y-127522380D01*
X136294761Y-126950952D02*
X136199523Y-126903333D01*
X136151904Y-126855714D01*
X136104285Y-126760476D01*
X136104285Y-126712857D01*
X136151904Y-126617619D01*
X136199523Y-126570000D01*
X136294761Y-126522380D01*
X136485238Y-126522380D01*
X136580476Y-126570000D01*
X136628095Y-126617619D01*
X136675714Y-126712857D01*
X136675714Y-126760476D01*
X136628095Y-126855714D01*
X136580476Y-126903333D01*
X136485238Y-126950952D01*
X136294761Y-126950952D01*
X136199523Y-126998571D01*
X136151904Y-127046190D01*
X136104285Y-127141428D01*
X136104285Y-127331904D01*
X136151904Y-127427142D01*
X136199523Y-127474761D01*
X136294761Y-127522380D01*
X136485238Y-127522380D01*
X136580476Y-127474761D01*
X136628095Y-127427142D01*
X136675714Y-127331904D01*
X136675714Y-127141428D01*
X136628095Y-127046190D01*
X136580476Y-126998571D01*
X136485238Y-126950952D01*
X130548095Y-132532380D02*
X130548095Y-131532380D01*
X131119523Y-132532380D02*
X130690952Y-131960952D01*
X131119523Y-131532380D02*
X130548095Y-132103809D01*
X94432380Y-149232857D02*
X93956190Y-149566190D01*
X94432380Y-149804285D02*
X93432380Y-149804285D01*
X93432380Y-149423333D01*
X93480000Y-149328095D01*
X93527619Y-149280476D01*
X93622857Y-149232857D01*
X93765714Y-149232857D01*
X93860952Y-149280476D01*
X93908571Y-149328095D01*
X93956190Y-149423333D01*
X93956190Y-149804285D01*
X94432380Y-148280476D02*
X94432380Y-148851904D01*
X94432380Y-148566190D02*
X93432380Y-148566190D01*
X93575238Y-148661428D01*
X93670476Y-148756666D01*
X93718095Y-148851904D01*
X93432380Y-147661428D02*
X93432380Y-147566190D01*
X93480000Y-147470952D01*
X93527619Y-147423333D01*
X93622857Y-147375714D01*
X93813333Y-147328095D01*
X94051428Y-147328095D01*
X94241904Y-147375714D01*
X94337142Y-147423333D01*
X94384761Y-147470952D01*
X94432380Y-147566190D01*
X94432380Y-147661428D01*
X94384761Y-147756666D01*
X94337142Y-147804285D01*
X94241904Y-147851904D01*
X94051428Y-147899523D01*
X93813333Y-147899523D01*
X93622857Y-147851904D01*
X93527619Y-147804285D01*
X93480000Y-147756666D01*
X93432380Y-147661428D01*
X115236666Y-145502380D02*
X115236666Y-146216666D01*
X115189047Y-146359523D01*
X115093809Y-146454761D01*
X114950952Y-146502380D01*
X114855714Y-146502380D01*
X115855714Y-145930952D02*
X115760476Y-145883333D01*
X115712857Y-145835714D01*
X115665238Y-145740476D01*
X115665238Y-145692857D01*
X115712857Y-145597619D01*
X115760476Y-145550000D01*
X115855714Y-145502380D01*
X116046190Y-145502380D01*
X116141428Y-145550000D01*
X116189047Y-145597619D01*
X116236666Y-145692857D01*
X116236666Y-145740476D01*
X116189047Y-145835714D01*
X116141428Y-145883333D01*
X116046190Y-145930952D01*
X115855714Y-145930952D01*
X115760476Y-145978571D01*
X115712857Y-146026190D01*
X115665238Y-146121428D01*
X115665238Y-146311904D01*
X115712857Y-146407142D01*
X115760476Y-146454761D01*
X115855714Y-146502380D01*
X116046190Y-146502380D01*
X116141428Y-146454761D01*
X116189047Y-146407142D01*
X116236666Y-146311904D01*
X116236666Y-146121428D01*
X116189047Y-146026190D01*
X116141428Y-145978571D01*
X116046190Y-145930952D01*
X72056666Y-123912380D02*
X72056666Y-124626666D01*
X72009047Y-124769523D01*
X71913809Y-124864761D01*
X71770952Y-124912380D01*
X71675714Y-124912380D01*
X73056666Y-124912380D02*
X72485238Y-124912380D01*
X72770952Y-124912380D02*
X72770952Y-123912380D01*
X72675714Y-124055238D01*
X72580476Y-124150476D01*
X72485238Y-124198095D01*
X103361904Y-122242380D02*
X103361904Y-121242380D01*
X103600000Y-121242380D01*
X103742857Y-121290000D01*
X103838095Y-121385238D01*
X103885714Y-121480476D01*
X103933333Y-121670952D01*
X103933333Y-121813809D01*
X103885714Y-122004285D01*
X103838095Y-122099523D01*
X103742857Y-122194761D01*
X103600000Y-122242380D01*
X103361904Y-122242380D01*
X104790476Y-121242380D02*
X104600000Y-121242380D01*
X104504761Y-121290000D01*
X104457142Y-121337619D01*
X104361904Y-121480476D01*
X104314285Y-121670952D01*
X104314285Y-122051904D01*
X104361904Y-122147142D01*
X104409523Y-122194761D01*
X104504761Y-122242380D01*
X104695238Y-122242380D01*
X104790476Y-122194761D01*
X104838095Y-122147142D01*
X104885714Y-122051904D01*
X104885714Y-121813809D01*
X104838095Y-121718571D01*
X104790476Y-121670952D01*
X104695238Y-121623333D01*
X104504761Y-121623333D01*
X104409523Y-121670952D01*
X104361904Y-121718571D01*
X104314285Y-121813809D01*
X101243333Y-117092380D02*
X100910000Y-116616190D01*
X100671904Y-117092380D02*
X100671904Y-116092380D01*
X101052857Y-116092380D01*
X101148095Y-116140000D01*
X101195714Y-116187619D01*
X101243333Y-116282857D01*
X101243333Y-116425714D01*
X101195714Y-116520952D01*
X101148095Y-116568571D01*
X101052857Y-116616190D01*
X100671904Y-116616190D01*
X101719523Y-117092380D02*
X101910000Y-117092380D01*
X102005238Y-117044761D01*
X102052857Y-116997142D01*
X102148095Y-116854285D01*
X102195714Y-116663809D01*
X102195714Y-116282857D01*
X102148095Y-116187619D01*
X102100476Y-116140000D01*
X102005238Y-116092380D01*
X101814761Y-116092380D01*
X101719523Y-116140000D01*
X101671904Y-116187619D01*
X101624285Y-116282857D01*
X101624285Y-116520952D01*
X101671904Y-116616190D01*
X101719523Y-116663809D01*
X101814761Y-116711428D01*
X102005238Y-116711428D01*
X102100476Y-116663809D01*
X102148095Y-116616190D01*
X102195714Y-116520952D01*
X118327142Y-115888571D02*
X118327142Y-117102857D01*
X118398571Y-117245714D01*
X118470000Y-117317142D01*
X118612857Y-117388571D01*
X118898571Y-117388571D01*
X119041428Y-117317142D01*
X119112857Y-117245714D01*
X119184285Y-117102857D01*
X119184285Y-115888571D01*
X120684285Y-117388571D02*
X119827142Y-117388571D01*
X120255714Y-117388571D02*
X120255714Y-115888571D01*
X120112857Y-116102857D01*
X119970000Y-116245714D01*
X119827142Y-116317142D01*
X96583333Y-139272380D02*
X96250000Y-138796190D01*
X96011904Y-139272380D02*
X96011904Y-138272380D01*
X96392857Y-138272380D01*
X96488095Y-138320000D01*
X96535714Y-138367619D01*
X96583333Y-138462857D01*
X96583333Y-138605714D01*
X96535714Y-138700952D01*
X96488095Y-138748571D01*
X96392857Y-138796190D01*
X96011904Y-138796190D01*
X97154761Y-138700952D02*
X97059523Y-138653333D01*
X97011904Y-138605714D01*
X96964285Y-138510476D01*
X96964285Y-138462857D01*
X97011904Y-138367619D01*
X97059523Y-138320000D01*
X97154761Y-138272380D01*
X97345238Y-138272380D01*
X97440476Y-138320000D01*
X97488095Y-138367619D01*
X97535714Y-138462857D01*
X97535714Y-138510476D01*
X97488095Y-138605714D01*
X97440476Y-138653333D01*
X97345238Y-138700952D01*
X97154761Y-138700952D01*
X97059523Y-138748571D01*
X97011904Y-138796190D01*
X96964285Y-138891428D01*
X96964285Y-139081904D01*
X97011904Y-139177142D01*
X97059523Y-139224761D01*
X97154761Y-139272380D01*
X97345238Y-139272380D01*
X97440476Y-139224761D01*
X97488095Y-139177142D01*
X97535714Y-139081904D01*
X97535714Y-138891428D01*
X97488095Y-138796190D01*
X97440476Y-138748571D01*
X97345238Y-138700952D01*
X104233333Y-149312380D02*
X103900000Y-148836190D01*
X103661904Y-149312380D02*
X103661904Y-148312380D01*
X104042857Y-148312380D01*
X104138095Y-148360000D01*
X104185714Y-148407619D01*
X104233333Y-148502857D01*
X104233333Y-148645714D01*
X104185714Y-148740952D01*
X104138095Y-148788571D01*
X104042857Y-148836190D01*
X103661904Y-148836190D01*
X104566666Y-148312380D02*
X105233333Y-148312380D01*
X104804761Y-149312380D01*
X119213333Y-145232380D02*
X118880000Y-144756190D01*
X118641904Y-145232380D02*
X118641904Y-144232380D01*
X119022857Y-144232380D01*
X119118095Y-144280000D01*
X119165714Y-144327619D01*
X119213333Y-144422857D01*
X119213333Y-144565714D01*
X119165714Y-144660952D01*
X119118095Y-144708571D01*
X119022857Y-144756190D01*
X118641904Y-144756190D01*
X120070476Y-144232380D02*
X119880000Y-144232380D01*
X119784761Y-144280000D01*
X119737142Y-144327619D01*
X119641904Y-144470476D01*
X119594285Y-144660952D01*
X119594285Y-145041904D01*
X119641904Y-145137142D01*
X119689523Y-145184761D01*
X119784761Y-145232380D01*
X119975238Y-145232380D01*
X120070476Y-145184761D01*
X120118095Y-145137142D01*
X120165714Y-145041904D01*
X120165714Y-144803809D01*
X120118095Y-144708571D01*
X120070476Y-144660952D01*
X119975238Y-144613333D01*
X119784761Y-144613333D01*
X119689523Y-144660952D01*
X119641904Y-144708571D01*
X119594285Y-144803809D01*
X103973333Y-143872380D02*
X103640000Y-143396190D01*
X103401904Y-143872380D02*
X103401904Y-142872380D01*
X103782857Y-142872380D01*
X103878095Y-142920000D01*
X103925714Y-142967619D01*
X103973333Y-143062857D01*
X103973333Y-143205714D01*
X103925714Y-143300952D01*
X103878095Y-143348571D01*
X103782857Y-143396190D01*
X103401904Y-143396190D01*
X104878095Y-142872380D02*
X104401904Y-142872380D01*
X104354285Y-143348571D01*
X104401904Y-143300952D01*
X104497142Y-143253333D01*
X104735238Y-143253333D01*
X104830476Y-143300952D01*
X104878095Y-143348571D01*
X104925714Y-143443809D01*
X104925714Y-143681904D01*
X104878095Y-143777142D01*
X104830476Y-143824761D01*
X104735238Y-143872380D01*
X104497142Y-143872380D01*
X104401904Y-143824761D01*
X104354285Y-143777142D01*
X83653333Y-138882380D02*
X83320000Y-138406190D01*
X83081904Y-138882380D02*
X83081904Y-137882380D01*
X83462857Y-137882380D01*
X83558095Y-137930000D01*
X83605714Y-137977619D01*
X83653333Y-138072857D01*
X83653333Y-138215714D01*
X83605714Y-138310952D01*
X83558095Y-138358571D01*
X83462857Y-138406190D01*
X83081904Y-138406190D01*
X84510476Y-138215714D02*
X84510476Y-138882380D01*
X84272380Y-137834761D02*
X84034285Y-138549047D01*
X84653333Y-138549047D01*
X83653333Y-134012380D02*
X83320000Y-133536190D01*
X83081904Y-134012380D02*
X83081904Y-133012380D01*
X83462857Y-133012380D01*
X83558095Y-133060000D01*
X83605714Y-133107619D01*
X83653333Y-133202857D01*
X83653333Y-133345714D01*
X83605714Y-133440952D01*
X83558095Y-133488571D01*
X83462857Y-133536190D01*
X83081904Y-133536190D01*
X83986666Y-133012380D02*
X84605714Y-133012380D01*
X84272380Y-133393333D01*
X84415238Y-133393333D01*
X84510476Y-133440952D01*
X84558095Y-133488571D01*
X84605714Y-133583809D01*
X84605714Y-133821904D01*
X84558095Y-133917142D01*
X84510476Y-133964761D01*
X84415238Y-134012380D01*
X84129523Y-134012380D01*
X84034285Y-133964761D01*
X83986666Y-133917142D01*
X119213333Y-132532380D02*
X118880000Y-132056190D01*
X118641904Y-132532380D02*
X118641904Y-131532380D01*
X119022857Y-131532380D01*
X119118095Y-131580000D01*
X119165714Y-131627619D01*
X119213333Y-131722857D01*
X119213333Y-131865714D01*
X119165714Y-131960952D01*
X119118095Y-132008571D01*
X119022857Y-132056190D01*
X118641904Y-132056190D01*
X119594285Y-131627619D02*
X119641904Y-131580000D01*
X119737142Y-131532380D01*
X119975238Y-131532380D01*
X120070476Y-131580000D01*
X120118095Y-131627619D01*
X120165714Y-131722857D01*
X120165714Y-131818095D01*
X120118095Y-131960952D01*
X119546666Y-132532380D01*
X120165714Y-132532380D01*
X102052380Y-133516666D02*
X101576190Y-133850000D01*
X102052380Y-134088095D02*
X101052380Y-134088095D01*
X101052380Y-133707142D01*
X101100000Y-133611904D01*
X101147619Y-133564285D01*
X101242857Y-133516666D01*
X101385714Y-133516666D01*
X101480952Y-133564285D01*
X101528571Y-133611904D01*
X101576190Y-133707142D01*
X101576190Y-134088095D01*
X102052380Y-132564285D02*
X102052380Y-133135714D01*
X102052380Y-132850000D02*
X101052380Y-132850000D01*
X101195238Y-132945238D01*
X101290476Y-133040476D01*
X101338095Y-133135714D01*
X148554761Y-117387619D02*
X148459523Y-117340000D01*
X148364285Y-117244761D01*
X148221428Y-117101904D01*
X148126190Y-117054285D01*
X148030952Y-117054285D01*
X148078571Y-117292380D02*
X147983333Y-117244761D01*
X147888095Y-117149523D01*
X147840476Y-116959047D01*
X147840476Y-116625714D01*
X147888095Y-116435238D01*
X147983333Y-116340000D01*
X148078571Y-116292380D01*
X148269047Y-116292380D01*
X148364285Y-116340000D01*
X148459523Y-116435238D01*
X148507142Y-116625714D01*
X148507142Y-116959047D01*
X148459523Y-117149523D01*
X148364285Y-117244761D01*
X148269047Y-117292380D01*
X148078571Y-117292380D01*
X148840476Y-116292380D02*
X149459523Y-116292380D01*
X149126190Y-116673333D01*
X149269047Y-116673333D01*
X149364285Y-116720952D01*
X149411904Y-116768571D01*
X149459523Y-116863809D01*
X149459523Y-117101904D01*
X149411904Y-117197142D01*
X149364285Y-117244761D01*
X149269047Y-117292380D01*
X148983333Y-117292380D01*
X148888095Y-117244761D01*
X148840476Y-117197142D01*
X77374761Y-131357619D02*
X77279523Y-131310000D01*
X77184285Y-131214761D01*
X77041428Y-131071904D01*
X76946190Y-131024285D01*
X76850952Y-131024285D01*
X76898571Y-131262380D02*
X76803333Y-131214761D01*
X76708095Y-131119523D01*
X76660476Y-130929047D01*
X76660476Y-130595714D01*
X76708095Y-130405238D01*
X76803333Y-130310000D01*
X76898571Y-130262380D01*
X77089047Y-130262380D01*
X77184285Y-130310000D01*
X77279523Y-130405238D01*
X77327142Y-130595714D01*
X77327142Y-130929047D01*
X77279523Y-131119523D01*
X77184285Y-131214761D01*
X77089047Y-131262380D01*
X76898571Y-131262380D01*
X78279523Y-131262380D02*
X77708095Y-131262380D01*
X77993809Y-131262380D02*
X77993809Y-130262380D01*
X77898571Y-130405238D01*
X77803333Y-130500476D01*
X77708095Y-130548095D01*
X138916666Y-132008571D02*
X138583333Y-132008571D01*
X138583333Y-132532380D02*
X138583333Y-131532380D01*
X139059523Y-131532380D01*
X139392857Y-131627619D02*
X139440476Y-131580000D01*
X139535714Y-131532380D01*
X139773809Y-131532380D01*
X139869047Y-131580000D01*
X139916666Y-131627619D01*
X139964285Y-131722857D01*
X139964285Y-131818095D01*
X139916666Y-131960952D01*
X139345238Y-132532380D01*
X139964285Y-132532380D01*
X93080677Y-105017311D02*
X92747344Y-105017311D01*
X92747344Y-105541120D02*
X92747344Y-104541120D01*
X93223534Y-104541120D01*
X94128296Y-105541120D02*
X93556868Y-105541120D01*
X93842582Y-105541120D02*
X93842582Y-104541120D01*
X93747344Y-104683978D01*
X93652106Y-104779216D01*
X93556868Y-104826835D01*
X118371904Y-137612380D02*
X118371904Y-136612380D01*
X118610000Y-136612380D01*
X118752857Y-136660000D01*
X118848095Y-136755238D01*
X118895714Y-136850476D01*
X118943333Y-137040952D01*
X118943333Y-137183809D01*
X118895714Y-137374285D01*
X118848095Y-137469523D01*
X118752857Y-137564761D01*
X118610000Y-137612380D01*
X118371904Y-137612380D01*
X119848095Y-136612380D02*
X119371904Y-136612380D01*
X119324285Y-137088571D01*
X119371904Y-137040952D01*
X119467142Y-136993333D01*
X119705238Y-136993333D01*
X119800476Y-137040952D01*
X119848095Y-137088571D01*
X119895714Y-137183809D01*
X119895714Y-137421904D01*
X119848095Y-137517142D01*
X119800476Y-137564761D01*
X119705238Y-137612380D01*
X119467142Y-137612380D01*
X119371904Y-137564761D01*
X119324285Y-137517142D01*
X124198095Y-137172380D02*
X124198095Y-136172380D01*
X124769523Y-137172380D02*
X124340952Y-136600952D01*
X124769523Y-136172380D02*
X124198095Y-136743809D01*
X147851904Y-125722380D02*
X147851904Y-124722380D01*
X148090000Y-124722380D01*
X148232857Y-124770000D01*
X148328095Y-124865238D01*
X148375714Y-124960476D01*
X148423333Y-125150952D01*
X148423333Y-125293809D01*
X148375714Y-125484285D01*
X148328095Y-125579523D01*
X148232857Y-125674761D01*
X148090000Y-125722380D01*
X147851904Y-125722380D01*
X149280476Y-125055714D02*
X149280476Y-125722380D01*
X149042380Y-124674761D02*
X148804285Y-125389047D01*
X149423333Y-125389047D01*
X93471904Y-122582380D02*
X93471904Y-121582380D01*
X93710000Y-121582380D01*
X93852857Y-121630000D01*
X93948095Y-121725238D01*
X93995714Y-121820476D01*
X94043333Y-122010952D01*
X94043333Y-122153809D01*
X93995714Y-122344285D01*
X93948095Y-122439523D01*
X93852857Y-122534761D01*
X93710000Y-122582380D01*
X93471904Y-122582380D01*
X94376666Y-121582380D02*
X94995714Y-121582380D01*
X94662380Y-121963333D01*
X94805238Y-121963333D01*
X94900476Y-122010952D01*
X94948095Y-122058571D01*
X94995714Y-122153809D01*
X94995714Y-122391904D01*
X94948095Y-122487142D01*
X94900476Y-122534761D01*
X94805238Y-122582380D01*
X94519523Y-122582380D01*
X94424285Y-122534761D01*
X94376666Y-122487142D01*
X97528095Y-126342380D02*
X97528095Y-125342380D01*
X98099523Y-126342380D02*
X97670952Y-125770952D01*
X98099523Y-125342380D02*
X97528095Y-125913809D01*
X88221904Y-116992380D02*
X88221904Y-115992380D01*
X88460000Y-115992380D01*
X88602857Y-116040000D01*
X88698095Y-116135238D01*
X88745714Y-116230476D01*
X88793333Y-116420952D01*
X88793333Y-116563809D01*
X88745714Y-116754285D01*
X88698095Y-116849523D01*
X88602857Y-116944761D01*
X88460000Y-116992380D01*
X88221904Y-116992380D01*
X89174285Y-116087619D02*
X89221904Y-116040000D01*
X89317142Y-115992380D01*
X89555238Y-115992380D01*
X89650476Y-116040000D01*
X89698095Y-116087619D01*
X89745714Y-116182857D01*
X89745714Y-116278095D01*
X89698095Y-116420952D01*
X89126666Y-116992380D01*
X89745714Y-116992380D01*
X83618095Y-117362380D02*
X83618095Y-116362380D01*
X84189523Y-117362380D02*
X83760952Y-116790952D01*
X84189523Y-116362380D02*
X83618095Y-116933809D01*
X80541904Y-122372380D02*
X80541904Y-121372380D01*
X80780000Y-121372380D01*
X80922857Y-121420000D01*
X81018095Y-121515238D01*
X81065714Y-121610476D01*
X81113333Y-121800952D01*
X81113333Y-121943809D01*
X81065714Y-122134285D01*
X81018095Y-122229523D01*
X80922857Y-122324761D01*
X80780000Y-122372380D01*
X80541904Y-122372380D01*
X82065714Y-122372380D02*
X81494285Y-122372380D01*
X81780000Y-122372380D02*
X81780000Y-121372380D01*
X81684761Y-121515238D01*
X81589523Y-121610476D01*
X81494285Y-121658095D01*
X110323333Y-136247142D02*
X110275714Y-136294761D01*
X110132857Y-136342380D01*
X110037619Y-136342380D01*
X109894761Y-136294761D01*
X109799523Y-136199523D01*
X109751904Y-136104285D01*
X109704285Y-135913809D01*
X109704285Y-135770952D01*
X109751904Y-135580476D01*
X109799523Y-135485238D01*
X109894761Y-135390000D01*
X110037619Y-135342380D01*
X110132857Y-135342380D01*
X110275714Y-135390000D01*
X110323333Y-135437619D01*
X111275714Y-136342380D02*
X110704285Y-136342380D01*
X110990000Y-136342380D02*
X110990000Y-135342380D01*
X110894761Y-135485238D01*
X110799523Y-135580476D01*
X110704285Y-135628095D01*
X80648571Y-117675714D02*
X80696190Y-117532857D01*
X80743809Y-117485238D01*
X80839047Y-117437619D01*
X80981904Y-117437619D01*
X81077142Y-117485238D01*
X81124761Y-117532857D01*
X81172380Y-117628095D01*
X81172380Y-118009047D01*
X80172380Y-118009047D01*
X80172380Y-117675714D01*
X80220000Y-117580476D01*
X80267619Y-117532857D01*
X80362857Y-117485238D01*
X80458095Y-117485238D01*
X80553333Y-117532857D01*
X80600952Y-117580476D01*
X80648571Y-117675714D01*
X80648571Y-118009047D01*
X80172380Y-117151904D02*
X80172380Y-116580476D01*
X81172380Y-116866190D02*
X80172380Y-116866190D01*
X81172380Y-115723333D02*
X81172380Y-116294761D01*
X81172380Y-116009047D02*
X80172380Y-116009047D01*
X80315238Y-116104285D01*
X80410476Y-116199523D01*
X80458095Y-116294761D01*
%LPC*%
D15*
X160830000Y-107840000D03*
D16*
X160830000Y-107840000D03*
D15*
X73250000Y-150970000D03*
D16*
X73250000Y-150970000D03*
D15*
X160750000Y-150820000D03*
D16*
X160750000Y-150820000D03*
D15*
X73160000Y-107940000D03*
D16*
X73160000Y-107940000D03*
D17*
X91440000Y-135890000D03*
D18*
X91440000Y-128270000D03*
D19*
X146050000Y-109220000D03*
D20*
X151130000Y-109220000D03*
D19*
X134620000Y-109220000D03*
D20*
X139700000Y-109220000D03*
D19*
X160020000Y-123190000D03*
D20*
X160020000Y-118110000D03*
D19*
X160020000Y-135890000D03*
D20*
X160020000Y-130810000D03*
D19*
X130810000Y-149860000D03*
D20*
X125730000Y-149860000D03*
D19*
X142240000Y-149860000D03*
D20*
X137160000Y-149860000D03*
D19*
X153670000Y-149860000D03*
D20*
X148590000Y-149860000D03*
D21*
X97790000Y-129540000D03*
X97790000Y-132080000D03*
D22*
X97790000Y-134620000D03*
D23*
X139700000Y-121920000D03*
X137160000Y-121920000D03*
D24*
X134620000Y-121920000D03*
D25*
X140970000Y-129540000D03*
D26*
X130810000Y-129540000D03*
D17*
X96520000Y-152400000D03*
D18*
X96520000Y-144780000D03*
D27*
X116800000Y-149860000D03*
G36*
G01*
X113450000Y-150610000D02*
X113450000Y-149110000D01*
G75*
G02*
X113700000Y-148860000I250000J0D01*
G01*
X114900000Y-148860000D01*
G75*
G02*
X115150000Y-149110000I0J-250000D01*
G01*
X115150000Y-150610000D01*
G75*
G02*
X114900000Y-150860000I-250000J0D01*
G01*
X113700000Y-150860000D01*
G75*
G02*
X113450000Y-150610000I0J250000D01*
G01*
G37*
D28*
X72390000Y-128470000D03*
X72390000Y-130970000D03*
X72390000Y-133470000D03*
X72390000Y-135970000D03*
X72390000Y-138470000D03*
G36*
G01*
X73115000Y-141820000D02*
X71665000Y-141820000D01*
G75*
G02*
X71415000Y-141570000I0J250000D01*
G01*
X71415000Y-140370000D01*
G75*
G02*
X71665000Y-140120000I250000J0D01*
G01*
X73115000Y-140120000D01*
G75*
G02*
X73365000Y-140370000I0J-250000D01*
G01*
X73365000Y-141570000D01*
G75*
G02*
X73115000Y-141820000I-250000J0D01*
G01*
G37*
D29*
X105370000Y-124050000D03*
D30*
X102830000Y-124050000D03*
D17*
X105220000Y-119010000D03*
D18*
X97600000Y-119010000D03*
D31*
X122010000Y-121790000D03*
X119470000Y-121790000D03*
X119470000Y-124330000D03*
X122010000Y-124330000D03*
D32*
X128360000Y-108582000D03*
X110580000Y-108582000D03*
X128360000Y-124330000D03*
X110580000Y-124330000D03*
D31*
X120994000Y-110106000D03*
X117692000Y-110106000D03*
X124550000Y-124330000D03*
X114390000Y-124330000D03*
X116930000Y-124330000D03*
D17*
X100330000Y-140970000D03*
D18*
X92710000Y-140970000D03*
D17*
X100330000Y-151100000D03*
D18*
X107950000Y-151100000D03*
D17*
X123190000Y-142240000D03*
D18*
X115570000Y-142240000D03*
D17*
X107950000Y-145790000D03*
D18*
X100330000Y-145790000D03*
D17*
X80010000Y-140970000D03*
D18*
X87630000Y-140970000D03*
D17*
X80010000Y-136000000D03*
D18*
X87630000Y-136000000D03*
D17*
X123190000Y-129540000D03*
D18*
X115570000Y-129540000D03*
D17*
X104140000Y-137160000D03*
D18*
X104140000Y-129540000D03*
D33*
X146050000Y-120650000D03*
D34*
X151250000Y-120650000D03*
X148650000Y-120650000D03*
D33*
X80010000Y-130810000D03*
D34*
X85210000Y-130810000D03*
X82610000Y-130810000D03*
D35*
X139700000Y-138430000D03*
D36*
X150700740Y-138430000D03*
X128699260Y-138430000D03*
D35*
X93620000Y-110950000D03*
D36*
X82619260Y-110950000D03*
X104620740Y-110950000D03*
D25*
X114300000Y-134620000D03*
D26*
X124460000Y-134620000D03*
D37*
X151130000Y-129540000D03*
D38*
X146050000Y-129540000D03*
D17*
X90570000Y-124090000D03*
D39*
X98190000Y-124090000D03*
D25*
X94040000Y-119010000D03*
D26*
X83880000Y-119010000D03*
D37*
X79330000Y-123970000D03*
D38*
X84410000Y-123970000D03*
D40*
X111760000Y-139700000D03*
X109220000Y-139700000D03*
D41*
X75640000Y-119430000D03*
D42*
X75640000Y-114350000D03*
M02*
