%TF.GenerationSoftware,KiCad,Pcbnew,(5.1.9)-1*%
%TF.CreationDate,2021-05-21T09:57:04+02:00*%
%TF.ProjectId,Ardumower,41726475-6d6f-4776-9572-2e6b69636164,rev?*%
%TF.SameCoordinates,Original*%
%TF.FileFunction,Soldermask,Top*%
%TF.FilePolarity,Negative*%
%FSLAX46Y46*%
G04 Gerber Fmt 4.6, Leading zero omitted, Abs format (unit mm)*
G04 Created by KiCad (PCBNEW (5.1.9)-1) date 2021-05-21 09:57:04*
%MOMM*%
%LPD*%
G01*
G04 APERTURE LIST*
%ADD10C,0.100000*%
%ADD11C,0.150000*%
%ADD12C,0.300000*%
%ADD13C,0.400000*%
%ADD14O,1.950000X1.700000*%
%ADD15O,1.700000X1.950000*%
%ADD16O,2.000000X1.700000*%
%ADD17O,1.600000X1.600000*%
%ADD18C,1.600000*%
%ADD19O,1.700000X1.700000*%
%ADD20R,1.700000X1.700000*%
%ADD21C,4.400000*%
%ADD22C,2.600000*%
%ADD23C,2.000000*%
%ADD24C,1.524000*%
%ADD25C,3.000000*%
%ADD26R,3.000000X3.000000*%
%ADD27O,2.200000X2.200000*%
%ADD28R,2.200000X2.200000*%
%ADD29C,1.800000*%
%ADD30R,1.800000X1.800000*%
%ADD31O,1.727200X1.727200*%
%ADD32C,3.200000*%
%ADD33R,1.600000X1.600000*%
G04 APERTURE END LIST*
D10*
D11*
X177002200Y-166007200D02*
X177002200Y-198007200D01*
X285002200Y-198007200D01*
X285002200Y-166007200D01*
X177002200Y-166007200D01*
D10*
D11*
X10000000Y-10000000D02*
X10000000Y-200007200D01*
X287002200Y-200007200D01*
X287002200Y-10000000D01*
X10000000Y-10000000D01*
D10*
D11*
X12000000Y-12000000D02*
X12000000Y-198007200D01*
X285002200Y-198007200D01*
X285002200Y-12000000D01*
X12000000Y-12000000D01*
D10*
D11*
X60000000Y-12000000D02*
X60000000Y-10000000D01*
D10*
D11*
X110000000Y-12000000D02*
X110000000Y-10000000D01*
D10*
D11*
X160000000Y-12000000D02*
X160000000Y-10000000D01*
D10*
D11*
X210000000Y-12000000D02*
X210000000Y-10000000D01*
D10*
D11*
X260000000Y-12000000D02*
X260000000Y-10000000D01*
D10*
D11*
X36065476Y-11588095D02*
X35322619Y-11588095D01*
X35694047Y-11588095D02*
X35694047Y-10288095D01*
X35570238Y-10473809D01*
X35446428Y-10597619D01*
X35322619Y-10659523D01*
D10*
D11*
X85322619Y-10411904D02*
X85384523Y-10350000D01*
X85508333Y-10288095D01*
X85817857Y-10288095D01*
X85941666Y-10350000D01*
X86003571Y-10411904D01*
X86065476Y-10535714D01*
X86065476Y-10659523D01*
X86003571Y-10845238D01*
X85260714Y-11588095D01*
X86065476Y-11588095D01*
D10*
D11*
X135260714Y-10288095D02*
X136065476Y-10288095D01*
X135632142Y-10783333D01*
X135817857Y-10783333D01*
X135941666Y-10845238D01*
X136003571Y-10907142D01*
X136065476Y-11030952D01*
X136065476Y-11340476D01*
X136003571Y-11464285D01*
X135941666Y-11526190D01*
X135817857Y-11588095D01*
X135446428Y-11588095D01*
X135322619Y-11526190D01*
X135260714Y-11464285D01*
D10*
D11*
X185941666Y-10721428D02*
X185941666Y-11588095D01*
X185632142Y-10226190D02*
X185322619Y-11154761D01*
X186127380Y-11154761D01*
D10*
D11*
X236003571Y-10288095D02*
X235384523Y-10288095D01*
X235322619Y-10907142D01*
X235384523Y-10845238D01*
X235508333Y-10783333D01*
X235817857Y-10783333D01*
X235941666Y-10845238D01*
X236003571Y-10907142D01*
X236065476Y-11030952D01*
X236065476Y-11340476D01*
X236003571Y-11464285D01*
X235941666Y-11526190D01*
X235817857Y-11588095D01*
X235508333Y-11588095D01*
X235384523Y-11526190D01*
X235322619Y-11464285D01*
D10*
D11*
X285941666Y-10288095D02*
X285694047Y-10288095D01*
X285570238Y-10350000D01*
X285508333Y-10411904D01*
X285384523Y-10597619D01*
X285322619Y-10845238D01*
X285322619Y-11340476D01*
X285384523Y-11464285D01*
X285446428Y-11526190D01*
X285570238Y-11588095D01*
X285817857Y-11588095D01*
X285941666Y-11526190D01*
X286003571Y-11464285D01*
X286065476Y-11340476D01*
X286065476Y-11030952D01*
X286003571Y-10907142D01*
X285941666Y-10845238D01*
X285817857Y-10783333D01*
X285570238Y-10783333D01*
X285446428Y-10845238D01*
X285384523Y-10907142D01*
X285322619Y-11030952D01*
D10*
D11*
X60000000Y-198007200D02*
X60000000Y-200007200D01*
D10*
D11*
X110000000Y-198007200D02*
X110000000Y-200007200D01*
D10*
D11*
X160000000Y-198007200D02*
X160000000Y-200007200D01*
D10*
D11*
X210000000Y-198007200D02*
X210000000Y-200007200D01*
D10*
D11*
X260000000Y-198007200D02*
X260000000Y-200007200D01*
D10*
D11*
X36065476Y-199595295D02*
X35322619Y-199595295D01*
X35694047Y-199595295D02*
X35694047Y-198295295D01*
X35570238Y-198481009D01*
X35446428Y-198604819D01*
X35322619Y-198666723D01*
D10*
D11*
X85322619Y-198419104D02*
X85384523Y-198357200D01*
X85508333Y-198295295D01*
X85817857Y-198295295D01*
X85941666Y-198357200D01*
X86003571Y-198419104D01*
X86065476Y-198542914D01*
X86065476Y-198666723D01*
X86003571Y-198852438D01*
X85260714Y-199595295D01*
X86065476Y-199595295D01*
D10*
D11*
X135260714Y-198295295D02*
X136065476Y-198295295D01*
X135632142Y-198790533D01*
X135817857Y-198790533D01*
X135941666Y-198852438D01*
X136003571Y-198914342D01*
X136065476Y-199038152D01*
X136065476Y-199347676D01*
X136003571Y-199471485D01*
X135941666Y-199533390D01*
X135817857Y-199595295D01*
X135446428Y-199595295D01*
X135322619Y-199533390D01*
X135260714Y-199471485D01*
D10*
D11*
X185941666Y-198728628D02*
X185941666Y-199595295D01*
X185632142Y-198233390D02*
X185322619Y-199161961D01*
X186127380Y-199161961D01*
D10*
D11*
X236003571Y-198295295D02*
X235384523Y-198295295D01*
X235322619Y-198914342D01*
X235384523Y-198852438D01*
X235508333Y-198790533D01*
X235817857Y-198790533D01*
X235941666Y-198852438D01*
X236003571Y-198914342D01*
X236065476Y-199038152D01*
X236065476Y-199347676D01*
X236003571Y-199471485D01*
X235941666Y-199533390D01*
X235817857Y-199595295D01*
X235508333Y-199595295D01*
X235384523Y-199533390D01*
X235322619Y-199471485D01*
D10*
D11*
X285941666Y-198295295D02*
X285694047Y-198295295D01*
X285570238Y-198357200D01*
X285508333Y-198419104D01*
X285384523Y-198604819D01*
X285322619Y-198852438D01*
X285322619Y-199347676D01*
X285384523Y-199471485D01*
X285446428Y-199533390D01*
X285570238Y-199595295D01*
X285817857Y-199595295D01*
X285941666Y-199533390D01*
X286003571Y-199471485D01*
X286065476Y-199347676D01*
X286065476Y-199038152D01*
X286003571Y-198914342D01*
X285941666Y-198852438D01*
X285817857Y-198790533D01*
X285570238Y-198790533D01*
X285446428Y-198852438D01*
X285384523Y-198914342D01*
X285322619Y-199038152D01*
D10*
D11*
X10000000Y-60000000D02*
X12000000Y-60000000D01*
D10*
D11*
X10000000Y-110000000D02*
X12000000Y-110000000D01*
D10*
D11*
X10000000Y-160000000D02*
X12000000Y-160000000D01*
D10*
D11*
X10690476Y-35216666D02*
X11309523Y-35216666D01*
X10566666Y-35588095D02*
X11000000Y-34288095D01*
X11433333Y-35588095D01*
D10*
D11*
X11092857Y-84907142D02*
X11278571Y-84969047D01*
X11340476Y-85030952D01*
X11402380Y-85154761D01*
X11402380Y-85340476D01*
X11340476Y-85464285D01*
X11278571Y-85526190D01*
X11154761Y-85588095D01*
X10659523Y-85588095D01*
X10659523Y-84288095D01*
X11092857Y-84288095D01*
X11216666Y-84350000D01*
X11278571Y-84411904D01*
X11340476Y-84535714D01*
X11340476Y-84659523D01*
X11278571Y-84783333D01*
X11216666Y-84845238D01*
X11092857Y-84907142D01*
X10659523Y-84907142D01*
D10*
D11*
X11402380Y-135464285D02*
X11340476Y-135526190D01*
X11154761Y-135588095D01*
X11030952Y-135588095D01*
X10845238Y-135526190D01*
X10721428Y-135402380D01*
X10659523Y-135278571D01*
X10597619Y-135030952D01*
X10597619Y-134845238D01*
X10659523Y-134597619D01*
X10721428Y-134473809D01*
X10845238Y-134350000D01*
X11030952Y-134288095D01*
X11154761Y-134288095D01*
X11340476Y-134350000D01*
X11402380Y-134411904D01*
D10*
D11*
X10659523Y-185588095D02*
X10659523Y-184288095D01*
X10969047Y-184288095D01*
X11154761Y-184350000D01*
X11278571Y-184473809D01*
X11340476Y-184597619D01*
X11402380Y-184845238D01*
X11402380Y-185030952D01*
X11340476Y-185278571D01*
X11278571Y-185402380D01*
X11154761Y-185526190D01*
X10969047Y-185588095D01*
X10659523Y-185588095D01*
D10*
D11*
X287002200Y-60000000D02*
X285002200Y-60000000D01*
D10*
D11*
X287002200Y-110000000D02*
X285002200Y-110000000D01*
D10*
D11*
X287002200Y-160000000D02*
X285002200Y-160000000D01*
D10*
D11*
X285692676Y-35216666D02*
X286311723Y-35216666D01*
X285568866Y-35588095D02*
X286002200Y-34288095D01*
X286435533Y-35588095D01*
D10*
D11*
X286095057Y-84907142D02*
X286280771Y-84969047D01*
X286342676Y-85030952D01*
X286404580Y-85154761D01*
X286404580Y-85340476D01*
X286342676Y-85464285D01*
X286280771Y-85526190D01*
X286156961Y-85588095D01*
X285661723Y-85588095D01*
X285661723Y-84288095D01*
X286095057Y-84288095D01*
X286218866Y-84350000D01*
X286280771Y-84411904D01*
X286342676Y-84535714D01*
X286342676Y-84659523D01*
X286280771Y-84783333D01*
X286218866Y-84845238D01*
X286095057Y-84907142D01*
X285661723Y-84907142D01*
D10*
D11*
X286404580Y-135464285D02*
X286342676Y-135526190D01*
X286156961Y-135588095D01*
X286033152Y-135588095D01*
X285847438Y-135526190D01*
X285723628Y-135402380D01*
X285661723Y-135278571D01*
X285599819Y-135030952D01*
X285599819Y-134845238D01*
X285661723Y-134597619D01*
X285723628Y-134473809D01*
X285847438Y-134350000D01*
X286033152Y-134288095D01*
X286156961Y-134288095D01*
X286342676Y-134350000D01*
X286404580Y-134411904D01*
D10*
D11*
X285661723Y-185588095D02*
X285661723Y-184288095D01*
X285971247Y-184288095D01*
X286156961Y-184350000D01*
X286280771Y-184473809D01*
X286342676Y-184597619D01*
X286404580Y-184845238D01*
X286404580Y-185030952D01*
X286342676Y-185278571D01*
X286280771Y-185402380D01*
X286156961Y-185526190D01*
X285971247Y-185588095D01*
X285661723Y-185588095D01*
D10*
D11*
X200434342Y-193785771D02*
X200434342Y-192285771D01*
X200791485Y-192285771D01*
X201005771Y-192357200D01*
X201148628Y-192500057D01*
X201220057Y-192642914D01*
X201291485Y-192928628D01*
X201291485Y-193142914D01*
X201220057Y-193428628D01*
X201148628Y-193571485D01*
X201005771Y-193714342D01*
X200791485Y-193785771D01*
X200434342Y-193785771D01*
X202577200Y-193785771D02*
X202577200Y-193000057D01*
X202505771Y-192857200D01*
X202362914Y-192785771D01*
X202077200Y-192785771D01*
X201934342Y-192857200D01*
X202577200Y-193714342D02*
X202434342Y-193785771D01*
X202077200Y-193785771D01*
X201934342Y-193714342D01*
X201862914Y-193571485D01*
X201862914Y-193428628D01*
X201934342Y-193285771D01*
X202077200Y-193214342D01*
X202434342Y-193214342D01*
X202577200Y-193142914D01*
X203077200Y-192785771D02*
X203648628Y-192785771D01*
X203291485Y-192285771D02*
X203291485Y-193571485D01*
X203362914Y-193714342D01*
X203505771Y-193785771D01*
X203648628Y-193785771D01*
X204720057Y-193714342D02*
X204577200Y-193785771D01*
X204291485Y-193785771D01*
X204148628Y-193714342D01*
X204077200Y-193571485D01*
X204077200Y-193000057D01*
X204148628Y-192857200D01*
X204291485Y-192785771D01*
X204577200Y-192785771D01*
X204720057Y-192857200D01*
X204791485Y-193000057D01*
X204791485Y-193142914D01*
X204077200Y-193285771D01*
X205434342Y-193642914D02*
X205505771Y-193714342D01*
X205434342Y-193785771D01*
X205362914Y-193714342D01*
X205434342Y-193642914D01*
X205434342Y-193785771D01*
X205434342Y-192857200D02*
X205505771Y-192928628D01*
X205434342Y-193000057D01*
X205362914Y-192928628D01*
X205434342Y-192857200D01*
X205434342Y-193000057D01*
D10*
D11*
X177002200Y-194507200D02*
X285002200Y-194507200D01*
D10*
D11*
X178434342Y-196585771D02*
X178434342Y-195085771D01*
X179291485Y-196585771D02*
X178648628Y-195728628D01*
X179291485Y-195085771D02*
X178434342Y-195942914D01*
X179934342Y-196585771D02*
X179934342Y-195585771D01*
X179934342Y-195085771D02*
X179862914Y-195157200D01*
X179934342Y-195228628D01*
X180005771Y-195157200D01*
X179934342Y-195085771D01*
X179934342Y-195228628D01*
X181505771Y-196442914D02*
X181434342Y-196514342D01*
X181220057Y-196585771D01*
X181077200Y-196585771D01*
X180862914Y-196514342D01*
X180720057Y-196371485D01*
X180648628Y-196228628D01*
X180577200Y-195942914D01*
X180577200Y-195728628D01*
X180648628Y-195442914D01*
X180720057Y-195300057D01*
X180862914Y-195157200D01*
X181077200Y-195085771D01*
X181220057Y-195085771D01*
X181434342Y-195157200D01*
X181505771Y-195228628D01*
X182791485Y-196585771D02*
X182791485Y-195800057D01*
X182720057Y-195657200D01*
X182577200Y-195585771D01*
X182291485Y-195585771D01*
X182148628Y-195657200D01*
X182791485Y-196514342D02*
X182648628Y-196585771D01*
X182291485Y-196585771D01*
X182148628Y-196514342D01*
X182077200Y-196371485D01*
X182077200Y-196228628D01*
X182148628Y-196085771D01*
X182291485Y-196014342D01*
X182648628Y-196014342D01*
X182791485Y-195942914D01*
X184148628Y-196585771D02*
X184148628Y-195085771D01*
X184148628Y-196514342D02*
X184005771Y-196585771D01*
X183720057Y-196585771D01*
X183577200Y-196514342D01*
X183505771Y-196442914D01*
X183434342Y-196300057D01*
X183434342Y-195871485D01*
X183505771Y-195728628D01*
X183577200Y-195657200D01*
X183720057Y-195585771D01*
X184005771Y-195585771D01*
X184148628Y-195657200D01*
X186005771Y-195800057D02*
X186505771Y-195800057D01*
X186720057Y-196585771D02*
X186005771Y-196585771D01*
X186005771Y-195085771D01*
X186720057Y-195085771D01*
X187362914Y-196442914D02*
X187434342Y-196514342D01*
X187362914Y-196585771D01*
X187291485Y-196514342D01*
X187362914Y-196442914D01*
X187362914Y-196585771D01*
X188077200Y-196585771D02*
X188077200Y-195085771D01*
X188434342Y-195085771D01*
X188648628Y-195157200D01*
X188791485Y-195300057D01*
X188862914Y-195442914D01*
X188934342Y-195728628D01*
X188934342Y-195942914D01*
X188862914Y-196228628D01*
X188791485Y-196371485D01*
X188648628Y-196514342D01*
X188434342Y-196585771D01*
X188077200Y-196585771D01*
X189577200Y-196442914D02*
X189648628Y-196514342D01*
X189577200Y-196585771D01*
X189505771Y-196514342D01*
X189577200Y-196442914D01*
X189577200Y-196585771D01*
X190220057Y-196157200D02*
X190934342Y-196157200D01*
X190077200Y-196585771D02*
X190577200Y-195085771D01*
X191077200Y-196585771D01*
X191577200Y-196442914D02*
X191648628Y-196514342D01*
X191577200Y-196585771D01*
X191505771Y-196514342D01*
X191577200Y-196442914D01*
X191577200Y-196585771D01*
X194577200Y-196585771D02*
X194577200Y-195085771D01*
X194720057Y-196014342D02*
X195148628Y-196585771D01*
X195148628Y-195585771D02*
X194577200Y-196157200D01*
X195791485Y-196585771D02*
X195791485Y-195585771D01*
X195791485Y-195085771D02*
X195720057Y-195157200D01*
X195791485Y-195228628D01*
X195862914Y-195157200D01*
X195791485Y-195085771D01*
X195791485Y-195228628D01*
X197148628Y-196514342D02*
X197005771Y-196585771D01*
X196720057Y-196585771D01*
X196577200Y-196514342D01*
X196505771Y-196442914D01*
X196434342Y-196300057D01*
X196434342Y-195871485D01*
X196505771Y-195728628D01*
X196577200Y-195657200D01*
X196720057Y-195585771D01*
X197005771Y-195585771D01*
X197148628Y-195657200D01*
X198434342Y-196585771D02*
X198434342Y-195800057D01*
X198362914Y-195657200D01*
X198220057Y-195585771D01*
X197934342Y-195585771D01*
X197791485Y-195657200D01*
X198434342Y-196514342D02*
X198291485Y-196585771D01*
X197934342Y-196585771D01*
X197791485Y-196514342D01*
X197720057Y-196371485D01*
X197720057Y-196228628D01*
X197791485Y-196085771D01*
X197934342Y-196014342D01*
X198291485Y-196014342D01*
X198434342Y-195942914D01*
X199791485Y-196585771D02*
X199791485Y-195085771D01*
X199791485Y-196514342D02*
X199648628Y-196585771D01*
X199362914Y-196585771D01*
X199220057Y-196514342D01*
X199148628Y-196442914D01*
X199077200Y-196300057D01*
X199077200Y-195871485D01*
X199148628Y-195728628D01*
X199220057Y-195657200D01*
X199362914Y-195585771D01*
X199648628Y-195585771D01*
X199791485Y-195657200D01*
X202077200Y-197157200D02*
X202005771Y-197085771D01*
X201862914Y-196871485D01*
X201791485Y-196728628D01*
X201720057Y-196514342D01*
X201648628Y-196157200D01*
X201648628Y-195871485D01*
X201720057Y-195514342D01*
X201791485Y-195300057D01*
X201862914Y-195157200D01*
X202005771Y-194942914D01*
X202077200Y-194871485D01*
X203362914Y-195085771D02*
X202648628Y-195085771D01*
X202577200Y-195800057D01*
X202648628Y-195728628D01*
X202791485Y-195657200D01*
X203148628Y-195657200D01*
X203291485Y-195728628D01*
X203362914Y-195800057D01*
X203434342Y-195942914D01*
X203434342Y-196300057D01*
X203362914Y-196442914D01*
X203291485Y-196514342D01*
X203148628Y-196585771D01*
X202791485Y-196585771D01*
X202648628Y-196514342D01*
X202577200Y-196442914D01*
X204077200Y-196442914D02*
X204148628Y-196514342D01*
X204077200Y-196585771D01*
X204005771Y-196514342D01*
X204077200Y-196442914D01*
X204077200Y-196585771D01*
X205577200Y-196585771D02*
X204720057Y-196585771D01*
X205148628Y-196585771D02*
X205148628Y-195085771D01*
X205005771Y-195300057D01*
X204862914Y-195442914D01*
X204720057Y-195514342D01*
X206220057Y-196442914D02*
X206291485Y-196514342D01*
X206220057Y-196585771D01*
X206148628Y-196514342D01*
X206220057Y-196442914D01*
X206220057Y-196585771D01*
X207005771Y-196585771D02*
X207291485Y-196585771D01*
X207434342Y-196514342D01*
X207505771Y-196442914D01*
X207648628Y-196228628D01*
X207720057Y-195942914D01*
X207720057Y-195371485D01*
X207648628Y-195228628D01*
X207577200Y-195157200D01*
X207434342Y-195085771D01*
X207148628Y-195085771D01*
X207005771Y-195157200D01*
X206934342Y-195228628D01*
X206862914Y-195371485D01*
X206862914Y-195728628D01*
X206934342Y-195871485D01*
X207005771Y-195942914D01*
X207148628Y-196014342D01*
X207434342Y-196014342D01*
X207577200Y-195942914D01*
X207648628Y-195871485D01*
X207720057Y-195728628D01*
X208220057Y-197157200D02*
X208291485Y-197085771D01*
X208434342Y-196871485D01*
X208505771Y-196728628D01*
X208577200Y-196514342D01*
X208648628Y-196157200D01*
X208648628Y-195871485D01*
X208577200Y-195514342D01*
X208505771Y-195300057D01*
X208434342Y-195157200D01*
X208291485Y-194942914D01*
X208220057Y-194871485D01*
X209362914Y-196014342D02*
X210505771Y-196014342D01*
X212005771Y-196585771D02*
X211148628Y-196585771D01*
X211577200Y-196585771D02*
X211577200Y-195085771D01*
X211434342Y-195300057D01*
X211291485Y-195442914D01*
X211148628Y-195514342D01*
D10*
D11*
X177002200Y-191507200D02*
X285002200Y-191507200D01*
D10*
D12*
X264411485Y-193785771D02*
X263911485Y-193071485D01*
X263554342Y-193785771D02*
X263554342Y-192285771D01*
X264125771Y-192285771D01*
X264268628Y-192357200D01*
X264340057Y-192428628D01*
X264411485Y-192571485D01*
X264411485Y-192785771D01*
X264340057Y-192928628D01*
X264268628Y-193000057D01*
X264125771Y-193071485D01*
X263554342Y-193071485D01*
X265625771Y-193714342D02*
X265482914Y-193785771D01*
X265197200Y-193785771D01*
X265054342Y-193714342D01*
X264982914Y-193571485D01*
X264982914Y-193000057D01*
X265054342Y-192857200D01*
X265197200Y-192785771D01*
X265482914Y-192785771D01*
X265625771Y-192857200D01*
X265697200Y-193000057D01*
X265697200Y-193142914D01*
X264982914Y-193285771D01*
X266197200Y-192785771D02*
X266554342Y-193785771D01*
X266911485Y-192785771D01*
X267482914Y-193642914D02*
X267554342Y-193714342D01*
X267482914Y-193785771D01*
X267411485Y-193714342D01*
X267482914Y-193642914D01*
X267482914Y-193785771D01*
X267482914Y-192857200D02*
X267554342Y-192928628D01*
X267482914Y-193000057D01*
X267411485Y-192928628D01*
X267482914Y-192857200D01*
X267482914Y-193000057D01*
D10*
D11*
X178362914Y-193714342D02*
X178577200Y-193785771D01*
X178934342Y-193785771D01*
X179077200Y-193714342D01*
X179148628Y-193642914D01*
X179220057Y-193500057D01*
X179220057Y-193357200D01*
X179148628Y-193214342D01*
X179077200Y-193142914D01*
X178934342Y-193071485D01*
X178648628Y-193000057D01*
X178505771Y-192928628D01*
X178434342Y-192857200D01*
X178362914Y-192714342D01*
X178362914Y-192571485D01*
X178434342Y-192428628D01*
X178505771Y-192357200D01*
X178648628Y-192285771D01*
X179005771Y-192285771D01*
X179220057Y-192357200D01*
X179862914Y-193785771D02*
X179862914Y-192785771D01*
X179862914Y-192285771D02*
X179791485Y-192357200D01*
X179862914Y-192428628D01*
X179934342Y-192357200D01*
X179862914Y-192285771D01*
X179862914Y-192428628D01*
X180434342Y-192785771D02*
X181220057Y-192785771D01*
X180434342Y-193785771D01*
X181220057Y-193785771D01*
X182362914Y-193714342D02*
X182220057Y-193785771D01*
X181934342Y-193785771D01*
X181791485Y-193714342D01*
X181720057Y-193571485D01*
X181720057Y-193000057D01*
X181791485Y-192857200D01*
X181934342Y-192785771D01*
X182220057Y-192785771D01*
X182362914Y-192857200D01*
X182434342Y-193000057D01*
X182434342Y-193142914D01*
X181720057Y-193285771D01*
X183077200Y-193642914D02*
X183148628Y-193714342D01*
X183077200Y-193785771D01*
X183005771Y-193714342D01*
X183077200Y-193642914D01*
X183077200Y-193785771D01*
X183077200Y-192857200D02*
X183148628Y-192928628D01*
X183077200Y-193000057D01*
X183005771Y-192928628D01*
X183077200Y-192857200D01*
X183077200Y-193000057D01*
X184862914Y-193357200D02*
X185577200Y-193357200D01*
X184720057Y-193785771D02*
X185220057Y-192285771D01*
X185720057Y-193785771D01*
X186862914Y-192785771D02*
X186862914Y-193785771D01*
X186505771Y-192214342D02*
X186148628Y-193285771D01*
X187077200Y-193285771D01*
D10*
D11*
X263434342Y-196585771D02*
X263434342Y-195085771D01*
X264791485Y-196585771D02*
X264791485Y-195085771D01*
X264791485Y-196514342D02*
X264648628Y-196585771D01*
X264362914Y-196585771D01*
X264220057Y-196514342D01*
X264148628Y-196442914D01*
X264077200Y-196300057D01*
X264077200Y-195871485D01*
X264148628Y-195728628D01*
X264220057Y-195657200D01*
X264362914Y-195585771D01*
X264648628Y-195585771D01*
X264791485Y-195657200D01*
X265505771Y-196442914D02*
X265577200Y-196514342D01*
X265505771Y-196585771D01*
X265434342Y-196514342D01*
X265505771Y-196442914D01*
X265505771Y-196585771D01*
X265505771Y-195657200D02*
X265577200Y-195728628D01*
X265505771Y-195800057D01*
X265434342Y-195728628D01*
X265505771Y-195657200D01*
X265505771Y-195800057D01*
X268148628Y-196585771D02*
X267291485Y-196585771D01*
X267720057Y-196585771D02*
X267720057Y-195085771D01*
X267577200Y-195300057D01*
X267434342Y-195442914D01*
X267291485Y-195514342D01*
X269862914Y-195014342D02*
X268577200Y-196942914D01*
X271148628Y-196585771D02*
X270291485Y-196585771D01*
X270720057Y-196585771D02*
X270720057Y-195085771D01*
X270577200Y-195300057D01*
X270434342Y-195442914D01*
X270291485Y-195514342D01*
D10*
D11*
X177002200Y-187507200D02*
X285002200Y-187507200D01*
D10*
D13*
X178714580Y-188211961D02*
X179857438Y-188211961D01*
X179036009Y-190211961D02*
X179286009Y-188211961D01*
X180274104Y-190211961D02*
X180440771Y-188878628D01*
X180524104Y-188211961D02*
X180416961Y-188307200D01*
X180500295Y-188402438D01*
X180607438Y-188307200D01*
X180524104Y-188211961D01*
X180500295Y-188402438D01*
X181107438Y-188878628D02*
X181869342Y-188878628D01*
X181476485Y-188211961D02*
X181262200Y-189926247D01*
X181333628Y-190116723D01*
X181512200Y-190211961D01*
X181702676Y-190211961D01*
X182655057Y-190211961D02*
X182476485Y-190116723D01*
X182405057Y-189926247D01*
X182619342Y-188211961D01*
X184190771Y-190116723D02*
X183988390Y-190211961D01*
X183607438Y-190211961D01*
X183428866Y-190116723D01*
X183357438Y-189926247D01*
X183452676Y-189164342D01*
X183571723Y-188973866D01*
X183774104Y-188878628D01*
X184155057Y-188878628D01*
X184333628Y-188973866D01*
X184405057Y-189164342D01*
X184381247Y-189354819D01*
X183405057Y-189545295D01*
X185155057Y-190021485D02*
X185238390Y-190116723D01*
X185131247Y-190211961D01*
X185047914Y-190116723D01*
X185155057Y-190021485D01*
X185131247Y-190211961D01*
X185286009Y-188973866D02*
X185369342Y-189069104D01*
X185262200Y-189164342D01*
X185178866Y-189069104D01*
X185286009Y-188973866D01*
X185262200Y-189164342D01*
D10*
D11*
X178934342Y-185600057D02*
X178434342Y-185600057D01*
X178434342Y-186385771D02*
X178434342Y-184885771D01*
X179148628Y-184885771D01*
X179720057Y-186385771D02*
X179720057Y-185385771D01*
X179720057Y-184885771D02*
X179648628Y-184957200D01*
X179720057Y-185028628D01*
X179791485Y-184957200D01*
X179720057Y-184885771D01*
X179720057Y-185028628D01*
X180648628Y-186385771D02*
X180505771Y-186314342D01*
X180434342Y-186171485D01*
X180434342Y-184885771D01*
X181791485Y-186314342D02*
X181648628Y-186385771D01*
X181362914Y-186385771D01*
X181220057Y-186314342D01*
X181148628Y-186171485D01*
X181148628Y-185600057D01*
X181220057Y-185457200D01*
X181362914Y-185385771D01*
X181648628Y-185385771D01*
X181791485Y-185457200D01*
X181862914Y-185600057D01*
X181862914Y-185742914D01*
X181148628Y-185885771D01*
X182505771Y-186242914D02*
X182577200Y-186314342D01*
X182505771Y-186385771D01*
X182434342Y-186314342D01*
X182505771Y-186242914D01*
X182505771Y-186385771D01*
X182505771Y-185457200D02*
X182577200Y-185528628D01*
X182505771Y-185600057D01*
X182434342Y-185528628D01*
X182505771Y-185457200D01*
X182505771Y-185600057D01*
X184291485Y-185957200D02*
X185005771Y-185957200D01*
X184148628Y-186385771D02*
X184648628Y-184885771D01*
X185148628Y-186385771D01*
X185648628Y-186385771D02*
X185648628Y-185385771D01*
X185648628Y-185671485D02*
X185720057Y-185528628D01*
X185791485Y-185457200D01*
X185934342Y-185385771D01*
X186077200Y-185385771D01*
X187220057Y-186385771D02*
X187220057Y-184885771D01*
X187220057Y-186314342D02*
X187077200Y-186385771D01*
X186791485Y-186385771D01*
X186648628Y-186314342D01*
X186577200Y-186242914D01*
X186505771Y-186100057D01*
X186505771Y-185671485D01*
X186577200Y-185528628D01*
X186648628Y-185457200D01*
X186791485Y-185385771D01*
X187077200Y-185385771D01*
X187220057Y-185457200D01*
X188577200Y-185385771D02*
X188577200Y-186385771D01*
X187934342Y-185385771D02*
X187934342Y-186171485D01*
X188005771Y-186314342D01*
X188148628Y-186385771D01*
X188362914Y-186385771D01*
X188505771Y-186314342D01*
X188577200Y-186242914D01*
X189291485Y-186385771D02*
X189291485Y-185385771D01*
X189291485Y-185528628D02*
X189362914Y-185457200D01*
X189505771Y-185385771D01*
X189720057Y-185385771D01*
X189862914Y-185457200D01*
X189934342Y-185600057D01*
X189934342Y-186385771D01*
X189934342Y-185600057D02*
X190005771Y-185457200D01*
X190148628Y-185385771D01*
X190362914Y-185385771D01*
X190505771Y-185457200D01*
X190577200Y-185600057D01*
X190577200Y-186385771D01*
X191505771Y-186385771D02*
X191362914Y-186314342D01*
X191291485Y-186242914D01*
X191220057Y-186100057D01*
X191220057Y-185671485D01*
X191291485Y-185528628D01*
X191362914Y-185457200D01*
X191505771Y-185385771D01*
X191720057Y-185385771D01*
X191862914Y-185457200D01*
X191934342Y-185528628D01*
X192005771Y-185671485D01*
X192005771Y-186100057D01*
X191934342Y-186242914D01*
X191862914Y-186314342D01*
X191720057Y-186385771D01*
X191505771Y-186385771D01*
X192505771Y-185385771D02*
X192791485Y-186385771D01*
X193077200Y-185671485D01*
X193362914Y-186385771D01*
X193648628Y-185385771D01*
X194791485Y-186314342D02*
X194648628Y-186385771D01*
X194362914Y-186385771D01*
X194220057Y-186314342D01*
X194148628Y-186171485D01*
X194148628Y-185600057D01*
X194220057Y-185457200D01*
X194362914Y-185385771D01*
X194648628Y-185385771D01*
X194791485Y-185457200D01*
X194862914Y-185600057D01*
X194862914Y-185742914D01*
X194148628Y-185885771D01*
X195505771Y-186385771D02*
X195505771Y-185385771D01*
X195505771Y-185671485D02*
X195577200Y-185528628D01*
X195648628Y-185457200D01*
X195791485Y-185385771D01*
X195934342Y-185385771D01*
X196434342Y-186242914D02*
X196505771Y-186314342D01*
X196434342Y-186385771D01*
X196362914Y-186314342D01*
X196434342Y-186242914D01*
X196434342Y-186385771D01*
X197148628Y-186385771D02*
X197148628Y-184885771D01*
X197291485Y-185814342D02*
X197720057Y-186385771D01*
X197720057Y-185385771D02*
X197148628Y-185957200D01*
X198362914Y-186385771D02*
X198362914Y-185385771D01*
X198362914Y-184885771D02*
X198291485Y-184957200D01*
X198362914Y-185028628D01*
X198434342Y-184957200D01*
X198362914Y-184885771D01*
X198362914Y-185028628D01*
X199720057Y-186314342D02*
X199577200Y-186385771D01*
X199291485Y-186385771D01*
X199148628Y-186314342D01*
X199077200Y-186242914D01*
X199005771Y-186100057D01*
X199005771Y-185671485D01*
X199077200Y-185528628D01*
X199148628Y-185457200D01*
X199291485Y-185385771D01*
X199577200Y-185385771D01*
X199720057Y-185457200D01*
X201005771Y-186385771D02*
X201005771Y-185600057D01*
X200934342Y-185457200D01*
X200791485Y-185385771D01*
X200505771Y-185385771D01*
X200362914Y-185457200D01*
X201005771Y-186314342D02*
X200862914Y-186385771D01*
X200505771Y-186385771D01*
X200362914Y-186314342D01*
X200291485Y-186171485D01*
X200291485Y-186028628D01*
X200362914Y-185885771D01*
X200505771Y-185814342D01*
X200862914Y-185814342D01*
X201005771Y-185742914D01*
X202362914Y-186385771D02*
X202362914Y-184885771D01*
X202362914Y-186314342D02*
X202220057Y-186385771D01*
X201934342Y-186385771D01*
X201791485Y-186314342D01*
X201720057Y-186242914D01*
X201648628Y-186100057D01*
X201648628Y-185671485D01*
X201720057Y-185528628D01*
X201791485Y-185457200D01*
X201934342Y-185385771D01*
X202220057Y-185385771D01*
X202362914Y-185457200D01*
X202720057Y-186528628D02*
X203862914Y-186528628D01*
X204220057Y-185385771D02*
X204220057Y-186885771D01*
X204220057Y-185457200D02*
X204362914Y-185385771D01*
X204648628Y-185385771D01*
X204791485Y-185457200D01*
X204862914Y-185528628D01*
X204934342Y-185671485D01*
X204934342Y-186100057D01*
X204862914Y-186242914D01*
X204791485Y-186314342D01*
X204648628Y-186385771D01*
X204362914Y-186385771D01*
X204220057Y-186314342D01*
X206220057Y-186314342D02*
X206077200Y-186385771D01*
X205791485Y-186385771D01*
X205648628Y-186314342D01*
X205577200Y-186242914D01*
X205505771Y-186100057D01*
X205505771Y-185671485D01*
X205577200Y-185528628D01*
X205648628Y-185457200D01*
X205791485Y-185385771D01*
X206077200Y-185385771D01*
X206220057Y-185457200D01*
X206862914Y-186385771D02*
X206862914Y-184885771D01*
X206862914Y-185457200D02*
X207005771Y-185385771D01*
X207291485Y-185385771D01*
X207434342Y-185457200D01*
X207505771Y-185528628D01*
X207577200Y-185671485D01*
X207577200Y-186100057D01*
X207505771Y-186242914D01*
X207434342Y-186314342D01*
X207291485Y-186385771D01*
X207005771Y-186385771D01*
X206862914Y-186314342D01*
D10*
D11*
X177002200Y-181507200D02*
X285002200Y-181507200D01*
D10*
D11*
X178362914Y-183614342D02*
X178577200Y-183685771D01*
X178934342Y-183685771D01*
X179077200Y-183614342D01*
X179148628Y-183542914D01*
X179220057Y-183400057D01*
X179220057Y-183257200D01*
X179148628Y-183114342D01*
X179077200Y-183042914D01*
X178934342Y-182971485D01*
X178648628Y-182900057D01*
X178505771Y-182828628D01*
X178434342Y-182757200D01*
X178362914Y-182614342D01*
X178362914Y-182471485D01*
X178434342Y-182328628D01*
X178505771Y-182257200D01*
X178648628Y-182185771D01*
X179005771Y-182185771D01*
X179220057Y-182257200D01*
X179862914Y-183685771D02*
X179862914Y-182185771D01*
X180505771Y-183685771D02*
X180505771Y-182900057D01*
X180434342Y-182757200D01*
X180291485Y-182685771D01*
X180077200Y-182685771D01*
X179934342Y-182757200D01*
X179862914Y-182828628D01*
X181791485Y-183614342D02*
X181648628Y-183685771D01*
X181362914Y-183685771D01*
X181220057Y-183614342D01*
X181148628Y-183471485D01*
X181148628Y-182900057D01*
X181220057Y-182757200D01*
X181362914Y-182685771D01*
X181648628Y-182685771D01*
X181791485Y-182757200D01*
X181862914Y-182900057D01*
X181862914Y-183042914D01*
X181148628Y-183185771D01*
X183077200Y-183614342D02*
X182934342Y-183685771D01*
X182648628Y-183685771D01*
X182505771Y-183614342D01*
X182434342Y-183471485D01*
X182434342Y-182900057D01*
X182505771Y-182757200D01*
X182648628Y-182685771D01*
X182934342Y-182685771D01*
X183077200Y-182757200D01*
X183148628Y-182900057D01*
X183148628Y-183042914D01*
X182434342Y-183185771D01*
X183577200Y-182685771D02*
X184148628Y-182685771D01*
X183791485Y-182185771D02*
X183791485Y-183471485D01*
X183862914Y-183614342D01*
X184005771Y-183685771D01*
X184148628Y-183685771D01*
X184648628Y-183542914D02*
X184720057Y-183614342D01*
X184648628Y-183685771D01*
X184577200Y-183614342D01*
X184648628Y-183542914D01*
X184648628Y-183685771D01*
X184648628Y-182757200D02*
X184720057Y-182828628D01*
X184648628Y-182900057D01*
X184577200Y-182828628D01*
X184648628Y-182757200D01*
X184648628Y-182900057D01*
D10*
D11*
X197002200Y-191507200D02*
X197002200Y-194507200D01*
D10*
D11*
X261002200Y-191507200D02*
X261002200Y-198007200D01*
D14*
%TO.C,J42*%
X183580000Y-62630000D03*
X183580000Y-60130000D03*
X183580000Y-57630000D03*
X183580000Y-55130000D03*
G36*
G01*
X182855000Y-51780000D02*
X184305000Y-51780000D01*
G75*
G02*
X184555000Y-52030000I0J-250000D01*
G01*
X184555000Y-53230000D01*
G75*
G02*
X184305000Y-53480000I-250000J0D01*
G01*
X182855000Y-53480000D01*
G75*
G02*
X182605000Y-53230000I0J250000D01*
G01*
X182605000Y-52030000D01*
G75*
G02*
X182855000Y-51780000I250000J0D01*
G01*
G37*
%TD*%
D15*
%TO.C,J41*%
X178400000Y-119250000D03*
X180900000Y-119250000D03*
X183400000Y-119250000D03*
X185900000Y-119250000D03*
G36*
G01*
X189250000Y-118525000D02*
X189250000Y-119975000D01*
G75*
G02*
X189000000Y-120225000I-250000J0D01*
G01*
X187800000Y-120225000D01*
G75*
G02*
X187550000Y-119975000I0J250000D01*
G01*
X187550000Y-118525000D01*
G75*
G02*
X187800000Y-118275000I250000J0D01*
G01*
X189000000Y-118275000D01*
G75*
G02*
X189250000Y-118525000I0J-250000D01*
G01*
G37*
%TD*%
%TO.C,J40*%
X178060000Y-82490000D03*
X180560000Y-82490000D03*
X183060000Y-82490000D03*
X185560000Y-82490000D03*
G36*
G01*
X188910000Y-81765000D02*
X188910000Y-83215000D01*
G75*
G02*
X188660000Y-83465000I-250000J0D01*
G01*
X187460000Y-83465000D01*
G75*
G02*
X187210000Y-83215000I0J250000D01*
G01*
X187210000Y-81765000D01*
G75*
G02*
X187460000Y-81515000I250000J0D01*
G01*
X188660000Y-81515000D01*
G75*
G02*
X188910000Y-81765000I0J-250000D01*
G01*
G37*
%TD*%
D14*
%TO.C,J39*%
X156900000Y-113920000D03*
X156900000Y-116420000D03*
X156900000Y-118920000D03*
G36*
G01*
X157625000Y-122270000D02*
X156175000Y-122270000D01*
G75*
G02*
X155925000Y-122020000I0J250000D01*
G01*
X155925000Y-120820000D01*
G75*
G02*
X156175000Y-120570000I250000J0D01*
G01*
X157625000Y-120570000D01*
G75*
G02*
X157875000Y-120820000I0J-250000D01*
G01*
X157875000Y-122020000D01*
G75*
G02*
X157625000Y-122270000I-250000J0D01*
G01*
G37*
%TD*%
%TO.C,J38*%
X133750000Y-113760000D03*
X133750000Y-116260000D03*
X133750000Y-118760000D03*
G36*
G01*
X134475000Y-122110000D02*
X133025000Y-122110000D01*
G75*
G02*
X132775000Y-121860000I0J250000D01*
G01*
X132775000Y-120660000D01*
G75*
G02*
X133025000Y-120410000I250000J0D01*
G01*
X134475000Y-120410000D01*
G75*
G02*
X134725000Y-120660000I0J-250000D01*
G01*
X134725000Y-121860000D01*
G75*
G02*
X134475000Y-122110000I-250000J0D01*
G01*
G37*
%TD*%
D16*
%TO.C,J36*%
X101580000Y-74380000D03*
G36*
G01*
X102330000Y-77730000D02*
X100830000Y-77730000D01*
G75*
G02*
X100580000Y-77480000I0J250000D01*
G01*
X100580000Y-76280000D01*
G75*
G02*
X100830000Y-76030000I250000J0D01*
G01*
X102330000Y-76030000D01*
G75*
G02*
X102580000Y-76280000I0J-250000D01*
G01*
X102580000Y-77480000D01*
G75*
G02*
X102330000Y-77730000I-250000J0D01*
G01*
G37*
%TD*%
%TO.C,J34*%
X82690000Y-74070000D03*
G36*
G01*
X83440000Y-77420000D02*
X81940000Y-77420000D01*
G75*
G02*
X81690000Y-77170000I0J250000D01*
G01*
X81690000Y-75970000D01*
G75*
G02*
X81940000Y-75720000I250000J0D01*
G01*
X83440000Y-75720000D01*
G75*
G02*
X83690000Y-75970000I0J-250000D01*
G01*
X83690000Y-77170000D01*
G75*
G02*
X83440000Y-77420000I-250000J0D01*
G01*
G37*
%TD*%
%TO.C,J33*%
X92120000Y-74150000D03*
G36*
G01*
X92870000Y-77500000D02*
X91370000Y-77500000D01*
G75*
G02*
X91120000Y-77250000I0J250000D01*
G01*
X91120000Y-76050000D01*
G75*
G02*
X91370000Y-75800000I250000J0D01*
G01*
X92870000Y-75800000D01*
G75*
G02*
X93120000Y-76050000I0J-250000D01*
G01*
X93120000Y-77250000D01*
G75*
G02*
X92870000Y-77500000I-250000J0D01*
G01*
G37*
%TD*%
%TO.C,J32*%
X73190000Y-74070000D03*
G36*
G01*
X73940000Y-77420000D02*
X72440000Y-77420000D01*
G75*
G02*
X72190000Y-77170000I0J250000D01*
G01*
X72190000Y-75970000D01*
G75*
G02*
X72440000Y-75720000I250000J0D01*
G01*
X73940000Y-75720000D01*
G75*
G02*
X74190000Y-75970000I0J-250000D01*
G01*
X74190000Y-77170000D01*
G75*
G02*
X73940000Y-77420000I-250000J0D01*
G01*
G37*
%TD*%
D14*
%TO.C,J31*%
X107870000Y-49900000D03*
X107870000Y-47400000D03*
X107870000Y-44900000D03*
X107870000Y-42400000D03*
G36*
G01*
X107145000Y-39050000D02*
X108595000Y-39050000D01*
G75*
G02*
X108845000Y-39300000I0J-250000D01*
G01*
X108845000Y-40500000D01*
G75*
G02*
X108595000Y-40750000I-250000J0D01*
G01*
X107145000Y-40750000D01*
G75*
G02*
X106895000Y-40500000I0J250000D01*
G01*
X106895000Y-39300000D01*
G75*
G02*
X107145000Y-39050000I250000J0D01*
G01*
G37*
%TD*%
%TO.C,J30*%
X97420000Y-47270000D03*
X97420000Y-44770000D03*
X97420000Y-42270000D03*
G36*
G01*
X96695000Y-38920000D02*
X98145000Y-38920000D01*
G75*
G02*
X98395000Y-39170000I0J-250000D01*
G01*
X98395000Y-40370000D01*
G75*
G02*
X98145000Y-40620000I-250000J0D01*
G01*
X96695000Y-40620000D01*
G75*
G02*
X96445000Y-40370000I0J250000D01*
G01*
X96445000Y-39170000D01*
G75*
G02*
X96695000Y-38920000I250000J0D01*
G01*
G37*
%TD*%
%TO.C,J28*%
X145330000Y-113710000D03*
X145330000Y-116210000D03*
X145330000Y-118710000D03*
G36*
G01*
X146055000Y-122060000D02*
X144605000Y-122060000D01*
G75*
G02*
X144355000Y-121810000I0J250000D01*
G01*
X144355000Y-120610000D01*
G75*
G02*
X144605000Y-120360000I250000J0D01*
G01*
X146055000Y-120360000D01*
G75*
G02*
X146305000Y-120610000I0J-250000D01*
G01*
X146305000Y-121810000D01*
G75*
G02*
X146055000Y-122060000I-250000J0D01*
G01*
G37*
%TD*%
%TO.C,J27*%
X122630000Y-113910000D03*
X122630000Y-116410000D03*
X122630000Y-118910000D03*
G36*
G01*
X123355000Y-122260000D02*
X121905000Y-122260000D01*
G75*
G02*
X121655000Y-122010000I0J250000D01*
G01*
X121655000Y-120810000D01*
G75*
G02*
X121905000Y-120560000I250000J0D01*
G01*
X123355000Y-120560000D01*
G75*
G02*
X123605000Y-120810000I0J-250000D01*
G01*
X123605000Y-122010000D01*
G75*
G02*
X123355000Y-122260000I-250000J0D01*
G01*
G37*
%TD*%
D15*
%TO.C,J26*%
X178420000Y-107480000D03*
X180920000Y-107480000D03*
X183420000Y-107480000D03*
X185920000Y-107480000D03*
G36*
G01*
X189270000Y-106755000D02*
X189270000Y-108205000D01*
G75*
G02*
X189020000Y-108455000I-250000J0D01*
G01*
X187820000Y-108455000D01*
G75*
G02*
X187570000Y-108205000I0J250000D01*
G01*
X187570000Y-106755000D01*
G75*
G02*
X187820000Y-106505000I250000J0D01*
G01*
X189020000Y-106505000D01*
G75*
G02*
X189270000Y-106755000I0J-250000D01*
G01*
G37*
%TD*%
D14*
%TO.C,J24*%
X116420000Y-49870000D03*
X116420000Y-47370000D03*
X116420000Y-44870000D03*
X116420000Y-42370000D03*
G36*
G01*
X115695000Y-39020000D02*
X117145000Y-39020000D01*
G75*
G02*
X117395000Y-39270000I0J-250000D01*
G01*
X117395000Y-40470000D01*
G75*
G02*
X117145000Y-40720000I-250000J0D01*
G01*
X115695000Y-40720000D01*
G75*
G02*
X115445000Y-40470000I0J250000D01*
G01*
X115445000Y-39270000D01*
G75*
G02*
X115695000Y-39020000I250000J0D01*
G01*
G37*
%TD*%
%TO.C,J23*%
X124820000Y-49870000D03*
X124820000Y-47370000D03*
X124820000Y-44870000D03*
X124820000Y-42370000D03*
G36*
G01*
X124095000Y-39020000D02*
X125545000Y-39020000D01*
G75*
G02*
X125795000Y-39270000I0J-250000D01*
G01*
X125795000Y-40470000D01*
G75*
G02*
X125545000Y-40720000I-250000J0D01*
G01*
X124095000Y-40720000D01*
G75*
G02*
X123845000Y-40470000I0J250000D01*
G01*
X123845000Y-39270000D01*
G75*
G02*
X124095000Y-39020000I250000J0D01*
G01*
G37*
%TD*%
%TO.C,J22*%
X133310000Y-49920000D03*
X133310000Y-47420000D03*
X133310000Y-44920000D03*
X133310000Y-42420000D03*
G36*
G01*
X132585000Y-39070000D02*
X134035000Y-39070000D01*
G75*
G02*
X134285000Y-39320000I0J-250000D01*
G01*
X134285000Y-40520000D01*
G75*
G02*
X134035000Y-40770000I-250000J0D01*
G01*
X132585000Y-40770000D01*
G75*
G02*
X132335000Y-40520000I0J250000D01*
G01*
X132335000Y-39320000D01*
G75*
G02*
X132585000Y-39070000I250000J0D01*
G01*
G37*
%TD*%
%TO.C,J21*%
X44970000Y-96330000D03*
X44970000Y-93830000D03*
X44970000Y-91330000D03*
X44970000Y-88830000D03*
X44970000Y-86330000D03*
G36*
G01*
X44245000Y-82980000D02*
X45695000Y-82980000D01*
G75*
G02*
X45945000Y-83230000I0J-250000D01*
G01*
X45945000Y-84430000D01*
G75*
G02*
X45695000Y-84680000I-250000J0D01*
G01*
X44245000Y-84680000D01*
G75*
G02*
X43995000Y-84430000I0J250000D01*
G01*
X43995000Y-83230000D01*
G75*
G02*
X44245000Y-82980000I250000J0D01*
G01*
G37*
%TD*%
%TO.C,J20*%
X62030000Y-46810000D03*
X62030000Y-44310000D03*
X62030000Y-41810000D03*
G36*
G01*
X61305000Y-38460000D02*
X62755000Y-38460000D01*
G75*
G02*
X63005000Y-38710000I0J-250000D01*
G01*
X63005000Y-39910000D01*
G75*
G02*
X62755000Y-40160000I-250000J0D01*
G01*
X61305000Y-40160000D01*
G75*
G02*
X61055000Y-39910000I0J250000D01*
G01*
X61055000Y-38710000D01*
G75*
G02*
X61305000Y-38460000I250000J0D01*
G01*
G37*
%TD*%
%TO.C,J19*%
X88580000Y-113880000D03*
X88580000Y-116380000D03*
G36*
G01*
X89305000Y-119730000D02*
X87855000Y-119730000D01*
G75*
G02*
X87605000Y-119480000I0J250000D01*
G01*
X87605000Y-118280000D01*
G75*
G02*
X87855000Y-118030000I250000J0D01*
G01*
X89305000Y-118030000D01*
G75*
G02*
X89555000Y-118280000I0J-250000D01*
G01*
X89555000Y-119480000D01*
G75*
G02*
X89305000Y-119730000I-250000J0D01*
G01*
G37*
%TD*%
D16*
%TO.C,J18*%
X54030000Y-112190000D03*
G36*
G01*
X54780000Y-115540000D02*
X53280000Y-115540000D01*
G75*
G02*
X53030000Y-115290000I0J250000D01*
G01*
X53030000Y-114090000D01*
G75*
G02*
X53280000Y-113840000I250000J0D01*
G01*
X54780000Y-113840000D01*
G75*
G02*
X55030000Y-114090000I0J-250000D01*
G01*
X55030000Y-115290000D01*
G75*
G02*
X54780000Y-115540000I-250000J0D01*
G01*
G37*
%TD*%
%TO.C,J17*%
X54090000Y-102250000D03*
G36*
G01*
X54840000Y-105600000D02*
X53340000Y-105600000D01*
G75*
G02*
X53090000Y-105350000I0J250000D01*
G01*
X53090000Y-104150000D01*
G75*
G02*
X53340000Y-103900000I250000J0D01*
G01*
X54840000Y-103900000D01*
G75*
G02*
X55090000Y-104150000I0J-250000D01*
G01*
X55090000Y-105350000D01*
G75*
G02*
X54840000Y-105600000I-250000J0D01*
G01*
G37*
%TD*%
%TO.C,J16*%
X43270000Y-115100000D03*
G36*
G01*
X44020000Y-118450000D02*
X42520000Y-118450000D01*
G75*
G02*
X42270000Y-118200000I0J250000D01*
G01*
X42270000Y-117000000D01*
G75*
G02*
X42520000Y-116750000I250000J0D01*
G01*
X44020000Y-116750000D01*
G75*
G02*
X44270000Y-117000000I0J-250000D01*
G01*
X44270000Y-118200000D01*
G75*
G02*
X44020000Y-118450000I-250000J0D01*
G01*
G37*
%TD*%
%TO.C,J15*%
X43090000Y-104780000D03*
G36*
G01*
X43840000Y-108130000D02*
X42340000Y-108130000D01*
G75*
G02*
X42090000Y-107880000I0J250000D01*
G01*
X42090000Y-106680000D01*
G75*
G02*
X42340000Y-106430000I250000J0D01*
G01*
X43840000Y-106430000D01*
G75*
G02*
X44090000Y-106680000I0J-250000D01*
G01*
X44090000Y-107880000D01*
G75*
G02*
X43840000Y-108130000I-250000J0D01*
G01*
G37*
%TD*%
D14*
%TO.C,J14*%
X71130000Y-127920000D03*
X71130000Y-125420000D03*
G36*
G01*
X70405000Y-122070000D02*
X71855000Y-122070000D01*
G75*
G02*
X72105000Y-122320000I0J-250000D01*
G01*
X72105000Y-123520000D01*
G75*
G02*
X71855000Y-123770000I-250000J0D01*
G01*
X70405000Y-123770000D01*
G75*
G02*
X70155000Y-123520000I0J250000D01*
G01*
X70155000Y-122320000D01*
G75*
G02*
X70405000Y-122070000I250000J0D01*
G01*
G37*
%TD*%
%TO.C,J13*%
X98440000Y-113970000D03*
X98440000Y-116470000D03*
G36*
G01*
X99165000Y-119820000D02*
X97715000Y-119820000D01*
G75*
G02*
X97465000Y-119570000I0J250000D01*
G01*
X97465000Y-118370000D01*
G75*
G02*
X97715000Y-118120000I250000J0D01*
G01*
X99165000Y-118120000D01*
G75*
G02*
X99415000Y-118370000I0J-250000D01*
G01*
X99415000Y-119570000D01*
G75*
G02*
X99165000Y-119820000I-250000J0D01*
G01*
G37*
%TD*%
%TO.C,J12*%
X162140000Y-50170000D03*
X162140000Y-47670000D03*
X162140000Y-45170000D03*
G36*
G01*
X161415000Y-41820000D02*
X162865000Y-41820000D01*
G75*
G02*
X163115000Y-42070000I0J-250000D01*
G01*
X163115000Y-43270000D01*
G75*
G02*
X162865000Y-43520000I-250000J0D01*
G01*
X161415000Y-43520000D01*
G75*
G02*
X161165000Y-43270000I0J250000D01*
G01*
X161165000Y-42070000D01*
G75*
G02*
X161415000Y-41820000I250000J0D01*
G01*
G37*
%TD*%
%TO.C,J11*%
X142760000Y-50050000D03*
X142760000Y-47550000D03*
X142760000Y-45050000D03*
G36*
G01*
X142035000Y-41700000D02*
X143485000Y-41700000D01*
G75*
G02*
X143735000Y-41950000I0J-250000D01*
G01*
X143735000Y-43150000D01*
G75*
G02*
X143485000Y-43400000I-250000J0D01*
G01*
X142035000Y-43400000D01*
G75*
G02*
X141785000Y-43150000I0J250000D01*
G01*
X141785000Y-41950000D01*
G75*
G02*
X142035000Y-41700000I250000J0D01*
G01*
G37*
%TD*%
%TO.C,J10*%
X152330000Y-50080000D03*
X152330000Y-47580000D03*
X152330000Y-45080000D03*
G36*
G01*
X151605000Y-41730000D02*
X153055000Y-41730000D01*
G75*
G02*
X153305000Y-41980000I0J-250000D01*
G01*
X153305000Y-43180000D01*
G75*
G02*
X153055000Y-43430000I-250000J0D01*
G01*
X151605000Y-43430000D01*
G75*
G02*
X151355000Y-43180000I0J250000D01*
G01*
X151355000Y-41980000D01*
G75*
G02*
X151605000Y-41730000I250000J0D01*
G01*
G37*
%TD*%
D15*
%TO.C,J9*%
X69260000Y-114580000D03*
X66760000Y-114580000D03*
G36*
G01*
X63410000Y-115305000D02*
X63410000Y-113855000D01*
G75*
G02*
X63660000Y-113605000I250000J0D01*
G01*
X64860000Y-113605000D01*
G75*
G02*
X65110000Y-113855000I0J-250000D01*
G01*
X65110000Y-115305000D01*
G75*
G02*
X64860000Y-115555000I-250000J0D01*
G01*
X63660000Y-115555000D01*
G75*
G02*
X63410000Y-115305000I0J250000D01*
G01*
G37*
%TD*%
D14*
%TO.C,J8*%
X108380000Y-113970000D03*
X108380000Y-116470000D03*
G36*
G01*
X109105000Y-119820000D02*
X107655000Y-119820000D01*
G75*
G02*
X107405000Y-119570000I0J250000D01*
G01*
X107405000Y-118370000D01*
G75*
G02*
X107655000Y-118120000I250000J0D01*
G01*
X109105000Y-118120000D01*
G75*
G02*
X109355000Y-118370000I0J-250000D01*
G01*
X109355000Y-119570000D01*
G75*
G02*
X109105000Y-119820000I-250000J0D01*
G01*
G37*
%TD*%
D15*
%TO.C,J7*%
X178180000Y-94250000D03*
X180680000Y-94250000D03*
X183180000Y-94250000D03*
X185680000Y-94250000D03*
G36*
G01*
X189030000Y-93525000D02*
X189030000Y-94975000D01*
G75*
G02*
X188780000Y-95225000I-250000J0D01*
G01*
X187580000Y-95225000D01*
G75*
G02*
X187330000Y-94975000I0J250000D01*
G01*
X187330000Y-93525000D01*
G75*
G02*
X187580000Y-93275000I250000J0D01*
G01*
X188780000Y-93275000D01*
G75*
G02*
X189030000Y-93525000I0J-250000D01*
G01*
G37*
%TD*%
D14*
%TO.C,J6*%
X78720000Y-113730000D03*
X78720000Y-116230000D03*
X78720000Y-118730000D03*
G36*
G01*
X79445000Y-122080000D02*
X77995000Y-122080000D01*
G75*
G02*
X77745000Y-121830000I0J250000D01*
G01*
X77745000Y-120630000D01*
G75*
G02*
X77995000Y-120380000I250000J0D01*
G01*
X79445000Y-120380000D01*
G75*
G02*
X79695000Y-120630000I0J-250000D01*
G01*
X79695000Y-121830000D01*
G75*
G02*
X79445000Y-122080000I-250000J0D01*
G01*
G37*
%TD*%
%TO.C,J5*%
X203230000Y-80180000D03*
X203230000Y-77680000D03*
X203230000Y-75180000D03*
G36*
G01*
X202505000Y-71830000D02*
X203955000Y-71830000D01*
G75*
G02*
X204205000Y-72080000I0J-250000D01*
G01*
X204205000Y-73280000D01*
G75*
G02*
X203955000Y-73530000I-250000J0D01*
G01*
X202505000Y-73530000D01*
G75*
G02*
X202255000Y-73280000I0J250000D01*
G01*
X202255000Y-72080000D01*
G75*
G02*
X202505000Y-71830000I250000J0D01*
G01*
G37*
%TD*%
%TO.C,J4*%
X88240000Y-47160000D03*
X88240000Y-44660000D03*
X88240000Y-42160000D03*
G36*
G01*
X87515000Y-38810000D02*
X88965000Y-38810000D01*
G75*
G02*
X89215000Y-39060000I0J-250000D01*
G01*
X89215000Y-40260000D01*
G75*
G02*
X88965000Y-40510000I-250000J0D01*
G01*
X87515000Y-40510000D01*
G75*
G02*
X87265000Y-40260000I0J250000D01*
G01*
X87265000Y-39060000D01*
G75*
G02*
X87515000Y-38810000I250000J0D01*
G01*
G37*
%TD*%
%TO.C,J3*%
X79860000Y-46970000D03*
X79860000Y-44470000D03*
X79860000Y-41970000D03*
G36*
G01*
X79135000Y-38620000D02*
X80585000Y-38620000D01*
G75*
G02*
X80835000Y-38870000I0J-250000D01*
G01*
X80835000Y-40070000D01*
G75*
G02*
X80585000Y-40320000I-250000J0D01*
G01*
X79135000Y-40320000D01*
G75*
G02*
X78885000Y-40070000I0J250000D01*
G01*
X78885000Y-38870000D01*
G75*
G02*
X79135000Y-38620000I250000J0D01*
G01*
G37*
%TD*%
%TO.C,J2*%
X70480000Y-46880000D03*
X70480000Y-44380000D03*
X70480000Y-41880000D03*
G36*
G01*
X69755000Y-38530000D02*
X71205000Y-38530000D01*
G75*
G02*
X71455000Y-38780000I0J-250000D01*
G01*
X71455000Y-39980000D01*
G75*
G02*
X71205000Y-40230000I-250000J0D01*
G01*
X69755000Y-40230000D01*
G75*
G02*
X69505000Y-39980000I0J250000D01*
G01*
X69505000Y-38780000D01*
G75*
G02*
X69755000Y-38530000I250000J0D01*
G01*
G37*
%TD*%
D17*
%TO.C,R21*%
X143510000Y-126060000D03*
D18*
X143510000Y-128600000D03*
%TD*%
D17*
%TO.C,R20*%
X120800000Y-126040000D03*
D18*
X120800000Y-128580000D03*
%TD*%
D17*
%TO.C,R19*%
X148240000Y-126080000D03*
D18*
X148240000Y-128620000D03*
%TD*%
D17*
%TO.C,R18*%
X125420000Y-126040000D03*
D18*
X125420000Y-128580000D03*
%TD*%
D19*
%TO.C,JP5*%
X180750000Y-43400000D03*
X180750000Y-40860000D03*
D20*
X180750000Y-38320000D03*
%TD*%
D19*
%TO.C,JP4*%
X167310000Y-127940000D03*
X167310000Y-125400000D03*
D20*
X167310000Y-122860000D03*
%TD*%
D17*
%TO.C,R17*%
X155090000Y-126150000D03*
D18*
X155090000Y-128690000D03*
%TD*%
D17*
%TO.C,R16*%
X131940000Y-126040000D03*
D18*
X131940000Y-128580000D03*
%TD*%
D17*
%TO.C,R14*%
X159680000Y-126220000D03*
D18*
X159680000Y-128760000D03*
%TD*%
D17*
%TO.C,R6*%
X136540000Y-126040000D03*
D18*
X136540000Y-128580000D03*
%TD*%
D21*
%TO.C,H4*%
X41880000Y-128370000D03*
D22*
X41880000Y-128370000D03*
%TD*%
D21*
%TO.C,H3*%
X205600000Y-128210000D03*
D22*
X205600000Y-128210000D03*
%TD*%
D21*
%TO.C,H2*%
X205750000Y-38270000D03*
D22*
X205750000Y-38270000D03*
%TD*%
D21*
%TO.C,H1*%
X41810000Y-38440000D03*
D22*
X41810000Y-38440000D03*
%TD*%
D23*
%TO.C,U2*%
X195421500Y-86526500D03*
X195421500Y-127293500D03*
D24*
X173514000Y-90400000D03*
X173514000Y-92940000D03*
X173514000Y-100560000D03*
X173514000Y-103100000D03*
X173514000Y-105640000D03*
X173514000Y-113260000D03*
X173514000Y-115800000D03*
X194342000Y-98528000D03*
X194342000Y-102084000D03*
X194342000Y-105640000D03*
X194342000Y-109196000D03*
X194342000Y-112752000D03*
X194342000Y-116308000D03*
X170974000Y-85320000D03*
X170974000Y-87860000D03*
X170974000Y-90400000D03*
X170974000Y-92940000D03*
X170974000Y-95480000D03*
X170974000Y-98020000D03*
X170974000Y-100560000D03*
X170974000Y-103100000D03*
X170974000Y-105640000D03*
X170974000Y-108180000D03*
X170974000Y-110720000D03*
X170974000Y-113260000D03*
X170974000Y-115800000D03*
X170974000Y-118340000D03*
X170974000Y-120880000D03*
X170974000Y-123420000D03*
X170974000Y-125960000D03*
X170974000Y-128500000D03*
%TD*%
D17*
%TO.C,R4*%
X90390000Y-54790000D03*
D18*
X90390000Y-52250000D03*
%TD*%
D17*
%TO.C,R3*%
X68080000Y-54290000D03*
D18*
X68080000Y-51750000D03*
%TD*%
D17*
%TO.C,R2*%
X85650000Y-54820000D03*
D18*
X85650000Y-52280000D03*
%TD*%
D17*
%TO.C,R1*%
X72780000Y-54290000D03*
D18*
X72780000Y-51750000D03*
%TD*%
D19*
%TO.C,JP3*%
X58960000Y-80440000D03*
X58960000Y-77900000D03*
D20*
X58960000Y-75360000D03*
%TD*%
D19*
%TO.C,JP2*%
X62570000Y-126290000D03*
D20*
X62570000Y-123750000D03*
%TD*%
D19*
%TO.C,JP1*%
X58920000Y-68700000D03*
X58920000Y-66160000D03*
D20*
X58920000Y-63620000D03*
%TD*%
D25*
%TO.C,J29*%
X44990000Y-74580000D03*
D26*
X44990000Y-69500000D03*
%TD*%
D25*
%TO.C,J25*%
X44890000Y-63290000D03*
D26*
X44890000Y-58210000D03*
%TD*%
D27*
%TO.C,D8*%
X52370000Y-80950000D03*
D28*
X52370000Y-70790000D03*
%TD*%
D27*
%TO.C,D7*%
X52370000Y-67780000D03*
D28*
X52370000Y-57620000D03*
%TD*%
D23*
%TO.C,U1*%
X195421500Y-38236500D03*
X195421500Y-79003500D03*
D24*
X173514000Y-42110000D03*
X173514000Y-44650000D03*
X173514000Y-52270000D03*
X173514000Y-54810000D03*
X173514000Y-57350000D03*
X173514000Y-64970000D03*
X173514000Y-67510000D03*
X194342000Y-50238000D03*
X194342000Y-53794000D03*
X194342000Y-57350000D03*
X194342000Y-60906000D03*
X194342000Y-64462000D03*
X194342000Y-68018000D03*
X170974000Y-37030000D03*
X170974000Y-39570000D03*
X170974000Y-42110000D03*
X170974000Y-44650000D03*
X170974000Y-47190000D03*
X170974000Y-49730000D03*
X170974000Y-52270000D03*
X170974000Y-54810000D03*
X170974000Y-57350000D03*
X170974000Y-59890000D03*
X170974000Y-62430000D03*
X170974000Y-64970000D03*
X170974000Y-67510000D03*
X170974000Y-70050000D03*
X170974000Y-72590000D03*
X170974000Y-75130000D03*
X170974000Y-77670000D03*
X170974000Y-80210000D03*
%TD*%
D29*
%TO.C,D2*%
X49430000Y-40710000D03*
D30*
X49430000Y-38170000D03*
%TD*%
D31*
%TO.C,XA1*%
X130677000Y-79570000D03*
X163570000Y-102430000D03*
X161030000Y-102430000D03*
X163570000Y-99890000D03*
X161030000Y-99890000D03*
X163570000Y-97350000D03*
X161030000Y-97350000D03*
X163570000Y-94810000D03*
X161030000Y-94810000D03*
X163570000Y-92270000D03*
X161030000Y-92270000D03*
X163570000Y-89730000D03*
X161030000Y-89730000D03*
X163570000Y-87190000D03*
X161030000Y-87190000D03*
X163570000Y-84650000D03*
X161030000Y-84650000D03*
X163570000Y-82110000D03*
X161030000Y-82110000D03*
X163570000Y-79570000D03*
X161030000Y-79570000D03*
X163570000Y-77030000D03*
X161030000Y-77030000D03*
X163570000Y-74490000D03*
X161030000Y-74490000D03*
X163570000Y-71950000D03*
X161030000Y-71950000D03*
X163570000Y-69410000D03*
X161030000Y-69410000D03*
X163570000Y-66870000D03*
X161030000Y-66870000D03*
X163570000Y-64330000D03*
X161030000Y-64330000D03*
X163570000Y-61790000D03*
X161030000Y-61790000D03*
X163570000Y-59250000D03*
X161030000Y-59250000D03*
X158490000Y-107510000D03*
X155950000Y-107510000D03*
X153410000Y-107510000D03*
X150870000Y-107510000D03*
X148330000Y-107510000D03*
X145790000Y-107510000D03*
X143250000Y-107510000D03*
X140710000Y-107510000D03*
X135630000Y-107510000D03*
X133090000Y-107510000D03*
X130550000Y-107510000D03*
X128010000Y-107510000D03*
X125470000Y-107510000D03*
X122930000Y-107510000D03*
X120390000Y-107510000D03*
X94990000Y-107510000D03*
X101086000Y-59250000D03*
X98546000Y-59250000D03*
X96006000Y-59250000D03*
X90926000Y-59250000D03*
X88386000Y-59250000D03*
X85846000Y-59250000D03*
D32*
X81020000Y-107510000D03*
X163570000Y-107510000D03*
X82290000Y-59250000D03*
X157220000Y-59250000D03*
X133090000Y-74490000D03*
X133090000Y-102430000D03*
D31*
X103626000Y-59250000D03*
X106166000Y-59250000D03*
X108706000Y-59250000D03*
X93466000Y-59250000D03*
X112770000Y-59250000D03*
X115310000Y-59250000D03*
X117850000Y-59250000D03*
X120390000Y-59250000D03*
X122930000Y-59250000D03*
X125470000Y-59250000D03*
X128010000Y-59250000D03*
X130550000Y-59250000D03*
X135630000Y-59250000D03*
X138170000Y-59250000D03*
X140710000Y-59250000D03*
X143250000Y-59250000D03*
X145790000Y-59250000D03*
X148330000Y-59250000D03*
X150870000Y-59250000D03*
X153410000Y-59250000D03*
X97530000Y-107510000D03*
X100070000Y-107510000D03*
X102610000Y-107510000D03*
X105150000Y-107510000D03*
X107690000Y-107510000D03*
X110230000Y-107510000D03*
X112770000Y-107510000D03*
X117850000Y-107510000D03*
X133217000Y-79570000D03*
X130677000Y-82110000D03*
X133217000Y-82110000D03*
X133217000Y-84650000D03*
X130677000Y-84650000D03*
%TD*%
D23*
%TO.C,SP1*%
X52660000Y-121010160D03*
X52660000Y-128609840D03*
%TD*%
D17*
%TO.C,R11*%
X54630000Y-41230000D03*
D18*
X54630000Y-38690000D03*
%TD*%
D17*
%TO.C,R10*%
X91630000Y-124970000D03*
D18*
X91630000Y-127510000D03*
%TD*%
D17*
%TO.C,R9*%
X86840000Y-125060000D03*
D18*
X86840000Y-127600000D03*
%TD*%
D17*
%TO.C,R8*%
X96870000Y-124970000D03*
D18*
X96870000Y-127510000D03*
%TD*%
D17*
%TO.C,R7*%
X101580000Y-125060000D03*
D18*
X101580000Y-127600000D03*
%TD*%
D25*
%TO.C,J1*%
X44880000Y-51950000D03*
D26*
X44880000Y-46870000D03*
%TD*%
D27*
%TO.C,D1*%
X52370000Y-54400000D03*
D28*
X52370000Y-44240000D03*
%TD*%
D18*
%TO.C,C1*%
X60590000Y-55990000D03*
D33*
X58090000Y-55990000D03*
%TD*%
M02*
