%FSLAX45Y45*%
G04 Gerber Fmt 4.5, Leading zero omitted, Abs format (unit mm)*
G04 Created by KiCad (PCBNEW (5.1.9)-1) date 2021-05-21 09:57:01*
%MOMM*%
%LPD*%
G01*
G04 APERTURE LIST*
%TA.AperFunction,Profile*%
%ADD10C,0.050000*%
%TD*%
%ADD11C,0.200000*%
%ADD12C,0.300000*%
G04 APERTURE END LIST*
D10*
X20857000Y-3461000D02*
X3880000Y-3462000D01*
X20857000Y-13162000D02*
X20857000Y-3461000D01*
X3884000Y-13162000D02*
X20857000Y-13162000D01*
X3880000Y-3462000D02*
X3884000Y-13162000D01*
D11*
X8552110Y-8349550D02*
X8615610Y-8413050D01*
X8615610Y-8349550D02*
X8552110Y-8413050D01*
X12410410Y-8860310D02*
X12473910Y-8923810D01*
X12473910Y-8860310D02*
X12410410Y-8923810D01*
X12446900Y-9018210D02*
X12510400Y-9081710D01*
X12510400Y-9018210D02*
X12446900Y-9081710D01*
X12694220Y-9354590D02*
X12757720Y-9418090D01*
X12757720Y-9354590D02*
X12694220Y-9418090D01*
X13335650Y-9246780D02*
X13399150Y-9310280D01*
X13399150Y-9246780D02*
X13335650Y-9310280D01*
X14749560Y-8303750D02*
X14813060Y-8367250D01*
X14813060Y-8303750D02*
X14749560Y-8367250D01*
X15210880Y-9025350D02*
X15274380Y-9088850D01*
X15274380Y-9025350D02*
X15210880Y-9088850D01*
X15864040Y-6962700D02*
X15927540Y-7026200D01*
X15927540Y-6962700D02*
X15864040Y-7026200D01*
X16601830Y-7851530D02*
X16665330Y-7915030D01*
X16665330Y-7851530D02*
X16601830Y-7915030D01*
X17227520Y-8542770D02*
X17291020Y-8606270D01*
X17291020Y-8542770D02*
X17227520Y-8606270D01*
X17344230Y-8523910D02*
X17407730Y-8587410D01*
X17407730Y-8523910D02*
X17344230Y-8587410D01*
X17487030Y-8657600D02*
X17550530Y-8721100D01*
X17550530Y-8657600D02*
X17487030Y-8721100D01*
X17658150Y-8658450D02*
X17721650Y-8721950D01*
X17721650Y-8658450D02*
X17658150Y-8721950D01*
X17901460Y-9055460D02*
X17964960Y-9118960D01*
X17964960Y-9055460D02*
X17901460Y-9118960D01*
X18569570Y-7595580D02*
X18633070Y-7659080D01*
X18633070Y-7595580D02*
X18569570Y-7659080D01*
X17135500Y-3703000D02*
G75*
G03*
X17135500Y-3703000I-38100J0D01*
G01*
X17135500Y-3957000D02*
G75*
G03*
X17135500Y-3957000I-38100J0D01*
G01*
X17135500Y-4211000D02*
G75*
G03*
X17135500Y-4211000I-38100J0D01*
G01*
X17135500Y-4465000D02*
G75*
G03*
X17135500Y-4465000I-38100J0D01*
G01*
X17135500Y-4719000D02*
G75*
G03*
X17135500Y-4719000I-38100J0D01*
G01*
X17135500Y-4973000D02*
G75*
G03*
X17135500Y-4973000I-38100J0D01*
G01*
X17135500Y-5227000D02*
G75*
G03*
X17135500Y-5227000I-38100J0D01*
G01*
X17135500Y-5481000D02*
G75*
G03*
X17135500Y-5481000I-38100J0D01*
G01*
X17135500Y-5735000D02*
G75*
G03*
X17135500Y-5735000I-38100J0D01*
G01*
X17135500Y-5989000D02*
G75*
G03*
X17135500Y-5989000I-38100J0D01*
G01*
X17135500Y-6243000D02*
G75*
G03*
X17135500Y-6243000I-38100J0D01*
G01*
X17135500Y-6497000D02*
G75*
G03*
X17135500Y-6497000I-38100J0D01*
G01*
X17135500Y-6751000D02*
G75*
G03*
X17135500Y-6751000I-38100J0D01*
G01*
X17135500Y-7005000D02*
G75*
G03*
X17135500Y-7005000I-38100J0D01*
G01*
X17135500Y-7259000D02*
G75*
G03*
X17135500Y-7259000I-38100J0D01*
G01*
X17135500Y-7513000D02*
G75*
G03*
X17135500Y-7513000I-38100J0D01*
G01*
X17135500Y-7767000D02*
G75*
G03*
X17135500Y-7767000I-38100J0D01*
G01*
X17135500Y-8021000D02*
G75*
G03*
X17135500Y-8021000I-38100J0D01*
G01*
X17135500Y-8532000D02*
G75*
G03*
X17135500Y-8532000I-38100J0D01*
G01*
X17135500Y-8786000D02*
G75*
G03*
X17135500Y-8786000I-38100J0D01*
G01*
X17135500Y-9040000D02*
G75*
G03*
X17135500Y-9040000I-38100J0D01*
G01*
X17135500Y-9294000D02*
G75*
G03*
X17135500Y-9294000I-38100J0D01*
G01*
X17135500Y-9548000D02*
G75*
G03*
X17135500Y-9548000I-38100J0D01*
G01*
X17135500Y-9802000D02*
G75*
G03*
X17135500Y-9802000I-38100J0D01*
G01*
X17135500Y-10056000D02*
G75*
G03*
X17135500Y-10056000I-38100J0D01*
G01*
X17135500Y-10310000D02*
G75*
G03*
X17135500Y-10310000I-38100J0D01*
G01*
X17135500Y-10564000D02*
G75*
G03*
X17135500Y-10564000I-38100J0D01*
G01*
X17135500Y-10818000D02*
G75*
G03*
X17135500Y-10818000I-38100J0D01*
G01*
X17135500Y-11072000D02*
G75*
G03*
X17135500Y-11072000I-38100J0D01*
G01*
X17135500Y-11326000D02*
G75*
G03*
X17135500Y-11326000I-38100J0D01*
G01*
X17135500Y-11580000D02*
G75*
G03*
X17135500Y-11580000I-38100J0D01*
G01*
X17135500Y-11834000D02*
G75*
G03*
X17135500Y-11834000I-38100J0D01*
G01*
X17135500Y-12088000D02*
G75*
G03*
X17135500Y-12088000I-38100J0D01*
G01*
X17135500Y-12342000D02*
G75*
G03*
X17135500Y-12342000I-38100J0D01*
G01*
X17135500Y-12596000D02*
G75*
G03*
X17135500Y-12596000I-38100J0D01*
G01*
X17135500Y-12850000D02*
G75*
G03*
X17135500Y-12850000I-38100J0D01*
G01*
X17389500Y-4211000D02*
G75*
G03*
X17389500Y-4211000I-38100J0D01*
G01*
X17389500Y-4465000D02*
G75*
G03*
X17389500Y-4465000I-38100J0D01*
G01*
X17389500Y-5227000D02*
G75*
G03*
X17389500Y-5227000I-38100J0D01*
G01*
X17389500Y-5481000D02*
G75*
G03*
X17389500Y-5481000I-38100J0D01*
G01*
X17389500Y-5735000D02*
G75*
G03*
X17389500Y-5735000I-38100J0D01*
G01*
X17389500Y-6497000D02*
G75*
G03*
X17389500Y-6497000I-38100J0D01*
G01*
X17389500Y-6751000D02*
G75*
G03*
X17389500Y-6751000I-38100J0D01*
G01*
X17389500Y-9040000D02*
G75*
G03*
X17389500Y-9040000I-38100J0D01*
G01*
X17389500Y-9294000D02*
G75*
G03*
X17389500Y-9294000I-38100J0D01*
G01*
X17389500Y-10056000D02*
G75*
G03*
X17389500Y-10056000I-38100J0D01*
G01*
X17389500Y-10310000D02*
G75*
G03*
X17389500Y-10310000I-38100J0D01*
G01*
X17389500Y-10564000D02*
G75*
G03*
X17389500Y-10564000I-38100J0D01*
G01*
X17389500Y-11326000D02*
G75*
G03*
X17389500Y-11326000I-38100J0D01*
G01*
X17389500Y-11580000D02*
G75*
G03*
X17389500Y-11580000I-38100J0D01*
G01*
X19472300Y-5023800D02*
G75*
G03*
X19472300Y-5023800I-38100J0D01*
G01*
X19472300Y-5379400D02*
G75*
G03*
X19472300Y-5379400I-38100J0D01*
G01*
X19472300Y-5735000D02*
G75*
G03*
X19472300Y-5735000I-38100J0D01*
G01*
X19472300Y-6090600D02*
G75*
G03*
X19472300Y-6090600I-38100J0D01*
G01*
X19472300Y-6446200D02*
G75*
G03*
X19472300Y-6446200I-38100J0D01*
G01*
X19472300Y-6801800D02*
G75*
G03*
X19472300Y-6801800I-38100J0D01*
G01*
X19472300Y-9852800D02*
G75*
G03*
X19472300Y-9852800I-38100J0D01*
G01*
X19472300Y-10208400D02*
G75*
G03*
X19472300Y-10208400I-38100J0D01*
G01*
X19472300Y-10564000D02*
G75*
G03*
X19472300Y-10564000I-38100J0D01*
G01*
X19472300Y-10919600D02*
G75*
G03*
X19472300Y-10919600I-38100J0D01*
G01*
X19472300Y-11275200D02*
G75*
G03*
X19472300Y-11275200I-38100J0D01*
G01*
X19472300Y-11630800D02*
G75*
G03*
X19472300Y-11630800I-38100J0D01*
G01*
X5463000Y-3829000D02*
X5463000Y-3909000D01*
X5423000Y-3869000D02*
X5503000Y-3869000D01*
X5463000Y-4083000D02*
X5463000Y-4163000D01*
X5423000Y-4123000D02*
X5503000Y-4123000D01*
X5809000Y-5559000D02*
X5809000Y-5639000D01*
X5769000Y-5599000D02*
X5849000Y-5599000D01*
X6059000Y-5559000D02*
X6059000Y-5639000D01*
X6019000Y-5599000D02*
X6099000Y-5599000D01*
X6808000Y-5135000D02*
X6808000Y-5215000D01*
X6768000Y-5175000D02*
X6848000Y-5175000D01*
X6808000Y-5389000D02*
X6808000Y-5469000D01*
X6768000Y-5429000D02*
X6848000Y-5429000D01*
X7278000Y-5135000D02*
X7278000Y-5215000D01*
X7238000Y-5175000D02*
X7318000Y-5175000D01*
X7278000Y-5389000D02*
X7278000Y-5469000D01*
X7238000Y-5429000D02*
X7318000Y-5429000D01*
X8565000Y-5188000D02*
X8565000Y-5268000D01*
X8525000Y-5228000D02*
X8605000Y-5228000D01*
X8565000Y-5442000D02*
X8565000Y-5522000D01*
X8525000Y-5482000D02*
X8605000Y-5482000D01*
X8684000Y-12466000D02*
X8684000Y-12546000D01*
X8644000Y-12506000D02*
X8724000Y-12506000D01*
X8684000Y-12720000D02*
X8684000Y-12800000D01*
X8644000Y-12760000D02*
X8724000Y-12760000D01*
X9039000Y-5185000D02*
X9039000Y-5265000D01*
X8999000Y-5225000D02*
X9079000Y-5225000D01*
X9039000Y-5439000D02*
X9039000Y-5519000D01*
X8999000Y-5479000D02*
X9079000Y-5479000D01*
X9163000Y-12457000D02*
X9163000Y-12537000D01*
X9123000Y-12497000D02*
X9203000Y-12497000D01*
X9163000Y-12711000D02*
X9163000Y-12791000D01*
X9123000Y-12751000D02*
X9203000Y-12751000D01*
X9687000Y-12457000D02*
X9687000Y-12537000D01*
X9647000Y-12497000D02*
X9727000Y-12497000D01*
X9687000Y-12711000D02*
X9687000Y-12791000D01*
X9647000Y-12751000D02*
X9727000Y-12751000D01*
X10158000Y-12466000D02*
X10158000Y-12546000D01*
X10118000Y-12506000D02*
X10198000Y-12506000D01*
X10158000Y-12720000D02*
X10158000Y-12800000D01*
X10118000Y-12760000D02*
X10198000Y-12760000D01*
X12080000Y-12564000D02*
X12080000Y-12644000D01*
X12040000Y-12604000D02*
X12120000Y-12604000D01*
X12080000Y-12818000D02*
X12080000Y-12898000D01*
X12040000Y-12858000D02*
X12120000Y-12858000D01*
X12542000Y-12564000D02*
X12542000Y-12644000D01*
X12502000Y-12604000D02*
X12582000Y-12604000D01*
X12542000Y-12818000D02*
X12542000Y-12898000D01*
X12502000Y-12858000D02*
X12582000Y-12858000D01*
X13194000Y-12564000D02*
X13194000Y-12644000D01*
X13154000Y-12604000D02*
X13234000Y-12604000D01*
X13194000Y-12818000D02*
X13194000Y-12898000D01*
X13154000Y-12858000D02*
X13234000Y-12858000D01*
X13654000Y-12564000D02*
X13654000Y-12644000D01*
X13614000Y-12604000D02*
X13694000Y-12604000D01*
X13654000Y-12818000D02*
X13654000Y-12898000D01*
X13614000Y-12858000D02*
X13694000Y-12858000D01*
X14351000Y-12566000D02*
X14351000Y-12646000D01*
X14311000Y-12606000D02*
X14391000Y-12606000D01*
X14351000Y-12820000D02*
X14351000Y-12900000D01*
X14311000Y-12860000D02*
X14391000Y-12860000D01*
X14824000Y-12568000D02*
X14824000Y-12648000D01*
X14784000Y-12608000D02*
X14864000Y-12608000D01*
X14824000Y-12822000D02*
X14824000Y-12902000D01*
X14784000Y-12862000D02*
X14864000Y-12862000D01*
X15509000Y-12575000D02*
X15509000Y-12655000D01*
X15469000Y-12615000D02*
X15549000Y-12615000D01*
X15509000Y-12829000D02*
X15509000Y-12909000D01*
X15469000Y-12869000D02*
X15549000Y-12869000D01*
X15968000Y-12582000D02*
X15968000Y-12662000D01*
X15928000Y-12622000D02*
X16008000Y-12622000D01*
X15968000Y-12836000D02*
X15968000Y-12916000D01*
X15928000Y-12876000D02*
X16008000Y-12876000D01*
X4974820Y-3848820D02*
X4974820Y-3785180D01*
X4911180Y-3785180D01*
X4911180Y-3848820D01*
X4974820Y-3848820D01*
X4974820Y-4102820D02*
X4974820Y-4039180D01*
X4911180Y-4039180D01*
X4911180Y-4102820D01*
X4974820Y-4102820D01*
X4497000Y-8430500D02*
X4544500Y-8383000D01*
X4497000Y-8335500D01*
X4449500Y-8383000D01*
X4497000Y-8430500D01*
X4497000Y-8680500D02*
X4544500Y-8633000D01*
X4497000Y-8585500D01*
X4449500Y-8633000D01*
X4497000Y-8680500D01*
X4497000Y-8930500D02*
X4544500Y-8883000D01*
X4497000Y-8835500D01*
X4449500Y-8883000D01*
X4497000Y-8930500D01*
X4497000Y-9180500D02*
X4544500Y-9133000D01*
X4497000Y-9085500D01*
X4449500Y-9133000D01*
X4497000Y-9180500D01*
X4497000Y-9430500D02*
X4544500Y-9383000D01*
X4497000Y-9335500D01*
X4449500Y-9383000D01*
X4497000Y-9430500D01*
X4497000Y-9680500D02*
X4544500Y-9633000D01*
X4497000Y-9585500D01*
X4449500Y-9633000D01*
X4497000Y-9680500D01*
X6203000Y-3978500D02*
X6250500Y-3931000D01*
X6203000Y-3883500D01*
X6155500Y-3931000D01*
X6203000Y-3978500D01*
X6203000Y-4228500D02*
X6250500Y-4181000D01*
X6203000Y-4133500D01*
X6155500Y-4181000D01*
X6203000Y-4228500D01*
X6203000Y-4478500D02*
X6250500Y-4431000D01*
X6203000Y-4383500D01*
X6155500Y-4431000D01*
X6203000Y-4478500D01*
X6203000Y-4728500D02*
X6250500Y-4681000D01*
X6203000Y-4633500D01*
X6155500Y-4681000D01*
X6203000Y-4728500D01*
X6426000Y-11505500D02*
X6473500Y-11458000D01*
X6426000Y-11410500D01*
X6378500Y-11458000D01*
X6426000Y-11505500D01*
X6676000Y-11505500D02*
X6723500Y-11458000D01*
X6676000Y-11410500D01*
X6628500Y-11458000D01*
X6676000Y-11505500D01*
X6926000Y-11505500D02*
X6973500Y-11458000D01*
X6926000Y-11410500D01*
X6878500Y-11458000D01*
X6926000Y-11505500D01*
X7048000Y-3985500D02*
X7095500Y-3938000D01*
X7048000Y-3890500D01*
X7000500Y-3938000D01*
X7048000Y-3985500D01*
X7048000Y-4235500D02*
X7095500Y-4188000D01*
X7048000Y-4140500D01*
X7000500Y-4188000D01*
X7048000Y-4235500D01*
X7048000Y-4485500D02*
X7095500Y-4438000D01*
X7048000Y-4390500D01*
X7000500Y-4438000D01*
X7048000Y-4485500D01*
X7048000Y-4735500D02*
X7095500Y-4688000D01*
X7048000Y-4640500D01*
X7000500Y-4688000D01*
X7048000Y-4735500D01*
X7113000Y-12339500D02*
X7160500Y-12292000D01*
X7113000Y-12244500D01*
X7065500Y-12292000D01*
X7113000Y-12339500D01*
X7113000Y-12589500D02*
X7160500Y-12542000D01*
X7113000Y-12494500D01*
X7065500Y-12542000D01*
X7113000Y-12589500D01*
X7113000Y-12839500D02*
X7160500Y-12792000D01*
X7113000Y-12744500D01*
X7065500Y-12792000D01*
X7113000Y-12839500D01*
X7872000Y-11420500D02*
X7919500Y-11373000D01*
X7872000Y-11325500D01*
X7824500Y-11373000D01*
X7872000Y-11420500D01*
X7872000Y-11670500D02*
X7919500Y-11623000D01*
X7872000Y-11575500D01*
X7824500Y-11623000D01*
X7872000Y-11670500D01*
X7872000Y-11920500D02*
X7919500Y-11873000D01*
X7872000Y-11825500D01*
X7824500Y-11873000D01*
X7872000Y-11920500D01*
X7872000Y-12170500D02*
X7919500Y-12123000D01*
X7872000Y-12075500D01*
X7824500Y-12123000D01*
X7872000Y-12170500D01*
X7986000Y-3994500D02*
X8033500Y-3947000D01*
X7986000Y-3899500D01*
X7938500Y-3947000D01*
X7986000Y-3994500D01*
X7986000Y-4244500D02*
X8033500Y-4197000D01*
X7986000Y-4149500D01*
X7938500Y-4197000D01*
X7986000Y-4244500D01*
X7986000Y-4494500D02*
X8033500Y-4447000D01*
X7986000Y-4399500D01*
X7938500Y-4447000D01*
X7986000Y-4494500D01*
X7986000Y-4744500D02*
X8033500Y-4697000D01*
X7986000Y-4649500D01*
X7938500Y-4697000D01*
X7986000Y-4744500D01*
X8824000Y-4013500D02*
X8871500Y-3966000D01*
X8824000Y-3918500D01*
X8776500Y-3966000D01*
X8824000Y-4013500D01*
X8824000Y-4263500D02*
X8871500Y-4216000D01*
X8824000Y-4168500D01*
X8776500Y-4216000D01*
X8824000Y-4263500D01*
X8824000Y-4513500D02*
X8871500Y-4466000D01*
X8824000Y-4418500D01*
X8776500Y-4466000D01*
X8824000Y-4513500D01*
X8824000Y-4763500D02*
X8871500Y-4716000D01*
X8824000Y-4668500D01*
X8776500Y-4716000D01*
X8824000Y-4763500D01*
X8858000Y-11435500D02*
X8905500Y-11388000D01*
X8858000Y-11340500D01*
X8810500Y-11388000D01*
X8858000Y-11435500D01*
X8858000Y-11685500D02*
X8905500Y-11638000D01*
X8858000Y-11590500D01*
X8810500Y-11638000D01*
X8858000Y-11685500D01*
X8858000Y-11935500D02*
X8905500Y-11888000D01*
X8858000Y-11840500D01*
X8810500Y-11888000D01*
X8858000Y-11935500D01*
X9742000Y-4024500D02*
X9789500Y-3977000D01*
X9742000Y-3929500D01*
X9694500Y-3977000D01*
X9742000Y-4024500D01*
X9742000Y-4274500D02*
X9789500Y-4227000D01*
X9742000Y-4179500D01*
X9694500Y-4227000D01*
X9742000Y-4274500D01*
X9742000Y-4524500D02*
X9789500Y-4477000D01*
X9742000Y-4429500D01*
X9694500Y-4477000D01*
X9742000Y-4524500D01*
X9742000Y-4774500D02*
X9789500Y-4727000D01*
X9742000Y-4679500D01*
X9694500Y-4727000D01*
X9742000Y-4774500D01*
X9844000Y-11444500D02*
X9891500Y-11397000D01*
X9844000Y-11349500D01*
X9796500Y-11397000D01*
X9844000Y-11444500D01*
X9844000Y-11694500D02*
X9891500Y-11647000D01*
X9844000Y-11599500D01*
X9796500Y-11647000D01*
X9844000Y-11694500D01*
X9844000Y-11944500D02*
X9891500Y-11897000D01*
X9844000Y-11849500D01*
X9796500Y-11897000D01*
X9844000Y-11944500D01*
X10787000Y-4037500D02*
X10834500Y-3990000D01*
X10787000Y-3942500D01*
X10739500Y-3990000D01*
X10787000Y-4037500D01*
X10787000Y-4287500D02*
X10834500Y-4240000D01*
X10787000Y-4192500D01*
X10739500Y-4240000D01*
X10787000Y-4287500D01*
X10787000Y-4537500D02*
X10834500Y-4490000D01*
X10787000Y-4442500D01*
X10739500Y-4490000D01*
X10787000Y-4537500D01*
X10787000Y-4787500D02*
X10834500Y-4740000D01*
X10787000Y-4692500D01*
X10739500Y-4740000D01*
X10787000Y-4787500D01*
X10787000Y-5037500D02*
X10834500Y-4990000D01*
X10787000Y-4942500D01*
X10739500Y-4990000D01*
X10787000Y-5037500D01*
X10838000Y-11444500D02*
X10885500Y-11397000D01*
X10838000Y-11349500D01*
X10790500Y-11397000D01*
X10838000Y-11444500D01*
X10838000Y-11694500D02*
X10885500Y-11647000D01*
X10838000Y-11599500D01*
X10790500Y-11647000D01*
X10838000Y-11694500D01*
X10838000Y-11944500D02*
X10885500Y-11897000D01*
X10838000Y-11849500D01*
X10790500Y-11897000D01*
X10838000Y-11944500D01*
X11642000Y-4034500D02*
X11689500Y-3987000D01*
X11642000Y-3939500D01*
X11594500Y-3987000D01*
X11642000Y-4034500D01*
X11642000Y-4284500D02*
X11689500Y-4237000D01*
X11642000Y-4189500D01*
X11594500Y-4237000D01*
X11642000Y-4284500D01*
X11642000Y-4534500D02*
X11689500Y-4487000D01*
X11642000Y-4439500D01*
X11594500Y-4487000D01*
X11642000Y-4534500D01*
X11642000Y-4784500D02*
X11689500Y-4737000D01*
X11642000Y-4689500D01*
X11594500Y-4737000D01*
X11642000Y-4784500D01*
X11642000Y-5034500D02*
X11689500Y-4987000D01*
X11642000Y-4939500D01*
X11594500Y-4987000D01*
X11642000Y-5034500D01*
X12263000Y-11438500D02*
X12310500Y-11391000D01*
X12263000Y-11343500D01*
X12215500Y-11391000D01*
X12263000Y-11438500D01*
X12263000Y-11688500D02*
X12310500Y-11641000D01*
X12263000Y-11593500D01*
X12215500Y-11641000D01*
X12263000Y-11688500D01*
X12263000Y-11938500D02*
X12310500Y-11891000D01*
X12263000Y-11843500D01*
X12215500Y-11891000D01*
X12263000Y-11938500D01*
X12263000Y-12188500D02*
X12310500Y-12141000D01*
X12263000Y-12093500D01*
X12215500Y-12141000D01*
X12263000Y-12188500D01*
X12482000Y-4034500D02*
X12529500Y-3987000D01*
X12482000Y-3939500D01*
X12434500Y-3987000D01*
X12482000Y-4034500D01*
X12482000Y-4284500D02*
X12529500Y-4237000D01*
X12482000Y-4189500D01*
X12434500Y-4237000D01*
X12482000Y-4284500D01*
X12482000Y-4534500D02*
X12529500Y-4487000D01*
X12482000Y-4439500D01*
X12434500Y-4487000D01*
X12482000Y-4534500D01*
X12482000Y-4784500D02*
X12529500Y-4737000D01*
X12482000Y-4689500D01*
X12434500Y-4737000D01*
X12482000Y-4784500D01*
X12482000Y-5034500D02*
X12529500Y-4987000D01*
X12482000Y-4939500D01*
X12434500Y-4987000D01*
X12482000Y-5034500D01*
X13331000Y-4039500D02*
X13378500Y-3992000D01*
X13331000Y-3944500D01*
X13283500Y-3992000D01*
X13331000Y-4039500D01*
X13331000Y-4289500D02*
X13378500Y-4242000D01*
X13331000Y-4194500D01*
X13283500Y-4242000D01*
X13331000Y-4289500D01*
X13331000Y-4539500D02*
X13378500Y-4492000D01*
X13331000Y-4444500D01*
X13283500Y-4492000D01*
X13331000Y-4539500D01*
X13331000Y-4789500D02*
X13378500Y-4742000D01*
X13331000Y-4694500D01*
X13283500Y-4742000D01*
X13331000Y-4789500D01*
X13331000Y-5039500D02*
X13378500Y-4992000D01*
X13331000Y-4944500D01*
X13283500Y-4992000D01*
X13331000Y-5039500D01*
X13375000Y-11423500D02*
X13422500Y-11376000D01*
X13375000Y-11328500D01*
X13327500Y-11376000D01*
X13375000Y-11423500D01*
X13375000Y-11673500D02*
X13422500Y-11626000D01*
X13375000Y-11578500D01*
X13327500Y-11626000D01*
X13375000Y-11673500D01*
X13375000Y-11923500D02*
X13422500Y-11876000D01*
X13375000Y-11828500D01*
X13327500Y-11876000D01*
X13375000Y-11923500D01*
X13375000Y-12173500D02*
X13422500Y-12126000D01*
X13375000Y-12078500D01*
X13327500Y-12126000D01*
X13375000Y-12173500D01*
X14276000Y-4302500D02*
X14323500Y-4255000D01*
X14276000Y-4207500D01*
X14228500Y-4255000D01*
X14276000Y-4302500D01*
X14276000Y-4552500D02*
X14323500Y-4505000D01*
X14276000Y-4457500D01*
X14228500Y-4505000D01*
X14276000Y-4552500D01*
X14276000Y-4802500D02*
X14323500Y-4755000D01*
X14276000Y-4707500D01*
X14228500Y-4755000D01*
X14276000Y-4802500D01*
X14276000Y-5052500D02*
X14323500Y-5005000D01*
X14276000Y-4957500D01*
X14228500Y-5005000D01*
X14276000Y-5052500D01*
X14533000Y-11418500D02*
X14580500Y-11371000D01*
X14533000Y-11323500D01*
X14485500Y-11371000D01*
X14533000Y-11418500D01*
X14533000Y-11668500D02*
X14580500Y-11621000D01*
X14533000Y-11573500D01*
X14485500Y-11621000D01*
X14533000Y-11668500D01*
X14533000Y-11918500D02*
X14580500Y-11871000D01*
X14533000Y-11823500D01*
X14485500Y-11871000D01*
X14533000Y-11918500D01*
X14533000Y-12168500D02*
X14580500Y-12121000D01*
X14533000Y-12073500D01*
X14485500Y-12121000D01*
X14533000Y-12168500D01*
X15233000Y-4305500D02*
X15280500Y-4258000D01*
X15233000Y-4210500D01*
X15185500Y-4258000D01*
X15233000Y-4305500D01*
X15233000Y-4555500D02*
X15280500Y-4508000D01*
X15233000Y-4460500D01*
X15185500Y-4508000D01*
X15233000Y-4555500D01*
X15233000Y-4805500D02*
X15280500Y-4758000D01*
X15233000Y-4710500D01*
X15185500Y-4758000D01*
X15233000Y-4805500D01*
X15233000Y-5055500D02*
X15280500Y-5008000D01*
X15233000Y-4960500D01*
X15185500Y-5008000D01*
X15233000Y-5055500D01*
X15690000Y-11439500D02*
X15737500Y-11392000D01*
X15690000Y-11344500D01*
X15642500Y-11392000D01*
X15690000Y-11439500D01*
X15690000Y-11689500D02*
X15737500Y-11642000D01*
X15690000Y-11594500D01*
X15642500Y-11642000D01*
X15690000Y-11689500D01*
X15690000Y-11939500D02*
X15737500Y-11892000D01*
X15690000Y-11844500D01*
X15642500Y-11892000D01*
X15690000Y-11939500D01*
X15690000Y-12189500D02*
X15737500Y-12142000D01*
X15690000Y-12094500D01*
X15642500Y-12142000D01*
X15690000Y-12189500D01*
X16214000Y-4314500D02*
X16261500Y-4267000D01*
X16214000Y-4219500D01*
X16166500Y-4267000D01*
X16214000Y-4314500D01*
X16214000Y-4564500D02*
X16261500Y-4517000D01*
X16214000Y-4469500D01*
X16166500Y-4517000D01*
X16214000Y-4564500D01*
X16214000Y-4814500D02*
X16261500Y-4767000D01*
X16214000Y-4719500D01*
X16166500Y-4767000D01*
X16214000Y-4814500D01*
X16214000Y-5064500D02*
X16261500Y-5017000D01*
X16214000Y-4969500D01*
X16166500Y-5017000D01*
X16214000Y-5064500D01*
X17806000Y-8296500D02*
X17853500Y-8249000D01*
X17806000Y-8201500D01*
X17758500Y-8249000D01*
X17806000Y-8296500D01*
X17818000Y-9472500D02*
X17865500Y-9425000D01*
X17818000Y-9377500D01*
X17770500Y-9425000D01*
X17818000Y-9472500D01*
X17840000Y-11972500D02*
X17887500Y-11925000D01*
X17840000Y-11877500D01*
X17792500Y-11925000D01*
X17840000Y-11972500D01*
X17842000Y-10795500D02*
X17889500Y-10748000D01*
X17842000Y-10700500D01*
X17794500Y-10748000D01*
X17842000Y-10795500D01*
X18056000Y-8296500D02*
X18103500Y-8249000D01*
X18056000Y-8201500D01*
X18008500Y-8249000D01*
X18056000Y-8296500D01*
X18068000Y-9472500D02*
X18115500Y-9425000D01*
X18068000Y-9377500D01*
X18020500Y-9425000D01*
X18068000Y-9472500D01*
X18090000Y-11972500D02*
X18137500Y-11925000D01*
X18090000Y-11877500D01*
X18042500Y-11925000D01*
X18090000Y-11972500D01*
X18092000Y-10795500D02*
X18139500Y-10748000D01*
X18092000Y-10700500D01*
X18044500Y-10748000D01*
X18092000Y-10795500D01*
X18306000Y-8296500D02*
X18353500Y-8249000D01*
X18306000Y-8201500D01*
X18258500Y-8249000D01*
X18306000Y-8296500D01*
X18318000Y-9472500D02*
X18365500Y-9425000D01*
X18318000Y-9377500D01*
X18270500Y-9425000D01*
X18318000Y-9472500D01*
X18340000Y-11972500D02*
X18387500Y-11925000D01*
X18340000Y-11877500D01*
X18292500Y-11925000D01*
X18340000Y-11972500D01*
X18342000Y-10795500D02*
X18389500Y-10748000D01*
X18342000Y-10700500D01*
X18294500Y-10748000D01*
X18342000Y-10795500D01*
X18358000Y-5310500D02*
X18405500Y-5263000D01*
X18358000Y-5215500D01*
X18310500Y-5263000D01*
X18358000Y-5310500D01*
X18358000Y-5560500D02*
X18405500Y-5513000D01*
X18358000Y-5465500D01*
X18310500Y-5513000D01*
X18358000Y-5560500D01*
X18358000Y-5810500D02*
X18405500Y-5763000D01*
X18358000Y-5715500D01*
X18310500Y-5763000D01*
X18358000Y-5810500D01*
X18358000Y-6060500D02*
X18405500Y-6013000D01*
X18358000Y-5965500D01*
X18310500Y-6013000D01*
X18358000Y-6060500D01*
X18358000Y-6310500D02*
X18405500Y-6263000D01*
X18358000Y-6215500D01*
X18310500Y-6263000D01*
X18358000Y-6310500D01*
X18556000Y-8296500D02*
X18603500Y-8249000D01*
X18556000Y-8201500D01*
X18508500Y-8249000D01*
X18556000Y-8296500D01*
X18568000Y-9472500D02*
X18615500Y-9425000D01*
X18568000Y-9377500D01*
X18520500Y-9425000D01*
X18568000Y-9472500D01*
X18590000Y-11972500D02*
X18637500Y-11925000D01*
X18590000Y-11877500D01*
X18542500Y-11925000D01*
X18590000Y-11972500D01*
X18592000Y-10795500D02*
X18639500Y-10748000D01*
X18592000Y-10700500D01*
X18544500Y-10748000D01*
X18592000Y-10795500D01*
X18806000Y-8296500D02*
X18853500Y-8249000D01*
X18806000Y-8201500D01*
X18758500Y-8249000D01*
X18806000Y-8296500D01*
X18818000Y-9472500D02*
X18865500Y-9425000D01*
X18818000Y-9377500D01*
X18770500Y-9425000D01*
X18818000Y-9472500D01*
X18840000Y-11972500D02*
X18887500Y-11925000D01*
X18840000Y-11877500D01*
X18792500Y-11925000D01*
X18840000Y-11972500D01*
X18842000Y-10795500D02*
X18889500Y-10748000D01*
X18842000Y-10700500D01*
X18794500Y-10748000D01*
X18842000Y-10795500D01*
X20323000Y-7315500D02*
X20370500Y-7268000D01*
X20323000Y-7220500D01*
X20275500Y-7268000D01*
X20323000Y-7315500D01*
X20323000Y-7565500D02*
X20370500Y-7518000D01*
X20323000Y-7470500D01*
X20275500Y-7518000D01*
X20323000Y-7565500D01*
X20323000Y-7815500D02*
X20370500Y-7768000D01*
X20323000Y-7720500D01*
X20275500Y-7768000D01*
X20323000Y-7815500D01*
X20323000Y-8065500D02*
X20370500Y-8018000D01*
X20323000Y-7970500D01*
X20275500Y-8018000D01*
X20323000Y-8065500D01*
X4259000Y-10428000D02*
X4359000Y-10528000D01*
X4359000Y-10428000D02*
X4259000Y-10528000D01*
X4359000Y-10478000D02*
G75*
G03*
X4359000Y-10478000I-50000J0D01*
G01*
X4259000Y-10678000D02*
X4359000Y-10778000D01*
X4359000Y-10678000D02*
X4259000Y-10778000D01*
X4359000Y-10728000D02*
G75*
G03*
X4359000Y-10728000I-50000J0D01*
G01*
X4277000Y-11460000D02*
X4377000Y-11560000D01*
X4377000Y-11460000D02*
X4277000Y-11560000D01*
X4377000Y-11510000D02*
G75*
G03*
X4377000Y-11510000I-50000J0D01*
G01*
X4277000Y-11710000D02*
X4377000Y-11810000D01*
X4377000Y-11710000D02*
X4277000Y-11810000D01*
X4377000Y-11760000D02*
G75*
G03*
X4377000Y-11760000I-50000J0D01*
G01*
X5353000Y-11169000D02*
X5453000Y-11269000D01*
X5453000Y-11169000D02*
X5353000Y-11269000D01*
X5453000Y-11219000D02*
G75*
G03*
X5453000Y-11219000I-50000J0D01*
G01*
X5353000Y-11419000D02*
X5453000Y-11519000D01*
X5453000Y-11419000D02*
X5353000Y-11519000D01*
X5453000Y-11469000D02*
G75*
G03*
X5453000Y-11469000I-50000J0D01*
G01*
X5359000Y-10175000D02*
X5459000Y-10275000D01*
X5459000Y-10175000D02*
X5359000Y-10275000D01*
X5459000Y-10225000D02*
G75*
G03*
X5459000Y-10225000I-50000J0D01*
G01*
X5359000Y-10425000D02*
X5459000Y-10525000D01*
X5459000Y-10425000D02*
X5359000Y-10525000D01*
X5459000Y-10475000D02*
G75*
G03*
X5459000Y-10475000I-50000J0D01*
G01*
X5842000Y-6312000D02*
X5942000Y-6412000D01*
X5942000Y-6312000D02*
X5842000Y-6412000D01*
X5942000Y-6362000D02*
G75*
G03*
X5942000Y-6362000I-50000J0D01*
G01*
X5842000Y-6566000D02*
X5942000Y-6666000D01*
X5942000Y-6566000D02*
X5842000Y-6666000D01*
X5942000Y-6616000D02*
G75*
G03*
X5942000Y-6616000I-50000J0D01*
G01*
X5842000Y-6820000D02*
X5942000Y-6920000D01*
X5942000Y-6820000D02*
X5842000Y-6920000D01*
X5942000Y-6870000D02*
G75*
G03*
X5942000Y-6870000I-50000J0D01*
G01*
X5846000Y-7486000D02*
X5946000Y-7586000D01*
X5946000Y-7486000D02*
X5846000Y-7586000D01*
X5946000Y-7536000D02*
G75*
G03*
X5946000Y-7536000I-50000J0D01*
G01*
X5846000Y-7740000D02*
X5946000Y-7840000D01*
X5946000Y-7740000D02*
X5846000Y-7840000D01*
X5946000Y-7790000D02*
G75*
G03*
X5946000Y-7790000I-50000J0D01*
G01*
X5846000Y-7994000D02*
X5946000Y-8094000D01*
X5946000Y-7994000D02*
X5846000Y-8094000D01*
X5946000Y-8044000D02*
G75*
G03*
X5946000Y-8044000I-50000J0D01*
G01*
X6207000Y-12325000D02*
X6307000Y-12425000D01*
X6307000Y-12325000D02*
X6207000Y-12425000D01*
X6307000Y-12375000D02*
G75*
G03*
X6307000Y-12375000I-50000J0D01*
G01*
X6207000Y-12579000D02*
X6307000Y-12679000D01*
X6307000Y-12579000D02*
X6207000Y-12679000D01*
X6307000Y-12629000D02*
G75*
G03*
X6307000Y-12629000I-50000J0D01*
G01*
X7269000Y-7357000D02*
X7369000Y-7457000D01*
X7369000Y-7357000D02*
X7269000Y-7457000D01*
X7369000Y-7407000D02*
G75*
G03*
X7369000Y-7407000I-50000J0D01*
G01*
X7269000Y-7607000D02*
X7369000Y-7707000D01*
X7369000Y-7607000D02*
X7269000Y-7707000D01*
X7369000Y-7657000D02*
G75*
G03*
X7369000Y-7657000I-50000J0D01*
G01*
X8219000Y-7357000D02*
X8319000Y-7457000D01*
X8319000Y-7357000D02*
X8219000Y-7457000D01*
X8319000Y-7407000D02*
G75*
G03*
X8319000Y-7407000I-50000J0D01*
G01*
X8219000Y-7607000D02*
X8319000Y-7707000D01*
X8319000Y-7607000D02*
X8219000Y-7707000D01*
X8319000Y-7657000D02*
G75*
G03*
X8319000Y-7657000I-50000J0D01*
G01*
X9162000Y-7365000D02*
X9262000Y-7465000D01*
X9262000Y-7365000D02*
X9162000Y-7465000D01*
X9262000Y-7415000D02*
G75*
G03*
X9262000Y-7415000I-50000J0D01*
G01*
X9162000Y-7615000D02*
X9262000Y-7715000D01*
X9262000Y-7615000D02*
X9162000Y-7715000D01*
X9262000Y-7665000D02*
G75*
G03*
X9262000Y-7665000I-50000J0D01*
G01*
X10108000Y-7388000D02*
X10208000Y-7488000D01*
X10208000Y-7388000D02*
X10108000Y-7488000D01*
X10208000Y-7438000D02*
G75*
G03*
X10208000Y-7438000I-50000J0D01*
G01*
X10108000Y-7638000D02*
X10208000Y-7738000D01*
X10208000Y-7638000D02*
X10108000Y-7738000D01*
X10208000Y-7688000D02*
G75*
G03*
X10208000Y-7688000I-50000J0D01*
G01*
X16681000Y-12236000D02*
X16781000Y-12336000D01*
X16781000Y-12236000D02*
X16681000Y-12336000D01*
X16781000Y-12286000D02*
G75*
G03*
X16781000Y-12286000I-50000J0D01*
G01*
X16681000Y-12490000D02*
X16781000Y-12590000D01*
X16781000Y-12490000D02*
X16681000Y-12590000D01*
X16781000Y-12540000D02*
G75*
G03*
X16781000Y-12540000I-50000J0D01*
G01*
X16681000Y-12744000D02*
X16781000Y-12844000D01*
X16781000Y-12744000D02*
X16681000Y-12844000D01*
X16781000Y-12794000D02*
G75*
G03*
X16781000Y-12794000I-50000J0D01*
G01*
X18025000Y-3782000D02*
X18125000Y-3882000D01*
X18125000Y-3782000D02*
X18025000Y-3882000D01*
X18125000Y-3832000D02*
G75*
G03*
X18125000Y-3832000I-50000J0D01*
G01*
X18025000Y-4036000D02*
X18125000Y-4136000D01*
X18125000Y-4036000D02*
X18025000Y-4136000D01*
X18125000Y-4086000D02*
G75*
G03*
X18125000Y-4086000I-50000J0D01*
G01*
X18025000Y-4290000D02*
X18125000Y-4390000D01*
X18125000Y-4290000D02*
X18025000Y-4390000D01*
X18125000Y-4340000D02*
G75*
G03*
X18125000Y-4340000I-50000J0D01*
G01*
X5215962Y-12050978D02*
X5316038Y-12151054D01*
X5316038Y-12050978D02*
X5215962Y-12151054D01*
X5266000Y-12050978D02*
X5266000Y-12151054D01*
X5215962Y-12101016D02*
X5316038Y-12101016D01*
X5215962Y-12810946D02*
X5316038Y-12911022D01*
X5316038Y-12810946D02*
X5215962Y-12911022D01*
X5266000Y-12810946D02*
X5266000Y-12911022D01*
X5215962Y-12860984D02*
X5316038Y-12860984D01*
X8533800Y-5874200D02*
X8635400Y-5975800D01*
X8635400Y-5874200D02*
X8533800Y-5975800D01*
X8620521Y-5960921D02*
X8620521Y-5889079D01*
X8548679Y-5889079D01*
X8548679Y-5960921D01*
X8620521Y-5960921D01*
X8787800Y-5874200D02*
X8889400Y-5975800D01*
X8889400Y-5874200D02*
X8787800Y-5975800D01*
X8874521Y-5960921D02*
X8874521Y-5889079D01*
X8802679Y-5889079D01*
X8802679Y-5960921D01*
X8874521Y-5960921D01*
X9041800Y-5874200D02*
X9143400Y-5975800D01*
X9143400Y-5874200D02*
X9041800Y-5975800D01*
X9128521Y-5960921D02*
X9128521Y-5889079D01*
X9056679Y-5889079D01*
X9056679Y-5960921D01*
X9128521Y-5960921D01*
X9295800Y-5874200D02*
X9397400Y-5975800D01*
X9397400Y-5874200D02*
X9295800Y-5975800D01*
X9382521Y-5960921D02*
X9382521Y-5889079D01*
X9310679Y-5889079D01*
X9310679Y-5960921D01*
X9382521Y-5960921D01*
X9448200Y-10700200D02*
X9549800Y-10801800D01*
X9549800Y-10700200D02*
X9448200Y-10801800D01*
X9534921Y-10786921D02*
X9534921Y-10715079D01*
X9463079Y-10715079D01*
X9463079Y-10786921D01*
X9534921Y-10786921D01*
X9549800Y-5874200D02*
X9651400Y-5975800D01*
X9651400Y-5874200D02*
X9549800Y-5975800D01*
X9636521Y-5960921D02*
X9636521Y-5889079D01*
X9564679Y-5889079D01*
X9564679Y-5960921D01*
X9636521Y-5960921D01*
X9702200Y-10700200D02*
X9803800Y-10801800D01*
X9803800Y-10700200D02*
X9702200Y-10801800D01*
X9788921Y-10786921D02*
X9788921Y-10715079D01*
X9717079Y-10715079D01*
X9717079Y-10786921D01*
X9788921Y-10786921D01*
X9803800Y-5874200D02*
X9905400Y-5975800D01*
X9905400Y-5874200D02*
X9803800Y-5975800D01*
X9890521Y-5960921D02*
X9890521Y-5889079D01*
X9818679Y-5889079D01*
X9818679Y-5960921D01*
X9890521Y-5960921D01*
X9956200Y-10700200D02*
X10057800Y-10801800D01*
X10057800Y-10700200D02*
X9956200Y-10801800D01*
X10042921Y-10786921D02*
X10042921Y-10715079D01*
X9971079Y-10715079D01*
X9971079Y-10786921D01*
X10042921Y-10786921D01*
X10057800Y-5874200D02*
X10159400Y-5975800D01*
X10159400Y-5874200D02*
X10057800Y-5975800D01*
X10144521Y-5960921D02*
X10144521Y-5889079D01*
X10072679Y-5889079D01*
X10072679Y-5960921D01*
X10144521Y-5960921D01*
X10210200Y-10700200D02*
X10311800Y-10801800D01*
X10311800Y-10700200D02*
X10210200Y-10801800D01*
X10296921Y-10786921D02*
X10296921Y-10715079D01*
X10225079Y-10715079D01*
X10225079Y-10786921D01*
X10296921Y-10786921D01*
X10311800Y-5874200D02*
X10413400Y-5975800D01*
X10413400Y-5874200D02*
X10311800Y-5975800D01*
X10398521Y-5960921D02*
X10398521Y-5889079D01*
X10326679Y-5889079D01*
X10326679Y-5960921D01*
X10398521Y-5960921D01*
X10464200Y-10700200D02*
X10565800Y-10801800D01*
X10565800Y-10700200D02*
X10464200Y-10801800D01*
X10550921Y-10786921D02*
X10550921Y-10715079D01*
X10479079Y-10715079D01*
X10479079Y-10786921D01*
X10550921Y-10786921D01*
X10565800Y-5874200D02*
X10667400Y-5975800D01*
X10667400Y-5874200D02*
X10565800Y-5975800D01*
X10652521Y-5960921D02*
X10652521Y-5889079D01*
X10580679Y-5889079D01*
X10580679Y-5960921D01*
X10652521Y-5960921D01*
X10718200Y-10700200D02*
X10819800Y-10801800D01*
X10819800Y-10700200D02*
X10718200Y-10801800D01*
X10804921Y-10786921D02*
X10804921Y-10715079D01*
X10733079Y-10715079D01*
X10733079Y-10786921D01*
X10804921Y-10786921D01*
X10819800Y-5874200D02*
X10921400Y-5975800D01*
X10921400Y-5874200D02*
X10819800Y-5975800D01*
X10906521Y-5960921D02*
X10906521Y-5889079D01*
X10834679Y-5889079D01*
X10834679Y-5960921D01*
X10906521Y-5960921D01*
X10972200Y-10700200D02*
X11073800Y-10801800D01*
X11073800Y-10700200D02*
X10972200Y-10801800D01*
X11058921Y-10786921D02*
X11058921Y-10715079D01*
X10987079Y-10715079D01*
X10987079Y-10786921D01*
X11058921Y-10786921D01*
X11226200Y-5874200D02*
X11327800Y-5975800D01*
X11327800Y-5874200D02*
X11226200Y-5975800D01*
X11312921Y-5960921D02*
X11312921Y-5889079D01*
X11241079Y-5889079D01*
X11241079Y-5960921D01*
X11312921Y-5960921D01*
X11226200Y-10700200D02*
X11327800Y-10801800D01*
X11327800Y-10700200D02*
X11226200Y-10801800D01*
X11312921Y-10786921D02*
X11312921Y-10715079D01*
X11241079Y-10715079D01*
X11241079Y-10786921D01*
X11312921Y-10786921D01*
X11480200Y-5874200D02*
X11581800Y-5975800D01*
X11581800Y-5874200D02*
X11480200Y-5975800D01*
X11566921Y-5960921D02*
X11566921Y-5889079D01*
X11495079Y-5889079D01*
X11495079Y-5960921D01*
X11566921Y-5960921D01*
X11734200Y-5874200D02*
X11835800Y-5975800D01*
X11835800Y-5874200D02*
X11734200Y-5975800D01*
X11820921Y-5960921D02*
X11820921Y-5889079D01*
X11749079Y-5889079D01*
X11749079Y-5960921D01*
X11820921Y-5960921D01*
X11734200Y-10700200D02*
X11835800Y-10801800D01*
X11835800Y-10700200D02*
X11734200Y-10801800D01*
X11820921Y-10786921D02*
X11820921Y-10715079D01*
X11749079Y-10715079D01*
X11749079Y-10786921D01*
X11820921Y-10786921D01*
X11988200Y-5874200D02*
X12089800Y-5975800D01*
X12089800Y-5874200D02*
X11988200Y-5975800D01*
X12074921Y-5960921D02*
X12074921Y-5889079D01*
X12003079Y-5889079D01*
X12003079Y-5960921D01*
X12074921Y-5960921D01*
X11988200Y-10700200D02*
X12089800Y-10801800D01*
X12089800Y-10700200D02*
X11988200Y-10801800D01*
X12074921Y-10786921D02*
X12074921Y-10715079D01*
X12003079Y-10715079D01*
X12003079Y-10786921D01*
X12074921Y-10786921D01*
X12242200Y-5874200D02*
X12343800Y-5975800D01*
X12343800Y-5874200D02*
X12242200Y-5975800D01*
X12328921Y-5960921D02*
X12328921Y-5889079D01*
X12257079Y-5889079D01*
X12257079Y-5960921D01*
X12328921Y-5960921D01*
X12242200Y-10700200D02*
X12343800Y-10801800D01*
X12343800Y-10700200D02*
X12242200Y-10801800D01*
X12328921Y-10786921D02*
X12328921Y-10715079D01*
X12257079Y-10715079D01*
X12257079Y-10786921D01*
X12328921Y-10786921D01*
X12496200Y-5874200D02*
X12597800Y-5975800D01*
X12597800Y-5874200D02*
X12496200Y-5975800D01*
X12582921Y-5960921D02*
X12582921Y-5889079D01*
X12511079Y-5889079D01*
X12511079Y-5960921D01*
X12582921Y-5960921D01*
X12496200Y-10700200D02*
X12597800Y-10801800D01*
X12597800Y-10700200D02*
X12496200Y-10801800D01*
X12582921Y-10786921D02*
X12582921Y-10715079D01*
X12511079Y-10715079D01*
X12511079Y-10786921D01*
X12582921Y-10786921D01*
X12750200Y-5874200D02*
X12851800Y-5975800D01*
X12851800Y-5874200D02*
X12750200Y-5975800D01*
X12836921Y-5960921D02*
X12836921Y-5889079D01*
X12765079Y-5889079D01*
X12765079Y-5960921D01*
X12836921Y-5960921D01*
X12750200Y-10700200D02*
X12851800Y-10801800D01*
X12851800Y-10700200D02*
X12750200Y-10801800D01*
X12836921Y-10786921D02*
X12836921Y-10715079D01*
X12765079Y-10715079D01*
X12765079Y-10786921D01*
X12836921Y-10786921D01*
X13004200Y-5874200D02*
X13105800Y-5975800D01*
X13105800Y-5874200D02*
X13004200Y-5975800D01*
X13090921Y-5960921D02*
X13090921Y-5889079D01*
X13019079Y-5889079D01*
X13019079Y-5960921D01*
X13090921Y-5960921D01*
X13004200Y-10700200D02*
X13105800Y-10801800D01*
X13105800Y-10700200D02*
X13004200Y-10801800D01*
X13090921Y-10786921D02*
X13090921Y-10715079D01*
X13019079Y-10715079D01*
X13019079Y-10786921D01*
X13090921Y-10786921D01*
X13016900Y-7906200D02*
X13118500Y-8007800D01*
X13118500Y-7906200D02*
X13016900Y-8007800D01*
X13103621Y-7992921D02*
X13103621Y-7921079D01*
X13031779Y-7921079D01*
X13031779Y-7992921D01*
X13103621Y-7992921D01*
X13016900Y-8160200D02*
X13118500Y-8261800D01*
X13118500Y-8160200D02*
X13016900Y-8261800D01*
X13103621Y-8246921D02*
X13103621Y-8175079D01*
X13031779Y-8175079D01*
X13031779Y-8246921D01*
X13103621Y-8246921D01*
X13016900Y-8414200D02*
X13118500Y-8515800D01*
X13118500Y-8414200D02*
X13016900Y-8515800D01*
X13103621Y-8500921D02*
X13103621Y-8429079D01*
X13031779Y-8429079D01*
X13031779Y-8500921D01*
X13103621Y-8500921D01*
X13258200Y-10700200D02*
X13359800Y-10801800D01*
X13359800Y-10700200D02*
X13258200Y-10801800D01*
X13344921Y-10786921D02*
X13344921Y-10715079D01*
X13273079Y-10715079D01*
X13273079Y-10786921D01*
X13344921Y-10786921D01*
X13270900Y-7906200D02*
X13372500Y-8007800D01*
X13372500Y-7906200D02*
X13270900Y-8007800D01*
X13357621Y-7992921D02*
X13357621Y-7921079D01*
X13285779Y-7921079D01*
X13285779Y-7992921D01*
X13357621Y-7992921D01*
X13270900Y-8160200D02*
X13372500Y-8261800D01*
X13372500Y-8160200D02*
X13270900Y-8261800D01*
X13357621Y-8246921D02*
X13357621Y-8175079D01*
X13285779Y-8175079D01*
X13285779Y-8246921D01*
X13357621Y-8246921D01*
X13270900Y-8414200D02*
X13372500Y-8515800D01*
X13372500Y-8414200D02*
X13270900Y-8515800D01*
X13357621Y-8500921D02*
X13357621Y-8429079D01*
X13285779Y-8429079D01*
X13285779Y-8500921D01*
X13357621Y-8500921D01*
X13512200Y-5874200D02*
X13613800Y-5975800D01*
X13613800Y-5874200D02*
X13512200Y-5975800D01*
X13598921Y-5960921D02*
X13598921Y-5889079D01*
X13527079Y-5889079D01*
X13527079Y-5960921D01*
X13598921Y-5960921D01*
X13512200Y-10700200D02*
X13613800Y-10801800D01*
X13613800Y-10700200D02*
X13512200Y-10801800D01*
X13598921Y-10786921D02*
X13598921Y-10715079D01*
X13527079Y-10715079D01*
X13527079Y-10786921D01*
X13598921Y-10786921D01*
X13766200Y-5874200D02*
X13867800Y-5975800D01*
X13867800Y-5874200D02*
X13766200Y-5975800D01*
X13852921Y-5960921D02*
X13852921Y-5889079D01*
X13781079Y-5889079D01*
X13781079Y-5960921D01*
X13852921Y-5960921D01*
X14020200Y-5874200D02*
X14121800Y-5975800D01*
X14121800Y-5874200D02*
X14020200Y-5975800D01*
X14106921Y-5960921D02*
X14106921Y-5889079D01*
X14035079Y-5889079D01*
X14035079Y-5960921D01*
X14106921Y-5960921D01*
X14020200Y-10700200D02*
X14121800Y-10801800D01*
X14121800Y-10700200D02*
X14020200Y-10801800D01*
X14106921Y-10786921D02*
X14106921Y-10715079D01*
X14035079Y-10715079D01*
X14035079Y-10786921D01*
X14106921Y-10786921D01*
X14274200Y-5874200D02*
X14375800Y-5975800D01*
X14375800Y-5874200D02*
X14274200Y-5975800D01*
X14360921Y-5960921D02*
X14360921Y-5889079D01*
X14289079Y-5889079D01*
X14289079Y-5960921D01*
X14360921Y-5960921D01*
X14274200Y-10700200D02*
X14375800Y-10801800D01*
X14375800Y-10700200D02*
X14274200Y-10801800D01*
X14360921Y-10786921D02*
X14360921Y-10715079D01*
X14289079Y-10715079D01*
X14289079Y-10786921D01*
X14360921Y-10786921D01*
X14528200Y-5874200D02*
X14629800Y-5975800D01*
X14629800Y-5874200D02*
X14528200Y-5975800D01*
X14614921Y-5960921D02*
X14614921Y-5889079D01*
X14543079Y-5889079D01*
X14543079Y-5960921D01*
X14614921Y-5960921D01*
X14528200Y-10700200D02*
X14629800Y-10801800D01*
X14629800Y-10700200D02*
X14528200Y-10801800D01*
X14614921Y-10786921D02*
X14614921Y-10715079D01*
X14543079Y-10715079D01*
X14543079Y-10786921D01*
X14614921Y-10786921D01*
X14782200Y-5874200D02*
X14883800Y-5975800D01*
X14883800Y-5874200D02*
X14782200Y-5975800D01*
X14868921Y-5960921D02*
X14868921Y-5889079D01*
X14797079Y-5889079D01*
X14797079Y-5960921D01*
X14868921Y-5960921D01*
X14782200Y-10700200D02*
X14883800Y-10801800D01*
X14883800Y-10700200D02*
X14782200Y-10801800D01*
X14868921Y-10786921D02*
X14868921Y-10715079D01*
X14797079Y-10715079D01*
X14797079Y-10786921D01*
X14868921Y-10786921D01*
X15036200Y-5874200D02*
X15137800Y-5975800D01*
X15137800Y-5874200D02*
X15036200Y-5975800D01*
X15122921Y-5960921D02*
X15122921Y-5889079D01*
X15051079Y-5889079D01*
X15051079Y-5960921D01*
X15122921Y-5960921D01*
X15036200Y-10700200D02*
X15137800Y-10801800D01*
X15137800Y-10700200D02*
X15036200Y-10801800D01*
X15122921Y-10786921D02*
X15122921Y-10715079D01*
X15051079Y-10715079D01*
X15051079Y-10786921D01*
X15122921Y-10786921D01*
X15290200Y-5874200D02*
X15391800Y-5975800D01*
X15391800Y-5874200D02*
X15290200Y-5975800D01*
X15376921Y-5960921D02*
X15376921Y-5889079D01*
X15305079Y-5889079D01*
X15305079Y-5960921D01*
X15376921Y-5960921D01*
X15290200Y-10700200D02*
X15391800Y-10801800D01*
X15391800Y-10700200D02*
X15290200Y-10801800D01*
X15376921Y-10786921D02*
X15376921Y-10715079D01*
X15305079Y-10715079D01*
X15305079Y-10786921D01*
X15376921Y-10786921D01*
X15544200Y-10700200D02*
X15645800Y-10801800D01*
X15645800Y-10700200D02*
X15544200Y-10801800D01*
X15630921Y-10786921D02*
X15630921Y-10715079D01*
X15559079Y-10715079D01*
X15559079Y-10786921D01*
X15630921Y-10786921D01*
X15798200Y-10700200D02*
X15899800Y-10801800D01*
X15899800Y-10700200D02*
X15798200Y-10801800D01*
X15884921Y-10786921D02*
X15884921Y-10715079D01*
X15813079Y-10715079D01*
X15813079Y-10786921D01*
X15884921Y-10786921D01*
X16052200Y-5874200D02*
X16153800Y-5975800D01*
X16153800Y-5874200D02*
X16052200Y-5975800D01*
X16138921Y-5960921D02*
X16138921Y-5889079D01*
X16067079Y-5889079D01*
X16067079Y-5960921D01*
X16138921Y-5960921D01*
X16052200Y-6128200D02*
X16153800Y-6229800D01*
X16153800Y-6128200D02*
X16052200Y-6229800D01*
X16138921Y-6214921D02*
X16138921Y-6143079D01*
X16067079Y-6143079D01*
X16067079Y-6214921D01*
X16138921Y-6214921D01*
X16052200Y-6382200D02*
X16153800Y-6483800D01*
X16153800Y-6382200D02*
X16052200Y-6483800D01*
X16138921Y-6468921D02*
X16138921Y-6397079D01*
X16067079Y-6397079D01*
X16067079Y-6468921D01*
X16138921Y-6468921D01*
X16052200Y-6636200D02*
X16153800Y-6737800D01*
X16153800Y-6636200D02*
X16052200Y-6737800D01*
X16138921Y-6722921D02*
X16138921Y-6651079D01*
X16067079Y-6651079D01*
X16067079Y-6722921D01*
X16138921Y-6722921D01*
X16052200Y-6890200D02*
X16153800Y-6991800D01*
X16153800Y-6890200D02*
X16052200Y-6991800D01*
X16138921Y-6976921D02*
X16138921Y-6905079D01*
X16067079Y-6905079D01*
X16067079Y-6976921D01*
X16138921Y-6976921D01*
X16052200Y-7144200D02*
X16153800Y-7245800D01*
X16153800Y-7144200D02*
X16052200Y-7245800D01*
X16138921Y-7230921D02*
X16138921Y-7159079D01*
X16067079Y-7159079D01*
X16067079Y-7230921D01*
X16138921Y-7230921D01*
X16052200Y-7398200D02*
X16153800Y-7499800D01*
X16153800Y-7398200D02*
X16052200Y-7499800D01*
X16138921Y-7484921D02*
X16138921Y-7413079D01*
X16067079Y-7413079D01*
X16067079Y-7484921D01*
X16138921Y-7484921D01*
X16052200Y-7652200D02*
X16153800Y-7753800D01*
X16153800Y-7652200D02*
X16052200Y-7753800D01*
X16138921Y-7738921D02*
X16138921Y-7667079D01*
X16067079Y-7667079D01*
X16067079Y-7738921D01*
X16138921Y-7738921D01*
X16052200Y-7906200D02*
X16153800Y-8007800D01*
X16153800Y-7906200D02*
X16052200Y-8007800D01*
X16138921Y-7992921D02*
X16138921Y-7921079D01*
X16067079Y-7921079D01*
X16067079Y-7992921D01*
X16138921Y-7992921D01*
X16052200Y-8160200D02*
X16153800Y-8261800D01*
X16153800Y-8160200D02*
X16052200Y-8261800D01*
X16138921Y-8246921D02*
X16138921Y-8175079D01*
X16067079Y-8175079D01*
X16067079Y-8246921D01*
X16138921Y-8246921D01*
X16052200Y-8414200D02*
X16153800Y-8515800D01*
X16153800Y-8414200D02*
X16052200Y-8515800D01*
X16138921Y-8500921D02*
X16138921Y-8429079D01*
X16067079Y-8429079D01*
X16067079Y-8500921D01*
X16138921Y-8500921D01*
X16052200Y-8668200D02*
X16153800Y-8769800D01*
X16153800Y-8668200D02*
X16052200Y-8769800D01*
X16138921Y-8754921D02*
X16138921Y-8683079D01*
X16067079Y-8683079D01*
X16067079Y-8754921D01*
X16138921Y-8754921D01*
X16052200Y-8922200D02*
X16153800Y-9023800D01*
X16153800Y-8922200D02*
X16052200Y-9023800D01*
X16138921Y-9008921D02*
X16138921Y-8937079D01*
X16067079Y-8937079D01*
X16067079Y-9008921D01*
X16138921Y-9008921D01*
X16052200Y-9176200D02*
X16153800Y-9277800D01*
X16153800Y-9176200D02*
X16052200Y-9277800D01*
X16138921Y-9262921D02*
X16138921Y-9191079D01*
X16067079Y-9191079D01*
X16067079Y-9262921D01*
X16138921Y-9262921D01*
X16052200Y-9430200D02*
X16153800Y-9531800D01*
X16153800Y-9430200D02*
X16052200Y-9531800D01*
X16138921Y-9516921D02*
X16138921Y-9445079D01*
X16067079Y-9445079D01*
X16067079Y-9516921D01*
X16138921Y-9516921D01*
X16052200Y-9684200D02*
X16153800Y-9785800D01*
X16153800Y-9684200D02*
X16052200Y-9785800D01*
X16138921Y-9770921D02*
X16138921Y-9699079D01*
X16067079Y-9699079D01*
X16067079Y-9770921D01*
X16138921Y-9770921D01*
X16052200Y-9938200D02*
X16153800Y-10039800D01*
X16153800Y-9938200D02*
X16052200Y-10039800D01*
X16138921Y-10024921D02*
X16138921Y-9953079D01*
X16067079Y-9953079D01*
X16067079Y-10024921D01*
X16138921Y-10024921D01*
X16052200Y-10192200D02*
X16153800Y-10293800D01*
X16153800Y-10192200D02*
X16052200Y-10293800D01*
X16138921Y-10278921D02*
X16138921Y-10207079D01*
X16067079Y-10207079D01*
X16067079Y-10278921D01*
X16138921Y-10278921D01*
X16306200Y-5874200D02*
X16407800Y-5975800D01*
X16407800Y-5874200D02*
X16306200Y-5975800D01*
X16392921Y-5960921D02*
X16392921Y-5889079D01*
X16321079Y-5889079D01*
X16321079Y-5960921D01*
X16392921Y-5960921D01*
X16306200Y-6128200D02*
X16407800Y-6229800D01*
X16407800Y-6128200D02*
X16306200Y-6229800D01*
X16392921Y-6214921D02*
X16392921Y-6143079D01*
X16321079Y-6143079D01*
X16321079Y-6214921D01*
X16392921Y-6214921D01*
X16306200Y-6382200D02*
X16407800Y-6483800D01*
X16407800Y-6382200D02*
X16306200Y-6483800D01*
X16392921Y-6468921D02*
X16392921Y-6397079D01*
X16321079Y-6397079D01*
X16321079Y-6468921D01*
X16392921Y-6468921D01*
X16306200Y-6636200D02*
X16407800Y-6737800D01*
X16407800Y-6636200D02*
X16306200Y-6737800D01*
X16392921Y-6722921D02*
X16392921Y-6651079D01*
X16321079Y-6651079D01*
X16321079Y-6722921D01*
X16392921Y-6722921D01*
X16306200Y-6890200D02*
X16407800Y-6991800D01*
X16407800Y-6890200D02*
X16306200Y-6991800D01*
X16392921Y-6976921D02*
X16392921Y-6905079D01*
X16321079Y-6905079D01*
X16321079Y-6976921D01*
X16392921Y-6976921D01*
X16306200Y-7144200D02*
X16407800Y-7245800D01*
X16407800Y-7144200D02*
X16306200Y-7245800D01*
X16392921Y-7230921D02*
X16392921Y-7159079D01*
X16321079Y-7159079D01*
X16321079Y-7230921D01*
X16392921Y-7230921D01*
X16306200Y-7398200D02*
X16407800Y-7499800D01*
X16407800Y-7398200D02*
X16306200Y-7499800D01*
X16392921Y-7484921D02*
X16392921Y-7413079D01*
X16321079Y-7413079D01*
X16321079Y-7484921D01*
X16392921Y-7484921D01*
X16306200Y-7652200D02*
X16407800Y-7753800D01*
X16407800Y-7652200D02*
X16306200Y-7753800D01*
X16392921Y-7738921D02*
X16392921Y-7667079D01*
X16321079Y-7667079D01*
X16321079Y-7738921D01*
X16392921Y-7738921D01*
X16306200Y-7906200D02*
X16407800Y-8007800D01*
X16407800Y-7906200D02*
X16306200Y-8007800D01*
X16392921Y-7992921D02*
X16392921Y-7921079D01*
X16321079Y-7921079D01*
X16321079Y-7992921D01*
X16392921Y-7992921D01*
X16306200Y-8160200D02*
X16407800Y-8261800D01*
X16407800Y-8160200D02*
X16306200Y-8261800D01*
X16392921Y-8246921D02*
X16392921Y-8175079D01*
X16321079Y-8175079D01*
X16321079Y-8246921D01*
X16392921Y-8246921D01*
X16306200Y-8414200D02*
X16407800Y-8515800D01*
X16407800Y-8414200D02*
X16306200Y-8515800D01*
X16392921Y-8500921D02*
X16392921Y-8429079D01*
X16321079Y-8429079D01*
X16321079Y-8500921D01*
X16392921Y-8500921D01*
X16306200Y-8668200D02*
X16407800Y-8769800D01*
X16407800Y-8668200D02*
X16306200Y-8769800D01*
X16392921Y-8754921D02*
X16392921Y-8683079D01*
X16321079Y-8683079D01*
X16321079Y-8754921D01*
X16392921Y-8754921D01*
X16306200Y-8922200D02*
X16407800Y-9023800D01*
X16407800Y-8922200D02*
X16306200Y-9023800D01*
X16392921Y-9008921D02*
X16392921Y-8937079D01*
X16321079Y-8937079D01*
X16321079Y-9008921D01*
X16392921Y-9008921D01*
X16306200Y-9176200D02*
X16407800Y-9277800D01*
X16407800Y-9176200D02*
X16306200Y-9277800D01*
X16392921Y-9262921D02*
X16392921Y-9191079D01*
X16321079Y-9191079D01*
X16321079Y-9262921D01*
X16392921Y-9262921D01*
X16306200Y-9430200D02*
X16407800Y-9531800D01*
X16407800Y-9430200D02*
X16306200Y-9531800D01*
X16392921Y-9516921D02*
X16392921Y-9445079D01*
X16321079Y-9445079D01*
X16321079Y-9516921D01*
X16392921Y-9516921D01*
X16306200Y-9684200D02*
X16407800Y-9785800D01*
X16407800Y-9684200D02*
X16306200Y-9785800D01*
X16392921Y-9770921D02*
X16392921Y-9699079D01*
X16321079Y-9699079D01*
X16321079Y-9770921D01*
X16392921Y-9770921D01*
X16306200Y-9938200D02*
X16407800Y-10039800D01*
X16407800Y-9938200D02*
X16306200Y-10039800D01*
X16392921Y-10024921D02*
X16392921Y-9953079D01*
X16321079Y-9953079D01*
X16321079Y-10024921D01*
X16392921Y-10024921D01*
X16306200Y-10192200D02*
X16407800Y-10293800D01*
X16407800Y-10192200D02*
X16306200Y-10293800D01*
X16392921Y-10278921D02*
X16392921Y-10207079D01*
X16321079Y-10207079D01*
X16321079Y-10278921D01*
X16392921Y-10278921D01*
X5182000Y-4369000D02*
X5292000Y-4479000D01*
X5292000Y-4369000D02*
X5182000Y-4479000D01*
X5237000Y-4479000D02*
X5292000Y-4424000D01*
X5237000Y-4369000D01*
X5182000Y-4424000D01*
X5237000Y-4479000D01*
X5182000Y-5385000D02*
X5292000Y-5495000D01*
X5292000Y-5385000D02*
X5182000Y-5495000D01*
X5237000Y-5495000D02*
X5292000Y-5440000D01*
X5237000Y-5385000D01*
X5182000Y-5440000D01*
X5237000Y-5495000D01*
X5182000Y-5707000D02*
X5292000Y-5817000D01*
X5292000Y-5707000D02*
X5182000Y-5817000D01*
X5237000Y-5817000D02*
X5292000Y-5762000D01*
X5237000Y-5707000D01*
X5182000Y-5762000D01*
X5237000Y-5817000D01*
X5182000Y-6723000D02*
X5292000Y-6833000D01*
X5292000Y-6723000D02*
X5182000Y-6833000D01*
X5237000Y-6833000D02*
X5292000Y-6778000D01*
X5237000Y-6723000D01*
X5182000Y-6778000D01*
X5237000Y-6833000D01*
X5182000Y-7024000D02*
X5292000Y-7134000D01*
X5292000Y-7024000D02*
X5182000Y-7134000D01*
X5237000Y-7134000D02*
X5292000Y-7079000D01*
X5237000Y-7024000D01*
X5182000Y-7079000D01*
X5237000Y-7134000D01*
X5182000Y-8040000D02*
X5292000Y-8150000D01*
X5292000Y-8040000D02*
X5182000Y-8150000D01*
X5237000Y-8150000D02*
X5292000Y-8095000D01*
X5237000Y-8040000D01*
X5182000Y-8095000D01*
X5237000Y-8150000D01*
X4488000Y-4611000D02*
X4488000Y-4763000D01*
X4412000Y-4687000D02*
X4564000Y-4687000D01*
X4564000Y-4687000D02*
G75*
G03*
X4564000Y-4687000I-76000J0D01*
G01*
X4488000Y-5119000D02*
X4488000Y-5271000D01*
X4412000Y-5195000D02*
X4564000Y-5195000D01*
X4564000Y-5195000D02*
G75*
G03*
X4564000Y-5195000I-76000J0D01*
G01*
X4489000Y-5745000D02*
X4489000Y-5897000D01*
X4413000Y-5821000D02*
X4565000Y-5821000D01*
X4565000Y-5821000D02*
G75*
G03*
X4565000Y-5821000I-76000J0D01*
G01*
X4489000Y-6253000D02*
X4489000Y-6405000D01*
X4413000Y-6329000D02*
X4565000Y-6329000D01*
X4565000Y-6329000D02*
G75*
G03*
X4565000Y-6329000I-76000J0D01*
G01*
X4499000Y-6874000D02*
X4499000Y-7026000D01*
X4423000Y-6950000D02*
X4575000Y-6950000D01*
X4575000Y-6950000D02*
G75*
G03*
X4575000Y-6950000I-76000J0D01*
G01*
X4499000Y-7382000D02*
X4499000Y-7534000D01*
X4423000Y-7458000D02*
X4575000Y-7458000D01*
X4575000Y-7458000D02*
G75*
G03*
X4575000Y-7458000I-76000J0D01*
G01*
X19612861Y-3894361D02*
X19612861Y-3752939D01*
X19471439Y-3752939D01*
X19471439Y-3894361D01*
X19612861Y-3894361D01*
X19642150Y-3823650D02*
G75*
G03*
X19642150Y-3823650I-100000J0D01*
G01*
X19612861Y-7971061D02*
X19612861Y-7829639D01*
X19471439Y-7829639D01*
X19471439Y-7971061D01*
X19612861Y-7971061D01*
X19642150Y-7900350D02*
G75*
G03*
X19642150Y-7900350I-100000J0D01*
G01*
X19612861Y-8723361D02*
X19612861Y-8581939D01*
X19471439Y-8581939D01*
X19471439Y-8723361D01*
X19612861Y-8723361D01*
X19642150Y-8652650D02*
G75*
G03*
X19642150Y-8652650I-100000J0D01*
G01*
X19612861Y-12800061D02*
X19612861Y-12658639D01*
X19471439Y-12658639D01*
X19471439Y-12800061D01*
X19612861Y-12800061D01*
X19642150Y-12729350D02*
G75*
G03*
X19642150Y-12729350I-100000J0D01*
G01*
X4181000Y-3954000D02*
X4291000Y-3844000D01*
X4181000Y-3734000D01*
X4071000Y-3844000D01*
X4181000Y-3954000D01*
X4291000Y-3844000D02*
G75*
G03*
X4291000Y-3844000I-110000J0D01*
G01*
X4188000Y-12947000D02*
X4298000Y-12837000D01*
X4188000Y-12727000D01*
X4078000Y-12837000D01*
X4188000Y-12947000D01*
X4298000Y-12837000D02*
G75*
G03*
X4298000Y-12837000I-110000J0D01*
G01*
X20560000Y-12931000D02*
X20670000Y-12821000D01*
X20560000Y-12711000D01*
X20450000Y-12821000D01*
X20560000Y-12931000D01*
X20670000Y-12821000D02*
G75*
G03*
X20670000Y-12821000I-110000J0D01*
G01*
X20575000Y-3937000D02*
X20685000Y-3827000D01*
X20575000Y-3717000D01*
X20465000Y-3827000D01*
X20575000Y-3937000D01*
X20685000Y-3827000D02*
G75*
G03*
X20685000Y-3827000I-110000J0D01*
G01*
X8102000Y-10591000D02*
X8102000Y-10911000D01*
X7942000Y-10751000D02*
X8262000Y-10751000D01*
X8215138Y-10864138D02*
X8215138Y-10637862D01*
X7988862Y-10637862D01*
X7988862Y-10864138D01*
X8215138Y-10864138D01*
X8229000Y-5765000D02*
X8229000Y-6085000D01*
X8069000Y-5925000D02*
X8389000Y-5925000D01*
X8342138Y-6038138D02*
X8342138Y-5811862D01*
X8115862Y-5811862D01*
X8115862Y-6038138D01*
X8342138Y-6038138D01*
X13309000Y-7289000D02*
X13309000Y-7609000D01*
X13149000Y-7449000D02*
X13469000Y-7449000D01*
X13422138Y-7562138D02*
X13422138Y-7335862D01*
X13195862Y-7335862D01*
X13195862Y-7562138D01*
X13422138Y-7562138D01*
X13309000Y-10083000D02*
X13309000Y-10403000D01*
X13149000Y-10243000D02*
X13469000Y-10243000D01*
X13422138Y-10356138D02*
X13422138Y-10129862D01*
X13195862Y-10129862D01*
X13195862Y-10356138D01*
X13422138Y-10356138D01*
X15722000Y-5765000D02*
X15722000Y-6085000D01*
X15562000Y-5925000D02*
X15882000Y-5925000D01*
X15835138Y-6038138D02*
X15835138Y-5811862D01*
X15608862Y-5811862D01*
X15608862Y-6038138D01*
X15835138Y-6038138D01*
X16357000Y-10591000D02*
X16357000Y-10911000D01*
X16197000Y-10751000D02*
X16517000Y-10751000D01*
X16470138Y-10864138D02*
X16470138Y-10637862D01*
X16243862Y-10637862D01*
X16243862Y-10864138D01*
X16470138Y-10864138D01*
D12*
X4163928Y-13630214D02*
X4163928Y-13330214D01*
X4235357Y-13330214D01*
X4278214Y-13344500D01*
X4306786Y-13373071D01*
X4321071Y-13401643D01*
X4335357Y-13458786D01*
X4335357Y-13501643D01*
X4321071Y-13558786D01*
X4306786Y-13587357D01*
X4278214Y-13615929D01*
X4235357Y-13630214D01*
X4163928Y-13630214D01*
X4463928Y-13630214D02*
X4463928Y-13430214D01*
X4463928Y-13487357D02*
X4478214Y-13458786D01*
X4492500Y-13444500D01*
X4521071Y-13430214D01*
X4549643Y-13430214D01*
X4649643Y-13630214D02*
X4649643Y-13430214D01*
X4649643Y-13330214D02*
X4635357Y-13344500D01*
X4649643Y-13358786D01*
X4663928Y-13344500D01*
X4649643Y-13330214D01*
X4649643Y-13358786D01*
X4835357Y-13630214D02*
X4806786Y-13615929D01*
X4792500Y-13587357D01*
X4792500Y-13330214D01*
X4992500Y-13630214D02*
X4963928Y-13615929D01*
X4949643Y-13587357D01*
X4949643Y-13330214D01*
X5335357Y-13630214D02*
X5335357Y-13330214D01*
X5435357Y-13544500D01*
X5535357Y-13330214D01*
X5535357Y-13630214D01*
X5806786Y-13630214D02*
X5806786Y-13473071D01*
X5792500Y-13444500D01*
X5763928Y-13430214D01*
X5706786Y-13430214D01*
X5678214Y-13444500D01*
X5806786Y-13615929D02*
X5778214Y-13630214D01*
X5706786Y-13630214D01*
X5678214Y-13615929D01*
X5663928Y-13587357D01*
X5663928Y-13558786D01*
X5678214Y-13530214D01*
X5706786Y-13515929D01*
X5778214Y-13515929D01*
X5806786Y-13501643D01*
X5949643Y-13430214D02*
X5949643Y-13730214D01*
X5949643Y-13444500D02*
X5978214Y-13430214D01*
X6035357Y-13430214D01*
X6063928Y-13444500D01*
X6078214Y-13458786D01*
X6092500Y-13487357D01*
X6092500Y-13573071D01*
X6078214Y-13601643D01*
X6063928Y-13615929D01*
X6035357Y-13630214D01*
X5978214Y-13630214D01*
X5949643Y-13615929D01*
X6221071Y-13601643D02*
X6235357Y-13615929D01*
X6221071Y-13630214D01*
X6206786Y-13615929D01*
X6221071Y-13601643D01*
X6221071Y-13630214D01*
X6221071Y-13444500D02*
X6235357Y-13458786D01*
X6221071Y-13473071D01*
X6206786Y-13458786D01*
X6221071Y-13444500D01*
X6221071Y-13473071D01*
X3814000Y-14092750D02*
X3877500Y-14156250D01*
X3877500Y-14092750D02*
X3814000Y-14156250D01*
X4221071Y-13960214D02*
X4249643Y-13960214D01*
X4278214Y-13974500D01*
X4292500Y-13988786D01*
X4306786Y-14017357D01*
X4321071Y-14074500D01*
X4321071Y-14145929D01*
X4306786Y-14203071D01*
X4292500Y-14231643D01*
X4278214Y-14245929D01*
X4249643Y-14260214D01*
X4221071Y-14260214D01*
X4192500Y-14245929D01*
X4178214Y-14231643D01*
X4163928Y-14203071D01*
X4149643Y-14145929D01*
X4149643Y-14074500D01*
X4163928Y-14017357D01*
X4178214Y-13988786D01*
X4192500Y-13974500D01*
X4221071Y-13960214D01*
X4449643Y-14231643D02*
X4463928Y-14245929D01*
X4449643Y-14260214D01*
X4435357Y-14245929D01*
X4449643Y-14231643D01*
X4449643Y-14260214D01*
X4721071Y-13960214D02*
X4663928Y-13960214D01*
X4635357Y-13974500D01*
X4621071Y-13988786D01*
X4592500Y-14031643D01*
X4578214Y-14088786D01*
X4578214Y-14203071D01*
X4592500Y-14231643D01*
X4606786Y-14245929D01*
X4635357Y-14260214D01*
X4692500Y-14260214D01*
X4721071Y-14245929D01*
X4735357Y-14231643D01*
X4749643Y-14203071D01*
X4749643Y-14131643D01*
X4735357Y-14103071D01*
X4721071Y-14088786D01*
X4692500Y-14074500D01*
X4635357Y-14074500D01*
X4606786Y-14088786D01*
X4592500Y-14103071D01*
X4578214Y-14131643D01*
X5006786Y-14060214D02*
X5006786Y-14260214D01*
X4935357Y-13945929D02*
X4863928Y-14160214D01*
X5049643Y-14160214D01*
X5163928Y-14260214D02*
X5163928Y-14060214D01*
X5163928Y-14088786D02*
X5178214Y-14074500D01*
X5206786Y-14060214D01*
X5249643Y-14060214D01*
X5278214Y-14074500D01*
X5292500Y-14103071D01*
X5292500Y-14260214D01*
X5292500Y-14103071D02*
X5306786Y-14074500D01*
X5335357Y-14060214D01*
X5378214Y-14060214D01*
X5406786Y-14074500D01*
X5421071Y-14103071D01*
X5421071Y-14260214D01*
X5563928Y-14260214D02*
X5563928Y-14060214D01*
X5563928Y-14088786D02*
X5578214Y-14074500D01*
X5606786Y-14060214D01*
X5649643Y-14060214D01*
X5678214Y-14074500D01*
X5692500Y-14103071D01*
X5692500Y-14260214D01*
X5692500Y-14103071D02*
X5706786Y-14074500D01*
X5735357Y-14060214D01*
X5778214Y-14060214D01*
X5806786Y-14074500D01*
X5821071Y-14103071D01*
X5821071Y-14260214D01*
X6406786Y-13945929D02*
X6149643Y-14331643D01*
X6792500Y-13960214D02*
X6821071Y-13960214D01*
X6849643Y-13974500D01*
X6863928Y-13988786D01*
X6878214Y-14017357D01*
X6892500Y-14074500D01*
X6892500Y-14145929D01*
X6878214Y-14203071D01*
X6863928Y-14231643D01*
X6849643Y-14245929D01*
X6821071Y-14260214D01*
X6792500Y-14260214D01*
X6763928Y-14245929D01*
X6749643Y-14231643D01*
X6735357Y-14203071D01*
X6721071Y-14145929D01*
X6721071Y-14074500D01*
X6735357Y-14017357D01*
X6749643Y-13988786D01*
X6763928Y-13974500D01*
X6792500Y-13960214D01*
X7021071Y-14231643D02*
X7035357Y-14245929D01*
X7021071Y-14260214D01*
X7006786Y-14245929D01*
X7021071Y-14231643D01*
X7021071Y-14260214D01*
X7221071Y-13960214D02*
X7249643Y-13960214D01*
X7278214Y-13974500D01*
X7292500Y-13988786D01*
X7306786Y-14017357D01*
X7321071Y-14074500D01*
X7321071Y-14145929D01*
X7306786Y-14203071D01*
X7292500Y-14231643D01*
X7278214Y-14245929D01*
X7249643Y-14260214D01*
X7221071Y-14260214D01*
X7192500Y-14245929D01*
X7178214Y-14231643D01*
X7163928Y-14203071D01*
X7149643Y-14145929D01*
X7149643Y-14074500D01*
X7163928Y-14017357D01*
X7178214Y-13988786D01*
X7192500Y-13974500D01*
X7221071Y-13960214D01*
X7435357Y-13988786D02*
X7449643Y-13974500D01*
X7478214Y-13960214D01*
X7549643Y-13960214D01*
X7578214Y-13974500D01*
X7592500Y-13988786D01*
X7606786Y-14017357D01*
X7606786Y-14045929D01*
X7592500Y-14088786D01*
X7421071Y-14260214D01*
X7606786Y-14260214D01*
X7878214Y-13960214D02*
X7735357Y-13960214D01*
X7721071Y-14103071D01*
X7735357Y-14088786D01*
X7763928Y-14074500D01*
X7835357Y-14074500D01*
X7863928Y-14088786D01*
X7878214Y-14103071D01*
X7892500Y-14131643D01*
X7892500Y-14203071D01*
X7878214Y-14231643D01*
X7863928Y-14245929D01*
X7835357Y-14260214D01*
X7763928Y-14260214D01*
X7735357Y-14245929D01*
X7721071Y-14231643D01*
X8006786Y-13960214D02*
X8006786Y-14017357D01*
X8121071Y-13960214D02*
X8121071Y-14017357D01*
X8563928Y-14374500D02*
X8549643Y-14360214D01*
X8521071Y-14317357D01*
X8506786Y-14288786D01*
X8492500Y-14245929D01*
X8478214Y-14174500D01*
X8478214Y-14117357D01*
X8492500Y-14045929D01*
X8506786Y-14003071D01*
X8521071Y-13974500D01*
X8549643Y-13931643D01*
X8563928Y-13917357D01*
X8835357Y-14260214D02*
X8663928Y-14260214D01*
X8749643Y-14260214D02*
X8749643Y-13960214D01*
X8721071Y-14003071D01*
X8692500Y-14031643D01*
X8663928Y-14045929D01*
X9106786Y-13960214D02*
X8963928Y-13960214D01*
X8949643Y-14103071D01*
X8963928Y-14088786D01*
X8992500Y-14074500D01*
X9063928Y-14074500D01*
X9092500Y-14088786D01*
X9106786Y-14103071D01*
X9121071Y-14131643D01*
X9121071Y-14203071D01*
X9106786Y-14231643D01*
X9092500Y-14245929D01*
X9063928Y-14260214D01*
X8992500Y-14260214D01*
X8963928Y-14245929D01*
X8949643Y-14231643D01*
X9478214Y-14260214D02*
X9478214Y-13960214D01*
X9606786Y-14260214D02*
X9606786Y-14103071D01*
X9592500Y-14074500D01*
X9563928Y-14060214D01*
X9521071Y-14060214D01*
X9492500Y-14074500D01*
X9478214Y-14088786D01*
X9792500Y-14260214D02*
X9763928Y-14245929D01*
X9749643Y-14231643D01*
X9735357Y-14203071D01*
X9735357Y-14117357D01*
X9749643Y-14088786D01*
X9763928Y-14074500D01*
X9792500Y-14060214D01*
X9835357Y-14060214D01*
X9863928Y-14074500D01*
X9878214Y-14088786D01*
X9892500Y-14117357D01*
X9892500Y-14203071D01*
X9878214Y-14231643D01*
X9863928Y-14245929D01*
X9835357Y-14260214D01*
X9792500Y-14260214D01*
X10063928Y-14260214D02*
X10035357Y-14245929D01*
X10021071Y-14217357D01*
X10021071Y-13960214D01*
X10292500Y-14245929D02*
X10263928Y-14260214D01*
X10206786Y-14260214D01*
X10178214Y-14245929D01*
X10163928Y-14217357D01*
X10163928Y-14103071D01*
X10178214Y-14074500D01*
X10206786Y-14060214D01*
X10263928Y-14060214D01*
X10292500Y-14074500D01*
X10306786Y-14103071D01*
X10306786Y-14131643D01*
X10163928Y-14160214D01*
X10421071Y-14245929D02*
X10449643Y-14260214D01*
X10506786Y-14260214D01*
X10535357Y-14245929D01*
X10549643Y-14217357D01*
X10549643Y-14203071D01*
X10535357Y-14174500D01*
X10506786Y-14160214D01*
X10463928Y-14160214D01*
X10435357Y-14145929D01*
X10421071Y-14117357D01*
X10421071Y-14103071D01*
X10435357Y-14074500D01*
X10463928Y-14060214D01*
X10506786Y-14060214D01*
X10535357Y-14074500D01*
X10649643Y-14374500D02*
X10663928Y-14360214D01*
X10692500Y-14317357D01*
X10706786Y-14288786D01*
X10721071Y-14245929D01*
X10735357Y-14174500D01*
X10735357Y-14117357D01*
X10721071Y-14045929D01*
X10706786Y-14003071D01*
X10692500Y-13974500D01*
X10663928Y-13931643D01*
X10649643Y-13917357D01*
X3877500Y-14520500D02*
G75*
G03*
X3877500Y-14520500I-38100J0D01*
G01*
X4221071Y-14356214D02*
X4249643Y-14356214D01*
X4278214Y-14370500D01*
X4292500Y-14384786D01*
X4306786Y-14413357D01*
X4321071Y-14470500D01*
X4321071Y-14541929D01*
X4306786Y-14599071D01*
X4292500Y-14627643D01*
X4278214Y-14641929D01*
X4249643Y-14656214D01*
X4221071Y-14656214D01*
X4192500Y-14641929D01*
X4178214Y-14627643D01*
X4163928Y-14599071D01*
X4149643Y-14541929D01*
X4149643Y-14470500D01*
X4163928Y-14413357D01*
X4178214Y-14384786D01*
X4192500Y-14370500D01*
X4221071Y-14356214D01*
X4449643Y-14627643D02*
X4463928Y-14641929D01*
X4449643Y-14656214D01*
X4435357Y-14641929D01*
X4449643Y-14627643D01*
X4449643Y-14656214D01*
X4563928Y-14356214D02*
X4763928Y-14356214D01*
X4635357Y-14656214D01*
X5006786Y-14356214D02*
X4949643Y-14356214D01*
X4921071Y-14370500D01*
X4906786Y-14384786D01*
X4878214Y-14427643D01*
X4863928Y-14484786D01*
X4863928Y-14599071D01*
X4878214Y-14627643D01*
X4892500Y-14641929D01*
X4921071Y-14656214D01*
X4978214Y-14656214D01*
X5006786Y-14641929D01*
X5021071Y-14627643D01*
X5035357Y-14599071D01*
X5035357Y-14527643D01*
X5021071Y-14499071D01*
X5006786Y-14484786D01*
X4978214Y-14470500D01*
X4921071Y-14470500D01*
X4892500Y-14484786D01*
X4878214Y-14499071D01*
X4863928Y-14527643D01*
X5163928Y-14656214D02*
X5163928Y-14456214D01*
X5163928Y-14484786D02*
X5178214Y-14470500D01*
X5206786Y-14456214D01*
X5249643Y-14456214D01*
X5278214Y-14470500D01*
X5292500Y-14499071D01*
X5292500Y-14656214D01*
X5292500Y-14499071D02*
X5306786Y-14470500D01*
X5335357Y-14456214D01*
X5378214Y-14456214D01*
X5406786Y-14470500D01*
X5421071Y-14499071D01*
X5421071Y-14656214D01*
X5563928Y-14656214D02*
X5563928Y-14456214D01*
X5563928Y-14484786D02*
X5578214Y-14470500D01*
X5606786Y-14456214D01*
X5649643Y-14456214D01*
X5678214Y-14470500D01*
X5692500Y-14499071D01*
X5692500Y-14656214D01*
X5692500Y-14499071D02*
X5706786Y-14470500D01*
X5735357Y-14456214D01*
X5778214Y-14456214D01*
X5806786Y-14470500D01*
X5821071Y-14499071D01*
X5821071Y-14656214D01*
X6406786Y-14341929D02*
X6149643Y-14727643D01*
X6792500Y-14356214D02*
X6821071Y-14356214D01*
X6849643Y-14370500D01*
X6863928Y-14384786D01*
X6878214Y-14413357D01*
X6892500Y-14470500D01*
X6892500Y-14541929D01*
X6878214Y-14599071D01*
X6863928Y-14627643D01*
X6849643Y-14641929D01*
X6821071Y-14656214D01*
X6792500Y-14656214D01*
X6763928Y-14641929D01*
X6749643Y-14627643D01*
X6735357Y-14599071D01*
X6721071Y-14541929D01*
X6721071Y-14470500D01*
X6735357Y-14413357D01*
X6749643Y-14384786D01*
X6763928Y-14370500D01*
X6792500Y-14356214D01*
X7021071Y-14627643D02*
X7035357Y-14641929D01*
X7021071Y-14656214D01*
X7006786Y-14641929D01*
X7021071Y-14627643D01*
X7021071Y-14656214D01*
X7221071Y-14356214D02*
X7249643Y-14356214D01*
X7278214Y-14370500D01*
X7292500Y-14384786D01*
X7306786Y-14413357D01*
X7321071Y-14470500D01*
X7321071Y-14541929D01*
X7306786Y-14599071D01*
X7292500Y-14627643D01*
X7278214Y-14641929D01*
X7249643Y-14656214D01*
X7221071Y-14656214D01*
X7192500Y-14641929D01*
X7178214Y-14627643D01*
X7163928Y-14599071D01*
X7149643Y-14541929D01*
X7149643Y-14470500D01*
X7163928Y-14413357D01*
X7178214Y-14384786D01*
X7192500Y-14370500D01*
X7221071Y-14356214D01*
X7421071Y-14356214D02*
X7606786Y-14356214D01*
X7506786Y-14470500D01*
X7549643Y-14470500D01*
X7578214Y-14484786D01*
X7592500Y-14499071D01*
X7606786Y-14527643D01*
X7606786Y-14599071D01*
X7592500Y-14627643D01*
X7578214Y-14641929D01*
X7549643Y-14656214D01*
X7463928Y-14656214D01*
X7435357Y-14641929D01*
X7421071Y-14627643D01*
X7792500Y-14356214D02*
X7821071Y-14356214D01*
X7849643Y-14370500D01*
X7863928Y-14384786D01*
X7878214Y-14413357D01*
X7892500Y-14470500D01*
X7892500Y-14541929D01*
X7878214Y-14599071D01*
X7863928Y-14627643D01*
X7849643Y-14641929D01*
X7821071Y-14656214D01*
X7792500Y-14656214D01*
X7763928Y-14641929D01*
X7749643Y-14627643D01*
X7735357Y-14599071D01*
X7721071Y-14541929D01*
X7721071Y-14470500D01*
X7735357Y-14413357D01*
X7749643Y-14384786D01*
X7763928Y-14370500D01*
X7792500Y-14356214D01*
X8006786Y-14356214D02*
X8006786Y-14413357D01*
X8121071Y-14356214D02*
X8121071Y-14413357D01*
X8563928Y-14770500D02*
X8549643Y-14756214D01*
X8521071Y-14713357D01*
X8506786Y-14684786D01*
X8492500Y-14641929D01*
X8478214Y-14570500D01*
X8478214Y-14513357D01*
X8492500Y-14441929D01*
X8506786Y-14399071D01*
X8521071Y-14370500D01*
X8549643Y-14327643D01*
X8563928Y-14313357D01*
X8806786Y-14356214D02*
X8749643Y-14356214D01*
X8721071Y-14370500D01*
X8706786Y-14384786D01*
X8678214Y-14427643D01*
X8663928Y-14484786D01*
X8663928Y-14599071D01*
X8678214Y-14627643D01*
X8692500Y-14641929D01*
X8721071Y-14656214D01*
X8778214Y-14656214D01*
X8806786Y-14641929D01*
X8821071Y-14627643D01*
X8835357Y-14599071D01*
X8835357Y-14527643D01*
X8821071Y-14499071D01*
X8806786Y-14484786D01*
X8778214Y-14470500D01*
X8721071Y-14470500D01*
X8692500Y-14484786D01*
X8678214Y-14499071D01*
X8663928Y-14527643D01*
X8949643Y-14384786D02*
X8963928Y-14370500D01*
X8992500Y-14356214D01*
X9063928Y-14356214D01*
X9092500Y-14370500D01*
X9106786Y-14384786D01*
X9121071Y-14413357D01*
X9121071Y-14441929D01*
X9106786Y-14484786D01*
X8935357Y-14656214D01*
X9121071Y-14656214D01*
X9478214Y-14656214D02*
X9478214Y-14356214D01*
X9606786Y-14656214D02*
X9606786Y-14499071D01*
X9592500Y-14470500D01*
X9563928Y-14456214D01*
X9521071Y-14456214D01*
X9492500Y-14470500D01*
X9478214Y-14484786D01*
X9792500Y-14656214D02*
X9763928Y-14641929D01*
X9749643Y-14627643D01*
X9735357Y-14599071D01*
X9735357Y-14513357D01*
X9749643Y-14484786D01*
X9763928Y-14470500D01*
X9792500Y-14456214D01*
X9835357Y-14456214D01*
X9863928Y-14470500D01*
X9878214Y-14484786D01*
X9892500Y-14513357D01*
X9892500Y-14599071D01*
X9878214Y-14627643D01*
X9863928Y-14641929D01*
X9835357Y-14656214D01*
X9792500Y-14656214D01*
X10063928Y-14656214D02*
X10035357Y-14641929D01*
X10021071Y-14613357D01*
X10021071Y-14356214D01*
X10292500Y-14641929D02*
X10263928Y-14656214D01*
X10206786Y-14656214D01*
X10178214Y-14641929D01*
X10163928Y-14613357D01*
X10163928Y-14499071D01*
X10178214Y-14470500D01*
X10206786Y-14456214D01*
X10263928Y-14456214D01*
X10292500Y-14470500D01*
X10306786Y-14499071D01*
X10306786Y-14527643D01*
X10163928Y-14556214D01*
X10421071Y-14641929D02*
X10449643Y-14656214D01*
X10506786Y-14656214D01*
X10535357Y-14641929D01*
X10549643Y-14613357D01*
X10549643Y-14599071D01*
X10535357Y-14570500D01*
X10506786Y-14556214D01*
X10463928Y-14556214D01*
X10435357Y-14541929D01*
X10421071Y-14513357D01*
X10421071Y-14499071D01*
X10435357Y-14470500D01*
X10463928Y-14456214D01*
X10506786Y-14456214D01*
X10535357Y-14470500D01*
X10649643Y-14770500D02*
X10663928Y-14756214D01*
X10692500Y-14713357D01*
X10706786Y-14684786D01*
X10721071Y-14641929D01*
X10735357Y-14570500D01*
X10735357Y-14513357D01*
X10721071Y-14441929D01*
X10706786Y-14399071D01*
X10692500Y-14370500D01*
X10663928Y-14327643D01*
X10649643Y-14313357D01*
X3837500Y-14876500D02*
X3837500Y-14956500D01*
X3797500Y-14916500D02*
X3877500Y-14916500D01*
X4221071Y-14752214D02*
X4249643Y-14752214D01*
X4278214Y-14766500D01*
X4292500Y-14780786D01*
X4306786Y-14809357D01*
X4321071Y-14866500D01*
X4321071Y-14937929D01*
X4306786Y-14995071D01*
X4292500Y-15023643D01*
X4278214Y-15037929D01*
X4249643Y-15052214D01*
X4221071Y-15052214D01*
X4192500Y-15037929D01*
X4178214Y-15023643D01*
X4163928Y-14995071D01*
X4149643Y-14937929D01*
X4149643Y-14866500D01*
X4163928Y-14809357D01*
X4178214Y-14780786D01*
X4192500Y-14766500D01*
X4221071Y-14752214D01*
X4449643Y-15023643D02*
X4463928Y-15037929D01*
X4449643Y-15052214D01*
X4435357Y-15037929D01*
X4449643Y-15023643D01*
X4449643Y-15052214D01*
X4635357Y-14880786D02*
X4606786Y-14866500D01*
X4592500Y-14852214D01*
X4578214Y-14823643D01*
X4578214Y-14809357D01*
X4592500Y-14780786D01*
X4606786Y-14766500D01*
X4635357Y-14752214D01*
X4692500Y-14752214D01*
X4721071Y-14766500D01*
X4735357Y-14780786D01*
X4749643Y-14809357D01*
X4749643Y-14823643D01*
X4735357Y-14852214D01*
X4721071Y-14866500D01*
X4692500Y-14880786D01*
X4635357Y-14880786D01*
X4606786Y-14895071D01*
X4592500Y-14909357D01*
X4578214Y-14937929D01*
X4578214Y-14995071D01*
X4592500Y-15023643D01*
X4606786Y-15037929D01*
X4635357Y-15052214D01*
X4692500Y-15052214D01*
X4721071Y-15037929D01*
X4735357Y-15023643D01*
X4749643Y-14995071D01*
X4749643Y-14937929D01*
X4735357Y-14909357D01*
X4721071Y-14895071D01*
X4692500Y-14880786D01*
X4935357Y-14752214D02*
X4963928Y-14752214D01*
X4992500Y-14766500D01*
X5006786Y-14780786D01*
X5021071Y-14809357D01*
X5035357Y-14866500D01*
X5035357Y-14937929D01*
X5021071Y-14995071D01*
X5006786Y-15023643D01*
X4992500Y-15037929D01*
X4963928Y-15052214D01*
X4935357Y-15052214D01*
X4906786Y-15037929D01*
X4892500Y-15023643D01*
X4878214Y-14995071D01*
X4863928Y-14937929D01*
X4863928Y-14866500D01*
X4878214Y-14809357D01*
X4892500Y-14780786D01*
X4906786Y-14766500D01*
X4935357Y-14752214D01*
X5163928Y-15052214D02*
X5163928Y-14852214D01*
X5163928Y-14880786D02*
X5178214Y-14866500D01*
X5206786Y-14852214D01*
X5249643Y-14852214D01*
X5278214Y-14866500D01*
X5292500Y-14895071D01*
X5292500Y-15052214D01*
X5292500Y-14895071D02*
X5306786Y-14866500D01*
X5335357Y-14852214D01*
X5378214Y-14852214D01*
X5406786Y-14866500D01*
X5421071Y-14895071D01*
X5421071Y-15052214D01*
X5563928Y-15052214D02*
X5563928Y-14852214D01*
X5563928Y-14880786D02*
X5578214Y-14866500D01*
X5606786Y-14852214D01*
X5649643Y-14852214D01*
X5678214Y-14866500D01*
X5692500Y-14895071D01*
X5692500Y-15052214D01*
X5692500Y-14895071D02*
X5706786Y-14866500D01*
X5735357Y-14852214D01*
X5778214Y-14852214D01*
X5806786Y-14866500D01*
X5821071Y-14895071D01*
X5821071Y-15052214D01*
X6406786Y-14737929D02*
X6149643Y-15123643D01*
X6792500Y-14752214D02*
X6821071Y-14752214D01*
X6849643Y-14766500D01*
X6863928Y-14780786D01*
X6878214Y-14809357D01*
X6892500Y-14866500D01*
X6892500Y-14937929D01*
X6878214Y-14995071D01*
X6863928Y-15023643D01*
X6849643Y-15037929D01*
X6821071Y-15052214D01*
X6792500Y-15052214D01*
X6763928Y-15037929D01*
X6749643Y-15023643D01*
X6735357Y-14995071D01*
X6721071Y-14937929D01*
X6721071Y-14866500D01*
X6735357Y-14809357D01*
X6749643Y-14780786D01*
X6763928Y-14766500D01*
X6792500Y-14752214D01*
X7021071Y-15023643D02*
X7035357Y-15037929D01*
X7021071Y-15052214D01*
X7006786Y-15037929D01*
X7021071Y-15023643D01*
X7021071Y-15052214D01*
X7221071Y-14752214D02*
X7249643Y-14752214D01*
X7278214Y-14766500D01*
X7292500Y-14780786D01*
X7306786Y-14809357D01*
X7321071Y-14866500D01*
X7321071Y-14937929D01*
X7306786Y-14995071D01*
X7292500Y-15023643D01*
X7278214Y-15037929D01*
X7249643Y-15052214D01*
X7221071Y-15052214D01*
X7192500Y-15037929D01*
X7178214Y-15023643D01*
X7163928Y-14995071D01*
X7149643Y-14937929D01*
X7149643Y-14866500D01*
X7163928Y-14809357D01*
X7178214Y-14780786D01*
X7192500Y-14766500D01*
X7221071Y-14752214D01*
X7421071Y-14752214D02*
X7606786Y-14752214D01*
X7506786Y-14866500D01*
X7549643Y-14866500D01*
X7578214Y-14880786D01*
X7592500Y-14895071D01*
X7606786Y-14923643D01*
X7606786Y-14995071D01*
X7592500Y-15023643D01*
X7578214Y-15037929D01*
X7549643Y-15052214D01*
X7463928Y-15052214D01*
X7435357Y-15037929D01*
X7421071Y-15023643D01*
X7892500Y-15052214D02*
X7721071Y-15052214D01*
X7806786Y-15052214D02*
X7806786Y-14752214D01*
X7778214Y-14795071D01*
X7749643Y-14823643D01*
X7721071Y-14837929D01*
X8006786Y-14752214D02*
X8006786Y-14809357D01*
X8121071Y-14752214D02*
X8121071Y-14809357D01*
X8563928Y-15166500D02*
X8549643Y-15152214D01*
X8521071Y-15109357D01*
X8506786Y-15080786D01*
X8492500Y-15037929D01*
X8478214Y-14966500D01*
X8478214Y-14909357D01*
X8492500Y-14837929D01*
X8506786Y-14795071D01*
X8521071Y-14766500D01*
X8549643Y-14723643D01*
X8563928Y-14709357D01*
X8649643Y-14752214D02*
X8835357Y-14752214D01*
X8735357Y-14866500D01*
X8778214Y-14866500D01*
X8806786Y-14880786D01*
X8821071Y-14895071D01*
X8835357Y-14923643D01*
X8835357Y-14995071D01*
X8821071Y-15023643D01*
X8806786Y-15037929D01*
X8778214Y-15052214D01*
X8692500Y-15052214D01*
X8663928Y-15037929D01*
X8649643Y-15023643D01*
X9092500Y-14752214D02*
X9035357Y-14752214D01*
X9006786Y-14766500D01*
X8992500Y-14780786D01*
X8963928Y-14823643D01*
X8949643Y-14880786D01*
X8949643Y-14995071D01*
X8963928Y-15023643D01*
X8978214Y-15037929D01*
X9006786Y-15052214D01*
X9063928Y-15052214D01*
X9092500Y-15037929D01*
X9106786Y-15023643D01*
X9121071Y-14995071D01*
X9121071Y-14923643D01*
X9106786Y-14895071D01*
X9092500Y-14880786D01*
X9063928Y-14866500D01*
X9006786Y-14866500D01*
X8978214Y-14880786D01*
X8963928Y-14895071D01*
X8949643Y-14923643D01*
X9478214Y-15052214D02*
X9478214Y-14752214D01*
X9606786Y-15052214D02*
X9606786Y-14895071D01*
X9592500Y-14866500D01*
X9563928Y-14852214D01*
X9521071Y-14852214D01*
X9492500Y-14866500D01*
X9478214Y-14880786D01*
X9792500Y-15052214D02*
X9763928Y-15037929D01*
X9749643Y-15023643D01*
X9735357Y-14995071D01*
X9735357Y-14909357D01*
X9749643Y-14880786D01*
X9763928Y-14866500D01*
X9792500Y-14852214D01*
X9835357Y-14852214D01*
X9863928Y-14866500D01*
X9878214Y-14880786D01*
X9892500Y-14909357D01*
X9892500Y-14995071D01*
X9878214Y-15023643D01*
X9863928Y-15037929D01*
X9835357Y-15052214D01*
X9792500Y-15052214D01*
X10063928Y-15052214D02*
X10035357Y-15037929D01*
X10021071Y-15009357D01*
X10021071Y-14752214D01*
X10292500Y-15037929D02*
X10263928Y-15052214D01*
X10206786Y-15052214D01*
X10178214Y-15037929D01*
X10163928Y-15009357D01*
X10163928Y-14895071D01*
X10178214Y-14866500D01*
X10206786Y-14852214D01*
X10263928Y-14852214D01*
X10292500Y-14866500D01*
X10306786Y-14895071D01*
X10306786Y-14923643D01*
X10163928Y-14952214D01*
X10421071Y-15037929D02*
X10449643Y-15052214D01*
X10506786Y-15052214D01*
X10535357Y-15037929D01*
X10549643Y-15009357D01*
X10549643Y-14995071D01*
X10535357Y-14966500D01*
X10506786Y-14952214D01*
X10463928Y-14952214D01*
X10435357Y-14937929D01*
X10421071Y-14909357D01*
X10421071Y-14895071D01*
X10435357Y-14866500D01*
X10463928Y-14852214D01*
X10506786Y-14852214D01*
X10535357Y-14866500D01*
X10649643Y-15166500D02*
X10663928Y-15152214D01*
X10692500Y-15109357D01*
X10706786Y-15080786D01*
X10721071Y-15037929D01*
X10735357Y-14966500D01*
X10735357Y-14909357D01*
X10721071Y-14837929D01*
X10706786Y-14795071D01*
X10692500Y-14766500D01*
X10663928Y-14723643D01*
X10649643Y-14709357D01*
X3864320Y-15344320D02*
X3864320Y-15280680D01*
X3800680Y-15280680D01*
X3800680Y-15344320D01*
X3864320Y-15344320D01*
X4221071Y-15148214D02*
X4249643Y-15148214D01*
X4278214Y-15162500D01*
X4292500Y-15176786D01*
X4306786Y-15205357D01*
X4321071Y-15262500D01*
X4321071Y-15333929D01*
X4306786Y-15391071D01*
X4292500Y-15419643D01*
X4278214Y-15433929D01*
X4249643Y-15448214D01*
X4221071Y-15448214D01*
X4192500Y-15433929D01*
X4178214Y-15419643D01*
X4163928Y-15391071D01*
X4149643Y-15333929D01*
X4149643Y-15262500D01*
X4163928Y-15205357D01*
X4178214Y-15176786D01*
X4192500Y-15162500D01*
X4221071Y-15148214D01*
X4449643Y-15419643D02*
X4463928Y-15433929D01*
X4449643Y-15448214D01*
X4435357Y-15433929D01*
X4449643Y-15419643D01*
X4449643Y-15448214D01*
X4606786Y-15448214D02*
X4663928Y-15448214D01*
X4692500Y-15433929D01*
X4706786Y-15419643D01*
X4735357Y-15376786D01*
X4749643Y-15319643D01*
X4749643Y-15205357D01*
X4735357Y-15176786D01*
X4721071Y-15162500D01*
X4692500Y-15148214D01*
X4635357Y-15148214D01*
X4606786Y-15162500D01*
X4592500Y-15176786D01*
X4578214Y-15205357D01*
X4578214Y-15276786D01*
X4592500Y-15305357D01*
X4606786Y-15319643D01*
X4635357Y-15333929D01*
X4692500Y-15333929D01*
X4721071Y-15319643D01*
X4735357Y-15305357D01*
X4749643Y-15276786D01*
X4935357Y-15148214D02*
X4963928Y-15148214D01*
X4992500Y-15162500D01*
X5006786Y-15176786D01*
X5021071Y-15205357D01*
X5035357Y-15262500D01*
X5035357Y-15333929D01*
X5021071Y-15391071D01*
X5006786Y-15419643D01*
X4992500Y-15433929D01*
X4963928Y-15448214D01*
X4935357Y-15448214D01*
X4906786Y-15433929D01*
X4892500Y-15419643D01*
X4878214Y-15391071D01*
X4863928Y-15333929D01*
X4863928Y-15262500D01*
X4878214Y-15205357D01*
X4892500Y-15176786D01*
X4906786Y-15162500D01*
X4935357Y-15148214D01*
X5163928Y-15448214D02*
X5163928Y-15248214D01*
X5163928Y-15276786D02*
X5178214Y-15262500D01*
X5206786Y-15248214D01*
X5249643Y-15248214D01*
X5278214Y-15262500D01*
X5292500Y-15291071D01*
X5292500Y-15448214D01*
X5292500Y-15291071D02*
X5306786Y-15262500D01*
X5335357Y-15248214D01*
X5378214Y-15248214D01*
X5406786Y-15262500D01*
X5421071Y-15291071D01*
X5421071Y-15448214D01*
X5563928Y-15448214D02*
X5563928Y-15248214D01*
X5563928Y-15276786D02*
X5578214Y-15262500D01*
X5606786Y-15248214D01*
X5649643Y-15248214D01*
X5678214Y-15262500D01*
X5692500Y-15291071D01*
X5692500Y-15448214D01*
X5692500Y-15291071D02*
X5706786Y-15262500D01*
X5735357Y-15248214D01*
X5778214Y-15248214D01*
X5806786Y-15262500D01*
X5821071Y-15291071D01*
X5821071Y-15448214D01*
X6406786Y-15133929D02*
X6149643Y-15519643D01*
X6792500Y-15148214D02*
X6821071Y-15148214D01*
X6849643Y-15162500D01*
X6863928Y-15176786D01*
X6878214Y-15205357D01*
X6892500Y-15262500D01*
X6892500Y-15333929D01*
X6878214Y-15391071D01*
X6863928Y-15419643D01*
X6849643Y-15433929D01*
X6821071Y-15448214D01*
X6792500Y-15448214D01*
X6763928Y-15433929D01*
X6749643Y-15419643D01*
X6735357Y-15391071D01*
X6721071Y-15333929D01*
X6721071Y-15262500D01*
X6735357Y-15205357D01*
X6749643Y-15176786D01*
X6763928Y-15162500D01*
X6792500Y-15148214D01*
X7021071Y-15419643D02*
X7035357Y-15433929D01*
X7021071Y-15448214D01*
X7006786Y-15433929D01*
X7021071Y-15419643D01*
X7021071Y-15448214D01*
X7221071Y-15148214D02*
X7249643Y-15148214D01*
X7278214Y-15162500D01*
X7292500Y-15176786D01*
X7306786Y-15205357D01*
X7321071Y-15262500D01*
X7321071Y-15333929D01*
X7306786Y-15391071D01*
X7292500Y-15419643D01*
X7278214Y-15433929D01*
X7249643Y-15448214D01*
X7221071Y-15448214D01*
X7192500Y-15433929D01*
X7178214Y-15419643D01*
X7163928Y-15391071D01*
X7149643Y-15333929D01*
X7149643Y-15262500D01*
X7163928Y-15205357D01*
X7178214Y-15176786D01*
X7192500Y-15162500D01*
X7221071Y-15148214D01*
X7421071Y-15148214D02*
X7606786Y-15148214D01*
X7506786Y-15262500D01*
X7549643Y-15262500D01*
X7578214Y-15276786D01*
X7592500Y-15291071D01*
X7606786Y-15319643D01*
X7606786Y-15391071D01*
X7592500Y-15419643D01*
X7578214Y-15433929D01*
X7549643Y-15448214D01*
X7463928Y-15448214D01*
X7435357Y-15433929D01*
X7421071Y-15419643D01*
X7878214Y-15148214D02*
X7735357Y-15148214D01*
X7721071Y-15291071D01*
X7735357Y-15276786D01*
X7763928Y-15262500D01*
X7835357Y-15262500D01*
X7863928Y-15276786D01*
X7878214Y-15291071D01*
X7892500Y-15319643D01*
X7892500Y-15391071D01*
X7878214Y-15419643D01*
X7863928Y-15433929D01*
X7835357Y-15448214D01*
X7763928Y-15448214D01*
X7735357Y-15433929D01*
X7721071Y-15419643D01*
X8006786Y-15148214D02*
X8006786Y-15205357D01*
X8121071Y-15148214D02*
X8121071Y-15205357D01*
X8563928Y-15562500D02*
X8549643Y-15548214D01*
X8521071Y-15505357D01*
X8506786Y-15476786D01*
X8492500Y-15433929D01*
X8478214Y-15362500D01*
X8478214Y-15305357D01*
X8492500Y-15233929D01*
X8506786Y-15191071D01*
X8521071Y-15162500D01*
X8549643Y-15119643D01*
X8563928Y-15105357D01*
X8663928Y-15176786D02*
X8678214Y-15162500D01*
X8706786Y-15148214D01*
X8778214Y-15148214D01*
X8806786Y-15162500D01*
X8821071Y-15176786D01*
X8835357Y-15205357D01*
X8835357Y-15233929D01*
X8821071Y-15276786D01*
X8649643Y-15448214D01*
X8835357Y-15448214D01*
X9192500Y-15448214D02*
X9192500Y-15148214D01*
X9321071Y-15448214D02*
X9321071Y-15291071D01*
X9306786Y-15262500D01*
X9278214Y-15248214D01*
X9235357Y-15248214D01*
X9206786Y-15262500D01*
X9192500Y-15276786D01*
X9506786Y-15448214D02*
X9478214Y-15433929D01*
X9463928Y-15419643D01*
X9449643Y-15391071D01*
X9449643Y-15305357D01*
X9463928Y-15276786D01*
X9478214Y-15262500D01*
X9506786Y-15248214D01*
X9549643Y-15248214D01*
X9578214Y-15262500D01*
X9592500Y-15276786D01*
X9606786Y-15305357D01*
X9606786Y-15391071D01*
X9592500Y-15419643D01*
X9578214Y-15433929D01*
X9549643Y-15448214D01*
X9506786Y-15448214D01*
X9778214Y-15448214D02*
X9749643Y-15433929D01*
X9735357Y-15405357D01*
X9735357Y-15148214D01*
X10006786Y-15433929D02*
X9978214Y-15448214D01*
X9921071Y-15448214D01*
X9892500Y-15433929D01*
X9878214Y-15405357D01*
X9878214Y-15291071D01*
X9892500Y-15262500D01*
X9921071Y-15248214D01*
X9978214Y-15248214D01*
X10006786Y-15262500D01*
X10021071Y-15291071D01*
X10021071Y-15319643D01*
X9878214Y-15348214D01*
X10135357Y-15433929D02*
X10163928Y-15448214D01*
X10221071Y-15448214D01*
X10249643Y-15433929D01*
X10263928Y-15405357D01*
X10263928Y-15391071D01*
X10249643Y-15362500D01*
X10221071Y-15348214D01*
X10178214Y-15348214D01*
X10149643Y-15333929D01*
X10135357Y-15305357D01*
X10135357Y-15291071D01*
X10149643Y-15262500D01*
X10178214Y-15248214D01*
X10221071Y-15248214D01*
X10249643Y-15262500D01*
X10363928Y-15562500D02*
X10378214Y-15548214D01*
X10406786Y-15505357D01*
X10421071Y-15476786D01*
X10435357Y-15433929D01*
X10449643Y-15362500D01*
X10449643Y-15305357D01*
X10435357Y-15233929D01*
X10421071Y-15191071D01*
X10406786Y-15162500D01*
X10378214Y-15119643D01*
X10363928Y-15105357D01*
X3830000Y-15756000D02*
X3877500Y-15708500D01*
X3830000Y-15661000D01*
X3782500Y-15708500D01*
X3830000Y-15756000D01*
X4221071Y-15544214D02*
X4249643Y-15544214D01*
X4278214Y-15558500D01*
X4292500Y-15572786D01*
X4306786Y-15601357D01*
X4321071Y-15658500D01*
X4321071Y-15729929D01*
X4306786Y-15787071D01*
X4292500Y-15815643D01*
X4278214Y-15829929D01*
X4249643Y-15844214D01*
X4221071Y-15844214D01*
X4192500Y-15829929D01*
X4178214Y-15815643D01*
X4163928Y-15787071D01*
X4149643Y-15729929D01*
X4149643Y-15658500D01*
X4163928Y-15601357D01*
X4178214Y-15572786D01*
X4192500Y-15558500D01*
X4221071Y-15544214D01*
X4449643Y-15815643D02*
X4463928Y-15829929D01*
X4449643Y-15844214D01*
X4435357Y-15829929D01*
X4449643Y-15815643D01*
X4449643Y-15844214D01*
X4606786Y-15844214D02*
X4663928Y-15844214D01*
X4692500Y-15829929D01*
X4706786Y-15815643D01*
X4735357Y-15772786D01*
X4749643Y-15715643D01*
X4749643Y-15601357D01*
X4735357Y-15572786D01*
X4721071Y-15558500D01*
X4692500Y-15544214D01*
X4635357Y-15544214D01*
X4606786Y-15558500D01*
X4592500Y-15572786D01*
X4578214Y-15601357D01*
X4578214Y-15672786D01*
X4592500Y-15701357D01*
X4606786Y-15715643D01*
X4635357Y-15729929D01*
X4692500Y-15729929D01*
X4721071Y-15715643D01*
X4735357Y-15701357D01*
X4749643Y-15672786D01*
X5021071Y-15544214D02*
X4878214Y-15544214D01*
X4863928Y-15687071D01*
X4878214Y-15672786D01*
X4906786Y-15658500D01*
X4978214Y-15658500D01*
X5006786Y-15672786D01*
X5021071Y-15687071D01*
X5035357Y-15715643D01*
X5035357Y-15787071D01*
X5021071Y-15815643D01*
X5006786Y-15829929D01*
X4978214Y-15844214D01*
X4906786Y-15844214D01*
X4878214Y-15829929D01*
X4863928Y-15815643D01*
X5163928Y-15844214D02*
X5163928Y-15644214D01*
X5163928Y-15672786D02*
X5178214Y-15658500D01*
X5206786Y-15644214D01*
X5249643Y-15644214D01*
X5278214Y-15658500D01*
X5292500Y-15687071D01*
X5292500Y-15844214D01*
X5292500Y-15687071D02*
X5306786Y-15658500D01*
X5335357Y-15644214D01*
X5378214Y-15644214D01*
X5406786Y-15658500D01*
X5421071Y-15687071D01*
X5421071Y-15844214D01*
X5563928Y-15844214D02*
X5563928Y-15644214D01*
X5563928Y-15672786D02*
X5578214Y-15658500D01*
X5606786Y-15644214D01*
X5649643Y-15644214D01*
X5678214Y-15658500D01*
X5692500Y-15687071D01*
X5692500Y-15844214D01*
X5692500Y-15687071D02*
X5706786Y-15658500D01*
X5735357Y-15644214D01*
X5778214Y-15644214D01*
X5806786Y-15658500D01*
X5821071Y-15687071D01*
X5821071Y-15844214D01*
X6406786Y-15529929D02*
X6149643Y-15915643D01*
X6792500Y-15544214D02*
X6821071Y-15544214D01*
X6849643Y-15558500D01*
X6863928Y-15572786D01*
X6878214Y-15601357D01*
X6892500Y-15658500D01*
X6892500Y-15729929D01*
X6878214Y-15787071D01*
X6863928Y-15815643D01*
X6849643Y-15829929D01*
X6821071Y-15844214D01*
X6792500Y-15844214D01*
X6763928Y-15829929D01*
X6749643Y-15815643D01*
X6735357Y-15787071D01*
X6721071Y-15729929D01*
X6721071Y-15658500D01*
X6735357Y-15601357D01*
X6749643Y-15572786D01*
X6763928Y-15558500D01*
X6792500Y-15544214D01*
X7021071Y-15815643D02*
X7035357Y-15829929D01*
X7021071Y-15844214D01*
X7006786Y-15829929D01*
X7021071Y-15815643D01*
X7021071Y-15844214D01*
X7221071Y-15544214D02*
X7249643Y-15544214D01*
X7278214Y-15558500D01*
X7292500Y-15572786D01*
X7306786Y-15601357D01*
X7321071Y-15658500D01*
X7321071Y-15729929D01*
X7306786Y-15787071D01*
X7292500Y-15815643D01*
X7278214Y-15829929D01*
X7249643Y-15844214D01*
X7221071Y-15844214D01*
X7192500Y-15829929D01*
X7178214Y-15815643D01*
X7163928Y-15787071D01*
X7149643Y-15729929D01*
X7149643Y-15658500D01*
X7163928Y-15601357D01*
X7178214Y-15572786D01*
X7192500Y-15558500D01*
X7221071Y-15544214D01*
X7421071Y-15544214D02*
X7606786Y-15544214D01*
X7506786Y-15658500D01*
X7549643Y-15658500D01*
X7578214Y-15672786D01*
X7592500Y-15687071D01*
X7606786Y-15715643D01*
X7606786Y-15787071D01*
X7592500Y-15815643D01*
X7578214Y-15829929D01*
X7549643Y-15844214D01*
X7463928Y-15844214D01*
X7435357Y-15829929D01*
X7421071Y-15815643D01*
X7706786Y-15544214D02*
X7906786Y-15544214D01*
X7778214Y-15844214D01*
X8006786Y-15544214D02*
X8006786Y-15601357D01*
X8121071Y-15544214D02*
X8121071Y-15601357D01*
X8563928Y-15958500D02*
X8549643Y-15944214D01*
X8521071Y-15901357D01*
X8506786Y-15872786D01*
X8492500Y-15829929D01*
X8478214Y-15758500D01*
X8478214Y-15701357D01*
X8492500Y-15629929D01*
X8506786Y-15587071D01*
X8521071Y-15558500D01*
X8549643Y-15515643D01*
X8563928Y-15501357D01*
X8835357Y-15844214D02*
X8663928Y-15844214D01*
X8749643Y-15844214D02*
X8749643Y-15544214D01*
X8721071Y-15587071D01*
X8692500Y-15615643D01*
X8663928Y-15629929D01*
X8949643Y-15572786D02*
X8963928Y-15558500D01*
X8992500Y-15544214D01*
X9063928Y-15544214D01*
X9092500Y-15558500D01*
X9106786Y-15572786D01*
X9121071Y-15601357D01*
X9121071Y-15629929D01*
X9106786Y-15672786D01*
X8935357Y-15844214D01*
X9121071Y-15844214D01*
X9235357Y-15572786D02*
X9249643Y-15558500D01*
X9278214Y-15544214D01*
X9349643Y-15544214D01*
X9378214Y-15558500D01*
X9392500Y-15572786D01*
X9406786Y-15601357D01*
X9406786Y-15629929D01*
X9392500Y-15672786D01*
X9221071Y-15844214D01*
X9406786Y-15844214D01*
X9763928Y-15844214D02*
X9763928Y-15544214D01*
X9892500Y-15844214D02*
X9892500Y-15687071D01*
X9878214Y-15658500D01*
X9849643Y-15644214D01*
X9806786Y-15644214D01*
X9778214Y-15658500D01*
X9763928Y-15672786D01*
X10078214Y-15844214D02*
X10049643Y-15829929D01*
X10035357Y-15815643D01*
X10021071Y-15787071D01*
X10021071Y-15701357D01*
X10035357Y-15672786D01*
X10049643Y-15658500D01*
X10078214Y-15644214D01*
X10121071Y-15644214D01*
X10149643Y-15658500D01*
X10163928Y-15672786D01*
X10178214Y-15701357D01*
X10178214Y-15787071D01*
X10163928Y-15815643D01*
X10149643Y-15829929D01*
X10121071Y-15844214D01*
X10078214Y-15844214D01*
X10349643Y-15844214D02*
X10321071Y-15829929D01*
X10306786Y-15801357D01*
X10306786Y-15544214D01*
X10578214Y-15829929D02*
X10549643Y-15844214D01*
X10492500Y-15844214D01*
X10463928Y-15829929D01*
X10449643Y-15801357D01*
X10449643Y-15687071D01*
X10463928Y-15658500D01*
X10492500Y-15644214D01*
X10549643Y-15644214D01*
X10578214Y-15658500D01*
X10592500Y-15687071D01*
X10592500Y-15715643D01*
X10449643Y-15744214D01*
X10706786Y-15829929D02*
X10735357Y-15844214D01*
X10792500Y-15844214D01*
X10821071Y-15829929D01*
X10835357Y-15801357D01*
X10835357Y-15787071D01*
X10821071Y-15758500D01*
X10792500Y-15744214D01*
X10749643Y-15744214D01*
X10721071Y-15729929D01*
X10706786Y-15701357D01*
X10706786Y-15687071D01*
X10721071Y-15658500D01*
X10749643Y-15644214D01*
X10792500Y-15644214D01*
X10821071Y-15658500D01*
X10935357Y-15958500D02*
X10949643Y-15944214D01*
X10978214Y-15901357D01*
X10992500Y-15872786D01*
X11006786Y-15829929D01*
X11021071Y-15758500D01*
X11021071Y-15701357D01*
X11006786Y-15629929D01*
X10992500Y-15587071D01*
X10978214Y-15558500D01*
X10949643Y-15515643D01*
X10935357Y-15501357D01*
X3777500Y-16054500D02*
X3877500Y-16154500D01*
X3877500Y-16054500D02*
X3777500Y-16154500D01*
X3877500Y-16104500D02*
G75*
G03*
X3877500Y-16104500I-50000J0D01*
G01*
X4321071Y-16240214D02*
X4149643Y-16240214D01*
X4235357Y-16240214D02*
X4235357Y-15940214D01*
X4206786Y-15983071D01*
X4178214Y-16011643D01*
X4149643Y-16025929D01*
X4449643Y-16211643D02*
X4463928Y-16225929D01*
X4449643Y-16240214D01*
X4435357Y-16225929D01*
X4449643Y-16211643D01*
X4449643Y-16240214D01*
X4649643Y-15940214D02*
X4678214Y-15940214D01*
X4706786Y-15954500D01*
X4721071Y-15968786D01*
X4735357Y-15997357D01*
X4749643Y-16054500D01*
X4749643Y-16125929D01*
X4735357Y-16183071D01*
X4721071Y-16211643D01*
X4706786Y-16225929D01*
X4678214Y-16240214D01*
X4649643Y-16240214D01*
X4621071Y-16225929D01*
X4606786Y-16211643D01*
X4592500Y-16183071D01*
X4578214Y-16125929D01*
X4578214Y-16054500D01*
X4592500Y-15997357D01*
X4606786Y-15968786D01*
X4621071Y-15954500D01*
X4649643Y-15940214D01*
X4935357Y-15940214D02*
X4963928Y-15940214D01*
X4992500Y-15954500D01*
X5006786Y-15968786D01*
X5021071Y-15997357D01*
X5035357Y-16054500D01*
X5035357Y-16125929D01*
X5021071Y-16183071D01*
X5006786Y-16211643D01*
X4992500Y-16225929D01*
X4963928Y-16240214D01*
X4935357Y-16240214D01*
X4906786Y-16225929D01*
X4892500Y-16211643D01*
X4878214Y-16183071D01*
X4863928Y-16125929D01*
X4863928Y-16054500D01*
X4878214Y-15997357D01*
X4892500Y-15968786D01*
X4906786Y-15954500D01*
X4935357Y-15940214D01*
X5163928Y-16240214D02*
X5163928Y-16040214D01*
X5163928Y-16068786D02*
X5178214Y-16054500D01*
X5206786Y-16040214D01*
X5249643Y-16040214D01*
X5278214Y-16054500D01*
X5292500Y-16083071D01*
X5292500Y-16240214D01*
X5292500Y-16083071D02*
X5306786Y-16054500D01*
X5335357Y-16040214D01*
X5378214Y-16040214D01*
X5406786Y-16054500D01*
X5421071Y-16083071D01*
X5421071Y-16240214D01*
X5563928Y-16240214D02*
X5563928Y-16040214D01*
X5563928Y-16068786D02*
X5578214Y-16054500D01*
X5606786Y-16040214D01*
X5649643Y-16040214D01*
X5678214Y-16054500D01*
X5692500Y-16083071D01*
X5692500Y-16240214D01*
X5692500Y-16083071D02*
X5706786Y-16054500D01*
X5735357Y-16040214D01*
X5778214Y-16040214D01*
X5806786Y-16054500D01*
X5821071Y-16083071D01*
X5821071Y-16240214D01*
X6406786Y-15925929D02*
X6149643Y-16311643D01*
X6792500Y-15940214D02*
X6821071Y-15940214D01*
X6849643Y-15954500D01*
X6863928Y-15968786D01*
X6878214Y-15997357D01*
X6892500Y-16054500D01*
X6892500Y-16125929D01*
X6878214Y-16183071D01*
X6863928Y-16211643D01*
X6849643Y-16225929D01*
X6821071Y-16240214D01*
X6792500Y-16240214D01*
X6763928Y-16225929D01*
X6749643Y-16211643D01*
X6735357Y-16183071D01*
X6721071Y-16125929D01*
X6721071Y-16054500D01*
X6735357Y-15997357D01*
X6749643Y-15968786D01*
X6763928Y-15954500D01*
X6792500Y-15940214D01*
X7021071Y-16211643D02*
X7035357Y-16225929D01*
X7021071Y-16240214D01*
X7006786Y-16225929D01*
X7021071Y-16211643D01*
X7021071Y-16240214D01*
X7221071Y-15940214D02*
X7249643Y-15940214D01*
X7278214Y-15954500D01*
X7292500Y-15968786D01*
X7306786Y-15997357D01*
X7321071Y-16054500D01*
X7321071Y-16125929D01*
X7306786Y-16183071D01*
X7292500Y-16211643D01*
X7278214Y-16225929D01*
X7249643Y-16240214D01*
X7221071Y-16240214D01*
X7192500Y-16225929D01*
X7178214Y-16211643D01*
X7163928Y-16183071D01*
X7149643Y-16125929D01*
X7149643Y-16054500D01*
X7163928Y-15997357D01*
X7178214Y-15968786D01*
X7192500Y-15954500D01*
X7221071Y-15940214D01*
X7421071Y-15940214D02*
X7606786Y-15940214D01*
X7506786Y-16054500D01*
X7549643Y-16054500D01*
X7578214Y-16068786D01*
X7592500Y-16083071D01*
X7606786Y-16111643D01*
X7606786Y-16183071D01*
X7592500Y-16211643D01*
X7578214Y-16225929D01*
X7549643Y-16240214D01*
X7463928Y-16240214D01*
X7435357Y-16225929D01*
X7421071Y-16211643D01*
X7749643Y-16240214D02*
X7806786Y-16240214D01*
X7835357Y-16225929D01*
X7849643Y-16211643D01*
X7878214Y-16168786D01*
X7892500Y-16111643D01*
X7892500Y-15997357D01*
X7878214Y-15968786D01*
X7863928Y-15954500D01*
X7835357Y-15940214D01*
X7778214Y-15940214D01*
X7749643Y-15954500D01*
X7735357Y-15968786D01*
X7721071Y-15997357D01*
X7721071Y-16068786D01*
X7735357Y-16097357D01*
X7749643Y-16111643D01*
X7778214Y-16125929D01*
X7835357Y-16125929D01*
X7863928Y-16111643D01*
X7878214Y-16097357D01*
X7892500Y-16068786D01*
X8006786Y-15940214D02*
X8006786Y-15997357D01*
X8121071Y-15940214D02*
X8121071Y-15997357D01*
X8563928Y-16354500D02*
X8549643Y-16340214D01*
X8521071Y-16297357D01*
X8506786Y-16268786D01*
X8492500Y-16225929D01*
X8478214Y-16154500D01*
X8478214Y-16097357D01*
X8492500Y-16025929D01*
X8506786Y-15983071D01*
X8521071Y-15954500D01*
X8549643Y-15911643D01*
X8563928Y-15897357D01*
X8649643Y-15940214D02*
X8835357Y-15940214D01*
X8735357Y-16054500D01*
X8778214Y-16054500D01*
X8806786Y-16068786D01*
X8821071Y-16083071D01*
X8835357Y-16111643D01*
X8835357Y-16183071D01*
X8821071Y-16211643D01*
X8806786Y-16225929D01*
X8778214Y-16240214D01*
X8692500Y-16240214D01*
X8663928Y-16225929D01*
X8649643Y-16211643D01*
X9021071Y-15940214D02*
X9049643Y-15940214D01*
X9078214Y-15954500D01*
X9092500Y-15968786D01*
X9106786Y-15997357D01*
X9121071Y-16054500D01*
X9121071Y-16125929D01*
X9106786Y-16183071D01*
X9092500Y-16211643D01*
X9078214Y-16225929D01*
X9049643Y-16240214D01*
X9021071Y-16240214D01*
X8992500Y-16225929D01*
X8978214Y-16211643D01*
X8963928Y-16183071D01*
X8949643Y-16125929D01*
X8949643Y-16054500D01*
X8963928Y-15997357D01*
X8978214Y-15968786D01*
X8992500Y-15954500D01*
X9021071Y-15940214D01*
X9478214Y-16240214D02*
X9478214Y-15940214D01*
X9606786Y-16240214D02*
X9606786Y-16083071D01*
X9592500Y-16054500D01*
X9563928Y-16040214D01*
X9521071Y-16040214D01*
X9492500Y-16054500D01*
X9478214Y-16068786D01*
X9792500Y-16240214D02*
X9763928Y-16225929D01*
X9749643Y-16211643D01*
X9735357Y-16183071D01*
X9735357Y-16097357D01*
X9749643Y-16068786D01*
X9763928Y-16054500D01*
X9792500Y-16040214D01*
X9835357Y-16040214D01*
X9863928Y-16054500D01*
X9878214Y-16068786D01*
X9892500Y-16097357D01*
X9892500Y-16183071D01*
X9878214Y-16211643D01*
X9863928Y-16225929D01*
X9835357Y-16240214D01*
X9792500Y-16240214D01*
X10063928Y-16240214D02*
X10035357Y-16225929D01*
X10021071Y-16197357D01*
X10021071Y-15940214D01*
X10292500Y-16225929D02*
X10263928Y-16240214D01*
X10206786Y-16240214D01*
X10178214Y-16225929D01*
X10163928Y-16197357D01*
X10163928Y-16083071D01*
X10178214Y-16054500D01*
X10206786Y-16040214D01*
X10263928Y-16040214D01*
X10292500Y-16054500D01*
X10306786Y-16083071D01*
X10306786Y-16111643D01*
X10163928Y-16140214D01*
X10421071Y-16225929D02*
X10449643Y-16240214D01*
X10506786Y-16240214D01*
X10535357Y-16225929D01*
X10549643Y-16197357D01*
X10549643Y-16183071D01*
X10535357Y-16154500D01*
X10506786Y-16140214D01*
X10463928Y-16140214D01*
X10435357Y-16125929D01*
X10421071Y-16097357D01*
X10421071Y-16083071D01*
X10435357Y-16054500D01*
X10463928Y-16040214D01*
X10506786Y-16040214D01*
X10535357Y-16054500D01*
X10649643Y-16354500D02*
X10663928Y-16340214D01*
X10692500Y-16297357D01*
X10706786Y-16268786D01*
X10721071Y-16225929D01*
X10735357Y-16154500D01*
X10735357Y-16097357D01*
X10721071Y-16025929D01*
X10706786Y-15983071D01*
X10692500Y-15954500D01*
X10663928Y-15911643D01*
X10649643Y-15897357D01*
X3777424Y-16450462D02*
X3877500Y-16550538D01*
X3877500Y-16450462D02*
X3777424Y-16550538D01*
X3827462Y-16450462D02*
X3827462Y-16550538D01*
X3777424Y-16500500D02*
X3877500Y-16500500D01*
X4321071Y-16636214D02*
X4149643Y-16636214D01*
X4235357Y-16636214D02*
X4235357Y-16336214D01*
X4206786Y-16379071D01*
X4178214Y-16407643D01*
X4149643Y-16421929D01*
X4449643Y-16607643D02*
X4463928Y-16621929D01*
X4449643Y-16636214D01*
X4435357Y-16621929D01*
X4449643Y-16607643D01*
X4449643Y-16636214D01*
X4649643Y-16336214D02*
X4678214Y-16336214D01*
X4706786Y-16350500D01*
X4721071Y-16364786D01*
X4735357Y-16393357D01*
X4749643Y-16450500D01*
X4749643Y-16521929D01*
X4735357Y-16579071D01*
X4721071Y-16607643D01*
X4706786Y-16621929D01*
X4678214Y-16636214D01*
X4649643Y-16636214D01*
X4621071Y-16621929D01*
X4606786Y-16607643D01*
X4592500Y-16579071D01*
X4578214Y-16521929D01*
X4578214Y-16450500D01*
X4592500Y-16393357D01*
X4606786Y-16364786D01*
X4621071Y-16350500D01*
X4649643Y-16336214D01*
X4935357Y-16336214D02*
X4963928Y-16336214D01*
X4992500Y-16350500D01*
X5006786Y-16364786D01*
X5021071Y-16393357D01*
X5035357Y-16450500D01*
X5035357Y-16521929D01*
X5021071Y-16579071D01*
X5006786Y-16607643D01*
X4992500Y-16621929D01*
X4963928Y-16636214D01*
X4935357Y-16636214D01*
X4906786Y-16621929D01*
X4892500Y-16607643D01*
X4878214Y-16579071D01*
X4863928Y-16521929D01*
X4863928Y-16450500D01*
X4878214Y-16393357D01*
X4892500Y-16364786D01*
X4906786Y-16350500D01*
X4935357Y-16336214D01*
X5163928Y-16636214D02*
X5163928Y-16436214D01*
X5163928Y-16464786D02*
X5178214Y-16450500D01*
X5206786Y-16436214D01*
X5249643Y-16436214D01*
X5278214Y-16450500D01*
X5292500Y-16479071D01*
X5292500Y-16636214D01*
X5292500Y-16479071D02*
X5306786Y-16450500D01*
X5335357Y-16436214D01*
X5378214Y-16436214D01*
X5406786Y-16450500D01*
X5421071Y-16479071D01*
X5421071Y-16636214D01*
X5563928Y-16636214D02*
X5563928Y-16436214D01*
X5563928Y-16464786D02*
X5578214Y-16450500D01*
X5606786Y-16436214D01*
X5649643Y-16436214D01*
X5678214Y-16450500D01*
X5692500Y-16479071D01*
X5692500Y-16636214D01*
X5692500Y-16479071D02*
X5706786Y-16450500D01*
X5735357Y-16436214D01*
X5778214Y-16436214D01*
X5806786Y-16450500D01*
X5821071Y-16479071D01*
X5821071Y-16636214D01*
X6406786Y-16321929D02*
X6149643Y-16707643D01*
X6792500Y-16336214D02*
X6821071Y-16336214D01*
X6849643Y-16350500D01*
X6863928Y-16364786D01*
X6878214Y-16393357D01*
X6892500Y-16450500D01*
X6892500Y-16521929D01*
X6878214Y-16579071D01*
X6863928Y-16607643D01*
X6849643Y-16621929D01*
X6821071Y-16636214D01*
X6792500Y-16636214D01*
X6763928Y-16621929D01*
X6749643Y-16607643D01*
X6735357Y-16579071D01*
X6721071Y-16521929D01*
X6721071Y-16450500D01*
X6735357Y-16393357D01*
X6749643Y-16364786D01*
X6763928Y-16350500D01*
X6792500Y-16336214D01*
X7021071Y-16607643D02*
X7035357Y-16621929D01*
X7021071Y-16636214D01*
X7006786Y-16621929D01*
X7021071Y-16607643D01*
X7021071Y-16636214D01*
X7221071Y-16336214D02*
X7249643Y-16336214D01*
X7278214Y-16350500D01*
X7292500Y-16364786D01*
X7306786Y-16393357D01*
X7321071Y-16450500D01*
X7321071Y-16521929D01*
X7306786Y-16579071D01*
X7292500Y-16607643D01*
X7278214Y-16621929D01*
X7249643Y-16636214D01*
X7221071Y-16636214D01*
X7192500Y-16621929D01*
X7178214Y-16607643D01*
X7163928Y-16579071D01*
X7149643Y-16521929D01*
X7149643Y-16450500D01*
X7163928Y-16393357D01*
X7178214Y-16364786D01*
X7192500Y-16350500D01*
X7221071Y-16336214D01*
X7421071Y-16336214D02*
X7606786Y-16336214D01*
X7506786Y-16450500D01*
X7549643Y-16450500D01*
X7578214Y-16464786D01*
X7592500Y-16479071D01*
X7606786Y-16507643D01*
X7606786Y-16579071D01*
X7592500Y-16607643D01*
X7578214Y-16621929D01*
X7549643Y-16636214D01*
X7463928Y-16636214D01*
X7435357Y-16621929D01*
X7421071Y-16607643D01*
X7749643Y-16636214D02*
X7806786Y-16636214D01*
X7835357Y-16621929D01*
X7849643Y-16607643D01*
X7878214Y-16564786D01*
X7892500Y-16507643D01*
X7892500Y-16393357D01*
X7878214Y-16364786D01*
X7863928Y-16350500D01*
X7835357Y-16336214D01*
X7778214Y-16336214D01*
X7749643Y-16350500D01*
X7735357Y-16364786D01*
X7721071Y-16393357D01*
X7721071Y-16464786D01*
X7735357Y-16493357D01*
X7749643Y-16507643D01*
X7778214Y-16521929D01*
X7835357Y-16521929D01*
X7863928Y-16507643D01*
X7878214Y-16493357D01*
X7892500Y-16464786D01*
X8006786Y-16336214D02*
X8006786Y-16393357D01*
X8121071Y-16336214D02*
X8121071Y-16393357D01*
X8563928Y-16750500D02*
X8549643Y-16736214D01*
X8521071Y-16693357D01*
X8506786Y-16664786D01*
X8492500Y-16621929D01*
X8478214Y-16550500D01*
X8478214Y-16493357D01*
X8492500Y-16421929D01*
X8506786Y-16379071D01*
X8521071Y-16350500D01*
X8549643Y-16307643D01*
X8563928Y-16293357D01*
X8663928Y-16364786D02*
X8678214Y-16350500D01*
X8706786Y-16336214D01*
X8778214Y-16336214D01*
X8806786Y-16350500D01*
X8821071Y-16364786D01*
X8835357Y-16393357D01*
X8835357Y-16421929D01*
X8821071Y-16464786D01*
X8649643Y-16636214D01*
X8835357Y-16636214D01*
X9192500Y-16636214D02*
X9192500Y-16336214D01*
X9321071Y-16636214D02*
X9321071Y-16479071D01*
X9306786Y-16450500D01*
X9278214Y-16436214D01*
X9235357Y-16436214D01*
X9206786Y-16450500D01*
X9192500Y-16464786D01*
X9506786Y-16636214D02*
X9478214Y-16621929D01*
X9463928Y-16607643D01*
X9449643Y-16579071D01*
X9449643Y-16493357D01*
X9463928Y-16464786D01*
X9478214Y-16450500D01*
X9506786Y-16436214D01*
X9549643Y-16436214D01*
X9578214Y-16450500D01*
X9592500Y-16464786D01*
X9606786Y-16493357D01*
X9606786Y-16579071D01*
X9592500Y-16607643D01*
X9578214Y-16621929D01*
X9549643Y-16636214D01*
X9506786Y-16636214D01*
X9778214Y-16636214D02*
X9749643Y-16621929D01*
X9735357Y-16593357D01*
X9735357Y-16336214D01*
X10006786Y-16621929D02*
X9978214Y-16636214D01*
X9921071Y-16636214D01*
X9892500Y-16621929D01*
X9878214Y-16593357D01*
X9878214Y-16479071D01*
X9892500Y-16450500D01*
X9921071Y-16436214D01*
X9978214Y-16436214D01*
X10006786Y-16450500D01*
X10021071Y-16479071D01*
X10021071Y-16507643D01*
X9878214Y-16536214D01*
X10135357Y-16621929D02*
X10163928Y-16636214D01*
X10221071Y-16636214D01*
X10249643Y-16621929D01*
X10263928Y-16593357D01*
X10263928Y-16579071D01*
X10249643Y-16550500D01*
X10221071Y-16536214D01*
X10178214Y-16536214D01*
X10149643Y-16521929D01*
X10135357Y-16493357D01*
X10135357Y-16479071D01*
X10149643Y-16450500D01*
X10178214Y-16436214D01*
X10221071Y-16436214D01*
X10249643Y-16450500D01*
X10363928Y-16750500D02*
X10378214Y-16736214D01*
X10406786Y-16693357D01*
X10421071Y-16664786D01*
X10435357Y-16621929D01*
X10449643Y-16550500D01*
X10449643Y-16493357D01*
X10435357Y-16421929D01*
X10421071Y-16379071D01*
X10406786Y-16350500D01*
X10378214Y-16307643D01*
X10363928Y-16293357D01*
X3775900Y-16845700D02*
X3877500Y-16947300D01*
X3877500Y-16845700D02*
X3775900Y-16947300D01*
X3862621Y-16932422D02*
X3862621Y-16860579D01*
X3790778Y-16860579D01*
X3790778Y-16932422D01*
X3862621Y-16932422D01*
X4321071Y-17032214D02*
X4149643Y-17032214D01*
X4235357Y-17032214D02*
X4235357Y-16732214D01*
X4206786Y-16775071D01*
X4178214Y-16803643D01*
X4149643Y-16817929D01*
X4449643Y-17003643D02*
X4463928Y-17017929D01*
X4449643Y-17032214D01*
X4435357Y-17017929D01*
X4449643Y-17003643D01*
X4449643Y-17032214D01*
X4649643Y-16732214D02*
X4678214Y-16732214D01*
X4706786Y-16746500D01*
X4721071Y-16760786D01*
X4735357Y-16789357D01*
X4749643Y-16846500D01*
X4749643Y-16917929D01*
X4735357Y-16975072D01*
X4721071Y-17003643D01*
X4706786Y-17017929D01*
X4678214Y-17032214D01*
X4649643Y-17032214D01*
X4621071Y-17017929D01*
X4606786Y-17003643D01*
X4592500Y-16975072D01*
X4578214Y-16917929D01*
X4578214Y-16846500D01*
X4592500Y-16789357D01*
X4606786Y-16760786D01*
X4621071Y-16746500D01*
X4649643Y-16732214D01*
X4863928Y-16760786D02*
X4878214Y-16746500D01*
X4906786Y-16732214D01*
X4978214Y-16732214D01*
X5006786Y-16746500D01*
X5021071Y-16760786D01*
X5035357Y-16789357D01*
X5035357Y-16817929D01*
X5021071Y-16860786D01*
X4849643Y-17032214D01*
X5035357Y-17032214D01*
X5163928Y-17032214D02*
X5163928Y-16832214D01*
X5163928Y-16860786D02*
X5178214Y-16846500D01*
X5206786Y-16832214D01*
X5249643Y-16832214D01*
X5278214Y-16846500D01*
X5292500Y-16875072D01*
X5292500Y-17032214D01*
X5292500Y-16875072D02*
X5306786Y-16846500D01*
X5335357Y-16832214D01*
X5378214Y-16832214D01*
X5406786Y-16846500D01*
X5421071Y-16875072D01*
X5421071Y-17032214D01*
X5563928Y-17032214D02*
X5563928Y-16832214D01*
X5563928Y-16860786D02*
X5578214Y-16846500D01*
X5606786Y-16832214D01*
X5649643Y-16832214D01*
X5678214Y-16846500D01*
X5692500Y-16875072D01*
X5692500Y-17032214D01*
X5692500Y-16875072D02*
X5706786Y-16846500D01*
X5735357Y-16832214D01*
X5778214Y-16832214D01*
X5806786Y-16846500D01*
X5821071Y-16875072D01*
X5821071Y-17032214D01*
X6406786Y-16717929D02*
X6149643Y-17103643D01*
X6792500Y-16732214D02*
X6821071Y-16732214D01*
X6849643Y-16746500D01*
X6863928Y-16760786D01*
X6878214Y-16789357D01*
X6892500Y-16846500D01*
X6892500Y-16917929D01*
X6878214Y-16975072D01*
X6863928Y-17003643D01*
X6849643Y-17017929D01*
X6821071Y-17032214D01*
X6792500Y-17032214D01*
X6763928Y-17017929D01*
X6749643Y-17003643D01*
X6735357Y-16975072D01*
X6721071Y-16917929D01*
X6721071Y-16846500D01*
X6735357Y-16789357D01*
X6749643Y-16760786D01*
X6763928Y-16746500D01*
X6792500Y-16732214D01*
X7021071Y-17003643D02*
X7035357Y-17017929D01*
X7021071Y-17032214D01*
X7006786Y-17017929D01*
X7021071Y-17003643D01*
X7021071Y-17032214D01*
X7221071Y-16732214D02*
X7249643Y-16732214D01*
X7278214Y-16746500D01*
X7292500Y-16760786D01*
X7306786Y-16789357D01*
X7321071Y-16846500D01*
X7321071Y-16917929D01*
X7306786Y-16975072D01*
X7292500Y-17003643D01*
X7278214Y-17017929D01*
X7249643Y-17032214D01*
X7221071Y-17032214D01*
X7192500Y-17017929D01*
X7178214Y-17003643D01*
X7163928Y-16975072D01*
X7149643Y-16917929D01*
X7149643Y-16846500D01*
X7163928Y-16789357D01*
X7178214Y-16760786D01*
X7192500Y-16746500D01*
X7221071Y-16732214D01*
X7578214Y-16832214D02*
X7578214Y-17032214D01*
X7506786Y-16717929D02*
X7435357Y-16932214D01*
X7621071Y-16932214D01*
X7792500Y-16732214D02*
X7821071Y-16732214D01*
X7849643Y-16746500D01*
X7863928Y-16760786D01*
X7878214Y-16789357D01*
X7892500Y-16846500D01*
X7892500Y-16917929D01*
X7878214Y-16975072D01*
X7863928Y-17003643D01*
X7849643Y-17017929D01*
X7821071Y-17032214D01*
X7792500Y-17032214D01*
X7763928Y-17017929D01*
X7749643Y-17003643D01*
X7735357Y-16975072D01*
X7721071Y-16917929D01*
X7721071Y-16846500D01*
X7735357Y-16789357D01*
X7749643Y-16760786D01*
X7763928Y-16746500D01*
X7792500Y-16732214D01*
X8006786Y-16732214D02*
X8006786Y-16789357D01*
X8121071Y-16732214D02*
X8121071Y-16789357D01*
X8563928Y-17146500D02*
X8549643Y-17132214D01*
X8521071Y-17089357D01*
X8506786Y-17060786D01*
X8492500Y-17017929D01*
X8478214Y-16946500D01*
X8478214Y-16889357D01*
X8492500Y-16817929D01*
X8506786Y-16775071D01*
X8521071Y-16746500D01*
X8549643Y-16703643D01*
X8563928Y-16689357D01*
X8692500Y-17032214D02*
X8749643Y-17032214D01*
X8778214Y-17017929D01*
X8792500Y-17003643D01*
X8821071Y-16960786D01*
X8835357Y-16903643D01*
X8835357Y-16789357D01*
X8821071Y-16760786D01*
X8806786Y-16746500D01*
X8778214Y-16732214D01*
X8721071Y-16732214D01*
X8692500Y-16746500D01*
X8678214Y-16760786D01*
X8663928Y-16789357D01*
X8663928Y-16860786D01*
X8678214Y-16889357D01*
X8692500Y-16903643D01*
X8721071Y-16917929D01*
X8778214Y-16917929D01*
X8806786Y-16903643D01*
X8821071Y-16889357D01*
X8835357Y-16860786D01*
X8949643Y-16760786D02*
X8963928Y-16746500D01*
X8992500Y-16732214D01*
X9063928Y-16732214D01*
X9092500Y-16746500D01*
X9106786Y-16760786D01*
X9121071Y-16789357D01*
X9121071Y-16817929D01*
X9106786Y-16860786D01*
X8935357Y-17032214D01*
X9121071Y-17032214D01*
X9478214Y-17032214D02*
X9478214Y-16732214D01*
X9606786Y-17032214D02*
X9606786Y-16875072D01*
X9592500Y-16846500D01*
X9563928Y-16832214D01*
X9521071Y-16832214D01*
X9492500Y-16846500D01*
X9478214Y-16860786D01*
X9792500Y-17032214D02*
X9763928Y-17017929D01*
X9749643Y-17003643D01*
X9735357Y-16975072D01*
X9735357Y-16889357D01*
X9749643Y-16860786D01*
X9763928Y-16846500D01*
X9792500Y-16832214D01*
X9835357Y-16832214D01*
X9863928Y-16846500D01*
X9878214Y-16860786D01*
X9892500Y-16889357D01*
X9892500Y-16975072D01*
X9878214Y-17003643D01*
X9863928Y-17017929D01*
X9835357Y-17032214D01*
X9792500Y-17032214D01*
X10063928Y-17032214D02*
X10035357Y-17017929D01*
X10021071Y-16989357D01*
X10021071Y-16732214D01*
X10292500Y-17017929D02*
X10263928Y-17032214D01*
X10206786Y-17032214D01*
X10178214Y-17017929D01*
X10163928Y-16989357D01*
X10163928Y-16875072D01*
X10178214Y-16846500D01*
X10206786Y-16832214D01*
X10263928Y-16832214D01*
X10292500Y-16846500D01*
X10306786Y-16875072D01*
X10306786Y-16903643D01*
X10163928Y-16932214D01*
X10421071Y-17017929D02*
X10449643Y-17032214D01*
X10506786Y-17032214D01*
X10535357Y-17017929D01*
X10549643Y-16989357D01*
X10549643Y-16975072D01*
X10535357Y-16946500D01*
X10506786Y-16932214D01*
X10463928Y-16932214D01*
X10435357Y-16917929D01*
X10421071Y-16889357D01*
X10421071Y-16875072D01*
X10435357Y-16846500D01*
X10463928Y-16832214D01*
X10506786Y-16832214D01*
X10535357Y-16846500D01*
X10649643Y-17146500D02*
X10663928Y-17132214D01*
X10692500Y-17089357D01*
X10706786Y-17060786D01*
X10721071Y-17017929D01*
X10735357Y-16946500D01*
X10735357Y-16889357D01*
X10721071Y-16817929D01*
X10706786Y-16775071D01*
X10692500Y-16746500D01*
X10663928Y-16703643D01*
X10649643Y-16689357D01*
X3767500Y-17237500D02*
X3877500Y-17347500D01*
X3877500Y-17237500D02*
X3767500Y-17347500D01*
X3822500Y-17347500D02*
X3877500Y-17292500D01*
X3822500Y-17237500D01*
X3767500Y-17292500D01*
X3822500Y-17347500D01*
X4321071Y-17428214D02*
X4149643Y-17428214D01*
X4235357Y-17428214D02*
X4235357Y-17128214D01*
X4206786Y-17171072D01*
X4178214Y-17199643D01*
X4149643Y-17213929D01*
X4449643Y-17399643D02*
X4463928Y-17413929D01*
X4449643Y-17428214D01*
X4435357Y-17413929D01*
X4449643Y-17399643D01*
X4449643Y-17428214D01*
X4749643Y-17428214D02*
X4578214Y-17428214D01*
X4663928Y-17428214D02*
X4663928Y-17128214D01*
X4635357Y-17171072D01*
X4606786Y-17199643D01*
X4578214Y-17213929D01*
X4935357Y-17128214D02*
X4963928Y-17128214D01*
X4992500Y-17142500D01*
X5006786Y-17156786D01*
X5021071Y-17185357D01*
X5035357Y-17242500D01*
X5035357Y-17313929D01*
X5021071Y-17371072D01*
X5006786Y-17399643D01*
X4992500Y-17413929D01*
X4963928Y-17428214D01*
X4935357Y-17428214D01*
X4906786Y-17413929D01*
X4892500Y-17399643D01*
X4878214Y-17371072D01*
X4863928Y-17313929D01*
X4863928Y-17242500D01*
X4878214Y-17185357D01*
X4892500Y-17156786D01*
X4906786Y-17142500D01*
X4935357Y-17128214D01*
X5163928Y-17428214D02*
X5163928Y-17228214D01*
X5163928Y-17256786D02*
X5178214Y-17242500D01*
X5206786Y-17228214D01*
X5249643Y-17228214D01*
X5278214Y-17242500D01*
X5292500Y-17271072D01*
X5292500Y-17428214D01*
X5292500Y-17271072D02*
X5306786Y-17242500D01*
X5335357Y-17228214D01*
X5378214Y-17228214D01*
X5406786Y-17242500D01*
X5421071Y-17271072D01*
X5421071Y-17428214D01*
X5563928Y-17428214D02*
X5563928Y-17228214D01*
X5563928Y-17256786D02*
X5578214Y-17242500D01*
X5606786Y-17228214D01*
X5649643Y-17228214D01*
X5678214Y-17242500D01*
X5692500Y-17271072D01*
X5692500Y-17428214D01*
X5692500Y-17271072D02*
X5706786Y-17242500D01*
X5735357Y-17228214D01*
X5778214Y-17228214D01*
X5806786Y-17242500D01*
X5821071Y-17271072D01*
X5821071Y-17428214D01*
X6406786Y-17113929D02*
X6149643Y-17499643D01*
X6792500Y-17128214D02*
X6821071Y-17128214D01*
X6849643Y-17142500D01*
X6863928Y-17156786D01*
X6878214Y-17185357D01*
X6892500Y-17242500D01*
X6892500Y-17313929D01*
X6878214Y-17371072D01*
X6863928Y-17399643D01*
X6849643Y-17413929D01*
X6821071Y-17428214D01*
X6792500Y-17428214D01*
X6763928Y-17413929D01*
X6749643Y-17399643D01*
X6735357Y-17371072D01*
X6721071Y-17313929D01*
X6721071Y-17242500D01*
X6735357Y-17185357D01*
X6749643Y-17156786D01*
X6763928Y-17142500D01*
X6792500Y-17128214D01*
X7021071Y-17399643D02*
X7035357Y-17413929D01*
X7021071Y-17428214D01*
X7006786Y-17413929D01*
X7021071Y-17399643D01*
X7021071Y-17428214D01*
X7221071Y-17128214D02*
X7249643Y-17128214D01*
X7278214Y-17142500D01*
X7292500Y-17156786D01*
X7306786Y-17185357D01*
X7321071Y-17242500D01*
X7321071Y-17313929D01*
X7306786Y-17371072D01*
X7292500Y-17399643D01*
X7278214Y-17413929D01*
X7249643Y-17428214D01*
X7221071Y-17428214D01*
X7192500Y-17413929D01*
X7178214Y-17399643D01*
X7163928Y-17371072D01*
X7149643Y-17313929D01*
X7149643Y-17242500D01*
X7163928Y-17185357D01*
X7178214Y-17156786D01*
X7192500Y-17142500D01*
X7221071Y-17128214D01*
X7578214Y-17228214D02*
X7578214Y-17428214D01*
X7506786Y-17113929D02*
X7435357Y-17328214D01*
X7621071Y-17328214D01*
X7706786Y-17128214D02*
X7892500Y-17128214D01*
X7792500Y-17242500D01*
X7835357Y-17242500D01*
X7863928Y-17256786D01*
X7878214Y-17271072D01*
X7892500Y-17299643D01*
X7892500Y-17371072D01*
X7878214Y-17399643D01*
X7863928Y-17413929D01*
X7835357Y-17428214D01*
X7749643Y-17428214D01*
X7721071Y-17413929D01*
X7706786Y-17399643D01*
X8006786Y-17128214D02*
X8006786Y-17185357D01*
X8121071Y-17128214D02*
X8121071Y-17185357D01*
X8563928Y-17542500D02*
X8549643Y-17528214D01*
X8521071Y-17485357D01*
X8506786Y-17456786D01*
X8492500Y-17413929D01*
X8478214Y-17342500D01*
X8478214Y-17285357D01*
X8492500Y-17213929D01*
X8506786Y-17171072D01*
X8521071Y-17142500D01*
X8549643Y-17099643D01*
X8563928Y-17085357D01*
X8806786Y-17128214D02*
X8749643Y-17128214D01*
X8721071Y-17142500D01*
X8706786Y-17156786D01*
X8678214Y-17199643D01*
X8663928Y-17256786D01*
X8663928Y-17371072D01*
X8678214Y-17399643D01*
X8692500Y-17413929D01*
X8721071Y-17428214D01*
X8778214Y-17428214D01*
X8806786Y-17413929D01*
X8821071Y-17399643D01*
X8835357Y-17371072D01*
X8835357Y-17299643D01*
X8821071Y-17271072D01*
X8806786Y-17256786D01*
X8778214Y-17242500D01*
X8721071Y-17242500D01*
X8692500Y-17256786D01*
X8678214Y-17271072D01*
X8663928Y-17299643D01*
X9192500Y-17428214D02*
X9192500Y-17128214D01*
X9321071Y-17428214D02*
X9321071Y-17271072D01*
X9306786Y-17242500D01*
X9278214Y-17228214D01*
X9235357Y-17228214D01*
X9206786Y-17242500D01*
X9192500Y-17256786D01*
X9506786Y-17428214D02*
X9478214Y-17413929D01*
X9463928Y-17399643D01*
X9449643Y-17371072D01*
X9449643Y-17285357D01*
X9463928Y-17256786D01*
X9478214Y-17242500D01*
X9506786Y-17228214D01*
X9549643Y-17228214D01*
X9578214Y-17242500D01*
X9592500Y-17256786D01*
X9606786Y-17285357D01*
X9606786Y-17371072D01*
X9592500Y-17399643D01*
X9578214Y-17413929D01*
X9549643Y-17428214D01*
X9506786Y-17428214D01*
X9778214Y-17428214D02*
X9749643Y-17413929D01*
X9735357Y-17385357D01*
X9735357Y-17128214D01*
X10006786Y-17413929D02*
X9978214Y-17428214D01*
X9921071Y-17428214D01*
X9892500Y-17413929D01*
X9878214Y-17385357D01*
X9878214Y-17271072D01*
X9892500Y-17242500D01*
X9921071Y-17228214D01*
X9978214Y-17228214D01*
X10006786Y-17242500D01*
X10021071Y-17271072D01*
X10021071Y-17299643D01*
X9878214Y-17328214D01*
X10135357Y-17413929D02*
X10163928Y-17428214D01*
X10221071Y-17428214D01*
X10249643Y-17413929D01*
X10263928Y-17385357D01*
X10263928Y-17371072D01*
X10249643Y-17342500D01*
X10221071Y-17328214D01*
X10178214Y-17328214D01*
X10149643Y-17313929D01*
X10135357Y-17285357D01*
X10135357Y-17271072D01*
X10149643Y-17242500D01*
X10178214Y-17228214D01*
X10221071Y-17228214D01*
X10249643Y-17242500D01*
X10363928Y-17542500D02*
X10378214Y-17528214D01*
X10406786Y-17485357D01*
X10421071Y-17456786D01*
X10435357Y-17413929D01*
X10449643Y-17342500D01*
X10449643Y-17285357D01*
X10435357Y-17213929D01*
X10421071Y-17171072D01*
X10406786Y-17142500D01*
X10378214Y-17099643D01*
X10363928Y-17085357D01*
X3801500Y-17612500D02*
X3801500Y-17764500D01*
X3725500Y-17688500D02*
X3877500Y-17688500D01*
X3877500Y-17688500D02*
G75*
G03*
X3877500Y-17688500I-76000J0D01*
G01*
X4321071Y-17824214D02*
X4149643Y-17824214D01*
X4235357Y-17824214D02*
X4235357Y-17524214D01*
X4206786Y-17567072D01*
X4178214Y-17595643D01*
X4149643Y-17609929D01*
X4449643Y-17795643D02*
X4463928Y-17809929D01*
X4449643Y-17824214D01*
X4435357Y-17809929D01*
X4449643Y-17795643D01*
X4449643Y-17824214D01*
X4735357Y-17524214D02*
X4592500Y-17524214D01*
X4578214Y-17667072D01*
X4592500Y-17652786D01*
X4621071Y-17638500D01*
X4692500Y-17638500D01*
X4721071Y-17652786D01*
X4735357Y-17667072D01*
X4749643Y-17695643D01*
X4749643Y-17767072D01*
X4735357Y-17795643D01*
X4721071Y-17809929D01*
X4692500Y-17824214D01*
X4621071Y-17824214D01*
X4592500Y-17809929D01*
X4578214Y-17795643D01*
X4863928Y-17552786D02*
X4878214Y-17538500D01*
X4906786Y-17524214D01*
X4978214Y-17524214D01*
X5006786Y-17538500D01*
X5021071Y-17552786D01*
X5035357Y-17581357D01*
X5035357Y-17609929D01*
X5021071Y-17652786D01*
X4849643Y-17824214D01*
X5035357Y-17824214D01*
X5163928Y-17824214D02*
X5163928Y-17624214D01*
X5163928Y-17652786D02*
X5178214Y-17638500D01*
X5206786Y-17624214D01*
X5249643Y-17624214D01*
X5278214Y-17638500D01*
X5292500Y-17667072D01*
X5292500Y-17824214D01*
X5292500Y-17667072D02*
X5306786Y-17638500D01*
X5335357Y-17624214D01*
X5378214Y-17624214D01*
X5406786Y-17638500D01*
X5421071Y-17667072D01*
X5421071Y-17824214D01*
X5563928Y-17824214D02*
X5563928Y-17624214D01*
X5563928Y-17652786D02*
X5578214Y-17638500D01*
X5606786Y-17624214D01*
X5649643Y-17624214D01*
X5678214Y-17638500D01*
X5692500Y-17667072D01*
X5692500Y-17824214D01*
X5692500Y-17667072D02*
X5706786Y-17638500D01*
X5735357Y-17624214D01*
X5778214Y-17624214D01*
X5806786Y-17638500D01*
X5821071Y-17667072D01*
X5821071Y-17824214D01*
X6406786Y-17509929D02*
X6149643Y-17895643D01*
X6792500Y-17524214D02*
X6821071Y-17524214D01*
X6849643Y-17538500D01*
X6863928Y-17552786D01*
X6878214Y-17581357D01*
X6892500Y-17638500D01*
X6892500Y-17709929D01*
X6878214Y-17767072D01*
X6863928Y-17795643D01*
X6849643Y-17809929D01*
X6821071Y-17824214D01*
X6792500Y-17824214D01*
X6763928Y-17809929D01*
X6749643Y-17795643D01*
X6735357Y-17767072D01*
X6721071Y-17709929D01*
X6721071Y-17638500D01*
X6735357Y-17581357D01*
X6749643Y-17552786D01*
X6763928Y-17538500D01*
X6792500Y-17524214D01*
X7021071Y-17795643D02*
X7035357Y-17809929D01*
X7021071Y-17824214D01*
X7006786Y-17809929D01*
X7021071Y-17795643D01*
X7021071Y-17824214D01*
X7221071Y-17524214D02*
X7249643Y-17524214D01*
X7278214Y-17538500D01*
X7292500Y-17552786D01*
X7306786Y-17581357D01*
X7321071Y-17638500D01*
X7321071Y-17709929D01*
X7306786Y-17767072D01*
X7292500Y-17795643D01*
X7278214Y-17809929D01*
X7249643Y-17824214D01*
X7221071Y-17824214D01*
X7192500Y-17809929D01*
X7178214Y-17795643D01*
X7163928Y-17767072D01*
X7149643Y-17709929D01*
X7149643Y-17638500D01*
X7163928Y-17581357D01*
X7178214Y-17552786D01*
X7192500Y-17538500D01*
X7221071Y-17524214D01*
X7578214Y-17524214D02*
X7521071Y-17524214D01*
X7492500Y-17538500D01*
X7478214Y-17552786D01*
X7449643Y-17595643D01*
X7435357Y-17652786D01*
X7435357Y-17767072D01*
X7449643Y-17795643D01*
X7463928Y-17809929D01*
X7492500Y-17824214D01*
X7549643Y-17824214D01*
X7578214Y-17809929D01*
X7592500Y-17795643D01*
X7606786Y-17767072D01*
X7606786Y-17695643D01*
X7592500Y-17667072D01*
X7578214Y-17652786D01*
X7549643Y-17638500D01*
X7492500Y-17638500D01*
X7463928Y-17652786D01*
X7449643Y-17667072D01*
X7435357Y-17695643D01*
X7792500Y-17524214D02*
X7821071Y-17524214D01*
X7849643Y-17538500D01*
X7863928Y-17552786D01*
X7878214Y-17581357D01*
X7892500Y-17638500D01*
X7892500Y-17709929D01*
X7878214Y-17767072D01*
X7863928Y-17795643D01*
X7849643Y-17809929D01*
X7821071Y-17824214D01*
X7792500Y-17824214D01*
X7763928Y-17809929D01*
X7749643Y-17795643D01*
X7735357Y-17767072D01*
X7721071Y-17709929D01*
X7721071Y-17638500D01*
X7735357Y-17581357D01*
X7749643Y-17552786D01*
X7763928Y-17538500D01*
X7792500Y-17524214D01*
X8006786Y-17524214D02*
X8006786Y-17581357D01*
X8121071Y-17524214D02*
X8121071Y-17581357D01*
X8563928Y-17938500D02*
X8549643Y-17924214D01*
X8521071Y-17881357D01*
X8506786Y-17852786D01*
X8492500Y-17809929D01*
X8478214Y-17738500D01*
X8478214Y-17681357D01*
X8492500Y-17609929D01*
X8506786Y-17567072D01*
X8521071Y-17538500D01*
X8549643Y-17495643D01*
X8563928Y-17481357D01*
X8806786Y-17524214D02*
X8749643Y-17524214D01*
X8721071Y-17538500D01*
X8706786Y-17552786D01*
X8678214Y-17595643D01*
X8663928Y-17652786D01*
X8663928Y-17767072D01*
X8678214Y-17795643D01*
X8692500Y-17809929D01*
X8721071Y-17824214D01*
X8778214Y-17824214D01*
X8806786Y-17809929D01*
X8821071Y-17795643D01*
X8835357Y-17767072D01*
X8835357Y-17695643D01*
X8821071Y-17667072D01*
X8806786Y-17652786D01*
X8778214Y-17638500D01*
X8721071Y-17638500D01*
X8692500Y-17652786D01*
X8678214Y-17667072D01*
X8663928Y-17695643D01*
X9192500Y-17824214D02*
X9192500Y-17524214D01*
X9321071Y-17824214D02*
X9321071Y-17667072D01*
X9306786Y-17638500D01*
X9278214Y-17624214D01*
X9235357Y-17624214D01*
X9206786Y-17638500D01*
X9192500Y-17652786D01*
X9506786Y-17824214D02*
X9478214Y-17809929D01*
X9463928Y-17795643D01*
X9449643Y-17767072D01*
X9449643Y-17681357D01*
X9463928Y-17652786D01*
X9478214Y-17638500D01*
X9506786Y-17624214D01*
X9549643Y-17624214D01*
X9578214Y-17638500D01*
X9592500Y-17652786D01*
X9606786Y-17681357D01*
X9606786Y-17767072D01*
X9592500Y-17795643D01*
X9578214Y-17809929D01*
X9549643Y-17824214D01*
X9506786Y-17824214D01*
X9778214Y-17824214D02*
X9749643Y-17809929D01*
X9735357Y-17781357D01*
X9735357Y-17524214D01*
X10006786Y-17809929D02*
X9978214Y-17824214D01*
X9921071Y-17824214D01*
X9892500Y-17809929D01*
X9878214Y-17781357D01*
X9878214Y-17667072D01*
X9892500Y-17638500D01*
X9921071Y-17624214D01*
X9978214Y-17624214D01*
X10006786Y-17638500D01*
X10021071Y-17667072D01*
X10021071Y-17695643D01*
X9878214Y-17724214D01*
X10135357Y-17809929D02*
X10163928Y-17824214D01*
X10221071Y-17824214D01*
X10249643Y-17809929D01*
X10263928Y-17781357D01*
X10263928Y-17767072D01*
X10249643Y-17738500D01*
X10221071Y-17724214D01*
X10178214Y-17724214D01*
X10149643Y-17709929D01*
X10135357Y-17681357D01*
X10135357Y-17667072D01*
X10149643Y-17638500D01*
X10178214Y-17624214D01*
X10221071Y-17624214D01*
X10249643Y-17638500D01*
X10363928Y-17938500D02*
X10378214Y-17924214D01*
X10406786Y-17881357D01*
X10421071Y-17852786D01*
X10435357Y-17809929D01*
X10449643Y-17738500D01*
X10449643Y-17681357D01*
X10435357Y-17609929D01*
X10421071Y-17567072D01*
X10406786Y-17538500D01*
X10378214Y-17495643D01*
X10363928Y-17481357D01*
X3848211Y-18155212D02*
X3848211Y-18013789D01*
X3706788Y-18013789D01*
X3706788Y-18155212D01*
X3848211Y-18155212D01*
X3877500Y-18084500D02*
G75*
G03*
X3877500Y-18084500I-100000J0D01*
G01*
X4149643Y-17948786D02*
X4163928Y-17934500D01*
X4192500Y-17920214D01*
X4263928Y-17920214D01*
X4292500Y-17934500D01*
X4306786Y-17948786D01*
X4321071Y-17977357D01*
X4321071Y-18005929D01*
X4306786Y-18048786D01*
X4135357Y-18220214D01*
X4321071Y-18220214D01*
X4449643Y-18191643D02*
X4463928Y-18205929D01*
X4449643Y-18220214D01*
X4435357Y-18205929D01*
X4449643Y-18191643D01*
X4449643Y-18220214D01*
X4649643Y-17920214D02*
X4678214Y-17920214D01*
X4706786Y-17934500D01*
X4721071Y-17948786D01*
X4735357Y-17977357D01*
X4749643Y-18034500D01*
X4749643Y-18105929D01*
X4735357Y-18163072D01*
X4721071Y-18191643D01*
X4706786Y-18205929D01*
X4678214Y-18220214D01*
X4649643Y-18220214D01*
X4621071Y-18205929D01*
X4606786Y-18191643D01*
X4592500Y-18163072D01*
X4578214Y-18105929D01*
X4578214Y-18034500D01*
X4592500Y-17977357D01*
X4606786Y-17948786D01*
X4621071Y-17934500D01*
X4649643Y-17920214D01*
X4935357Y-17920214D02*
X4963928Y-17920214D01*
X4992500Y-17934500D01*
X5006786Y-17948786D01*
X5021071Y-17977357D01*
X5035357Y-18034500D01*
X5035357Y-18105929D01*
X5021071Y-18163072D01*
X5006786Y-18191643D01*
X4992500Y-18205929D01*
X4963928Y-18220214D01*
X4935357Y-18220214D01*
X4906786Y-18205929D01*
X4892500Y-18191643D01*
X4878214Y-18163072D01*
X4863928Y-18105929D01*
X4863928Y-18034500D01*
X4878214Y-17977357D01*
X4892500Y-17948786D01*
X4906786Y-17934500D01*
X4935357Y-17920214D01*
X5163928Y-18220214D02*
X5163928Y-18020214D01*
X5163928Y-18048786D02*
X5178214Y-18034500D01*
X5206786Y-18020214D01*
X5249643Y-18020214D01*
X5278214Y-18034500D01*
X5292500Y-18063072D01*
X5292500Y-18220214D01*
X5292500Y-18063072D02*
X5306786Y-18034500D01*
X5335357Y-18020214D01*
X5378214Y-18020214D01*
X5406786Y-18034500D01*
X5421071Y-18063072D01*
X5421071Y-18220214D01*
X5563928Y-18220214D02*
X5563928Y-18020214D01*
X5563928Y-18048786D02*
X5578214Y-18034500D01*
X5606786Y-18020214D01*
X5649643Y-18020214D01*
X5678214Y-18034500D01*
X5692500Y-18063072D01*
X5692500Y-18220214D01*
X5692500Y-18063072D02*
X5706786Y-18034500D01*
X5735357Y-18020214D01*
X5778214Y-18020214D01*
X5806786Y-18034500D01*
X5821071Y-18063072D01*
X5821071Y-18220214D01*
X6406786Y-17905929D02*
X6149643Y-18291643D01*
X6792500Y-17920214D02*
X6821071Y-17920214D01*
X6849643Y-17934500D01*
X6863928Y-17948786D01*
X6878214Y-17977357D01*
X6892500Y-18034500D01*
X6892500Y-18105929D01*
X6878214Y-18163072D01*
X6863928Y-18191643D01*
X6849643Y-18205929D01*
X6821071Y-18220214D01*
X6792500Y-18220214D01*
X6763928Y-18205929D01*
X6749643Y-18191643D01*
X6735357Y-18163072D01*
X6721071Y-18105929D01*
X6721071Y-18034500D01*
X6735357Y-17977357D01*
X6749643Y-17948786D01*
X6763928Y-17934500D01*
X6792500Y-17920214D01*
X7021071Y-18191643D02*
X7035357Y-18205929D01*
X7021071Y-18220214D01*
X7006786Y-18205929D01*
X7021071Y-18191643D01*
X7021071Y-18220214D01*
X7221071Y-17920214D02*
X7249643Y-17920214D01*
X7278214Y-17934500D01*
X7292500Y-17948786D01*
X7306786Y-17977357D01*
X7321071Y-18034500D01*
X7321071Y-18105929D01*
X7306786Y-18163072D01*
X7292500Y-18191643D01*
X7278214Y-18205929D01*
X7249643Y-18220214D01*
X7221071Y-18220214D01*
X7192500Y-18205929D01*
X7178214Y-18191643D01*
X7163928Y-18163072D01*
X7149643Y-18105929D01*
X7149643Y-18034500D01*
X7163928Y-17977357D01*
X7178214Y-17948786D01*
X7192500Y-17934500D01*
X7221071Y-17920214D01*
X7421071Y-17920214D02*
X7621071Y-17920214D01*
X7492500Y-18220214D01*
X7749643Y-18220214D02*
X7806786Y-18220214D01*
X7835357Y-18205929D01*
X7849643Y-18191643D01*
X7878214Y-18148786D01*
X7892500Y-18091643D01*
X7892500Y-17977357D01*
X7878214Y-17948786D01*
X7863928Y-17934500D01*
X7835357Y-17920214D01*
X7778214Y-17920214D01*
X7749643Y-17934500D01*
X7735357Y-17948786D01*
X7721071Y-17977357D01*
X7721071Y-18048786D01*
X7735357Y-18077357D01*
X7749643Y-18091643D01*
X7778214Y-18105929D01*
X7835357Y-18105929D01*
X7863928Y-18091643D01*
X7878214Y-18077357D01*
X7892500Y-18048786D01*
X8006786Y-17920214D02*
X8006786Y-17977357D01*
X8121071Y-17920214D02*
X8121071Y-17977357D01*
X8563928Y-18334500D02*
X8549643Y-18320214D01*
X8521071Y-18277357D01*
X8506786Y-18248786D01*
X8492500Y-18205929D01*
X8478214Y-18134500D01*
X8478214Y-18077357D01*
X8492500Y-18005929D01*
X8506786Y-17963072D01*
X8521071Y-17934500D01*
X8549643Y-17891643D01*
X8563928Y-17877357D01*
X8806786Y-18020214D02*
X8806786Y-18220214D01*
X8735357Y-17905929D02*
X8663928Y-18120214D01*
X8849643Y-18120214D01*
X9192500Y-18220214D02*
X9192500Y-17920214D01*
X9321071Y-18220214D02*
X9321071Y-18063072D01*
X9306786Y-18034500D01*
X9278214Y-18020214D01*
X9235357Y-18020214D01*
X9206786Y-18034500D01*
X9192500Y-18048786D01*
X9506786Y-18220214D02*
X9478214Y-18205929D01*
X9463928Y-18191643D01*
X9449643Y-18163072D01*
X9449643Y-18077357D01*
X9463928Y-18048786D01*
X9478214Y-18034500D01*
X9506786Y-18020214D01*
X9549643Y-18020214D01*
X9578214Y-18034500D01*
X9592500Y-18048786D01*
X9606786Y-18077357D01*
X9606786Y-18163072D01*
X9592500Y-18191643D01*
X9578214Y-18205929D01*
X9549643Y-18220214D01*
X9506786Y-18220214D01*
X9778214Y-18220214D02*
X9749643Y-18205929D01*
X9735357Y-18177357D01*
X9735357Y-17920214D01*
X10006786Y-18205929D02*
X9978214Y-18220214D01*
X9921071Y-18220214D01*
X9892500Y-18205929D01*
X9878214Y-18177357D01*
X9878214Y-18063072D01*
X9892500Y-18034500D01*
X9921071Y-18020214D01*
X9978214Y-18020214D01*
X10006786Y-18034500D01*
X10021071Y-18063072D01*
X10021071Y-18091643D01*
X9878214Y-18120214D01*
X10135357Y-18205929D02*
X10163928Y-18220214D01*
X10221071Y-18220214D01*
X10249643Y-18205929D01*
X10263928Y-18177357D01*
X10263928Y-18163072D01*
X10249643Y-18134500D01*
X10221071Y-18120214D01*
X10178214Y-18120214D01*
X10149643Y-18105929D01*
X10135357Y-18077357D01*
X10135357Y-18063072D01*
X10149643Y-18034500D01*
X10178214Y-18020214D01*
X10221071Y-18020214D01*
X10249643Y-18034500D01*
X10363928Y-18334500D02*
X10378214Y-18320214D01*
X10406786Y-18277357D01*
X10421071Y-18248786D01*
X10435357Y-18205929D01*
X10449643Y-18134500D01*
X10449643Y-18077357D01*
X10435357Y-18005929D01*
X10421071Y-17963072D01*
X10406786Y-17934500D01*
X10378214Y-17891643D01*
X10363928Y-17877357D01*
X3767500Y-18590500D02*
X3877500Y-18480500D01*
X3767500Y-18370500D01*
X3657500Y-18480500D01*
X3767500Y-18590500D01*
X3877500Y-18480500D02*
G75*
G03*
X3877500Y-18480500I-110000J0D01*
G01*
X4149643Y-18344786D02*
X4163928Y-18330500D01*
X4192500Y-18316214D01*
X4263928Y-18316214D01*
X4292500Y-18330500D01*
X4306786Y-18344786D01*
X4321071Y-18373357D01*
X4321071Y-18401929D01*
X4306786Y-18444786D01*
X4135357Y-18616214D01*
X4321071Y-18616214D01*
X4449643Y-18587643D02*
X4463928Y-18601929D01*
X4449643Y-18616214D01*
X4435357Y-18601929D01*
X4449643Y-18587643D01*
X4449643Y-18616214D01*
X4578214Y-18344786D02*
X4592500Y-18330500D01*
X4621071Y-18316214D01*
X4692500Y-18316214D01*
X4721071Y-18330500D01*
X4735357Y-18344786D01*
X4749643Y-18373357D01*
X4749643Y-18401929D01*
X4735357Y-18444786D01*
X4563928Y-18616214D01*
X4749643Y-18616214D01*
X4935357Y-18316214D02*
X4963928Y-18316214D01*
X4992500Y-18330500D01*
X5006786Y-18344786D01*
X5021071Y-18373357D01*
X5035357Y-18430500D01*
X5035357Y-18501929D01*
X5021071Y-18559072D01*
X5006786Y-18587643D01*
X4992500Y-18601929D01*
X4963928Y-18616214D01*
X4935357Y-18616214D01*
X4906786Y-18601929D01*
X4892500Y-18587643D01*
X4878214Y-18559072D01*
X4863928Y-18501929D01*
X4863928Y-18430500D01*
X4878214Y-18373357D01*
X4892500Y-18344786D01*
X4906786Y-18330500D01*
X4935357Y-18316214D01*
X5163928Y-18616214D02*
X5163928Y-18416214D01*
X5163928Y-18444786D02*
X5178214Y-18430500D01*
X5206786Y-18416214D01*
X5249643Y-18416214D01*
X5278214Y-18430500D01*
X5292500Y-18459072D01*
X5292500Y-18616214D01*
X5292500Y-18459072D02*
X5306786Y-18430500D01*
X5335357Y-18416214D01*
X5378214Y-18416214D01*
X5406786Y-18430500D01*
X5421071Y-18459072D01*
X5421071Y-18616214D01*
X5563928Y-18616214D02*
X5563928Y-18416214D01*
X5563928Y-18444786D02*
X5578214Y-18430500D01*
X5606786Y-18416214D01*
X5649643Y-18416214D01*
X5678214Y-18430500D01*
X5692500Y-18459072D01*
X5692500Y-18616214D01*
X5692500Y-18459072D02*
X5706786Y-18430500D01*
X5735357Y-18416214D01*
X5778214Y-18416214D01*
X5806786Y-18430500D01*
X5821071Y-18459072D01*
X5821071Y-18616214D01*
X6406786Y-18301929D02*
X6149643Y-18687643D01*
X6792500Y-18316214D02*
X6821071Y-18316214D01*
X6849643Y-18330500D01*
X6863928Y-18344786D01*
X6878214Y-18373357D01*
X6892500Y-18430500D01*
X6892500Y-18501929D01*
X6878214Y-18559072D01*
X6863928Y-18587643D01*
X6849643Y-18601929D01*
X6821071Y-18616214D01*
X6792500Y-18616214D01*
X6763928Y-18601929D01*
X6749643Y-18587643D01*
X6735357Y-18559072D01*
X6721071Y-18501929D01*
X6721071Y-18430500D01*
X6735357Y-18373357D01*
X6749643Y-18344786D01*
X6763928Y-18330500D01*
X6792500Y-18316214D01*
X7021071Y-18587643D02*
X7035357Y-18601929D01*
X7021071Y-18616214D01*
X7006786Y-18601929D01*
X7021071Y-18587643D01*
X7021071Y-18616214D01*
X7221071Y-18316214D02*
X7249643Y-18316214D01*
X7278214Y-18330500D01*
X7292500Y-18344786D01*
X7306786Y-18373357D01*
X7321071Y-18430500D01*
X7321071Y-18501929D01*
X7306786Y-18559072D01*
X7292500Y-18587643D01*
X7278214Y-18601929D01*
X7249643Y-18616214D01*
X7221071Y-18616214D01*
X7192500Y-18601929D01*
X7178214Y-18587643D01*
X7163928Y-18559072D01*
X7149643Y-18501929D01*
X7149643Y-18430500D01*
X7163928Y-18373357D01*
X7178214Y-18344786D01*
X7192500Y-18330500D01*
X7221071Y-18316214D01*
X7492500Y-18444786D02*
X7463928Y-18430500D01*
X7449643Y-18416214D01*
X7435357Y-18387643D01*
X7435357Y-18373357D01*
X7449643Y-18344786D01*
X7463928Y-18330500D01*
X7492500Y-18316214D01*
X7549643Y-18316214D01*
X7578214Y-18330500D01*
X7592500Y-18344786D01*
X7606786Y-18373357D01*
X7606786Y-18387643D01*
X7592500Y-18416214D01*
X7578214Y-18430500D01*
X7549643Y-18444786D01*
X7492500Y-18444786D01*
X7463928Y-18459072D01*
X7449643Y-18473357D01*
X7435357Y-18501929D01*
X7435357Y-18559072D01*
X7449643Y-18587643D01*
X7463928Y-18601929D01*
X7492500Y-18616214D01*
X7549643Y-18616214D01*
X7578214Y-18601929D01*
X7592500Y-18587643D01*
X7606786Y-18559072D01*
X7606786Y-18501929D01*
X7592500Y-18473357D01*
X7578214Y-18459072D01*
X7549643Y-18444786D01*
X7706786Y-18316214D02*
X7906786Y-18316214D01*
X7778214Y-18616214D01*
X8006786Y-18316214D02*
X8006786Y-18373357D01*
X8121071Y-18316214D02*
X8121071Y-18373357D01*
X8563928Y-18730500D02*
X8549643Y-18716214D01*
X8521071Y-18673357D01*
X8506786Y-18644786D01*
X8492500Y-18601929D01*
X8478214Y-18530500D01*
X8478214Y-18473357D01*
X8492500Y-18401929D01*
X8506786Y-18359072D01*
X8521071Y-18330500D01*
X8549643Y-18287643D01*
X8563928Y-18273357D01*
X8806786Y-18416214D02*
X8806786Y-18616214D01*
X8735357Y-18301929D02*
X8663928Y-18516214D01*
X8849643Y-18516214D01*
X9192500Y-18616214D02*
X9192500Y-18316214D01*
X9321071Y-18616214D02*
X9321071Y-18459072D01*
X9306786Y-18430500D01*
X9278214Y-18416214D01*
X9235357Y-18416214D01*
X9206786Y-18430500D01*
X9192500Y-18444786D01*
X9506786Y-18616214D02*
X9478214Y-18601929D01*
X9463928Y-18587643D01*
X9449643Y-18559072D01*
X9449643Y-18473357D01*
X9463928Y-18444786D01*
X9478214Y-18430500D01*
X9506786Y-18416214D01*
X9549643Y-18416214D01*
X9578214Y-18430500D01*
X9592500Y-18444786D01*
X9606786Y-18473357D01*
X9606786Y-18559072D01*
X9592500Y-18587643D01*
X9578214Y-18601929D01*
X9549643Y-18616214D01*
X9506786Y-18616214D01*
X9778214Y-18616214D02*
X9749643Y-18601929D01*
X9735357Y-18573357D01*
X9735357Y-18316214D01*
X10006786Y-18601929D02*
X9978214Y-18616214D01*
X9921071Y-18616214D01*
X9892500Y-18601929D01*
X9878214Y-18573357D01*
X9878214Y-18459072D01*
X9892500Y-18430500D01*
X9921071Y-18416214D01*
X9978214Y-18416214D01*
X10006786Y-18430500D01*
X10021071Y-18459072D01*
X10021071Y-18487643D01*
X9878214Y-18516214D01*
X10135357Y-18601929D02*
X10163928Y-18616214D01*
X10221071Y-18616214D01*
X10249643Y-18601929D01*
X10263928Y-18573357D01*
X10263928Y-18559072D01*
X10249643Y-18530500D01*
X10221071Y-18516214D01*
X10178214Y-18516214D01*
X10149643Y-18501929D01*
X10135357Y-18473357D01*
X10135357Y-18459072D01*
X10149643Y-18430500D01*
X10178214Y-18416214D01*
X10221071Y-18416214D01*
X10249643Y-18430500D01*
X10363928Y-18730500D02*
X10378214Y-18716214D01*
X10406786Y-18673357D01*
X10421071Y-18644786D01*
X10435357Y-18601929D01*
X10449643Y-18530500D01*
X10449643Y-18473357D01*
X10435357Y-18401929D01*
X10421071Y-18359072D01*
X10406786Y-18330500D01*
X10378214Y-18287643D01*
X10363928Y-18273357D01*
X3717500Y-18716500D02*
X3717500Y-19036500D01*
X3557500Y-18876500D02*
X3877500Y-18876500D01*
X3830638Y-18989638D02*
X3830638Y-18763362D01*
X3604362Y-18763362D01*
X3604362Y-18989638D01*
X3830638Y-18989638D01*
X4135357Y-18712214D02*
X4321071Y-18712214D01*
X4221071Y-18826500D01*
X4263928Y-18826500D01*
X4292500Y-18840786D01*
X4306786Y-18855072D01*
X4321071Y-18883643D01*
X4321071Y-18955072D01*
X4306786Y-18983643D01*
X4292500Y-18997929D01*
X4263928Y-19012214D01*
X4178214Y-19012214D01*
X4149643Y-18997929D01*
X4135357Y-18983643D01*
X4449643Y-18983643D02*
X4463928Y-18997929D01*
X4449643Y-19012214D01*
X4435357Y-18997929D01*
X4449643Y-18983643D01*
X4449643Y-19012214D01*
X4578214Y-18740786D02*
X4592500Y-18726500D01*
X4621071Y-18712214D01*
X4692500Y-18712214D01*
X4721071Y-18726500D01*
X4735357Y-18740786D01*
X4749643Y-18769357D01*
X4749643Y-18797929D01*
X4735357Y-18840786D01*
X4563928Y-19012214D01*
X4749643Y-19012214D01*
X4935357Y-18712214D02*
X4963928Y-18712214D01*
X4992500Y-18726500D01*
X5006786Y-18740786D01*
X5021071Y-18769357D01*
X5035357Y-18826500D01*
X5035357Y-18897929D01*
X5021071Y-18955072D01*
X5006786Y-18983643D01*
X4992500Y-18997929D01*
X4963928Y-19012214D01*
X4935357Y-19012214D01*
X4906786Y-18997929D01*
X4892500Y-18983643D01*
X4878214Y-18955072D01*
X4863928Y-18897929D01*
X4863928Y-18826500D01*
X4878214Y-18769357D01*
X4892500Y-18740786D01*
X4906786Y-18726500D01*
X4935357Y-18712214D01*
X5163928Y-19012214D02*
X5163928Y-18812214D01*
X5163928Y-18840786D02*
X5178214Y-18826500D01*
X5206786Y-18812214D01*
X5249643Y-18812214D01*
X5278214Y-18826500D01*
X5292500Y-18855072D01*
X5292500Y-19012214D01*
X5292500Y-18855072D02*
X5306786Y-18826500D01*
X5335357Y-18812214D01*
X5378214Y-18812214D01*
X5406786Y-18826500D01*
X5421071Y-18855072D01*
X5421071Y-19012214D01*
X5563928Y-19012214D02*
X5563928Y-18812214D01*
X5563928Y-18840786D02*
X5578214Y-18826500D01*
X5606786Y-18812214D01*
X5649643Y-18812214D01*
X5678214Y-18826500D01*
X5692500Y-18855072D01*
X5692500Y-19012214D01*
X5692500Y-18855072D02*
X5706786Y-18826500D01*
X5735357Y-18812214D01*
X5778214Y-18812214D01*
X5806786Y-18826500D01*
X5821071Y-18855072D01*
X5821071Y-19012214D01*
X6406786Y-18697929D02*
X6149643Y-19083643D01*
X6792500Y-18712214D02*
X6821071Y-18712214D01*
X6849643Y-18726500D01*
X6863928Y-18740786D01*
X6878214Y-18769357D01*
X6892500Y-18826500D01*
X6892500Y-18897929D01*
X6878214Y-18955072D01*
X6863928Y-18983643D01*
X6849643Y-18997929D01*
X6821071Y-19012214D01*
X6792500Y-19012214D01*
X6763928Y-18997929D01*
X6749643Y-18983643D01*
X6735357Y-18955072D01*
X6721071Y-18897929D01*
X6721071Y-18826500D01*
X6735357Y-18769357D01*
X6749643Y-18740786D01*
X6763928Y-18726500D01*
X6792500Y-18712214D01*
X7021071Y-18983643D02*
X7035357Y-18997929D01*
X7021071Y-19012214D01*
X7006786Y-18997929D01*
X7021071Y-18983643D01*
X7021071Y-19012214D01*
X7321071Y-19012214D02*
X7149643Y-19012214D01*
X7235357Y-19012214D02*
X7235357Y-18712214D01*
X7206786Y-18755072D01*
X7178214Y-18783643D01*
X7149643Y-18797929D01*
X7435357Y-18740786D02*
X7449643Y-18726500D01*
X7478214Y-18712214D01*
X7549643Y-18712214D01*
X7578214Y-18726500D01*
X7592500Y-18740786D01*
X7606786Y-18769357D01*
X7606786Y-18797929D01*
X7592500Y-18840786D01*
X7421071Y-19012214D01*
X7606786Y-19012214D01*
X7863928Y-18712214D02*
X7806786Y-18712214D01*
X7778214Y-18726500D01*
X7763928Y-18740786D01*
X7735357Y-18783643D01*
X7721071Y-18840786D01*
X7721071Y-18955072D01*
X7735357Y-18983643D01*
X7749643Y-18997929D01*
X7778214Y-19012214D01*
X7835357Y-19012214D01*
X7863928Y-18997929D01*
X7878214Y-18983643D01*
X7892500Y-18955072D01*
X7892500Y-18883643D01*
X7878214Y-18855072D01*
X7863928Y-18840786D01*
X7835357Y-18826500D01*
X7778214Y-18826500D01*
X7749643Y-18840786D01*
X7735357Y-18855072D01*
X7721071Y-18883643D01*
X8006786Y-18712214D02*
X8006786Y-18769357D01*
X8121071Y-18712214D02*
X8121071Y-18769357D01*
X8563928Y-19126500D02*
X8549643Y-19112214D01*
X8521071Y-19069357D01*
X8506786Y-19040786D01*
X8492500Y-18997929D01*
X8478214Y-18926500D01*
X8478214Y-18869357D01*
X8492500Y-18797929D01*
X8506786Y-18755072D01*
X8521071Y-18726500D01*
X8549643Y-18683643D01*
X8563928Y-18669357D01*
X8806786Y-18712214D02*
X8749643Y-18712214D01*
X8721071Y-18726500D01*
X8706786Y-18740786D01*
X8678214Y-18783643D01*
X8663928Y-18840786D01*
X8663928Y-18955072D01*
X8678214Y-18983643D01*
X8692500Y-18997929D01*
X8721071Y-19012214D01*
X8778214Y-19012214D01*
X8806786Y-18997929D01*
X8821071Y-18983643D01*
X8835357Y-18955072D01*
X8835357Y-18883643D01*
X8821071Y-18855072D01*
X8806786Y-18840786D01*
X8778214Y-18826500D01*
X8721071Y-18826500D01*
X8692500Y-18840786D01*
X8678214Y-18855072D01*
X8663928Y-18883643D01*
X9192500Y-19012214D02*
X9192500Y-18712214D01*
X9321071Y-19012214D02*
X9321071Y-18855072D01*
X9306786Y-18826500D01*
X9278214Y-18812214D01*
X9235357Y-18812214D01*
X9206786Y-18826500D01*
X9192500Y-18840786D01*
X9506786Y-19012214D02*
X9478214Y-18997929D01*
X9463928Y-18983643D01*
X9449643Y-18955072D01*
X9449643Y-18869357D01*
X9463928Y-18840786D01*
X9478214Y-18826500D01*
X9506786Y-18812214D01*
X9549643Y-18812214D01*
X9578214Y-18826500D01*
X9592500Y-18840786D01*
X9606786Y-18869357D01*
X9606786Y-18955072D01*
X9592500Y-18983643D01*
X9578214Y-18997929D01*
X9549643Y-19012214D01*
X9506786Y-19012214D01*
X9778214Y-19012214D02*
X9749643Y-18997929D01*
X9735357Y-18969357D01*
X9735357Y-18712214D01*
X10006786Y-18997929D02*
X9978214Y-19012214D01*
X9921071Y-19012214D01*
X9892500Y-18997929D01*
X9878214Y-18969357D01*
X9878214Y-18855072D01*
X9892500Y-18826500D01*
X9921071Y-18812214D01*
X9978214Y-18812214D01*
X10006786Y-18826500D01*
X10021071Y-18855072D01*
X10021071Y-18883643D01*
X9878214Y-18912214D01*
X10135357Y-18997929D02*
X10163928Y-19012214D01*
X10221071Y-19012214D01*
X10249643Y-18997929D01*
X10263928Y-18969357D01*
X10263928Y-18955072D01*
X10249643Y-18926500D01*
X10221071Y-18912214D01*
X10178214Y-18912214D01*
X10149643Y-18897929D01*
X10135357Y-18869357D01*
X10135357Y-18855072D01*
X10149643Y-18826500D01*
X10178214Y-18812214D01*
X10221071Y-18812214D01*
X10249643Y-18826500D01*
X10363928Y-19126500D02*
X10378214Y-19112214D01*
X10406786Y-19069357D01*
X10421071Y-19040786D01*
X10435357Y-18997929D01*
X10449643Y-18926500D01*
X10449643Y-18869357D01*
X10435357Y-18797929D01*
X10421071Y-18755072D01*
X10406786Y-18726500D01*
X10378214Y-18683643D01*
X10363928Y-18669357D01*
X10906786Y-19126500D02*
X10892500Y-19112214D01*
X10863928Y-19069357D01*
X10849643Y-19040786D01*
X10835357Y-18997929D01*
X10821071Y-18926500D01*
X10821071Y-18869357D01*
X10835357Y-18797929D01*
X10849643Y-18755072D01*
X10863928Y-18726500D01*
X10892500Y-18683643D01*
X10906786Y-18669357D01*
X11021071Y-18812214D02*
X11021071Y-19012214D01*
X11021071Y-18840786D02*
X11035357Y-18826500D01*
X11063928Y-18812214D01*
X11106786Y-18812214D01*
X11135357Y-18826500D01*
X11149643Y-18855072D01*
X11149643Y-19012214D01*
X11335357Y-19012214D02*
X11306786Y-18997929D01*
X11292500Y-18983643D01*
X11278214Y-18955072D01*
X11278214Y-18869357D01*
X11292500Y-18840786D01*
X11306786Y-18826500D01*
X11335357Y-18812214D01*
X11378214Y-18812214D01*
X11406786Y-18826500D01*
X11421071Y-18840786D01*
X11435357Y-18869357D01*
X11435357Y-18955072D01*
X11421071Y-18983643D01*
X11406786Y-18997929D01*
X11378214Y-19012214D01*
X11335357Y-19012214D01*
X11521071Y-18812214D02*
X11635357Y-18812214D01*
X11563928Y-18712214D02*
X11563928Y-18969357D01*
X11578214Y-18997929D01*
X11606786Y-19012214D01*
X11635357Y-19012214D01*
X11963928Y-18812214D02*
X11963928Y-19112214D01*
X11963928Y-18826500D02*
X11992500Y-18812214D01*
X12049643Y-18812214D01*
X12078214Y-18826500D01*
X12092500Y-18840786D01*
X12106786Y-18869357D01*
X12106786Y-18955072D01*
X12092500Y-18983643D01*
X12078214Y-18997929D01*
X12049643Y-19012214D01*
X11992500Y-19012214D01*
X11963928Y-18997929D01*
X12278214Y-19012214D02*
X12249643Y-18997929D01*
X12235357Y-18969357D01*
X12235357Y-18712214D01*
X12521071Y-19012214D02*
X12521071Y-18855072D01*
X12506786Y-18826500D01*
X12478214Y-18812214D01*
X12421071Y-18812214D01*
X12392500Y-18826500D01*
X12521071Y-18997929D02*
X12492500Y-19012214D01*
X12421071Y-19012214D01*
X12392500Y-18997929D01*
X12378214Y-18969357D01*
X12378214Y-18940786D01*
X12392500Y-18912214D01*
X12421071Y-18897929D01*
X12492500Y-18897929D01*
X12521071Y-18883643D01*
X12621071Y-18812214D02*
X12735357Y-18812214D01*
X12663928Y-18712214D02*
X12663928Y-18969357D01*
X12678214Y-18997929D01*
X12706786Y-19012214D01*
X12735357Y-19012214D01*
X12949643Y-18997929D02*
X12921071Y-19012214D01*
X12863928Y-19012214D01*
X12835357Y-18997929D01*
X12821071Y-18969357D01*
X12821071Y-18855072D01*
X12835357Y-18826500D01*
X12863928Y-18812214D01*
X12921071Y-18812214D01*
X12949643Y-18826500D01*
X12963928Y-18855072D01*
X12963928Y-18883643D01*
X12821071Y-18912214D01*
X13221071Y-19012214D02*
X13221071Y-18712214D01*
X13221071Y-18997929D02*
X13192500Y-19012214D01*
X13135357Y-19012214D01*
X13106786Y-18997929D01*
X13092500Y-18983643D01*
X13078214Y-18955072D01*
X13078214Y-18869357D01*
X13092500Y-18840786D01*
X13106786Y-18826500D01*
X13135357Y-18812214D01*
X13192500Y-18812214D01*
X13221071Y-18826500D01*
X13335357Y-19126500D02*
X13349643Y-19112214D01*
X13378214Y-19069357D01*
X13392500Y-19040786D01*
X13406786Y-18997929D01*
X13421071Y-18926500D01*
X13421071Y-18869357D01*
X13406786Y-18797929D01*
X13392500Y-18755072D01*
X13378214Y-18726500D01*
X13349643Y-18683643D01*
X13335357Y-18669357D01*
M02*
