M48
; DRILL file {KiCad (5.1.9)-1} date 05/24/21 15:16:36
; FORMAT={-:-/ absolute / metric / decimal}
; #@! TF.CreationDate,2021-05-24T15:16:36+02:00
; #@! TF.GenerationSoftware,Kicad,Pcbnew,(5.1.9)-1
; #@! TF.FileFunction,Plated,1,2,PTH
FMAT,2
METRIC
T1C0.762
T2C0.800
T3C0.800
T4C0.900
T5C0.950
T6C1.000
T7C1.100
T8C1.501
T9C1.520
T10C1.524
T11C2.000
T12C3.200
%
G90
G05
T1
X114.39Y-124.33
X116.93Y-124.33
X117.692Y-110.106
X119.47Y-121.79
X119.47Y-124.33
X120.994Y-110.106
X122.01Y-121.79
X122.01Y-124.33
X124.55Y-124.33
T2
X80.01Y-136.0
X80.01Y-140.97
X87.63Y-136.0
X87.63Y-140.97
X90.57Y-124.09
X91.44Y-128.27
X91.44Y-135.89
X92.71Y-140.97
X96.52Y-144.78
X96.52Y-152.4
X97.6Y-119.01
X98.19Y-124.09
X100.33Y-140.97
X100.33Y-145.79
X100.33Y-151.1
X104.14Y-129.54
X104.14Y-137.16
X105.22Y-119.01
X107.95Y-145.79
X107.95Y-151.1
X115.57Y-129.54
X115.57Y-142.24
X123.19Y-129.54
X123.19Y-142.24
T3
X109.22Y-139.7
X111.76Y-139.7
T4
X80.01Y-130.81
X82.61Y-130.81
X85.21Y-130.81
X102.83Y-124.05
X105.37Y-124.05
X146.05Y-120.65
X148.65Y-120.65
X151.25Y-120.65
T5
X72.39Y-128.47
X72.39Y-130.97
X72.39Y-133.47
X72.39Y-135.97
X72.39Y-138.47
X72.39Y-140.97
T6
X114.3Y-149.86
X116.8Y-149.86
T7
X79.33Y-123.97
X83.88Y-119.01
X84.41Y-123.97
X94.04Y-119.01
X97.79Y-129.54
X97.79Y-132.08
X97.79Y-134.62
X114.3Y-134.62
X124.46Y-134.62
X130.81Y-129.54
X134.62Y-121.92
X137.16Y-121.92
X139.7Y-121.92
X140.97Y-129.54
X146.05Y-129.54
X151.13Y-129.54
T8
X82.619Y-110.95
X104.621Y-110.95
X128.699Y-138.43
X150.701Y-138.43
T9
X125.73Y-149.86
X130.81Y-149.86
X134.62Y-109.22
X137.16Y-149.86
X139.7Y-109.22
X142.24Y-149.86
X146.05Y-109.22
X148.59Y-149.86
X151.13Y-109.22
X153.67Y-149.86
X160.02Y-118.11
X160.02Y-123.19
X160.02Y-130.81
X160.02Y-135.89
T10
X75.64Y-114.35
X75.64Y-119.43
T11
X110.58Y-108.582
X110.58Y-124.33
X128.36Y-108.582
X128.36Y-124.33
T12
X73.16Y-107.94
X73.25Y-150.97
X93.62Y-110.95
X139.7Y-138.43
X160.75Y-150.82
X160.83Y-107.84
T0
M30
