G04 #@! TF.GenerationSoftware,KiCad,Pcbnew,(5.1.9)-1*
G04 #@! TF.CreationDate,2021-07-22T20:13:59+02:00*
G04 #@! TF.ProjectId,Ardumower,41726475-6d6f-4776-9572-2e6b69636164,rev?*
G04 #@! TF.SameCoordinates,Original*
G04 #@! TF.FileFunction,Legend,Bot*
G04 #@! TF.FilePolarity,Positive*
%FSLAX46Y46*%
G04 Gerber Fmt 4.6, Leading zero omitted, Abs format (unit mm)*
G04 Created by KiCad (PCBNEW (5.1.9)-1) date 2021-07-22 20:13:59*
%MOMM*%
%LPD*%
G01*
G04 APERTURE LIST*
%ADD10R,3.000000X3.000000*%
%ADD11C,3.000000*%
%ADD12O,1.700000X2.000000*%
%ADD13O,1.600000X1.600000*%
%ADD14C,1.600000*%
%ADD15O,1.700000X1.950000*%
%ADD16C,2.000000*%
%ADD17O,1.950000X1.700000*%
%ADD18O,2.000000X1.700000*%
%ADD19O,2.268000X1.524000*%
%ADD20C,6.400000*%
%ADD21C,3.600000*%
%ADD22O,1.700000X1.700000*%
%ADD23R,1.700000X1.700000*%
%ADD24R,1.600000X1.600000*%
%ADD25R,1.300000X1.300000*%
%ADD26C,1.300000*%
%ADD27O,2.200000X2.200000*%
%ADD28R,2.200000X2.200000*%
%ADD29C,1.800000*%
%ADD30R,1.800000X1.800000*%
G04 APERTURE END LIST*
%LPC*%
D10*
X134620000Y-46990000D03*
D11*
X155110000Y-46990000D03*
D12*
X172680000Y-120650000D03*
G36*
G01*
X169330000Y-121400000D02*
X169330000Y-119900000D01*
G75*
G02*
X169580000Y-119650000I250000J0D01*
G01*
X170780000Y-119650000D01*
G75*
G02*
X171030000Y-119900000I0J-250000D01*
G01*
X171030000Y-121400000D01*
G75*
G02*
X170780000Y-121650000I-250000J0D01*
G01*
X169580000Y-121650000D01*
G75*
G02*
X169330000Y-121400000I0J250000D01*
G01*
G37*
D13*
X175260000Y-113030000D03*
D14*
X172720000Y-113030000D03*
D13*
X168910000Y-113030000D03*
D14*
X166370000Y-113030000D03*
D13*
X175260000Y-106680000D03*
D14*
X172720000Y-106680000D03*
D13*
X168910000Y-106680000D03*
D14*
X166370000Y-106680000D03*
D15*
X138550000Y-107950000D03*
X141050000Y-107950000D03*
X143550000Y-107950000D03*
G36*
G01*
X146900000Y-107225000D02*
X146900000Y-108675000D01*
G75*
G02*
X146650000Y-108925000I-250000J0D01*
G01*
X145450000Y-108925000D01*
G75*
G02*
X145200000Y-108675000I0J250000D01*
G01*
X145200000Y-107225000D01*
G75*
G02*
X145450000Y-106975000I250000J0D01*
G01*
X146650000Y-106975000D01*
G75*
G02*
X146900000Y-107225000I0J-250000D01*
G01*
G37*
X158710000Y-127000000D03*
X156210000Y-127000000D03*
G36*
G01*
X152860000Y-127725000D02*
X152860000Y-126275000D01*
G75*
G02*
X153110000Y-126025000I250000J0D01*
G01*
X154310000Y-126025000D01*
G75*
G02*
X154560000Y-126275000I0J-250000D01*
G01*
X154560000Y-127725000D01*
G75*
G02*
X154310000Y-127975000I-250000J0D01*
G01*
X153110000Y-127975000D01*
G75*
G02*
X152860000Y-127725000I0J250000D01*
G01*
G37*
X122040000Y-107950000D03*
X124540000Y-107950000D03*
X127040000Y-107950000D03*
G36*
G01*
X130390000Y-107225000D02*
X130390000Y-108675000D01*
G75*
G02*
X130140000Y-108925000I-250000J0D01*
G01*
X128940000Y-108925000D01*
G75*
G02*
X128690000Y-108675000I0J250000D01*
G01*
X128690000Y-107225000D01*
G75*
G02*
X128940000Y-106975000I250000J0D01*
G01*
X130140000Y-106975000D01*
G75*
G02*
X130390000Y-107225000I0J-250000D01*
G01*
G37*
X158670000Y-115570000D03*
X156170000Y-115570000D03*
G36*
G01*
X152820000Y-116295000D02*
X152820000Y-114845000D01*
G75*
G02*
X153070000Y-114595000I250000J0D01*
G01*
X154270000Y-114595000D01*
G75*
G02*
X154520000Y-114845000I0J-250000D01*
G01*
X154520000Y-116295000D01*
G75*
G02*
X154270000Y-116545000I-250000J0D01*
G01*
X153070000Y-116545000D01*
G75*
G02*
X152820000Y-116295000I0J250000D01*
G01*
G37*
D16*
X86360000Y-108712000D03*
X111760000Y-108712000D03*
X86360000Y-106172000D03*
X111760000Y-106172000D03*
X86360000Y-103632000D03*
X111760000Y-103632000D03*
X86360000Y-101092000D03*
X111760000Y-101092000D03*
X86360000Y-98552000D03*
X111760000Y-98552000D03*
X86360000Y-96012000D03*
X111760000Y-96012000D03*
X86360000Y-93472000D03*
X111760000Y-93472000D03*
X86360000Y-90932000D03*
X111760000Y-90932000D03*
X86360000Y-88392000D03*
X111760000Y-88392000D03*
X86360000Y-85852000D03*
X111760000Y-85852000D03*
X86360000Y-83312000D03*
X111760000Y-83312000D03*
X86360000Y-80772000D03*
X111760000Y-80772000D03*
X86360000Y-78232000D03*
X111760000Y-78232000D03*
X86360000Y-75692000D03*
X111760000Y-75692000D03*
X86360000Y-73152000D03*
X111760000Y-73152000D03*
D13*
X143891000Y-117475000D03*
D14*
X146431000Y-117475000D03*
D13*
X137668000Y-117475000D03*
D14*
X140208000Y-117475000D03*
D15*
X146010000Y-127000000D03*
X143510000Y-127000000D03*
X141010000Y-127000000D03*
G36*
G01*
X137660000Y-127725000D02*
X137660000Y-126275000D01*
G75*
G02*
X137910000Y-126025000I250000J0D01*
G01*
X139110000Y-126025000D01*
G75*
G02*
X139360000Y-126275000I0J-250000D01*
G01*
X139360000Y-127725000D01*
G75*
G02*
X139110000Y-127975000I-250000J0D01*
G01*
X137910000Y-127975000D01*
G75*
G02*
X137660000Y-127725000I0J250000D01*
G01*
G37*
X130650000Y-116840000D03*
X128150000Y-116840000D03*
X125650000Y-116840000D03*
X123150000Y-116840000D03*
G36*
G01*
X119800000Y-117565000D02*
X119800000Y-116115000D01*
G75*
G02*
X120050000Y-115865000I250000J0D01*
G01*
X121250000Y-115865000D01*
G75*
G02*
X121500000Y-116115000I0J-250000D01*
G01*
X121500000Y-117565000D01*
G75*
G02*
X121250000Y-117815000I-250000J0D01*
G01*
X120050000Y-117815000D01*
G75*
G02*
X119800000Y-117565000I0J250000D01*
G01*
G37*
X130650000Y-127000000D03*
X128150000Y-127000000D03*
X125650000Y-127000000D03*
X123150000Y-127000000D03*
G36*
G01*
X119800000Y-127725000D02*
X119800000Y-126275000D01*
G75*
G02*
X120050000Y-126025000I250000J0D01*
G01*
X121250000Y-126025000D01*
G75*
G02*
X121500000Y-126275000I0J-250000D01*
G01*
X121500000Y-127725000D01*
G75*
G02*
X121250000Y-127975000I-250000J0D01*
G01*
X120050000Y-127975000D01*
G75*
G02*
X119800000Y-127725000I0J250000D01*
G01*
G37*
D17*
X155321000Y-94749000D03*
X155321000Y-92249000D03*
X155321000Y-89749000D03*
G36*
G01*
X154596000Y-86399000D02*
X156046000Y-86399000D01*
G75*
G02*
X156296000Y-86649000I0J-250000D01*
G01*
X156296000Y-87849000D01*
G75*
G02*
X156046000Y-88099000I-250000J0D01*
G01*
X154596000Y-88099000D01*
G75*
G02*
X154346000Y-87849000I0J250000D01*
G01*
X154346000Y-86649000D01*
G75*
G02*
X154596000Y-86399000I250000J0D01*
G01*
G37*
D15*
X119841000Y-81407000D03*
X122341000Y-81407000D03*
G36*
G01*
X125691000Y-80682000D02*
X125691000Y-82132000D01*
G75*
G02*
X125441000Y-82382000I-250000J0D01*
G01*
X124241000Y-82382000D01*
G75*
G02*
X123991000Y-82132000I0J250000D01*
G01*
X123991000Y-80682000D01*
G75*
G02*
X124241000Y-80432000I250000J0D01*
G01*
X125441000Y-80432000D01*
G75*
G02*
X125691000Y-80682000I0J-250000D01*
G01*
G37*
X165006000Y-86360000D03*
X167506000Y-86360000D03*
X170006000Y-86360000D03*
X172506000Y-86360000D03*
G36*
G01*
X175856000Y-85635000D02*
X175856000Y-87085000D01*
G75*
G02*
X175606000Y-87335000I-250000J0D01*
G01*
X174406000Y-87335000D01*
G75*
G02*
X174156000Y-87085000I0J250000D01*
G01*
X174156000Y-85635000D01*
G75*
G02*
X174406000Y-85385000I250000J0D01*
G01*
X175606000Y-85385000D01*
G75*
G02*
X175856000Y-85635000I0J-250000D01*
G01*
G37*
X107790000Y-123190000D03*
X105290000Y-123190000D03*
X102790000Y-123190000D03*
X100290000Y-123190000D03*
G36*
G01*
X96940000Y-123915000D02*
X96940000Y-122465000D01*
G75*
G02*
X97190000Y-122215000I250000J0D01*
G01*
X98390000Y-122215000D01*
G75*
G02*
X98640000Y-122465000I0J-250000D01*
G01*
X98640000Y-123915000D01*
G75*
G02*
X98390000Y-124165000I-250000J0D01*
G01*
X97190000Y-124165000D01*
G75*
G02*
X96940000Y-123915000I0J250000D01*
G01*
G37*
D18*
X43688000Y-99100000D03*
G36*
G01*
X44438000Y-102450000D02*
X42938000Y-102450000D01*
G75*
G02*
X42688000Y-102200000I0J250000D01*
G01*
X42688000Y-101000000D01*
G75*
G02*
X42938000Y-100750000I250000J0D01*
G01*
X44438000Y-100750000D01*
G75*
G02*
X44688000Y-101000000I0J-250000D01*
G01*
X44688000Y-102200000D01*
G75*
G02*
X44438000Y-102450000I-250000J0D01*
G01*
G37*
D17*
X43688000Y-107896000D03*
X43688000Y-110396000D03*
X43688000Y-112896000D03*
X43688000Y-115396000D03*
X43688000Y-117896000D03*
G36*
G01*
X44413000Y-121246000D02*
X42963000Y-121246000D01*
G75*
G02*
X42713000Y-120996000I0J250000D01*
G01*
X42713000Y-119796000D01*
G75*
G02*
X42963000Y-119546000I250000J0D01*
G01*
X44413000Y-119546000D01*
G75*
G02*
X44663000Y-119796000I0J-250000D01*
G01*
X44663000Y-120996000D01*
G75*
G02*
X44413000Y-121246000I-250000J0D01*
G01*
G37*
X67310000Y-46990000D03*
X67310000Y-44490000D03*
X67310000Y-41990000D03*
G36*
G01*
X66585000Y-38640000D02*
X68035000Y-38640000D01*
G75*
G02*
X68285000Y-38890000I0J-250000D01*
G01*
X68285000Y-40090000D01*
G75*
G02*
X68035000Y-40340000I-250000J0D01*
G01*
X66585000Y-40340000D01*
G75*
G02*
X66335000Y-40090000I0J250000D01*
G01*
X66335000Y-38890000D01*
G75*
G02*
X66585000Y-38640000I250000J0D01*
G01*
G37*
D19*
X54610000Y-92710000D03*
X54610000Y-90170000D03*
X54610000Y-87630000D03*
X54610000Y-85090000D03*
X54610000Y-82550000D03*
X54610000Y-80010000D03*
X54610000Y-77470000D03*
X54610000Y-74930000D03*
D13*
X59690000Y-39370000D03*
D14*
X59690000Y-41910000D03*
D13*
X59690000Y-48260000D03*
D14*
X59690000Y-45720000D03*
D20*
X43000000Y-130000000D03*
D21*
X43000000Y-130000000D03*
D20*
X176000000Y-130000000D03*
D21*
X176000000Y-130000000D03*
D20*
X176000000Y-38000000D03*
D21*
X176000000Y-38000000D03*
D20*
X43000000Y-38000000D03*
D21*
X43000000Y-38000000D03*
D13*
X132969000Y-72263000D03*
D14*
X130429000Y-72263000D03*
D13*
X126619000Y-68453000D03*
D14*
X124079000Y-68453000D03*
D13*
X132969000Y-68453000D03*
D14*
X130429000Y-68453000D03*
D13*
X126619000Y-72263000D03*
D14*
X124079000Y-72263000D03*
D22*
X175768000Y-59690000D03*
X173228000Y-59690000D03*
D23*
X170688000Y-59690000D03*
D22*
X164084000Y-59563000D03*
X161544000Y-59563000D03*
D23*
X159004000Y-59563000D03*
D17*
X174244000Y-76802000D03*
X174244000Y-74302000D03*
X174244000Y-71802000D03*
X174244000Y-69302000D03*
G36*
G01*
X173519000Y-65952000D02*
X174969000Y-65952000D01*
G75*
G02*
X175219000Y-66202000I0J-250000D01*
G01*
X175219000Y-67402000D01*
G75*
G02*
X174969000Y-67652000I-250000J0D01*
G01*
X173519000Y-67652000D01*
G75*
G02*
X173269000Y-67402000I0J250000D01*
G01*
X173269000Y-66202000D01*
G75*
G02*
X173519000Y-65952000I250000J0D01*
G01*
G37*
X159131000Y-76802000D03*
X159131000Y-74302000D03*
X159131000Y-71802000D03*
X159131000Y-69302000D03*
G36*
G01*
X158406000Y-65952000D02*
X159856000Y-65952000D01*
G75*
G02*
X160106000Y-66202000I0J-250000D01*
G01*
X160106000Y-67402000D01*
G75*
G02*
X159856000Y-67652000I-250000J0D01*
G01*
X158406000Y-67652000D01*
G75*
G02*
X158156000Y-67402000I0J250000D01*
G01*
X158156000Y-66202000D01*
G75*
G02*
X158406000Y-65952000I250000J0D01*
G01*
G37*
X148971000Y-76802000D03*
X148971000Y-74302000D03*
X148971000Y-71802000D03*
X148971000Y-69302000D03*
G36*
G01*
X148246000Y-65952000D02*
X149696000Y-65952000D01*
G75*
G02*
X149946000Y-66202000I0J-250000D01*
G01*
X149946000Y-67402000D01*
G75*
G02*
X149696000Y-67652000I-250000J0D01*
G01*
X148246000Y-67652000D01*
G75*
G02*
X147996000Y-67402000I0J250000D01*
G01*
X147996000Y-66202000D01*
G75*
G02*
X148246000Y-65952000I250000J0D01*
G01*
G37*
D15*
X127381000Y-91567000D03*
X124881000Y-91567000D03*
X122381000Y-91567000D03*
G36*
G01*
X119031000Y-92292000D02*
X119031000Y-90842000D01*
G75*
G02*
X119281000Y-90592000I250000J0D01*
G01*
X120481000Y-90592000D01*
G75*
G02*
X120731000Y-90842000I0J-250000D01*
G01*
X120731000Y-92292000D01*
G75*
G02*
X120481000Y-92542000I-250000J0D01*
G01*
X119281000Y-92542000D01*
G75*
G02*
X119031000Y-92292000I0J250000D01*
G01*
G37*
X141993000Y-91567000D03*
X139493000Y-91567000D03*
X136993000Y-91567000D03*
G36*
G01*
X133643000Y-92292000D02*
X133643000Y-90842000D01*
G75*
G02*
X133893000Y-90592000I250000J0D01*
G01*
X135093000Y-90592000D01*
G75*
G02*
X135343000Y-90842000I0J-250000D01*
G01*
X135343000Y-92292000D01*
G75*
G02*
X135093000Y-92542000I-250000J0D01*
G01*
X133893000Y-92542000D01*
G75*
G02*
X133643000Y-92292000I0J250000D01*
G01*
G37*
D22*
X49530000Y-38100000D03*
X52070000Y-38100000D03*
D23*
X54610000Y-38100000D03*
D14*
X66040000Y-123190000D03*
X75689200Y-109270800D03*
X75689200Y-111810800D03*
X75689200Y-114350800D03*
X75689200Y-116890800D03*
D24*
X75689200Y-119430800D03*
D14*
X63500000Y-125730000D03*
X63500000Y-123190000D03*
X63500000Y-120650000D03*
X63500000Y-118110000D03*
X63500000Y-115570000D03*
X63500000Y-113030000D03*
X63500000Y-110490000D03*
X63500000Y-107950000D03*
X63500000Y-105410000D03*
X63500000Y-102870000D03*
X63500000Y-100330000D03*
X63500000Y-97790000D03*
X63500000Y-95250000D03*
X63500000Y-92710000D03*
D24*
X78740000Y-125730000D03*
D14*
X78740000Y-123190000D03*
X78740000Y-120650000D03*
X78740000Y-118110000D03*
X78740000Y-115570000D03*
X78740000Y-113030000D03*
X78740000Y-110490000D03*
X78740000Y-107950000D03*
X78740000Y-105410000D03*
X78740000Y-102870000D03*
X78740000Y-100330000D03*
X78740000Y-97790000D03*
X78740000Y-95250000D03*
X63500000Y-90170000D03*
X63500000Y-87630000D03*
X63500000Y-85090000D03*
X63500000Y-82550000D03*
X63500000Y-80010000D03*
X63500000Y-77470000D03*
X63500000Y-74930000D03*
X63500000Y-72390000D03*
X63500000Y-69850000D03*
X63500000Y-67310000D03*
X78740000Y-67310000D03*
X78740000Y-69850000D03*
X78740000Y-72390000D03*
X78740000Y-74930000D03*
X78740000Y-92710000D03*
X78740000Y-90170000D03*
X78740000Y-87630000D03*
X78740000Y-77470000D03*
X78740000Y-80010000D03*
X78740000Y-82550000D03*
X78740000Y-85090000D03*
D25*
X65938400Y-112760000D03*
D26*
X65938400Y-110760000D03*
X67938400Y-112760000D03*
X67938400Y-110760000D03*
X69938400Y-110760000D03*
X69938400Y-112760000D03*
D14*
X76200000Y-80010000D03*
X73660000Y-80010000D03*
X71120000Y-80010000D03*
X68580000Y-80010000D03*
X66040000Y-80010000D03*
D26*
X72390000Y-125000000D03*
X69850000Y-125000000D03*
D15*
X164677000Y-97907600D03*
X167177000Y-97907600D03*
X169677000Y-97907600D03*
X172177000Y-97907600D03*
G36*
G01*
X175527000Y-97182600D02*
X175527000Y-98632600D01*
G75*
G02*
X175277000Y-98882600I-250000J0D01*
G01*
X174077000Y-98882600D01*
G75*
G02*
X173827000Y-98632600I0J250000D01*
G01*
X173827000Y-97182600D01*
G75*
G02*
X174077000Y-96932600I250000J0D01*
G01*
X175277000Y-96932600D01*
G75*
G02*
X175527000Y-97182600I0J-250000D01*
G01*
G37*
D17*
X91070000Y-46990000D03*
X91070000Y-44490000D03*
X91070000Y-41990000D03*
G36*
G01*
X90345000Y-38640000D02*
X91795000Y-38640000D01*
G75*
G02*
X92045000Y-38890000I0J-250000D01*
G01*
X92045000Y-40090000D01*
G75*
G02*
X91795000Y-40340000I-250000J0D01*
G01*
X90345000Y-40340000D01*
G75*
G02*
X90095000Y-40090000I0J250000D01*
G01*
X90095000Y-38890000D01*
G75*
G02*
X90345000Y-38640000I250000J0D01*
G01*
G37*
D15*
X100156000Y-58547000D03*
X102656000Y-58547000D03*
G36*
G01*
X106006000Y-57822000D02*
X106006000Y-59272000D01*
G75*
G02*
X105756000Y-59522000I-250000J0D01*
G01*
X104556000Y-59522000D01*
G75*
G02*
X104306000Y-59272000I0J250000D01*
G01*
X104306000Y-57822000D01*
G75*
G02*
X104556000Y-57572000I250000J0D01*
G01*
X105756000Y-57572000D01*
G75*
G02*
X106006000Y-57822000I0J-250000D01*
G01*
G37*
D12*
X88479000Y-123063000D03*
G36*
G01*
X85129000Y-123813000D02*
X85129000Y-122313000D01*
G75*
G02*
X85379000Y-122063000I250000J0D01*
G01*
X86579000Y-122063000D01*
G75*
G02*
X86829000Y-122313000I0J-250000D01*
G01*
X86829000Y-123813000D01*
G75*
G02*
X86579000Y-124063000I-250000J0D01*
G01*
X85379000Y-124063000D01*
G75*
G02*
X85129000Y-123813000I0J250000D01*
G01*
G37*
D15*
X137461000Y-80645000D03*
X134961000Y-80645000D03*
G36*
G01*
X131611000Y-81370000D02*
X131611000Y-79920000D01*
G75*
G02*
X131861000Y-79670000I250000J0D01*
G01*
X133061000Y-79670000D01*
G75*
G02*
X133311000Y-79920000I0J-250000D01*
G01*
X133311000Y-81370000D01*
G75*
G02*
X133061000Y-81620000I-250000J0D01*
G01*
X131861000Y-81620000D01*
G75*
G02*
X131611000Y-81370000I0J250000D01*
G01*
G37*
X87456000Y-58547000D03*
X89956000Y-58547000D03*
G36*
G01*
X93306000Y-57822000D02*
X93306000Y-59272000D01*
G75*
G02*
X93056000Y-59522000I-250000J0D01*
G01*
X91856000Y-59522000D01*
G75*
G02*
X91606000Y-59272000I0J250000D01*
G01*
X91606000Y-57822000D01*
G75*
G02*
X91856000Y-57572000I250000J0D01*
G01*
X93056000Y-57572000D01*
G75*
G02*
X93306000Y-57822000I0J-250000D01*
G01*
G37*
D17*
X123786000Y-47249000D03*
X123786000Y-44749000D03*
X123786000Y-42249000D03*
G36*
G01*
X123061000Y-38899000D02*
X124511000Y-38899000D01*
G75*
G02*
X124761000Y-39149000I0J-250000D01*
G01*
X124761000Y-40349000D01*
G75*
G02*
X124511000Y-40599000I-250000J0D01*
G01*
X123061000Y-40599000D01*
G75*
G02*
X122811000Y-40349000I0J250000D01*
G01*
X122811000Y-39149000D01*
G75*
G02*
X123061000Y-38899000I250000J0D01*
G01*
G37*
X113976000Y-47159000D03*
X113976000Y-44659000D03*
X113976000Y-42159000D03*
G36*
G01*
X113251000Y-38809000D02*
X114701000Y-38809000D01*
G75*
G02*
X114951000Y-39059000I0J-250000D01*
G01*
X114951000Y-40259000D01*
G75*
G02*
X114701000Y-40509000I-250000J0D01*
G01*
X113251000Y-40509000D01*
G75*
G02*
X113001000Y-40259000I0J250000D01*
G01*
X113001000Y-39059000D01*
G75*
G02*
X113251000Y-38809000I250000J0D01*
G01*
G37*
D15*
X131398000Y-58420000D03*
X133898000Y-58420000D03*
G36*
G01*
X137248000Y-57695000D02*
X137248000Y-59145000D01*
G75*
G02*
X136998000Y-59395000I-250000J0D01*
G01*
X135798000Y-59395000D01*
G75*
G02*
X135548000Y-59145000I0J250000D01*
G01*
X135548000Y-57695000D01*
G75*
G02*
X135798000Y-57445000I250000J0D01*
G01*
X136998000Y-57445000D01*
G75*
G02*
X137248000Y-57695000I0J-250000D01*
G01*
G37*
X115146000Y-58450000D03*
X117646000Y-58450000D03*
X120146000Y-58450000D03*
G36*
G01*
X123496000Y-57725000D02*
X123496000Y-59175000D01*
G75*
G02*
X123246000Y-59425000I-250000J0D01*
G01*
X122046000Y-59425000D01*
G75*
G02*
X121796000Y-59175000I0J250000D01*
G01*
X121796000Y-57725000D01*
G75*
G02*
X122046000Y-57475000I250000J0D01*
G01*
X123246000Y-57475000D01*
G75*
G02*
X123496000Y-57725000I0J-250000D01*
G01*
G37*
D17*
X81890000Y-46990000D03*
X81890000Y-44490000D03*
X81890000Y-41990000D03*
G36*
G01*
X81165000Y-38640000D02*
X82615000Y-38640000D01*
G75*
G02*
X82865000Y-38890000I0J-250000D01*
G01*
X82865000Y-40090000D01*
G75*
G02*
X82615000Y-40340000I-250000J0D01*
G01*
X81165000Y-40340000D01*
G75*
G02*
X80915000Y-40090000I0J250000D01*
G01*
X80915000Y-38890000D01*
G75*
G02*
X81165000Y-38640000I250000J0D01*
G01*
G37*
X100330000Y-46990000D03*
X100330000Y-44490000D03*
X100330000Y-41990000D03*
G36*
G01*
X99605000Y-38640000D02*
X101055000Y-38640000D01*
G75*
G02*
X101305000Y-38890000I0J-250000D01*
G01*
X101305000Y-40090000D01*
G75*
G02*
X101055000Y-40340000I-250000J0D01*
G01*
X99605000Y-40340000D01*
G75*
G02*
X99355000Y-40090000I0J250000D01*
G01*
X99355000Y-38890000D01*
G75*
G02*
X99605000Y-38640000I250000J0D01*
G01*
G37*
D13*
X74930000Y-41910000D03*
D14*
X74930000Y-39370000D03*
D13*
X74930000Y-48260000D03*
D14*
X74930000Y-45720000D03*
D11*
X44990000Y-61880000D03*
D10*
X44990000Y-56800000D03*
D11*
X44890000Y-50590000D03*
D10*
X44890000Y-45510000D03*
D27*
X52370000Y-67310000D03*
D28*
X52370000Y-57150000D03*
D27*
X52370000Y-52832000D03*
D28*
X52370000Y-42672000D03*
D29*
X55880000Y-130810000D03*
D30*
X55880000Y-128270000D03*
D13*
X55880000Y-124460000D03*
D14*
X55880000Y-121920000D03*
D13*
X69151000Y-54358000D03*
D14*
X69151000Y-56898000D03*
D13*
X64361000Y-54448000D03*
D14*
X64361000Y-56988000D03*
D13*
X74391000Y-54358000D03*
D14*
X74391000Y-56898000D03*
D13*
X79101000Y-54448000D03*
D14*
X79101000Y-56988000D03*
D16*
X170180000Y-43200360D03*
X170180000Y-50800040D03*
M02*
