%FSLAX45Y45*%
G04 Gerber Fmt 4.5, Leading zero omitted, Abs format (unit mm)*
G04 Created by KiCad (PCBNEW (5.1.9)-1) date 2021-07-22 20:14:04*
%MOMM*%
%LPD*%
G01*
G04 APERTURE LIST*
%TA.AperFunction,Profile*%
%ADD10C,0.050000*%
%TD*%
%ADD11C,0.200000*%
%ADD12C,0.300000*%
G04 APERTURE END LIST*
D10*
X3810000Y-3400000D02*
X18000000Y-3400000D01*
X18000000Y-13400000D02*
X18000000Y-3400000D01*
X3810000Y-13400000D02*
X18000000Y-13400000D01*
X3810000Y-3400000D02*
X3810000Y-13400000D01*
D11*
X8159620Y-11586960D02*
X8199620Y-11626960D01*
X8199620Y-11586960D02*
X8159620Y-11626960D01*
X8259650Y-11573900D02*
X8299650Y-11613900D01*
X8299650Y-11573900D02*
X8259650Y-11613900D01*
X10302190Y-11706260D02*
X10342190Y-11746260D01*
X10342190Y-11706260D02*
X10302190Y-11746260D01*
X10377870Y-11561160D02*
X10417870Y-11601160D01*
X10417870Y-11561160D02*
X10377870Y-11601160D01*
X11088380Y-6711000D02*
X11128380Y-6751000D01*
X11128380Y-6711000D02*
X11088380Y-6751000D01*
X11241670Y-6761140D02*
X11281670Y-6801140D01*
X11281670Y-6761140D02*
X11241670Y-6801140D01*
X11803350Y-8246790D02*
X11843350Y-8286790D01*
X11843350Y-8246790D02*
X11803350Y-8286790D01*
X11930630Y-8379410D02*
X11970630Y-8419410D01*
X11970630Y-8379410D02*
X11930630Y-8419410D01*
X12318280Y-8671590D02*
X12358280Y-8711590D01*
X12358280Y-8671590D02*
X12318280Y-8711590D01*
X12511420Y-8314140D02*
X12551420Y-8354140D01*
X12551420Y-8314140D02*
X12511420Y-8354140D01*
X12670080Y-9495470D02*
X12710080Y-9535470D01*
X12710080Y-9495470D02*
X12670080Y-9535470D01*
X13573380Y-9651180D02*
X13613380Y-9691180D01*
X13613380Y-9651180D02*
X13573380Y-9691180D01*
X13676660Y-9655040D02*
X13716660Y-9695040D01*
X13716660Y-9655040D02*
X13676660Y-9695040D01*
X13734470Y-9794000D02*
X13774470Y-9834000D01*
X13774470Y-9794000D02*
X13734470Y-9834000D01*
X14092190Y-9578640D02*
X14132190Y-9618640D01*
X14132190Y-9578640D02*
X14092190Y-9618640D01*
X14145610Y-9418450D02*
X14185610Y-9458450D01*
X14185610Y-9418450D02*
X14145610Y-9458450D01*
X5499100Y-7493000D02*
G75*
G03*
X5499100Y-7493000I-38100J0D01*
G01*
X5499100Y-7747000D02*
G75*
G03*
X5499100Y-7747000I-38100J0D01*
G01*
X5499100Y-8001000D02*
G75*
G03*
X5499100Y-8001000I-38100J0D01*
G01*
X5499100Y-8255000D02*
G75*
G03*
X5499100Y-8255000I-38100J0D01*
G01*
X5499100Y-8509000D02*
G75*
G03*
X5499100Y-8509000I-38100J0D01*
G01*
X5499100Y-8763000D02*
G75*
G03*
X5499100Y-8763000I-38100J0D01*
G01*
X5499100Y-9017000D02*
G75*
G03*
X5499100Y-9017000I-38100J0D01*
G01*
X5499100Y-9271000D02*
G75*
G03*
X5499100Y-9271000I-38100J0D01*
G01*
X5588000Y-12152000D02*
X5588000Y-12232000D01*
X5548000Y-12192000D02*
X5628000Y-12192000D01*
X5588000Y-12406000D02*
X5588000Y-12486000D01*
X5548000Y-12446000D02*
X5628000Y-12446000D01*
X5969000Y-3897000D02*
X5969000Y-3977000D01*
X5929000Y-3937000D02*
X6009000Y-3937000D01*
X5969000Y-4151000D02*
X5969000Y-4231000D01*
X5929000Y-4191000D02*
X6009000Y-4191000D01*
X5969000Y-4532000D02*
X5969000Y-4612000D01*
X5929000Y-4572000D02*
X6009000Y-4572000D01*
X5969000Y-4786000D02*
X5969000Y-4866000D01*
X5929000Y-4826000D02*
X6009000Y-4826000D01*
X6436100Y-5404800D02*
X6436100Y-5484800D01*
X6396100Y-5444800D02*
X6476100Y-5444800D01*
X6436100Y-5658800D02*
X6436100Y-5738800D01*
X6396100Y-5698800D02*
X6476100Y-5698800D01*
X6593840Y-11036000D02*
X6593840Y-11116000D01*
X6553840Y-11076000D02*
X6633840Y-11076000D01*
X6593840Y-11236000D02*
X6593840Y-11316000D01*
X6553840Y-11276000D02*
X6633840Y-11276000D01*
X6793840Y-11036000D02*
X6793840Y-11116000D01*
X6753840Y-11076000D02*
X6833840Y-11076000D01*
X6793840Y-11236000D02*
X6793840Y-11316000D01*
X6753840Y-11276000D02*
X6833840Y-11276000D01*
X6915100Y-5395800D02*
X6915100Y-5475800D01*
X6875100Y-5435800D02*
X6955100Y-5435800D01*
X6915100Y-5649800D02*
X6915100Y-5729800D01*
X6875100Y-5689800D02*
X6955100Y-5689800D01*
X6985000Y-12460000D02*
X6985000Y-12540000D01*
X6945000Y-12500000D02*
X7025000Y-12500000D01*
X6993840Y-11036000D02*
X6993840Y-11116000D01*
X6953840Y-11076000D02*
X7033840Y-11076000D01*
X6993840Y-11236000D02*
X6993840Y-11316000D01*
X6953840Y-11276000D02*
X7033840Y-11276000D01*
X7239000Y-12460000D02*
X7239000Y-12540000D01*
X7199000Y-12500000D02*
X7279000Y-12500000D01*
X7439100Y-5395800D02*
X7439100Y-5475800D01*
X7399100Y-5435800D02*
X7479100Y-5435800D01*
X7439100Y-5649800D02*
X7439100Y-5729800D01*
X7399100Y-5689800D02*
X7479100Y-5689800D01*
X7493000Y-3897000D02*
X7493000Y-3977000D01*
X7453000Y-3937000D02*
X7533000Y-3937000D01*
X7493000Y-4151000D02*
X7493000Y-4231000D01*
X7453000Y-4191000D02*
X7533000Y-4191000D01*
X7493000Y-4532000D02*
X7493000Y-4612000D01*
X7453000Y-4572000D02*
X7533000Y-4572000D01*
X7493000Y-4786000D02*
X7493000Y-4866000D01*
X7453000Y-4826000D02*
X7533000Y-4826000D01*
X7910100Y-5404800D02*
X7910100Y-5484800D01*
X7870100Y-5444800D02*
X7950100Y-5444800D01*
X7910100Y-5658800D02*
X7910100Y-5738800D01*
X7870100Y-5698800D02*
X7950100Y-5698800D01*
X8636000Y-7275200D02*
X8636000Y-7355200D01*
X8596000Y-7315200D02*
X8676000Y-7315200D01*
X8636000Y-7529200D02*
X8636000Y-7609200D01*
X8596000Y-7569200D02*
X8676000Y-7569200D01*
X8636000Y-7783200D02*
X8636000Y-7863200D01*
X8596000Y-7823200D02*
X8676000Y-7823200D01*
X8636000Y-8037200D02*
X8636000Y-8117200D01*
X8596000Y-8077200D02*
X8676000Y-8077200D01*
X8636000Y-8291200D02*
X8636000Y-8371200D01*
X8596000Y-8331200D02*
X8676000Y-8331200D01*
X8636000Y-8545200D02*
X8636000Y-8625200D01*
X8596000Y-8585200D02*
X8676000Y-8585200D01*
X8636000Y-8799200D02*
X8636000Y-8879200D01*
X8596000Y-8839200D02*
X8676000Y-8839200D01*
X8636000Y-9053200D02*
X8636000Y-9133200D01*
X8596000Y-9093200D02*
X8676000Y-9093200D01*
X8636000Y-9307200D02*
X8636000Y-9387200D01*
X8596000Y-9347200D02*
X8676000Y-9347200D01*
X8636000Y-9561200D02*
X8636000Y-9641200D01*
X8596000Y-9601200D02*
X8676000Y-9601200D01*
X8636000Y-9815200D02*
X8636000Y-9895200D01*
X8596000Y-9855200D02*
X8676000Y-9855200D01*
X8636000Y-10069200D02*
X8636000Y-10149200D01*
X8596000Y-10109200D02*
X8676000Y-10109200D01*
X8636000Y-10323200D02*
X8636000Y-10403200D01*
X8596000Y-10363200D02*
X8676000Y-10363200D01*
X8636000Y-10577200D02*
X8636000Y-10657200D01*
X8596000Y-10617200D02*
X8676000Y-10617200D01*
X8636000Y-10831200D02*
X8636000Y-10911200D01*
X8596000Y-10871200D02*
X8676000Y-10871200D01*
X11176000Y-7275200D02*
X11176000Y-7355200D01*
X11136000Y-7315200D02*
X11216000Y-7315200D01*
X11176000Y-7529200D02*
X11176000Y-7609200D01*
X11136000Y-7569200D02*
X11216000Y-7569200D01*
X11176000Y-7783200D02*
X11176000Y-7863200D01*
X11136000Y-7823200D02*
X11216000Y-7823200D01*
X11176000Y-8037200D02*
X11176000Y-8117200D01*
X11136000Y-8077200D02*
X11216000Y-8077200D01*
X11176000Y-8291200D02*
X11176000Y-8371200D01*
X11136000Y-8331200D02*
X11216000Y-8331200D01*
X11176000Y-8545200D02*
X11176000Y-8625200D01*
X11136000Y-8585200D02*
X11216000Y-8585200D01*
X11176000Y-8799200D02*
X11176000Y-8879200D01*
X11136000Y-8839200D02*
X11216000Y-8839200D01*
X11176000Y-9053200D02*
X11176000Y-9133200D01*
X11136000Y-9093200D02*
X11216000Y-9093200D01*
X11176000Y-9307200D02*
X11176000Y-9387200D01*
X11136000Y-9347200D02*
X11216000Y-9347200D01*
X11176000Y-9561200D02*
X11176000Y-9641200D01*
X11136000Y-9601200D02*
X11216000Y-9601200D01*
X11176000Y-9815200D02*
X11176000Y-9895200D01*
X11136000Y-9855200D02*
X11216000Y-9855200D01*
X11176000Y-10069200D02*
X11176000Y-10149200D01*
X11136000Y-10109200D02*
X11216000Y-10109200D01*
X11176000Y-10323200D02*
X11176000Y-10403200D01*
X11136000Y-10363200D02*
X11216000Y-10363200D01*
X11176000Y-10577200D02*
X11176000Y-10657200D01*
X11136000Y-10617200D02*
X11216000Y-10617200D01*
X11176000Y-10831200D02*
X11176000Y-10911200D01*
X11136000Y-10871200D02*
X11216000Y-10871200D01*
X12407900Y-6805300D02*
X12407900Y-6885300D01*
X12367900Y-6845300D02*
X12447900Y-6845300D01*
X12407900Y-7186300D02*
X12407900Y-7266300D01*
X12367900Y-7226300D02*
X12447900Y-7226300D01*
X12661900Y-6805300D02*
X12661900Y-6885300D01*
X12621900Y-6845300D02*
X12701900Y-6845300D01*
X12661900Y-7186300D02*
X12661900Y-7266300D01*
X12621900Y-7226300D02*
X12701900Y-7226300D01*
X13042900Y-6805300D02*
X13042900Y-6885300D01*
X13002900Y-6845300D02*
X13082900Y-6845300D01*
X13042900Y-7186300D02*
X13042900Y-7266300D01*
X13002900Y-7226300D02*
X13082900Y-7226300D01*
X13296900Y-6805300D02*
X13296900Y-6885300D01*
X13256900Y-6845300D02*
X13336900Y-6845300D01*
X13296900Y-7186300D02*
X13296900Y-7266300D01*
X13256900Y-7226300D02*
X13336900Y-7226300D01*
X13766800Y-11707500D02*
X13766800Y-11787500D01*
X13726800Y-11747500D02*
X13806800Y-11747500D01*
X14020800Y-11707500D02*
X14020800Y-11787500D01*
X13980800Y-11747500D02*
X14060800Y-11747500D01*
X14389100Y-11707500D02*
X14389100Y-11787500D01*
X14349100Y-11747500D02*
X14429100Y-11747500D01*
X14643100Y-11707500D02*
X14643100Y-11787500D01*
X14603100Y-11747500D02*
X14683100Y-11747500D01*
X16637000Y-10628000D02*
X16637000Y-10708000D01*
X16597000Y-10668000D02*
X16677000Y-10668000D01*
X16637000Y-11263000D02*
X16637000Y-11343000D01*
X16597000Y-11303000D02*
X16677000Y-11303000D01*
X16891000Y-10628000D02*
X16891000Y-10708000D01*
X16851000Y-10668000D02*
X16931000Y-10668000D01*
X16891000Y-11263000D02*
X16891000Y-11343000D01*
X16851000Y-11303000D02*
X16931000Y-11303000D01*
X17272000Y-10628000D02*
X17272000Y-10708000D01*
X17232000Y-10668000D02*
X17312000Y-10668000D01*
X17272000Y-11263000D02*
X17272000Y-11343000D01*
X17232000Y-11303000D02*
X17312000Y-11303000D01*
X17526000Y-10628000D02*
X17526000Y-10708000D01*
X17486000Y-10668000D02*
X17566000Y-10668000D01*
X17526000Y-11263000D02*
X17526000Y-11343000D01*
X17486000Y-11303000D02*
X17566000Y-11303000D01*
X5619820Y-12858820D02*
X5619820Y-12795180D01*
X5556180Y-12795180D01*
X5556180Y-12858820D01*
X5619820Y-12858820D01*
X5619820Y-13112820D02*
X5619820Y-13049180D01*
X5556180Y-13049180D01*
X5556180Y-13112820D01*
X5619820Y-13112820D01*
X4368800Y-10837100D02*
X4416300Y-10789600D01*
X4368800Y-10742100D01*
X4321300Y-10789600D01*
X4368800Y-10837100D01*
X4368800Y-11087100D02*
X4416300Y-11039600D01*
X4368800Y-10992100D01*
X4321300Y-11039600D01*
X4368800Y-11087100D01*
X4368800Y-11337100D02*
X4416300Y-11289600D01*
X4368800Y-11242100D01*
X4321300Y-11289600D01*
X4368800Y-11337100D01*
X4368800Y-11587100D02*
X4416300Y-11539600D01*
X4368800Y-11492100D01*
X4321300Y-11539600D01*
X4368800Y-11587100D01*
X4368800Y-11837100D02*
X4416300Y-11789600D01*
X4368800Y-11742100D01*
X4321300Y-11789600D01*
X4368800Y-11837100D01*
X4368800Y-12087100D02*
X4416300Y-12039600D01*
X4368800Y-11992100D01*
X4321300Y-12039600D01*
X4368800Y-12087100D01*
X6731000Y-3996500D02*
X6778500Y-3949000D01*
X6731000Y-3901500D01*
X6683500Y-3949000D01*
X6731000Y-3996500D01*
X6731000Y-4246500D02*
X6778500Y-4199000D01*
X6731000Y-4151500D01*
X6683500Y-4199000D01*
X6731000Y-4246500D01*
X6731000Y-4496500D02*
X6778500Y-4449000D01*
X6731000Y-4401500D01*
X6683500Y-4449000D01*
X6731000Y-4496500D01*
X6731000Y-4746500D02*
X6778500Y-4699000D01*
X6731000Y-4651500D01*
X6683500Y-4699000D01*
X6731000Y-4746500D01*
X8189000Y-3996500D02*
X8236500Y-3949000D01*
X8189000Y-3901500D01*
X8141500Y-3949000D01*
X8189000Y-3996500D01*
X8189000Y-4246500D02*
X8236500Y-4199000D01*
X8189000Y-4151500D01*
X8141500Y-4199000D01*
X8189000Y-4246500D01*
X8189000Y-4496500D02*
X8236500Y-4449000D01*
X8189000Y-4401500D01*
X8141500Y-4449000D01*
X8189000Y-4496500D01*
X8189000Y-4746500D02*
X8236500Y-4699000D01*
X8189000Y-4651500D01*
X8141500Y-4699000D01*
X8189000Y-4746500D01*
X8745600Y-5902200D02*
X8793100Y-5854700D01*
X8745600Y-5807200D01*
X8698100Y-5854700D01*
X8745600Y-5902200D01*
X8995600Y-5902200D02*
X9043100Y-5854700D01*
X8995600Y-5807200D01*
X8948100Y-5854700D01*
X8995600Y-5902200D01*
X9107000Y-3996500D02*
X9154500Y-3949000D01*
X9107000Y-3901500D01*
X9059500Y-3949000D01*
X9107000Y-3996500D01*
X9107000Y-4246500D02*
X9154500Y-4199000D01*
X9107000Y-4151500D01*
X9059500Y-4199000D01*
X9107000Y-4246500D01*
X9107000Y-4496500D02*
X9154500Y-4449000D01*
X9107000Y-4401500D01*
X9059500Y-4449000D01*
X9107000Y-4496500D01*
X9107000Y-4746500D02*
X9154500Y-4699000D01*
X9107000Y-4651500D01*
X9059500Y-4699000D01*
X9107000Y-4746500D01*
X9245600Y-5902200D02*
X9293100Y-5854700D01*
X9245600Y-5807200D01*
X9198100Y-5854700D01*
X9245600Y-5902200D01*
X9779000Y-12366500D02*
X9826500Y-12319000D01*
X9779000Y-12271500D01*
X9731500Y-12319000D01*
X9779000Y-12366500D01*
X10015600Y-5902200D02*
X10063100Y-5854700D01*
X10015600Y-5807200D01*
X9968100Y-5854700D01*
X10015600Y-5902200D01*
X10029000Y-12366500D02*
X10076500Y-12319000D01*
X10029000Y-12271500D01*
X9981500Y-12319000D01*
X10029000Y-12366500D01*
X10033000Y-3996500D02*
X10080500Y-3949000D01*
X10033000Y-3901500D01*
X9985500Y-3949000D01*
X10033000Y-3996500D01*
X10033000Y-4246500D02*
X10080500Y-4199000D01*
X10033000Y-4151500D01*
X9985500Y-4199000D01*
X10033000Y-4246500D01*
X10033000Y-4496500D02*
X10080500Y-4449000D01*
X10033000Y-4401500D01*
X9985500Y-4449000D01*
X10033000Y-4496500D01*
X10033000Y-4746500D02*
X10080500Y-4699000D01*
X10033000Y-4651500D01*
X9985500Y-4699000D01*
X10033000Y-4746500D01*
X10265600Y-5902200D02*
X10313100Y-5854700D01*
X10265600Y-5807200D01*
X10218100Y-5854700D01*
X10265600Y-5902200D01*
X10279000Y-12366500D02*
X10326500Y-12319000D01*
X10279000Y-12271500D01*
X10231500Y-12319000D01*
X10279000Y-12366500D01*
X10515600Y-5902200D02*
X10563100Y-5854700D01*
X10515600Y-5807200D01*
X10468100Y-5854700D01*
X10515600Y-5902200D01*
X10529000Y-12366500D02*
X10576500Y-12319000D01*
X10529000Y-12271500D01*
X10481500Y-12319000D01*
X10529000Y-12366500D01*
X10779000Y-12366500D02*
X10826500Y-12319000D01*
X10779000Y-12271500D01*
X10731500Y-12319000D01*
X10779000Y-12366500D01*
X11397600Y-4013400D02*
X11445100Y-3965900D01*
X11397600Y-3918400D01*
X11350100Y-3965900D01*
X11397600Y-4013400D01*
X11397600Y-4263400D02*
X11445100Y-4215900D01*
X11397600Y-4168400D01*
X11350100Y-4215900D01*
X11397600Y-4263400D01*
X11397600Y-4513400D02*
X11445100Y-4465900D01*
X11397600Y-4418400D01*
X11350100Y-4465900D01*
X11397600Y-4513400D01*
X11397600Y-4763400D02*
X11445100Y-4715900D01*
X11397600Y-4668400D01*
X11350100Y-4715900D01*
X11397600Y-4763400D01*
X11514600Y-5892500D02*
X11562100Y-5845000D01*
X11514600Y-5797500D01*
X11467100Y-5845000D01*
X11514600Y-5892500D01*
X11764600Y-5892500D02*
X11812100Y-5845000D01*
X11764600Y-5797500D01*
X11717100Y-5845000D01*
X11764600Y-5892500D01*
X11984100Y-8188200D02*
X12031600Y-8140700D01*
X11984100Y-8093200D01*
X11936600Y-8140700D01*
X11984100Y-8188200D01*
X11988100Y-9204200D02*
X12035600Y-9156700D01*
X11988100Y-9109200D01*
X11940600Y-9156700D01*
X11988100Y-9204200D01*
X12014600Y-5892500D02*
X12062100Y-5845000D01*
X12014600Y-5797500D01*
X11967100Y-5845000D01*
X12014600Y-5892500D01*
X12065000Y-11731500D02*
X12112500Y-11684000D01*
X12065000Y-11636500D01*
X12017500Y-11684000D01*
X12065000Y-11731500D01*
X12065000Y-12747500D02*
X12112500Y-12700000D01*
X12065000Y-12652500D01*
X12017500Y-12700000D01*
X12065000Y-12747500D01*
X12204000Y-10842500D02*
X12251500Y-10795000D01*
X12204000Y-10747500D01*
X12156500Y-10795000D01*
X12204000Y-10842500D01*
X12234100Y-8188200D02*
X12281600Y-8140700D01*
X12234100Y-8093200D01*
X12186600Y-8140700D01*
X12234100Y-8188200D01*
X12238100Y-9204200D02*
X12285600Y-9156700D01*
X12238100Y-9109200D01*
X12190600Y-9156700D01*
X12238100Y-9204200D01*
X12264600Y-5892500D02*
X12312100Y-5845000D01*
X12264600Y-5797500D01*
X12217100Y-5845000D01*
X12264600Y-5892500D01*
X12315000Y-11731500D02*
X12362500Y-11684000D01*
X12315000Y-11636500D01*
X12267500Y-11684000D01*
X12315000Y-11731500D01*
X12315000Y-12747500D02*
X12362500Y-12700000D01*
X12315000Y-12652500D01*
X12267500Y-12700000D01*
X12315000Y-12747500D01*
X12378600Y-4022400D02*
X12426100Y-3974900D01*
X12378600Y-3927400D01*
X12331100Y-3974900D01*
X12378600Y-4022400D01*
X12378600Y-4272400D02*
X12426100Y-4224900D01*
X12378600Y-4177400D01*
X12331100Y-4224900D01*
X12378600Y-4272400D01*
X12378600Y-4522400D02*
X12426100Y-4474900D01*
X12378600Y-4427400D01*
X12331100Y-4474900D01*
X12378600Y-4522400D01*
X12378600Y-4772400D02*
X12426100Y-4724900D01*
X12378600Y-4677400D01*
X12331100Y-4724900D01*
X12378600Y-4772400D01*
X12454000Y-10842500D02*
X12501500Y-10795000D01*
X12454000Y-10747500D01*
X12406500Y-10795000D01*
X12454000Y-10842500D01*
X12484100Y-8188200D02*
X12531600Y-8140700D01*
X12484100Y-8093200D01*
X12436600Y-8140700D01*
X12484100Y-8188200D01*
X12488100Y-9204200D02*
X12535600Y-9156700D01*
X12488100Y-9109200D01*
X12440600Y-9156700D01*
X12488100Y-9204200D01*
X12565000Y-11731500D02*
X12612500Y-11684000D01*
X12565000Y-11636500D01*
X12517500Y-11684000D01*
X12565000Y-11731500D01*
X12565000Y-12747500D02*
X12612500Y-12700000D01*
X12565000Y-12652500D01*
X12517500Y-12700000D01*
X12565000Y-12747500D01*
X12704000Y-10842500D02*
X12751500Y-10795000D01*
X12704000Y-10747500D01*
X12656500Y-10795000D01*
X12704000Y-10842500D01*
X12738100Y-9204200D02*
X12785600Y-9156700D01*
X12738100Y-9109200D01*
X12690600Y-9156700D01*
X12738100Y-9204200D01*
X12815000Y-11731500D02*
X12862500Y-11684000D01*
X12815000Y-11636500D01*
X12767500Y-11684000D01*
X12815000Y-11731500D01*
X12815000Y-12747500D02*
X12862500Y-12700000D01*
X12815000Y-12652500D01*
X12767500Y-12700000D01*
X12815000Y-12747500D01*
X12954000Y-10842500D02*
X13001500Y-10795000D01*
X12954000Y-10747500D01*
X12906500Y-10795000D01*
X12954000Y-10842500D01*
X13065000Y-11731500D02*
X13112500Y-11684000D01*
X13065000Y-11636500D01*
X13017500Y-11684000D01*
X13065000Y-11731500D01*
X13065000Y-12747500D02*
X13112500Y-12700000D01*
X13065000Y-12652500D01*
X13017500Y-12700000D01*
X13065000Y-12747500D01*
X13139800Y-5889500D02*
X13187300Y-5842000D01*
X13139800Y-5794500D01*
X13092300Y-5842000D01*
X13139800Y-5889500D01*
X13246100Y-8112000D02*
X13293600Y-8064500D01*
X13246100Y-8017000D01*
X13198600Y-8064500D01*
X13246100Y-8112000D01*
X13389800Y-5889500D02*
X13437300Y-5842000D01*
X13389800Y-5794500D01*
X13342300Y-5842000D01*
X13389800Y-5889500D01*
X13449300Y-9204200D02*
X13496800Y-9156700D01*
X13449300Y-9109200D01*
X13401800Y-9156700D01*
X13449300Y-9204200D01*
X13496100Y-8112000D02*
X13543600Y-8064500D01*
X13496100Y-8017000D01*
X13448600Y-8064500D01*
X13496100Y-8112000D01*
X13639800Y-5889500D02*
X13687300Y-5842000D01*
X13639800Y-5794500D01*
X13592300Y-5842000D01*
X13639800Y-5889500D01*
X13699300Y-9204200D02*
X13746800Y-9156700D01*
X13699300Y-9109200D01*
X13651800Y-9156700D01*
X13699300Y-9204200D01*
X13746100Y-8112000D02*
X13793600Y-8064500D01*
X13746100Y-8017000D01*
X13698600Y-8064500D01*
X13746100Y-8112000D01*
X13851000Y-12747500D02*
X13898500Y-12700000D01*
X13851000Y-12652500D01*
X13803500Y-12700000D01*
X13851000Y-12747500D01*
X13855000Y-10842500D02*
X13902500Y-10795000D01*
X13855000Y-10747500D01*
X13807500Y-10795000D01*
X13855000Y-10842500D01*
X13949300Y-9204200D02*
X13996800Y-9156700D01*
X13949300Y-9109200D01*
X13901800Y-9156700D01*
X13949300Y-9204200D01*
X14101000Y-12747500D02*
X14148500Y-12700000D01*
X14101000Y-12652500D01*
X14053500Y-12700000D01*
X14101000Y-12747500D01*
X14105000Y-10842500D02*
X14152500Y-10795000D01*
X14105000Y-10747500D01*
X14057500Y-10795000D01*
X14105000Y-10842500D01*
X14199300Y-9204200D02*
X14246800Y-9156700D01*
X14199300Y-9109200D01*
X14151800Y-9156700D01*
X14199300Y-9204200D01*
X14351000Y-12747500D02*
X14398500Y-12700000D01*
X14351000Y-12652500D01*
X14303500Y-12700000D01*
X14351000Y-12747500D01*
X14355000Y-10842500D02*
X14402500Y-10795000D01*
X14355000Y-10747500D01*
X14307500Y-10795000D01*
X14355000Y-10842500D01*
X14601000Y-12747500D02*
X14648500Y-12700000D01*
X14601000Y-12652500D01*
X14553500Y-12700000D01*
X14601000Y-12747500D01*
X14605000Y-10842500D02*
X14652500Y-10795000D01*
X14605000Y-10747500D01*
X14557500Y-10795000D01*
X14605000Y-10842500D01*
X14897100Y-6727700D02*
X14944600Y-6680200D01*
X14897100Y-6632700D01*
X14849600Y-6680200D01*
X14897100Y-6727700D01*
X14897100Y-6977700D02*
X14944600Y-6930200D01*
X14897100Y-6882700D01*
X14849600Y-6930200D01*
X14897100Y-6977700D01*
X14897100Y-7227700D02*
X14944600Y-7180200D01*
X14897100Y-7132700D01*
X14849600Y-7180200D01*
X14897100Y-7227700D01*
X14897100Y-7477700D02*
X14944600Y-7430200D01*
X14897100Y-7382700D01*
X14849600Y-7430200D01*
X14897100Y-7477700D01*
X14897100Y-7727700D02*
X14944600Y-7680200D01*
X14897100Y-7632700D01*
X14849600Y-7680200D01*
X14897100Y-7727700D01*
X15367000Y-11604500D02*
X15414500Y-11557000D01*
X15367000Y-11509500D01*
X15319500Y-11557000D01*
X15367000Y-11604500D01*
X15371000Y-12747500D02*
X15418500Y-12700000D01*
X15371000Y-12652500D01*
X15323500Y-12700000D01*
X15371000Y-12747500D01*
X15532100Y-8772400D02*
X15579600Y-8724900D01*
X15532100Y-8677400D01*
X15484600Y-8724900D01*
X15532100Y-8772400D01*
X15532100Y-9022400D02*
X15579600Y-8974900D01*
X15532100Y-8927400D01*
X15484600Y-8974900D01*
X15532100Y-9022400D01*
X15532100Y-9272400D02*
X15579600Y-9224900D01*
X15532100Y-9177400D01*
X15484600Y-9224900D01*
X15532100Y-9272400D01*
X15532100Y-9522400D02*
X15579600Y-9474900D01*
X15532100Y-9427400D01*
X15484600Y-9474900D01*
X15532100Y-9522400D01*
X15617000Y-11604500D02*
X15664500Y-11557000D01*
X15617000Y-11509500D01*
X15569500Y-11557000D01*
X15617000Y-11604500D01*
X15621000Y-12747500D02*
X15668500Y-12700000D01*
X15621000Y-12652500D01*
X15573500Y-12700000D01*
X15621000Y-12747500D01*
X15867000Y-11604500D02*
X15914500Y-11557000D01*
X15867000Y-11509500D01*
X15819500Y-11557000D01*
X15867000Y-11604500D01*
X15871000Y-12747500D02*
X15918500Y-12700000D01*
X15871000Y-12652500D01*
X15823500Y-12700000D01*
X15871000Y-12747500D01*
X15913100Y-6727700D02*
X15960600Y-6680200D01*
X15913100Y-6632700D01*
X15865600Y-6680200D01*
X15913100Y-6727700D01*
X15913100Y-6977700D02*
X15960600Y-6930200D01*
X15913100Y-6882700D01*
X15865600Y-6930200D01*
X15913100Y-6977700D01*
X15913100Y-7227700D02*
X15960600Y-7180200D01*
X15913100Y-7132700D01*
X15865600Y-7180200D01*
X15913100Y-7227700D01*
X15913100Y-7477700D02*
X15960600Y-7430200D01*
X15913100Y-7382700D01*
X15865600Y-7430200D01*
X15913100Y-7477700D01*
X15913100Y-7727700D02*
X15960600Y-7680200D01*
X15913100Y-7632700D01*
X15865600Y-7680200D01*
X15913100Y-7727700D01*
X16467700Y-9838260D02*
X16515200Y-9790760D01*
X16467700Y-9743260D01*
X16420200Y-9790760D01*
X16467700Y-9838260D01*
X16500600Y-8683500D02*
X16548100Y-8636000D01*
X16500600Y-8588500D01*
X16453100Y-8636000D01*
X16500600Y-8683500D01*
X16717700Y-9838260D02*
X16765200Y-9790760D01*
X16717700Y-9743260D01*
X16670200Y-9790760D01*
X16717700Y-9838260D01*
X16750600Y-8683500D02*
X16798100Y-8636000D01*
X16750600Y-8588500D01*
X16703100Y-8636000D01*
X16750600Y-8683500D01*
X16967700Y-9838260D02*
X17015200Y-9790760D01*
X16967700Y-9743260D01*
X16920200Y-9790760D01*
X16967700Y-9838260D01*
X17000600Y-8683500D02*
X17048100Y-8636000D01*
X17000600Y-8588500D01*
X16953100Y-8636000D01*
X17000600Y-8683500D01*
X17217700Y-9838260D02*
X17265200Y-9790760D01*
X17217700Y-9743260D01*
X17170200Y-9790760D01*
X17217700Y-9838260D01*
X17250600Y-8683500D02*
X17298100Y-8636000D01*
X17250600Y-8588500D01*
X17203100Y-8636000D01*
X17250600Y-8683500D01*
X17424400Y-6727700D02*
X17471900Y-6680200D01*
X17424400Y-6632700D01*
X17376900Y-6680200D01*
X17424400Y-6727700D01*
X17424400Y-6977700D02*
X17471900Y-6930200D01*
X17424400Y-6882700D01*
X17376900Y-6930200D01*
X17424400Y-6977700D01*
X17424400Y-7227700D02*
X17471900Y-7180200D01*
X17424400Y-7132700D01*
X17376900Y-7180200D01*
X17424400Y-7227700D01*
X17424400Y-7477700D02*
X17471900Y-7430200D01*
X17424400Y-7382700D01*
X17376900Y-7430200D01*
X17424400Y-7477700D01*
X17424400Y-7727700D02*
X17471900Y-7680200D01*
X17424400Y-7632700D01*
X17376900Y-7680200D01*
X17424400Y-7727700D01*
X17467700Y-9838260D02*
X17515200Y-9790760D01*
X17467700Y-9743260D01*
X17420200Y-9790760D01*
X17467700Y-9838260D01*
X17500600Y-8683500D02*
X17548100Y-8636000D01*
X17500600Y-8588500D01*
X17453100Y-8636000D01*
X17500600Y-8683500D01*
X4318800Y-9860000D02*
X4418800Y-9960000D01*
X4418800Y-9860000D02*
X4318800Y-9960000D01*
X4418800Y-9910000D02*
G75*
G03*
X4418800Y-9910000I-50000J0D01*
G01*
X4318800Y-10110000D02*
X4418800Y-10210000D01*
X4418800Y-10110000D02*
X4318800Y-10210000D01*
X4418800Y-10160000D02*
G75*
G03*
X4418800Y-10160000I-50000J0D01*
G01*
X4903000Y-3760000D02*
X5003000Y-3860000D01*
X5003000Y-3760000D02*
X4903000Y-3860000D01*
X5003000Y-3810000D02*
G75*
G03*
X5003000Y-3810000I-50000J0D01*
G01*
X5157000Y-3760000D02*
X5257000Y-3860000D01*
X5257000Y-3760000D02*
X5157000Y-3860000D01*
X5257000Y-3810000D02*
G75*
G03*
X5257000Y-3810000I-50000J0D01*
G01*
X5411000Y-3760000D02*
X5511000Y-3860000D01*
X5511000Y-3760000D02*
X5411000Y-3860000D01*
X5511000Y-3810000D02*
G75*
G03*
X5511000Y-3810000I-50000J0D01*
G01*
X8547900Y-12256300D02*
X8647900Y-12356300D01*
X8647900Y-12256300D02*
X8547900Y-12356300D01*
X8647900Y-12306300D02*
G75*
G03*
X8647900Y-12306300I-50000J0D01*
G01*
X8797900Y-12256300D02*
X8897900Y-12356300D01*
X8897900Y-12256300D02*
X8797900Y-12356300D01*
X8897900Y-12306300D02*
G75*
G03*
X8897900Y-12306300I-50000J0D01*
G01*
X15850400Y-5906300D02*
X15950400Y-6006300D01*
X15950400Y-5906300D02*
X15850400Y-6006300D01*
X15950400Y-5956300D02*
G75*
G03*
X15950400Y-5956300I-50000J0D01*
G01*
X16104400Y-5906300D02*
X16204400Y-6006300D01*
X16204400Y-5906300D02*
X16104400Y-6006300D01*
X16204400Y-5956300D02*
G75*
G03*
X16204400Y-5956300I-50000J0D01*
G01*
X16358400Y-5906300D02*
X16458400Y-6006300D01*
X16458400Y-5906300D02*
X16358400Y-6006300D01*
X16458400Y-5956300D02*
G75*
G03*
X16458400Y-5956300I-50000J0D01*
G01*
X16968000Y-12015000D02*
X17068000Y-12115000D01*
X17068000Y-12015000D02*
X16968000Y-12115000D01*
X17068000Y-12065000D02*
G75*
G03*
X17068000Y-12065000I-50000J0D01*
G01*
X17018800Y-5919000D02*
X17118800Y-6019000D01*
X17118800Y-5919000D02*
X17018800Y-6019000D01*
X17118800Y-5969000D02*
G75*
G03*
X17118800Y-5969000I-50000J0D01*
G01*
X17218000Y-12015000D02*
X17318000Y-12115000D01*
X17318000Y-12015000D02*
X17218000Y-12115000D01*
X17318000Y-12065000D02*
G75*
G03*
X17318000Y-12065000I-50000J0D01*
G01*
X17272800Y-5919000D02*
X17372800Y-6019000D01*
X17372800Y-5919000D02*
X17272800Y-6019000D01*
X17372800Y-5969000D02*
G75*
G03*
X17372800Y-5969000I-50000J0D01*
G01*
X17526800Y-5919000D02*
X17626800Y-6019000D01*
X17626800Y-5919000D02*
X17526800Y-6019000D01*
X17626800Y-5969000D02*
G75*
G03*
X17626800Y-5969000I-50000J0D01*
G01*
X16967962Y-4269998D02*
X17068038Y-4370074D01*
X17068038Y-4269998D02*
X16967962Y-4370074D01*
X17018000Y-4269998D02*
X17018000Y-4370074D01*
X16967962Y-4320036D02*
X17068038Y-4320036D01*
X16967962Y-5029966D02*
X17068038Y-5130042D01*
X17068038Y-5029966D02*
X16967962Y-5130042D01*
X17018000Y-5029966D02*
X17018000Y-5130042D01*
X16967962Y-5080004D02*
X17068038Y-5080004D01*
X5182000Y-4212200D02*
X5292000Y-4322200D01*
X5292000Y-4212200D02*
X5182000Y-4322200D01*
X5275891Y-4306091D02*
X5275891Y-4228309D01*
X5198109Y-4228309D01*
X5198109Y-4306091D01*
X5275891Y-4306091D01*
X5182000Y-5228200D02*
X5292000Y-5338200D01*
X5292000Y-5228200D02*
X5182000Y-5338200D01*
X5275891Y-5322091D02*
X5275891Y-5244309D01*
X5198109Y-5244309D01*
X5198109Y-5322091D01*
X5275891Y-5322091D01*
X5182000Y-5660000D02*
X5292000Y-5770000D01*
X5292000Y-5660000D02*
X5182000Y-5770000D01*
X5275891Y-5753891D02*
X5275891Y-5676109D01*
X5198109Y-5676109D01*
X5198109Y-5753891D01*
X5275891Y-5753891D01*
X5182000Y-6676000D02*
X5292000Y-6786000D01*
X5292000Y-6676000D02*
X5182000Y-6786000D01*
X5275891Y-6769891D02*
X5275891Y-6692109D01*
X5198109Y-6692109D01*
X5198109Y-6769891D01*
X5275891Y-6769891D01*
X6295000Y-6676000D02*
X6405000Y-6786000D01*
X6405000Y-6676000D02*
X6295000Y-6786000D01*
X6388891Y-6769891D02*
X6388891Y-6692109D01*
X6311109Y-6692109D01*
X6311109Y-6769891D01*
X6388891Y-6769891D01*
X6295000Y-6930000D02*
X6405000Y-7040000D01*
X6405000Y-6930000D02*
X6295000Y-7040000D01*
X6388891Y-7023891D02*
X6388891Y-6946109D01*
X6311109Y-6946109D01*
X6311109Y-7023891D01*
X6388891Y-7023891D01*
X6295000Y-7184000D02*
X6405000Y-7294000D01*
X6405000Y-7184000D02*
X6295000Y-7294000D01*
X6388891Y-7277891D02*
X6388891Y-7200109D01*
X6311109Y-7200109D01*
X6311109Y-7277891D01*
X6388891Y-7277891D01*
X6295000Y-7438000D02*
X6405000Y-7548000D01*
X6405000Y-7438000D02*
X6295000Y-7548000D01*
X6388891Y-7531891D02*
X6388891Y-7454109D01*
X6311109Y-7454109D01*
X6311109Y-7531891D01*
X6388891Y-7531891D01*
X6295000Y-7692000D02*
X6405000Y-7802000D01*
X6405000Y-7692000D02*
X6295000Y-7802000D01*
X6388891Y-7785891D02*
X6388891Y-7708109D01*
X6311109Y-7708109D01*
X6311109Y-7785891D01*
X6388891Y-7785891D01*
X6295000Y-7946000D02*
X6405000Y-8056000D01*
X6405000Y-7946000D02*
X6295000Y-8056000D01*
X6388891Y-8039891D02*
X6388891Y-7962109D01*
X6311109Y-7962109D01*
X6311109Y-8039891D01*
X6388891Y-8039891D01*
X6295000Y-8200000D02*
X6405000Y-8310000D01*
X6405000Y-8200000D02*
X6295000Y-8310000D01*
X6388891Y-8293891D02*
X6388891Y-8216109D01*
X6311109Y-8216109D01*
X6311109Y-8293891D01*
X6388891Y-8293891D01*
X6295000Y-8454000D02*
X6405000Y-8564000D01*
X6405000Y-8454000D02*
X6295000Y-8564000D01*
X6388891Y-8547891D02*
X6388891Y-8470109D01*
X6311109Y-8470109D01*
X6311109Y-8547891D01*
X6388891Y-8547891D01*
X6295000Y-8708000D02*
X6405000Y-8818000D01*
X6405000Y-8708000D02*
X6295000Y-8818000D01*
X6388891Y-8801891D02*
X6388891Y-8724109D01*
X6311109Y-8724109D01*
X6311109Y-8801891D01*
X6388891Y-8801891D01*
X6295000Y-8962000D02*
X6405000Y-9072000D01*
X6405000Y-8962000D02*
X6295000Y-9072000D01*
X6388891Y-9055891D02*
X6388891Y-8978109D01*
X6311109Y-8978109D01*
X6311109Y-9055891D01*
X6388891Y-9055891D01*
X6295000Y-9216000D02*
X6405000Y-9326000D01*
X6405000Y-9216000D02*
X6295000Y-9326000D01*
X6388891Y-9309891D02*
X6388891Y-9232109D01*
X6311109Y-9232109D01*
X6311109Y-9309891D01*
X6388891Y-9309891D01*
X6295000Y-9470000D02*
X6405000Y-9580000D01*
X6405000Y-9470000D02*
X6295000Y-9580000D01*
X6388891Y-9563891D02*
X6388891Y-9486109D01*
X6311109Y-9486109D01*
X6311109Y-9563891D01*
X6388891Y-9563891D01*
X6295000Y-9724000D02*
X6405000Y-9834000D01*
X6405000Y-9724000D02*
X6295000Y-9834000D01*
X6388891Y-9817891D02*
X6388891Y-9740109D01*
X6311109Y-9740109D01*
X6311109Y-9817891D01*
X6388891Y-9817891D01*
X6295000Y-9978000D02*
X6405000Y-10088000D01*
X6405000Y-9978000D02*
X6295000Y-10088000D01*
X6388891Y-10071891D02*
X6388891Y-9994109D01*
X6311109Y-9994109D01*
X6311109Y-10071891D01*
X6388891Y-10071891D01*
X6295000Y-10232000D02*
X6405000Y-10342000D01*
X6405000Y-10232000D02*
X6295000Y-10342000D01*
X6388891Y-10325891D02*
X6388891Y-10248109D01*
X6311109Y-10248109D01*
X6311109Y-10325891D01*
X6388891Y-10325891D01*
X6295000Y-10486000D02*
X6405000Y-10596000D01*
X6405000Y-10486000D02*
X6295000Y-10596000D01*
X6388891Y-10579891D02*
X6388891Y-10502109D01*
X6311109Y-10502109D01*
X6311109Y-10579891D01*
X6388891Y-10579891D01*
X6295000Y-10740000D02*
X6405000Y-10850000D01*
X6405000Y-10740000D02*
X6295000Y-10850000D01*
X6388891Y-10833891D02*
X6388891Y-10756109D01*
X6311109Y-10756109D01*
X6311109Y-10833891D01*
X6388891Y-10833891D01*
X6295000Y-10994000D02*
X6405000Y-11104000D01*
X6405000Y-10994000D02*
X6295000Y-11104000D01*
X6388891Y-11087891D02*
X6388891Y-11010109D01*
X6311109Y-11010109D01*
X6311109Y-11087891D01*
X6388891Y-11087891D01*
X6295000Y-11248000D02*
X6405000Y-11358000D01*
X6405000Y-11248000D02*
X6295000Y-11358000D01*
X6388891Y-11341891D02*
X6388891Y-11264109D01*
X6311109Y-11264109D01*
X6311109Y-11341891D01*
X6388891Y-11341891D01*
X6295000Y-11502000D02*
X6405000Y-11612000D01*
X6405000Y-11502000D02*
X6295000Y-11612000D01*
X6388891Y-11595891D02*
X6388891Y-11518109D01*
X6311109Y-11518109D01*
X6311109Y-11595891D01*
X6388891Y-11595891D01*
X6295000Y-11756000D02*
X6405000Y-11866000D01*
X6405000Y-11756000D02*
X6295000Y-11866000D01*
X6388891Y-11849891D02*
X6388891Y-11772109D01*
X6311109Y-11772109D01*
X6311109Y-11849891D01*
X6388891Y-11849891D01*
X6295000Y-12010000D02*
X6405000Y-12120000D01*
X6405000Y-12010000D02*
X6295000Y-12120000D01*
X6388891Y-12103891D02*
X6388891Y-12026109D01*
X6311109Y-12026109D01*
X6311109Y-12103891D01*
X6388891Y-12103891D01*
X6295000Y-12264000D02*
X6405000Y-12374000D01*
X6405000Y-12264000D02*
X6295000Y-12374000D01*
X6388891Y-12357891D02*
X6388891Y-12280109D01*
X6311109Y-12280109D01*
X6311109Y-12357891D01*
X6388891Y-12357891D01*
X6295000Y-12518000D02*
X6405000Y-12628000D01*
X6405000Y-12518000D02*
X6295000Y-12628000D01*
X6388891Y-12611891D02*
X6388891Y-12534109D01*
X6311109Y-12534109D01*
X6311109Y-12611891D01*
X6388891Y-12611891D01*
X6549000Y-7946000D02*
X6659000Y-8056000D01*
X6659000Y-7946000D02*
X6549000Y-8056000D01*
X6642891Y-8039891D02*
X6642891Y-7962109D01*
X6565109Y-7962109D01*
X6565109Y-8039891D01*
X6642891Y-8039891D01*
X6549000Y-12264000D02*
X6659000Y-12374000D01*
X6659000Y-12264000D02*
X6549000Y-12374000D01*
X6642891Y-12357891D02*
X6642891Y-12280109D01*
X6565109Y-12280109D01*
X6565109Y-12357891D01*
X6642891Y-12357891D01*
X6803000Y-7946000D02*
X6913000Y-8056000D01*
X6913000Y-7946000D02*
X6803000Y-8056000D01*
X6896891Y-8039891D02*
X6896891Y-7962109D01*
X6819109Y-7962109D01*
X6819109Y-8039891D01*
X6896891Y-8039891D01*
X7057000Y-7946000D02*
X7167000Y-8056000D01*
X7167000Y-7946000D02*
X7057000Y-8056000D01*
X7150891Y-8039891D02*
X7150891Y-7962109D01*
X7073109Y-7962109D01*
X7073109Y-8039891D01*
X7150891Y-8039891D01*
X7311000Y-7946000D02*
X7421000Y-8056000D01*
X7421000Y-7946000D02*
X7311000Y-8056000D01*
X7404891Y-8039891D02*
X7404891Y-7962109D01*
X7327109Y-7962109D01*
X7327109Y-8039891D01*
X7404891Y-8039891D01*
X7513920Y-10872080D02*
X7623920Y-10982080D01*
X7623920Y-10872080D02*
X7513920Y-10982080D01*
X7607811Y-10965971D02*
X7607811Y-10888189D01*
X7530029Y-10888189D01*
X7530029Y-10965971D01*
X7607811Y-10965971D01*
X7513920Y-11126080D02*
X7623920Y-11236080D01*
X7623920Y-11126080D02*
X7513920Y-11236080D01*
X7607811Y-11219971D02*
X7607811Y-11142189D01*
X7530029Y-11142189D01*
X7530029Y-11219971D01*
X7607811Y-11219971D01*
X7513920Y-11380080D02*
X7623920Y-11490080D01*
X7623920Y-11380080D02*
X7513920Y-11490080D01*
X7607811Y-11473971D02*
X7607811Y-11396189D01*
X7530029Y-11396189D01*
X7530029Y-11473971D01*
X7607811Y-11473971D01*
X7513920Y-11634080D02*
X7623920Y-11744080D01*
X7623920Y-11634080D02*
X7513920Y-11744080D01*
X7607811Y-11727971D02*
X7607811Y-11650189D01*
X7530029Y-11650189D01*
X7530029Y-11727971D01*
X7607811Y-11727971D01*
X7513920Y-11888080D02*
X7623920Y-11998080D01*
X7623920Y-11888080D02*
X7513920Y-11998080D01*
X7607811Y-11981971D02*
X7607811Y-11904189D01*
X7530029Y-11904189D01*
X7530029Y-11981971D01*
X7607811Y-11981971D01*
X7565000Y-7946000D02*
X7675000Y-8056000D01*
X7675000Y-7946000D02*
X7565000Y-8056000D01*
X7658891Y-8039891D02*
X7658891Y-7962109D01*
X7581109Y-7962109D01*
X7581109Y-8039891D01*
X7658891Y-8039891D01*
X7819000Y-6676000D02*
X7929000Y-6786000D01*
X7929000Y-6676000D02*
X7819000Y-6786000D01*
X7912891Y-6769891D02*
X7912891Y-6692109D01*
X7835109Y-6692109D01*
X7835109Y-6769891D01*
X7912891Y-6769891D01*
X7819000Y-6930000D02*
X7929000Y-7040000D01*
X7929000Y-6930000D02*
X7819000Y-7040000D01*
X7912891Y-7023891D02*
X7912891Y-6946109D01*
X7835109Y-6946109D01*
X7835109Y-7023891D01*
X7912891Y-7023891D01*
X7819000Y-7184000D02*
X7929000Y-7294000D01*
X7929000Y-7184000D02*
X7819000Y-7294000D01*
X7912891Y-7277891D02*
X7912891Y-7200109D01*
X7835109Y-7200109D01*
X7835109Y-7277891D01*
X7912891Y-7277891D01*
X7819000Y-7438000D02*
X7929000Y-7548000D01*
X7929000Y-7438000D02*
X7819000Y-7548000D01*
X7912891Y-7531891D02*
X7912891Y-7454109D01*
X7835109Y-7454109D01*
X7835109Y-7531891D01*
X7912891Y-7531891D01*
X7819000Y-7692000D02*
X7929000Y-7802000D01*
X7929000Y-7692000D02*
X7819000Y-7802000D01*
X7912891Y-7785891D02*
X7912891Y-7708109D01*
X7835109Y-7708109D01*
X7835109Y-7785891D01*
X7912891Y-7785891D01*
X7819000Y-7946000D02*
X7929000Y-8056000D01*
X7929000Y-7946000D02*
X7819000Y-8056000D01*
X7912891Y-8039891D02*
X7912891Y-7962109D01*
X7835109Y-7962109D01*
X7835109Y-8039891D01*
X7912891Y-8039891D01*
X7819000Y-8200000D02*
X7929000Y-8310000D01*
X7929000Y-8200000D02*
X7819000Y-8310000D01*
X7912891Y-8293891D02*
X7912891Y-8216109D01*
X7835109Y-8216109D01*
X7835109Y-8293891D01*
X7912891Y-8293891D01*
X7819000Y-8454000D02*
X7929000Y-8564000D01*
X7929000Y-8454000D02*
X7819000Y-8564000D01*
X7912891Y-8547891D02*
X7912891Y-8470109D01*
X7835109Y-8470109D01*
X7835109Y-8547891D01*
X7912891Y-8547891D01*
X7819000Y-8708000D02*
X7929000Y-8818000D01*
X7929000Y-8708000D02*
X7819000Y-8818000D01*
X7912891Y-8801891D02*
X7912891Y-8724109D01*
X7835109Y-8724109D01*
X7835109Y-8801891D01*
X7912891Y-8801891D01*
X7819000Y-8962000D02*
X7929000Y-9072000D01*
X7929000Y-8962000D02*
X7819000Y-9072000D01*
X7912891Y-9055891D02*
X7912891Y-8978109D01*
X7835109Y-8978109D01*
X7835109Y-9055891D01*
X7912891Y-9055891D01*
X7819000Y-9216000D02*
X7929000Y-9326000D01*
X7929000Y-9216000D02*
X7819000Y-9326000D01*
X7912891Y-9309891D02*
X7912891Y-9232109D01*
X7835109Y-9232109D01*
X7835109Y-9309891D01*
X7912891Y-9309891D01*
X7819000Y-9470000D02*
X7929000Y-9580000D01*
X7929000Y-9470000D02*
X7819000Y-9580000D01*
X7912891Y-9563891D02*
X7912891Y-9486109D01*
X7835109Y-9486109D01*
X7835109Y-9563891D01*
X7912891Y-9563891D01*
X7819000Y-9724000D02*
X7929000Y-9834000D01*
X7929000Y-9724000D02*
X7819000Y-9834000D01*
X7912891Y-9817891D02*
X7912891Y-9740109D01*
X7835109Y-9740109D01*
X7835109Y-9817891D01*
X7912891Y-9817891D01*
X7819000Y-9978000D02*
X7929000Y-10088000D01*
X7929000Y-9978000D02*
X7819000Y-10088000D01*
X7912891Y-10071891D02*
X7912891Y-9994109D01*
X7835109Y-9994109D01*
X7835109Y-10071891D01*
X7912891Y-10071891D01*
X7819000Y-10232000D02*
X7929000Y-10342000D01*
X7929000Y-10232000D02*
X7819000Y-10342000D01*
X7912891Y-10325891D02*
X7912891Y-10248109D01*
X7835109Y-10248109D01*
X7835109Y-10325891D01*
X7912891Y-10325891D01*
X7819000Y-10486000D02*
X7929000Y-10596000D01*
X7929000Y-10486000D02*
X7819000Y-10596000D01*
X7912891Y-10579891D02*
X7912891Y-10502109D01*
X7835109Y-10502109D01*
X7835109Y-10579891D01*
X7912891Y-10579891D01*
X7819000Y-10740000D02*
X7929000Y-10850000D01*
X7929000Y-10740000D02*
X7819000Y-10850000D01*
X7912891Y-10833891D02*
X7912891Y-10756109D01*
X7835109Y-10756109D01*
X7835109Y-10833891D01*
X7912891Y-10833891D01*
X7819000Y-10994000D02*
X7929000Y-11104000D01*
X7929000Y-10994000D02*
X7819000Y-11104000D01*
X7912891Y-11087891D02*
X7912891Y-11010109D01*
X7835109Y-11010109D01*
X7835109Y-11087891D01*
X7912891Y-11087891D01*
X7819000Y-11248000D02*
X7929000Y-11358000D01*
X7929000Y-11248000D02*
X7819000Y-11358000D01*
X7912891Y-11341891D02*
X7912891Y-11264109D01*
X7835109Y-11264109D01*
X7835109Y-11341891D01*
X7912891Y-11341891D01*
X7819000Y-11502000D02*
X7929000Y-11612000D01*
X7929000Y-11502000D02*
X7819000Y-11612000D01*
X7912891Y-11595891D02*
X7912891Y-11518109D01*
X7835109Y-11518109D01*
X7835109Y-11595891D01*
X7912891Y-11595891D01*
X7819000Y-11756000D02*
X7929000Y-11866000D01*
X7929000Y-11756000D02*
X7819000Y-11866000D01*
X7912891Y-11849891D02*
X7912891Y-11772109D01*
X7835109Y-11772109D01*
X7835109Y-11849891D01*
X7912891Y-11849891D01*
X7819000Y-12010000D02*
X7929000Y-12120000D01*
X7929000Y-12010000D02*
X7819000Y-12120000D01*
X7912891Y-12103891D02*
X7912891Y-12026109D01*
X7835109Y-12026109D01*
X7835109Y-12103891D01*
X7912891Y-12103891D01*
X7819000Y-12264000D02*
X7929000Y-12374000D01*
X7929000Y-12264000D02*
X7819000Y-12374000D01*
X7912891Y-12357891D02*
X7912891Y-12280109D01*
X7835109Y-12280109D01*
X7835109Y-12357891D01*
X7912891Y-12357891D01*
X7819000Y-12518000D02*
X7929000Y-12628000D01*
X7929000Y-12518000D02*
X7819000Y-12628000D01*
X7912891Y-12611891D02*
X7912891Y-12534109D01*
X7835109Y-12534109D01*
X7835109Y-12611891D01*
X7912891Y-12611891D01*
X13387000Y-4624000D02*
X13537000Y-4774000D01*
X13537000Y-4624000D02*
X13387000Y-4774000D01*
X13462000Y-4774000D02*
X13537000Y-4699000D01*
X13462000Y-4624000D01*
X13387000Y-4699000D01*
X13462000Y-4774000D01*
X15436000Y-4624000D02*
X15586000Y-4774000D01*
X15586000Y-4624000D02*
X15436000Y-4774000D01*
X15511000Y-4774000D02*
X15586000Y-4699000D01*
X15511000Y-4624000D01*
X15436000Y-4699000D01*
X15511000Y-4774000D01*
X4489000Y-4475000D02*
X4489000Y-4627000D01*
X4413000Y-4551000D02*
X4565000Y-4551000D01*
X4565000Y-4551000D02*
G75*
G03*
X4565000Y-4551000I-76000J0D01*
G01*
X4489000Y-4983000D02*
X4489000Y-5135000D01*
X4413000Y-5059000D02*
X4565000Y-5059000D01*
X4565000Y-5059000D02*
G75*
G03*
X4565000Y-5059000I-76000J0D01*
G01*
X4499000Y-5604000D02*
X4499000Y-5756000D01*
X4423000Y-5680000D02*
X4575000Y-5680000D01*
X4575000Y-5680000D02*
G75*
G03*
X4575000Y-5680000I-76000J0D01*
G01*
X4499000Y-6112000D02*
X4499000Y-6264000D01*
X4423000Y-6188000D02*
X4575000Y-6188000D01*
X4575000Y-6188000D02*
G75*
G03*
X4575000Y-6188000I-76000J0D01*
G01*
X4413138Y-3913138D02*
X4413138Y-3686862D01*
X4186862Y-3686862D01*
X4186862Y-3913138D01*
X4413138Y-3913138D01*
X4460000Y-3800000D02*
G75*
G03*
X4460000Y-3800000I-160000J0D01*
G01*
X4413138Y-13113138D02*
X4413138Y-12886862D01*
X4186862Y-12886862D01*
X4186862Y-13113138D01*
X4413138Y-13113138D01*
X4460000Y-13000000D02*
G75*
G03*
X4460000Y-13000000I-160000J0D01*
G01*
X17713138Y-3913138D02*
X17713138Y-3686862D01*
X17486862Y-3686862D01*
X17486862Y-3913138D01*
X17713138Y-3913138D01*
X17760000Y-3800000D02*
G75*
G03*
X17760000Y-3800000I-160000J0D01*
G01*
X17713138Y-13113138D02*
X17713138Y-12886862D01*
X17486862Y-12886862D01*
X17486862Y-13113138D01*
X17713138Y-13113138D01*
X17760000Y-13000000D02*
G75*
G03*
X17760000Y-13000000I-160000J0D01*
G01*
D12*
X4093928Y-13868214D02*
X4093928Y-13568214D01*
X4165357Y-13568214D01*
X4208214Y-13582500D01*
X4236786Y-13611071D01*
X4251071Y-13639643D01*
X4265357Y-13696786D01*
X4265357Y-13739643D01*
X4251071Y-13796786D01*
X4236786Y-13825357D01*
X4208214Y-13853929D01*
X4165357Y-13868214D01*
X4093928Y-13868214D01*
X4393928Y-13868214D02*
X4393928Y-13668214D01*
X4393928Y-13725357D02*
X4408214Y-13696786D01*
X4422500Y-13682500D01*
X4451071Y-13668214D01*
X4479643Y-13668214D01*
X4579643Y-13868214D02*
X4579643Y-13668214D01*
X4579643Y-13568214D02*
X4565357Y-13582500D01*
X4579643Y-13596786D01*
X4593928Y-13582500D01*
X4579643Y-13568214D01*
X4579643Y-13596786D01*
X4765357Y-13868214D02*
X4736786Y-13853929D01*
X4722500Y-13825357D01*
X4722500Y-13568214D01*
X4922500Y-13868214D02*
X4893928Y-13853929D01*
X4879643Y-13825357D01*
X4879643Y-13568214D01*
X5265357Y-13868214D02*
X5265357Y-13568214D01*
X5365357Y-13782500D01*
X5465357Y-13568214D01*
X5465357Y-13868214D01*
X5736786Y-13868214D02*
X5736786Y-13711071D01*
X5722500Y-13682500D01*
X5693928Y-13668214D01*
X5636786Y-13668214D01*
X5608214Y-13682500D01*
X5736786Y-13853929D02*
X5708214Y-13868214D01*
X5636786Y-13868214D01*
X5608214Y-13853929D01*
X5593928Y-13825357D01*
X5593928Y-13796786D01*
X5608214Y-13768214D01*
X5636786Y-13753929D01*
X5708214Y-13753929D01*
X5736786Y-13739643D01*
X5879643Y-13668214D02*
X5879643Y-13968214D01*
X5879643Y-13682500D02*
X5908214Y-13668214D01*
X5965357Y-13668214D01*
X5993928Y-13682500D01*
X6008214Y-13696786D01*
X6022500Y-13725357D01*
X6022500Y-13811071D01*
X6008214Y-13839643D01*
X5993928Y-13853929D01*
X5965357Y-13868214D01*
X5908214Y-13868214D01*
X5879643Y-13853929D01*
X6151071Y-13839643D02*
X6165357Y-13853929D01*
X6151071Y-13868214D01*
X6136786Y-13853929D01*
X6151071Y-13839643D01*
X6151071Y-13868214D01*
X6151071Y-13682500D02*
X6165357Y-13696786D01*
X6151071Y-13711071D01*
X6136786Y-13696786D01*
X6151071Y-13682500D01*
X6151071Y-13711071D01*
X3767500Y-14342500D02*
X3807500Y-14382500D01*
X3807500Y-14342500D02*
X3767500Y-14382500D01*
X4151071Y-14198214D02*
X4179643Y-14198214D01*
X4208214Y-14212500D01*
X4222500Y-14226786D01*
X4236786Y-14255357D01*
X4251071Y-14312500D01*
X4251071Y-14383929D01*
X4236786Y-14441071D01*
X4222500Y-14469643D01*
X4208214Y-14483929D01*
X4179643Y-14498214D01*
X4151071Y-14498214D01*
X4122500Y-14483929D01*
X4108214Y-14469643D01*
X4093928Y-14441071D01*
X4079643Y-14383929D01*
X4079643Y-14312500D01*
X4093928Y-14255357D01*
X4108214Y-14226786D01*
X4122500Y-14212500D01*
X4151071Y-14198214D01*
X4379643Y-14469643D02*
X4393928Y-14483929D01*
X4379643Y-14498214D01*
X4365357Y-14483929D01*
X4379643Y-14469643D01*
X4379643Y-14498214D01*
X4651071Y-14298214D02*
X4651071Y-14498214D01*
X4579643Y-14183929D02*
X4508214Y-14398214D01*
X4693928Y-14398214D01*
X4865357Y-14198214D02*
X4893928Y-14198214D01*
X4922500Y-14212500D01*
X4936786Y-14226786D01*
X4951071Y-14255357D01*
X4965357Y-14312500D01*
X4965357Y-14383929D01*
X4951071Y-14441071D01*
X4936786Y-14469643D01*
X4922500Y-14483929D01*
X4893928Y-14498214D01*
X4865357Y-14498214D01*
X4836786Y-14483929D01*
X4822500Y-14469643D01*
X4808214Y-14441071D01*
X4793928Y-14383929D01*
X4793928Y-14312500D01*
X4808214Y-14255357D01*
X4822500Y-14226786D01*
X4836786Y-14212500D01*
X4865357Y-14198214D01*
X5093928Y-14498214D02*
X5093928Y-14298214D01*
X5093928Y-14326786D02*
X5108214Y-14312500D01*
X5136786Y-14298214D01*
X5179643Y-14298214D01*
X5208214Y-14312500D01*
X5222500Y-14341071D01*
X5222500Y-14498214D01*
X5222500Y-14341071D02*
X5236786Y-14312500D01*
X5265357Y-14298214D01*
X5308214Y-14298214D01*
X5336786Y-14312500D01*
X5351071Y-14341071D01*
X5351071Y-14498214D01*
X5493928Y-14498214D02*
X5493928Y-14298214D01*
X5493928Y-14326786D02*
X5508214Y-14312500D01*
X5536786Y-14298214D01*
X5579643Y-14298214D01*
X5608214Y-14312500D01*
X5622500Y-14341071D01*
X5622500Y-14498214D01*
X5622500Y-14341071D02*
X5636786Y-14312500D01*
X5665357Y-14298214D01*
X5708214Y-14298214D01*
X5736786Y-14312500D01*
X5751071Y-14341071D01*
X5751071Y-14498214D01*
X6336786Y-14183929D02*
X6079643Y-14569643D01*
X6722500Y-14198214D02*
X6751071Y-14198214D01*
X6779643Y-14212500D01*
X6793928Y-14226786D01*
X6808214Y-14255357D01*
X6822500Y-14312500D01*
X6822500Y-14383929D01*
X6808214Y-14441071D01*
X6793928Y-14469643D01*
X6779643Y-14483929D01*
X6751071Y-14498214D01*
X6722500Y-14498214D01*
X6693928Y-14483929D01*
X6679643Y-14469643D01*
X6665357Y-14441071D01*
X6651071Y-14383929D01*
X6651071Y-14312500D01*
X6665357Y-14255357D01*
X6679643Y-14226786D01*
X6693928Y-14212500D01*
X6722500Y-14198214D01*
X6951071Y-14469643D02*
X6965357Y-14483929D01*
X6951071Y-14498214D01*
X6936786Y-14483929D01*
X6951071Y-14469643D01*
X6951071Y-14498214D01*
X7151071Y-14198214D02*
X7179643Y-14198214D01*
X7208214Y-14212500D01*
X7222500Y-14226786D01*
X7236786Y-14255357D01*
X7251071Y-14312500D01*
X7251071Y-14383929D01*
X7236786Y-14441071D01*
X7222500Y-14469643D01*
X7208214Y-14483929D01*
X7179643Y-14498214D01*
X7151071Y-14498214D01*
X7122500Y-14483929D01*
X7108214Y-14469643D01*
X7093928Y-14441071D01*
X7079643Y-14383929D01*
X7079643Y-14312500D01*
X7093928Y-14255357D01*
X7108214Y-14226786D01*
X7122500Y-14212500D01*
X7151071Y-14198214D01*
X7536786Y-14498214D02*
X7365357Y-14498214D01*
X7451071Y-14498214D02*
X7451071Y-14198214D01*
X7422500Y-14241071D01*
X7393928Y-14269643D01*
X7365357Y-14283929D01*
X7793928Y-14198214D02*
X7736786Y-14198214D01*
X7708214Y-14212500D01*
X7693928Y-14226786D01*
X7665357Y-14269643D01*
X7651071Y-14326786D01*
X7651071Y-14441071D01*
X7665357Y-14469643D01*
X7679643Y-14483929D01*
X7708214Y-14498214D01*
X7765357Y-14498214D01*
X7793928Y-14483929D01*
X7808214Y-14469643D01*
X7822500Y-14441071D01*
X7822500Y-14369643D01*
X7808214Y-14341071D01*
X7793928Y-14326786D01*
X7765357Y-14312500D01*
X7708214Y-14312500D01*
X7679643Y-14326786D01*
X7665357Y-14341071D01*
X7651071Y-14369643D01*
X7936786Y-14198214D02*
X7936786Y-14255357D01*
X8051071Y-14198214D02*
X8051071Y-14255357D01*
X8493928Y-14612500D02*
X8479643Y-14598214D01*
X8451071Y-14555357D01*
X8436786Y-14526786D01*
X8422500Y-14483929D01*
X8408214Y-14412500D01*
X8408214Y-14355357D01*
X8422500Y-14283929D01*
X8436786Y-14241071D01*
X8451071Y-14212500D01*
X8479643Y-14169643D01*
X8493928Y-14155357D01*
X8765357Y-14498214D02*
X8593928Y-14498214D01*
X8679643Y-14498214D02*
X8679643Y-14198214D01*
X8651071Y-14241071D01*
X8622500Y-14269643D01*
X8593928Y-14283929D01*
X9022500Y-14198214D02*
X8965357Y-14198214D01*
X8936786Y-14212500D01*
X8922500Y-14226786D01*
X8893928Y-14269643D01*
X8879643Y-14326786D01*
X8879643Y-14441071D01*
X8893928Y-14469643D01*
X8908214Y-14483929D01*
X8936786Y-14498214D01*
X8993928Y-14498214D01*
X9022500Y-14483929D01*
X9036786Y-14469643D01*
X9051071Y-14441071D01*
X9051071Y-14369643D01*
X9036786Y-14341071D01*
X9022500Y-14326786D01*
X8993928Y-14312500D01*
X8936786Y-14312500D01*
X8908214Y-14326786D01*
X8893928Y-14341071D01*
X8879643Y-14369643D01*
X9408214Y-14498214D02*
X9408214Y-14198214D01*
X9536786Y-14498214D02*
X9536786Y-14341071D01*
X9522500Y-14312500D01*
X9493928Y-14298214D01*
X9451071Y-14298214D01*
X9422500Y-14312500D01*
X9408214Y-14326786D01*
X9722500Y-14498214D02*
X9693928Y-14483929D01*
X9679643Y-14469643D01*
X9665357Y-14441071D01*
X9665357Y-14355357D01*
X9679643Y-14326786D01*
X9693928Y-14312500D01*
X9722500Y-14298214D01*
X9765357Y-14298214D01*
X9793928Y-14312500D01*
X9808214Y-14326786D01*
X9822500Y-14355357D01*
X9822500Y-14441071D01*
X9808214Y-14469643D01*
X9793928Y-14483929D01*
X9765357Y-14498214D01*
X9722500Y-14498214D01*
X9993928Y-14498214D02*
X9965357Y-14483929D01*
X9951071Y-14455357D01*
X9951071Y-14198214D01*
X10222500Y-14483929D02*
X10193928Y-14498214D01*
X10136786Y-14498214D01*
X10108214Y-14483929D01*
X10093928Y-14455357D01*
X10093928Y-14341071D01*
X10108214Y-14312500D01*
X10136786Y-14298214D01*
X10193928Y-14298214D01*
X10222500Y-14312500D01*
X10236786Y-14341071D01*
X10236786Y-14369643D01*
X10093928Y-14398214D01*
X10351071Y-14483929D02*
X10379643Y-14498214D01*
X10436786Y-14498214D01*
X10465357Y-14483929D01*
X10479643Y-14455357D01*
X10479643Y-14441071D01*
X10465357Y-14412500D01*
X10436786Y-14398214D01*
X10393928Y-14398214D01*
X10365357Y-14383929D01*
X10351071Y-14355357D01*
X10351071Y-14341071D01*
X10365357Y-14312500D01*
X10393928Y-14298214D01*
X10436786Y-14298214D01*
X10465357Y-14312500D01*
X10579643Y-14612500D02*
X10593928Y-14598214D01*
X10622500Y-14555357D01*
X10636786Y-14526786D01*
X10651071Y-14483929D01*
X10665357Y-14412500D01*
X10665357Y-14355357D01*
X10651071Y-14283929D01*
X10636786Y-14241071D01*
X10622500Y-14212500D01*
X10593928Y-14169643D01*
X10579643Y-14155357D01*
X3807500Y-14758500D02*
G75*
G03*
X3807500Y-14758500I-38100J0D01*
G01*
X4151071Y-14594214D02*
X4179643Y-14594214D01*
X4208214Y-14608500D01*
X4222500Y-14622786D01*
X4236786Y-14651357D01*
X4251071Y-14708500D01*
X4251071Y-14779929D01*
X4236786Y-14837071D01*
X4222500Y-14865643D01*
X4208214Y-14879929D01*
X4179643Y-14894214D01*
X4151071Y-14894214D01*
X4122500Y-14879929D01*
X4108214Y-14865643D01*
X4093928Y-14837071D01*
X4079643Y-14779929D01*
X4079643Y-14708500D01*
X4093928Y-14651357D01*
X4108214Y-14622786D01*
X4122500Y-14608500D01*
X4151071Y-14594214D01*
X4379643Y-14865643D02*
X4393928Y-14879929D01*
X4379643Y-14894214D01*
X4365357Y-14879929D01*
X4379643Y-14865643D01*
X4379643Y-14894214D01*
X4493928Y-14594214D02*
X4693928Y-14594214D01*
X4565357Y-14894214D01*
X4936786Y-14594214D02*
X4879643Y-14594214D01*
X4851071Y-14608500D01*
X4836786Y-14622786D01*
X4808214Y-14665643D01*
X4793928Y-14722786D01*
X4793928Y-14837071D01*
X4808214Y-14865643D01*
X4822500Y-14879929D01*
X4851071Y-14894214D01*
X4908214Y-14894214D01*
X4936786Y-14879929D01*
X4951071Y-14865643D01*
X4965357Y-14837071D01*
X4965357Y-14765643D01*
X4951071Y-14737071D01*
X4936786Y-14722786D01*
X4908214Y-14708500D01*
X4851071Y-14708500D01*
X4822500Y-14722786D01*
X4808214Y-14737071D01*
X4793928Y-14765643D01*
X5093928Y-14894214D02*
X5093928Y-14694214D01*
X5093928Y-14722786D02*
X5108214Y-14708500D01*
X5136786Y-14694214D01*
X5179643Y-14694214D01*
X5208214Y-14708500D01*
X5222500Y-14737071D01*
X5222500Y-14894214D01*
X5222500Y-14737071D02*
X5236786Y-14708500D01*
X5265357Y-14694214D01*
X5308214Y-14694214D01*
X5336786Y-14708500D01*
X5351071Y-14737071D01*
X5351071Y-14894214D01*
X5493928Y-14894214D02*
X5493928Y-14694214D01*
X5493928Y-14722786D02*
X5508214Y-14708500D01*
X5536786Y-14694214D01*
X5579643Y-14694214D01*
X5608214Y-14708500D01*
X5622500Y-14737071D01*
X5622500Y-14894214D01*
X5622500Y-14737071D02*
X5636786Y-14708500D01*
X5665357Y-14694214D01*
X5708214Y-14694214D01*
X5736786Y-14708500D01*
X5751071Y-14737071D01*
X5751071Y-14894214D01*
X6336786Y-14579929D02*
X6079643Y-14965643D01*
X6722500Y-14594214D02*
X6751071Y-14594214D01*
X6779643Y-14608500D01*
X6793928Y-14622786D01*
X6808214Y-14651357D01*
X6822500Y-14708500D01*
X6822500Y-14779929D01*
X6808214Y-14837071D01*
X6793928Y-14865643D01*
X6779643Y-14879929D01*
X6751071Y-14894214D01*
X6722500Y-14894214D01*
X6693928Y-14879929D01*
X6679643Y-14865643D01*
X6665357Y-14837071D01*
X6651071Y-14779929D01*
X6651071Y-14708500D01*
X6665357Y-14651357D01*
X6679643Y-14622786D01*
X6693928Y-14608500D01*
X6722500Y-14594214D01*
X6951071Y-14865643D02*
X6965357Y-14879929D01*
X6951071Y-14894214D01*
X6936786Y-14879929D01*
X6951071Y-14865643D01*
X6951071Y-14894214D01*
X7151071Y-14594214D02*
X7179643Y-14594214D01*
X7208214Y-14608500D01*
X7222500Y-14622786D01*
X7236786Y-14651357D01*
X7251071Y-14708500D01*
X7251071Y-14779929D01*
X7236786Y-14837071D01*
X7222500Y-14865643D01*
X7208214Y-14879929D01*
X7179643Y-14894214D01*
X7151071Y-14894214D01*
X7122500Y-14879929D01*
X7108214Y-14865643D01*
X7093928Y-14837071D01*
X7079643Y-14779929D01*
X7079643Y-14708500D01*
X7093928Y-14651357D01*
X7108214Y-14622786D01*
X7122500Y-14608500D01*
X7151071Y-14594214D01*
X7351071Y-14594214D02*
X7536786Y-14594214D01*
X7436786Y-14708500D01*
X7479643Y-14708500D01*
X7508214Y-14722786D01*
X7522500Y-14737071D01*
X7536786Y-14765643D01*
X7536786Y-14837071D01*
X7522500Y-14865643D01*
X7508214Y-14879929D01*
X7479643Y-14894214D01*
X7393928Y-14894214D01*
X7365357Y-14879929D01*
X7351071Y-14865643D01*
X7722500Y-14594214D02*
X7751071Y-14594214D01*
X7779643Y-14608500D01*
X7793928Y-14622786D01*
X7808214Y-14651357D01*
X7822500Y-14708500D01*
X7822500Y-14779929D01*
X7808214Y-14837071D01*
X7793928Y-14865643D01*
X7779643Y-14879929D01*
X7751071Y-14894214D01*
X7722500Y-14894214D01*
X7693928Y-14879929D01*
X7679643Y-14865643D01*
X7665357Y-14837071D01*
X7651071Y-14779929D01*
X7651071Y-14708500D01*
X7665357Y-14651357D01*
X7679643Y-14622786D01*
X7693928Y-14608500D01*
X7722500Y-14594214D01*
X7936786Y-14594214D02*
X7936786Y-14651357D01*
X8051071Y-14594214D02*
X8051071Y-14651357D01*
X8493928Y-15008500D02*
X8479643Y-14994214D01*
X8451071Y-14951357D01*
X8436786Y-14922786D01*
X8422500Y-14879929D01*
X8408214Y-14808500D01*
X8408214Y-14751357D01*
X8422500Y-14679929D01*
X8436786Y-14637071D01*
X8451071Y-14608500D01*
X8479643Y-14565643D01*
X8493928Y-14551357D01*
X8651071Y-14722786D02*
X8622500Y-14708500D01*
X8608214Y-14694214D01*
X8593928Y-14665643D01*
X8593928Y-14651357D01*
X8608214Y-14622786D01*
X8622500Y-14608500D01*
X8651071Y-14594214D01*
X8708214Y-14594214D01*
X8736786Y-14608500D01*
X8751071Y-14622786D01*
X8765357Y-14651357D01*
X8765357Y-14665643D01*
X8751071Y-14694214D01*
X8736786Y-14708500D01*
X8708214Y-14722786D01*
X8651071Y-14722786D01*
X8622500Y-14737071D01*
X8608214Y-14751357D01*
X8593928Y-14779929D01*
X8593928Y-14837071D01*
X8608214Y-14865643D01*
X8622500Y-14879929D01*
X8651071Y-14894214D01*
X8708214Y-14894214D01*
X8736786Y-14879929D01*
X8751071Y-14865643D01*
X8765357Y-14837071D01*
X8765357Y-14779929D01*
X8751071Y-14751357D01*
X8736786Y-14737071D01*
X8708214Y-14722786D01*
X9122500Y-14894214D02*
X9122500Y-14594214D01*
X9251071Y-14894214D02*
X9251071Y-14737071D01*
X9236786Y-14708500D01*
X9208214Y-14694214D01*
X9165357Y-14694214D01*
X9136786Y-14708500D01*
X9122500Y-14722786D01*
X9436786Y-14894214D02*
X9408214Y-14879929D01*
X9393928Y-14865643D01*
X9379643Y-14837071D01*
X9379643Y-14751357D01*
X9393928Y-14722786D01*
X9408214Y-14708500D01*
X9436786Y-14694214D01*
X9479643Y-14694214D01*
X9508214Y-14708500D01*
X9522500Y-14722786D01*
X9536786Y-14751357D01*
X9536786Y-14837071D01*
X9522500Y-14865643D01*
X9508214Y-14879929D01*
X9479643Y-14894214D01*
X9436786Y-14894214D01*
X9708214Y-14894214D02*
X9679643Y-14879929D01*
X9665357Y-14851357D01*
X9665357Y-14594214D01*
X9936786Y-14879929D02*
X9908214Y-14894214D01*
X9851071Y-14894214D01*
X9822500Y-14879929D01*
X9808214Y-14851357D01*
X9808214Y-14737071D01*
X9822500Y-14708500D01*
X9851071Y-14694214D01*
X9908214Y-14694214D01*
X9936786Y-14708500D01*
X9951071Y-14737071D01*
X9951071Y-14765643D01*
X9808214Y-14794214D01*
X10065357Y-14879929D02*
X10093928Y-14894214D01*
X10151071Y-14894214D01*
X10179643Y-14879929D01*
X10193928Y-14851357D01*
X10193928Y-14837071D01*
X10179643Y-14808500D01*
X10151071Y-14794214D01*
X10108214Y-14794214D01*
X10079643Y-14779929D01*
X10065357Y-14751357D01*
X10065357Y-14737071D01*
X10079643Y-14708500D01*
X10108214Y-14694214D01*
X10151071Y-14694214D01*
X10179643Y-14708500D01*
X10293928Y-15008500D02*
X10308214Y-14994214D01*
X10336786Y-14951357D01*
X10351071Y-14922786D01*
X10365357Y-14879929D01*
X10379643Y-14808500D01*
X10379643Y-14751357D01*
X10365357Y-14679929D01*
X10351071Y-14637071D01*
X10336786Y-14608500D01*
X10308214Y-14565643D01*
X10293928Y-14551357D01*
X3767500Y-15114500D02*
X3767500Y-15194500D01*
X3727500Y-15154500D02*
X3807500Y-15154500D01*
X4151071Y-14990214D02*
X4179643Y-14990214D01*
X4208214Y-15004500D01*
X4222500Y-15018786D01*
X4236786Y-15047357D01*
X4251071Y-15104500D01*
X4251071Y-15175929D01*
X4236786Y-15233071D01*
X4222500Y-15261643D01*
X4208214Y-15275929D01*
X4179643Y-15290214D01*
X4151071Y-15290214D01*
X4122500Y-15275929D01*
X4108214Y-15261643D01*
X4093928Y-15233071D01*
X4079643Y-15175929D01*
X4079643Y-15104500D01*
X4093928Y-15047357D01*
X4108214Y-15018786D01*
X4122500Y-15004500D01*
X4151071Y-14990214D01*
X4379643Y-15261643D02*
X4393928Y-15275929D01*
X4379643Y-15290214D01*
X4365357Y-15275929D01*
X4379643Y-15261643D01*
X4379643Y-15290214D01*
X4565357Y-15118786D02*
X4536786Y-15104500D01*
X4522500Y-15090214D01*
X4508214Y-15061643D01*
X4508214Y-15047357D01*
X4522500Y-15018786D01*
X4536786Y-15004500D01*
X4565357Y-14990214D01*
X4622500Y-14990214D01*
X4651071Y-15004500D01*
X4665357Y-15018786D01*
X4679643Y-15047357D01*
X4679643Y-15061643D01*
X4665357Y-15090214D01*
X4651071Y-15104500D01*
X4622500Y-15118786D01*
X4565357Y-15118786D01*
X4536786Y-15133071D01*
X4522500Y-15147357D01*
X4508214Y-15175929D01*
X4508214Y-15233071D01*
X4522500Y-15261643D01*
X4536786Y-15275929D01*
X4565357Y-15290214D01*
X4622500Y-15290214D01*
X4651071Y-15275929D01*
X4665357Y-15261643D01*
X4679643Y-15233071D01*
X4679643Y-15175929D01*
X4665357Y-15147357D01*
X4651071Y-15133071D01*
X4622500Y-15118786D01*
X4865357Y-14990214D02*
X4893928Y-14990214D01*
X4922500Y-15004500D01*
X4936786Y-15018786D01*
X4951071Y-15047357D01*
X4965357Y-15104500D01*
X4965357Y-15175929D01*
X4951071Y-15233071D01*
X4936786Y-15261643D01*
X4922500Y-15275929D01*
X4893928Y-15290214D01*
X4865357Y-15290214D01*
X4836786Y-15275929D01*
X4822500Y-15261643D01*
X4808214Y-15233071D01*
X4793928Y-15175929D01*
X4793928Y-15104500D01*
X4808214Y-15047357D01*
X4822500Y-15018786D01*
X4836786Y-15004500D01*
X4865357Y-14990214D01*
X5093928Y-15290214D02*
X5093928Y-15090214D01*
X5093928Y-15118786D02*
X5108214Y-15104500D01*
X5136786Y-15090214D01*
X5179643Y-15090214D01*
X5208214Y-15104500D01*
X5222500Y-15133071D01*
X5222500Y-15290214D01*
X5222500Y-15133071D02*
X5236786Y-15104500D01*
X5265357Y-15090214D01*
X5308214Y-15090214D01*
X5336786Y-15104500D01*
X5351071Y-15133071D01*
X5351071Y-15290214D01*
X5493928Y-15290214D02*
X5493928Y-15090214D01*
X5493928Y-15118786D02*
X5508214Y-15104500D01*
X5536786Y-15090214D01*
X5579643Y-15090214D01*
X5608214Y-15104500D01*
X5622500Y-15133071D01*
X5622500Y-15290214D01*
X5622500Y-15133071D02*
X5636786Y-15104500D01*
X5665357Y-15090214D01*
X5708214Y-15090214D01*
X5736786Y-15104500D01*
X5751071Y-15133071D01*
X5751071Y-15290214D01*
X6336786Y-14975929D02*
X6079643Y-15361643D01*
X6722500Y-14990214D02*
X6751071Y-14990214D01*
X6779643Y-15004500D01*
X6793928Y-15018786D01*
X6808214Y-15047357D01*
X6822500Y-15104500D01*
X6822500Y-15175929D01*
X6808214Y-15233071D01*
X6793928Y-15261643D01*
X6779643Y-15275929D01*
X6751071Y-15290214D01*
X6722500Y-15290214D01*
X6693928Y-15275929D01*
X6679643Y-15261643D01*
X6665357Y-15233071D01*
X6651071Y-15175929D01*
X6651071Y-15104500D01*
X6665357Y-15047357D01*
X6679643Y-15018786D01*
X6693928Y-15004500D01*
X6722500Y-14990214D01*
X6951071Y-15261643D02*
X6965357Y-15275929D01*
X6951071Y-15290214D01*
X6936786Y-15275929D01*
X6951071Y-15261643D01*
X6951071Y-15290214D01*
X7151071Y-14990214D02*
X7179643Y-14990214D01*
X7208214Y-15004500D01*
X7222500Y-15018786D01*
X7236786Y-15047357D01*
X7251071Y-15104500D01*
X7251071Y-15175929D01*
X7236786Y-15233071D01*
X7222500Y-15261643D01*
X7208214Y-15275929D01*
X7179643Y-15290214D01*
X7151071Y-15290214D01*
X7122500Y-15275929D01*
X7108214Y-15261643D01*
X7093928Y-15233071D01*
X7079643Y-15175929D01*
X7079643Y-15104500D01*
X7093928Y-15047357D01*
X7108214Y-15018786D01*
X7122500Y-15004500D01*
X7151071Y-14990214D01*
X7351071Y-14990214D02*
X7536786Y-14990214D01*
X7436786Y-15104500D01*
X7479643Y-15104500D01*
X7508214Y-15118786D01*
X7522500Y-15133071D01*
X7536786Y-15161643D01*
X7536786Y-15233071D01*
X7522500Y-15261643D01*
X7508214Y-15275929D01*
X7479643Y-15290214D01*
X7393928Y-15290214D01*
X7365357Y-15275929D01*
X7351071Y-15261643D01*
X7822500Y-15290214D02*
X7651071Y-15290214D01*
X7736786Y-15290214D02*
X7736786Y-14990214D01*
X7708214Y-15033071D01*
X7679643Y-15061643D01*
X7651071Y-15075929D01*
X7936786Y-14990214D02*
X7936786Y-15047357D01*
X8051071Y-14990214D02*
X8051071Y-15047357D01*
X8493928Y-15404500D02*
X8479643Y-15390214D01*
X8451071Y-15347357D01*
X8436786Y-15318786D01*
X8422500Y-15275929D01*
X8408214Y-15204500D01*
X8408214Y-15147357D01*
X8422500Y-15075929D01*
X8436786Y-15033071D01*
X8451071Y-15004500D01*
X8479643Y-14961643D01*
X8493928Y-14947357D01*
X8579643Y-14990214D02*
X8779643Y-14990214D01*
X8651071Y-15290214D01*
X9022500Y-14990214D02*
X8965357Y-14990214D01*
X8936786Y-15004500D01*
X8922500Y-15018786D01*
X8893928Y-15061643D01*
X8879643Y-15118786D01*
X8879643Y-15233071D01*
X8893928Y-15261643D01*
X8908214Y-15275929D01*
X8936786Y-15290214D01*
X8993928Y-15290214D01*
X9022500Y-15275929D01*
X9036786Y-15261643D01*
X9051071Y-15233071D01*
X9051071Y-15161643D01*
X9036786Y-15133071D01*
X9022500Y-15118786D01*
X8993928Y-15104500D01*
X8936786Y-15104500D01*
X8908214Y-15118786D01*
X8893928Y-15133071D01*
X8879643Y-15161643D01*
X9408214Y-15290214D02*
X9408214Y-14990214D01*
X9536786Y-15290214D02*
X9536786Y-15133071D01*
X9522500Y-15104500D01*
X9493928Y-15090214D01*
X9451071Y-15090214D01*
X9422500Y-15104500D01*
X9408214Y-15118786D01*
X9722500Y-15290214D02*
X9693928Y-15275929D01*
X9679643Y-15261643D01*
X9665357Y-15233071D01*
X9665357Y-15147357D01*
X9679643Y-15118786D01*
X9693928Y-15104500D01*
X9722500Y-15090214D01*
X9765357Y-15090214D01*
X9793928Y-15104500D01*
X9808214Y-15118786D01*
X9822500Y-15147357D01*
X9822500Y-15233071D01*
X9808214Y-15261643D01*
X9793928Y-15275929D01*
X9765357Y-15290214D01*
X9722500Y-15290214D01*
X9993928Y-15290214D02*
X9965357Y-15275929D01*
X9951071Y-15247357D01*
X9951071Y-14990214D01*
X10222500Y-15275929D02*
X10193928Y-15290214D01*
X10136786Y-15290214D01*
X10108214Y-15275929D01*
X10093928Y-15247357D01*
X10093928Y-15133071D01*
X10108214Y-15104500D01*
X10136786Y-15090214D01*
X10193928Y-15090214D01*
X10222500Y-15104500D01*
X10236786Y-15133071D01*
X10236786Y-15161643D01*
X10093928Y-15190214D01*
X10351071Y-15275929D02*
X10379643Y-15290214D01*
X10436786Y-15290214D01*
X10465357Y-15275929D01*
X10479643Y-15247357D01*
X10479643Y-15233071D01*
X10465357Y-15204500D01*
X10436786Y-15190214D01*
X10393928Y-15190214D01*
X10365357Y-15175929D01*
X10351071Y-15147357D01*
X10351071Y-15133071D01*
X10365357Y-15104500D01*
X10393928Y-15090214D01*
X10436786Y-15090214D01*
X10465357Y-15104500D01*
X10579643Y-15404500D02*
X10593928Y-15390214D01*
X10622500Y-15347357D01*
X10636786Y-15318786D01*
X10651071Y-15275929D01*
X10665357Y-15204500D01*
X10665357Y-15147357D01*
X10651071Y-15075929D01*
X10636786Y-15033071D01*
X10622500Y-15004500D01*
X10593928Y-14961643D01*
X10579643Y-14947357D01*
X3794320Y-15582320D02*
X3794320Y-15518680D01*
X3730680Y-15518680D01*
X3730680Y-15582320D01*
X3794320Y-15582320D01*
X4151071Y-15386214D02*
X4179643Y-15386214D01*
X4208214Y-15400500D01*
X4222500Y-15414786D01*
X4236786Y-15443357D01*
X4251071Y-15500500D01*
X4251071Y-15571929D01*
X4236786Y-15629071D01*
X4222500Y-15657643D01*
X4208214Y-15671929D01*
X4179643Y-15686214D01*
X4151071Y-15686214D01*
X4122500Y-15671929D01*
X4108214Y-15657643D01*
X4093928Y-15629071D01*
X4079643Y-15571929D01*
X4079643Y-15500500D01*
X4093928Y-15443357D01*
X4108214Y-15414786D01*
X4122500Y-15400500D01*
X4151071Y-15386214D01*
X4379643Y-15657643D02*
X4393928Y-15671929D01*
X4379643Y-15686214D01*
X4365357Y-15671929D01*
X4379643Y-15657643D01*
X4379643Y-15686214D01*
X4536786Y-15686214D02*
X4593928Y-15686214D01*
X4622500Y-15671929D01*
X4636786Y-15657643D01*
X4665357Y-15614786D01*
X4679643Y-15557643D01*
X4679643Y-15443357D01*
X4665357Y-15414786D01*
X4651071Y-15400500D01*
X4622500Y-15386214D01*
X4565357Y-15386214D01*
X4536786Y-15400500D01*
X4522500Y-15414786D01*
X4508214Y-15443357D01*
X4508214Y-15514786D01*
X4522500Y-15543357D01*
X4536786Y-15557643D01*
X4565357Y-15571929D01*
X4622500Y-15571929D01*
X4651071Y-15557643D01*
X4665357Y-15543357D01*
X4679643Y-15514786D01*
X4865357Y-15386214D02*
X4893928Y-15386214D01*
X4922500Y-15400500D01*
X4936786Y-15414786D01*
X4951071Y-15443357D01*
X4965357Y-15500500D01*
X4965357Y-15571929D01*
X4951071Y-15629071D01*
X4936786Y-15657643D01*
X4922500Y-15671929D01*
X4893928Y-15686214D01*
X4865357Y-15686214D01*
X4836786Y-15671929D01*
X4822500Y-15657643D01*
X4808214Y-15629071D01*
X4793928Y-15571929D01*
X4793928Y-15500500D01*
X4808214Y-15443357D01*
X4822500Y-15414786D01*
X4836786Y-15400500D01*
X4865357Y-15386214D01*
X5093928Y-15686214D02*
X5093928Y-15486214D01*
X5093928Y-15514786D02*
X5108214Y-15500500D01*
X5136786Y-15486214D01*
X5179643Y-15486214D01*
X5208214Y-15500500D01*
X5222500Y-15529071D01*
X5222500Y-15686214D01*
X5222500Y-15529071D02*
X5236786Y-15500500D01*
X5265357Y-15486214D01*
X5308214Y-15486214D01*
X5336786Y-15500500D01*
X5351071Y-15529071D01*
X5351071Y-15686214D01*
X5493928Y-15686214D02*
X5493928Y-15486214D01*
X5493928Y-15514786D02*
X5508214Y-15500500D01*
X5536786Y-15486214D01*
X5579643Y-15486214D01*
X5608214Y-15500500D01*
X5622500Y-15529071D01*
X5622500Y-15686214D01*
X5622500Y-15529071D02*
X5636786Y-15500500D01*
X5665357Y-15486214D01*
X5708214Y-15486214D01*
X5736786Y-15500500D01*
X5751071Y-15529071D01*
X5751071Y-15686214D01*
X6336786Y-15371929D02*
X6079643Y-15757643D01*
X6722500Y-15386214D02*
X6751071Y-15386214D01*
X6779643Y-15400500D01*
X6793928Y-15414786D01*
X6808214Y-15443357D01*
X6822500Y-15500500D01*
X6822500Y-15571929D01*
X6808214Y-15629071D01*
X6793928Y-15657643D01*
X6779643Y-15671929D01*
X6751071Y-15686214D01*
X6722500Y-15686214D01*
X6693928Y-15671929D01*
X6679643Y-15657643D01*
X6665357Y-15629071D01*
X6651071Y-15571929D01*
X6651071Y-15500500D01*
X6665357Y-15443357D01*
X6679643Y-15414786D01*
X6693928Y-15400500D01*
X6722500Y-15386214D01*
X6951071Y-15657643D02*
X6965357Y-15671929D01*
X6951071Y-15686214D01*
X6936786Y-15671929D01*
X6951071Y-15657643D01*
X6951071Y-15686214D01*
X7151071Y-15386214D02*
X7179643Y-15386214D01*
X7208214Y-15400500D01*
X7222500Y-15414786D01*
X7236786Y-15443357D01*
X7251071Y-15500500D01*
X7251071Y-15571929D01*
X7236786Y-15629071D01*
X7222500Y-15657643D01*
X7208214Y-15671929D01*
X7179643Y-15686214D01*
X7151071Y-15686214D01*
X7122500Y-15671929D01*
X7108214Y-15657643D01*
X7093928Y-15629071D01*
X7079643Y-15571929D01*
X7079643Y-15500500D01*
X7093928Y-15443357D01*
X7108214Y-15414786D01*
X7122500Y-15400500D01*
X7151071Y-15386214D01*
X7351071Y-15386214D02*
X7536786Y-15386214D01*
X7436786Y-15500500D01*
X7479643Y-15500500D01*
X7508214Y-15514786D01*
X7522500Y-15529071D01*
X7536786Y-15557643D01*
X7536786Y-15629071D01*
X7522500Y-15657643D01*
X7508214Y-15671929D01*
X7479643Y-15686214D01*
X7393928Y-15686214D01*
X7365357Y-15671929D01*
X7351071Y-15657643D01*
X7808214Y-15386214D02*
X7665357Y-15386214D01*
X7651071Y-15529071D01*
X7665357Y-15514786D01*
X7693928Y-15500500D01*
X7765357Y-15500500D01*
X7793928Y-15514786D01*
X7808214Y-15529071D01*
X7822500Y-15557643D01*
X7822500Y-15629071D01*
X7808214Y-15657643D01*
X7793928Y-15671929D01*
X7765357Y-15686214D01*
X7693928Y-15686214D01*
X7665357Y-15671929D01*
X7651071Y-15657643D01*
X7936786Y-15386214D02*
X7936786Y-15443357D01*
X8051071Y-15386214D02*
X8051071Y-15443357D01*
X8493928Y-15800500D02*
X8479643Y-15786214D01*
X8451071Y-15743357D01*
X8436786Y-15714786D01*
X8422500Y-15671929D01*
X8408214Y-15600500D01*
X8408214Y-15543357D01*
X8422500Y-15471929D01*
X8436786Y-15429071D01*
X8451071Y-15400500D01*
X8479643Y-15357643D01*
X8493928Y-15343357D01*
X8593928Y-15414786D02*
X8608214Y-15400500D01*
X8636786Y-15386214D01*
X8708214Y-15386214D01*
X8736786Y-15400500D01*
X8751071Y-15414786D01*
X8765357Y-15443357D01*
X8765357Y-15471929D01*
X8751071Y-15514786D01*
X8579643Y-15686214D01*
X8765357Y-15686214D01*
X9122500Y-15686214D02*
X9122500Y-15386214D01*
X9251071Y-15686214D02*
X9251071Y-15529071D01*
X9236786Y-15500500D01*
X9208214Y-15486214D01*
X9165357Y-15486214D01*
X9136786Y-15500500D01*
X9122500Y-15514786D01*
X9436786Y-15686214D02*
X9408214Y-15671929D01*
X9393928Y-15657643D01*
X9379643Y-15629071D01*
X9379643Y-15543357D01*
X9393928Y-15514786D01*
X9408214Y-15500500D01*
X9436786Y-15486214D01*
X9479643Y-15486214D01*
X9508214Y-15500500D01*
X9522500Y-15514786D01*
X9536786Y-15543357D01*
X9536786Y-15629071D01*
X9522500Y-15657643D01*
X9508214Y-15671929D01*
X9479643Y-15686214D01*
X9436786Y-15686214D01*
X9708214Y-15686214D02*
X9679643Y-15671929D01*
X9665357Y-15643357D01*
X9665357Y-15386214D01*
X9936786Y-15671929D02*
X9908214Y-15686214D01*
X9851071Y-15686214D01*
X9822500Y-15671929D01*
X9808214Y-15643357D01*
X9808214Y-15529071D01*
X9822500Y-15500500D01*
X9851071Y-15486214D01*
X9908214Y-15486214D01*
X9936786Y-15500500D01*
X9951071Y-15529071D01*
X9951071Y-15557643D01*
X9808214Y-15586214D01*
X10065357Y-15671929D02*
X10093928Y-15686214D01*
X10151071Y-15686214D01*
X10179643Y-15671929D01*
X10193928Y-15643357D01*
X10193928Y-15629071D01*
X10179643Y-15600500D01*
X10151071Y-15586214D01*
X10108214Y-15586214D01*
X10079643Y-15571929D01*
X10065357Y-15543357D01*
X10065357Y-15529071D01*
X10079643Y-15500500D01*
X10108214Y-15486214D01*
X10151071Y-15486214D01*
X10179643Y-15500500D01*
X10293928Y-15800500D02*
X10308214Y-15786214D01*
X10336786Y-15743357D01*
X10351071Y-15714786D01*
X10365357Y-15671929D01*
X10379643Y-15600500D01*
X10379643Y-15543357D01*
X10365357Y-15471929D01*
X10351071Y-15429071D01*
X10336786Y-15400500D01*
X10308214Y-15357643D01*
X10293928Y-15343357D01*
X3760000Y-15994000D02*
X3807500Y-15946500D01*
X3760000Y-15899000D01*
X3712500Y-15946500D01*
X3760000Y-15994000D01*
X4151071Y-15782214D02*
X4179643Y-15782214D01*
X4208214Y-15796500D01*
X4222500Y-15810786D01*
X4236786Y-15839357D01*
X4251071Y-15896500D01*
X4251071Y-15967929D01*
X4236786Y-16025071D01*
X4222500Y-16053643D01*
X4208214Y-16067929D01*
X4179643Y-16082214D01*
X4151071Y-16082214D01*
X4122500Y-16067929D01*
X4108214Y-16053643D01*
X4093928Y-16025071D01*
X4079643Y-15967929D01*
X4079643Y-15896500D01*
X4093928Y-15839357D01*
X4108214Y-15810786D01*
X4122500Y-15796500D01*
X4151071Y-15782214D01*
X4379643Y-16053643D02*
X4393928Y-16067929D01*
X4379643Y-16082214D01*
X4365357Y-16067929D01*
X4379643Y-16053643D01*
X4379643Y-16082214D01*
X4536786Y-16082214D02*
X4593928Y-16082214D01*
X4622500Y-16067929D01*
X4636786Y-16053643D01*
X4665357Y-16010786D01*
X4679643Y-15953643D01*
X4679643Y-15839357D01*
X4665357Y-15810786D01*
X4651071Y-15796500D01*
X4622500Y-15782214D01*
X4565357Y-15782214D01*
X4536786Y-15796500D01*
X4522500Y-15810786D01*
X4508214Y-15839357D01*
X4508214Y-15910786D01*
X4522500Y-15939357D01*
X4536786Y-15953643D01*
X4565357Y-15967929D01*
X4622500Y-15967929D01*
X4651071Y-15953643D01*
X4665357Y-15939357D01*
X4679643Y-15910786D01*
X4951071Y-15782214D02*
X4808214Y-15782214D01*
X4793928Y-15925071D01*
X4808214Y-15910786D01*
X4836786Y-15896500D01*
X4908214Y-15896500D01*
X4936786Y-15910786D01*
X4951071Y-15925071D01*
X4965357Y-15953643D01*
X4965357Y-16025071D01*
X4951071Y-16053643D01*
X4936786Y-16067929D01*
X4908214Y-16082214D01*
X4836786Y-16082214D01*
X4808214Y-16067929D01*
X4793928Y-16053643D01*
X5093928Y-16082214D02*
X5093928Y-15882214D01*
X5093928Y-15910786D02*
X5108214Y-15896500D01*
X5136786Y-15882214D01*
X5179643Y-15882214D01*
X5208214Y-15896500D01*
X5222500Y-15925071D01*
X5222500Y-16082214D01*
X5222500Y-15925071D02*
X5236786Y-15896500D01*
X5265357Y-15882214D01*
X5308214Y-15882214D01*
X5336786Y-15896500D01*
X5351071Y-15925071D01*
X5351071Y-16082214D01*
X5493928Y-16082214D02*
X5493928Y-15882214D01*
X5493928Y-15910786D02*
X5508214Y-15896500D01*
X5536786Y-15882214D01*
X5579643Y-15882214D01*
X5608214Y-15896500D01*
X5622500Y-15925071D01*
X5622500Y-16082214D01*
X5622500Y-15925071D02*
X5636786Y-15896500D01*
X5665357Y-15882214D01*
X5708214Y-15882214D01*
X5736786Y-15896500D01*
X5751071Y-15925071D01*
X5751071Y-16082214D01*
X6336786Y-15767929D02*
X6079643Y-16153643D01*
X6722500Y-15782214D02*
X6751071Y-15782214D01*
X6779643Y-15796500D01*
X6793928Y-15810786D01*
X6808214Y-15839357D01*
X6822500Y-15896500D01*
X6822500Y-15967929D01*
X6808214Y-16025071D01*
X6793928Y-16053643D01*
X6779643Y-16067929D01*
X6751071Y-16082214D01*
X6722500Y-16082214D01*
X6693928Y-16067929D01*
X6679643Y-16053643D01*
X6665357Y-16025071D01*
X6651071Y-15967929D01*
X6651071Y-15896500D01*
X6665357Y-15839357D01*
X6679643Y-15810786D01*
X6693928Y-15796500D01*
X6722500Y-15782214D01*
X6951071Y-16053643D02*
X6965357Y-16067929D01*
X6951071Y-16082214D01*
X6936786Y-16067929D01*
X6951071Y-16053643D01*
X6951071Y-16082214D01*
X7151071Y-15782214D02*
X7179643Y-15782214D01*
X7208214Y-15796500D01*
X7222500Y-15810786D01*
X7236786Y-15839357D01*
X7251071Y-15896500D01*
X7251071Y-15967929D01*
X7236786Y-16025071D01*
X7222500Y-16053643D01*
X7208214Y-16067929D01*
X7179643Y-16082214D01*
X7151071Y-16082214D01*
X7122500Y-16067929D01*
X7108214Y-16053643D01*
X7093928Y-16025071D01*
X7079643Y-15967929D01*
X7079643Y-15896500D01*
X7093928Y-15839357D01*
X7108214Y-15810786D01*
X7122500Y-15796500D01*
X7151071Y-15782214D01*
X7351071Y-15782214D02*
X7536786Y-15782214D01*
X7436786Y-15896500D01*
X7479643Y-15896500D01*
X7508214Y-15910786D01*
X7522500Y-15925071D01*
X7536786Y-15953643D01*
X7536786Y-16025071D01*
X7522500Y-16053643D01*
X7508214Y-16067929D01*
X7479643Y-16082214D01*
X7393928Y-16082214D01*
X7365357Y-16067929D01*
X7351071Y-16053643D01*
X7636786Y-15782214D02*
X7836786Y-15782214D01*
X7708214Y-16082214D01*
X7936786Y-15782214D02*
X7936786Y-15839357D01*
X8051071Y-15782214D02*
X8051071Y-15839357D01*
X8493928Y-16196500D02*
X8479643Y-16182214D01*
X8451071Y-16139357D01*
X8436786Y-16110786D01*
X8422500Y-16067929D01*
X8408214Y-15996500D01*
X8408214Y-15939357D01*
X8422500Y-15867929D01*
X8436786Y-15825071D01*
X8451071Y-15796500D01*
X8479643Y-15753643D01*
X8493928Y-15739357D01*
X8765357Y-16082214D02*
X8593928Y-16082214D01*
X8679643Y-16082214D02*
X8679643Y-15782214D01*
X8651071Y-15825071D01*
X8622500Y-15853643D01*
X8593928Y-15867929D01*
X9051071Y-16082214D02*
X8879643Y-16082214D01*
X8965357Y-16082214D02*
X8965357Y-15782214D01*
X8936786Y-15825071D01*
X8908214Y-15853643D01*
X8879643Y-15867929D01*
X9193928Y-16082214D02*
X9251071Y-16082214D01*
X9279643Y-16067929D01*
X9293928Y-16053643D01*
X9322500Y-16010786D01*
X9336786Y-15953643D01*
X9336786Y-15839357D01*
X9322500Y-15810786D01*
X9308214Y-15796500D01*
X9279643Y-15782214D01*
X9222500Y-15782214D01*
X9193928Y-15796500D01*
X9179643Y-15810786D01*
X9165357Y-15839357D01*
X9165357Y-15910786D01*
X9179643Y-15939357D01*
X9193928Y-15953643D01*
X9222500Y-15967929D01*
X9279643Y-15967929D01*
X9308214Y-15953643D01*
X9322500Y-15939357D01*
X9336786Y-15910786D01*
X9693928Y-16082214D02*
X9693928Y-15782214D01*
X9822500Y-16082214D02*
X9822500Y-15925071D01*
X9808214Y-15896500D01*
X9779643Y-15882214D01*
X9736786Y-15882214D01*
X9708214Y-15896500D01*
X9693928Y-15910786D01*
X10008214Y-16082214D02*
X9979643Y-16067929D01*
X9965357Y-16053643D01*
X9951071Y-16025071D01*
X9951071Y-15939357D01*
X9965357Y-15910786D01*
X9979643Y-15896500D01*
X10008214Y-15882214D01*
X10051071Y-15882214D01*
X10079643Y-15896500D01*
X10093928Y-15910786D01*
X10108214Y-15939357D01*
X10108214Y-16025071D01*
X10093928Y-16053643D01*
X10079643Y-16067929D01*
X10051071Y-16082214D01*
X10008214Y-16082214D01*
X10279643Y-16082214D02*
X10251071Y-16067929D01*
X10236786Y-16039357D01*
X10236786Y-15782214D01*
X10508214Y-16067929D02*
X10479643Y-16082214D01*
X10422500Y-16082214D01*
X10393928Y-16067929D01*
X10379643Y-16039357D01*
X10379643Y-15925071D01*
X10393928Y-15896500D01*
X10422500Y-15882214D01*
X10479643Y-15882214D01*
X10508214Y-15896500D01*
X10522500Y-15925071D01*
X10522500Y-15953643D01*
X10379643Y-15982214D01*
X10636786Y-16067929D02*
X10665357Y-16082214D01*
X10722500Y-16082214D01*
X10751071Y-16067929D01*
X10765357Y-16039357D01*
X10765357Y-16025071D01*
X10751071Y-15996500D01*
X10722500Y-15982214D01*
X10679643Y-15982214D01*
X10651071Y-15967929D01*
X10636786Y-15939357D01*
X10636786Y-15925071D01*
X10651071Y-15896500D01*
X10679643Y-15882214D01*
X10722500Y-15882214D01*
X10751071Y-15896500D01*
X10865357Y-16196500D02*
X10879643Y-16182214D01*
X10908214Y-16139357D01*
X10922500Y-16110786D01*
X10936786Y-16067929D01*
X10951071Y-15996500D01*
X10951071Y-15939357D01*
X10936786Y-15867929D01*
X10922500Y-15825071D01*
X10908214Y-15796500D01*
X10879643Y-15753643D01*
X10865357Y-15739357D01*
X3707500Y-16292500D02*
X3807500Y-16392500D01*
X3807500Y-16292500D02*
X3707500Y-16392500D01*
X3807500Y-16342500D02*
G75*
G03*
X3807500Y-16342500I-50000J0D01*
G01*
X4251071Y-16478214D02*
X4079643Y-16478214D01*
X4165357Y-16478214D02*
X4165357Y-16178214D01*
X4136786Y-16221071D01*
X4108214Y-16249643D01*
X4079643Y-16263929D01*
X4379643Y-16449643D02*
X4393928Y-16463929D01*
X4379643Y-16478214D01*
X4365357Y-16463929D01*
X4379643Y-16449643D01*
X4379643Y-16478214D01*
X4579643Y-16178214D02*
X4608214Y-16178214D01*
X4636786Y-16192500D01*
X4651071Y-16206786D01*
X4665357Y-16235357D01*
X4679643Y-16292500D01*
X4679643Y-16363929D01*
X4665357Y-16421071D01*
X4651071Y-16449643D01*
X4636786Y-16463929D01*
X4608214Y-16478214D01*
X4579643Y-16478214D01*
X4551071Y-16463929D01*
X4536786Y-16449643D01*
X4522500Y-16421071D01*
X4508214Y-16363929D01*
X4508214Y-16292500D01*
X4522500Y-16235357D01*
X4536786Y-16206786D01*
X4551071Y-16192500D01*
X4579643Y-16178214D01*
X4865357Y-16178214D02*
X4893928Y-16178214D01*
X4922500Y-16192500D01*
X4936786Y-16206786D01*
X4951071Y-16235357D01*
X4965357Y-16292500D01*
X4965357Y-16363929D01*
X4951071Y-16421071D01*
X4936786Y-16449643D01*
X4922500Y-16463929D01*
X4893928Y-16478214D01*
X4865357Y-16478214D01*
X4836786Y-16463929D01*
X4822500Y-16449643D01*
X4808214Y-16421071D01*
X4793928Y-16363929D01*
X4793928Y-16292500D01*
X4808214Y-16235357D01*
X4822500Y-16206786D01*
X4836786Y-16192500D01*
X4865357Y-16178214D01*
X5093928Y-16478214D02*
X5093928Y-16278214D01*
X5093928Y-16306786D02*
X5108214Y-16292500D01*
X5136786Y-16278214D01*
X5179643Y-16278214D01*
X5208214Y-16292500D01*
X5222500Y-16321071D01*
X5222500Y-16478214D01*
X5222500Y-16321071D02*
X5236786Y-16292500D01*
X5265357Y-16278214D01*
X5308214Y-16278214D01*
X5336786Y-16292500D01*
X5351071Y-16321071D01*
X5351071Y-16478214D01*
X5493928Y-16478214D02*
X5493928Y-16278214D01*
X5493928Y-16306786D02*
X5508214Y-16292500D01*
X5536786Y-16278214D01*
X5579643Y-16278214D01*
X5608214Y-16292500D01*
X5622500Y-16321071D01*
X5622500Y-16478214D01*
X5622500Y-16321071D02*
X5636786Y-16292500D01*
X5665357Y-16278214D01*
X5708214Y-16278214D01*
X5736786Y-16292500D01*
X5751071Y-16321071D01*
X5751071Y-16478214D01*
X6336786Y-16163929D02*
X6079643Y-16549643D01*
X6722500Y-16178214D02*
X6751071Y-16178214D01*
X6779643Y-16192500D01*
X6793928Y-16206786D01*
X6808214Y-16235357D01*
X6822500Y-16292500D01*
X6822500Y-16363929D01*
X6808214Y-16421071D01*
X6793928Y-16449643D01*
X6779643Y-16463929D01*
X6751071Y-16478214D01*
X6722500Y-16478214D01*
X6693928Y-16463929D01*
X6679643Y-16449643D01*
X6665357Y-16421071D01*
X6651071Y-16363929D01*
X6651071Y-16292500D01*
X6665357Y-16235357D01*
X6679643Y-16206786D01*
X6693928Y-16192500D01*
X6722500Y-16178214D01*
X6951071Y-16449643D02*
X6965357Y-16463929D01*
X6951071Y-16478214D01*
X6936786Y-16463929D01*
X6951071Y-16449643D01*
X6951071Y-16478214D01*
X7151071Y-16178214D02*
X7179643Y-16178214D01*
X7208214Y-16192500D01*
X7222500Y-16206786D01*
X7236786Y-16235357D01*
X7251071Y-16292500D01*
X7251071Y-16363929D01*
X7236786Y-16421071D01*
X7222500Y-16449643D01*
X7208214Y-16463929D01*
X7179643Y-16478214D01*
X7151071Y-16478214D01*
X7122500Y-16463929D01*
X7108214Y-16449643D01*
X7093928Y-16421071D01*
X7079643Y-16363929D01*
X7079643Y-16292500D01*
X7093928Y-16235357D01*
X7108214Y-16206786D01*
X7122500Y-16192500D01*
X7151071Y-16178214D01*
X7351071Y-16178214D02*
X7536786Y-16178214D01*
X7436786Y-16292500D01*
X7479643Y-16292500D01*
X7508214Y-16306786D01*
X7522500Y-16321071D01*
X7536786Y-16349643D01*
X7536786Y-16421071D01*
X7522500Y-16449643D01*
X7508214Y-16463929D01*
X7479643Y-16478214D01*
X7393928Y-16478214D01*
X7365357Y-16463929D01*
X7351071Y-16449643D01*
X7679643Y-16478214D02*
X7736786Y-16478214D01*
X7765357Y-16463929D01*
X7779643Y-16449643D01*
X7808214Y-16406786D01*
X7822500Y-16349643D01*
X7822500Y-16235357D01*
X7808214Y-16206786D01*
X7793928Y-16192500D01*
X7765357Y-16178214D01*
X7708214Y-16178214D01*
X7679643Y-16192500D01*
X7665357Y-16206786D01*
X7651071Y-16235357D01*
X7651071Y-16306786D01*
X7665357Y-16335357D01*
X7679643Y-16349643D01*
X7708214Y-16363929D01*
X7765357Y-16363929D01*
X7793928Y-16349643D01*
X7808214Y-16335357D01*
X7822500Y-16306786D01*
X7936786Y-16178214D02*
X7936786Y-16235357D01*
X8051071Y-16178214D02*
X8051071Y-16235357D01*
X8493928Y-16592500D02*
X8479643Y-16578214D01*
X8451071Y-16535357D01*
X8436786Y-16506786D01*
X8422500Y-16463929D01*
X8408214Y-16392500D01*
X8408214Y-16335357D01*
X8422500Y-16263929D01*
X8436786Y-16221071D01*
X8451071Y-16192500D01*
X8479643Y-16149643D01*
X8493928Y-16135357D01*
X8765357Y-16478214D02*
X8593928Y-16478214D01*
X8679643Y-16478214D02*
X8679643Y-16178214D01*
X8651071Y-16221071D01*
X8622500Y-16249643D01*
X8593928Y-16263929D01*
X9036786Y-16178214D02*
X8893928Y-16178214D01*
X8879643Y-16321071D01*
X8893928Y-16306786D01*
X8922500Y-16292500D01*
X8993928Y-16292500D01*
X9022500Y-16306786D01*
X9036786Y-16321071D01*
X9051071Y-16349643D01*
X9051071Y-16421071D01*
X9036786Y-16449643D01*
X9022500Y-16463929D01*
X8993928Y-16478214D01*
X8922500Y-16478214D01*
X8893928Y-16463929D01*
X8879643Y-16449643D01*
X9408214Y-16478214D02*
X9408214Y-16178214D01*
X9536786Y-16478214D02*
X9536786Y-16321071D01*
X9522500Y-16292500D01*
X9493928Y-16278214D01*
X9451071Y-16278214D01*
X9422500Y-16292500D01*
X9408214Y-16306786D01*
X9722500Y-16478214D02*
X9693928Y-16463929D01*
X9679643Y-16449643D01*
X9665357Y-16421071D01*
X9665357Y-16335357D01*
X9679643Y-16306786D01*
X9693928Y-16292500D01*
X9722500Y-16278214D01*
X9765357Y-16278214D01*
X9793928Y-16292500D01*
X9808214Y-16306786D01*
X9822500Y-16335357D01*
X9822500Y-16421071D01*
X9808214Y-16449643D01*
X9793928Y-16463929D01*
X9765357Y-16478214D01*
X9722500Y-16478214D01*
X9993928Y-16478214D02*
X9965357Y-16463929D01*
X9951071Y-16435357D01*
X9951071Y-16178214D01*
X10222500Y-16463929D02*
X10193928Y-16478214D01*
X10136786Y-16478214D01*
X10108214Y-16463929D01*
X10093928Y-16435357D01*
X10093928Y-16321071D01*
X10108214Y-16292500D01*
X10136786Y-16278214D01*
X10193928Y-16278214D01*
X10222500Y-16292500D01*
X10236786Y-16321071D01*
X10236786Y-16349643D01*
X10093928Y-16378214D01*
X10351071Y-16463929D02*
X10379643Y-16478214D01*
X10436786Y-16478214D01*
X10465357Y-16463929D01*
X10479643Y-16435357D01*
X10479643Y-16421071D01*
X10465357Y-16392500D01*
X10436786Y-16378214D01*
X10393928Y-16378214D01*
X10365357Y-16363929D01*
X10351071Y-16335357D01*
X10351071Y-16321071D01*
X10365357Y-16292500D01*
X10393928Y-16278214D01*
X10436786Y-16278214D01*
X10465357Y-16292500D01*
X10579643Y-16592500D02*
X10593928Y-16578214D01*
X10622500Y-16535357D01*
X10636786Y-16506786D01*
X10651071Y-16463929D01*
X10665357Y-16392500D01*
X10665357Y-16335357D01*
X10651071Y-16263929D01*
X10636786Y-16221071D01*
X10622500Y-16192500D01*
X10593928Y-16149643D01*
X10579643Y-16135357D01*
X3707424Y-16688462D02*
X3807500Y-16788538D01*
X3807500Y-16688462D02*
X3707424Y-16788538D01*
X3757462Y-16688462D02*
X3757462Y-16788538D01*
X3707424Y-16738500D02*
X3807500Y-16738500D01*
X4251071Y-16874214D02*
X4079643Y-16874214D01*
X4165357Y-16874214D02*
X4165357Y-16574214D01*
X4136786Y-16617071D01*
X4108214Y-16645643D01*
X4079643Y-16659929D01*
X4379643Y-16845643D02*
X4393928Y-16859929D01*
X4379643Y-16874214D01*
X4365357Y-16859929D01*
X4379643Y-16845643D01*
X4379643Y-16874214D01*
X4579643Y-16574214D02*
X4608214Y-16574214D01*
X4636786Y-16588500D01*
X4651071Y-16602786D01*
X4665357Y-16631357D01*
X4679643Y-16688500D01*
X4679643Y-16759929D01*
X4665357Y-16817072D01*
X4651071Y-16845643D01*
X4636786Y-16859929D01*
X4608214Y-16874214D01*
X4579643Y-16874214D01*
X4551071Y-16859929D01*
X4536786Y-16845643D01*
X4522500Y-16817072D01*
X4508214Y-16759929D01*
X4508214Y-16688500D01*
X4522500Y-16631357D01*
X4536786Y-16602786D01*
X4551071Y-16588500D01*
X4579643Y-16574214D01*
X4865357Y-16574214D02*
X4893928Y-16574214D01*
X4922500Y-16588500D01*
X4936786Y-16602786D01*
X4951071Y-16631357D01*
X4965357Y-16688500D01*
X4965357Y-16759929D01*
X4951071Y-16817072D01*
X4936786Y-16845643D01*
X4922500Y-16859929D01*
X4893928Y-16874214D01*
X4865357Y-16874214D01*
X4836786Y-16859929D01*
X4822500Y-16845643D01*
X4808214Y-16817072D01*
X4793928Y-16759929D01*
X4793928Y-16688500D01*
X4808214Y-16631357D01*
X4822500Y-16602786D01*
X4836786Y-16588500D01*
X4865357Y-16574214D01*
X5093928Y-16874214D02*
X5093928Y-16674214D01*
X5093928Y-16702786D02*
X5108214Y-16688500D01*
X5136786Y-16674214D01*
X5179643Y-16674214D01*
X5208214Y-16688500D01*
X5222500Y-16717071D01*
X5222500Y-16874214D01*
X5222500Y-16717071D02*
X5236786Y-16688500D01*
X5265357Y-16674214D01*
X5308214Y-16674214D01*
X5336786Y-16688500D01*
X5351071Y-16717071D01*
X5351071Y-16874214D01*
X5493928Y-16874214D02*
X5493928Y-16674214D01*
X5493928Y-16702786D02*
X5508214Y-16688500D01*
X5536786Y-16674214D01*
X5579643Y-16674214D01*
X5608214Y-16688500D01*
X5622500Y-16717071D01*
X5622500Y-16874214D01*
X5622500Y-16717071D02*
X5636786Y-16688500D01*
X5665357Y-16674214D01*
X5708214Y-16674214D01*
X5736786Y-16688500D01*
X5751071Y-16717071D01*
X5751071Y-16874214D01*
X6336786Y-16559929D02*
X6079643Y-16945643D01*
X6722500Y-16574214D02*
X6751071Y-16574214D01*
X6779643Y-16588500D01*
X6793928Y-16602786D01*
X6808214Y-16631357D01*
X6822500Y-16688500D01*
X6822500Y-16759929D01*
X6808214Y-16817072D01*
X6793928Y-16845643D01*
X6779643Y-16859929D01*
X6751071Y-16874214D01*
X6722500Y-16874214D01*
X6693928Y-16859929D01*
X6679643Y-16845643D01*
X6665357Y-16817072D01*
X6651071Y-16759929D01*
X6651071Y-16688500D01*
X6665357Y-16631357D01*
X6679643Y-16602786D01*
X6693928Y-16588500D01*
X6722500Y-16574214D01*
X6951071Y-16845643D02*
X6965357Y-16859929D01*
X6951071Y-16874214D01*
X6936786Y-16859929D01*
X6951071Y-16845643D01*
X6951071Y-16874214D01*
X7151071Y-16574214D02*
X7179643Y-16574214D01*
X7208214Y-16588500D01*
X7222500Y-16602786D01*
X7236786Y-16631357D01*
X7251071Y-16688500D01*
X7251071Y-16759929D01*
X7236786Y-16817072D01*
X7222500Y-16845643D01*
X7208214Y-16859929D01*
X7179643Y-16874214D01*
X7151071Y-16874214D01*
X7122500Y-16859929D01*
X7108214Y-16845643D01*
X7093928Y-16817072D01*
X7079643Y-16759929D01*
X7079643Y-16688500D01*
X7093928Y-16631357D01*
X7108214Y-16602786D01*
X7122500Y-16588500D01*
X7151071Y-16574214D01*
X7351071Y-16574214D02*
X7536786Y-16574214D01*
X7436786Y-16688500D01*
X7479643Y-16688500D01*
X7508214Y-16702786D01*
X7522500Y-16717071D01*
X7536786Y-16745643D01*
X7536786Y-16817072D01*
X7522500Y-16845643D01*
X7508214Y-16859929D01*
X7479643Y-16874214D01*
X7393928Y-16874214D01*
X7365357Y-16859929D01*
X7351071Y-16845643D01*
X7679643Y-16874214D02*
X7736786Y-16874214D01*
X7765357Y-16859929D01*
X7779643Y-16845643D01*
X7808214Y-16802786D01*
X7822500Y-16745643D01*
X7822500Y-16631357D01*
X7808214Y-16602786D01*
X7793928Y-16588500D01*
X7765357Y-16574214D01*
X7708214Y-16574214D01*
X7679643Y-16588500D01*
X7665357Y-16602786D01*
X7651071Y-16631357D01*
X7651071Y-16702786D01*
X7665357Y-16731357D01*
X7679643Y-16745643D01*
X7708214Y-16759929D01*
X7765357Y-16759929D01*
X7793928Y-16745643D01*
X7808214Y-16731357D01*
X7822500Y-16702786D01*
X7936786Y-16574214D02*
X7936786Y-16631357D01*
X8051071Y-16574214D02*
X8051071Y-16631357D01*
X8493928Y-16988500D02*
X8479643Y-16974214D01*
X8451071Y-16931357D01*
X8436786Y-16902786D01*
X8422500Y-16859929D01*
X8408214Y-16788500D01*
X8408214Y-16731357D01*
X8422500Y-16659929D01*
X8436786Y-16617071D01*
X8451071Y-16588500D01*
X8479643Y-16545643D01*
X8493928Y-16531357D01*
X8593928Y-16602786D02*
X8608214Y-16588500D01*
X8636786Y-16574214D01*
X8708214Y-16574214D01*
X8736786Y-16588500D01*
X8751071Y-16602786D01*
X8765357Y-16631357D01*
X8765357Y-16659929D01*
X8751071Y-16702786D01*
X8579643Y-16874214D01*
X8765357Y-16874214D01*
X9122500Y-16874214D02*
X9122500Y-16574214D01*
X9251071Y-16874214D02*
X9251071Y-16717071D01*
X9236786Y-16688500D01*
X9208214Y-16674214D01*
X9165357Y-16674214D01*
X9136786Y-16688500D01*
X9122500Y-16702786D01*
X9436786Y-16874214D02*
X9408214Y-16859929D01*
X9393928Y-16845643D01*
X9379643Y-16817072D01*
X9379643Y-16731357D01*
X9393928Y-16702786D01*
X9408214Y-16688500D01*
X9436786Y-16674214D01*
X9479643Y-16674214D01*
X9508214Y-16688500D01*
X9522500Y-16702786D01*
X9536786Y-16731357D01*
X9536786Y-16817072D01*
X9522500Y-16845643D01*
X9508214Y-16859929D01*
X9479643Y-16874214D01*
X9436786Y-16874214D01*
X9708214Y-16874214D02*
X9679643Y-16859929D01*
X9665357Y-16831357D01*
X9665357Y-16574214D01*
X9936786Y-16859929D02*
X9908214Y-16874214D01*
X9851071Y-16874214D01*
X9822500Y-16859929D01*
X9808214Y-16831357D01*
X9808214Y-16717071D01*
X9822500Y-16688500D01*
X9851071Y-16674214D01*
X9908214Y-16674214D01*
X9936786Y-16688500D01*
X9951071Y-16717071D01*
X9951071Y-16745643D01*
X9808214Y-16774214D01*
X10065357Y-16859929D02*
X10093928Y-16874214D01*
X10151071Y-16874214D01*
X10179643Y-16859929D01*
X10193928Y-16831357D01*
X10193928Y-16817072D01*
X10179643Y-16788500D01*
X10151071Y-16774214D01*
X10108214Y-16774214D01*
X10079643Y-16759929D01*
X10065357Y-16731357D01*
X10065357Y-16717071D01*
X10079643Y-16688500D01*
X10108214Y-16674214D01*
X10151071Y-16674214D01*
X10179643Y-16688500D01*
X10293928Y-16988500D02*
X10308214Y-16974214D01*
X10336786Y-16931357D01*
X10351071Y-16902786D01*
X10365357Y-16859929D01*
X10379643Y-16788500D01*
X10379643Y-16731357D01*
X10365357Y-16659929D01*
X10351071Y-16617071D01*
X10336786Y-16588500D01*
X10308214Y-16545643D01*
X10293928Y-16531357D01*
X3697500Y-17079500D02*
X3807500Y-17189500D01*
X3807500Y-17079500D02*
X3697500Y-17189500D01*
X3791391Y-17173391D02*
X3791391Y-17095609D01*
X3713609Y-17095609D01*
X3713609Y-17173391D01*
X3791391Y-17173391D01*
X4251071Y-17270214D02*
X4079643Y-17270214D01*
X4165357Y-17270214D02*
X4165357Y-16970214D01*
X4136786Y-17013072D01*
X4108214Y-17041643D01*
X4079643Y-17055929D01*
X4379643Y-17241643D02*
X4393928Y-17255929D01*
X4379643Y-17270214D01*
X4365357Y-17255929D01*
X4379643Y-17241643D01*
X4379643Y-17270214D01*
X4679643Y-17270214D02*
X4508214Y-17270214D01*
X4593928Y-17270214D02*
X4593928Y-16970214D01*
X4565357Y-17013072D01*
X4536786Y-17041643D01*
X4508214Y-17055929D01*
X4865357Y-16970214D02*
X4893928Y-16970214D01*
X4922500Y-16984500D01*
X4936786Y-16998786D01*
X4951071Y-17027357D01*
X4965357Y-17084500D01*
X4965357Y-17155929D01*
X4951071Y-17213072D01*
X4936786Y-17241643D01*
X4922500Y-17255929D01*
X4893928Y-17270214D01*
X4865357Y-17270214D01*
X4836786Y-17255929D01*
X4822500Y-17241643D01*
X4808214Y-17213072D01*
X4793928Y-17155929D01*
X4793928Y-17084500D01*
X4808214Y-17027357D01*
X4822500Y-16998786D01*
X4836786Y-16984500D01*
X4865357Y-16970214D01*
X5093928Y-17270214D02*
X5093928Y-17070214D01*
X5093928Y-17098786D02*
X5108214Y-17084500D01*
X5136786Y-17070214D01*
X5179643Y-17070214D01*
X5208214Y-17084500D01*
X5222500Y-17113072D01*
X5222500Y-17270214D01*
X5222500Y-17113072D02*
X5236786Y-17084500D01*
X5265357Y-17070214D01*
X5308214Y-17070214D01*
X5336786Y-17084500D01*
X5351071Y-17113072D01*
X5351071Y-17270214D01*
X5493928Y-17270214D02*
X5493928Y-17070214D01*
X5493928Y-17098786D02*
X5508214Y-17084500D01*
X5536786Y-17070214D01*
X5579643Y-17070214D01*
X5608214Y-17084500D01*
X5622500Y-17113072D01*
X5622500Y-17270214D01*
X5622500Y-17113072D02*
X5636786Y-17084500D01*
X5665357Y-17070214D01*
X5708214Y-17070214D01*
X5736786Y-17084500D01*
X5751071Y-17113072D01*
X5751071Y-17270214D01*
X6336786Y-16955929D02*
X6079643Y-17341643D01*
X6722500Y-16970214D02*
X6751071Y-16970214D01*
X6779643Y-16984500D01*
X6793928Y-16998786D01*
X6808214Y-17027357D01*
X6822500Y-17084500D01*
X6822500Y-17155929D01*
X6808214Y-17213072D01*
X6793928Y-17241643D01*
X6779643Y-17255929D01*
X6751071Y-17270214D01*
X6722500Y-17270214D01*
X6693928Y-17255929D01*
X6679643Y-17241643D01*
X6665357Y-17213072D01*
X6651071Y-17155929D01*
X6651071Y-17084500D01*
X6665357Y-17027357D01*
X6679643Y-16998786D01*
X6693928Y-16984500D01*
X6722500Y-16970214D01*
X6951071Y-17241643D02*
X6965357Y-17255929D01*
X6951071Y-17270214D01*
X6936786Y-17255929D01*
X6951071Y-17241643D01*
X6951071Y-17270214D01*
X7151071Y-16970214D02*
X7179643Y-16970214D01*
X7208214Y-16984500D01*
X7222500Y-16998786D01*
X7236786Y-17027357D01*
X7251071Y-17084500D01*
X7251071Y-17155929D01*
X7236786Y-17213072D01*
X7222500Y-17241643D01*
X7208214Y-17255929D01*
X7179643Y-17270214D01*
X7151071Y-17270214D01*
X7122500Y-17255929D01*
X7108214Y-17241643D01*
X7093928Y-17213072D01*
X7079643Y-17155929D01*
X7079643Y-17084500D01*
X7093928Y-17027357D01*
X7108214Y-16998786D01*
X7122500Y-16984500D01*
X7151071Y-16970214D01*
X7508214Y-17070214D02*
X7508214Y-17270214D01*
X7436786Y-16955929D02*
X7365357Y-17170214D01*
X7551071Y-17170214D01*
X7636786Y-16970214D02*
X7822500Y-16970214D01*
X7722500Y-17084500D01*
X7765357Y-17084500D01*
X7793928Y-17098786D01*
X7808214Y-17113072D01*
X7822500Y-17141643D01*
X7822500Y-17213072D01*
X7808214Y-17241643D01*
X7793928Y-17255929D01*
X7765357Y-17270214D01*
X7679643Y-17270214D01*
X7651071Y-17255929D01*
X7636786Y-17241643D01*
X7936786Y-16970214D02*
X7936786Y-17027357D01*
X8051071Y-16970214D02*
X8051071Y-17027357D01*
X8493928Y-17384500D02*
X8479643Y-17370214D01*
X8451071Y-17327357D01*
X8436786Y-17298786D01*
X8422500Y-17255929D01*
X8408214Y-17184500D01*
X8408214Y-17127357D01*
X8422500Y-17055929D01*
X8436786Y-17013072D01*
X8451071Y-16984500D01*
X8479643Y-16941643D01*
X8493928Y-16927357D01*
X8736786Y-16970214D02*
X8679643Y-16970214D01*
X8651071Y-16984500D01*
X8636786Y-16998786D01*
X8608214Y-17041643D01*
X8593928Y-17098786D01*
X8593928Y-17213072D01*
X8608214Y-17241643D01*
X8622500Y-17255929D01*
X8651071Y-17270214D01*
X8708214Y-17270214D01*
X8736786Y-17255929D01*
X8751071Y-17241643D01*
X8765357Y-17213072D01*
X8765357Y-17141643D01*
X8751071Y-17113072D01*
X8736786Y-17098786D01*
X8708214Y-17084500D01*
X8651071Y-17084500D01*
X8622500Y-17098786D01*
X8608214Y-17113072D01*
X8593928Y-17141643D01*
X8865357Y-16970214D02*
X9051071Y-16970214D01*
X8951071Y-17084500D01*
X8993928Y-17084500D01*
X9022500Y-17098786D01*
X9036786Y-17113072D01*
X9051071Y-17141643D01*
X9051071Y-17213072D01*
X9036786Y-17241643D01*
X9022500Y-17255929D01*
X8993928Y-17270214D01*
X8908214Y-17270214D01*
X8879643Y-17255929D01*
X8865357Y-17241643D01*
X9408214Y-17270214D02*
X9408214Y-16970214D01*
X9536786Y-17270214D02*
X9536786Y-17113072D01*
X9522500Y-17084500D01*
X9493928Y-17070214D01*
X9451071Y-17070214D01*
X9422500Y-17084500D01*
X9408214Y-17098786D01*
X9722500Y-17270214D02*
X9693928Y-17255929D01*
X9679643Y-17241643D01*
X9665357Y-17213072D01*
X9665357Y-17127357D01*
X9679643Y-17098786D01*
X9693928Y-17084500D01*
X9722500Y-17070214D01*
X9765357Y-17070214D01*
X9793928Y-17084500D01*
X9808214Y-17098786D01*
X9822500Y-17127357D01*
X9822500Y-17213072D01*
X9808214Y-17241643D01*
X9793928Y-17255929D01*
X9765357Y-17270214D01*
X9722500Y-17270214D01*
X9993928Y-17270214D02*
X9965357Y-17255929D01*
X9951071Y-17227357D01*
X9951071Y-16970214D01*
X10222500Y-17255929D02*
X10193928Y-17270214D01*
X10136786Y-17270214D01*
X10108214Y-17255929D01*
X10093928Y-17227357D01*
X10093928Y-17113072D01*
X10108214Y-17084500D01*
X10136786Y-17070214D01*
X10193928Y-17070214D01*
X10222500Y-17084500D01*
X10236786Y-17113072D01*
X10236786Y-17141643D01*
X10093928Y-17170214D01*
X10351071Y-17255929D02*
X10379643Y-17270214D01*
X10436786Y-17270214D01*
X10465357Y-17255929D01*
X10479643Y-17227357D01*
X10479643Y-17213072D01*
X10465357Y-17184500D01*
X10436786Y-17170214D01*
X10393928Y-17170214D01*
X10365357Y-17155929D01*
X10351071Y-17127357D01*
X10351071Y-17113072D01*
X10365357Y-17084500D01*
X10393928Y-17070214D01*
X10436786Y-17070214D01*
X10465357Y-17084500D01*
X10579643Y-17384500D02*
X10593928Y-17370214D01*
X10622500Y-17327357D01*
X10636786Y-17298786D01*
X10651071Y-17255929D01*
X10665357Y-17184500D01*
X10665357Y-17127357D01*
X10651071Y-17055929D01*
X10636786Y-17013072D01*
X10622500Y-16984500D01*
X10593928Y-16941643D01*
X10579643Y-16927357D01*
X3657500Y-17455500D02*
X3807500Y-17605500D01*
X3807500Y-17455500D02*
X3657500Y-17605500D01*
X3732500Y-17605500D02*
X3807500Y-17530500D01*
X3732500Y-17455500D01*
X3657500Y-17530500D01*
X3732500Y-17605500D01*
X4251071Y-17666214D02*
X4079643Y-17666214D01*
X4165357Y-17666214D02*
X4165357Y-17366214D01*
X4136786Y-17409072D01*
X4108214Y-17437643D01*
X4079643Y-17451929D01*
X4379643Y-17637643D02*
X4393928Y-17651929D01*
X4379643Y-17666214D01*
X4365357Y-17651929D01*
X4379643Y-17637643D01*
X4379643Y-17666214D01*
X4665357Y-17366214D02*
X4522500Y-17366214D01*
X4508214Y-17509072D01*
X4522500Y-17494786D01*
X4551071Y-17480500D01*
X4622500Y-17480500D01*
X4651071Y-17494786D01*
X4665357Y-17509072D01*
X4679643Y-17537643D01*
X4679643Y-17609072D01*
X4665357Y-17637643D01*
X4651071Y-17651929D01*
X4622500Y-17666214D01*
X4551071Y-17666214D01*
X4522500Y-17651929D01*
X4508214Y-17637643D01*
X4865357Y-17366214D02*
X4893928Y-17366214D01*
X4922500Y-17380500D01*
X4936786Y-17394786D01*
X4951071Y-17423357D01*
X4965357Y-17480500D01*
X4965357Y-17551929D01*
X4951071Y-17609072D01*
X4936786Y-17637643D01*
X4922500Y-17651929D01*
X4893928Y-17666214D01*
X4865357Y-17666214D01*
X4836786Y-17651929D01*
X4822500Y-17637643D01*
X4808214Y-17609072D01*
X4793928Y-17551929D01*
X4793928Y-17480500D01*
X4808214Y-17423357D01*
X4822500Y-17394786D01*
X4836786Y-17380500D01*
X4865357Y-17366214D01*
X5093928Y-17666214D02*
X5093928Y-17466214D01*
X5093928Y-17494786D02*
X5108214Y-17480500D01*
X5136786Y-17466214D01*
X5179643Y-17466214D01*
X5208214Y-17480500D01*
X5222500Y-17509072D01*
X5222500Y-17666214D01*
X5222500Y-17509072D02*
X5236786Y-17480500D01*
X5265357Y-17466214D01*
X5308214Y-17466214D01*
X5336786Y-17480500D01*
X5351071Y-17509072D01*
X5351071Y-17666214D01*
X5493928Y-17666214D02*
X5493928Y-17466214D01*
X5493928Y-17494786D02*
X5508214Y-17480500D01*
X5536786Y-17466214D01*
X5579643Y-17466214D01*
X5608214Y-17480500D01*
X5622500Y-17509072D01*
X5622500Y-17666214D01*
X5622500Y-17509072D02*
X5636786Y-17480500D01*
X5665357Y-17466214D01*
X5708214Y-17466214D01*
X5736786Y-17480500D01*
X5751071Y-17509072D01*
X5751071Y-17666214D01*
X6336786Y-17351929D02*
X6079643Y-17737643D01*
X6722500Y-17366214D02*
X6751071Y-17366214D01*
X6779643Y-17380500D01*
X6793928Y-17394786D01*
X6808214Y-17423357D01*
X6822500Y-17480500D01*
X6822500Y-17551929D01*
X6808214Y-17609072D01*
X6793928Y-17637643D01*
X6779643Y-17651929D01*
X6751071Y-17666214D01*
X6722500Y-17666214D01*
X6693928Y-17651929D01*
X6679643Y-17637643D01*
X6665357Y-17609072D01*
X6651071Y-17551929D01*
X6651071Y-17480500D01*
X6665357Y-17423357D01*
X6679643Y-17394786D01*
X6693928Y-17380500D01*
X6722500Y-17366214D01*
X6951071Y-17637643D02*
X6965357Y-17651929D01*
X6951071Y-17666214D01*
X6936786Y-17651929D01*
X6951071Y-17637643D01*
X6951071Y-17666214D01*
X7151071Y-17366214D02*
X7179643Y-17366214D01*
X7208214Y-17380500D01*
X7222500Y-17394786D01*
X7236786Y-17423357D01*
X7251071Y-17480500D01*
X7251071Y-17551929D01*
X7236786Y-17609072D01*
X7222500Y-17637643D01*
X7208214Y-17651929D01*
X7179643Y-17666214D01*
X7151071Y-17666214D01*
X7122500Y-17651929D01*
X7108214Y-17637643D01*
X7093928Y-17609072D01*
X7079643Y-17551929D01*
X7079643Y-17480500D01*
X7093928Y-17423357D01*
X7108214Y-17394786D01*
X7122500Y-17380500D01*
X7151071Y-17366214D01*
X7522500Y-17366214D02*
X7379643Y-17366214D01*
X7365357Y-17509072D01*
X7379643Y-17494786D01*
X7408214Y-17480500D01*
X7479643Y-17480500D01*
X7508214Y-17494786D01*
X7522500Y-17509072D01*
X7536786Y-17537643D01*
X7536786Y-17609072D01*
X7522500Y-17637643D01*
X7508214Y-17651929D01*
X7479643Y-17666214D01*
X7408214Y-17666214D01*
X7379643Y-17651929D01*
X7365357Y-17637643D01*
X7679643Y-17666214D02*
X7736786Y-17666214D01*
X7765357Y-17651929D01*
X7779643Y-17637643D01*
X7808214Y-17594786D01*
X7822500Y-17537643D01*
X7822500Y-17423357D01*
X7808214Y-17394786D01*
X7793928Y-17380500D01*
X7765357Y-17366214D01*
X7708214Y-17366214D01*
X7679643Y-17380500D01*
X7665357Y-17394786D01*
X7651071Y-17423357D01*
X7651071Y-17494786D01*
X7665357Y-17523357D01*
X7679643Y-17537643D01*
X7708214Y-17551929D01*
X7765357Y-17551929D01*
X7793928Y-17537643D01*
X7808214Y-17523357D01*
X7822500Y-17494786D01*
X7936786Y-17366214D02*
X7936786Y-17423357D01*
X8051071Y-17366214D02*
X8051071Y-17423357D01*
X8493928Y-17780500D02*
X8479643Y-17766214D01*
X8451071Y-17723357D01*
X8436786Y-17694786D01*
X8422500Y-17651929D01*
X8408214Y-17580500D01*
X8408214Y-17523357D01*
X8422500Y-17451929D01*
X8436786Y-17409072D01*
X8451071Y-17380500D01*
X8479643Y-17337643D01*
X8493928Y-17323357D01*
X8593928Y-17394786D02*
X8608214Y-17380500D01*
X8636786Y-17366214D01*
X8708214Y-17366214D01*
X8736786Y-17380500D01*
X8751071Y-17394786D01*
X8765357Y-17423357D01*
X8765357Y-17451929D01*
X8751071Y-17494786D01*
X8579643Y-17666214D01*
X8765357Y-17666214D01*
X9122500Y-17666214D02*
X9122500Y-17366214D01*
X9251071Y-17666214D02*
X9251071Y-17509072D01*
X9236786Y-17480500D01*
X9208214Y-17466214D01*
X9165357Y-17466214D01*
X9136786Y-17480500D01*
X9122500Y-17494786D01*
X9436786Y-17666214D02*
X9408214Y-17651929D01*
X9393928Y-17637643D01*
X9379643Y-17609072D01*
X9379643Y-17523357D01*
X9393928Y-17494786D01*
X9408214Y-17480500D01*
X9436786Y-17466214D01*
X9479643Y-17466214D01*
X9508214Y-17480500D01*
X9522500Y-17494786D01*
X9536786Y-17523357D01*
X9536786Y-17609072D01*
X9522500Y-17637643D01*
X9508214Y-17651929D01*
X9479643Y-17666214D01*
X9436786Y-17666214D01*
X9708214Y-17666214D02*
X9679643Y-17651929D01*
X9665357Y-17623357D01*
X9665357Y-17366214D01*
X9936786Y-17651929D02*
X9908214Y-17666214D01*
X9851071Y-17666214D01*
X9822500Y-17651929D01*
X9808214Y-17623357D01*
X9808214Y-17509072D01*
X9822500Y-17480500D01*
X9851071Y-17466214D01*
X9908214Y-17466214D01*
X9936786Y-17480500D01*
X9951071Y-17509072D01*
X9951071Y-17537643D01*
X9808214Y-17566214D01*
X10065357Y-17651929D02*
X10093928Y-17666214D01*
X10151071Y-17666214D01*
X10179643Y-17651929D01*
X10193928Y-17623357D01*
X10193928Y-17609072D01*
X10179643Y-17580500D01*
X10151071Y-17566214D01*
X10108214Y-17566214D01*
X10079643Y-17551929D01*
X10065357Y-17523357D01*
X10065357Y-17509072D01*
X10079643Y-17480500D01*
X10108214Y-17466214D01*
X10151071Y-17466214D01*
X10179643Y-17480500D01*
X10293928Y-17780500D02*
X10308214Y-17766214D01*
X10336786Y-17723357D01*
X10351071Y-17694786D01*
X10365357Y-17651929D01*
X10379643Y-17580500D01*
X10379643Y-17523357D01*
X10365357Y-17451929D01*
X10351071Y-17409072D01*
X10336786Y-17380500D01*
X10308214Y-17337643D01*
X10293928Y-17323357D01*
X3731500Y-17850500D02*
X3731500Y-18002500D01*
X3655500Y-17926500D02*
X3807500Y-17926500D01*
X3807500Y-17926500D02*
G75*
G03*
X3807500Y-17926500I-76000J0D01*
G01*
X4251071Y-18062214D02*
X4079643Y-18062214D01*
X4165357Y-18062214D02*
X4165357Y-17762214D01*
X4136786Y-17805072D01*
X4108214Y-17833643D01*
X4079643Y-17847929D01*
X4379643Y-18033643D02*
X4393928Y-18047929D01*
X4379643Y-18062214D01*
X4365357Y-18047929D01*
X4379643Y-18033643D01*
X4379643Y-18062214D01*
X4665357Y-17762214D02*
X4522500Y-17762214D01*
X4508214Y-17905072D01*
X4522500Y-17890786D01*
X4551071Y-17876500D01*
X4622500Y-17876500D01*
X4651071Y-17890786D01*
X4665357Y-17905072D01*
X4679643Y-17933643D01*
X4679643Y-18005072D01*
X4665357Y-18033643D01*
X4651071Y-18047929D01*
X4622500Y-18062214D01*
X4551071Y-18062214D01*
X4522500Y-18047929D01*
X4508214Y-18033643D01*
X4793928Y-17790786D02*
X4808214Y-17776500D01*
X4836786Y-17762214D01*
X4908214Y-17762214D01*
X4936786Y-17776500D01*
X4951071Y-17790786D01*
X4965357Y-17819357D01*
X4965357Y-17847929D01*
X4951071Y-17890786D01*
X4779643Y-18062214D01*
X4965357Y-18062214D01*
X5093928Y-18062214D02*
X5093928Y-17862214D01*
X5093928Y-17890786D02*
X5108214Y-17876500D01*
X5136786Y-17862214D01*
X5179643Y-17862214D01*
X5208214Y-17876500D01*
X5222500Y-17905072D01*
X5222500Y-18062214D01*
X5222500Y-17905072D02*
X5236786Y-17876500D01*
X5265357Y-17862214D01*
X5308214Y-17862214D01*
X5336786Y-17876500D01*
X5351071Y-17905072D01*
X5351071Y-18062214D01*
X5493928Y-18062214D02*
X5493928Y-17862214D01*
X5493928Y-17890786D02*
X5508214Y-17876500D01*
X5536786Y-17862214D01*
X5579643Y-17862214D01*
X5608214Y-17876500D01*
X5622500Y-17905072D01*
X5622500Y-18062214D01*
X5622500Y-17905072D02*
X5636786Y-17876500D01*
X5665357Y-17862214D01*
X5708214Y-17862214D01*
X5736786Y-17876500D01*
X5751071Y-17905072D01*
X5751071Y-18062214D01*
X6336786Y-17747929D02*
X6079643Y-18133643D01*
X6722500Y-17762214D02*
X6751071Y-17762214D01*
X6779643Y-17776500D01*
X6793928Y-17790786D01*
X6808214Y-17819357D01*
X6822500Y-17876500D01*
X6822500Y-17947929D01*
X6808214Y-18005072D01*
X6793928Y-18033643D01*
X6779643Y-18047929D01*
X6751071Y-18062214D01*
X6722500Y-18062214D01*
X6693928Y-18047929D01*
X6679643Y-18033643D01*
X6665357Y-18005072D01*
X6651071Y-17947929D01*
X6651071Y-17876500D01*
X6665357Y-17819357D01*
X6679643Y-17790786D01*
X6693928Y-17776500D01*
X6722500Y-17762214D01*
X6951071Y-18033643D02*
X6965357Y-18047929D01*
X6951071Y-18062214D01*
X6936786Y-18047929D01*
X6951071Y-18033643D01*
X6951071Y-18062214D01*
X7151071Y-17762214D02*
X7179643Y-17762214D01*
X7208214Y-17776500D01*
X7222500Y-17790786D01*
X7236786Y-17819357D01*
X7251071Y-17876500D01*
X7251071Y-17947929D01*
X7236786Y-18005072D01*
X7222500Y-18033643D01*
X7208214Y-18047929D01*
X7179643Y-18062214D01*
X7151071Y-18062214D01*
X7122500Y-18047929D01*
X7108214Y-18033643D01*
X7093928Y-18005072D01*
X7079643Y-17947929D01*
X7079643Y-17876500D01*
X7093928Y-17819357D01*
X7108214Y-17790786D01*
X7122500Y-17776500D01*
X7151071Y-17762214D01*
X7508214Y-17762214D02*
X7451071Y-17762214D01*
X7422500Y-17776500D01*
X7408214Y-17790786D01*
X7379643Y-17833643D01*
X7365357Y-17890786D01*
X7365357Y-18005072D01*
X7379643Y-18033643D01*
X7393928Y-18047929D01*
X7422500Y-18062214D01*
X7479643Y-18062214D01*
X7508214Y-18047929D01*
X7522500Y-18033643D01*
X7536786Y-18005072D01*
X7536786Y-17933643D01*
X7522500Y-17905072D01*
X7508214Y-17890786D01*
X7479643Y-17876500D01*
X7422500Y-17876500D01*
X7393928Y-17890786D01*
X7379643Y-17905072D01*
X7365357Y-17933643D01*
X7722500Y-17762214D02*
X7751071Y-17762214D01*
X7779643Y-17776500D01*
X7793928Y-17790786D01*
X7808214Y-17819357D01*
X7822500Y-17876500D01*
X7822500Y-17947929D01*
X7808214Y-18005072D01*
X7793928Y-18033643D01*
X7779643Y-18047929D01*
X7751071Y-18062214D01*
X7722500Y-18062214D01*
X7693928Y-18047929D01*
X7679643Y-18033643D01*
X7665357Y-18005072D01*
X7651071Y-17947929D01*
X7651071Y-17876500D01*
X7665357Y-17819357D01*
X7679643Y-17790786D01*
X7693928Y-17776500D01*
X7722500Y-17762214D01*
X7936786Y-17762214D02*
X7936786Y-17819357D01*
X8051071Y-17762214D02*
X8051071Y-17819357D01*
X8493928Y-18176500D02*
X8479643Y-18162214D01*
X8451071Y-18119357D01*
X8436786Y-18090786D01*
X8422500Y-18047929D01*
X8408214Y-17976500D01*
X8408214Y-17919357D01*
X8422500Y-17847929D01*
X8436786Y-17805072D01*
X8451071Y-17776500D01*
X8479643Y-17733643D01*
X8493928Y-17719357D01*
X8736786Y-17862214D02*
X8736786Y-18062214D01*
X8665357Y-17747929D02*
X8593928Y-17962214D01*
X8779643Y-17962214D01*
X9122500Y-18062214D02*
X9122500Y-17762214D01*
X9251071Y-18062214D02*
X9251071Y-17905072D01*
X9236786Y-17876500D01*
X9208214Y-17862214D01*
X9165357Y-17862214D01*
X9136786Y-17876500D01*
X9122500Y-17890786D01*
X9436786Y-18062214D02*
X9408214Y-18047929D01*
X9393928Y-18033643D01*
X9379643Y-18005072D01*
X9379643Y-17919357D01*
X9393928Y-17890786D01*
X9408214Y-17876500D01*
X9436786Y-17862214D01*
X9479643Y-17862214D01*
X9508214Y-17876500D01*
X9522500Y-17890786D01*
X9536786Y-17919357D01*
X9536786Y-18005072D01*
X9522500Y-18033643D01*
X9508214Y-18047929D01*
X9479643Y-18062214D01*
X9436786Y-18062214D01*
X9708214Y-18062214D02*
X9679643Y-18047929D01*
X9665357Y-18019357D01*
X9665357Y-17762214D01*
X9936786Y-18047929D02*
X9908214Y-18062214D01*
X9851071Y-18062214D01*
X9822500Y-18047929D01*
X9808214Y-18019357D01*
X9808214Y-17905072D01*
X9822500Y-17876500D01*
X9851071Y-17862214D01*
X9908214Y-17862214D01*
X9936786Y-17876500D01*
X9951071Y-17905072D01*
X9951071Y-17933643D01*
X9808214Y-17962214D01*
X10065357Y-18047929D02*
X10093928Y-18062214D01*
X10151071Y-18062214D01*
X10179643Y-18047929D01*
X10193928Y-18019357D01*
X10193928Y-18005072D01*
X10179643Y-17976500D01*
X10151071Y-17962214D01*
X10108214Y-17962214D01*
X10079643Y-17947929D01*
X10065357Y-17919357D01*
X10065357Y-17905072D01*
X10079643Y-17876500D01*
X10108214Y-17862214D01*
X10151071Y-17862214D01*
X10179643Y-17876500D01*
X10293928Y-18176500D02*
X10308214Y-18162214D01*
X10336786Y-18119357D01*
X10351071Y-18090786D01*
X10365357Y-18047929D01*
X10379643Y-17976500D01*
X10379643Y-17919357D01*
X10365357Y-17847929D01*
X10351071Y-17805072D01*
X10336786Y-17776500D01*
X10308214Y-17733643D01*
X10293928Y-17719357D01*
X3760638Y-18435638D02*
X3760638Y-18209362D01*
X3534362Y-18209362D01*
X3534362Y-18435638D01*
X3760638Y-18435638D01*
X3807500Y-18322500D02*
G75*
G03*
X3807500Y-18322500I-160000J0D01*
G01*
X4065357Y-18158214D02*
X4251071Y-18158214D01*
X4151071Y-18272500D01*
X4193928Y-18272500D01*
X4222500Y-18286786D01*
X4236786Y-18301072D01*
X4251071Y-18329643D01*
X4251071Y-18401072D01*
X4236786Y-18429643D01*
X4222500Y-18443929D01*
X4193928Y-18458214D01*
X4108214Y-18458214D01*
X4079643Y-18443929D01*
X4065357Y-18429643D01*
X4379643Y-18429643D02*
X4393928Y-18443929D01*
X4379643Y-18458214D01*
X4365357Y-18443929D01*
X4379643Y-18429643D01*
X4379643Y-18458214D01*
X4508214Y-18186786D02*
X4522500Y-18172500D01*
X4551071Y-18158214D01*
X4622500Y-18158214D01*
X4651071Y-18172500D01*
X4665357Y-18186786D01*
X4679643Y-18215357D01*
X4679643Y-18243929D01*
X4665357Y-18286786D01*
X4493928Y-18458214D01*
X4679643Y-18458214D01*
X4865357Y-18158214D02*
X4893928Y-18158214D01*
X4922500Y-18172500D01*
X4936786Y-18186786D01*
X4951071Y-18215357D01*
X4965357Y-18272500D01*
X4965357Y-18343929D01*
X4951071Y-18401072D01*
X4936786Y-18429643D01*
X4922500Y-18443929D01*
X4893928Y-18458214D01*
X4865357Y-18458214D01*
X4836786Y-18443929D01*
X4822500Y-18429643D01*
X4808214Y-18401072D01*
X4793928Y-18343929D01*
X4793928Y-18272500D01*
X4808214Y-18215357D01*
X4822500Y-18186786D01*
X4836786Y-18172500D01*
X4865357Y-18158214D01*
X5093928Y-18458214D02*
X5093928Y-18258214D01*
X5093928Y-18286786D02*
X5108214Y-18272500D01*
X5136786Y-18258214D01*
X5179643Y-18258214D01*
X5208214Y-18272500D01*
X5222500Y-18301072D01*
X5222500Y-18458214D01*
X5222500Y-18301072D02*
X5236786Y-18272500D01*
X5265357Y-18258214D01*
X5308214Y-18258214D01*
X5336786Y-18272500D01*
X5351071Y-18301072D01*
X5351071Y-18458214D01*
X5493928Y-18458214D02*
X5493928Y-18258214D01*
X5493928Y-18286786D02*
X5508214Y-18272500D01*
X5536786Y-18258214D01*
X5579643Y-18258214D01*
X5608214Y-18272500D01*
X5622500Y-18301072D01*
X5622500Y-18458214D01*
X5622500Y-18301072D02*
X5636786Y-18272500D01*
X5665357Y-18258214D01*
X5708214Y-18258214D01*
X5736786Y-18272500D01*
X5751071Y-18301072D01*
X5751071Y-18458214D01*
X6336786Y-18143929D02*
X6079643Y-18529643D01*
X6722500Y-18158214D02*
X6751071Y-18158214D01*
X6779643Y-18172500D01*
X6793928Y-18186786D01*
X6808214Y-18215357D01*
X6822500Y-18272500D01*
X6822500Y-18343929D01*
X6808214Y-18401072D01*
X6793928Y-18429643D01*
X6779643Y-18443929D01*
X6751071Y-18458214D01*
X6722500Y-18458214D01*
X6693928Y-18443929D01*
X6679643Y-18429643D01*
X6665357Y-18401072D01*
X6651071Y-18343929D01*
X6651071Y-18272500D01*
X6665357Y-18215357D01*
X6679643Y-18186786D01*
X6693928Y-18172500D01*
X6722500Y-18158214D01*
X6951071Y-18429643D02*
X6965357Y-18443929D01*
X6951071Y-18458214D01*
X6936786Y-18443929D01*
X6951071Y-18429643D01*
X6951071Y-18458214D01*
X7251071Y-18458214D02*
X7079643Y-18458214D01*
X7165357Y-18458214D02*
X7165357Y-18158214D01*
X7136786Y-18201072D01*
X7108214Y-18229643D01*
X7079643Y-18243929D01*
X7365357Y-18186786D02*
X7379643Y-18172500D01*
X7408214Y-18158214D01*
X7479643Y-18158214D01*
X7508214Y-18172500D01*
X7522500Y-18186786D01*
X7536786Y-18215357D01*
X7536786Y-18243929D01*
X7522500Y-18286786D01*
X7351071Y-18458214D01*
X7536786Y-18458214D01*
X7793928Y-18158214D02*
X7736786Y-18158214D01*
X7708214Y-18172500D01*
X7693928Y-18186786D01*
X7665357Y-18229643D01*
X7651071Y-18286786D01*
X7651071Y-18401072D01*
X7665357Y-18429643D01*
X7679643Y-18443929D01*
X7708214Y-18458214D01*
X7765357Y-18458214D01*
X7793928Y-18443929D01*
X7808214Y-18429643D01*
X7822500Y-18401072D01*
X7822500Y-18329643D01*
X7808214Y-18301072D01*
X7793928Y-18286786D01*
X7765357Y-18272500D01*
X7708214Y-18272500D01*
X7679643Y-18286786D01*
X7665357Y-18301072D01*
X7651071Y-18329643D01*
X7936786Y-18158214D02*
X7936786Y-18215357D01*
X8051071Y-18158214D02*
X8051071Y-18215357D01*
X8493928Y-18572500D02*
X8479643Y-18558214D01*
X8451071Y-18515357D01*
X8436786Y-18486786D01*
X8422500Y-18443929D01*
X8408214Y-18372500D01*
X8408214Y-18315357D01*
X8422500Y-18243929D01*
X8436786Y-18201072D01*
X8451071Y-18172500D01*
X8479643Y-18129643D01*
X8493928Y-18115357D01*
X8736786Y-18258214D02*
X8736786Y-18458214D01*
X8665357Y-18143929D02*
X8593928Y-18358214D01*
X8779643Y-18358214D01*
X9122500Y-18458214D02*
X9122500Y-18158214D01*
X9251071Y-18458214D02*
X9251071Y-18301072D01*
X9236786Y-18272500D01*
X9208214Y-18258214D01*
X9165357Y-18258214D01*
X9136786Y-18272500D01*
X9122500Y-18286786D01*
X9436786Y-18458214D02*
X9408214Y-18443929D01*
X9393928Y-18429643D01*
X9379643Y-18401072D01*
X9379643Y-18315357D01*
X9393928Y-18286786D01*
X9408214Y-18272500D01*
X9436786Y-18258214D01*
X9479643Y-18258214D01*
X9508214Y-18272500D01*
X9522500Y-18286786D01*
X9536786Y-18315357D01*
X9536786Y-18401072D01*
X9522500Y-18429643D01*
X9508214Y-18443929D01*
X9479643Y-18458214D01*
X9436786Y-18458214D01*
X9708214Y-18458214D02*
X9679643Y-18443929D01*
X9665357Y-18415357D01*
X9665357Y-18158214D01*
X9936786Y-18443929D02*
X9908214Y-18458214D01*
X9851071Y-18458214D01*
X9822500Y-18443929D01*
X9808214Y-18415357D01*
X9808214Y-18301072D01*
X9822500Y-18272500D01*
X9851071Y-18258214D01*
X9908214Y-18258214D01*
X9936786Y-18272500D01*
X9951071Y-18301072D01*
X9951071Y-18329643D01*
X9808214Y-18358214D01*
X10065357Y-18443929D02*
X10093928Y-18458214D01*
X10151071Y-18458214D01*
X10179643Y-18443929D01*
X10193928Y-18415357D01*
X10193928Y-18401072D01*
X10179643Y-18372500D01*
X10151071Y-18358214D01*
X10108214Y-18358214D01*
X10079643Y-18343929D01*
X10065357Y-18315357D01*
X10065357Y-18301072D01*
X10079643Y-18272500D01*
X10108214Y-18258214D01*
X10151071Y-18258214D01*
X10179643Y-18272500D01*
X10293928Y-18572500D02*
X10308214Y-18558214D01*
X10336786Y-18515357D01*
X10351071Y-18486786D01*
X10365357Y-18443929D01*
X10379643Y-18372500D01*
X10379643Y-18315357D01*
X10365357Y-18243929D01*
X10351071Y-18201072D01*
X10336786Y-18172500D01*
X10308214Y-18129643D01*
X10293928Y-18115357D01*
M02*
