M48
; DRILL file {KiCad (5.1.9)-1} date 04/08/21 21:07:10
; FORMAT={-:-/ absolute / inch / decimal}
; #@! TF.CreationDate,2021-04-08T21:07:10+02:00
; #@! TF.GenerationSoftware,Kicad,Pcbnew,(5.1.9)-1
; #@! TF.FileFunction,Plated,1,2,PTH
FMAT,2
INCH
T1C0.0157
T2C0.0300
T3C0.0315
T4C0.0354
T5C0.0394
T6C0.0394
T7C0.0400
T8C0.0433
T9C0.0598
T10C0.0787
T11C0.1098
%
G90
G05
T1
X2.061Y-4.4887
X4.2379Y-3.8719
X4.2696Y-3.8456
X4.3005Y-3.8714
X4.3703Y-3.8886
X4.457Y-3.956
X4.4815Y-4.4143
X4.5737Y-4.0709
X4.8785Y-2.223
X5.7449Y-2.7515
X6.6515Y-4.4686
X6.7039Y-2.1206
X6.9583Y-3.7629
X7.1537Y-4.4993
X7.3031Y-2.2791
X7.4301Y-2.5094
X7.4323Y-4.1874
X7.4841Y-4.216
T2
X6.8498Y-1.4925
X6.8498Y-1.5925
X6.8498Y-1.6925
X6.8498Y-1.7925
X6.8498Y-1.8925
X6.8498Y-1.9925
X6.8498Y-2.0925
X6.8498Y-2.1925
X6.8498Y-2.2925
X6.8498Y-2.3925
X6.8498Y-2.4925
X6.8498Y-2.5925
X6.8498Y-2.6925
X6.8498Y-2.7925
X6.8498Y-2.8925
X6.8498Y-2.9925
X6.8498Y-3.0925
X6.8498Y-3.1925
X6.8498Y-3.35
X6.8498Y-3.45
X6.8498Y-3.55
X6.8498Y-3.65
X6.8498Y-3.75
X6.8498Y-3.85
X6.8498Y-3.95
X6.8498Y-4.05
X6.8498Y-4.15
X6.8498Y-4.25
X6.8498Y-4.35
X6.8498Y-4.45
X6.8498Y-4.55
X6.8498Y-4.65
X6.8498Y-4.75
X6.8498Y-4.85
X6.8498Y-4.95
X6.8498Y-5.05
X6.9498Y-1.6925
X6.9498Y-1.7925
X6.9498Y-2.0925
X6.9498Y-2.1925
X6.9498Y-2.2925
X6.9498Y-2.5925
X6.9498Y-2.6925
X6.9498Y-3.55
X6.9498Y-3.65
X6.9498Y-3.95
X6.9498Y-4.05
X6.9498Y-4.15
X6.9498Y-4.45
X6.9498Y-4.55
X7.7698Y-2.0125
X7.7698Y-2.1525
X7.7698Y-2.2925
X7.7698Y-2.4325
X7.7698Y-2.5725
X7.7698Y-2.7125
X7.7698Y-3.87
X7.7698Y-4.01
X7.7698Y-4.15
X7.7698Y-4.29
X7.7698Y-4.43
X7.7698Y-4.57
T3
X2.1307Y-1.852
X2.2307Y-1.852
X2.4047Y-1.85
X2.5047Y-1.85
X2.702Y-1.8484
X2.802Y-1.8484
X2.8445Y-2.1012
X2.9429Y-2.1012
X2.9933Y-1.852
X3.0933Y-1.852
X3.2728Y-1.8535
X3.3728Y-1.8535
X4.7831Y-4.489
X4.7831Y-4.589
X4.7843Y-4.7244
X4.7843Y-4.8244
X5.2571Y-4.4984
X5.2571Y-4.5984
X5.2571Y-4.7283
X5.2571Y-4.8283
X5.515Y-1.6114
X5.515Y-1.7114
X5.5154Y-1.8398
X5.5154Y-1.9398
X5.9114Y-1.8417
X5.9114Y-1.9417
X5.9118Y-1.613
X5.9118Y-1.713
X6.3201Y-1.8437
X6.3201Y-1.9437
X6.3217Y-1.6122
X6.3217Y-1.7122
X7.3783Y-3.0697
X7.3783Y-3.2823
X7.3819Y-2.8248
X7.3823Y-2.0681
X7.3835Y-4.0429
X7.3835Y-4.2866
X7.3835Y-4.524
X7.3858Y-2.313
X7.3858Y-2.5579
X7.3858Y-3.5307
X7.3862Y-3.8024
X7.3894Y-1.8232
X7.4783Y-3.0697
X7.4783Y-3.2823
X7.4819Y-2.8248
X7.4823Y-2.0681
X7.4835Y-4.0429
X7.4835Y-4.2866
X7.4835Y-4.524
X7.4858Y-2.313
X7.4858Y-2.5579
X7.4858Y-3.5307
X7.4862Y-3.8024
X7.4894Y-1.8232
T4
X2.1764Y-1.5799
X2.1764Y-1.6799
X2.4524Y-1.5799
X2.4524Y-1.6799
X2.7496Y-1.5799
X2.7496Y-1.6799
X3.0406Y-1.578
X3.0406Y-1.678
X3.3169Y-1.5799
X3.3169Y-1.6799
T5
X1.6953Y-3.4567
X1.6953Y-3.5567
X1.6953Y-3.6567
X1.6953Y-3.7567
X1.6953Y-3.8567
X1.6953Y-3.9567
X1.7602Y-2.5177
X1.8406Y-4.4988
X1.8406Y-4.5988
X1.8406Y-4.6988
X1.8437Y-4.1799
X1.8602Y-2.5177
X1.9437Y-4.1799
X2.0437Y-4.1799
X2.1402Y-2.1469
X2.1402Y-2.2469
X2.1402Y-2.3469
X2.1402Y-2.4469
X2.1437Y-4.1799
X2.1524Y-4.4961
X2.1524Y-4.5961
X2.1524Y-4.6961
X2.3291Y-2.1472
X2.3291Y-2.2472
X2.3291Y-2.3472
X2.3291Y-2.4472
X2.5114Y-2.1488
X2.5114Y-2.2488
X2.5114Y-2.3488
X2.5114Y-2.4488
X2.9618Y-4.5634
X2.9618Y-4.6634
X3.3665Y-4.5193
X3.3665Y-4.6193
X3.3665Y-4.7193
X3.6126Y-4.5197
X3.6126Y-4.6197
X3.6126Y-4.7197
X3.7374Y-1.6303
X3.7374Y-1.7303
X3.7374Y-1.8303
X3.7374Y-1.9303
X4.0339Y-1.6299
X4.0339Y-1.7299
X4.0339Y-1.8299
X4.0339Y-1.9299
X4.3413Y-1.6335
X4.3413Y-1.7335
X4.3413Y-1.8335
X4.3413Y-1.9335
X4.6201Y-1.635
X4.6201Y-1.735
X4.6201Y-1.835
X4.6201Y-1.935
X4.6201Y-2.035
X4.6201Y-2.135
X4.915Y-1.6343
X4.915Y-1.7343
X4.915Y-1.8343
X4.915Y-1.9343
X5.0197Y-4.5677
X5.0197Y-4.6677
X5.0197Y-4.7677
X5.3114Y-1.6362
X5.3114Y-1.7362
X5.3114Y-1.8362
X5.3114Y-1.9362
X5.4728Y-4.5744
X5.4728Y-4.6744
X5.4728Y-4.7744
X5.7173Y-1.6382
X5.7173Y-1.7382
X5.7173Y-1.8382
X5.7173Y-1.9382
X6.124Y-1.6362
X6.124Y-1.7362
X6.124Y-1.8362
X6.124Y-1.9362
X7.0791Y-4.0067
X7.0791Y-4.1067
X7.0791Y-4.2067
X7.0791Y-4.3067
X7.0854Y-2.0094
X7.0854Y-2.1094
X7.0854Y-2.2094
X7.0854Y-2.3094
X7.0854Y-3.0008
X7.0854Y-3.1008
X7.0854Y-3.2008
X7.0854Y-3.3008
X7.1791Y-4.0067
X7.1791Y-4.1067
X7.1791Y-4.2067
X7.1791Y-4.3067
X7.1854Y-2.0094
X7.1854Y-2.1094
X7.1854Y-2.2094
X7.1854Y-2.3094
X7.1854Y-3.0008
X7.1854Y-3.1008
X7.1854Y-3.2008
X7.1854Y-3.3008
X7.6343Y-2.1236
X7.6343Y-2.2236
X7.6343Y-3.0287
X7.6343Y-3.1287
X7.6343Y-4.113
X7.6343Y-4.213
T6
X2.6Y-4.5197
X2.6Y-4.8189
T7
X3.5002Y-2.3783
X3.6002Y-2.3783
X3.7002Y-2.3783
X3.8002Y-2.3783
X3.8303Y-4.7378
X3.8331Y-4.5024
X3.8602Y-4.2783
X3.9002Y-2.3783
X3.9303Y-4.7378
X3.9331Y-4.5024
X3.9602Y-4.2783
X4.0002Y-2.3783
X4.0602Y-4.2783
X4.1002Y-2.3783
X4.1472Y-4.4996
X4.1484Y-4.7366
X4.1602Y-4.2783
X4.2002Y-2.3783
X4.2472Y-4.4996
X4.2484Y-4.7366
X4.2602Y-4.2783
X4.3002Y-2.3783
X4.3602Y-4.2783
X4.4002Y-2.3783
X4.4602Y-4.2783
X4.5602Y-2.3783
X4.5602Y-4.2783
X4.6602Y-2.3783
X4.7602Y-2.3783
X4.7602Y-4.2783
X4.8602Y-2.3783
X4.8602Y-4.2783
X4.9602Y-2.3783
X4.9602Y-4.2783
X5.0602Y-2.3783
X5.0602Y-4.2783
X5.1602Y-2.3783
X5.1602Y-4.2783
X5.2602Y-2.3783
X5.2602Y-4.2783
X5.2652Y-3.1783
X5.2652Y-3.2783
X5.2652Y-3.3783
X5.3602Y-4.2783
X5.3652Y-3.1783
X5.3652Y-3.2783
X5.3652Y-3.3783
X5.4602Y-2.3783
X5.4602Y-4.2783
X5.5602Y-2.3783
X5.6602Y-2.3783
X5.6602Y-4.2783
X5.7602Y-2.3783
X5.7602Y-4.2783
X5.8602Y-2.3783
X5.8602Y-4.2783
X5.9602Y-2.3783
X5.9602Y-4.2783
X6.0602Y-2.3783
X6.0602Y-4.2783
X6.1602Y-2.3783
X6.1602Y-4.2783
X6.2602Y-4.2783
X6.3602Y-4.2783
X6.4602Y-2.3783
X6.4602Y-2.4783
X6.4602Y-2.5783
X6.4602Y-2.6783
X6.4602Y-2.7783
X6.4602Y-2.8783
X6.4602Y-2.9783
X6.4602Y-3.0783
X6.4602Y-3.1783
X6.4602Y-3.2783
X6.4602Y-3.3783
X6.4602Y-3.4783
X6.4602Y-3.5783
X6.4602Y-3.6783
X6.4602Y-3.7783
X6.4602Y-3.8783
X6.4602Y-3.9783
X6.4602Y-4.0783
X6.5602Y-2.3783
X6.5602Y-2.4783
X6.5602Y-2.5783
X6.5602Y-2.6783
X6.5602Y-2.7783
X6.5602Y-2.8783
X6.5602Y-2.9783
X6.5602Y-3.0783
X6.5602Y-3.1783
X6.5602Y-3.2783
X6.5602Y-3.3783
X6.5602Y-3.4783
X6.5602Y-3.5783
X6.5602Y-3.6783
X6.5602Y-3.7783
X6.5602Y-3.8783
X6.5602Y-3.9783
X6.5602Y-4.0783
T8
X1.8669Y-2.7307
X1.8669Y-3.1307
T9
X1.8303Y-1.9945
X1.8303Y-2.1945
T10
X7.8123Y-1.54
X7.8123Y-3.145
X7.8123Y-3.3975
X7.8123Y-5.0025
T11
X1.7461Y-1.5433
X1.7555Y-5.011
X8.0551Y-1.5402
X8.0614Y-4.9933
T0
M30
