%TF.GenerationSoftware,KiCad,Pcbnew,(5.1.9)-1*%
%TF.CreationDate,2021-04-08T21:07:20+02:00*%
%TF.ProjectId,Ardumower,41726475-6d6f-4776-9572-2e6b69636164,rev?*%
%TF.SameCoordinates,Original*%
%TF.FileFunction,Copper,L1,Top*%
%TF.FilePolarity,Positive*%
%FSLAX46Y46*%
G04 Gerber Fmt 4.6, Leading zero omitted, Abs format (unit mm)*
G04 Created by KiCad (PCBNEW (5.1.9)-1) date 2021-04-08 21:07:20*
%MOMM*%
%LPD*%
G01*
G04 APERTURE LIST*
%TA.AperFunction,ComponentPad*%
%ADD10O,1.700000X1.700000*%
%TD*%
%TA.AperFunction,ComponentPad*%
%ADD11R,1.700000X1.700000*%
%TD*%
%TA.AperFunction,ComponentPad*%
%ADD12C,3.790000*%
%TD*%
%TA.AperFunction,ComponentPad*%
%ADD13C,2.000000*%
%TD*%
%TA.AperFunction,ComponentPad*%
%ADD14C,1.524000*%
%TD*%
%TA.AperFunction,ComponentPad*%
%ADD15O,1.600000X1.600000*%
%TD*%
%TA.AperFunction,ComponentPad*%
%ADD16C,1.600000*%
%TD*%
%TA.AperFunction,ComponentPad*%
%ADD17O,2.032000X2.032000*%
%TD*%
%TA.AperFunction,ComponentPad*%
%ADD18R,2.032000X2.032000*%
%TD*%
%TA.AperFunction,ComponentPad*%
%ADD19C,1.800000*%
%TD*%
%TA.AperFunction,ComponentPad*%
%ADD20R,1.800000X1.800000*%
%TD*%
%TA.AperFunction,ComponentPad*%
%ADD21O,1.727200X1.727200*%
%TD*%
%TA.AperFunction,ComponentPad*%
%ADD22C,3.000000*%
%TD*%
%TA.AperFunction,ComponentPad*%
%ADD23R,3.000000X3.000000*%
%TD*%
%TA.AperFunction,ComponentPad*%
%ADD24O,2.200000X2.200000*%
%TD*%
%TA.AperFunction,ComponentPad*%
%ADD25R,2.200000X2.200000*%
%TD*%
%TA.AperFunction,ComponentPad*%
%ADD26R,1.600000X1.600000*%
%TD*%
%TA.AperFunction,ViaPad*%
%ADD27C,0.800000*%
%TD*%
%TA.AperFunction,Conductor*%
%ADD28C,0.250000*%
%TD*%
%TA.AperFunction,Conductor*%
%ADD29C,1.250000*%
%TD*%
%TA.AperFunction,Conductor*%
%ADD30C,1.500000*%
%TD*%
G04 APERTURE END LIST*
D10*
%TO.P,J19,3*%
%TO.N,Net-(J19-Pad3)*%
X139010000Y-121270000D03*
%TO.P,J19,2*%
%TO.N,GND*%
X139010000Y-118730000D03*
D11*
%TO.P,J19,1*%
%TO.N,+5V*%
X139010000Y-116190000D03*
%TD*%
D12*
%TO.P,REF\u002A\u002A,1*%
%TO.N,N/C*%
X44350000Y-39200000D03*
%TD*%
%TO.P,REF2,2*%
%TO.N,N/C*%
X44590000Y-127280000D03*
%TD*%
%TO.P,REF3,3*%
%TO.N,N/C*%
X204760000Y-126830000D03*
%TD*%
%TO.P,REF4,4*%
%TO.N,N/C*%
X204600000Y-39120000D03*
%TD*%
D13*
%TO.P,U2,~*%
%TO.N,N/C*%
X198431500Y-86296500D03*
X198431500Y-127063500D03*
D14*
%TO.P,U2,31*%
X176524000Y-90170000D03*
%TO.P,U2,30*%
X176524000Y-92710000D03*
%TO.P,U2,29*%
X176524000Y-100330000D03*
%TO.P,U2,28*%
X176524000Y-102870000D03*
%TO.P,U2,27*%
X176524000Y-105410000D03*
%TO.P,U2,26*%
X176524000Y-113030000D03*
%TO.P,U2,25*%
X176524000Y-115570000D03*
%TO.P,U2,24*%
%TO.N,Net-(U2-Pad24)*%
X197352000Y-98298000D03*
%TO.P,U2,23*%
%TO.N,Net-(U2-Pad23)*%
X197352000Y-101854000D03*
%TO.P,U2,22*%
%TO.N,+24V*%
X197352000Y-105410000D03*
%TO.P,U2,21*%
%TO.N,GND*%
X197352000Y-108966000D03*
%TO.P,U2,20*%
%TO.N,Net-(U2-Pad20)*%
X197352000Y-112522000D03*
%TO.P,U2,19*%
%TO.N,Net-(U2-Pad19)*%
X197352000Y-116078000D03*
%TO.P,U2,18*%
%TO.N,pinMotorRightSense*%
X173984000Y-85090000D03*
%TO.P,U2,17*%
%TO.N,pinMotorRightFault*%
X173984000Y-87630000D03*
%TO.P,U2,16*%
%TO.N,GND*%
X173984000Y-90170000D03*
%TO.P,U2,15*%
%TO.N,IOREV*%
X173984000Y-92710000D03*
%TO.P,U2,14*%
%TO.N,pinMotorRightPWM*%
X173984000Y-95250000D03*
%TO.P,U2,13*%
%TO.N,pinMotorRightDir*%
X173984000Y-97790000D03*
%TO.P,U2,12*%
%TO.N,Net-(U2-Pad12)*%
X173984000Y-100330000D03*
%TO.P,U2,11*%
%TO.N,Net-(U2-Pad11)*%
X173984000Y-102870000D03*
%TO.P,U2,10*%
%TO.N,pinMotorEnable*%
X173984000Y-105410000D03*
%TO.P,U2,9*%
%TO.N,pinMotorLeftSense*%
X173984000Y-107950000D03*
%TO.P,U2,8*%
%TO.N,pinMotorLeftFault*%
X173984000Y-110490000D03*
%TO.P,U2,7*%
%TO.N,GND*%
X173984000Y-113030000D03*
%TO.P,U2,6*%
%TO.N,IOREV*%
X173984000Y-115570000D03*
%TO.P,U2,5*%
%TO.N,pinMotorLeftPWM*%
X173984000Y-118110000D03*
%TO.P,U2,4*%
%TO.N,pinMotorLeftDir*%
X173984000Y-120650000D03*
%TO.P,U2,3*%
%TO.N,IOREV*%
X173984000Y-123190000D03*
%TO.P,U2,2*%
%TO.N,GND*%
X173984000Y-125730000D03*
%TO.P,U2,1*%
%TO.N,Net-(U2-Pad1)*%
X173984000Y-128270000D03*
%TD*%
D13*
%TO.P,U1,~*%
%TO.N,N/C*%
X198431500Y-39116500D03*
X198431500Y-79883500D03*
D14*
%TO.P,U1,31*%
X176524000Y-42990000D03*
%TO.P,U1,30*%
X176524000Y-45530000D03*
%TO.P,U1,29*%
X176524000Y-53150000D03*
%TO.P,U1,28*%
X176524000Y-55690000D03*
%TO.P,U1,27*%
X176524000Y-58230000D03*
%TO.P,U1,26*%
X176524000Y-65850000D03*
%TO.P,U1,25*%
X176524000Y-68390000D03*
%TO.P,U1,24*%
%TO.N,Net-(U1-Pad24)*%
X197352000Y-51118000D03*
%TO.P,U1,23*%
%TO.N,Net-(U1-Pad23)*%
X197352000Y-54674000D03*
%TO.P,U1,22*%
%TO.N,+24V*%
X197352000Y-58230000D03*
%TO.P,U1,21*%
%TO.N,GND*%
X197352000Y-61786000D03*
%TO.P,U1,20*%
%TO.N,Net-(U1-Pad20)*%
X197352000Y-65342000D03*
%TO.P,U1,19*%
%TO.N,Net-(U1-Pad19)*%
X197352000Y-68898000D03*
%TO.P,U1,18*%
%TO.N,pinMotorMowSense*%
X173984000Y-37910000D03*
%TO.P,U1,17*%
%TO.N,pinMotorMowFault*%
X173984000Y-40450000D03*
%TO.P,U1,16*%
%TO.N,GND*%
X173984000Y-42990000D03*
%TO.P,U1,15*%
%TO.N,IOREV*%
X173984000Y-45530000D03*
%TO.P,U1,14*%
%TO.N,pinMotorMowPWM*%
X173984000Y-48070000D03*
%TO.P,U1,13*%
%TO.N,pinMotorMowDir*%
X173984000Y-50610000D03*
%TO.P,U1,12*%
%TO.N,Net-(U1-Pad12)*%
X173984000Y-53150000D03*
%TO.P,U1,11*%
%TO.N,Net-(U1-Pad11)*%
X173984000Y-55690000D03*
%TO.P,U1,10*%
%TO.N,pinMotorMowEnable*%
X173984000Y-58230000D03*
%TO.P,U1,9*%
%TO.N,IOREV*%
X173984000Y-60770000D03*
%TO.P,U1,8*%
%TO.N,pinMotorMowFault*%
X173984000Y-63310000D03*
%TO.P,U1,7*%
%TO.N,GND*%
X173984000Y-65850000D03*
%TO.P,U1,6*%
%TO.N,IOREV*%
X173984000Y-68390000D03*
%TO.P,U1,5*%
%TO.N,pinMotorMowPWM*%
X173984000Y-70930000D03*
%TO.P,U1,4*%
%TO.N,pinMotorMowDir*%
X173984000Y-73470000D03*
%TO.P,U1,3*%
%TO.N,IOREV*%
X173984000Y-76010000D03*
%TO.P,U1,2*%
%TO.N,GND*%
X173984000Y-78550000D03*
%TO.P,U1,1*%
%TO.N,Net-(U1-Pad1)*%
X173984000Y-81090000D03*
%TD*%
D15*
%TO.P,R28,2*%
%TO.N,pinMotorRightFault*%
X190080000Y-114910000D03*
D16*
%TO.P,R28,1*%
%TO.N,Net-(J28-Pad7)*%
X187540000Y-114910000D03*
%TD*%
D15*
%TO.P,R27,2*%
%TO.N,GND*%
X190080000Y-108880000D03*
D16*
%TO.P,R27,1*%
%TO.N,Net-(J28-Pad7)*%
X187540000Y-108880000D03*
%TD*%
D15*
%TO.P,R26,2*%
%TO.N,pinOdometryRight*%
X190080000Y-102690000D03*
D16*
%TO.P,R26,1*%
%TO.N,Net-(J28-Pad6)*%
X187540000Y-102690000D03*
%TD*%
D15*
%TO.P,R25,2*%
%TO.N,GND*%
X190150000Y-96580000D03*
D16*
%TO.P,R25,1*%
%TO.N,Net-(J28-Pad6)*%
X187610000Y-96580000D03*
%TD*%
D15*
%TO.P,R24,2*%
%TO.N,pinMotorMowFault*%
X190140000Y-89680000D03*
D16*
%TO.P,R24,1*%
%TO.N,Net-(J27-Pad7)*%
X187600000Y-89680000D03*
%TD*%
D15*
%TO.P,R23,2*%
%TO.N,GND*%
X189950000Y-83370000D03*
D16*
%TO.P,R23,1*%
%TO.N,Net-(J27-Pad7)*%
X187410000Y-83370000D03*
%TD*%
D15*
%TO.P,R22,2*%
%TO.N,pinMotorMowRpm*%
X189950000Y-77970000D03*
D16*
%TO.P,R22,1*%
%TO.N,Net-(J27-Pad6)*%
X187410000Y-77970000D03*
%TD*%
D15*
%TO.P,R21,2*%
%TO.N,GND*%
X190040000Y-71750000D03*
D16*
%TO.P,R21,1*%
%TO.N,Net-(J27-Pad6)*%
X187500000Y-71750000D03*
%TD*%
D15*
%TO.P,R20,2*%
%TO.N,pinMotorLeftFault*%
X190140000Y-64970000D03*
D16*
%TO.P,R20,1*%
%TO.N,Net-(J26-Pad7)*%
X187600000Y-64970000D03*
%TD*%
D15*
%TO.P,R19,2*%
%TO.N,GND*%
X190140000Y-58750000D03*
D16*
%TO.P,R19,1*%
%TO.N,Net-(J26-Pad7)*%
X187600000Y-58750000D03*
%TD*%
D15*
%TO.P,R18,2*%
%TO.N,pinOdometryLeft*%
X190050000Y-52530000D03*
D16*
%TO.P,R18,1*%
%TO.N,Net-(J26-Pad6)*%
X187510000Y-52530000D03*
%TD*%
D15*
%TO.P,R17,2*%
%TO.N,GND*%
X190230000Y-46310000D03*
D16*
%TO.P,R17,1*%
%TO.N,Net-(J26-Pad6)*%
X187690000Y-46310000D03*
%TD*%
D10*
%TO.P,JP6,2*%
%TO.N,Net-(J28-Pad1)*%
X193910000Y-107010000D03*
D11*
%TO.P,JP6,1*%
%TO.N,+5V*%
X193910000Y-104470000D03*
%TD*%
D10*
%TO.P,JP5,2*%
%TO.N,Net-(J27-Pad1)*%
X193910000Y-79470000D03*
D11*
%TO.P,JP5,1*%
%TO.N,+5V*%
X193910000Y-76930000D03*
%TD*%
D10*
%TO.P,JP4,2*%
%TO.N,Net-(J26-Pad1)*%
X193910000Y-56480000D03*
D11*
%TO.P,JP4,1*%
%TO.N,+5V*%
X193910000Y-53940000D03*
%TD*%
D10*
%TO.P,J28,8*%
%TO.N,GND*%
X179810000Y-109390000D03*
%TO.P,J28,7*%
%TO.N,Net-(J28-Pad7)*%
X182350000Y-109390000D03*
%TO.P,J28,6*%
%TO.N,Net-(J28-Pad6)*%
X179810000Y-106850000D03*
%TO.P,J28,5*%
%TO.N,pinMotorEnable*%
X182350000Y-106850000D03*
%TO.P,J28,4*%
%TO.N,pinMotorRightPWM*%
X179810000Y-104310000D03*
%TO.P,J28,3*%
%TO.N,MotorBreak*%
X182350000Y-104310000D03*
%TO.P,J28,2*%
%TO.N,pinMotorRightDir*%
X179810000Y-101770000D03*
D11*
%TO.P,J28,1*%
%TO.N,Net-(J28-Pad1)*%
X182350000Y-101770000D03*
%TD*%
D10*
%TO.P,J27,8*%
%TO.N,GND*%
X179970000Y-83840000D03*
%TO.P,J27,7*%
%TO.N,Net-(J27-Pad7)*%
X182510000Y-83840000D03*
%TO.P,J27,6*%
%TO.N,Net-(J27-Pad6)*%
X179970000Y-81300000D03*
%TO.P,J27,5*%
%TO.N,pinMotorMowEnable*%
X182510000Y-81300000D03*
%TO.P,J27,4*%
%TO.N,pinMotorMowPWM*%
X179970000Y-78760000D03*
%TO.P,J27,3*%
%TO.N,MotorMowBreak*%
X182510000Y-78760000D03*
%TO.P,J27,2*%
%TO.N,pinMotorMowDir*%
X179970000Y-76220000D03*
D11*
%TO.P,J27,1*%
%TO.N,Net-(J27-Pad1)*%
X182510000Y-76220000D03*
%TD*%
D10*
%TO.P,J26,8*%
%TO.N,GND*%
X179970000Y-58660000D03*
%TO.P,J26,7*%
%TO.N,Net-(J26-Pad7)*%
X182510000Y-58660000D03*
%TO.P,J26,6*%
%TO.N,Net-(J26-Pad6)*%
X179970000Y-56120000D03*
%TO.P,J26,5*%
%TO.N,pinMotorEnable*%
X182510000Y-56120000D03*
%TO.P,J26,4*%
%TO.N,pinMotorLeftPWM*%
X179970000Y-53580000D03*
%TO.P,J26,3*%
%TO.N,MotorBreak*%
X182510000Y-53580000D03*
%TO.P,J26,2*%
%TO.N,pinMotorLeftDir*%
X179970000Y-51040000D03*
D11*
%TO.P,J26,1*%
%TO.N,Net-(J26-Pad1)*%
X182510000Y-51040000D03*
%TD*%
D17*
%TO.P,J16,2*%
%TO.N,pinUserSwitch1*%
X99830000Y-120340000D03*
D18*
%TO.P,J16,1*%
%TO.N,GND*%
X97290000Y-120340000D03*
%TD*%
D19*
%TO.P,D4,2*%
%TO.N,Net-(D4-Pad2)*%
X69840000Y-42670000D03*
D20*
%TO.P,D4,1*%
%TO.N,GND*%
X69840000Y-40130000D03*
%TD*%
D19*
%TO.P,D2,2*%
%TO.N,Net-(D2-Pad2)*%
X55280000Y-42670000D03*
D20*
%TO.P,D2,1*%
%TO.N,GND*%
X55280000Y-40130000D03*
%TD*%
D17*
%TO.P,J18,2*%
%TO.N,pinUserSwitch3*%
X107910000Y-120310000D03*
D18*
%TO.P,J18,1*%
%TO.N,GND*%
X105370000Y-120310000D03*
%TD*%
D17*
%TO.P,J17,2*%
%TO.N,pinUserSwitch2*%
X107880000Y-114290000D03*
D18*
%TO.P,J17,1*%
%TO.N,GND*%
X105340000Y-114290000D03*
%TD*%
D10*
%TO.P,JP2,2*%
%TO.N,Net-(JP2-Pad2)*%
X75230000Y-118450000D03*
D11*
%TO.P,JP2,1*%
%TO.N,pinBuzzer*%
X75230000Y-115910000D03*
%TD*%
D10*
%TO.P,JP1,2*%
%TO.N,Net-(D1-Pad2)*%
X47250000Y-63950000D03*
D11*
%TO.P,JP1,1*%
%TO.N,Net-(J1-Pad2)*%
X44710000Y-63950000D03*
%TD*%
D10*
%TO.P,J22,4*%
%TO.N,+3V3*%
X54360000Y-62150000D03*
%TO.P,J22,3*%
X54360000Y-59610000D03*
%TO.P,J22,2*%
X54360000Y-57070000D03*
D11*
%TO.P,J22,1*%
X54360000Y-54530000D03*
%TD*%
D10*
%TO.P,J21,6*%
%TO.N,pinVoltageMeasurement*%
X43060000Y-100500000D03*
%TO.P,J21,5*%
%TO.N,pinChargeRelay*%
X43060000Y-97960000D03*
%TO.P,J21,4*%
%TO.N,pinChargeCurrent*%
X43060000Y-95420000D03*
%TO.P,J21,3*%
%TO.N,pinChargeVoltage*%
X43060000Y-92880000D03*
%TO.P,J21,2*%
%TO.N,pinBatterySwitch*%
X43060000Y-90340000D03*
D11*
%TO.P,J21,1*%
%TO.N,pinBatteryVoltage*%
X43060000Y-87800000D03*
%TD*%
D10*
%TO.P,J20,4*%
%TO.N,pinRemoteSwitch*%
X54450000Y-106170000D03*
%TO.P,J20,3*%
%TO.N,pinRemoteMow*%
X51910000Y-106170000D03*
%TO.P,J20,2*%
%TO.N,pinRemoteSteer*%
X49370000Y-106170000D03*
D11*
%TO.P,J20,1*%
%TO.N,pinRemoteSpeed*%
X46830000Y-106170000D03*
%TD*%
D17*
%TO.P,J15,2*%
%TO.N,pinButton*%
X97360000Y-114360000D03*
D18*
%TO.P,J15,1*%
%TO.N,GND*%
X99900000Y-114360000D03*
%TD*%
D10*
%TO.P,J14,6*%
%TO.N,GND*%
X117350000Y-41530000D03*
%TO.P,J14,5*%
%TO.N,+3V3*%
X117350000Y-44070000D03*
%TO.P,J14,4*%
%TO.N,SDA1*%
X117350000Y-46610000D03*
%TO.P,J14,3*%
%TO.N,SCL1*%
X117350000Y-49150000D03*
%TO.P,J14,2*%
%TO.N,Net-(J14-Pad2)*%
X117350000Y-51690000D03*
D11*
%TO.P,J14,1*%
%TO.N,Net-(J14-Pad1)*%
X117350000Y-54230000D03*
%TD*%
D10*
%TO.P,J12,4*%
%TO.N,pinSonarLeftEcho*%
X134910000Y-49180000D03*
%TO.P,J12,3*%
%TO.N,Net-(J12-Pad3)*%
X134910000Y-46640000D03*
%TO.P,J12,2*%
%TO.N,GND*%
X134910000Y-44100000D03*
D11*
%TO.P,J12,1*%
%TO.N,+5V*%
X134910000Y-41560000D03*
%TD*%
D10*
%TO.P,J11,4*%
%TO.N,pinSonarCenterEcho*%
X145220000Y-49230000D03*
%TO.P,J11,3*%
%TO.N,Net-(J11-Pad3)*%
X145220000Y-46690000D03*
%TO.P,J11,2*%
%TO.N,GND*%
X145220000Y-44150000D03*
D11*
%TO.P,J11,1*%
%TO.N,+5V*%
X145220000Y-41610000D03*
%TD*%
D10*
%TO.P,J10,4*%
%TO.N,pinSonarRightEcho*%
X155550000Y-49180000D03*
%TO.P,J10,3*%
%TO.N,Net-(J10-Pad3)*%
X155550000Y-46640000D03*
%TO.P,J10,2*%
%TO.N,GND*%
X155550000Y-44100000D03*
D11*
%TO.P,J10,1*%
%TO.N,+5V*%
X155550000Y-41560000D03*
%TD*%
D10*
%TO.P,J5,4*%
%TO.N,pinBumperLeft*%
X124840000Y-49130000D03*
%TO.P,J5,3*%
%TO.N,GND*%
X124840000Y-46590000D03*
%TO.P,J5,2*%
%TO.N,pinBumperRight*%
X124840000Y-44050000D03*
D11*
%TO.P,J5,1*%
%TO.N,GND*%
X124840000Y-41510000D03*
%TD*%
D10*
%TO.P,J4,4*%
%TO.N,SCL1*%
X110270000Y-49110000D03*
%TO.P,J4,3*%
%TO.N,SDA1*%
X110270000Y-46570000D03*
%TO.P,J4,2*%
%TO.N,GND*%
X110270000Y-44030000D03*
D11*
%TO.P,J4,1*%
%TO.N,+3V3*%
X110270000Y-41490000D03*
%TD*%
D10*
%TO.P,J3,4*%
%TO.N,SCL0*%
X102460000Y-49020000D03*
%TO.P,J3,3*%
%TO.N,SDA0*%
X102460000Y-46480000D03*
%TO.P,J3,2*%
%TO.N,GND*%
X102460000Y-43940000D03*
D11*
%TO.P,J3,1*%
%TO.N,+3V3*%
X102460000Y-41400000D03*
%TD*%
D10*
%TO.P,J2,4*%
%TO.N,SCL0*%
X94930000Y-49030000D03*
%TO.P,J2,3*%
%TO.N,SDA0*%
X94930000Y-46490000D03*
%TO.P,J2,2*%
%TO.N,GND*%
X94930000Y-43950000D03*
D11*
%TO.P,J2,1*%
%TO.N,+3V3*%
X94930000Y-41410000D03*
%TD*%
D10*
%TO.P,J23,4*%
%TO.N,GND*%
X59160000Y-62160000D03*
%TO.P,J23,3*%
X59160000Y-59620000D03*
%TO.P,J23,2*%
X59160000Y-57080000D03*
D11*
%TO.P,J23,1*%
X59160000Y-54540000D03*
%TD*%
D21*
%TO.P,XA1,MISO*%
%TO.N,Net-(XA1-PadMISO)*%
X133737000Y-80730000D03*
%TO.P,XA1,GND6*%
%TO.N,GND*%
X166630000Y-103590000D03*
%TO.P,XA1,GND5*%
X164090000Y-103590000D03*
%TO.P,XA1,D53*%
%TO.N,pinBuzzer*%
X166630000Y-101050000D03*
%TO.P,XA1,D52*%
%TO.N,pinRemoteSwitch*%
X164090000Y-101050000D03*
%TO.P,XA1,D51*%
%TO.N,pinButton*%
X166630000Y-98510000D03*
%TO.P,XA1,D50*%
%TO.N,pinChargeRelay*%
X164090000Y-98510000D03*
%TO.P,XA1,D49*%
%TO.N,Net-(XA1-PadD49)*%
X166630000Y-95970000D03*
%TO.P,XA1,D48*%
%TO.N,pinUserSwitch3*%
X164090000Y-95970000D03*
%TO.P,XA1,D47*%
%TO.N,pinUserSwitch2*%
X166630000Y-93430000D03*
%TO.P,XA1,D46*%
%TO.N,pinUserSwitch1*%
X164090000Y-93430000D03*
%TO.P,XA1,D45*%
%TO.N,pinDropLeft*%
X166630000Y-90890000D03*
%TO.P,XA1,D44*%
%TO.N,pinRain*%
X164090000Y-90890000D03*
%TO.P,XA1,D43*%
%TO.N,pinLawnBackSend*%
X166630000Y-88350000D03*
%TO.P,XA1,D42*%
%TO.N,pinLawnBackRecv*%
X164090000Y-88350000D03*
%TO.P,XA1,D41*%
%TO.N,pinLawnFrontSend*%
X166630000Y-85810000D03*
%TO.P,XA1,D40*%
%TO.N,pinLawnFrontRecv*%
X164090000Y-85810000D03*
%TO.P,XA1,D39*%
%TO.N,pinBumperLeft*%
X166630000Y-83270000D03*
%TO.P,XA1,D38*%
%TO.N,pinBumperRight*%
X164090000Y-83270000D03*
%TO.P,XA1,D37*%
%TO.N,pinMotorEnable*%
X166630000Y-80730000D03*
%TO.P,XA1,D36*%
%TO.N,pinSonarLeftEcho*%
X164090000Y-80730000D03*
%TO.P,XA1,D35*%
%TO.N,pinTilt*%
X166630000Y-78190000D03*
%TO.P,XA1,D34*%
%TO.N,pinSonarLeftTrigger*%
X164090000Y-78190000D03*
%TO.P,XA1,D33*%
%TO.N,pinMotorRightDir*%
X166630000Y-75650000D03*
%TO.P,XA1,D32*%
%TO.N,pinSonarRightEcho*%
X164090000Y-75650000D03*
%TO.P,XA1,D31*%
%TO.N,pinMotorLeftDir*%
X166630000Y-73110000D03*
%TO.P,XA1,D30*%
%TO.N,pinSonarRightTrigger*%
X164090000Y-73110000D03*
%TO.P,XA1,D29*%
%TO.N,pinMotorMowDir*%
X166630000Y-70570000D03*
%TO.P,XA1,D28*%
%TO.N,pinMotorMowEnable*%
X164090000Y-70570000D03*
%TO.P,XA1,D27*%
%TO.N,pinMotorRightFault*%
X166630000Y-68030000D03*
%TO.P,XA1,D26*%
%TO.N,pinMotorMowFault*%
X164090000Y-68030000D03*
%TO.P,XA1,D25*%
%TO.N,pinMotorLeftFault*%
X166630000Y-65490000D03*
%TO.P,XA1,D24*%
%TO.N,pinSonarCenterTrigger*%
X164090000Y-65490000D03*
%TO.P,XA1,D23*%
%TO.N,pinDropRight*%
X166630000Y-62950000D03*
%TO.P,XA1,D22*%
%TO.N,pinSonarCenterEcho*%
X164090000Y-62950000D03*
%TO.P,XA1,5V4*%
%TO.N,Net-(XA1-Pad5V4)*%
X166630000Y-60410000D03*
%TO.P,XA1,5V3*%
%TO.N,Net-(XA1-Pad5V3)*%
X164090000Y-60410000D03*
%TO.P,XA1,CANT*%
%TO.N,pinOdometryRight2*%
X161550000Y-108670000D03*
%TO.P,XA1,CANR*%
%TO.N,pinOdometryRight*%
X159010000Y-108670000D03*
%TO.P,XA1,DAC1*%
%TO.N,pinOdometryLeft2*%
X156470000Y-108670000D03*
%TO.P,XA1,DAC0*%
%TO.N,pinOdometryLeft*%
X153930000Y-108670000D03*
%TO.P,XA1,A11*%
%TO.N,pinMotorMowRpm*%
X151390000Y-108670000D03*
%TO.P,XA1,A10*%
%TO.N,Net-(XA1-PadA10)*%
X148850000Y-108670000D03*
%TO.P,XA1,A9*%
%TO.N,pinChargeVoltage*%
X146310000Y-108670000D03*
%TO.P,XA1,A8*%
%TO.N,pinChargeCurrent*%
X143770000Y-108670000D03*
%TO.P,XA1,A7*%
%TO.N,pinVoltageMeasurement*%
X138690000Y-108670000D03*
%TO.P,XA1,A6*%
%TO.N,pinPerimeterCenter*%
X136150000Y-108670000D03*
%TO.P,XA1,A5*%
%TO.N,pinPerimeterLeft*%
X133610000Y-108670000D03*
%TO.P,XA1,A4*%
%TO.N,pinPerimeterRight*%
X131070000Y-108670000D03*
%TO.P,XA1,A3*%
%TO.N,pinMotorMowSense*%
X128530000Y-108670000D03*
%TO.P,XA1,A2*%
%TO.N,pinBatteryVoltage*%
X125990000Y-108670000D03*
%TO.P,XA1,A1*%
%TO.N,pinMotorLeftSense*%
X123450000Y-108670000D03*
%TO.P,XA1,*%
%TO.N,*%
X98050000Y-108670000D03*
%TO.P,XA1,D11*%
%TO.N,pinRemoteSteer*%
X104146000Y-60410000D03*
%TO.P,XA1,D12*%
%TO.N,pinRemoteMow*%
X101606000Y-60410000D03*
%TO.P,XA1,D13*%
%TO.N,pinLED*%
X99066000Y-60410000D03*
%TO.P,XA1,AREF*%
%TO.N,Net-(C1-Pad2)*%
X93986000Y-60410000D03*
%TO.P,XA1,SDA1*%
%TO.N,SDA1*%
X91446000Y-60410000D03*
%TO.P,XA1,SCL1*%
%TO.N,SCL1*%
X88906000Y-60410000D03*
%TO.P,XA1,D10*%
%TO.N,pinRemoteSpeed*%
X106686000Y-60410000D03*
%TO.P,XA1,D9*%
%TO.N,Net-(XA1-PadD9)*%
X109226000Y-60410000D03*
%TO.P,XA1,D8*%
%TO.N,Net-(XA1-PadD8)*%
X111766000Y-60410000D03*
%TO.P,XA1,GND1*%
%TO.N,GND*%
X96526000Y-60410000D03*
%TO.P,XA1,D7*%
%TO.N,pinRedLED*%
X115830000Y-60410000D03*
%TO.P,XA1,D6*%
%TO.N,pinGreenLED*%
X118370000Y-60410000D03*
%TO.P,XA1,D5*%
%TO.N,pinMotorLeftPWM*%
X120910000Y-60410000D03*
%TO.P,XA1,D4*%
%TO.N,pinBatterySwitch*%
X123450000Y-60410000D03*
%TO.P,XA1,D3*%
%TO.N,pinMotorRightPWM*%
X125990000Y-60410000D03*
%TO.P,XA1,D2*%
%TO.N,pinMotorMowPWM*%
X128530000Y-60410000D03*
%TO.P,XA1,D1*%
%TO.N,TX0*%
X131070000Y-60410000D03*
%TO.P,XA1,D0*%
%TO.N,RX0*%
X133610000Y-60410000D03*
%TO.P,XA1,D14*%
%TO.N,GPS_RX*%
X138690000Y-60410000D03*
%TO.P,XA1,D15*%
%TO.N,GPS_TX*%
X141230000Y-60410000D03*
%TO.P,XA1,D16*%
%TO.N,TX2*%
X143770000Y-60410000D03*
%TO.P,XA1,D17*%
%TO.N,RX2*%
X146310000Y-60410000D03*
%TO.P,XA1,D18*%
%TO.N,TX1*%
X148850000Y-60410000D03*
%TO.P,XA1,D19*%
%TO.N,RX1*%
X151390000Y-60410000D03*
%TO.P,XA1,D20*%
%TO.N,SDA0*%
X153930000Y-60410000D03*
%TO.P,XA1,D21*%
%TO.N,SCL0*%
X156470000Y-60410000D03*
%TO.P,XA1,IORF*%
%TO.N,IOREV*%
X100590000Y-108670000D03*
%TO.P,XA1,RST1*%
%TO.N,Reset*%
X103130000Y-108670000D03*
%TO.P,XA1,3V3*%
%TO.N,+3V3*%
X105670000Y-108670000D03*
%TO.P,XA1,5V1*%
%TO.N,+5V*%
X108210000Y-108670000D03*
%TO.P,XA1,GND2*%
%TO.N,GND*%
X110750000Y-108670000D03*
%TO.P,XA1,GND3*%
X113290000Y-108670000D03*
%TO.P,XA1,VIN*%
%TO.N,+9V*%
X115830000Y-108670000D03*
%TO.P,XA1,A0*%
%TO.N,pinMotorRightSense*%
X120910000Y-108670000D03*
%TO.P,XA1,5V2*%
%TO.N,Net-(XA1-Pad5V2)*%
X136277000Y-80730000D03*
%TO.P,XA1,SCK*%
%TO.N,Net-(XA1-PadSCK)*%
X133737000Y-83270000D03*
%TO.P,XA1,MOSI*%
%TO.N,Net-(XA1-PadMOSI)*%
X136277000Y-83270000D03*
%TO.P,XA1,GND4*%
%TO.N,Net-(XA1-PadGND4)*%
X136277000Y-85810000D03*
%TO.P,XA1,RST2*%
%TO.N,Net-(XA1-PadRST2)*%
X133737000Y-85810000D03*
%TD*%
D13*
%TO.P,SP1,1*%
%TO.N,GND*%
X66040000Y-114800160D03*
%TO.P,SP1,2*%
%TO.N,Net-(JP2-Pad2)*%
X66040000Y-122399840D03*
%TD*%
D15*
%TO.P,R15,2*%
%TO.N,Net-(D6-Pad2)*%
X85670000Y-47080000D03*
D16*
%TO.P,R15,1*%
%TO.N,pinRedLED*%
X83130000Y-47080000D03*
%TD*%
D15*
%TO.P,R14,2*%
%TO.N,Net-(D5-Pad2)*%
X78570000Y-47040000D03*
D16*
%TO.P,R14,1*%
%TO.N,pinGreenLED*%
X76030000Y-47040000D03*
%TD*%
D15*
%TO.P,R13,2*%
%TO.N,Net-(D4-Pad2)*%
X71170000Y-46950000D03*
D16*
%TO.P,R13,1*%
%TO.N,pinLED*%
X68630000Y-46950000D03*
%TD*%
D15*
%TO.P,R12,2*%
%TO.N,+5V*%
X63620000Y-46990000D03*
D16*
%TO.P,R12,1*%
%TO.N,Net-(D3-Pad2)*%
X61080000Y-46990000D03*
%TD*%
D15*
%TO.P,R11,2*%
%TO.N,+3V3*%
X56660000Y-47040000D03*
D16*
%TO.P,R11,1*%
%TO.N,Net-(D2-Pad2)*%
X54120000Y-47040000D03*
%TD*%
D15*
%TO.P,R10,2*%
%TO.N,GND*%
X121490000Y-114020000D03*
D16*
%TO.P,R10,1*%
%TO.N,Net-(J19-Pad3)*%
X121490000Y-116560000D03*
%TD*%
D15*
%TO.P,R9,2*%
%TO.N,pinPerimeterLeft*%
X121520000Y-120000000D03*
D16*
%TO.P,R9,1*%
%TO.N,Net-(J19-Pad3)*%
X121520000Y-122540000D03*
%TD*%
D15*
%TO.P,R8,2*%
%TO.N,GND*%
X133530000Y-114260000D03*
D16*
%TO.P,R8,1*%
%TO.N,Net-(J13-Pad3)*%
X133530000Y-116800000D03*
%TD*%
D15*
%TO.P,R7,2*%
%TO.N,pinPerimeterRight*%
X133530000Y-120100000D03*
D16*
%TO.P,R7,1*%
%TO.N,Net-(J13-Pad3)*%
X133530000Y-122640000D03*
%TD*%
D15*
%TO.P,R6,2*%
%TO.N,GND*%
X160530000Y-49370000D03*
D16*
%TO.P,R6,1*%
%TO.N,Net-(J10-Pad3)*%
X160530000Y-46830000D03*
%TD*%
D15*
%TO.P,R5,2*%
%TO.N,GND*%
X140080000Y-40930000D03*
D16*
%TO.P,R5,1*%
%TO.N,Net-(J12-Pad3)*%
X140080000Y-43470000D03*
%TD*%
D15*
%TO.P,R4,2*%
%TO.N,GND*%
X150160000Y-40970000D03*
D16*
%TO.P,R4,1*%
%TO.N,Net-(J11-Pad3)*%
X150160000Y-43510000D03*
%TD*%
D15*
%TO.P,R3,2*%
%TO.N,pinSonarRightTrigger*%
X160570000Y-40950000D03*
D16*
%TO.P,R3,1*%
%TO.N,Net-(J10-Pad3)*%
X160570000Y-43490000D03*
%TD*%
D15*
%TO.P,R2,2*%
%TO.N,pinSonarLeftTrigger*%
X140090000Y-49270000D03*
D16*
%TO.P,R2,1*%
%TO.N,Net-(J12-Pad3)*%
X140090000Y-46730000D03*
%TD*%
D15*
%TO.P,R1,2*%
%TO.N,pinSonarCenterTrigger*%
X150150000Y-49320000D03*
D16*
%TO.P,R1,1*%
%TO.N,Net-(J11-Pad3)*%
X150150000Y-46780000D03*
%TD*%
D10*
%TO.P,J24,4*%
%TO.N,RX2*%
X63790000Y-62200000D03*
%TO.P,J24,3*%
%TO.N,TX2*%
X63790000Y-59660000D03*
%TO.P,J24,2*%
%TO.N,RX1*%
X63790000Y-57120000D03*
D11*
%TO.P,J24,1*%
%TO.N,TX1*%
X63790000Y-54580000D03*
%TD*%
D10*
%TO.P,J13,3*%
%TO.N,Net-(J13-Pad3)*%
X127500000Y-121100000D03*
%TO.P,J13,2*%
%TO.N,GND*%
X127500000Y-118560000D03*
D11*
%TO.P,J13,1*%
%TO.N,+5V*%
X127500000Y-116020000D03*
%TD*%
D10*
%TO.P,J9,3*%
%TO.N,pinRain*%
X91760000Y-119880000D03*
%TO.P,J9,2*%
%TO.N,GND*%
X91760000Y-117340000D03*
D11*
%TO.P,J9,1*%
%TO.N,+3V3*%
X91760000Y-114800000D03*
%TD*%
D10*
%TO.P,J8,3*%
%TO.N,pinTilt*%
X85510000Y-119870000D03*
%TO.P,J8,2*%
%TO.N,GND*%
X85510000Y-117330000D03*
D11*
%TO.P,J8,1*%
%TO.N,+3V3*%
X85510000Y-114790000D03*
%TD*%
D10*
%TO.P,J7,3*%
%TO.N,pinDropRight*%
X54670000Y-119280000D03*
%TO.P,J7,2*%
%TO.N,GND*%
X54670000Y-116740000D03*
D11*
%TO.P,J7,1*%
%TO.N,+3V3*%
X54670000Y-114200000D03*
%TD*%
D10*
%TO.P,J6,3*%
%TO.N,pinDropLeft*%
X46750000Y-119350000D03*
%TO.P,J6,2*%
%TO.N,GND*%
X46750000Y-116810000D03*
D11*
%TO.P,J6,1*%
%TO.N,+3V3*%
X46750000Y-114270000D03*
%TD*%
D22*
%TO.P,J1,2*%
%TO.N,Net-(J1-Pad2)*%
X46490000Y-55740000D03*
D23*
%TO.P,J1,1*%
%TO.N,GND*%
X46490000Y-50660000D03*
%TD*%
D19*
%TO.P,D6,2*%
%TO.N,Net-(D6-Pad2)*%
X84250000Y-42670000D03*
D20*
%TO.P,D6,1*%
%TO.N,GND*%
X84250000Y-40130000D03*
%TD*%
D19*
%TO.P,D5,2*%
%TO.N,Net-(D5-Pad2)*%
X77230000Y-42620000D03*
D20*
%TO.P,D5,1*%
%TO.N,GND*%
X77230000Y-40080000D03*
%TD*%
D19*
%TO.P,D3,2*%
%TO.N,Net-(D3-Pad2)*%
X62290000Y-42670000D03*
D20*
%TO.P,D3,1*%
%TO.N,GND*%
X62290000Y-40130000D03*
%TD*%
D24*
%TO.P,D1,2*%
%TO.N,Net-(D1-Pad2)*%
X47420000Y-69360000D03*
D25*
%TO.P,D1,1*%
%TO.N,+9V*%
X47420000Y-79520000D03*
%TD*%
D16*
%TO.P,C1,2*%
%TO.N,Net-(C1-Pad2)*%
X74750000Y-53370000D03*
D26*
%TO.P,C1,1*%
%TO.N,GND*%
X72250000Y-53370000D03*
%TD*%
D27*
%TO.N,pinMotorRightFault*%
X188779800Y-106360500D03*
%TO.N,IOREV*%
X176739700Y-95577200D03*
X113830400Y-112123100D03*
%TO.N,pinMotorLeftFault*%
X185498400Y-57889700D03*
%TO.N,pinMotorLeftPWM*%
X123914100Y-56463800D03*
%TO.N,pinMotorLeftDir*%
X170279800Y-53863400D03*
%TO.N,pinMotorMowPWM*%
X145921600Y-69887400D03*
%TO.N,pinOdometryLeft*%
X181702900Y-114283400D03*
%TO.N,pinDropLeft*%
X108448300Y-97677400D03*
%TO.N,pinDropRight*%
X52349500Y-114012700D03*
%TO.N,pinButton*%
X109232000Y-98334400D03*
%TO.N,pinChargeRelay*%
X111004800Y-98770500D03*
%TO.N,pinTilt*%
X107642400Y-98345000D03*
%TO.N,pinChargeVoltage*%
X116173200Y-103400800D03*
%TO.N,pinChargeCurrent*%
X113207300Y-100481400D03*
%TO.N,+5V*%
X168949300Y-113502900D03*
%TO.N,Net-(J27-Pad1)*%
X188725400Y-63738200D03*
%TO.N,Net-(J28-Pad1)*%
X190095500Y-107085800D03*
%TD*%
D28*
%TO.N,SCL1*%
X117350000Y-49150000D02*
X116174700Y-49150000D01*
X110270000Y-49110000D02*
X116134700Y-49110000D01*
X116134700Y-49110000D02*
X116174700Y-49150000D01*
%TO.N,SDA1*%
X117350000Y-46610000D02*
X116174700Y-46610000D01*
X110270000Y-46570000D02*
X116134700Y-46570000D01*
X116134700Y-46570000D02*
X116174700Y-46610000D01*
%TO.N,GND*%
X124860000Y-41530000D02*
X124840000Y-41510000D01*
D29*
X124860000Y-41530000D02*
X131930000Y-41530000D01*
X122640000Y-41530000D02*
X124860000Y-41530000D01*
X184325800Y-122987200D02*
X184241600Y-123071400D01*
X184410000Y-122903000D02*
X184325800Y-122987200D01*
X184334300Y-122995700D02*
X183978000Y-123352000D01*
X192095000Y-115235000D02*
X184334300Y-122995700D01*
D28*
X184325800Y-122987200D02*
X184334300Y-122995700D01*
X44940000Y-76380000D02*
X44940000Y-76860000D01*
D29*
X59160000Y-62160000D02*
X44940000Y-76380000D01*
X44940000Y-76380000D02*
X44475000Y-76845000D01*
D28*
X91750000Y-117330000D02*
X91760000Y-117340000D01*
D29*
X91750000Y-117330000D02*
X96430000Y-117330000D01*
X85510000Y-117330000D02*
X91750000Y-117330000D01*
D28*
X184241600Y-123071400D02*
X183921400Y-123071400D01*
X183921400Y-123071400D02*
X183753000Y-122903000D01*
D29*
X184241600Y-123071400D02*
X181583000Y-125730000D01*
D28*
X155550000Y-44100000D02*
X155150000Y-44100000D01*
X155150000Y-44100000D02*
X155140000Y-44110000D01*
D29*
X155140000Y-44110000D02*
X152010000Y-40980000D01*
D28*
X192095000Y-115235000D02*
X192095000Y-114560000D01*
D29*
X192320000Y-115010000D02*
X192095000Y-115235000D01*
D28*
X145220000Y-44150000D02*
X144850000Y-44150000D01*
X144850000Y-44150000D02*
X144800000Y-44100000D01*
X145550000Y-44180000D02*
X145520000Y-44150000D01*
X145520000Y-44150000D02*
X145220000Y-44150000D01*
D29*
X141630000Y-40930000D02*
X144800000Y-44100000D01*
D28*
X140080000Y-40930000D02*
X138954700Y-40930000D01*
X139085000Y-41755000D02*
X138954700Y-41624700D01*
X138954700Y-41624700D02*
X138954700Y-40930000D01*
D29*
X139085000Y-41755000D02*
X139890000Y-40950000D01*
X136740000Y-44100000D02*
X139085000Y-41755000D01*
D28*
X44475000Y-115330000D02*
X44940000Y-114865000D01*
X44940000Y-114865000D02*
X44940000Y-114550000D01*
D29*
X44475000Y-115330000D02*
X44475000Y-114535000D01*
X46750000Y-116810000D02*
X45160000Y-116810000D01*
X45160000Y-116810000D02*
X44475000Y-116125000D01*
X44475000Y-116125000D02*
X44475000Y-115330000D01*
X192095000Y-112685000D02*
X192095000Y-114560000D01*
X178304000Y-82174000D02*
X178304000Y-85850000D01*
X179970000Y-83840000D02*
X178304000Y-82174000D01*
D28*
X178240000Y-81546800D02*
X178304000Y-81610800D01*
X178304000Y-81610800D02*
X178304000Y-82174000D01*
D29*
X178240000Y-81546800D02*
X178240000Y-82180000D01*
X178240000Y-74294000D02*
X178240000Y-81546800D01*
D28*
X191780000Y-51284900D02*
X191590000Y-51094900D01*
X191590000Y-51094900D02*
X191590000Y-50950000D01*
D29*
X191780000Y-51284900D02*
X191780000Y-57290000D01*
X191780000Y-50940000D02*
X191780000Y-51284900D01*
D28*
X191590000Y-57500000D02*
X191780000Y-57310000D01*
X191780000Y-57310000D02*
X191780000Y-57290000D01*
X191590000Y-57500000D02*
X191590000Y-57700000D01*
X191590000Y-57300000D02*
X191590000Y-57500000D01*
X191590000Y-70470000D02*
X191850000Y-70210000D01*
D29*
X191590000Y-70470000D02*
X191590000Y-81730000D01*
X191590000Y-81730000D02*
X189950000Y-83370000D01*
X190040000Y-71750000D02*
X191590000Y-70200000D01*
X191590000Y-70200000D02*
X191590000Y-70470000D01*
D28*
X77180000Y-40130000D02*
X77230000Y-40080000D01*
D29*
X77180000Y-40130000D02*
X84250000Y-40130000D01*
X69840000Y-40130000D02*
X77180000Y-40130000D01*
X44940000Y-76860000D02*
X44940000Y-114550000D01*
D28*
X134910000Y-44100000D02*
X134500000Y-44100000D01*
D29*
X134910000Y-44100000D02*
X136740000Y-44100000D01*
X131930000Y-41530000D02*
X134500000Y-44100000D01*
D28*
X152000000Y-40970000D02*
X152010000Y-40980000D01*
D29*
X152000000Y-40970000D02*
X150160000Y-40970000D01*
X153930000Y-39460000D02*
X152420000Y-40970000D01*
X152420000Y-40970000D02*
X152000000Y-40970000D01*
X148667300Y-41062700D02*
X145550000Y-44180000D01*
X162875000Y-39250000D02*
X163240000Y-39250000D01*
X153930000Y-39250000D02*
X162875000Y-39250000D01*
D28*
X162875000Y-39825000D02*
X162875000Y-39250000D01*
D29*
X162875000Y-39825000D02*
X170819000Y-39825000D01*
X170819000Y-39825000D02*
X173984000Y-42990000D01*
X160530000Y-49370000D02*
X162875000Y-47025000D01*
X162875000Y-47025000D02*
X162875000Y-39825000D01*
X190230000Y-46310000D02*
X190230000Y-49590000D01*
X190230000Y-49590000D02*
X191590000Y-50950000D01*
X191590000Y-57700000D02*
X191590000Y-61630000D01*
X191590000Y-61630000D02*
X182940000Y-61630000D01*
X191850000Y-61640000D02*
X191850000Y-70210000D01*
X148730000Y-41000000D02*
X148667300Y-41062700D01*
D28*
X148646500Y-40970000D02*
X148646500Y-41041900D01*
X148646500Y-41041900D02*
X148667300Y-41062700D01*
D29*
X148646500Y-40970000D02*
X148400000Y-40970000D01*
X150160000Y-40970000D02*
X148646500Y-40970000D01*
D28*
X191850000Y-111340000D02*
X192095000Y-111340000D01*
D29*
X191850000Y-111340000D02*
X175900000Y-111340000D01*
X192095000Y-111340000D02*
X192095000Y-112685000D01*
X192095000Y-109945000D02*
X192095000Y-111340000D01*
D28*
X102470000Y-43950000D02*
X102460000Y-43940000D01*
D29*
X102470000Y-43950000D02*
X110190000Y-43950000D01*
X94930000Y-43950000D02*
X102470000Y-43950000D01*
X59160000Y-59620000D02*
X59160000Y-57080000D01*
X59160000Y-62160000D02*
X59160000Y-59620000D01*
X59160000Y-57080000D02*
X59160000Y-54540000D01*
X62290000Y-40130000D02*
X69840000Y-40130000D01*
X55280000Y-40130000D02*
X62290000Y-40130000D01*
X131930000Y-41530000D02*
X132340000Y-41530000D01*
X136740000Y-44100000D02*
X136910000Y-44100000D01*
X136720000Y-44120000D02*
X136740000Y-44100000D01*
X141630000Y-40930000D02*
X142000000Y-40930000D01*
X140080000Y-40930000D02*
X141630000Y-40930000D01*
X141580000Y-40880000D02*
X141630000Y-40930000D01*
X178240000Y-74236000D02*
X178240000Y-74294000D01*
X178240000Y-74294000D02*
X173984000Y-78550000D01*
X104090000Y-117340000D02*
X98870000Y-117340000D01*
X105370000Y-120310000D02*
X105370000Y-118620000D01*
X105370000Y-118620000D02*
X104090000Y-117340000D01*
X59160000Y-54540000D02*
X55710000Y-51090000D01*
X109170000Y-117340000D02*
X104640000Y-117340000D01*
X117560000Y-125730000D02*
X109170000Y-117340000D01*
X148790000Y-125730000D02*
X130790000Y-125730000D01*
X148950000Y-125730000D02*
X148790000Y-125730000D01*
X66040000Y-114800000D02*
X66040000Y-114800200D01*
X117560000Y-125730000D02*
X74920000Y-125730000D01*
X117740000Y-125730000D02*
X117560000Y-125730000D01*
D28*
X117740000Y-125730000D02*
X117560000Y-125730000D01*
X118070000Y-125730000D02*
X117740000Y-125730000D01*
D29*
X74920000Y-125730000D02*
X61630000Y-125730000D01*
X61630000Y-125730000D02*
X61630000Y-121330000D01*
X61630000Y-121330000D02*
X57040000Y-116740000D01*
X57040000Y-116740000D02*
X54670000Y-116740000D01*
D28*
X170360000Y-107260000D02*
X170300000Y-107260000D01*
D29*
X170300000Y-107260000D02*
X166630000Y-103590000D01*
X173984000Y-113030000D02*
X172540000Y-113030000D01*
X172540000Y-113030000D02*
X170360000Y-110850000D01*
X170360000Y-110850000D02*
X170360000Y-107260000D01*
X175900000Y-111340000D02*
X175568000Y-111340000D01*
X175568000Y-111340000D02*
X177518000Y-109390000D01*
X177518000Y-109390000D02*
X179810000Y-109390000D01*
D28*
X175071000Y-111943000D02*
X175297000Y-111943000D01*
X175297000Y-111943000D02*
X175900000Y-111340000D01*
X181583000Y-125730000D02*
X180925000Y-125730000D01*
X153930000Y-39250000D02*
X153930000Y-39460000D01*
D29*
X55280000Y-40130000D02*
X52460000Y-40130000D01*
X52460000Y-40130000D02*
X46490000Y-46100000D01*
X46490000Y-46100000D02*
X46490000Y-50660000D01*
X89640000Y-40090000D02*
X93460000Y-43910000D01*
X93460000Y-43910000D02*
X94890000Y-43910000D01*
D28*
X94890000Y-43910000D02*
X94930000Y-43950000D01*
D29*
X87140000Y-40130000D02*
X89600000Y-40130000D01*
D28*
X89600000Y-40130000D02*
X89640000Y-40090000D01*
D29*
X66040000Y-114800200D02*
X66040000Y-116850000D01*
X66040000Y-116850000D02*
X74920000Y-125730000D01*
X98870000Y-117340000D02*
X96440000Y-117340000D01*
D28*
X96440000Y-117340000D02*
X96200000Y-117340000D01*
X96430000Y-117330000D02*
X96440000Y-117340000D01*
X46750000Y-117611000D02*
X46750000Y-116810000D01*
D29*
X130790000Y-125730000D02*
X124820000Y-125730000D01*
X133530000Y-114260000D02*
X130790000Y-117000000D01*
X130790000Y-117000000D02*
X130790000Y-125730000D01*
X124820000Y-125730000D02*
X118070000Y-125730000D01*
X127500000Y-118560000D02*
X124800000Y-121260000D01*
X124800000Y-121260000D02*
X124800000Y-125710000D01*
D28*
X124800000Y-125710000D02*
X124820000Y-125730000D01*
D29*
X121490000Y-114020000D02*
X118070000Y-117440000D01*
X118070000Y-117440000D02*
X118070000Y-125730000D01*
D28*
X148950000Y-125730000D02*
X148790000Y-125730000D01*
D29*
X173984000Y-125730000D02*
X148950000Y-125730000D01*
D28*
X109310000Y-117340000D02*
X109170000Y-117340000D01*
D29*
X87313000Y-51197000D02*
X96526000Y-60410000D01*
D28*
X87206000Y-51090000D02*
X87313000Y-51197000D01*
D29*
X84250000Y-40130000D02*
X87140000Y-40130000D01*
D28*
X87313000Y-40303000D02*
X87140000Y-40130000D01*
D29*
X69970000Y-51090000D02*
X87206000Y-51090000D01*
D28*
X72250000Y-53370000D02*
X72250000Y-53440000D01*
D29*
X55710000Y-51090000D02*
X69970000Y-51090000D01*
X69970000Y-51090000D02*
X72250000Y-53370000D01*
X55710000Y-51090000D02*
X46920000Y-51090000D01*
D28*
X46920000Y-51090000D02*
X46490000Y-50660000D01*
D29*
X54670000Y-116740000D02*
X46820000Y-116740000D01*
D28*
X46820000Y-116740000D02*
X46750000Y-116810000D01*
D29*
X97290000Y-120340000D02*
X97290000Y-118430000D01*
X97290000Y-118430000D02*
X96200000Y-117340000D01*
D28*
X104640000Y-117340000D02*
X104090000Y-117340000D01*
D29*
X105340000Y-114290000D02*
X105340000Y-116640000D01*
D28*
X105340000Y-116640000D02*
X104640000Y-117340000D01*
D29*
X99900000Y-114360000D02*
X99900000Y-116310000D01*
X99900000Y-116310000D02*
X98870000Y-117340000D01*
X111200000Y-115450000D02*
X109310000Y-117340000D01*
D28*
X111200000Y-115400000D02*
X110969000Y-115631000D01*
D29*
X112580000Y-109380000D02*
X112580000Y-114020000D01*
X112580000Y-114020000D02*
X111200000Y-115400000D01*
D28*
X111200000Y-115400000D02*
X111200000Y-115450000D01*
D29*
X113290000Y-108670000D02*
X110750000Y-108670000D01*
D28*
X112580000Y-109380000D02*
X113290000Y-108670000D01*
D29*
X148790000Y-125730000D02*
X141790000Y-118730000D01*
X141790000Y-118730000D02*
X139010000Y-118730000D01*
X166630000Y-103590000D02*
X164090000Y-103590000D01*
X192095000Y-112685000D02*
X191353000Y-111943000D01*
X175071000Y-111943000D02*
X173984000Y-113030000D01*
D28*
X183753000Y-122903000D02*
X183740000Y-122890000D01*
D29*
X192095000Y-106865000D02*
X192095000Y-109945000D01*
X192095000Y-109945000D02*
X196373000Y-109945000D01*
X196373000Y-109945000D02*
X197352000Y-108966000D01*
X192095000Y-106865000D02*
X190080000Y-108880000D01*
D28*
X192130000Y-106830000D02*
X192095000Y-106865000D01*
D29*
X180925000Y-125730000D02*
X173984000Y-125730000D01*
X192130000Y-95731400D02*
X192130000Y-106830000D01*
D28*
X189950000Y-85794000D02*
X190390000Y-85794000D01*
D29*
X190390000Y-85794000D02*
X192130000Y-87533600D01*
X192130000Y-87533600D02*
X192130000Y-95731400D01*
X192130000Y-95731400D02*
X191281000Y-96580000D01*
X191281000Y-96580000D02*
X190150000Y-96580000D01*
X189950000Y-83370000D02*
X189950000Y-85794000D01*
D28*
X189950000Y-85794000D02*
X189797000Y-85947000D01*
D29*
X189797000Y-85947000D02*
X178207000Y-85947000D01*
X178207000Y-85947000D02*
X173984000Y-90170000D01*
D28*
X178304000Y-85850000D02*
X178207000Y-85947000D01*
D29*
X178304000Y-61530000D02*
X178304000Y-74230000D01*
X178304000Y-74230000D02*
X178240000Y-74294000D01*
X182840000Y-61530000D02*
X179970000Y-58660000D01*
D28*
X182940000Y-61630000D02*
X182840000Y-61530000D01*
D29*
X182840000Y-61530000D02*
X178304000Y-61530000D01*
X178304000Y-61530000D02*
X173984000Y-65850000D01*
X191590000Y-57700000D02*
X195676000Y-61786000D01*
X195676000Y-61786000D02*
X197352000Y-61786000D01*
X191590000Y-57300000D02*
X190140000Y-58750000D01*
X117350000Y-41530000D02*
X122640000Y-41530000D01*
X124840000Y-46590000D02*
X122640000Y-44390000D01*
X122640000Y-44390000D02*
X122640000Y-41530000D01*
X110270000Y-44030000D02*
X114850000Y-44030000D01*
X114850000Y-44030000D02*
X117350000Y-41530000D01*
D28*
X110190000Y-43950000D02*
X110270000Y-44030000D01*
%TO.N,+9V*%
X115830000Y-108670000D02*
X115800000Y-108640000D01*
X115800000Y-108640000D02*
X115800000Y-108430000D01*
D30*
X86650000Y-79280000D02*
X115800000Y-108430000D01*
D28*
X86410000Y-79520000D02*
X86650000Y-79280000D01*
D30*
X86410000Y-79520000D02*
X86680000Y-79520000D01*
X47420000Y-79520000D02*
X86410000Y-79520000D01*
D28*
%TO.N,pinMotorRightSense*%
X120910000Y-108670000D02*
X122098900Y-108670000D01*
X122098900Y-108670000D02*
X122098900Y-108298500D01*
X122098900Y-108298500D02*
X130617400Y-99780000D01*
X130617400Y-99780000D02*
X167050200Y-99780000D01*
X167050200Y-99780000D02*
X167819000Y-99011200D01*
X167819000Y-99011200D02*
X167819000Y-91255000D01*
X167819000Y-91255000D02*
X173984000Y-85090000D01*
%TO.N,pinMotorRightFault*%
X188779800Y-106360500D02*
X188779800Y-106000100D01*
X188779800Y-106000100D02*
X179094400Y-96314700D01*
X179094400Y-96314700D02*
X176385400Y-96314700D01*
X176385400Y-96314700D02*
X176014400Y-95943700D01*
X176014400Y-95943700D02*
X176014400Y-95721000D01*
X176014400Y-95721000D02*
X174090800Y-93797400D01*
X174090800Y-93797400D02*
X173533600Y-93797400D01*
X173533600Y-93797400D02*
X172878200Y-93142000D01*
X172878200Y-93142000D02*
X172878200Y-88735800D01*
X172878200Y-88735800D02*
X173984000Y-87630000D01*
%TO.N,IOREV*%
X176739700Y-95577200D02*
X176739700Y-95465700D01*
X176739700Y-95465700D02*
X173984000Y-92710000D01*
X172894500Y-116422300D02*
X168595300Y-112123100D01*
X168595300Y-112123100D02*
X113830400Y-112123100D01*
X173984000Y-123190000D02*
X172894500Y-122100500D01*
X172894500Y-122100500D02*
X172894500Y-116422300D01*
X173984000Y-115570000D02*
X173131700Y-116422300D01*
X173131700Y-116422300D02*
X172894500Y-116422300D01*
X173984000Y-76010000D02*
X175073400Y-74920600D01*
X175073400Y-74920600D02*
X175073400Y-69479400D01*
X175073400Y-69479400D02*
X173984000Y-68390000D01*
%TO.N,pinMotorRightPWM*%
X179810000Y-104310000D02*
X179810000Y-103134700D01*
X173984000Y-95250000D02*
X178802600Y-100068600D01*
X178802600Y-100068600D02*
X179830200Y-100068600D01*
X179830200Y-100068600D02*
X180985300Y-101223700D01*
X180985300Y-101223700D02*
X180985300Y-102326800D01*
X180985300Y-102326800D02*
X180177400Y-103134700D01*
X180177400Y-103134700D02*
X179810000Y-103134700D01*
%TO.N,pinMotorEnable*%
X182350000Y-106850000D02*
X181174700Y-106850000D01*
X173984000Y-105410000D02*
X175079000Y-104315000D01*
X175079000Y-104315000D02*
X176981300Y-104315000D01*
X176981300Y-104315000D02*
X178341000Y-105674700D01*
X178341000Y-105674700D02*
X180366800Y-105674700D01*
X180366800Y-105674700D02*
X181174700Y-106482600D01*
X181174700Y-106482600D02*
X181174700Y-106850000D01*
%TO.N,pinMotorRightDir*%
X166630000Y-76838900D02*
X167298800Y-76838900D01*
X167298800Y-76838900D02*
X175080300Y-84620400D01*
X175080300Y-84620400D02*
X175080300Y-85533300D01*
X175080300Y-85533300D02*
X174253600Y-86360000D01*
X174253600Y-86360000D02*
X173689400Y-86360000D01*
X173689400Y-86360000D02*
X172422100Y-87627300D01*
X172422100Y-87627300D02*
X172422100Y-96228100D01*
X172422100Y-96228100D02*
X173984000Y-97790000D01*
X179810000Y-101770000D02*
X178634700Y-101770000D01*
X173984000Y-97790000D02*
X175536200Y-97790000D01*
X175536200Y-97790000D02*
X178634700Y-100888500D01*
X178634700Y-100888500D02*
X178634700Y-101770000D01*
X166630000Y-75650000D02*
X166630000Y-76838900D01*
%TO.N,pinMotorLeftSense*%
X173984000Y-107950000D02*
X168408600Y-102374600D01*
X168408600Y-102374600D02*
X145967800Y-102374600D01*
X145967800Y-102374600D02*
X141951900Y-106390500D01*
X141951900Y-106390500D02*
X126546900Y-106390500D01*
X126546900Y-106390500D02*
X124638900Y-108298500D01*
X124638900Y-108298500D02*
X124638900Y-108670000D01*
X123450000Y-108670000D02*
X124638900Y-108670000D01*
%TO.N,pinMotorLeftFault*%
X166630000Y-65490000D02*
X167818900Y-65490000D01*
X167818900Y-65490000D02*
X171268900Y-62040000D01*
X171268900Y-62040000D02*
X174689800Y-62040000D01*
X174689800Y-62040000D02*
X179258200Y-57471600D01*
X179258200Y-57471600D02*
X185080300Y-57471600D01*
X185080300Y-57471600D02*
X185498400Y-57889700D01*
%TO.N,pinMotorLeftPWM*%
X123914100Y-56463800D02*
X135892600Y-56463800D01*
X135892600Y-56463800D02*
X144336000Y-48020400D01*
X144336000Y-48020400D02*
X147095200Y-48020400D01*
X147095200Y-48020400D02*
X153663500Y-54588700D01*
X153663500Y-54588700D02*
X177786000Y-54588700D01*
X177786000Y-54588700D02*
X178794700Y-53580000D01*
X179970000Y-53580000D02*
X178794700Y-53580000D01*
%TO.N,pinMotorLeftDir*%
X179970000Y-51040000D02*
X178794700Y-51040000D01*
X170279800Y-53863400D02*
X172272100Y-51871100D01*
X172272100Y-51871100D02*
X177963600Y-51871100D01*
X177963600Y-51871100D02*
X178794700Y-51040000D01*
%TO.N,pinMotorMowFault*%
X165278900Y-68030000D02*
X165278900Y-67658400D01*
X165278900Y-67658400D02*
X166096200Y-66841100D01*
X166096200Y-66841100D02*
X170452900Y-66841100D01*
X170452900Y-66841100D02*
X173984000Y-63310000D01*
X164090000Y-68030000D02*
X165278900Y-68030000D01*
%TO.N,pinMotorMowPWM*%
X145921600Y-69887400D02*
X147793200Y-71759000D01*
X147793200Y-71759000D02*
X164604300Y-71759000D01*
X164604300Y-71759000D02*
X165360000Y-71003300D01*
X165360000Y-71003300D02*
X165360000Y-70102000D01*
X165360000Y-70102000D02*
X166113800Y-69348200D01*
X166113800Y-69348200D02*
X172402200Y-69348200D01*
X172402200Y-69348200D02*
X173984000Y-70930000D01*
%TO.N,pinMotorMowDir*%
X166630000Y-70570000D02*
X167818900Y-70570000D01*
X167818900Y-70570000D02*
X170718900Y-73470000D01*
X170718900Y-73470000D02*
X173984000Y-73470000D01*
%TO.N,pinMotorMowEnable*%
X164090000Y-70570000D02*
X164090000Y-69381100D01*
X164090000Y-69381100D02*
X163718500Y-69381100D01*
X163718500Y-69381100D02*
X162901000Y-68563600D01*
X162901000Y-68563600D02*
X162901000Y-67479200D01*
X162901000Y-67479200D02*
X163539200Y-66841000D01*
X163539200Y-66841000D02*
X164517900Y-66841000D01*
X164517900Y-66841000D02*
X165279000Y-66079900D01*
X165279000Y-66079900D02*
X165279000Y-65132300D01*
X165279000Y-65132300D02*
X166110300Y-64301000D01*
X166110300Y-64301000D02*
X167913000Y-64301000D01*
X167913000Y-64301000D02*
X173984000Y-58230000D01*
%TO.N,pinOdometryLeft*%
X155118900Y-108670000D02*
X155118900Y-108298400D01*
X155118900Y-108298400D02*
X156719600Y-106697700D01*
X156719600Y-106697700D02*
X167391100Y-106697700D01*
X167391100Y-106697700D02*
X168761400Y-108068000D01*
X168761400Y-108068000D02*
X168761400Y-110646500D01*
X168761400Y-110646500D02*
X172398300Y-114283400D01*
X172398300Y-114283400D02*
X181702900Y-114283400D01*
X153930000Y-108670000D02*
X155118900Y-108670000D01*
%TO.N,pinDropLeft*%
X165441100Y-90890000D02*
X165441100Y-91261600D01*
X165441100Y-91261600D02*
X164623800Y-92078900D01*
X164623800Y-92078900D02*
X114046800Y-92078900D01*
X114046800Y-92078900D02*
X108448300Y-97677400D01*
X166630000Y-90890000D02*
X165441100Y-90890000D01*
%TO.N,pinDropRight*%
X165441100Y-62950000D02*
X165441100Y-63321600D01*
X165441100Y-63321600D02*
X164623800Y-64138900D01*
X164623800Y-64138900D02*
X60114400Y-64138900D01*
X60114400Y-64138900D02*
X45994600Y-78258700D01*
X45994600Y-78258700D02*
X45994600Y-83131700D01*
X45994600Y-83131700D02*
X50640000Y-87777100D01*
X50640000Y-87777100D02*
X50640000Y-112303200D01*
X50640000Y-112303200D02*
X52349500Y-114012700D01*
X166630000Y-62950000D02*
X165441100Y-62950000D01*
%TO.N,pinButton*%
X165441100Y-98510000D02*
X165441100Y-98138500D01*
X165441100Y-98138500D02*
X164619700Y-97317100D01*
X164619700Y-97317100D02*
X110249300Y-97317100D01*
X110249300Y-97317100D02*
X109232000Y-98334400D01*
X166630000Y-98510000D02*
X165441100Y-98510000D01*
%TO.N,pinChargeRelay*%
X162901100Y-98510000D02*
X111265300Y-98510000D01*
X111265300Y-98510000D02*
X111004800Y-98770500D01*
X164090000Y-98510000D02*
X162901100Y-98510000D01*
%TO.N,pinTilt*%
X165441100Y-78190000D02*
X165441100Y-78561600D01*
X165441100Y-78561600D02*
X164623800Y-79378900D01*
X164623800Y-79378900D02*
X125707700Y-79378900D01*
X125707700Y-79378900D02*
X107642400Y-97444200D01*
X107642400Y-97444200D02*
X107642400Y-98345000D01*
X166630000Y-78190000D02*
X165441100Y-78190000D01*
%TO.N,pinSonarCenterEcho*%
X145220000Y-49230000D02*
X146395300Y-49230000D01*
X164090000Y-62950000D02*
X164090000Y-61761100D01*
X164090000Y-61761100D02*
X163718400Y-61761100D01*
X163718400Y-61761100D02*
X162901100Y-60943800D01*
X162901100Y-60943800D02*
X162901100Y-60296400D01*
X162901100Y-60296400D02*
X159808200Y-57203500D01*
X159808200Y-57203500D02*
X154368800Y-57203500D01*
X154368800Y-57203500D02*
X146395300Y-49230000D01*
%TO.N,pinChargeVoltage*%
X146310000Y-108670000D02*
X145121100Y-108670000D01*
X145121100Y-108670000D02*
X145121100Y-108298500D01*
X145121100Y-108298500D02*
X144289200Y-107466600D01*
X144289200Y-107466600D02*
X142586600Y-107466600D01*
X142586600Y-107466600D02*
X140194200Y-109859000D01*
X140194200Y-109859000D02*
X120417300Y-109859000D01*
X120417300Y-109859000D02*
X116173200Y-105614900D01*
X116173200Y-105614900D02*
X116173200Y-103400800D01*
%TO.N,pinChargeCurrent*%
X113207300Y-100481400D02*
X113207300Y-103352200D01*
X113207300Y-103352200D02*
X120181900Y-110326800D01*
X120181900Y-110326800D02*
X140924300Y-110326800D01*
X140924300Y-110326800D02*
X142581100Y-108670000D01*
X143770000Y-108670000D02*
X142581100Y-108670000D01*
%TO.N,pinLED*%
X99066000Y-60410000D02*
X97877100Y-60410000D01*
X97877100Y-60410000D02*
X97877100Y-60038500D01*
X97877100Y-60038500D02*
X87676900Y-49838300D01*
X87676900Y-49838300D02*
X71518300Y-49838300D01*
X71518300Y-49838300D02*
X68630000Y-46950000D01*
%TO.N,pinRedLED*%
X114641100Y-60410000D02*
X113001900Y-58770800D01*
X113001900Y-58770800D02*
X100385300Y-58770800D01*
X100385300Y-58770800D02*
X90100000Y-48485500D01*
X90100000Y-48485500D02*
X84535500Y-48485500D01*
X84535500Y-48485500D02*
X83130000Y-47080000D01*
X115830000Y-60410000D02*
X114641100Y-60410000D01*
%TO.N,pinGreenLED*%
X118370000Y-60410000D02*
X117181100Y-60410000D01*
X117181100Y-60410000D02*
X117181100Y-60781600D01*
X117181100Y-60781600D02*
X116363800Y-61598900D01*
X116363800Y-61598900D02*
X114915000Y-61598900D01*
X114915000Y-61598900D02*
X112537200Y-59221100D01*
X112537200Y-59221100D02*
X99173000Y-59221100D01*
X99173000Y-59221100D02*
X88887800Y-48935900D01*
X88887800Y-48935900D02*
X77925900Y-48935900D01*
X77925900Y-48935900D02*
X76030000Y-47040000D01*
%TO.N,SCL0*%
X102460000Y-49020000D02*
X103635300Y-49020000D01*
X156470000Y-60410000D02*
X155281100Y-60410000D01*
X155281100Y-60410000D02*
X155281100Y-60038500D01*
X155281100Y-60038500D02*
X152661500Y-57418900D01*
X152661500Y-57418900D02*
X112034200Y-57418900D01*
X112034200Y-57418900D02*
X103635300Y-49020000D01*
%TO.N,SDA0*%
X153930000Y-60410000D02*
X152741100Y-60410000D01*
X101274700Y-46490000D02*
X101284700Y-46480000D01*
X94930000Y-46490000D02*
X101274700Y-46490000D01*
X152741100Y-60410000D02*
X152741100Y-60038500D01*
X152741100Y-60038500D02*
X150956700Y-58254100D01*
X150956700Y-58254100D02*
X110004100Y-58254100D01*
X110004100Y-58254100D02*
X101274700Y-49524700D01*
X101274700Y-49524700D02*
X101274700Y-46490000D01*
X102460000Y-46480000D02*
X101284700Y-46480000D01*
D29*
%TO.N,Net-(C1-Pad2)*%
X74750000Y-53370000D02*
X86946000Y-53370000D01*
X86946000Y-53370000D02*
X93986000Y-60410000D01*
D28*
%TO.N,TX2*%
X63790000Y-59660000D02*
X64965300Y-59660000D01*
X143770000Y-60410000D02*
X142581100Y-60410000D01*
X142581100Y-60410000D02*
X142581100Y-60781500D01*
X142581100Y-60781500D02*
X140406600Y-62956000D01*
X140406600Y-62956000D02*
X68261300Y-62956000D01*
X68261300Y-62956000D02*
X64965300Y-59660000D01*
%TO.N,RX2*%
X63790000Y-62200000D02*
X64965300Y-62200000D01*
X146310000Y-60410000D02*
X145121100Y-60410000D01*
X145121100Y-60410000D02*
X145121100Y-60781500D01*
X145121100Y-60781500D02*
X142496200Y-63406400D01*
X142496200Y-63406400D02*
X66171700Y-63406400D01*
X66171700Y-63406400D02*
X64965300Y-62200000D01*
%TO.N,TX1*%
X147661100Y-60410000D02*
X147661100Y-60038500D01*
X147661100Y-60038500D02*
X146843600Y-59221000D01*
X146843600Y-59221000D02*
X137501000Y-59221000D01*
X137501000Y-59221000D02*
X134216400Y-62505600D01*
X134216400Y-62505600D02*
X68535800Y-62505600D01*
X68535800Y-62505600D02*
X64420200Y-58390000D01*
X64420200Y-58390000D02*
X63396300Y-58390000D01*
X63396300Y-58390000D02*
X62614700Y-57608400D01*
X62614700Y-57608400D02*
X62614700Y-56563200D01*
X62614700Y-56563200D02*
X63422600Y-55755300D01*
X63422600Y-55755300D02*
X63790000Y-55755300D01*
X63790000Y-54580000D02*
X63790000Y-55755300D01*
X148850000Y-60410000D02*
X147661100Y-60410000D01*
%TO.N,RX1*%
X150201100Y-60410000D02*
X150201100Y-60038500D01*
X150201100Y-60038500D02*
X148881000Y-58718400D01*
X148881000Y-58718400D02*
X137156000Y-58718400D01*
X137156000Y-58718400D02*
X133819400Y-62055000D01*
X133819400Y-62055000D02*
X88820400Y-62055000D01*
X88820400Y-62055000D02*
X87275300Y-60509900D01*
X87275300Y-60509900D02*
X87275300Y-59612400D01*
X87275300Y-59612400D02*
X84782900Y-57120000D01*
X84782900Y-57120000D02*
X64965300Y-57120000D01*
X63790000Y-57120000D02*
X64965300Y-57120000D01*
X151390000Y-60410000D02*
X150201100Y-60410000D01*
%TO.N,+5V*%
X139010000Y-116190000D02*
X137834700Y-116190000D01*
X127500000Y-116020000D02*
X128675300Y-116020000D01*
X128675300Y-116020000D02*
X131584900Y-113110400D01*
X131584900Y-113110400D02*
X134755100Y-113110400D01*
X134755100Y-113110400D02*
X137834700Y-116190000D01*
X139010000Y-116190000D02*
X166262200Y-116190000D01*
X166262200Y-116190000D02*
X168949300Y-113502900D01*
X145220000Y-41610000D02*
X144044700Y-41610000D01*
X134910000Y-41560000D02*
X136085300Y-41560000D01*
X136085300Y-41560000D02*
X137872000Y-39773300D01*
X137872000Y-39773300D02*
X142208000Y-39773300D01*
X142208000Y-39773300D02*
X144044700Y-41610000D01*
X193910000Y-76930000D02*
X193910000Y-75754700D01*
X193910000Y-53940000D02*
X193910000Y-55115300D01*
X193910000Y-55115300D02*
X194277400Y-55115300D01*
X194277400Y-55115300D02*
X195085300Y-55923200D01*
X195085300Y-55923200D02*
X195085300Y-57568000D01*
X195085300Y-57568000D02*
X198442200Y-60924900D01*
X198442200Y-60924900D02*
X198442200Y-71222500D01*
X198442200Y-71222500D02*
X193910000Y-75754700D01*
%TO.N,+3V3*%
X46750000Y-114270000D02*
X47925300Y-114270000D01*
X47925300Y-114270000D02*
X48424300Y-114769000D01*
X48424300Y-114769000D02*
X52925700Y-114769000D01*
X52925700Y-114769000D02*
X53494700Y-114200000D01*
X85510000Y-114790000D02*
X84334700Y-114790000D01*
X84334700Y-114790000D02*
X83011200Y-113466500D01*
X83011200Y-113466500D02*
X56578800Y-113466500D01*
X56578800Y-113466500D02*
X55845300Y-114200000D01*
X85510000Y-114790000D02*
X90574700Y-114790000D01*
X90574700Y-114790000D02*
X90584700Y-114800000D01*
X54670000Y-114200000D02*
X55845300Y-114200000D01*
X102460000Y-41400000D02*
X101284700Y-41400000D01*
X94930000Y-41410000D02*
X101274700Y-41410000D01*
X101274700Y-41410000D02*
X101284700Y-41400000D01*
X54670000Y-114200000D02*
X53494700Y-114200000D01*
X91760000Y-114800000D02*
X90584700Y-114800000D01*
X91760000Y-114800000D02*
X92935300Y-114800000D01*
X105670000Y-108670000D02*
X104481100Y-108670000D01*
X104481100Y-108670000D02*
X104481100Y-109041600D01*
X104481100Y-109041600D02*
X103663800Y-109858900D01*
X103663800Y-109858900D02*
X97876400Y-109858900D01*
X97876400Y-109858900D02*
X92935300Y-114800000D01*
%TO.N,Net-(D6-Pad2)*%
X84250000Y-42670000D02*
X85670000Y-44090000D01*
X85670000Y-44090000D02*
X85670000Y-47080000D01*
D30*
%TO.N,Net-(D1-Pad2)*%
X47250000Y-63950000D02*
X47250000Y-69190000D01*
D28*
X47250000Y-69190000D02*
X47420000Y-69360000D01*
%TO.N,Net-(J1-Pad2)*%
X45990100Y-62559900D02*
X46100100Y-62559900D01*
X46100100Y-62559900D02*
X46490000Y-62170000D01*
D30*
X45990100Y-62559900D02*
X44710000Y-63840000D01*
X46430000Y-62120000D02*
X45990100Y-62559900D01*
D28*
X44710000Y-63840000D02*
X44710000Y-63950000D01*
D30*
X44710000Y-63840000D02*
X44650000Y-63900000D01*
X46490000Y-55740000D02*
X46490000Y-62170000D01*
D28*
%TO.N,Net-(J12-Pad3)*%
X134910000Y-46640000D02*
X136085300Y-46640000D01*
X136085300Y-46640000D02*
X136175300Y-46730000D01*
X136175300Y-46730000D02*
X140090000Y-46730000D01*
%TO.N,Net-(J10-Pad3)*%
X160340000Y-46640000D02*
X160530000Y-46830000D01*
X155550000Y-46640000D02*
X160340000Y-46640000D01*
X160340000Y-46640000D02*
X160340000Y-43720000D01*
X160340000Y-43720000D02*
X160570000Y-43490000D01*
%TO.N,Net-(J11-Pad3)*%
X150060000Y-46690000D02*
X150150000Y-46780000D01*
X145220000Y-46690000D02*
X150060000Y-46690000D01*
X150060000Y-46690000D02*
X150060000Y-43610000D01*
X150060000Y-43610000D02*
X150160000Y-43510000D01*
%TO.N,Net-(D3-Pad2)*%
X62290000Y-42670000D02*
X61080000Y-43880000D01*
X61080000Y-43880000D02*
X61080000Y-46990000D01*
%TO.N,Net-(D4-Pad2)*%
X69840000Y-42670000D02*
X71170000Y-44000000D01*
X71170000Y-44000000D02*
X71170000Y-46950000D01*
%TO.N,Net-(D5-Pad2)*%
X77230000Y-42620000D02*
X78570000Y-43960000D01*
X78570000Y-43960000D02*
X78570000Y-47040000D01*
%TO.N,Net-(J26-Pad7)*%
X183685300Y-58660000D02*
X183775300Y-58750000D01*
X183775300Y-58750000D02*
X187600000Y-58750000D01*
X182510000Y-58660000D02*
X183685300Y-58660000D01*
%TO.N,Net-(J26-Pad6)*%
X187510000Y-52530000D02*
X187690000Y-52350000D01*
X187690000Y-52350000D02*
X187690000Y-46310000D01*
X181145300Y-56120000D02*
X181145300Y-55752600D01*
X181145300Y-55752600D02*
X181953200Y-54944700D01*
X181953200Y-54944700D02*
X185095300Y-54944700D01*
X185095300Y-54944700D02*
X187510000Y-52530000D01*
X179970000Y-56120000D02*
X181145300Y-56120000D01*
%TO.N,Net-(J27-Pad7)*%
X182510000Y-83840000D02*
X183685300Y-83840000D01*
X183685300Y-83840000D02*
X186940000Y-83840000D01*
X186940000Y-83840000D02*
X187410000Y-83370000D01*
%TO.N,Net-(J27-Pad6)*%
X179970000Y-81300000D02*
X181145300Y-81300000D01*
X181145300Y-81300000D02*
X181145300Y-80932600D01*
X181145300Y-80932600D02*
X181953200Y-80124700D01*
X181953200Y-80124700D02*
X185255300Y-80124700D01*
X185255300Y-80124700D02*
X187410000Y-77970000D01*
%TO.N,Net-(J27-Pad1)*%
X182510000Y-76220000D02*
X182510000Y-71860200D01*
X182510000Y-71860200D02*
X188725400Y-65644800D01*
X188725400Y-65644800D02*
X188725400Y-63738200D01*
%TO.N,Net-(J28-Pad7)*%
X182350000Y-109390000D02*
X183525300Y-109390000D01*
X187540000Y-108880000D02*
X184035300Y-108880000D01*
X184035300Y-108880000D02*
X183525300Y-109390000D01*
%TO.N,Net-(J28-Pad1)*%
X183525300Y-101770000D02*
X183525300Y-102131700D01*
X183525300Y-102131700D02*
X188479400Y-107085800D01*
X188479400Y-107085800D02*
X190095500Y-107085800D01*
X182350000Y-101770000D02*
X183525300Y-101770000D01*
%TD*%
M02*
