M48
; DRILL file {KiCad (5.1.9)-1} date 07/22/21 20:14:03
; FORMAT={-:-/ absolute / metric / decimal}
; #@! TF.CreationDate,2021-07-22T20:14:03+02:00
; #@! TF.GenerationSoftware,Kicad,Pcbnew,(5.1.9)-1
; #@! TF.FileFunction,Plated,1,2,PTH
FMAT,2
METRIC
T1C0.400
T2C0.762
T3C0.800
T4C0.900
T5C0.950
T6C1.000
T7C1.001
T8C1.100
T9C1.500
T10C1.520
T11C3.200
%
G90
G05
T1
X81.796Y-116.07
X82.796Y-115.939
X103.222Y-117.263
X103.979Y-115.812
X111.084Y-67.31
X112.617Y-67.811
X118.233Y-82.668
X119.506Y-83.994
X123.383Y-86.916
X125.314Y-83.341
X126.901Y-95.155
X135.934Y-96.712
X136.967Y-96.75
X137.545Y-98.14
X141.122Y-95.986
X141.656Y-94.385
T2
X54.61Y-74.93
X54.61Y-77.47
X54.61Y-80.01
X54.61Y-82.55
X54.61Y-85.09
X54.61Y-87.63
X54.61Y-90.17
X54.61Y-92.71
T3
X55.88Y-121.92
X55.88Y-124.46
X59.69Y-39.37
X59.69Y-41.91
X59.69Y-45.72
X59.69Y-48.26
X64.361Y-54.448
X64.361Y-56.988
X65.938Y-110.76
X65.938Y-112.76
X67.938Y-110.76
X67.938Y-112.76
X69.151Y-54.358
X69.151Y-56.898
X69.85Y-125.0
X69.938Y-110.76
X69.938Y-112.76
X72.39Y-125.0
X74.391Y-54.358
X74.391Y-56.898
X74.93Y-39.37
X74.93Y-41.91
X74.93Y-45.72
X74.93Y-48.26
X79.101Y-54.448
X79.101Y-56.988
X86.36Y-73.152
X86.36Y-75.692
X86.36Y-78.232
X86.36Y-80.772
X86.36Y-83.312
X86.36Y-85.852
X86.36Y-88.392
X86.36Y-90.932
X86.36Y-93.472
X86.36Y-96.012
X86.36Y-98.552
X86.36Y-101.092
X86.36Y-103.632
X86.36Y-106.172
X86.36Y-108.712
X111.76Y-73.152
X111.76Y-75.692
X111.76Y-78.232
X111.76Y-80.772
X111.76Y-83.312
X111.76Y-85.852
X111.76Y-88.392
X111.76Y-90.932
X111.76Y-93.472
X111.76Y-96.012
X111.76Y-98.552
X111.76Y-101.092
X111.76Y-103.632
X111.76Y-106.172
X111.76Y-108.712
X124.079Y-68.453
X124.079Y-72.263
X126.619Y-68.453
X126.619Y-72.263
X130.429Y-68.453
X130.429Y-72.263
X132.969Y-68.453
X132.969Y-72.263
X137.668Y-117.475
X140.208Y-117.475
X143.891Y-117.475
X146.431Y-117.475
X166.37Y-106.68
X166.37Y-113.03
X168.91Y-106.68
X168.91Y-113.03
X172.72Y-106.68
X172.72Y-113.03
X175.26Y-106.68
X175.26Y-113.03
T4
X55.88Y-128.27
X55.88Y-130.81
T5
X43.688Y-107.896
X43.688Y-110.396
X43.688Y-112.896
X43.688Y-115.396
X43.688Y-117.896
X43.688Y-120.396
X67.31Y-39.49
X67.31Y-41.99
X67.31Y-44.49
X67.31Y-46.99
X81.89Y-39.49
X81.89Y-41.99
X81.89Y-44.49
X81.89Y-46.99
X87.456Y-58.547
X89.956Y-58.547
X91.07Y-39.49
X91.07Y-41.99
X91.07Y-44.49
X91.07Y-46.99
X92.456Y-58.547
X97.79Y-123.19
X100.156Y-58.547
X100.29Y-123.19
X100.33Y-39.49
X100.33Y-41.99
X100.33Y-44.49
X100.33Y-46.99
X102.656Y-58.547
X102.79Y-123.19
X105.156Y-58.547
X105.29Y-123.19
X107.79Y-123.19
X113.976Y-39.659
X113.976Y-42.159
X113.976Y-44.659
X113.976Y-47.159
X115.146Y-58.45
X117.646Y-58.45
X119.841Y-81.407
X119.881Y-91.567
X120.146Y-58.45
X120.65Y-116.84
X120.65Y-127.0
X122.04Y-107.95
X122.341Y-81.407
X122.381Y-91.567
X122.646Y-58.45
X123.15Y-116.84
X123.15Y-127.0
X123.786Y-39.749
X123.786Y-42.249
X123.786Y-44.749
X123.786Y-47.249
X124.54Y-107.95
X124.841Y-81.407
X124.881Y-91.567
X125.65Y-116.84
X125.65Y-127.0
X127.04Y-107.95
X127.381Y-91.567
X128.15Y-116.84
X128.15Y-127.0
X129.54Y-107.95
X130.65Y-116.84
X130.65Y-127.0
X131.398Y-58.42
X132.461Y-80.645
X133.898Y-58.42
X134.493Y-91.567
X134.961Y-80.645
X136.398Y-58.42
X136.993Y-91.567
X137.461Y-80.645
X138.51Y-127.0
X138.55Y-107.95
X139.493Y-91.567
X141.01Y-127.0
X141.05Y-107.95
X141.993Y-91.567
X143.51Y-127.0
X143.55Y-107.95
X146.01Y-127.0
X146.05Y-107.95
X148.971Y-66.802
X148.971Y-69.302
X148.971Y-71.802
X148.971Y-74.302
X148.971Y-76.802
X153.67Y-115.57
X153.71Y-127.0
X155.321Y-87.249
X155.321Y-89.749
X155.321Y-92.249
X155.321Y-94.749
X156.17Y-115.57
X156.21Y-127.0
X158.67Y-115.57
X158.71Y-127.0
X159.131Y-66.802
X159.131Y-69.302
X159.131Y-71.802
X159.131Y-74.302
X159.131Y-76.802
X164.677Y-97.908
X165.006Y-86.36
X167.177Y-97.908
X167.506Y-86.36
X169.677Y-97.908
X170.006Y-86.36
X172.177Y-97.908
X172.506Y-86.36
X174.244Y-66.802
X174.244Y-69.302
X174.244Y-71.802
X174.244Y-74.302
X174.244Y-76.802
X174.677Y-97.908
X175.006Y-86.36
T6
X43.688Y-99.1
X43.688Y-101.6
X49.53Y-38.1
X52.07Y-38.1
X54.61Y-38.1
X85.979Y-123.063
X88.479Y-123.063
X159.004Y-59.563
X161.544Y-59.563
X164.084Y-59.563
X170.18Y-120.65
X170.688Y-59.69
X172.68Y-120.65
X173.228Y-59.69
X175.768Y-59.69
T7
X170.18Y-43.2
X170.18Y-50.8
T8
X52.37Y-42.672
X52.37Y-52.832
X52.37Y-57.15
X52.37Y-67.31
X63.5Y-67.31
X63.5Y-69.85
X63.5Y-72.39
X63.5Y-74.93
X63.5Y-77.47
X63.5Y-80.01
X63.5Y-82.55
X63.5Y-85.09
X63.5Y-87.63
X63.5Y-90.17
X63.5Y-92.71
X63.5Y-95.25
X63.5Y-97.79
X63.5Y-100.33
X63.5Y-102.87
X63.5Y-105.41
X63.5Y-107.95
X63.5Y-110.49
X63.5Y-113.03
X63.5Y-115.57
X63.5Y-118.11
X63.5Y-120.65
X63.5Y-123.19
X63.5Y-125.73
X66.04Y-80.01
X66.04Y-123.19
X68.58Y-80.01
X71.12Y-80.01
X73.66Y-80.01
X75.689Y-109.271
X75.689Y-111.811
X75.689Y-114.351
X75.689Y-116.891
X75.689Y-119.431
X76.2Y-80.01
X78.74Y-67.31
X78.74Y-69.85
X78.74Y-72.39
X78.74Y-74.93
X78.74Y-77.47
X78.74Y-80.01
X78.74Y-82.55
X78.74Y-85.09
X78.74Y-87.63
X78.74Y-90.17
X78.74Y-92.71
X78.74Y-95.25
X78.74Y-97.79
X78.74Y-100.33
X78.74Y-102.87
X78.74Y-105.41
X78.74Y-107.95
X78.74Y-110.49
X78.74Y-113.03
X78.74Y-115.57
X78.74Y-118.11
X78.74Y-120.65
X78.74Y-123.19
X78.74Y-125.73
T9
X134.62Y-46.99
X155.11Y-46.99
T10
X44.89Y-45.51
X44.89Y-50.59
X44.99Y-56.8
X44.99Y-61.88
T11
X43.0Y-38.0
X43.0Y-130.0
X176.0Y-38.0
X176.0Y-130.0
T0
M30
