%FSLAX45Y45*%
G04 Gerber Fmt 4.5, Leading zero omitted, Abs format (unit mm)*
G04 Created by KiCad (PCBNEW (5.1.9)-1) date 2021-07-22 20:14:04*
%MOMM*%
%LPD*%
G01*
G04 APERTURE LIST*
%TA.AperFunction,Profile*%
%ADD10C,0.050000*%
%TD*%
%ADD11C,0.200000*%
%ADD12C,0.300000*%
G04 APERTURE END LIST*
D10*
X3810000Y-3400000D02*
X18000000Y-3400000D01*
X18000000Y-13400000D02*
X18000000Y-3400000D01*
X3810000Y-13400000D02*
X18000000Y-13400000D01*
X3810000Y-3400000D02*
X3810000Y-13400000D01*
D11*
D12*
X4093928Y-13868214D02*
X4093928Y-13568214D01*
X4165357Y-13568214D01*
X4208214Y-13582500D01*
X4236786Y-13611071D01*
X4251071Y-13639643D01*
X4265357Y-13696786D01*
X4265357Y-13739643D01*
X4251071Y-13796786D01*
X4236786Y-13825357D01*
X4208214Y-13853929D01*
X4165357Y-13868214D01*
X4093928Y-13868214D01*
X4393928Y-13868214D02*
X4393928Y-13668214D01*
X4393928Y-13725357D02*
X4408214Y-13696786D01*
X4422500Y-13682500D01*
X4451071Y-13668214D01*
X4479643Y-13668214D01*
X4579643Y-13868214D02*
X4579643Y-13668214D01*
X4579643Y-13568214D02*
X4565357Y-13582500D01*
X4579643Y-13596786D01*
X4593928Y-13582500D01*
X4579643Y-13568214D01*
X4579643Y-13596786D01*
X4765357Y-13868214D02*
X4736786Y-13853929D01*
X4722500Y-13825357D01*
X4722500Y-13568214D01*
X4922500Y-13868214D02*
X4893928Y-13853929D01*
X4879643Y-13825357D01*
X4879643Y-13568214D01*
X5265357Y-13868214D02*
X5265357Y-13568214D01*
X5365357Y-13782500D01*
X5465357Y-13568214D01*
X5465357Y-13868214D01*
X5736786Y-13868214D02*
X5736786Y-13711071D01*
X5722500Y-13682500D01*
X5693928Y-13668214D01*
X5636786Y-13668214D01*
X5608214Y-13682500D01*
X5736786Y-13853929D02*
X5708214Y-13868214D01*
X5636786Y-13868214D01*
X5608214Y-13853929D01*
X5593928Y-13825357D01*
X5593928Y-13796786D01*
X5608214Y-13768214D01*
X5636786Y-13753929D01*
X5708214Y-13753929D01*
X5736786Y-13739643D01*
X5879643Y-13668214D02*
X5879643Y-13968214D01*
X5879643Y-13682500D02*
X5908214Y-13668214D01*
X5965357Y-13668214D01*
X5993928Y-13682500D01*
X6008214Y-13696786D01*
X6022500Y-13725357D01*
X6022500Y-13811071D01*
X6008214Y-13839643D01*
X5993928Y-13853929D01*
X5965357Y-13868214D01*
X5908214Y-13868214D01*
X5879643Y-13853929D01*
X6151071Y-13839643D02*
X6165357Y-13853929D01*
X6151071Y-13868214D01*
X6136786Y-13853929D01*
X6151071Y-13839643D01*
X6151071Y-13868214D01*
X6151071Y-13682500D02*
X6165357Y-13696786D01*
X6151071Y-13711071D01*
X6136786Y-13696786D01*
X6151071Y-13682500D01*
X6151071Y-13711071D01*
M02*
