M48
; DRILL file {KiCad (5.1.9)-1} date 07/22/21 19:31:05
; FORMAT={-:-/ absolute / metric / decimal}
; #@! TF.CreationDate,2021-07-22T19:31:05+02:00
; #@! TF.GenerationSoftware,Kicad,Pcbnew,(5.1.9)-1
; #@! TF.FileFunction,Plated,1,2,PTH
FMAT,2
METRIC
T1C0.400
T2C0.800
T3C0.800
T4C0.900
T5C0.950
T6C1.000
T7C1.100
T8C1.501
T9C1.520
T10C1.524
T11C3.200
%
G90
G05
T1
X172.677Y-79.615
T2
X94.361Y-92.837
X94.361Y-96.139
X94.361Y-99.441
X94.361Y-102.87
X94.361Y-106.299
X101.981Y-92.837
X101.981Y-96.139
X101.981Y-99.441
X101.981Y-102.87
X101.981Y-106.299
X106.699Y-82.307
X107.569Y-94.488
X110.109Y-94.488
X112.649Y-94.488
X114.319Y-82.307
X114.554Y-77.47
X114.554Y-110.363
X115.189Y-94.488
X117.729Y-94.488
X118.364Y-110.363
X120.269Y-94.488
X122.174Y-77.47
X122.809Y-94.488
X125.349Y-94.488
X126.746Y-82.321
X129.286Y-82.321
X130.81Y-94.488
X131.826Y-82.321
X133.35Y-94.488
X133.731Y-66.446
X134.366Y-82.321
X135.89Y-94.488
X136.906Y-82.321
X137.541Y-66.446
X137.795Y-110.363
X138.43Y-94.488
X139.446Y-82.321
X140.97Y-94.488
X141.605Y-110.363
X141.986Y-82.321
X143.129Y-90.424
X143.51Y-94.488
X144.526Y-82.321
X146.05Y-94.488
X148.59Y-94.488
X150.749Y-90.424
X153.797Y-94.488
X156.337Y-94.488
X158.877Y-94.488
X160.782Y-110.363
X161.417Y-94.488
X163.957Y-94.488
X164.592Y-110.363
X166.497Y-94.488
X169.037Y-94.488
X171.577Y-94.488
X176.403Y-65.786
X176.403Y-68.326
X176.403Y-70.866
X176.403Y-73.406
X176.403Y-75.946
X176.403Y-78.486
X176.403Y-81.026
X176.403Y-83.566
X176.53Y-88.519
X176.53Y-91.059
X176.53Y-93.599
X176.53Y-96.139
X176.53Y-98.679
X176.53Y-101.219
X176.53Y-103.759
X176.53Y-106.299
X192.278Y-72.771
X192.278Y-76.581
X192.405Y-95.504
X192.405Y-99.314
T3
X122.555Y-88.519
X125.095Y-88.519
T4
X96.139Y-89.027
X98.739Y-89.027
X101.339Y-89.027
X118.959Y-82.267
X121.499Y-82.267
X158.496Y-85.478
X158.496Y-88.078
X158.496Y-90.678
T5
X88.392Y-85.671
X88.392Y-88.171
X88.392Y-90.671
X88.392Y-93.171
X88.392Y-95.671
X88.392Y-98.171
T6
X88.265Y-108.117
X88.265Y-110.617
X152.186Y-68.072
X154.686Y-68.072
T7
X95.459Y-82.187
X99.822Y-77.47
X100.539Y-82.187
X109.601Y-87.249
X109.982Y-77.47
X112.141Y-87.249
X114.681Y-87.249
X122.555Y-116.332
X122.555Y-121.412
X129.921Y-88.519
X140.081Y-88.519
X145.923Y-116.459
X145.923Y-121.539
X151.892Y-80.137
X151.892Y-85.217
X158.75Y-75.819
X158.75Y-78.359
X158.75Y-80.899
X167.513Y-116.713
X167.513Y-121.793
X185.293Y-112.522
X185.293Y-117.602
X191.389Y-112.522
X191.389Y-117.602
T8
X98.748Y-69.167
X120.75Y-69.167
X166.751Y-65.834
X166.751Y-87.836
T9
X108.204Y-120.142
X113.284Y-120.142
X131.318Y-120.142
X136.398Y-120.142
X154.305Y-120.142
X159.385Y-120.142
X173.355Y-120.269
X178.435Y-120.269
X196.469Y-120.142
X199.923Y-67.437
X199.923Y-72.517
X200.025Y-79.248
X200.025Y-84.328
X201.549Y-120.142
X205.613Y-93.091
X205.613Y-98.171
X205.74Y-105.283
X205.74Y-110.363
T10
X91.769Y-72.567
X91.769Y-77.647
T11
X89.289Y-64.897
X89.289Y-118.237
X109.749Y-69.167
X166.751Y-76.835
X209.169Y-64.897
X209.169Y-118.237
T0
M30
