%FSLAX45Y45*%
G04 Gerber Fmt 4.5, Leading zero omitted, Abs format (unit mm)*
G04 Created by KiCad (PCBNEW (5.1.9)-1) date 2021-07-22 19:31:06*
%MOMM*%
%LPD*%
G01*
G04 APERTURE LIST*
%TA.AperFunction,Profile*%
%ADD10C,0.150000*%
%TD*%
%ADD11C,0.200000*%
%ADD12C,0.300000*%
G04 APERTURE END LIST*
D10*
X21285200Y-6121700D02*
X8470900Y-6121700D01*
X21285200Y-12521700D02*
X21285200Y-6121700D01*
X8470900Y-12521700D02*
X21285200Y-12521700D01*
X8470900Y-6121700D02*
X8470900Y-12521700D01*
D11*
X17247660Y-7941460D02*
X17287660Y-7981460D01*
X17287660Y-7941460D02*
X17247660Y-7981460D01*
X9476100Y-9283700D02*
G75*
G03*
X9476100Y-9283700I-40000J0D01*
G01*
X9476100Y-9613900D02*
G75*
G03*
X9476100Y-9613900I-40000J0D01*
G01*
X9476100Y-9944100D02*
G75*
G03*
X9476100Y-9944100I-40000J0D01*
G01*
X9476100Y-10287000D02*
G75*
G03*
X9476100Y-10287000I-40000J0D01*
G01*
X9476100Y-10629900D02*
G75*
G03*
X9476100Y-10629900I-40000J0D01*
G01*
X10238100Y-9283700D02*
G75*
G03*
X10238100Y-9283700I-40000J0D01*
G01*
X10238100Y-9613900D02*
G75*
G03*
X10238100Y-9613900I-40000J0D01*
G01*
X10238100Y-9944100D02*
G75*
G03*
X10238100Y-9944100I-40000J0D01*
G01*
X10238100Y-10287000D02*
G75*
G03*
X10238100Y-10287000I-40000J0D01*
G01*
X10238100Y-10629900D02*
G75*
G03*
X10238100Y-10629900I-40000J0D01*
G01*
X10709900Y-8230700D02*
G75*
G03*
X10709900Y-8230700I-40000J0D01*
G01*
X10796900Y-9448800D02*
G75*
G03*
X10796900Y-9448800I-40000J0D01*
G01*
X11050900Y-9448800D02*
G75*
G03*
X11050900Y-9448800I-40000J0D01*
G01*
X11304900Y-9448800D02*
G75*
G03*
X11304900Y-9448800I-40000J0D01*
G01*
X11471900Y-8230700D02*
G75*
G03*
X11471900Y-8230700I-40000J0D01*
G01*
X11495400Y-7747000D02*
G75*
G03*
X11495400Y-7747000I-40000J0D01*
G01*
X11495400Y-11036300D02*
G75*
G03*
X11495400Y-11036300I-40000J0D01*
G01*
X11558900Y-9448800D02*
G75*
G03*
X11558900Y-9448800I-40000J0D01*
G01*
X11812900Y-9448800D02*
G75*
G03*
X11812900Y-9448800I-40000J0D01*
G01*
X11876400Y-11036300D02*
G75*
G03*
X11876400Y-11036300I-40000J0D01*
G01*
X12066900Y-9448800D02*
G75*
G03*
X12066900Y-9448800I-40000J0D01*
G01*
X12257400Y-7747000D02*
G75*
G03*
X12257400Y-7747000I-40000J0D01*
G01*
X12320900Y-9448800D02*
G75*
G03*
X12320900Y-9448800I-40000J0D01*
G01*
X12574900Y-9448800D02*
G75*
G03*
X12574900Y-9448800I-40000J0D01*
G01*
X12714600Y-8232140D02*
G75*
G03*
X12714600Y-8232140I-40000J0D01*
G01*
X12968600Y-8232140D02*
G75*
G03*
X12968600Y-8232140I-40000J0D01*
G01*
X13121000Y-9448800D02*
G75*
G03*
X13121000Y-9448800I-40000J0D01*
G01*
X13222600Y-8232140D02*
G75*
G03*
X13222600Y-8232140I-40000J0D01*
G01*
X13375000Y-9448800D02*
G75*
G03*
X13375000Y-9448800I-40000J0D01*
G01*
X13413100Y-6644640D02*
G75*
G03*
X13413100Y-6644640I-40000J0D01*
G01*
X13476600Y-8232140D02*
G75*
G03*
X13476600Y-8232140I-40000J0D01*
G01*
X13629000Y-9448800D02*
G75*
G03*
X13629000Y-9448800I-40000J0D01*
G01*
X13730600Y-8232140D02*
G75*
G03*
X13730600Y-8232140I-40000J0D01*
G01*
X13794100Y-6644640D02*
G75*
G03*
X13794100Y-6644640I-40000J0D01*
G01*
X13819500Y-11036300D02*
G75*
G03*
X13819500Y-11036300I-40000J0D01*
G01*
X13883000Y-9448800D02*
G75*
G03*
X13883000Y-9448800I-40000J0D01*
G01*
X13984600Y-8232140D02*
G75*
G03*
X13984600Y-8232140I-40000J0D01*
G01*
X14137000Y-9448800D02*
G75*
G03*
X14137000Y-9448800I-40000J0D01*
G01*
X14200500Y-11036300D02*
G75*
G03*
X14200500Y-11036300I-40000J0D01*
G01*
X14238600Y-8232140D02*
G75*
G03*
X14238600Y-8232140I-40000J0D01*
G01*
X14352900Y-9042400D02*
G75*
G03*
X14352900Y-9042400I-40000J0D01*
G01*
X14391000Y-9448800D02*
G75*
G03*
X14391000Y-9448800I-40000J0D01*
G01*
X14492600Y-8232140D02*
G75*
G03*
X14492600Y-8232140I-40000J0D01*
G01*
X14645000Y-9448800D02*
G75*
G03*
X14645000Y-9448800I-40000J0D01*
G01*
X14899000Y-9448800D02*
G75*
G03*
X14899000Y-9448800I-40000J0D01*
G01*
X15114900Y-9042400D02*
G75*
G03*
X15114900Y-9042400I-40000J0D01*
G01*
X15419700Y-9448800D02*
G75*
G03*
X15419700Y-9448800I-40000J0D01*
G01*
X15673700Y-9448800D02*
G75*
G03*
X15673700Y-9448800I-40000J0D01*
G01*
X15927700Y-9448800D02*
G75*
G03*
X15927700Y-9448800I-40000J0D01*
G01*
X16118200Y-11036300D02*
G75*
G03*
X16118200Y-11036300I-40000J0D01*
G01*
X16181700Y-9448800D02*
G75*
G03*
X16181700Y-9448800I-40000J0D01*
G01*
X16435700Y-9448800D02*
G75*
G03*
X16435700Y-9448800I-40000J0D01*
G01*
X16499200Y-11036300D02*
G75*
G03*
X16499200Y-11036300I-40000J0D01*
G01*
X16689700Y-9448800D02*
G75*
G03*
X16689700Y-9448800I-40000J0D01*
G01*
X16943700Y-9448800D02*
G75*
G03*
X16943700Y-9448800I-40000J0D01*
G01*
X17197700Y-9448800D02*
G75*
G03*
X17197700Y-9448800I-40000J0D01*
G01*
X17680300Y-6578600D02*
G75*
G03*
X17680300Y-6578600I-40000J0D01*
G01*
X17680300Y-6832600D02*
G75*
G03*
X17680300Y-6832600I-40000J0D01*
G01*
X17680300Y-7086600D02*
G75*
G03*
X17680300Y-7086600I-40000J0D01*
G01*
X17680300Y-7340600D02*
G75*
G03*
X17680300Y-7340600I-40000J0D01*
G01*
X17680300Y-7594600D02*
G75*
G03*
X17680300Y-7594600I-40000J0D01*
G01*
X17680300Y-7848600D02*
G75*
G03*
X17680300Y-7848600I-40000J0D01*
G01*
X17680300Y-8102600D02*
G75*
G03*
X17680300Y-8102600I-40000J0D01*
G01*
X17680300Y-8356600D02*
G75*
G03*
X17680300Y-8356600I-40000J0D01*
G01*
X17693000Y-8851900D02*
G75*
G03*
X17693000Y-8851900I-40000J0D01*
G01*
X17693000Y-9105900D02*
G75*
G03*
X17693000Y-9105900I-40000J0D01*
G01*
X17693000Y-9359900D02*
G75*
G03*
X17693000Y-9359900I-40000J0D01*
G01*
X17693000Y-9613900D02*
G75*
G03*
X17693000Y-9613900I-40000J0D01*
G01*
X17693000Y-9867900D02*
G75*
G03*
X17693000Y-9867900I-40000J0D01*
G01*
X17693000Y-10121900D02*
G75*
G03*
X17693000Y-10121900I-40000J0D01*
G01*
X17693000Y-10375900D02*
G75*
G03*
X17693000Y-10375900I-40000J0D01*
G01*
X17693000Y-10629900D02*
G75*
G03*
X17693000Y-10629900I-40000J0D01*
G01*
X19267800Y-7277100D02*
G75*
G03*
X19267800Y-7277100I-40000J0D01*
G01*
X19267800Y-7658100D02*
G75*
G03*
X19267800Y-7658100I-40000J0D01*
G01*
X19280500Y-9550400D02*
G75*
G03*
X19280500Y-9550400I-40000J0D01*
G01*
X19280500Y-9931400D02*
G75*
G03*
X19280500Y-9931400I-40000J0D01*
G01*
X12255500Y-8811895D02*
X12255500Y-8891905D01*
X12215495Y-8851900D02*
X12295505Y-8851900D01*
X12509500Y-8811895D02*
X12509500Y-8891905D01*
X12469495Y-8851900D02*
X12549505Y-8851900D01*
X9645720Y-8934520D02*
X9645720Y-8870880D01*
X9582080Y-8870880D01*
X9582080Y-8934520D01*
X9645720Y-8934520D01*
X9905720Y-8934520D02*
X9905720Y-8870880D01*
X9842080Y-8870880D01*
X9842080Y-8934520D01*
X9905720Y-8934520D01*
X10165720Y-8934520D02*
X10165720Y-8870880D01*
X10102080Y-8870880D01*
X10102080Y-8934520D01*
X10165720Y-8934520D01*
X11927720Y-8258520D02*
X11927720Y-8194880D01*
X11864080Y-8194880D01*
X11864080Y-8258520D01*
X11927720Y-8258520D01*
X12181720Y-8258520D02*
X12181720Y-8194880D01*
X12118080Y-8194880D01*
X12118080Y-8258520D01*
X12181720Y-8258520D01*
X15881420Y-8579620D02*
X15881420Y-8515980D01*
X15817780Y-8515980D01*
X15817780Y-8579620D01*
X15881420Y-8579620D01*
X15881420Y-8839620D02*
X15881420Y-8775980D01*
X15817780Y-8775980D01*
X15817780Y-8839620D01*
X15881420Y-8839620D01*
X15881420Y-9099620D02*
X15881420Y-9035980D01*
X15817780Y-9035980D01*
X15817780Y-9099620D01*
X15881420Y-9099620D01*
X8839200Y-8614600D02*
X8886700Y-8567100D01*
X8839200Y-8519600D01*
X8791700Y-8567100D01*
X8839200Y-8614600D01*
X8839200Y-8864600D02*
X8886700Y-8817100D01*
X8839200Y-8769600D01*
X8791700Y-8817100D01*
X8839200Y-8864600D01*
X8839200Y-9114600D02*
X8886700Y-9067100D01*
X8839200Y-9019600D01*
X8791700Y-9067100D01*
X8839200Y-9114600D01*
X8839200Y-9364600D02*
X8886700Y-9317100D01*
X8839200Y-9269600D01*
X8791700Y-9317100D01*
X8839200Y-9364600D01*
X8839200Y-9614600D02*
X8886700Y-9567100D01*
X8839200Y-9519600D01*
X8791700Y-9567100D01*
X8839200Y-9614600D01*
X8839200Y-9864600D02*
X8886700Y-9817100D01*
X8839200Y-9769600D01*
X8791700Y-9817100D01*
X8839200Y-9864600D01*
X8776500Y-10761700D02*
X8876500Y-10861700D01*
X8876500Y-10761700D02*
X8776500Y-10861700D01*
X8876500Y-10811700D02*
G75*
G03*
X8876500Y-10811700I-50000J0D01*
G01*
X8776500Y-11011700D02*
X8876500Y-11111700D01*
X8876500Y-11011700D02*
X8776500Y-11111700D01*
X8876500Y-11061700D02*
G75*
G03*
X8876500Y-11061700I-50000J0D01*
G01*
X15168600Y-6757200D02*
X15268600Y-6857200D01*
X15268600Y-6757200D02*
X15168600Y-6857200D01*
X15268600Y-6807200D02*
G75*
G03*
X15268600Y-6807200I-50000J0D01*
G01*
X15418600Y-6757200D02*
X15518600Y-6857200D01*
X15518600Y-6757200D02*
X15418600Y-6857200D01*
X15518600Y-6807200D02*
G75*
G03*
X15518600Y-6807200I-50000J0D01*
G01*
X9490900Y-8163700D02*
X9600900Y-8273700D01*
X9600900Y-8163700D02*
X9490900Y-8273700D01*
X9545900Y-8163700D02*
X9545900Y-8273700D01*
X9490900Y-8218700D02*
X9600900Y-8218700D01*
X9927200Y-7692000D02*
X10037200Y-7802000D01*
X10037200Y-7692000D02*
X9927200Y-7802000D01*
X9982200Y-7692000D02*
X9982200Y-7802000D01*
X9927200Y-7747000D02*
X10037200Y-7747000D01*
X9998900Y-8163700D02*
X10108900Y-8273700D01*
X10108900Y-8163700D02*
X9998900Y-8273700D01*
X10053900Y-8163700D02*
X10053900Y-8273700D01*
X9998900Y-8218700D02*
X10108900Y-8218700D01*
X10905100Y-8669900D02*
X11015100Y-8779900D01*
X11015100Y-8669900D02*
X10905100Y-8779900D01*
X10960100Y-8669900D02*
X10960100Y-8779900D01*
X10905100Y-8724900D02*
X11015100Y-8724900D01*
X10943200Y-7692000D02*
X11053200Y-7802000D01*
X11053200Y-7692000D02*
X10943200Y-7802000D01*
X10998200Y-7692000D02*
X10998200Y-7802000D01*
X10943200Y-7747000D02*
X11053200Y-7747000D01*
X11159100Y-8669900D02*
X11269100Y-8779900D01*
X11269100Y-8669900D02*
X11159100Y-8779900D01*
X11214100Y-8669900D02*
X11214100Y-8779900D01*
X11159100Y-8724900D02*
X11269100Y-8724900D01*
X11413100Y-8669900D02*
X11523100Y-8779900D01*
X11523100Y-8669900D02*
X11413100Y-8779900D01*
X11468100Y-8669900D02*
X11468100Y-8779900D01*
X11413100Y-8724900D02*
X11523100Y-8724900D01*
X12200500Y-11578200D02*
X12310500Y-11688200D01*
X12310500Y-11578200D02*
X12200500Y-11688200D01*
X12255500Y-11578200D02*
X12255500Y-11688200D01*
X12200500Y-11633200D02*
X12310500Y-11633200D01*
X12200500Y-12086200D02*
X12310500Y-12196200D01*
X12310500Y-12086200D02*
X12200500Y-12196200D01*
X12255500Y-12086200D02*
X12255500Y-12196200D01*
X12200500Y-12141200D02*
X12310500Y-12141200D01*
X12937100Y-8796900D02*
X13047100Y-8906900D01*
X13047100Y-8796900D02*
X12937100Y-8906900D01*
X12992100Y-8796900D02*
X12992100Y-8906900D01*
X12937100Y-8851900D02*
X13047100Y-8851900D01*
X13953100Y-8796900D02*
X14063100Y-8906900D01*
X14063100Y-8796900D02*
X13953100Y-8906900D01*
X14008100Y-8796900D02*
X14008100Y-8906900D01*
X13953100Y-8851900D02*
X14063100Y-8851900D01*
X14537300Y-11590900D02*
X14647300Y-11700900D01*
X14647300Y-11590900D02*
X14537300Y-11700900D01*
X14592300Y-11590900D02*
X14592300Y-11700900D01*
X14537300Y-11645900D02*
X14647300Y-11645900D01*
X14537300Y-12098900D02*
X14647300Y-12208900D01*
X14647300Y-12098900D02*
X14537300Y-12208900D01*
X14592300Y-12098900D02*
X14592300Y-12208900D01*
X14537300Y-12153900D02*
X14647300Y-12153900D01*
X15134200Y-7958700D02*
X15244200Y-8068700D01*
X15244200Y-7958700D02*
X15134200Y-8068700D01*
X15189200Y-7958700D02*
X15189200Y-8068700D01*
X15134200Y-8013700D02*
X15244200Y-8013700D01*
X15134200Y-8466700D02*
X15244200Y-8576700D01*
X15244200Y-8466700D02*
X15134200Y-8576700D01*
X15189200Y-8466700D02*
X15189200Y-8576700D01*
X15134200Y-8521700D02*
X15244200Y-8521700D01*
X15820000Y-7526900D02*
X15930000Y-7636900D01*
X15930000Y-7526900D02*
X15820000Y-7636900D01*
X15875000Y-7526900D02*
X15875000Y-7636900D01*
X15820000Y-7581900D02*
X15930000Y-7581900D01*
X15820000Y-7780900D02*
X15930000Y-7890900D01*
X15930000Y-7780900D02*
X15820000Y-7890900D01*
X15875000Y-7780900D02*
X15875000Y-7890900D01*
X15820000Y-7835900D02*
X15930000Y-7835900D01*
X15820000Y-8034900D02*
X15930000Y-8144900D01*
X15930000Y-8034900D02*
X15820000Y-8144900D01*
X15875000Y-8034900D02*
X15875000Y-8144900D01*
X15820000Y-8089900D02*
X15930000Y-8089900D01*
X16696300Y-11616300D02*
X16806300Y-11726300D01*
X16806300Y-11616300D02*
X16696300Y-11726300D01*
X16751300Y-11616300D02*
X16751300Y-11726300D01*
X16696300Y-11671300D02*
X16806300Y-11671300D01*
X16696300Y-12124300D02*
X16806300Y-12234300D01*
X16806300Y-12124300D02*
X16696300Y-12234300D01*
X16751300Y-12124300D02*
X16751300Y-12234300D01*
X16696300Y-12179300D02*
X16806300Y-12179300D01*
X18474300Y-11197200D02*
X18584300Y-11307200D01*
X18584300Y-11197200D02*
X18474300Y-11307200D01*
X18529300Y-11197200D02*
X18529300Y-11307200D01*
X18474300Y-11252200D02*
X18584300Y-11252200D01*
X18474300Y-11705200D02*
X18584300Y-11815200D01*
X18584300Y-11705200D02*
X18474300Y-11815200D01*
X18529300Y-11705200D02*
X18529300Y-11815200D01*
X18474300Y-11760200D02*
X18584300Y-11760200D01*
X19083900Y-11197200D02*
X19193900Y-11307200D01*
X19193900Y-11197200D02*
X19083900Y-11307200D01*
X19138900Y-11197200D02*
X19138900Y-11307200D01*
X19083900Y-11252200D02*
X19193900Y-11252200D01*
X19083900Y-11705200D02*
X19193900Y-11815200D01*
X19193900Y-11705200D02*
X19083900Y-11815200D01*
X19138900Y-11705200D02*
X19138900Y-11815200D01*
X19083900Y-11760200D02*
X19193900Y-11760200D01*
X9799769Y-6841643D02*
X9949883Y-6991757D01*
X9949883Y-6841643D02*
X9799769Y-6991757D01*
X9927900Y-6969774D02*
X9927900Y-6863626D01*
X9821752Y-6863626D01*
X9821752Y-6969774D01*
X9927900Y-6969774D01*
X11999917Y-6841643D02*
X12150031Y-6991757D01*
X12150031Y-6841643D02*
X11999917Y-6991757D01*
X12128048Y-6969774D02*
X12128048Y-6863626D01*
X12021900Y-6863626D01*
X12021900Y-6969774D01*
X12128048Y-6969774D01*
X16600043Y-6508369D02*
X16750157Y-6658483D01*
X16750157Y-6508369D02*
X16600043Y-6658483D01*
X16728174Y-6636500D02*
X16728174Y-6530352D01*
X16622026Y-6530352D01*
X16622026Y-6636500D01*
X16728174Y-6636500D01*
X16600043Y-8708517D02*
X16750157Y-8858631D01*
X16750157Y-8708517D02*
X16600043Y-8858631D01*
X16728174Y-8836648D02*
X16728174Y-8730500D01*
X16622026Y-8730500D01*
X16622026Y-8836648D01*
X16728174Y-8836648D01*
X10744400Y-11938200D02*
X10896400Y-12090200D01*
X10896400Y-11938200D02*
X10744400Y-12090200D01*
X10820400Y-12090200D02*
X10896400Y-12014200D01*
X10820400Y-11938200D01*
X10744400Y-12014200D01*
X10820400Y-12090200D01*
X11252400Y-11938200D02*
X11404400Y-12090200D01*
X11404400Y-11938200D02*
X11252400Y-12090200D01*
X11328400Y-12090200D02*
X11404400Y-12014200D01*
X11328400Y-11938200D01*
X11252400Y-12014200D01*
X11328400Y-12090200D01*
X13055800Y-11938200D02*
X13207800Y-12090200D01*
X13207800Y-11938200D02*
X13055800Y-12090200D01*
X13131800Y-12090200D02*
X13207800Y-12014200D01*
X13131800Y-11938200D01*
X13055800Y-12014200D01*
X13131800Y-12090200D01*
X13563800Y-11938200D02*
X13715800Y-12090200D01*
X13715800Y-11938200D02*
X13563800Y-12090200D01*
X13639800Y-12090200D02*
X13715800Y-12014200D01*
X13639800Y-11938200D01*
X13563800Y-12014200D01*
X13639800Y-12090200D01*
X15354500Y-11938200D02*
X15506500Y-12090200D01*
X15506500Y-11938200D02*
X15354500Y-12090200D01*
X15430500Y-12090200D02*
X15506500Y-12014200D01*
X15430500Y-11938200D01*
X15354500Y-12014200D01*
X15430500Y-12090200D01*
X15862500Y-11938200D02*
X16014500Y-12090200D01*
X16014500Y-11938200D02*
X15862500Y-12090200D01*
X15938500Y-12090200D02*
X16014500Y-12014200D01*
X15938500Y-11938200D01*
X15862500Y-12014200D01*
X15938500Y-12090200D01*
X17259500Y-11950900D02*
X17411500Y-12102900D01*
X17411500Y-11950900D02*
X17259500Y-12102900D01*
X17335500Y-12102900D02*
X17411500Y-12026900D01*
X17335500Y-11950900D01*
X17259500Y-12026900D01*
X17335500Y-12102900D01*
X17767500Y-11950900D02*
X17919500Y-12102900D01*
X17919500Y-11950900D02*
X17767500Y-12102900D01*
X17843500Y-12102900D02*
X17919500Y-12026900D01*
X17843500Y-11950900D01*
X17767500Y-12026900D01*
X17843500Y-12102900D01*
X19570900Y-11938200D02*
X19722900Y-12090200D01*
X19722900Y-11938200D02*
X19570900Y-12090200D01*
X19646900Y-12090200D02*
X19722900Y-12014200D01*
X19646900Y-11938200D01*
X19570900Y-12014200D01*
X19646900Y-12090200D01*
X19916300Y-6667700D02*
X20068300Y-6819700D01*
X20068300Y-6667700D02*
X19916300Y-6819700D01*
X19992300Y-6819700D02*
X20068300Y-6743700D01*
X19992300Y-6667700D01*
X19916300Y-6743700D01*
X19992300Y-6819700D01*
X19916300Y-7175700D02*
X20068300Y-7327700D01*
X20068300Y-7175700D02*
X19916300Y-7327700D01*
X19992300Y-7327700D02*
X20068300Y-7251700D01*
X19992300Y-7175700D01*
X19916300Y-7251700D01*
X19992300Y-7327700D01*
X19926500Y-7848800D02*
X20078500Y-8000800D01*
X20078500Y-7848800D02*
X19926500Y-8000800D01*
X20002500Y-8000800D02*
X20078500Y-7924800D01*
X20002500Y-7848800D01*
X19926500Y-7924800D01*
X20002500Y-8000800D01*
X19926500Y-8356800D02*
X20078500Y-8508800D01*
X20078500Y-8356800D02*
X19926500Y-8508800D01*
X20002500Y-8508800D02*
X20078500Y-8432800D01*
X20002500Y-8356800D01*
X19926500Y-8432800D01*
X20002500Y-8508800D01*
X20078900Y-11938200D02*
X20230900Y-12090200D01*
X20230900Y-11938200D02*
X20078900Y-12090200D01*
X20154900Y-12090200D02*
X20230900Y-12014200D01*
X20154900Y-11938200D01*
X20078900Y-12014200D01*
X20154900Y-12090200D01*
X20485300Y-9233100D02*
X20637300Y-9385100D01*
X20637300Y-9233100D02*
X20485300Y-9385100D01*
X20561300Y-9385100D02*
X20637300Y-9309100D01*
X20561300Y-9233100D01*
X20485300Y-9309100D01*
X20561300Y-9385100D01*
X20485300Y-9741100D02*
X20637300Y-9893100D01*
X20637300Y-9741100D02*
X20485300Y-9893100D01*
X20561300Y-9893100D02*
X20637300Y-9817100D01*
X20561300Y-9741100D01*
X20485300Y-9817100D01*
X20561300Y-9893100D01*
X20498000Y-10452300D02*
X20650000Y-10604300D01*
X20650000Y-10452300D02*
X20498000Y-10604300D01*
X20574000Y-10604300D02*
X20650000Y-10528300D01*
X20574000Y-10452300D01*
X20498000Y-10528300D01*
X20574000Y-10604300D01*
X20498000Y-10960300D02*
X20650000Y-11112300D01*
X20650000Y-10960300D02*
X20498000Y-11112300D01*
X20574000Y-11112300D02*
X20650000Y-11036300D01*
X20574000Y-10960300D01*
X20498000Y-11036300D01*
X20574000Y-11112300D01*
X9176900Y-7180500D02*
X9176900Y-7332900D01*
X9100700Y-7256700D02*
X9253100Y-7256700D01*
X9253100Y-7256700D02*
G75*
G03*
X9253100Y-7256700I-76200J0D01*
G01*
X9176900Y-7688500D02*
X9176900Y-7840900D01*
X9100700Y-7764700D02*
X9253100Y-7764700D01*
X9253100Y-7764700D02*
G75*
G03*
X9253100Y-7764700I-76200J0D01*
G01*
X9042038Y-6602838D02*
X9042038Y-6376562D01*
X8815762Y-6376562D01*
X8815762Y-6602838D01*
X9042038Y-6602838D01*
X9088900Y-6489700D02*
G75*
G03*
X9088900Y-6489700I-160000J0D01*
G01*
X9042038Y-11936838D02*
X9042038Y-11710562D01*
X8815762Y-11710562D01*
X8815762Y-11936838D01*
X9042038Y-11936838D01*
X9088900Y-11823700D02*
G75*
G03*
X9088900Y-11823700I-160000J0D01*
G01*
X11088038Y-7029838D02*
X11088038Y-6803562D01*
X10861762Y-6803562D01*
X10861762Y-7029838D01*
X11088038Y-7029838D01*
X11134900Y-6916700D02*
G75*
G03*
X11134900Y-6916700I-160000J0D01*
G01*
X16788238Y-7796638D02*
X16788238Y-7570362D01*
X16561962Y-7570362D01*
X16561962Y-7796638D01*
X16788238Y-7796638D01*
X16835100Y-7683500D02*
G75*
G03*
X16835100Y-7683500I-160000J0D01*
G01*
X21030038Y-6602838D02*
X21030038Y-6376562D01*
X20803762Y-6376562D01*
X20803762Y-6602838D01*
X21030038Y-6602838D01*
X21076900Y-6489700D02*
G75*
G03*
X21076900Y-6489700I-160000J0D01*
G01*
X21030038Y-11936838D02*
X21030038Y-11710562D01*
X20803762Y-11710562D01*
X20803762Y-11936838D01*
X21030038Y-11936838D01*
X21076900Y-11823700D02*
G75*
G03*
X21076900Y-11823700I-160000J0D01*
G01*
D12*
X8749828Y-12994914D02*
X8749828Y-12694914D01*
X8821257Y-12694914D01*
X8864114Y-12709200D01*
X8892686Y-12737771D01*
X8906971Y-12766343D01*
X8921257Y-12823486D01*
X8921257Y-12866343D01*
X8906971Y-12923486D01*
X8892686Y-12952057D01*
X8864114Y-12980629D01*
X8821257Y-12994914D01*
X8749828Y-12994914D01*
X9049828Y-12994914D02*
X9049828Y-12794914D01*
X9049828Y-12852057D02*
X9064114Y-12823486D01*
X9078400Y-12809200D01*
X9106971Y-12794914D01*
X9135543Y-12794914D01*
X9235543Y-12994914D02*
X9235543Y-12794914D01*
X9235543Y-12694914D02*
X9221257Y-12709200D01*
X9235543Y-12723486D01*
X9249828Y-12709200D01*
X9235543Y-12694914D01*
X9235543Y-12723486D01*
X9421257Y-12994914D02*
X9392686Y-12980629D01*
X9378400Y-12952057D01*
X9378400Y-12694914D01*
X9578400Y-12994914D02*
X9549828Y-12980629D01*
X9535543Y-12952057D01*
X9535543Y-12694914D01*
X9921257Y-12994914D02*
X9921257Y-12694914D01*
X10021257Y-12909200D01*
X10121257Y-12694914D01*
X10121257Y-12994914D01*
X10392686Y-12994914D02*
X10392686Y-12837771D01*
X10378400Y-12809200D01*
X10349828Y-12794914D01*
X10292686Y-12794914D01*
X10264114Y-12809200D01*
X10392686Y-12980629D02*
X10364114Y-12994914D01*
X10292686Y-12994914D01*
X10264114Y-12980629D01*
X10249828Y-12952057D01*
X10249828Y-12923486D01*
X10264114Y-12894914D01*
X10292686Y-12880629D01*
X10364114Y-12880629D01*
X10392686Y-12866343D01*
X10535543Y-12794914D02*
X10535543Y-13094914D01*
X10535543Y-12809200D02*
X10564114Y-12794914D01*
X10621257Y-12794914D01*
X10649828Y-12809200D01*
X10664114Y-12823486D01*
X10678400Y-12852057D01*
X10678400Y-12937771D01*
X10664114Y-12966343D01*
X10649828Y-12980629D01*
X10621257Y-12994914D01*
X10564114Y-12994914D01*
X10535543Y-12980629D01*
X10806971Y-12966343D02*
X10821257Y-12980629D01*
X10806971Y-12994914D01*
X10792686Y-12980629D01*
X10806971Y-12966343D01*
X10806971Y-12994914D01*
X10806971Y-12809200D02*
X10821257Y-12823486D01*
X10806971Y-12837771D01*
X10792686Y-12823486D01*
X10806971Y-12809200D01*
X10806971Y-12837771D01*
X8423400Y-13469200D02*
X8463400Y-13509200D01*
X8463400Y-13469200D02*
X8423400Y-13509200D01*
X8806971Y-13324914D02*
X8835543Y-13324914D01*
X8864114Y-13339200D01*
X8878400Y-13353486D01*
X8892686Y-13382057D01*
X8906971Y-13439200D01*
X8906971Y-13510629D01*
X8892686Y-13567771D01*
X8878400Y-13596343D01*
X8864114Y-13610629D01*
X8835543Y-13624914D01*
X8806971Y-13624914D01*
X8778400Y-13610629D01*
X8764114Y-13596343D01*
X8749828Y-13567771D01*
X8735543Y-13510629D01*
X8735543Y-13439200D01*
X8749828Y-13382057D01*
X8764114Y-13353486D01*
X8778400Y-13339200D01*
X8806971Y-13324914D01*
X9035543Y-13596343D02*
X9049828Y-13610629D01*
X9035543Y-13624914D01*
X9021257Y-13610629D01*
X9035543Y-13596343D01*
X9035543Y-13624914D01*
X9306971Y-13424914D02*
X9306971Y-13624914D01*
X9235543Y-13310629D02*
X9164114Y-13524914D01*
X9349828Y-13524914D01*
X9521257Y-13324914D02*
X9549828Y-13324914D01*
X9578400Y-13339200D01*
X9592686Y-13353486D01*
X9606971Y-13382057D01*
X9621257Y-13439200D01*
X9621257Y-13510629D01*
X9606971Y-13567771D01*
X9592686Y-13596343D01*
X9578400Y-13610629D01*
X9549828Y-13624914D01*
X9521257Y-13624914D01*
X9492686Y-13610629D01*
X9478400Y-13596343D01*
X9464114Y-13567771D01*
X9449828Y-13510629D01*
X9449828Y-13439200D01*
X9464114Y-13382057D01*
X9478400Y-13353486D01*
X9492686Y-13339200D01*
X9521257Y-13324914D01*
X9749828Y-13624914D02*
X9749828Y-13424914D01*
X9749828Y-13453486D02*
X9764114Y-13439200D01*
X9792686Y-13424914D01*
X9835543Y-13424914D01*
X9864114Y-13439200D01*
X9878400Y-13467771D01*
X9878400Y-13624914D01*
X9878400Y-13467771D02*
X9892686Y-13439200D01*
X9921257Y-13424914D01*
X9964114Y-13424914D01*
X9992686Y-13439200D01*
X10006971Y-13467771D01*
X10006971Y-13624914D01*
X10149828Y-13624914D02*
X10149828Y-13424914D01*
X10149828Y-13453486D02*
X10164114Y-13439200D01*
X10192686Y-13424914D01*
X10235543Y-13424914D01*
X10264114Y-13439200D01*
X10278400Y-13467771D01*
X10278400Y-13624914D01*
X10278400Y-13467771D02*
X10292686Y-13439200D01*
X10321257Y-13424914D01*
X10364114Y-13424914D01*
X10392686Y-13439200D01*
X10406971Y-13467771D01*
X10406971Y-13624914D01*
X10992686Y-13310629D02*
X10735543Y-13696343D01*
X11378400Y-13324914D02*
X11406971Y-13324914D01*
X11435543Y-13339200D01*
X11449828Y-13353486D01*
X11464114Y-13382057D01*
X11478400Y-13439200D01*
X11478400Y-13510629D01*
X11464114Y-13567771D01*
X11449828Y-13596343D01*
X11435543Y-13610629D01*
X11406971Y-13624914D01*
X11378400Y-13624914D01*
X11349828Y-13610629D01*
X11335543Y-13596343D01*
X11321257Y-13567771D01*
X11306971Y-13510629D01*
X11306971Y-13439200D01*
X11321257Y-13382057D01*
X11335543Y-13353486D01*
X11349828Y-13339200D01*
X11378400Y-13324914D01*
X11606971Y-13596343D02*
X11621257Y-13610629D01*
X11606971Y-13624914D01*
X11592686Y-13610629D01*
X11606971Y-13596343D01*
X11606971Y-13624914D01*
X11806971Y-13324914D02*
X11835543Y-13324914D01*
X11864114Y-13339200D01*
X11878400Y-13353486D01*
X11892686Y-13382057D01*
X11906971Y-13439200D01*
X11906971Y-13510629D01*
X11892686Y-13567771D01*
X11878400Y-13596343D01*
X11864114Y-13610629D01*
X11835543Y-13624914D01*
X11806971Y-13624914D01*
X11778400Y-13610629D01*
X11764114Y-13596343D01*
X11749828Y-13567771D01*
X11735543Y-13510629D01*
X11735543Y-13439200D01*
X11749828Y-13382057D01*
X11764114Y-13353486D01*
X11778400Y-13339200D01*
X11806971Y-13324914D01*
X12192686Y-13624914D02*
X12021257Y-13624914D01*
X12106971Y-13624914D02*
X12106971Y-13324914D01*
X12078400Y-13367771D01*
X12049828Y-13396343D01*
X12021257Y-13410629D01*
X12449828Y-13324914D02*
X12392686Y-13324914D01*
X12364114Y-13339200D01*
X12349828Y-13353486D01*
X12321257Y-13396343D01*
X12306971Y-13453486D01*
X12306971Y-13567771D01*
X12321257Y-13596343D01*
X12335543Y-13610629D01*
X12364114Y-13624914D01*
X12421257Y-13624914D01*
X12449828Y-13610629D01*
X12464114Y-13596343D01*
X12478400Y-13567771D01*
X12478400Y-13496343D01*
X12464114Y-13467771D01*
X12449828Y-13453486D01*
X12421257Y-13439200D01*
X12364114Y-13439200D01*
X12335543Y-13453486D01*
X12321257Y-13467771D01*
X12306971Y-13496343D01*
X12592686Y-13324914D02*
X12592686Y-13382057D01*
X12706971Y-13324914D02*
X12706971Y-13382057D01*
X13149828Y-13739200D02*
X13135543Y-13724914D01*
X13106971Y-13682057D01*
X13092686Y-13653486D01*
X13078400Y-13610629D01*
X13064114Y-13539200D01*
X13064114Y-13482057D01*
X13078400Y-13410629D01*
X13092686Y-13367771D01*
X13106971Y-13339200D01*
X13135543Y-13296343D01*
X13149828Y-13282057D01*
X13421257Y-13624914D02*
X13249828Y-13624914D01*
X13335543Y-13624914D02*
X13335543Y-13324914D01*
X13306971Y-13367771D01*
X13278400Y-13396343D01*
X13249828Y-13410629D01*
X13778400Y-13624914D02*
X13778400Y-13324914D01*
X13906971Y-13624914D02*
X13906971Y-13467771D01*
X13892686Y-13439200D01*
X13864114Y-13424914D01*
X13821257Y-13424914D01*
X13792686Y-13439200D01*
X13778400Y-13453486D01*
X14092686Y-13624914D02*
X14064114Y-13610629D01*
X14049828Y-13596343D01*
X14035543Y-13567771D01*
X14035543Y-13482057D01*
X14049828Y-13453486D01*
X14064114Y-13439200D01*
X14092686Y-13424914D01*
X14135543Y-13424914D01*
X14164114Y-13439200D01*
X14178400Y-13453486D01*
X14192686Y-13482057D01*
X14192686Y-13567771D01*
X14178400Y-13596343D01*
X14164114Y-13610629D01*
X14135543Y-13624914D01*
X14092686Y-13624914D01*
X14364114Y-13624914D02*
X14335543Y-13610629D01*
X14321257Y-13582057D01*
X14321257Y-13324914D01*
X14592686Y-13610629D02*
X14564114Y-13624914D01*
X14506971Y-13624914D01*
X14478400Y-13610629D01*
X14464114Y-13582057D01*
X14464114Y-13467771D01*
X14478400Y-13439200D01*
X14506971Y-13424914D01*
X14564114Y-13424914D01*
X14592686Y-13439200D01*
X14606971Y-13467771D01*
X14606971Y-13496343D01*
X14464114Y-13524914D01*
X14706971Y-13739200D02*
X14721257Y-13724914D01*
X14749828Y-13682057D01*
X14764114Y-13653486D01*
X14778400Y-13610629D01*
X14792686Y-13539200D01*
X14792686Y-13482057D01*
X14778400Y-13410629D01*
X14764114Y-13367771D01*
X14749828Y-13339200D01*
X14721257Y-13296343D01*
X14706971Y-13282057D01*
X8463400Y-13885200D02*
G75*
G03*
X8463400Y-13885200I-40000J0D01*
G01*
X8806971Y-13720914D02*
X8835543Y-13720914D01*
X8864114Y-13735200D01*
X8878400Y-13749486D01*
X8892686Y-13778057D01*
X8906971Y-13835200D01*
X8906971Y-13906629D01*
X8892686Y-13963771D01*
X8878400Y-13992343D01*
X8864114Y-14006629D01*
X8835543Y-14020914D01*
X8806971Y-14020914D01*
X8778400Y-14006629D01*
X8764114Y-13992343D01*
X8749828Y-13963771D01*
X8735543Y-13906629D01*
X8735543Y-13835200D01*
X8749828Y-13778057D01*
X8764114Y-13749486D01*
X8778400Y-13735200D01*
X8806971Y-13720914D01*
X9035543Y-13992343D02*
X9049828Y-14006629D01*
X9035543Y-14020914D01*
X9021257Y-14006629D01*
X9035543Y-13992343D01*
X9035543Y-14020914D01*
X9221257Y-13849486D02*
X9192686Y-13835200D01*
X9178400Y-13820914D01*
X9164114Y-13792343D01*
X9164114Y-13778057D01*
X9178400Y-13749486D01*
X9192686Y-13735200D01*
X9221257Y-13720914D01*
X9278400Y-13720914D01*
X9306971Y-13735200D01*
X9321257Y-13749486D01*
X9335543Y-13778057D01*
X9335543Y-13792343D01*
X9321257Y-13820914D01*
X9306971Y-13835200D01*
X9278400Y-13849486D01*
X9221257Y-13849486D01*
X9192686Y-13863771D01*
X9178400Y-13878057D01*
X9164114Y-13906629D01*
X9164114Y-13963771D01*
X9178400Y-13992343D01*
X9192686Y-14006629D01*
X9221257Y-14020914D01*
X9278400Y-14020914D01*
X9306971Y-14006629D01*
X9321257Y-13992343D01*
X9335543Y-13963771D01*
X9335543Y-13906629D01*
X9321257Y-13878057D01*
X9306971Y-13863771D01*
X9278400Y-13849486D01*
X9521257Y-13720914D02*
X9549828Y-13720914D01*
X9578400Y-13735200D01*
X9592686Y-13749486D01*
X9606971Y-13778057D01*
X9621257Y-13835200D01*
X9621257Y-13906629D01*
X9606971Y-13963771D01*
X9592686Y-13992343D01*
X9578400Y-14006629D01*
X9549828Y-14020914D01*
X9521257Y-14020914D01*
X9492686Y-14006629D01*
X9478400Y-13992343D01*
X9464114Y-13963771D01*
X9449828Y-13906629D01*
X9449828Y-13835200D01*
X9464114Y-13778057D01*
X9478400Y-13749486D01*
X9492686Y-13735200D01*
X9521257Y-13720914D01*
X9749828Y-14020914D02*
X9749828Y-13820914D01*
X9749828Y-13849486D02*
X9764114Y-13835200D01*
X9792686Y-13820914D01*
X9835543Y-13820914D01*
X9864114Y-13835200D01*
X9878400Y-13863771D01*
X9878400Y-14020914D01*
X9878400Y-13863771D02*
X9892686Y-13835200D01*
X9921257Y-13820914D01*
X9964114Y-13820914D01*
X9992686Y-13835200D01*
X10006971Y-13863771D01*
X10006971Y-14020914D01*
X10149828Y-14020914D02*
X10149828Y-13820914D01*
X10149828Y-13849486D02*
X10164114Y-13835200D01*
X10192686Y-13820914D01*
X10235543Y-13820914D01*
X10264114Y-13835200D01*
X10278400Y-13863771D01*
X10278400Y-14020914D01*
X10278400Y-13863771D02*
X10292686Y-13835200D01*
X10321257Y-13820914D01*
X10364114Y-13820914D01*
X10392686Y-13835200D01*
X10406971Y-13863771D01*
X10406971Y-14020914D01*
X10992686Y-13706629D02*
X10735543Y-14092343D01*
X11378400Y-13720914D02*
X11406971Y-13720914D01*
X11435543Y-13735200D01*
X11449828Y-13749486D01*
X11464114Y-13778057D01*
X11478400Y-13835200D01*
X11478400Y-13906629D01*
X11464114Y-13963771D01*
X11449828Y-13992343D01*
X11435543Y-14006629D01*
X11406971Y-14020914D01*
X11378400Y-14020914D01*
X11349828Y-14006629D01*
X11335543Y-13992343D01*
X11321257Y-13963771D01*
X11306971Y-13906629D01*
X11306971Y-13835200D01*
X11321257Y-13778057D01*
X11335543Y-13749486D01*
X11349828Y-13735200D01*
X11378400Y-13720914D01*
X11606971Y-13992343D02*
X11621257Y-14006629D01*
X11606971Y-14020914D01*
X11592686Y-14006629D01*
X11606971Y-13992343D01*
X11606971Y-14020914D01*
X11806971Y-13720914D02*
X11835543Y-13720914D01*
X11864114Y-13735200D01*
X11878400Y-13749486D01*
X11892686Y-13778057D01*
X11906971Y-13835200D01*
X11906971Y-13906629D01*
X11892686Y-13963771D01*
X11878400Y-13992343D01*
X11864114Y-14006629D01*
X11835543Y-14020914D01*
X11806971Y-14020914D01*
X11778400Y-14006629D01*
X11764114Y-13992343D01*
X11749828Y-13963771D01*
X11735543Y-13906629D01*
X11735543Y-13835200D01*
X11749828Y-13778057D01*
X11764114Y-13749486D01*
X11778400Y-13735200D01*
X11806971Y-13720914D01*
X12006971Y-13720914D02*
X12192686Y-13720914D01*
X12092686Y-13835200D01*
X12135543Y-13835200D01*
X12164114Y-13849486D01*
X12178400Y-13863771D01*
X12192686Y-13892343D01*
X12192686Y-13963771D01*
X12178400Y-13992343D01*
X12164114Y-14006629D01*
X12135543Y-14020914D01*
X12049828Y-14020914D01*
X12021257Y-14006629D01*
X12006971Y-13992343D01*
X12478400Y-14020914D02*
X12306971Y-14020914D01*
X12392686Y-14020914D02*
X12392686Y-13720914D01*
X12364114Y-13763771D01*
X12335543Y-13792343D01*
X12306971Y-13806629D01*
X12592686Y-13720914D02*
X12592686Y-13778057D01*
X12706971Y-13720914D02*
X12706971Y-13778057D01*
X13149828Y-14135200D02*
X13135543Y-14120914D01*
X13106971Y-14078057D01*
X13092686Y-14049486D01*
X13078400Y-14006629D01*
X13064114Y-13935200D01*
X13064114Y-13878057D01*
X13078400Y-13806629D01*
X13092686Y-13763771D01*
X13106971Y-13735200D01*
X13135543Y-13692343D01*
X13149828Y-13678057D01*
X13235543Y-13720914D02*
X13435543Y-13720914D01*
X13306971Y-14020914D01*
X13678400Y-13720914D02*
X13621257Y-13720914D01*
X13592686Y-13735200D01*
X13578400Y-13749486D01*
X13549828Y-13792343D01*
X13535543Y-13849486D01*
X13535543Y-13963771D01*
X13549828Y-13992343D01*
X13564114Y-14006629D01*
X13592686Y-14020914D01*
X13649828Y-14020914D01*
X13678400Y-14006629D01*
X13692686Y-13992343D01*
X13706971Y-13963771D01*
X13706971Y-13892343D01*
X13692686Y-13863771D01*
X13678400Y-13849486D01*
X13649828Y-13835200D01*
X13592686Y-13835200D01*
X13564114Y-13849486D01*
X13549828Y-13863771D01*
X13535543Y-13892343D01*
X14064114Y-14020914D02*
X14064114Y-13720914D01*
X14192686Y-14020914D02*
X14192686Y-13863771D01*
X14178400Y-13835200D01*
X14149828Y-13820914D01*
X14106971Y-13820914D01*
X14078400Y-13835200D01*
X14064114Y-13849486D01*
X14378400Y-14020914D02*
X14349828Y-14006629D01*
X14335543Y-13992343D01*
X14321257Y-13963771D01*
X14321257Y-13878057D01*
X14335543Y-13849486D01*
X14349828Y-13835200D01*
X14378400Y-13820914D01*
X14421257Y-13820914D01*
X14449828Y-13835200D01*
X14464114Y-13849486D01*
X14478400Y-13878057D01*
X14478400Y-13963771D01*
X14464114Y-13992343D01*
X14449828Y-14006629D01*
X14421257Y-14020914D01*
X14378400Y-14020914D01*
X14649828Y-14020914D02*
X14621257Y-14006629D01*
X14606971Y-13978057D01*
X14606971Y-13720914D01*
X14878400Y-14006629D02*
X14849828Y-14020914D01*
X14792686Y-14020914D01*
X14764114Y-14006629D01*
X14749828Y-13978057D01*
X14749828Y-13863771D01*
X14764114Y-13835200D01*
X14792686Y-13820914D01*
X14849828Y-13820914D01*
X14878400Y-13835200D01*
X14892686Y-13863771D01*
X14892686Y-13892343D01*
X14749828Y-13920914D01*
X15006971Y-14006629D02*
X15035543Y-14020914D01*
X15092686Y-14020914D01*
X15121257Y-14006629D01*
X15135543Y-13978057D01*
X15135543Y-13963771D01*
X15121257Y-13935200D01*
X15092686Y-13920914D01*
X15049828Y-13920914D01*
X15021257Y-13906629D01*
X15006971Y-13878057D01*
X15006971Y-13863771D01*
X15021257Y-13835200D01*
X15049828Y-13820914D01*
X15092686Y-13820914D01*
X15121257Y-13835200D01*
X15235543Y-14135200D02*
X15249828Y-14120914D01*
X15278400Y-14078057D01*
X15292686Y-14049486D01*
X15306971Y-14006629D01*
X15321257Y-13935200D01*
X15321257Y-13878057D01*
X15306971Y-13806629D01*
X15292686Y-13763771D01*
X15278400Y-13735200D01*
X15249828Y-13692343D01*
X15235543Y-13678057D01*
X8423395Y-14241195D02*
X8423395Y-14321205D01*
X8383390Y-14281200D02*
X8463400Y-14281200D01*
X8806971Y-14116914D02*
X8835543Y-14116914D01*
X8864114Y-14131200D01*
X8878400Y-14145486D01*
X8892686Y-14174057D01*
X8906971Y-14231200D01*
X8906971Y-14302629D01*
X8892686Y-14359771D01*
X8878400Y-14388343D01*
X8864114Y-14402629D01*
X8835543Y-14416914D01*
X8806971Y-14416914D01*
X8778400Y-14402629D01*
X8764114Y-14388343D01*
X8749828Y-14359771D01*
X8735543Y-14302629D01*
X8735543Y-14231200D01*
X8749828Y-14174057D01*
X8764114Y-14145486D01*
X8778400Y-14131200D01*
X8806971Y-14116914D01*
X9035543Y-14388343D02*
X9049828Y-14402629D01*
X9035543Y-14416914D01*
X9021257Y-14402629D01*
X9035543Y-14388343D01*
X9035543Y-14416914D01*
X9221257Y-14245486D02*
X9192686Y-14231200D01*
X9178400Y-14216914D01*
X9164114Y-14188343D01*
X9164114Y-14174057D01*
X9178400Y-14145486D01*
X9192686Y-14131200D01*
X9221257Y-14116914D01*
X9278400Y-14116914D01*
X9306971Y-14131200D01*
X9321257Y-14145486D01*
X9335543Y-14174057D01*
X9335543Y-14188343D01*
X9321257Y-14216914D01*
X9306971Y-14231200D01*
X9278400Y-14245486D01*
X9221257Y-14245486D01*
X9192686Y-14259771D01*
X9178400Y-14274057D01*
X9164114Y-14302629D01*
X9164114Y-14359771D01*
X9178400Y-14388343D01*
X9192686Y-14402629D01*
X9221257Y-14416914D01*
X9278400Y-14416914D01*
X9306971Y-14402629D01*
X9321257Y-14388343D01*
X9335543Y-14359771D01*
X9335543Y-14302629D01*
X9321257Y-14274057D01*
X9306971Y-14259771D01*
X9278400Y-14245486D01*
X9521257Y-14116914D02*
X9549828Y-14116914D01*
X9578400Y-14131200D01*
X9592686Y-14145486D01*
X9606971Y-14174057D01*
X9621257Y-14231200D01*
X9621257Y-14302629D01*
X9606971Y-14359771D01*
X9592686Y-14388343D01*
X9578400Y-14402629D01*
X9549828Y-14416914D01*
X9521257Y-14416914D01*
X9492686Y-14402629D01*
X9478400Y-14388343D01*
X9464114Y-14359771D01*
X9449828Y-14302629D01*
X9449828Y-14231200D01*
X9464114Y-14174057D01*
X9478400Y-14145486D01*
X9492686Y-14131200D01*
X9521257Y-14116914D01*
X9749828Y-14416914D02*
X9749828Y-14216914D01*
X9749828Y-14245486D02*
X9764114Y-14231200D01*
X9792686Y-14216914D01*
X9835543Y-14216914D01*
X9864114Y-14231200D01*
X9878400Y-14259771D01*
X9878400Y-14416914D01*
X9878400Y-14259771D02*
X9892686Y-14231200D01*
X9921257Y-14216914D01*
X9964114Y-14216914D01*
X9992686Y-14231200D01*
X10006971Y-14259771D01*
X10006971Y-14416914D01*
X10149828Y-14416914D02*
X10149828Y-14216914D01*
X10149828Y-14245486D02*
X10164114Y-14231200D01*
X10192686Y-14216914D01*
X10235543Y-14216914D01*
X10264114Y-14231200D01*
X10278400Y-14259771D01*
X10278400Y-14416914D01*
X10278400Y-14259771D02*
X10292686Y-14231200D01*
X10321257Y-14216914D01*
X10364114Y-14216914D01*
X10392686Y-14231200D01*
X10406971Y-14259771D01*
X10406971Y-14416914D01*
X10992686Y-14102629D02*
X10735543Y-14488343D01*
X11378400Y-14116914D02*
X11406971Y-14116914D01*
X11435543Y-14131200D01*
X11449828Y-14145486D01*
X11464114Y-14174057D01*
X11478400Y-14231200D01*
X11478400Y-14302629D01*
X11464114Y-14359771D01*
X11449828Y-14388343D01*
X11435543Y-14402629D01*
X11406971Y-14416914D01*
X11378400Y-14416914D01*
X11349828Y-14402629D01*
X11335543Y-14388343D01*
X11321257Y-14359771D01*
X11306971Y-14302629D01*
X11306971Y-14231200D01*
X11321257Y-14174057D01*
X11335543Y-14145486D01*
X11349828Y-14131200D01*
X11378400Y-14116914D01*
X11606971Y-14388343D02*
X11621257Y-14402629D01*
X11606971Y-14416914D01*
X11592686Y-14402629D01*
X11606971Y-14388343D01*
X11606971Y-14416914D01*
X11806971Y-14116914D02*
X11835543Y-14116914D01*
X11864114Y-14131200D01*
X11878400Y-14145486D01*
X11892686Y-14174057D01*
X11906971Y-14231200D01*
X11906971Y-14302629D01*
X11892686Y-14359771D01*
X11878400Y-14388343D01*
X11864114Y-14402629D01*
X11835543Y-14416914D01*
X11806971Y-14416914D01*
X11778400Y-14402629D01*
X11764114Y-14388343D01*
X11749828Y-14359771D01*
X11735543Y-14302629D01*
X11735543Y-14231200D01*
X11749828Y-14174057D01*
X11764114Y-14145486D01*
X11778400Y-14131200D01*
X11806971Y-14116914D01*
X12006971Y-14116914D02*
X12192686Y-14116914D01*
X12092686Y-14231200D01*
X12135543Y-14231200D01*
X12164114Y-14245486D01*
X12178400Y-14259771D01*
X12192686Y-14288343D01*
X12192686Y-14359771D01*
X12178400Y-14388343D01*
X12164114Y-14402629D01*
X12135543Y-14416914D01*
X12049828Y-14416914D01*
X12021257Y-14402629D01*
X12006971Y-14388343D01*
X12306971Y-14145486D02*
X12321257Y-14131200D01*
X12349828Y-14116914D01*
X12421257Y-14116914D01*
X12449828Y-14131200D01*
X12464114Y-14145486D01*
X12478400Y-14174057D01*
X12478400Y-14202629D01*
X12464114Y-14245486D01*
X12292686Y-14416914D01*
X12478400Y-14416914D01*
X12592686Y-14116914D02*
X12592686Y-14174057D01*
X12706971Y-14116914D02*
X12706971Y-14174057D01*
X13149828Y-14531200D02*
X13135543Y-14516914D01*
X13106971Y-14474057D01*
X13092686Y-14445486D01*
X13078400Y-14402629D01*
X13064114Y-14331200D01*
X13064114Y-14274057D01*
X13078400Y-14202629D01*
X13092686Y-14159771D01*
X13106971Y-14131200D01*
X13135543Y-14088343D01*
X13149828Y-14074057D01*
X13249828Y-14145486D02*
X13264114Y-14131200D01*
X13292686Y-14116914D01*
X13364114Y-14116914D01*
X13392686Y-14131200D01*
X13406971Y-14145486D01*
X13421257Y-14174057D01*
X13421257Y-14202629D01*
X13406971Y-14245486D01*
X13235543Y-14416914D01*
X13421257Y-14416914D01*
X13778400Y-14416914D02*
X13778400Y-14116914D01*
X13906971Y-14416914D02*
X13906971Y-14259771D01*
X13892686Y-14231200D01*
X13864114Y-14216914D01*
X13821257Y-14216914D01*
X13792686Y-14231200D01*
X13778400Y-14245486D01*
X14092686Y-14416914D02*
X14064114Y-14402629D01*
X14049828Y-14388343D01*
X14035543Y-14359771D01*
X14035543Y-14274057D01*
X14049828Y-14245486D01*
X14064114Y-14231200D01*
X14092686Y-14216914D01*
X14135543Y-14216914D01*
X14164114Y-14231200D01*
X14178400Y-14245486D01*
X14192686Y-14274057D01*
X14192686Y-14359771D01*
X14178400Y-14388343D01*
X14164114Y-14402629D01*
X14135543Y-14416914D01*
X14092686Y-14416914D01*
X14364114Y-14416914D02*
X14335543Y-14402629D01*
X14321257Y-14374057D01*
X14321257Y-14116914D01*
X14592686Y-14402629D02*
X14564114Y-14416914D01*
X14506971Y-14416914D01*
X14478400Y-14402629D01*
X14464114Y-14374057D01*
X14464114Y-14259771D01*
X14478400Y-14231200D01*
X14506971Y-14216914D01*
X14564114Y-14216914D01*
X14592686Y-14231200D01*
X14606971Y-14259771D01*
X14606971Y-14288343D01*
X14464114Y-14316914D01*
X14721257Y-14402629D02*
X14749828Y-14416914D01*
X14806971Y-14416914D01*
X14835543Y-14402629D01*
X14849828Y-14374057D01*
X14849828Y-14359771D01*
X14835543Y-14331200D01*
X14806971Y-14316914D01*
X14764114Y-14316914D01*
X14735543Y-14302629D01*
X14721257Y-14274057D01*
X14721257Y-14259771D01*
X14735543Y-14231200D01*
X14764114Y-14216914D01*
X14806971Y-14216914D01*
X14835543Y-14231200D01*
X14949828Y-14531200D02*
X14964114Y-14516914D01*
X14992686Y-14474057D01*
X15006971Y-14445486D01*
X15021257Y-14402629D01*
X15035543Y-14331200D01*
X15035543Y-14274057D01*
X15021257Y-14202629D01*
X15006971Y-14159771D01*
X14992686Y-14131200D01*
X14964114Y-14088343D01*
X14949828Y-14074057D01*
X8450220Y-14709020D02*
X8450220Y-14645380D01*
X8386580Y-14645380D01*
X8386580Y-14709020D01*
X8450220Y-14709020D01*
X8806971Y-14512914D02*
X8835543Y-14512914D01*
X8864114Y-14527200D01*
X8878400Y-14541486D01*
X8892686Y-14570057D01*
X8906971Y-14627200D01*
X8906971Y-14698629D01*
X8892686Y-14755771D01*
X8878400Y-14784343D01*
X8864114Y-14798629D01*
X8835543Y-14812914D01*
X8806971Y-14812914D01*
X8778400Y-14798629D01*
X8764114Y-14784343D01*
X8749828Y-14755771D01*
X8735543Y-14698629D01*
X8735543Y-14627200D01*
X8749828Y-14570057D01*
X8764114Y-14541486D01*
X8778400Y-14527200D01*
X8806971Y-14512914D01*
X9035543Y-14784343D02*
X9049828Y-14798629D01*
X9035543Y-14812914D01*
X9021257Y-14798629D01*
X9035543Y-14784343D01*
X9035543Y-14812914D01*
X9192686Y-14812914D02*
X9249828Y-14812914D01*
X9278400Y-14798629D01*
X9292686Y-14784343D01*
X9321257Y-14741486D01*
X9335543Y-14684343D01*
X9335543Y-14570057D01*
X9321257Y-14541486D01*
X9306971Y-14527200D01*
X9278400Y-14512914D01*
X9221257Y-14512914D01*
X9192686Y-14527200D01*
X9178400Y-14541486D01*
X9164114Y-14570057D01*
X9164114Y-14641486D01*
X9178400Y-14670057D01*
X9192686Y-14684343D01*
X9221257Y-14698629D01*
X9278400Y-14698629D01*
X9306971Y-14684343D01*
X9321257Y-14670057D01*
X9335543Y-14641486D01*
X9521257Y-14512914D02*
X9549828Y-14512914D01*
X9578400Y-14527200D01*
X9592686Y-14541486D01*
X9606971Y-14570057D01*
X9621257Y-14627200D01*
X9621257Y-14698629D01*
X9606971Y-14755771D01*
X9592686Y-14784343D01*
X9578400Y-14798629D01*
X9549828Y-14812914D01*
X9521257Y-14812914D01*
X9492686Y-14798629D01*
X9478400Y-14784343D01*
X9464114Y-14755771D01*
X9449828Y-14698629D01*
X9449828Y-14627200D01*
X9464114Y-14570057D01*
X9478400Y-14541486D01*
X9492686Y-14527200D01*
X9521257Y-14512914D01*
X9749828Y-14812914D02*
X9749828Y-14612914D01*
X9749828Y-14641486D02*
X9764114Y-14627200D01*
X9792686Y-14612914D01*
X9835543Y-14612914D01*
X9864114Y-14627200D01*
X9878400Y-14655771D01*
X9878400Y-14812914D01*
X9878400Y-14655771D02*
X9892686Y-14627200D01*
X9921257Y-14612914D01*
X9964114Y-14612914D01*
X9992686Y-14627200D01*
X10006971Y-14655771D01*
X10006971Y-14812914D01*
X10149828Y-14812914D02*
X10149828Y-14612914D01*
X10149828Y-14641486D02*
X10164114Y-14627200D01*
X10192686Y-14612914D01*
X10235543Y-14612914D01*
X10264114Y-14627200D01*
X10278400Y-14655771D01*
X10278400Y-14812914D01*
X10278400Y-14655771D02*
X10292686Y-14627200D01*
X10321257Y-14612914D01*
X10364114Y-14612914D01*
X10392686Y-14627200D01*
X10406971Y-14655771D01*
X10406971Y-14812914D01*
X10992686Y-14498629D02*
X10735543Y-14884343D01*
X11378400Y-14512914D02*
X11406971Y-14512914D01*
X11435543Y-14527200D01*
X11449828Y-14541486D01*
X11464114Y-14570057D01*
X11478400Y-14627200D01*
X11478400Y-14698629D01*
X11464114Y-14755771D01*
X11449828Y-14784343D01*
X11435543Y-14798629D01*
X11406971Y-14812914D01*
X11378400Y-14812914D01*
X11349828Y-14798629D01*
X11335543Y-14784343D01*
X11321257Y-14755771D01*
X11306971Y-14698629D01*
X11306971Y-14627200D01*
X11321257Y-14570057D01*
X11335543Y-14541486D01*
X11349828Y-14527200D01*
X11378400Y-14512914D01*
X11606971Y-14784343D02*
X11621257Y-14798629D01*
X11606971Y-14812914D01*
X11592686Y-14798629D01*
X11606971Y-14784343D01*
X11606971Y-14812914D01*
X11806971Y-14512914D02*
X11835543Y-14512914D01*
X11864114Y-14527200D01*
X11878400Y-14541486D01*
X11892686Y-14570057D01*
X11906971Y-14627200D01*
X11906971Y-14698629D01*
X11892686Y-14755771D01*
X11878400Y-14784343D01*
X11864114Y-14798629D01*
X11835543Y-14812914D01*
X11806971Y-14812914D01*
X11778400Y-14798629D01*
X11764114Y-14784343D01*
X11749828Y-14755771D01*
X11735543Y-14698629D01*
X11735543Y-14627200D01*
X11749828Y-14570057D01*
X11764114Y-14541486D01*
X11778400Y-14527200D01*
X11806971Y-14512914D01*
X12006971Y-14512914D02*
X12192686Y-14512914D01*
X12092686Y-14627200D01*
X12135543Y-14627200D01*
X12164114Y-14641486D01*
X12178400Y-14655771D01*
X12192686Y-14684343D01*
X12192686Y-14755771D01*
X12178400Y-14784343D01*
X12164114Y-14798629D01*
X12135543Y-14812914D01*
X12049828Y-14812914D01*
X12021257Y-14798629D01*
X12006971Y-14784343D01*
X12464114Y-14512914D02*
X12321257Y-14512914D01*
X12306971Y-14655771D01*
X12321257Y-14641486D01*
X12349828Y-14627200D01*
X12421257Y-14627200D01*
X12449828Y-14641486D01*
X12464114Y-14655771D01*
X12478400Y-14684343D01*
X12478400Y-14755771D01*
X12464114Y-14784343D01*
X12449828Y-14798629D01*
X12421257Y-14812914D01*
X12349828Y-14812914D01*
X12321257Y-14798629D01*
X12306971Y-14784343D01*
X12592686Y-14512914D02*
X12592686Y-14570057D01*
X12706971Y-14512914D02*
X12706971Y-14570057D01*
X13149828Y-14927200D02*
X13135543Y-14912914D01*
X13106971Y-14870057D01*
X13092686Y-14841486D01*
X13078400Y-14798629D01*
X13064114Y-14727200D01*
X13064114Y-14670057D01*
X13078400Y-14598629D01*
X13092686Y-14555771D01*
X13106971Y-14527200D01*
X13135543Y-14484343D01*
X13149828Y-14470057D01*
X13306971Y-14641486D02*
X13278400Y-14627200D01*
X13264114Y-14612914D01*
X13249828Y-14584343D01*
X13249828Y-14570057D01*
X13264114Y-14541486D01*
X13278400Y-14527200D01*
X13306971Y-14512914D01*
X13364114Y-14512914D01*
X13392686Y-14527200D01*
X13406971Y-14541486D01*
X13421257Y-14570057D01*
X13421257Y-14584343D01*
X13406971Y-14612914D01*
X13392686Y-14627200D01*
X13364114Y-14641486D01*
X13306971Y-14641486D01*
X13278400Y-14655771D01*
X13264114Y-14670057D01*
X13249828Y-14698629D01*
X13249828Y-14755771D01*
X13264114Y-14784343D01*
X13278400Y-14798629D01*
X13306971Y-14812914D01*
X13364114Y-14812914D01*
X13392686Y-14798629D01*
X13406971Y-14784343D01*
X13421257Y-14755771D01*
X13421257Y-14698629D01*
X13406971Y-14670057D01*
X13392686Y-14655771D01*
X13364114Y-14641486D01*
X13778400Y-14812914D02*
X13778400Y-14512914D01*
X13906971Y-14812914D02*
X13906971Y-14655771D01*
X13892686Y-14627200D01*
X13864114Y-14612914D01*
X13821257Y-14612914D01*
X13792686Y-14627200D01*
X13778400Y-14641486D01*
X14092686Y-14812914D02*
X14064114Y-14798629D01*
X14049828Y-14784343D01*
X14035543Y-14755771D01*
X14035543Y-14670057D01*
X14049828Y-14641486D01*
X14064114Y-14627200D01*
X14092686Y-14612914D01*
X14135543Y-14612914D01*
X14164114Y-14627200D01*
X14178400Y-14641486D01*
X14192686Y-14670057D01*
X14192686Y-14755771D01*
X14178400Y-14784343D01*
X14164114Y-14798629D01*
X14135543Y-14812914D01*
X14092686Y-14812914D01*
X14364114Y-14812914D02*
X14335543Y-14798629D01*
X14321257Y-14770057D01*
X14321257Y-14512914D01*
X14592686Y-14798629D02*
X14564114Y-14812914D01*
X14506971Y-14812914D01*
X14478400Y-14798629D01*
X14464114Y-14770057D01*
X14464114Y-14655771D01*
X14478400Y-14627200D01*
X14506971Y-14612914D01*
X14564114Y-14612914D01*
X14592686Y-14627200D01*
X14606971Y-14655771D01*
X14606971Y-14684343D01*
X14464114Y-14712914D01*
X14721257Y-14798629D02*
X14749828Y-14812914D01*
X14806971Y-14812914D01*
X14835543Y-14798629D01*
X14849828Y-14770057D01*
X14849828Y-14755771D01*
X14835543Y-14727200D01*
X14806971Y-14712914D01*
X14764114Y-14712914D01*
X14735543Y-14698629D01*
X14721257Y-14670057D01*
X14721257Y-14655771D01*
X14735543Y-14627200D01*
X14764114Y-14612914D01*
X14806971Y-14612914D01*
X14835543Y-14627200D01*
X14949828Y-14927200D02*
X14964114Y-14912914D01*
X14992686Y-14870057D01*
X15006971Y-14841486D01*
X15021257Y-14798629D01*
X15035543Y-14727200D01*
X15035543Y-14670057D01*
X15021257Y-14598629D01*
X15006971Y-14555771D01*
X14992686Y-14527200D01*
X14964114Y-14484343D01*
X14949828Y-14470057D01*
X8415900Y-15120700D02*
X8463400Y-15073200D01*
X8415900Y-15025700D01*
X8368400Y-15073200D01*
X8415900Y-15120700D01*
X8806971Y-14908914D02*
X8835543Y-14908914D01*
X8864114Y-14923200D01*
X8878400Y-14937486D01*
X8892686Y-14966057D01*
X8906971Y-15023200D01*
X8906971Y-15094629D01*
X8892686Y-15151771D01*
X8878400Y-15180343D01*
X8864114Y-15194629D01*
X8835543Y-15208914D01*
X8806971Y-15208914D01*
X8778400Y-15194629D01*
X8764114Y-15180343D01*
X8749828Y-15151771D01*
X8735543Y-15094629D01*
X8735543Y-15023200D01*
X8749828Y-14966057D01*
X8764114Y-14937486D01*
X8778400Y-14923200D01*
X8806971Y-14908914D01*
X9035543Y-15180343D02*
X9049828Y-15194629D01*
X9035543Y-15208914D01*
X9021257Y-15194629D01*
X9035543Y-15180343D01*
X9035543Y-15208914D01*
X9192686Y-15208914D02*
X9249828Y-15208914D01*
X9278400Y-15194629D01*
X9292686Y-15180343D01*
X9321257Y-15137486D01*
X9335543Y-15080343D01*
X9335543Y-14966057D01*
X9321257Y-14937486D01*
X9306971Y-14923200D01*
X9278400Y-14908914D01*
X9221257Y-14908914D01*
X9192686Y-14923200D01*
X9178400Y-14937486D01*
X9164114Y-14966057D01*
X9164114Y-15037486D01*
X9178400Y-15066057D01*
X9192686Y-15080343D01*
X9221257Y-15094629D01*
X9278400Y-15094629D01*
X9306971Y-15080343D01*
X9321257Y-15066057D01*
X9335543Y-15037486D01*
X9606971Y-14908914D02*
X9464114Y-14908914D01*
X9449828Y-15051771D01*
X9464114Y-15037486D01*
X9492686Y-15023200D01*
X9564114Y-15023200D01*
X9592686Y-15037486D01*
X9606971Y-15051771D01*
X9621257Y-15080343D01*
X9621257Y-15151771D01*
X9606971Y-15180343D01*
X9592686Y-15194629D01*
X9564114Y-15208914D01*
X9492686Y-15208914D01*
X9464114Y-15194629D01*
X9449828Y-15180343D01*
X9749828Y-15208914D02*
X9749828Y-15008914D01*
X9749828Y-15037486D02*
X9764114Y-15023200D01*
X9792686Y-15008914D01*
X9835543Y-15008914D01*
X9864114Y-15023200D01*
X9878400Y-15051771D01*
X9878400Y-15208914D01*
X9878400Y-15051771D02*
X9892686Y-15023200D01*
X9921257Y-15008914D01*
X9964114Y-15008914D01*
X9992686Y-15023200D01*
X10006971Y-15051771D01*
X10006971Y-15208914D01*
X10149828Y-15208914D02*
X10149828Y-15008914D01*
X10149828Y-15037486D02*
X10164114Y-15023200D01*
X10192686Y-15008914D01*
X10235543Y-15008914D01*
X10264114Y-15023200D01*
X10278400Y-15051771D01*
X10278400Y-15208914D01*
X10278400Y-15051771D02*
X10292686Y-15023200D01*
X10321257Y-15008914D01*
X10364114Y-15008914D01*
X10392686Y-15023200D01*
X10406971Y-15051771D01*
X10406971Y-15208914D01*
X10992686Y-14894629D02*
X10735543Y-15280343D01*
X11378400Y-14908914D02*
X11406971Y-14908914D01*
X11435543Y-14923200D01*
X11449828Y-14937486D01*
X11464114Y-14966057D01*
X11478400Y-15023200D01*
X11478400Y-15094629D01*
X11464114Y-15151771D01*
X11449828Y-15180343D01*
X11435543Y-15194629D01*
X11406971Y-15208914D01*
X11378400Y-15208914D01*
X11349828Y-15194629D01*
X11335543Y-15180343D01*
X11321257Y-15151771D01*
X11306971Y-15094629D01*
X11306971Y-15023200D01*
X11321257Y-14966057D01*
X11335543Y-14937486D01*
X11349828Y-14923200D01*
X11378400Y-14908914D01*
X11606971Y-15180343D02*
X11621257Y-15194629D01*
X11606971Y-15208914D01*
X11592686Y-15194629D01*
X11606971Y-15180343D01*
X11606971Y-15208914D01*
X11806971Y-14908914D02*
X11835543Y-14908914D01*
X11864114Y-14923200D01*
X11878400Y-14937486D01*
X11892686Y-14966057D01*
X11906971Y-15023200D01*
X11906971Y-15094629D01*
X11892686Y-15151771D01*
X11878400Y-15180343D01*
X11864114Y-15194629D01*
X11835543Y-15208914D01*
X11806971Y-15208914D01*
X11778400Y-15194629D01*
X11764114Y-15180343D01*
X11749828Y-15151771D01*
X11735543Y-15094629D01*
X11735543Y-15023200D01*
X11749828Y-14966057D01*
X11764114Y-14937486D01*
X11778400Y-14923200D01*
X11806971Y-14908914D01*
X12006971Y-14908914D02*
X12192686Y-14908914D01*
X12092686Y-15023200D01*
X12135543Y-15023200D01*
X12164114Y-15037486D01*
X12178400Y-15051771D01*
X12192686Y-15080343D01*
X12192686Y-15151771D01*
X12178400Y-15180343D01*
X12164114Y-15194629D01*
X12135543Y-15208914D01*
X12049828Y-15208914D01*
X12021257Y-15194629D01*
X12006971Y-15180343D01*
X12292686Y-14908914D02*
X12492686Y-14908914D01*
X12364114Y-15208914D01*
X12592686Y-14908914D02*
X12592686Y-14966057D01*
X12706971Y-14908914D02*
X12706971Y-14966057D01*
X13149828Y-15323200D02*
X13135543Y-15308914D01*
X13106971Y-15266057D01*
X13092686Y-15237486D01*
X13078400Y-15194629D01*
X13064114Y-15123200D01*
X13064114Y-15066057D01*
X13078400Y-14994629D01*
X13092686Y-14951771D01*
X13106971Y-14923200D01*
X13135543Y-14880343D01*
X13149828Y-14866057D01*
X13392686Y-14908914D02*
X13335543Y-14908914D01*
X13306971Y-14923200D01*
X13292686Y-14937486D01*
X13264114Y-14980343D01*
X13249828Y-15037486D01*
X13249828Y-15151771D01*
X13264114Y-15180343D01*
X13278400Y-15194629D01*
X13306971Y-15208914D01*
X13364114Y-15208914D01*
X13392686Y-15194629D01*
X13406971Y-15180343D01*
X13421257Y-15151771D01*
X13421257Y-15080343D01*
X13406971Y-15051771D01*
X13392686Y-15037486D01*
X13364114Y-15023200D01*
X13306971Y-15023200D01*
X13278400Y-15037486D01*
X13264114Y-15051771D01*
X13249828Y-15080343D01*
X13778400Y-15208914D02*
X13778400Y-14908914D01*
X13906971Y-15208914D02*
X13906971Y-15051771D01*
X13892686Y-15023200D01*
X13864114Y-15008914D01*
X13821257Y-15008914D01*
X13792686Y-15023200D01*
X13778400Y-15037486D01*
X14092686Y-15208914D02*
X14064114Y-15194629D01*
X14049828Y-15180343D01*
X14035543Y-15151771D01*
X14035543Y-15066057D01*
X14049828Y-15037486D01*
X14064114Y-15023200D01*
X14092686Y-15008914D01*
X14135543Y-15008914D01*
X14164114Y-15023200D01*
X14178400Y-15037486D01*
X14192686Y-15066057D01*
X14192686Y-15151771D01*
X14178400Y-15180343D01*
X14164114Y-15194629D01*
X14135543Y-15208914D01*
X14092686Y-15208914D01*
X14364114Y-15208914D02*
X14335543Y-15194629D01*
X14321257Y-15166057D01*
X14321257Y-14908914D01*
X14592686Y-15194629D02*
X14564114Y-15208914D01*
X14506971Y-15208914D01*
X14478400Y-15194629D01*
X14464114Y-15166057D01*
X14464114Y-15051771D01*
X14478400Y-15023200D01*
X14506971Y-15008914D01*
X14564114Y-15008914D01*
X14592686Y-15023200D01*
X14606971Y-15051771D01*
X14606971Y-15080343D01*
X14464114Y-15108914D01*
X14721257Y-15194629D02*
X14749828Y-15208914D01*
X14806971Y-15208914D01*
X14835543Y-15194629D01*
X14849828Y-15166057D01*
X14849828Y-15151771D01*
X14835543Y-15123200D01*
X14806971Y-15108914D01*
X14764114Y-15108914D01*
X14735543Y-15094629D01*
X14721257Y-15066057D01*
X14721257Y-15051771D01*
X14735543Y-15023200D01*
X14764114Y-15008914D01*
X14806971Y-15008914D01*
X14835543Y-15023200D01*
X14949828Y-15323200D02*
X14964114Y-15308914D01*
X14992686Y-15266057D01*
X15006971Y-15237486D01*
X15021257Y-15194629D01*
X15035543Y-15123200D01*
X15035543Y-15066057D01*
X15021257Y-14994629D01*
X15006971Y-14951771D01*
X14992686Y-14923200D01*
X14964114Y-14880343D01*
X14949828Y-14866057D01*
X8363400Y-15419200D02*
X8463400Y-15519200D01*
X8463400Y-15419200D02*
X8363400Y-15519200D01*
X8463400Y-15469200D02*
G75*
G03*
X8463400Y-15469200I-50000J0D01*
G01*
X8906971Y-15604914D02*
X8735543Y-15604914D01*
X8821257Y-15604914D02*
X8821257Y-15304914D01*
X8792686Y-15347771D01*
X8764114Y-15376343D01*
X8735543Y-15390629D01*
X9035543Y-15576343D02*
X9049828Y-15590629D01*
X9035543Y-15604914D01*
X9021257Y-15590629D01*
X9035543Y-15576343D01*
X9035543Y-15604914D01*
X9235543Y-15304914D02*
X9264114Y-15304914D01*
X9292686Y-15319200D01*
X9306971Y-15333486D01*
X9321257Y-15362057D01*
X9335543Y-15419200D01*
X9335543Y-15490629D01*
X9321257Y-15547771D01*
X9306971Y-15576343D01*
X9292686Y-15590629D01*
X9264114Y-15604914D01*
X9235543Y-15604914D01*
X9206971Y-15590629D01*
X9192686Y-15576343D01*
X9178400Y-15547771D01*
X9164114Y-15490629D01*
X9164114Y-15419200D01*
X9178400Y-15362057D01*
X9192686Y-15333486D01*
X9206971Y-15319200D01*
X9235543Y-15304914D01*
X9521257Y-15304914D02*
X9549828Y-15304914D01*
X9578400Y-15319200D01*
X9592686Y-15333486D01*
X9606971Y-15362057D01*
X9621257Y-15419200D01*
X9621257Y-15490629D01*
X9606971Y-15547771D01*
X9592686Y-15576343D01*
X9578400Y-15590629D01*
X9549828Y-15604914D01*
X9521257Y-15604914D01*
X9492686Y-15590629D01*
X9478400Y-15576343D01*
X9464114Y-15547771D01*
X9449828Y-15490629D01*
X9449828Y-15419200D01*
X9464114Y-15362057D01*
X9478400Y-15333486D01*
X9492686Y-15319200D01*
X9521257Y-15304914D01*
X9749828Y-15604914D02*
X9749828Y-15404914D01*
X9749828Y-15433486D02*
X9764114Y-15419200D01*
X9792686Y-15404914D01*
X9835543Y-15404914D01*
X9864114Y-15419200D01*
X9878400Y-15447771D01*
X9878400Y-15604914D01*
X9878400Y-15447771D02*
X9892686Y-15419200D01*
X9921257Y-15404914D01*
X9964114Y-15404914D01*
X9992686Y-15419200D01*
X10006971Y-15447771D01*
X10006971Y-15604914D01*
X10149828Y-15604914D02*
X10149828Y-15404914D01*
X10149828Y-15433486D02*
X10164114Y-15419200D01*
X10192686Y-15404914D01*
X10235543Y-15404914D01*
X10264114Y-15419200D01*
X10278400Y-15447771D01*
X10278400Y-15604914D01*
X10278400Y-15447771D02*
X10292686Y-15419200D01*
X10321257Y-15404914D01*
X10364114Y-15404914D01*
X10392686Y-15419200D01*
X10406971Y-15447771D01*
X10406971Y-15604914D01*
X10992686Y-15290629D02*
X10735543Y-15676343D01*
X11378400Y-15304914D02*
X11406971Y-15304914D01*
X11435543Y-15319200D01*
X11449828Y-15333486D01*
X11464114Y-15362057D01*
X11478400Y-15419200D01*
X11478400Y-15490629D01*
X11464114Y-15547771D01*
X11449828Y-15576343D01*
X11435543Y-15590629D01*
X11406971Y-15604914D01*
X11378400Y-15604914D01*
X11349828Y-15590629D01*
X11335543Y-15576343D01*
X11321257Y-15547771D01*
X11306971Y-15490629D01*
X11306971Y-15419200D01*
X11321257Y-15362057D01*
X11335543Y-15333486D01*
X11349828Y-15319200D01*
X11378400Y-15304914D01*
X11606971Y-15576343D02*
X11621257Y-15590629D01*
X11606971Y-15604914D01*
X11592686Y-15590629D01*
X11606971Y-15576343D01*
X11606971Y-15604914D01*
X11806971Y-15304914D02*
X11835543Y-15304914D01*
X11864114Y-15319200D01*
X11878400Y-15333486D01*
X11892686Y-15362057D01*
X11906971Y-15419200D01*
X11906971Y-15490629D01*
X11892686Y-15547771D01*
X11878400Y-15576343D01*
X11864114Y-15590629D01*
X11835543Y-15604914D01*
X11806971Y-15604914D01*
X11778400Y-15590629D01*
X11764114Y-15576343D01*
X11749828Y-15547771D01*
X11735543Y-15490629D01*
X11735543Y-15419200D01*
X11749828Y-15362057D01*
X11764114Y-15333486D01*
X11778400Y-15319200D01*
X11806971Y-15304914D01*
X12006971Y-15304914D02*
X12192686Y-15304914D01*
X12092686Y-15419200D01*
X12135543Y-15419200D01*
X12164114Y-15433486D01*
X12178400Y-15447771D01*
X12192686Y-15476343D01*
X12192686Y-15547771D01*
X12178400Y-15576343D01*
X12164114Y-15590629D01*
X12135543Y-15604914D01*
X12049828Y-15604914D01*
X12021257Y-15590629D01*
X12006971Y-15576343D01*
X12335543Y-15604914D02*
X12392686Y-15604914D01*
X12421257Y-15590629D01*
X12435543Y-15576343D01*
X12464114Y-15533486D01*
X12478400Y-15476343D01*
X12478400Y-15362057D01*
X12464114Y-15333486D01*
X12449828Y-15319200D01*
X12421257Y-15304914D01*
X12364114Y-15304914D01*
X12335543Y-15319200D01*
X12321257Y-15333486D01*
X12306971Y-15362057D01*
X12306971Y-15433486D01*
X12321257Y-15462057D01*
X12335543Y-15476343D01*
X12364114Y-15490629D01*
X12421257Y-15490629D01*
X12449828Y-15476343D01*
X12464114Y-15462057D01*
X12478400Y-15433486D01*
X12592686Y-15304914D02*
X12592686Y-15362057D01*
X12706971Y-15304914D02*
X12706971Y-15362057D01*
X13149828Y-15719200D02*
X13135543Y-15704914D01*
X13106971Y-15662057D01*
X13092686Y-15633486D01*
X13078400Y-15590629D01*
X13064114Y-15519200D01*
X13064114Y-15462057D01*
X13078400Y-15390629D01*
X13092686Y-15347771D01*
X13106971Y-15319200D01*
X13135543Y-15276343D01*
X13149828Y-15262057D01*
X13392686Y-15404914D02*
X13392686Y-15604914D01*
X13321257Y-15290629D02*
X13249828Y-15504914D01*
X13435543Y-15504914D01*
X13778400Y-15604914D02*
X13778400Y-15304914D01*
X13906971Y-15604914D02*
X13906971Y-15447771D01*
X13892686Y-15419200D01*
X13864114Y-15404914D01*
X13821257Y-15404914D01*
X13792686Y-15419200D01*
X13778400Y-15433486D01*
X14092686Y-15604914D02*
X14064114Y-15590629D01*
X14049828Y-15576343D01*
X14035543Y-15547771D01*
X14035543Y-15462057D01*
X14049828Y-15433486D01*
X14064114Y-15419200D01*
X14092686Y-15404914D01*
X14135543Y-15404914D01*
X14164114Y-15419200D01*
X14178400Y-15433486D01*
X14192686Y-15462057D01*
X14192686Y-15547771D01*
X14178400Y-15576343D01*
X14164114Y-15590629D01*
X14135543Y-15604914D01*
X14092686Y-15604914D01*
X14364114Y-15604914D02*
X14335543Y-15590629D01*
X14321257Y-15562057D01*
X14321257Y-15304914D01*
X14592686Y-15590629D02*
X14564114Y-15604914D01*
X14506971Y-15604914D01*
X14478400Y-15590629D01*
X14464114Y-15562057D01*
X14464114Y-15447771D01*
X14478400Y-15419200D01*
X14506971Y-15404914D01*
X14564114Y-15404914D01*
X14592686Y-15419200D01*
X14606971Y-15447771D01*
X14606971Y-15476343D01*
X14464114Y-15504914D01*
X14721257Y-15590629D02*
X14749828Y-15604914D01*
X14806971Y-15604914D01*
X14835543Y-15590629D01*
X14849828Y-15562057D01*
X14849828Y-15547771D01*
X14835543Y-15519200D01*
X14806971Y-15504914D01*
X14764114Y-15504914D01*
X14735543Y-15490629D01*
X14721257Y-15462057D01*
X14721257Y-15447771D01*
X14735543Y-15419200D01*
X14764114Y-15404914D01*
X14806971Y-15404914D01*
X14835543Y-15419200D01*
X14949828Y-15719200D02*
X14964114Y-15704914D01*
X14992686Y-15662057D01*
X15006971Y-15633486D01*
X15021257Y-15590629D01*
X15035543Y-15519200D01*
X15035543Y-15462057D01*
X15021257Y-15390629D01*
X15006971Y-15347771D01*
X14992686Y-15319200D01*
X14964114Y-15276343D01*
X14949828Y-15262057D01*
X8353400Y-15810200D02*
X8463400Y-15920200D01*
X8463400Y-15810200D02*
X8353400Y-15920200D01*
X8408400Y-15810200D02*
X8408400Y-15920200D01*
X8353400Y-15865200D02*
X8463400Y-15865200D01*
X8906971Y-16000914D02*
X8735543Y-16000914D01*
X8821257Y-16000914D02*
X8821257Y-15700914D01*
X8792686Y-15743771D01*
X8764114Y-15772343D01*
X8735543Y-15786629D01*
X9035543Y-15972343D02*
X9049828Y-15986629D01*
X9035543Y-16000914D01*
X9021257Y-15986629D01*
X9035543Y-15972343D01*
X9035543Y-16000914D01*
X9335543Y-16000914D02*
X9164114Y-16000914D01*
X9249828Y-16000914D02*
X9249828Y-15700914D01*
X9221257Y-15743771D01*
X9192686Y-15772343D01*
X9164114Y-15786629D01*
X9521257Y-15700914D02*
X9549828Y-15700914D01*
X9578400Y-15715200D01*
X9592686Y-15729486D01*
X9606971Y-15758057D01*
X9621257Y-15815200D01*
X9621257Y-15886629D01*
X9606971Y-15943771D01*
X9592686Y-15972343D01*
X9578400Y-15986629D01*
X9549828Y-16000914D01*
X9521257Y-16000914D01*
X9492686Y-15986629D01*
X9478400Y-15972343D01*
X9464114Y-15943771D01*
X9449828Y-15886629D01*
X9449828Y-15815200D01*
X9464114Y-15758057D01*
X9478400Y-15729486D01*
X9492686Y-15715200D01*
X9521257Y-15700914D01*
X9749828Y-16000914D02*
X9749828Y-15800914D01*
X9749828Y-15829486D02*
X9764114Y-15815200D01*
X9792686Y-15800914D01*
X9835543Y-15800914D01*
X9864114Y-15815200D01*
X9878400Y-15843771D01*
X9878400Y-16000914D01*
X9878400Y-15843771D02*
X9892686Y-15815200D01*
X9921257Y-15800914D01*
X9964114Y-15800914D01*
X9992686Y-15815200D01*
X10006971Y-15843771D01*
X10006971Y-16000914D01*
X10149828Y-16000914D02*
X10149828Y-15800914D01*
X10149828Y-15829486D02*
X10164114Y-15815200D01*
X10192686Y-15800914D01*
X10235543Y-15800914D01*
X10264114Y-15815200D01*
X10278400Y-15843771D01*
X10278400Y-16000914D01*
X10278400Y-15843771D02*
X10292686Y-15815200D01*
X10321257Y-15800914D01*
X10364114Y-15800914D01*
X10392686Y-15815200D01*
X10406971Y-15843771D01*
X10406971Y-16000914D01*
X10992686Y-15686629D02*
X10735543Y-16072343D01*
X11378400Y-15700914D02*
X11406971Y-15700914D01*
X11435543Y-15715200D01*
X11449828Y-15729486D01*
X11464114Y-15758057D01*
X11478400Y-15815200D01*
X11478400Y-15886629D01*
X11464114Y-15943771D01*
X11449828Y-15972343D01*
X11435543Y-15986629D01*
X11406971Y-16000914D01*
X11378400Y-16000914D01*
X11349828Y-15986629D01*
X11335543Y-15972343D01*
X11321257Y-15943771D01*
X11306971Y-15886629D01*
X11306971Y-15815200D01*
X11321257Y-15758057D01*
X11335543Y-15729486D01*
X11349828Y-15715200D01*
X11378400Y-15700914D01*
X11606971Y-15972343D02*
X11621257Y-15986629D01*
X11606971Y-16000914D01*
X11592686Y-15986629D01*
X11606971Y-15972343D01*
X11606971Y-16000914D01*
X11806971Y-15700914D02*
X11835543Y-15700914D01*
X11864114Y-15715200D01*
X11878400Y-15729486D01*
X11892686Y-15758057D01*
X11906971Y-15815200D01*
X11906971Y-15886629D01*
X11892686Y-15943771D01*
X11878400Y-15972343D01*
X11864114Y-15986629D01*
X11835543Y-16000914D01*
X11806971Y-16000914D01*
X11778400Y-15986629D01*
X11764114Y-15972343D01*
X11749828Y-15943771D01*
X11735543Y-15886629D01*
X11735543Y-15815200D01*
X11749828Y-15758057D01*
X11764114Y-15729486D01*
X11778400Y-15715200D01*
X11806971Y-15700914D01*
X12164114Y-15800914D02*
X12164114Y-16000914D01*
X12092686Y-15686629D02*
X12021257Y-15900914D01*
X12206971Y-15900914D01*
X12292686Y-15700914D02*
X12478400Y-15700914D01*
X12378400Y-15815200D01*
X12421257Y-15815200D01*
X12449828Y-15829486D01*
X12464114Y-15843771D01*
X12478400Y-15872343D01*
X12478400Y-15943771D01*
X12464114Y-15972343D01*
X12449828Y-15986629D01*
X12421257Y-16000914D01*
X12335543Y-16000914D01*
X12306971Y-15986629D01*
X12292686Y-15972343D01*
X12592686Y-15700914D02*
X12592686Y-15758057D01*
X12706971Y-15700914D02*
X12706971Y-15758057D01*
X13149828Y-16115200D02*
X13135543Y-16100914D01*
X13106971Y-16058057D01*
X13092686Y-16029486D01*
X13078400Y-15986629D01*
X13064114Y-15915200D01*
X13064114Y-15858057D01*
X13078400Y-15786629D01*
X13092686Y-15743771D01*
X13106971Y-15715200D01*
X13135543Y-15672343D01*
X13149828Y-15658057D01*
X13249828Y-15729486D02*
X13264114Y-15715200D01*
X13292686Y-15700914D01*
X13364114Y-15700914D01*
X13392686Y-15715200D01*
X13406971Y-15729486D01*
X13421257Y-15758057D01*
X13421257Y-15786629D01*
X13406971Y-15829486D01*
X13235543Y-16000914D01*
X13421257Y-16000914D01*
X13678400Y-15800914D02*
X13678400Y-16000914D01*
X13606971Y-15686629D02*
X13535543Y-15900914D01*
X13721257Y-15900914D01*
X14064114Y-16000914D02*
X14064114Y-15700914D01*
X14192686Y-16000914D02*
X14192686Y-15843771D01*
X14178400Y-15815200D01*
X14149828Y-15800914D01*
X14106971Y-15800914D01*
X14078400Y-15815200D01*
X14064114Y-15829486D01*
X14378400Y-16000914D02*
X14349828Y-15986629D01*
X14335543Y-15972343D01*
X14321257Y-15943771D01*
X14321257Y-15858057D01*
X14335543Y-15829486D01*
X14349828Y-15815200D01*
X14378400Y-15800914D01*
X14421257Y-15800914D01*
X14449828Y-15815200D01*
X14464114Y-15829486D01*
X14478400Y-15858057D01*
X14478400Y-15943771D01*
X14464114Y-15972343D01*
X14449828Y-15986629D01*
X14421257Y-16000914D01*
X14378400Y-16000914D01*
X14649828Y-16000914D02*
X14621257Y-15986629D01*
X14606971Y-15958057D01*
X14606971Y-15700914D01*
X14878400Y-15986629D02*
X14849828Y-16000914D01*
X14792686Y-16000914D01*
X14764114Y-15986629D01*
X14749828Y-15958057D01*
X14749828Y-15843771D01*
X14764114Y-15815200D01*
X14792686Y-15800914D01*
X14849828Y-15800914D01*
X14878400Y-15815200D01*
X14892686Y-15843771D01*
X14892686Y-15872343D01*
X14749828Y-15900914D01*
X15006971Y-15986629D02*
X15035543Y-16000914D01*
X15092686Y-16000914D01*
X15121257Y-15986629D01*
X15135543Y-15958057D01*
X15135543Y-15943771D01*
X15121257Y-15915200D01*
X15092686Y-15900914D01*
X15049828Y-15900914D01*
X15021257Y-15886629D01*
X15006971Y-15858057D01*
X15006971Y-15843771D01*
X15021257Y-15815200D01*
X15049828Y-15800914D01*
X15092686Y-15800914D01*
X15121257Y-15815200D01*
X15235543Y-16115200D02*
X15249828Y-16100914D01*
X15278400Y-16058057D01*
X15292686Y-16029486D01*
X15306971Y-15986629D01*
X15321257Y-15915200D01*
X15321257Y-15858057D01*
X15306971Y-15786629D01*
X15292686Y-15743771D01*
X15278400Y-15715200D01*
X15249828Y-15672343D01*
X15235543Y-15658057D01*
X8313286Y-16186143D02*
X8463400Y-16336257D01*
X8463400Y-16186143D02*
X8313286Y-16336257D01*
X8441417Y-16314274D02*
X8441417Y-16208126D01*
X8335269Y-16208126D01*
X8335269Y-16314274D01*
X8441417Y-16314274D01*
X8906971Y-16396914D02*
X8735543Y-16396914D01*
X8821257Y-16396914D02*
X8821257Y-16096914D01*
X8792686Y-16139771D01*
X8764114Y-16168343D01*
X8735543Y-16182629D01*
X9035543Y-16368343D02*
X9049828Y-16382629D01*
X9035543Y-16396914D01*
X9021257Y-16382629D01*
X9035543Y-16368343D01*
X9035543Y-16396914D01*
X9321257Y-16096914D02*
X9178400Y-16096914D01*
X9164114Y-16239771D01*
X9178400Y-16225486D01*
X9206971Y-16211200D01*
X9278400Y-16211200D01*
X9306971Y-16225486D01*
X9321257Y-16239771D01*
X9335543Y-16268343D01*
X9335543Y-16339771D01*
X9321257Y-16368343D01*
X9306971Y-16382629D01*
X9278400Y-16396914D01*
X9206971Y-16396914D01*
X9178400Y-16382629D01*
X9164114Y-16368343D01*
X9521257Y-16096914D02*
X9549828Y-16096914D01*
X9578400Y-16111200D01*
X9592686Y-16125486D01*
X9606971Y-16154057D01*
X9621257Y-16211200D01*
X9621257Y-16282629D01*
X9606971Y-16339771D01*
X9592686Y-16368343D01*
X9578400Y-16382629D01*
X9549828Y-16396914D01*
X9521257Y-16396914D01*
X9492686Y-16382629D01*
X9478400Y-16368343D01*
X9464114Y-16339771D01*
X9449828Y-16282629D01*
X9449828Y-16211200D01*
X9464114Y-16154057D01*
X9478400Y-16125486D01*
X9492686Y-16111200D01*
X9521257Y-16096914D01*
X9749828Y-16396914D02*
X9749828Y-16196914D01*
X9749828Y-16225486D02*
X9764114Y-16211200D01*
X9792686Y-16196914D01*
X9835543Y-16196914D01*
X9864114Y-16211200D01*
X9878400Y-16239771D01*
X9878400Y-16396914D01*
X9878400Y-16239771D02*
X9892686Y-16211200D01*
X9921257Y-16196914D01*
X9964114Y-16196914D01*
X9992686Y-16211200D01*
X10006971Y-16239771D01*
X10006971Y-16396914D01*
X10149828Y-16396914D02*
X10149828Y-16196914D01*
X10149828Y-16225486D02*
X10164114Y-16211200D01*
X10192686Y-16196914D01*
X10235543Y-16196914D01*
X10264114Y-16211200D01*
X10278400Y-16239771D01*
X10278400Y-16396914D01*
X10278400Y-16239771D02*
X10292686Y-16211200D01*
X10321257Y-16196914D01*
X10364114Y-16196914D01*
X10392686Y-16211200D01*
X10406971Y-16239771D01*
X10406971Y-16396914D01*
X10992686Y-16082629D02*
X10735543Y-16468343D01*
X11378400Y-16096914D02*
X11406971Y-16096914D01*
X11435543Y-16111200D01*
X11449828Y-16125486D01*
X11464114Y-16154057D01*
X11478400Y-16211200D01*
X11478400Y-16282629D01*
X11464114Y-16339771D01*
X11449828Y-16368343D01*
X11435543Y-16382629D01*
X11406971Y-16396914D01*
X11378400Y-16396914D01*
X11349828Y-16382629D01*
X11335543Y-16368343D01*
X11321257Y-16339771D01*
X11306971Y-16282629D01*
X11306971Y-16211200D01*
X11321257Y-16154057D01*
X11335543Y-16125486D01*
X11349828Y-16111200D01*
X11378400Y-16096914D01*
X11606971Y-16368343D02*
X11621257Y-16382629D01*
X11606971Y-16396914D01*
X11592686Y-16382629D01*
X11606971Y-16368343D01*
X11606971Y-16396914D01*
X11806971Y-16096914D02*
X11835543Y-16096914D01*
X11864114Y-16111200D01*
X11878400Y-16125486D01*
X11892686Y-16154057D01*
X11906971Y-16211200D01*
X11906971Y-16282629D01*
X11892686Y-16339771D01*
X11878400Y-16368343D01*
X11864114Y-16382629D01*
X11835543Y-16396914D01*
X11806971Y-16396914D01*
X11778400Y-16382629D01*
X11764114Y-16368343D01*
X11749828Y-16339771D01*
X11735543Y-16282629D01*
X11735543Y-16211200D01*
X11749828Y-16154057D01*
X11764114Y-16125486D01*
X11778400Y-16111200D01*
X11806971Y-16096914D01*
X12178400Y-16096914D02*
X12035543Y-16096914D01*
X12021257Y-16239771D01*
X12035543Y-16225486D01*
X12064114Y-16211200D01*
X12135543Y-16211200D01*
X12164114Y-16225486D01*
X12178400Y-16239771D01*
X12192686Y-16268343D01*
X12192686Y-16339771D01*
X12178400Y-16368343D01*
X12164114Y-16382629D01*
X12135543Y-16396914D01*
X12064114Y-16396914D01*
X12035543Y-16382629D01*
X12021257Y-16368343D01*
X12335543Y-16396914D02*
X12392686Y-16396914D01*
X12421257Y-16382629D01*
X12435543Y-16368343D01*
X12464114Y-16325486D01*
X12478400Y-16268343D01*
X12478400Y-16154057D01*
X12464114Y-16125486D01*
X12449828Y-16111200D01*
X12421257Y-16096914D01*
X12364114Y-16096914D01*
X12335543Y-16111200D01*
X12321257Y-16125486D01*
X12306971Y-16154057D01*
X12306971Y-16225486D01*
X12321257Y-16254057D01*
X12335543Y-16268343D01*
X12364114Y-16282629D01*
X12421257Y-16282629D01*
X12449828Y-16268343D01*
X12464114Y-16254057D01*
X12478400Y-16225486D01*
X12592686Y-16096914D02*
X12592686Y-16154057D01*
X12706971Y-16096914D02*
X12706971Y-16154057D01*
X13149828Y-16511200D02*
X13135543Y-16496914D01*
X13106971Y-16454057D01*
X13092686Y-16425486D01*
X13078400Y-16382629D01*
X13064114Y-16311200D01*
X13064114Y-16254057D01*
X13078400Y-16182629D01*
X13092686Y-16139771D01*
X13106971Y-16111200D01*
X13135543Y-16068343D01*
X13149828Y-16054057D01*
X13392686Y-16196914D02*
X13392686Y-16396914D01*
X13321257Y-16082629D02*
X13249828Y-16296914D01*
X13435543Y-16296914D01*
X13778400Y-16396914D02*
X13778400Y-16096914D01*
X13906971Y-16396914D02*
X13906971Y-16239771D01*
X13892686Y-16211200D01*
X13864114Y-16196914D01*
X13821257Y-16196914D01*
X13792686Y-16211200D01*
X13778400Y-16225486D01*
X14092686Y-16396914D02*
X14064114Y-16382629D01*
X14049828Y-16368343D01*
X14035543Y-16339771D01*
X14035543Y-16254057D01*
X14049828Y-16225486D01*
X14064114Y-16211200D01*
X14092686Y-16196914D01*
X14135543Y-16196914D01*
X14164114Y-16211200D01*
X14178400Y-16225486D01*
X14192686Y-16254057D01*
X14192686Y-16339771D01*
X14178400Y-16368343D01*
X14164114Y-16382629D01*
X14135543Y-16396914D01*
X14092686Y-16396914D01*
X14364114Y-16396914D02*
X14335543Y-16382629D01*
X14321257Y-16354057D01*
X14321257Y-16096914D01*
X14592686Y-16382629D02*
X14564114Y-16396914D01*
X14506971Y-16396914D01*
X14478400Y-16382629D01*
X14464114Y-16354057D01*
X14464114Y-16239771D01*
X14478400Y-16211200D01*
X14506971Y-16196914D01*
X14564114Y-16196914D01*
X14592686Y-16211200D01*
X14606971Y-16239771D01*
X14606971Y-16268343D01*
X14464114Y-16296914D01*
X14721257Y-16382629D02*
X14749828Y-16396914D01*
X14806971Y-16396914D01*
X14835543Y-16382629D01*
X14849828Y-16354057D01*
X14849828Y-16339771D01*
X14835543Y-16311200D01*
X14806971Y-16296914D01*
X14764114Y-16296914D01*
X14735543Y-16282629D01*
X14721257Y-16254057D01*
X14721257Y-16239771D01*
X14735543Y-16211200D01*
X14764114Y-16196914D01*
X14806971Y-16196914D01*
X14835543Y-16211200D01*
X14949828Y-16511200D02*
X14964114Y-16496914D01*
X14992686Y-16454057D01*
X15006971Y-16425486D01*
X15021257Y-16382629D01*
X15035543Y-16311200D01*
X15035543Y-16254057D01*
X15021257Y-16182629D01*
X15006971Y-16139771D01*
X14992686Y-16111200D01*
X14964114Y-16068343D01*
X14949828Y-16054057D01*
X8311400Y-16581200D02*
X8463400Y-16733200D01*
X8463400Y-16581200D02*
X8311400Y-16733200D01*
X8387400Y-16733200D02*
X8463400Y-16657200D01*
X8387400Y-16581200D01*
X8311400Y-16657200D01*
X8387400Y-16733200D01*
X8906971Y-16792914D02*
X8735543Y-16792914D01*
X8821257Y-16792914D02*
X8821257Y-16492914D01*
X8792686Y-16535771D01*
X8764114Y-16564343D01*
X8735543Y-16578629D01*
X9035543Y-16764343D02*
X9049828Y-16778629D01*
X9035543Y-16792914D01*
X9021257Y-16778629D01*
X9035543Y-16764343D01*
X9035543Y-16792914D01*
X9321257Y-16492914D02*
X9178400Y-16492914D01*
X9164114Y-16635771D01*
X9178400Y-16621486D01*
X9206971Y-16607200D01*
X9278400Y-16607200D01*
X9306971Y-16621486D01*
X9321257Y-16635771D01*
X9335543Y-16664343D01*
X9335543Y-16735771D01*
X9321257Y-16764343D01*
X9306971Y-16778629D01*
X9278400Y-16792914D01*
X9206971Y-16792914D01*
X9178400Y-16778629D01*
X9164114Y-16764343D01*
X9449828Y-16521486D02*
X9464114Y-16507200D01*
X9492686Y-16492914D01*
X9564114Y-16492914D01*
X9592686Y-16507200D01*
X9606971Y-16521486D01*
X9621257Y-16550057D01*
X9621257Y-16578629D01*
X9606971Y-16621486D01*
X9435543Y-16792914D01*
X9621257Y-16792914D01*
X9749828Y-16792914D02*
X9749828Y-16592914D01*
X9749828Y-16621486D02*
X9764114Y-16607200D01*
X9792686Y-16592914D01*
X9835543Y-16592914D01*
X9864114Y-16607200D01*
X9878400Y-16635771D01*
X9878400Y-16792914D01*
X9878400Y-16635771D02*
X9892686Y-16607200D01*
X9921257Y-16592914D01*
X9964114Y-16592914D01*
X9992686Y-16607200D01*
X10006971Y-16635771D01*
X10006971Y-16792914D01*
X10149828Y-16792914D02*
X10149828Y-16592914D01*
X10149828Y-16621486D02*
X10164114Y-16607200D01*
X10192686Y-16592914D01*
X10235543Y-16592914D01*
X10264114Y-16607200D01*
X10278400Y-16635771D01*
X10278400Y-16792914D01*
X10278400Y-16635771D02*
X10292686Y-16607200D01*
X10321257Y-16592914D01*
X10364114Y-16592914D01*
X10392686Y-16607200D01*
X10406971Y-16635771D01*
X10406971Y-16792914D01*
X10992686Y-16478629D02*
X10735543Y-16864343D01*
X11378400Y-16492914D02*
X11406971Y-16492914D01*
X11435543Y-16507200D01*
X11449828Y-16521486D01*
X11464114Y-16550057D01*
X11478400Y-16607200D01*
X11478400Y-16678629D01*
X11464114Y-16735771D01*
X11449828Y-16764343D01*
X11435543Y-16778629D01*
X11406971Y-16792914D01*
X11378400Y-16792914D01*
X11349828Y-16778629D01*
X11335543Y-16764343D01*
X11321257Y-16735771D01*
X11306971Y-16678629D01*
X11306971Y-16607200D01*
X11321257Y-16550057D01*
X11335543Y-16521486D01*
X11349828Y-16507200D01*
X11378400Y-16492914D01*
X11606971Y-16764343D02*
X11621257Y-16778629D01*
X11606971Y-16792914D01*
X11592686Y-16778629D01*
X11606971Y-16764343D01*
X11606971Y-16792914D01*
X11806971Y-16492914D02*
X11835543Y-16492914D01*
X11864114Y-16507200D01*
X11878400Y-16521486D01*
X11892686Y-16550057D01*
X11906971Y-16607200D01*
X11906971Y-16678629D01*
X11892686Y-16735771D01*
X11878400Y-16764343D01*
X11864114Y-16778629D01*
X11835543Y-16792914D01*
X11806971Y-16792914D01*
X11778400Y-16778629D01*
X11764114Y-16764343D01*
X11749828Y-16735771D01*
X11735543Y-16678629D01*
X11735543Y-16607200D01*
X11749828Y-16550057D01*
X11764114Y-16521486D01*
X11778400Y-16507200D01*
X11806971Y-16492914D01*
X12164114Y-16492914D02*
X12106971Y-16492914D01*
X12078400Y-16507200D01*
X12064114Y-16521486D01*
X12035543Y-16564343D01*
X12021257Y-16621486D01*
X12021257Y-16735771D01*
X12035543Y-16764343D01*
X12049828Y-16778629D01*
X12078400Y-16792914D01*
X12135543Y-16792914D01*
X12164114Y-16778629D01*
X12178400Y-16764343D01*
X12192686Y-16735771D01*
X12192686Y-16664343D01*
X12178400Y-16635771D01*
X12164114Y-16621486D01*
X12135543Y-16607200D01*
X12078400Y-16607200D01*
X12049828Y-16621486D01*
X12035543Y-16635771D01*
X12021257Y-16664343D01*
X12378400Y-16492914D02*
X12406971Y-16492914D01*
X12435543Y-16507200D01*
X12449828Y-16521486D01*
X12464114Y-16550057D01*
X12478400Y-16607200D01*
X12478400Y-16678629D01*
X12464114Y-16735771D01*
X12449828Y-16764343D01*
X12435543Y-16778629D01*
X12406971Y-16792914D01*
X12378400Y-16792914D01*
X12349828Y-16778629D01*
X12335543Y-16764343D01*
X12321257Y-16735771D01*
X12306971Y-16678629D01*
X12306971Y-16607200D01*
X12321257Y-16550057D01*
X12335543Y-16521486D01*
X12349828Y-16507200D01*
X12378400Y-16492914D01*
X12592686Y-16492914D02*
X12592686Y-16550057D01*
X12706971Y-16492914D02*
X12706971Y-16550057D01*
X13149828Y-16907200D02*
X13135543Y-16892914D01*
X13106971Y-16850057D01*
X13092686Y-16821486D01*
X13078400Y-16778629D01*
X13064114Y-16707200D01*
X13064114Y-16650057D01*
X13078400Y-16578629D01*
X13092686Y-16535771D01*
X13106971Y-16507200D01*
X13135543Y-16464343D01*
X13149828Y-16450057D01*
X13421257Y-16792914D02*
X13249828Y-16792914D01*
X13335543Y-16792914D02*
X13335543Y-16492914D01*
X13306971Y-16535771D01*
X13278400Y-16564343D01*
X13249828Y-16578629D01*
X13592686Y-16621486D02*
X13564114Y-16607200D01*
X13549828Y-16592914D01*
X13535543Y-16564343D01*
X13535543Y-16550057D01*
X13549828Y-16521486D01*
X13564114Y-16507200D01*
X13592686Y-16492914D01*
X13649828Y-16492914D01*
X13678400Y-16507200D01*
X13692686Y-16521486D01*
X13706971Y-16550057D01*
X13706971Y-16564343D01*
X13692686Y-16592914D01*
X13678400Y-16607200D01*
X13649828Y-16621486D01*
X13592686Y-16621486D01*
X13564114Y-16635771D01*
X13549828Y-16650057D01*
X13535543Y-16678629D01*
X13535543Y-16735771D01*
X13549828Y-16764343D01*
X13564114Y-16778629D01*
X13592686Y-16792914D01*
X13649828Y-16792914D01*
X13678400Y-16778629D01*
X13692686Y-16764343D01*
X13706971Y-16735771D01*
X13706971Y-16678629D01*
X13692686Y-16650057D01*
X13678400Y-16635771D01*
X13649828Y-16621486D01*
X14064114Y-16792914D02*
X14064114Y-16492914D01*
X14192686Y-16792914D02*
X14192686Y-16635771D01*
X14178400Y-16607200D01*
X14149828Y-16592914D01*
X14106971Y-16592914D01*
X14078400Y-16607200D01*
X14064114Y-16621486D01*
X14378400Y-16792914D02*
X14349828Y-16778629D01*
X14335543Y-16764343D01*
X14321257Y-16735771D01*
X14321257Y-16650057D01*
X14335543Y-16621486D01*
X14349828Y-16607200D01*
X14378400Y-16592914D01*
X14421257Y-16592914D01*
X14449828Y-16607200D01*
X14464114Y-16621486D01*
X14478400Y-16650057D01*
X14478400Y-16735771D01*
X14464114Y-16764343D01*
X14449828Y-16778629D01*
X14421257Y-16792914D01*
X14378400Y-16792914D01*
X14649828Y-16792914D02*
X14621257Y-16778629D01*
X14606971Y-16750057D01*
X14606971Y-16492914D01*
X14878400Y-16778629D02*
X14849828Y-16792914D01*
X14792686Y-16792914D01*
X14764114Y-16778629D01*
X14749828Y-16750057D01*
X14749828Y-16635771D01*
X14764114Y-16607200D01*
X14792686Y-16592914D01*
X14849828Y-16592914D01*
X14878400Y-16607200D01*
X14892686Y-16635771D01*
X14892686Y-16664343D01*
X14749828Y-16692914D01*
X15006971Y-16778629D02*
X15035543Y-16792914D01*
X15092686Y-16792914D01*
X15121257Y-16778629D01*
X15135543Y-16750057D01*
X15135543Y-16735771D01*
X15121257Y-16707200D01*
X15092686Y-16692914D01*
X15049828Y-16692914D01*
X15021257Y-16678629D01*
X15006971Y-16650057D01*
X15006971Y-16635771D01*
X15021257Y-16607200D01*
X15049828Y-16592914D01*
X15092686Y-16592914D01*
X15121257Y-16607200D01*
X15235543Y-16907200D02*
X15249828Y-16892914D01*
X15278400Y-16850057D01*
X15292686Y-16821486D01*
X15306971Y-16778629D01*
X15321257Y-16707200D01*
X15321257Y-16650057D01*
X15306971Y-16578629D01*
X15292686Y-16535771D01*
X15278400Y-16507200D01*
X15249828Y-16464343D01*
X15235543Y-16450057D01*
X8387200Y-16977000D02*
X8387200Y-17129400D01*
X8311000Y-17053200D02*
X8463400Y-17053200D01*
X8463400Y-17053200D02*
G75*
G03*
X8463400Y-17053200I-76200J0D01*
G01*
X8906971Y-17188914D02*
X8735543Y-17188914D01*
X8821257Y-17188914D02*
X8821257Y-16888914D01*
X8792686Y-16931772D01*
X8764114Y-16960343D01*
X8735543Y-16974629D01*
X9035543Y-17160343D02*
X9049828Y-17174629D01*
X9035543Y-17188914D01*
X9021257Y-17174629D01*
X9035543Y-17160343D01*
X9035543Y-17188914D01*
X9321257Y-16888914D02*
X9178400Y-16888914D01*
X9164114Y-17031772D01*
X9178400Y-17017486D01*
X9206971Y-17003200D01*
X9278400Y-17003200D01*
X9306971Y-17017486D01*
X9321257Y-17031772D01*
X9335543Y-17060343D01*
X9335543Y-17131772D01*
X9321257Y-17160343D01*
X9306971Y-17174629D01*
X9278400Y-17188914D01*
X9206971Y-17188914D01*
X9178400Y-17174629D01*
X9164114Y-17160343D01*
X9449828Y-16917486D02*
X9464114Y-16903200D01*
X9492686Y-16888914D01*
X9564114Y-16888914D01*
X9592686Y-16903200D01*
X9606971Y-16917486D01*
X9621257Y-16946057D01*
X9621257Y-16974629D01*
X9606971Y-17017486D01*
X9435543Y-17188914D01*
X9621257Y-17188914D01*
X9749828Y-17188914D02*
X9749828Y-16988914D01*
X9749828Y-17017486D02*
X9764114Y-17003200D01*
X9792686Y-16988914D01*
X9835543Y-16988914D01*
X9864114Y-17003200D01*
X9878400Y-17031772D01*
X9878400Y-17188914D01*
X9878400Y-17031772D02*
X9892686Y-17003200D01*
X9921257Y-16988914D01*
X9964114Y-16988914D01*
X9992686Y-17003200D01*
X10006971Y-17031772D01*
X10006971Y-17188914D01*
X10149828Y-17188914D02*
X10149828Y-16988914D01*
X10149828Y-17017486D02*
X10164114Y-17003200D01*
X10192686Y-16988914D01*
X10235543Y-16988914D01*
X10264114Y-17003200D01*
X10278400Y-17031772D01*
X10278400Y-17188914D01*
X10278400Y-17031772D02*
X10292686Y-17003200D01*
X10321257Y-16988914D01*
X10364114Y-16988914D01*
X10392686Y-17003200D01*
X10406971Y-17031772D01*
X10406971Y-17188914D01*
X10992686Y-16874629D02*
X10735543Y-17260343D01*
X11378400Y-16888914D02*
X11406971Y-16888914D01*
X11435543Y-16903200D01*
X11449828Y-16917486D01*
X11464114Y-16946057D01*
X11478400Y-17003200D01*
X11478400Y-17074629D01*
X11464114Y-17131772D01*
X11449828Y-17160343D01*
X11435543Y-17174629D01*
X11406971Y-17188914D01*
X11378400Y-17188914D01*
X11349828Y-17174629D01*
X11335543Y-17160343D01*
X11321257Y-17131772D01*
X11306971Y-17074629D01*
X11306971Y-17003200D01*
X11321257Y-16946057D01*
X11335543Y-16917486D01*
X11349828Y-16903200D01*
X11378400Y-16888914D01*
X11606971Y-17160343D02*
X11621257Y-17174629D01*
X11606971Y-17188914D01*
X11592686Y-17174629D01*
X11606971Y-17160343D01*
X11606971Y-17188914D01*
X11806971Y-16888914D02*
X11835543Y-16888914D01*
X11864114Y-16903200D01*
X11878400Y-16917486D01*
X11892686Y-16946057D01*
X11906971Y-17003200D01*
X11906971Y-17074629D01*
X11892686Y-17131772D01*
X11878400Y-17160343D01*
X11864114Y-17174629D01*
X11835543Y-17188914D01*
X11806971Y-17188914D01*
X11778400Y-17174629D01*
X11764114Y-17160343D01*
X11749828Y-17131772D01*
X11735543Y-17074629D01*
X11735543Y-17003200D01*
X11749828Y-16946057D01*
X11764114Y-16917486D01*
X11778400Y-16903200D01*
X11806971Y-16888914D01*
X12164114Y-16888914D02*
X12106971Y-16888914D01*
X12078400Y-16903200D01*
X12064114Y-16917486D01*
X12035543Y-16960343D01*
X12021257Y-17017486D01*
X12021257Y-17131772D01*
X12035543Y-17160343D01*
X12049828Y-17174629D01*
X12078400Y-17188914D01*
X12135543Y-17188914D01*
X12164114Y-17174629D01*
X12178400Y-17160343D01*
X12192686Y-17131772D01*
X12192686Y-17060343D01*
X12178400Y-17031772D01*
X12164114Y-17017486D01*
X12135543Y-17003200D01*
X12078400Y-17003200D01*
X12049828Y-17017486D01*
X12035543Y-17031772D01*
X12021257Y-17060343D01*
X12378400Y-16888914D02*
X12406971Y-16888914D01*
X12435543Y-16903200D01*
X12449828Y-16917486D01*
X12464114Y-16946057D01*
X12478400Y-17003200D01*
X12478400Y-17074629D01*
X12464114Y-17131772D01*
X12449828Y-17160343D01*
X12435543Y-17174629D01*
X12406971Y-17188914D01*
X12378400Y-17188914D01*
X12349828Y-17174629D01*
X12335543Y-17160343D01*
X12321257Y-17131772D01*
X12306971Y-17074629D01*
X12306971Y-17003200D01*
X12321257Y-16946057D01*
X12335543Y-16917486D01*
X12349828Y-16903200D01*
X12378400Y-16888914D01*
X12592686Y-16888914D02*
X12592686Y-16946057D01*
X12706971Y-16888914D02*
X12706971Y-16946057D01*
X13149828Y-17303200D02*
X13135543Y-17288914D01*
X13106971Y-17246057D01*
X13092686Y-17217486D01*
X13078400Y-17174629D01*
X13064114Y-17103200D01*
X13064114Y-17046057D01*
X13078400Y-16974629D01*
X13092686Y-16931772D01*
X13106971Y-16903200D01*
X13135543Y-16860343D01*
X13149828Y-16846057D01*
X13249828Y-16917486D02*
X13264114Y-16903200D01*
X13292686Y-16888914D01*
X13364114Y-16888914D01*
X13392686Y-16903200D01*
X13406971Y-16917486D01*
X13421257Y-16946057D01*
X13421257Y-16974629D01*
X13406971Y-17017486D01*
X13235543Y-17188914D01*
X13421257Y-17188914D01*
X13778400Y-17188914D02*
X13778400Y-16888914D01*
X13906971Y-17188914D02*
X13906971Y-17031772D01*
X13892686Y-17003200D01*
X13864114Y-16988914D01*
X13821257Y-16988914D01*
X13792686Y-17003200D01*
X13778400Y-17017486D01*
X14092686Y-17188914D02*
X14064114Y-17174629D01*
X14049828Y-17160343D01*
X14035543Y-17131772D01*
X14035543Y-17046057D01*
X14049828Y-17017486D01*
X14064114Y-17003200D01*
X14092686Y-16988914D01*
X14135543Y-16988914D01*
X14164114Y-17003200D01*
X14178400Y-17017486D01*
X14192686Y-17046057D01*
X14192686Y-17131772D01*
X14178400Y-17160343D01*
X14164114Y-17174629D01*
X14135543Y-17188914D01*
X14092686Y-17188914D01*
X14364114Y-17188914D02*
X14335543Y-17174629D01*
X14321257Y-17146057D01*
X14321257Y-16888914D01*
X14592686Y-17174629D02*
X14564114Y-17188914D01*
X14506971Y-17188914D01*
X14478400Y-17174629D01*
X14464114Y-17146057D01*
X14464114Y-17031772D01*
X14478400Y-17003200D01*
X14506971Y-16988914D01*
X14564114Y-16988914D01*
X14592686Y-17003200D01*
X14606971Y-17031772D01*
X14606971Y-17060343D01*
X14464114Y-17088914D01*
X14721257Y-17174629D02*
X14749828Y-17188914D01*
X14806971Y-17188914D01*
X14835543Y-17174629D01*
X14849828Y-17146057D01*
X14849828Y-17131772D01*
X14835543Y-17103200D01*
X14806971Y-17088914D01*
X14764114Y-17088914D01*
X14735543Y-17074629D01*
X14721257Y-17046057D01*
X14721257Y-17031772D01*
X14735543Y-17003200D01*
X14764114Y-16988914D01*
X14806971Y-16988914D01*
X14835543Y-17003200D01*
X14949828Y-17303200D02*
X14964114Y-17288914D01*
X14992686Y-17246057D01*
X15006971Y-17217486D01*
X15021257Y-17174629D01*
X15035543Y-17103200D01*
X15035543Y-17046057D01*
X15021257Y-16974629D01*
X15006971Y-16931772D01*
X14992686Y-16903200D01*
X14964114Y-16860343D01*
X14949828Y-16846057D01*
X8416538Y-17562338D02*
X8416538Y-17336062D01*
X8190262Y-17336062D01*
X8190262Y-17562338D01*
X8416538Y-17562338D01*
X8463400Y-17449200D02*
G75*
G03*
X8463400Y-17449200I-160000J0D01*
G01*
X8721257Y-17284914D02*
X8906971Y-17284914D01*
X8806971Y-17399200D01*
X8849828Y-17399200D01*
X8878400Y-17413486D01*
X8892686Y-17427772D01*
X8906971Y-17456343D01*
X8906971Y-17527772D01*
X8892686Y-17556343D01*
X8878400Y-17570629D01*
X8849828Y-17584914D01*
X8764114Y-17584914D01*
X8735543Y-17570629D01*
X8721257Y-17556343D01*
X9035543Y-17556343D02*
X9049828Y-17570629D01*
X9035543Y-17584914D01*
X9021257Y-17570629D01*
X9035543Y-17556343D01*
X9035543Y-17584914D01*
X9164114Y-17313486D02*
X9178400Y-17299200D01*
X9206971Y-17284914D01*
X9278400Y-17284914D01*
X9306971Y-17299200D01*
X9321257Y-17313486D01*
X9335543Y-17342057D01*
X9335543Y-17370629D01*
X9321257Y-17413486D01*
X9149828Y-17584914D01*
X9335543Y-17584914D01*
X9521257Y-17284914D02*
X9549828Y-17284914D01*
X9578400Y-17299200D01*
X9592686Y-17313486D01*
X9606971Y-17342057D01*
X9621257Y-17399200D01*
X9621257Y-17470629D01*
X9606971Y-17527772D01*
X9592686Y-17556343D01*
X9578400Y-17570629D01*
X9549828Y-17584914D01*
X9521257Y-17584914D01*
X9492686Y-17570629D01*
X9478400Y-17556343D01*
X9464114Y-17527772D01*
X9449828Y-17470629D01*
X9449828Y-17399200D01*
X9464114Y-17342057D01*
X9478400Y-17313486D01*
X9492686Y-17299200D01*
X9521257Y-17284914D01*
X9749828Y-17584914D02*
X9749828Y-17384914D01*
X9749828Y-17413486D02*
X9764114Y-17399200D01*
X9792686Y-17384914D01*
X9835543Y-17384914D01*
X9864114Y-17399200D01*
X9878400Y-17427772D01*
X9878400Y-17584914D01*
X9878400Y-17427772D02*
X9892686Y-17399200D01*
X9921257Y-17384914D01*
X9964114Y-17384914D01*
X9992686Y-17399200D01*
X10006971Y-17427772D01*
X10006971Y-17584914D01*
X10149828Y-17584914D02*
X10149828Y-17384914D01*
X10149828Y-17413486D02*
X10164114Y-17399200D01*
X10192686Y-17384914D01*
X10235543Y-17384914D01*
X10264114Y-17399200D01*
X10278400Y-17427772D01*
X10278400Y-17584914D01*
X10278400Y-17427772D02*
X10292686Y-17399200D01*
X10321257Y-17384914D01*
X10364114Y-17384914D01*
X10392686Y-17399200D01*
X10406971Y-17427772D01*
X10406971Y-17584914D01*
X10992686Y-17270629D02*
X10735543Y-17656343D01*
X11378400Y-17284914D02*
X11406971Y-17284914D01*
X11435543Y-17299200D01*
X11449828Y-17313486D01*
X11464114Y-17342057D01*
X11478400Y-17399200D01*
X11478400Y-17470629D01*
X11464114Y-17527772D01*
X11449828Y-17556343D01*
X11435543Y-17570629D01*
X11406971Y-17584914D01*
X11378400Y-17584914D01*
X11349828Y-17570629D01*
X11335543Y-17556343D01*
X11321257Y-17527772D01*
X11306971Y-17470629D01*
X11306971Y-17399200D01*
X11321257Y-17342057D01*
X11335543Y-17313486D01*
X11349828Y-17299200D01*
X11378400Y-17284914D01*
X11606971Y-17556343D02*
X11621257Y-17570629D01*
X11606971Y-17584914D01*
X11592686Y-17570629D01*
X11606971Y-17556343D01*
X11606971Y-17584914D01*
X11906971Y-17584914D02*
X11735543Y-17584914D01*
X11821257Y-17584914D02*
X11821257Y-17284914D01*
X11792686Y-17327772D01*
X11764114Y-17356343D01*
X11735543Y-17370629D01*
X12021257Y-17313486D02*
X12035543Y-17299200D01*
X12064114Y-17284914D01*
X12135543Y-17284914D01*
X12164114Y-17299200D01*
X12178400Y-17313486D01*
X12192686Y-17342057D01*
X12192686Y-17370629D01*
X12178400Y-17413486D01*
X12006971Y-17584914D01*
X12192686Y-17584914D01*
X12449828Y-17284914D02*
X12392686Y-17284914D01*
X12364114Y-17299200D01*
X12349828Y-17313486D01*
X12321257Y-17356343D01*
X12306971Y-17413486D01*
X12306971Y-17527772D01*
X12321257Y-17556343D01*
X12335543Y-17570629D01*
X12364114Y-17584914D01*
X12421257Y-17584914D01*
X12449828Y-17570629D01*
X12464114Y-17556343D01*
X12478400Y-17527772D01*
X12478400Y-17456343D01*
X12464114Y-17427772D01*
X12449828Y-17413486D01*
X12421257Y-17399200D01*
X12364114Y-17399200D01*
X12335543Y-17413486D01*
X12321257Y-17427772D01*
X12306971Y-17456343D01*
X12592686Y-17284914D02*
X12592686Y-17342057D01*
X12706971Y-17284914D02*
X12706971Y-17342057D01*
X13149828Y-17699200D02*
X13135543Y-17684914D01*
X13106971Y-17642057D01*
X13092686Y-17613486D01*
X13078400Y-17570629D01*
X13064114Y-17499200D01*
X13064114Y-17442057D01*
X13078400Y-17370629D01*
X13092686Y-17327772D01*
X13106971Y-17299200D01*
X13135543Y-17256343D01*
X13149828Y-17242057D01*
X13392686Y-17284914D02*
X13335543Y-17284914D01*
X13306971Y-17299200D01*
X13292686Y-17313486D01*
X13264114Y-17356343D01*
X13249828Y-17413486D01*
X13249828Y-17527772D01*
X13264114Y-17556343D01*
X13278400Y-17570629D01*
X13306971Y-17584914D01*
X13364114Y-17584914D01*
X13392686Y-17570629D01*
X13406971Y-17556343D01*
X13421257Y-17527772D01*
X13421257Y-17456343D01*
X13406971Y-17427772D01*
X13392686Y-17413486D01*
X13364114Y-17399200D01*
X13306971Y-17399200D01*
X13278400Y-17413486D01*
X13264114Y-17427772D01*
X13249828Y-17456343D01*
X13778400Y-17584914D02*
X13778400Y-17284914D01*
X13906971Y-17584914D02*
X13906971Y-17427772D01*
X13892686Y-17399200D01*
X13864114Y-17384914D01*
X13821257Y-17384914D01*
X13792686Y-17399200D01*
X13778400Y-17413486D01*
X14092686Y-17584914D02*
X14064114Y-17570629D01*
X14049828Y-17556343D01*
X14035543Y-17527772D01*
X14035543Y-17442057D01*
X14049828Y-17413486D01*
X14064114Y-17399200D01*
X14092686Y-17384914D01*
X14135543Y-17384914D01*
X14164114Y-17399200D01*
X14178400Y-17413486D01*
X14192686Y-17442057D01*
X14192686Y-17527772D01*
X14178400Y-17556343D01*
X14164114Y-17570629D01*
X14135543Y-17584914D01*
X14092686Y-17584914D01*
X14364114Y-17584914D02*
X14335543Y-17570629D01*
X14321257Y-17542057D01*
X14321257Y-17284914D01*
X14592686Y-17570629D02*
X14564114Y-17584914D01*
X14506971Y-17584914D01*
X14478400Y-17570629D01*
X14464114Y-17542057D01*
X14464114Y-17427772D01*
X14478400Y-17399200D01*
X14506971Y-17384914D01*
X14564114Y-17384914D01*
X14592686Y-17399200D01*
X14606971Y-17427772D01*
X14606971Y-17456343D01*
X14464114Y-17484914D01*
X14721257Y-17570629D02*
X14749828Y-17584914D01*
X14806971Y-17584914D01*
X14835543Y-17570629D01*
X14849828Y-17542057D01*
X14849828Y-17527772D01*
X14835543Y-17499200D01*
X14806971Y-17484914D01*
X14764114Y-17484914D01*
X14735543Y-17470629D01*
X14721257Y-17442057D01*
X14721257Y-17427772D01*
X14735543Y-17399200D01*
X14764114Y-17384914D01*
X14806971Y-17384914D01*
X14835543Y-17399200D01*
X14949828Y-17699200D02*
X14964114Y-17684914D01*
X14992686Y-17642057D01*
X15006971Y-17613486D01*
X15021257Y-17570629D01*
X15035543Y-17499200D01*
X15035543Y-17442057D01*
X15021257Y-17370629D01*
X15006971Y-17327772D01*
X14992686Y-17299200D01*
X14964114Y-17256343D01*
X14949828Y-17242057D01*
M02*
