%FSLAX45Y45*%
G04 Gerber Fmt 4.5, Leading zero omitted, Abs format (unit mm)*
G04 Created by KiCad (PCBNEW (5.1.9)-1) date 2021-07-22 19:31:06*
%MOMM*%
%LPD*%
G01*
G04 APERTURE LIST*
%TA.AperFunction,Profile*%
%ADD10C,0.150000*%
%TD*%
%ADD11C,0.200000*%
%ADD12C,0.300000*%
G04 APERTURE END LIST*
D10*
X21285200Y-6121700D02*
X8470900Y-6121700D01*
X21285200Y-12521700D02*
X21285200Y-6121700D01*
X8470900Y-12521700D02*
X21285200Y-12521700D01*
X8470900Y-6121700D02*
X8470900Y-12521700D01*
D11*
D12*
X8749828Y-12994914D02*
X8749828Y-12694914D01*
X8821257Y-12694914D01*
X8864114Y-12709200D01*
X8892686Y-12737771D01*
X8906971Y-12766343D01*
X8921257Y-12823486D01*
X8921257Y-12866343D01*
X8906971Y-12923486D01*
X8892686Y-12952057D01*
X8864114Y-12980629D01*
X8821257Y-12994914D01*
X8749828Y-12994914D01*
X9049828Y-12994914D02*
X9049828Y-12794914D01*
X9049828Y-12852057D02*
X9064114Y-12823486D01*
X9078400Y-12809200D01*
X9106971Y-12794914D01*
X9135543Y-12794914D01*
X9235543Y-12994914D02*
X9235543Y-12794914D01*
X9235543Y-12694914D02*
X9221257Y-12709200D01*
X9235543Y-12723486D01*
X9249828Y-12709200D01*
X9235543Y-12694914D01*
X9235543Y-12723486D01*
X9421257Y-12994914D02*
X9392686Y-12980629D01*
X9378400Y-12952057D01*
X9378400Y-12694914D01*
X9578400Y-12994914D02*
X9549828Y-12980629D01*
X9535543Y-12952057D01*
X9535543Y-12694914D01*
X9921257Y-12994914D02*
X9921257Y-12694914D01*
X10021257Y-12909200D01*
X10121257Y-12694914D01*
X10121257Y-12994914D01*
X10392686Y-12994914D02*
X10392686Y-12837771D01*
X10378400Y-12809200D01*
X10349828Y-12794914D01*
X10292686Y-12794914D01*
X10264114Y-12809200D01*
X10392686Y-12980629D02*
X10364114Y-12994914D01*
X10292686Y-12994914D01*
X10264114Y-12980629D01*
X10249828Y-12952057D01*
X10249828Y-12923486D01*
X10264114Y-12894914D01*
X10292686Y-12880629D01*
X10364114Y-12880629D01*
X10392686Y-12866343D01*
X10535543Y-12794914D02*
X10535543Y-13094914D01*
X10535543Y-12809200D02*
X10564114Y-12794914D01*
X10621257Y-12794914D01*
X10649828Y-12809200D01*
X10664114Y-12823486D01*
X10678400Y-12852057D01*
X10678400Y-12937771D01*
X10664114Y-12966343D01*
X10649828Y-12980629D01*
X10621257Y-12994914D01*
X10564114Y-12994914D01*
X10535543Y-12980629D01*
X10806971Y-12966343D02*
X10821257Y-12980629D01*
X10806971Y-12994914D01*
X10792686Y-12980629D01*
X10806971Y-12966343D01*
X10806971Y-12994914D01*
X10806971Y-12809200D02*
X10821257Y-12823486D01*
X10806971Y-12837771D01*
X10792686Y-12823486D01*
X10806971Y-12809200D01*
X10806971Y-12837771D01*
M02*
