%TF.GenerationSoftware,KiCad,Pcbnew,(5.1.9)-1*%
%TF.CreationDate,2021-05-21T09:57:04+02:00*%
%TF.ProjectId,Ardumower,41726475-6d6f-4776-9572-2e6b69636164,rev?*%
%TF.SameCoordinates,Original*%
%TF.FileFunction,Copper,L2,Bot*%
%TF.FilePolarity,Positive*%
%FSLAX46Y46*%
G04 Gerber Fmt 4.6, Leading zero omitted, Abs format (unit mm)*
G04 Created by KiCad (PCBNEW (5.1.9)-1) date 2021-05-21 09:57:04*
%MOMM*%
%LPD*%
G01*
G04 APERTURE LIST*
%ADD10C,0.100000*%
%ADD11C,0.150000*%
%ADD12C,0.300000*%
%ADD13C,0.400000*%
%TA.AperFunction,ComponentPad*%
%ADD14O,1.950000X1.700000*%
%TD*%
%TA.AperFunction,ComponentPad*%
%ADD15O,1.700000X1.950000*%
%TD*%
%TA.AperFunction,ComponentPad*%
%ADD16O,2.000000X1.700000*%
%TD*%
%TA.AperFunction,ComponentPad*%
%ADD17O,1.600000X1.600000*%
%TD*%
%TA.AperFunction,ComponentPad*%
%ADD18C,1.600000*%
%TD*%
%TA.AperFunction,ComponentPad*%
%ADD19O,1.700000X1.700000*%
%TD*%
%TA.AperFunction,ComponentPad*%
%ADD20R,1.700000X1.700000*%
%TD*%
%TA.AperFunction,ConnectorPad*%
%ADD21C,4.400000*%
%TD*%
%TA.AperFunction,ComponentPad*%
%ADD22C,2.600000*%
%TD*%
%TA.AperFunction,ComponentPad*%
%ADD23C,2.000000*%
%TD*%
%TA.AperFunction,ComponentPad*%
%ADD24C,1.524000*%
%TD*%
%TA.AperFunction,ComponentPad*%
%ADD25C,3.000000*%
%TD*%
%TA.AperFunction,ComponentPad*%
%ADD26R,3.000000X3.000000*%
%TD*%
%TA.AperFunction,ComponentPad*%
%ADD27O,2.200000X2.200000*%
%TD*%
%TA.AperFunction,ComponentPad*%
%ADD28R,2.200000X2.200000*%
%TD*%
%TA.AperFunction,ComponentPad*%
%ADD29C,1.800000*%
%TD*%
%TA.AperFunction,ComponentPad*%
%ADD30R,1.800000X1.800000*%
%TD*%
%TA.AperFunction,ComponentPad*%
%ADD31O,1.727200X1.727200*%
%TD*%
%TA.AperFunction,ComponentPad*%
%ADD32R,1.600000X1.600000*%
%TD*%
%TA.AperFunction,ViaPad*%
%ADD33C,0.889000*%
%TD*%
%TA.AperFunction,Conductor*%
%ADD34C,0.254000*%
%TD*%
%TA.AperFunction,Conductor*%
%ADD35C,0.500000*%
%TD*%
%TA.AperFunction,Conductor*%
%ADD36C,0.354000*%
%TD*%
G04 APERTURE END LIST*
D10*
D11*
X177002200Y-166007200D02*
X177002200Y-198007200D01*
X285002200Y-198007200D01*
X285002200Y-166007200D01*
X177002200Y-166007200D01*
D10*
D11*
X10000000Y-10000000D02*
X10000000Y-200007200D01*
X287002200Y-200007200D01*
X287002200Y-10000000D01*
X10000000Y-10000000D01*
D10*
D11*
X12000000Y-12000000D02*
X12000000Y-198007200D01*
X285002200Y-198007200D01*
X285002200Y-12000000D01*
X12000000Y-12000000D01*
D10*
D11*
X60000000Y-12000000D02*
X60000000Y-10000000D01*
D10*
D11*
X110000000Y-12000000D02*
X110000000Y-10000000D01*
D10*
D11*
X160000000Y-12000000D02*
X160000000Y-10000000D01*
D10*
D11*
X210000000Y-12000000D02*
X210000000Y-10000000D01*
D10*
D11*
X260000000Y-12000000D02*
X260000000Y-10000000D01*
D10*
D11*
X36065476Y-11588095D02*
X35322619Y-11588095D01*
X35694047Y-11588095D02*
X35694047Y-10288095D01*
X35570238Y-10473809D01*
X35446428Y-10597619D01*
X35322619Y-10659523D01*
D10*
D11*
X85322619Y-10411904D02*
X85384523Y-10350000D01*
X85508333Y-10288095D01*
X85817857Y-10288095D01*
X85941666Y-10350000D01*
X86003571Y-10411904D01*
X86065476Y-10535714D01*
X86065476Y-10659523D01*
X86003571Y-10845238D01*
X85260714Y-11588095D01*
X86065476Y-11588095D01*
D10*
D11*
X135260714Y-10288095D02*
X136065476Y-10288095D01*
X135632142Y-10783333D01*
X135817857Y-10783333D01*
X135941666Y-10845238D01*
X136003571Y-10907142D01*
X136065476Y-11030952D01*
X136065476Y-11340476D01*
X136003571Y-11464285D01*
X135941666Y-11526190D01*
X135817857Y-11588095D01*
X135446428Y-11588095D01*
X135322619Y-11526190D01*
X135260714Y-11464285D01*
D10*
D11*
X185941666Y-10721428D02*
X185941666Y-11588095D01*
X185632142Y-10226190D02*
X185322619Y-11154761D01*
X186127380Y-11154761D01*
D10*
D11*
X236003571Y-10288095D02*
X235384523Y-10288095D01*
X235322619Y-10907142D01*
X235384523Y-10845238D01*
X235508333Y-10783333D01*
X235817857Y-10783333D01*
X235941666Y-10845238D01*
X236003571Y-10907142D01*
X236065476Y-11030952D01*
X236065476Y-11340476D01*
X236003571Y-11464285D01*
X235941666Y-11526190D01*
X235817857Y-11588095D01*
X235508333Y-11588095D01*
X235384523Y-11526190D01*
X235322619Y-11464285D01*
D10*
D11*
X285941666Y-10288095D02*
X285694047Y-10288095D01*
X285570238Y-10350000D01*
X285508333Y-10411904D01*
X285384523Y-10597619D01*
X285322619Y-10845238D01*
X285322619Y-11340476D01*
X285384523Y-11464285D01*
X285446428Y-11526190D01*
X285570238Y-11588095D01*
X285817857Y-11588095D01*
X285941666Y-11526190D01*
X286003571Y-11464285D01*
X286065476Y-11340476D01*
X286065476Y-11030952D01*
X286003571Y-10907142D01*
X285941666Y-10845238D01*
X285817857Y-10783333D01*
X285570238Y-10783333D01*
X285446428Y-10845238D01*
X285384523Y-10907142D01*
X285322619Y-11030952D01*
D10*
D11*
X60000000Y-198007200D02*
X60000000Y-200007200D01*
D10*
D11*
X110000000Y-198007200D02*
X110000000Y-200007200D01*
D10*
D11*
X160000000Y-198007200D02*
X160000000Y-200007200D01*
D10*
D11*
X210000000Y-198007200D02*
X210000000Y-200007200D01*
D10*
D11*
X260000000Y-198007200D02*
X260000000Y-200007200D01*
D10*
D11*
X36065476Y-199595295D02*
X35322619Y-199595295D01*
X35694047Y-199595295D02*
X35694047Y-198295295D01*
X35570238Y-198481009D01*
X35446428Y-198604819D01*
X35322619Y-198666723D01*
D10*
D11*
X85322619Y-198419104D02*
X85384523Y-198357200D01*
X85508333Y-198295295D01*
X85817857Y-198295295D01*
X85941666Y-198357200D01*
X86003571Y-198419104D01*
X86065476Y-198542914D01*
X86065476Y-198666723D01*
X86003571Y-198852438D01*
X85260714Y-199595295D01*
X86065476Y-199595295D01*
D10*
D11*
X135260714Y-198295295D02*
X136065476Y-198295295D01*
X135632142Y-198790533D01*
X135817857Y-198790533D01*
X135941666Y-198852438D01*
X136003571Y-198914342D01*
X136065476Y-199038152D01*
X136065476Y-199347676D01*
X136003571Y-199471485D01*
X135941666Y-199533390D01*
X135817857Y-199595295D01*
X135446428Y-199595295D01*
X135322619Y-199533390D01*
X135260714Y-199471485D01*
D10*
D11*
X185941666Y-198728628D02*
X185941666Y-199595295D01*
X185632142Y-198233390D02*
X185322619Y-199161961D01*
X186127380Y-199161961D01*
D10*
D11*
X236003571Y-198295295D02*
X235384523Y-198295295D01*
X235322619Y-198914342D01*
X235384523Y-198852438D01*
X235508333Y-198790533D01*
X235817857Y-198790533D01*
X235941666Y-198852438D01*
X236003571Y-198914342D01*
X236065476Y-199038152D01*
X236065476Y-199347676D01*
X236003571Y-199471485D01*
X235941666Y-199533390D01*
X235817857Y-199595295D01*
X235508333Y-199595295D01*
X235384523Y-199533390D01*
X235322619Y-199471485D01*
D10*
D11*
X285941666Y-198295295D02*
X285694047Y-198295295D01*
X285570238Y-198357200D01*
X285508333Y-198419104D01*
X285384523Y-198604819D01*
X285322619Y-198852438D01*
X285322619Y-199347676D01*
X285384523Y-199471485D01*
X285446428Y-199533390D01*
X285570238Y-199595295D01*
X285817857Y-199595295D01*
X285941666Y-199533390D01*
X286003571Y-199471485D01*
X286065476Y-199347676D01*
X286065476Y-199038152D01*
X286003571Y-198914342D01*
X285941666Y-198852438D01*
X285817857Y-198790533D01*
X285570238Y-198790533D01*
X285446428Y-198852438D01*
X285384523Y-198914342D01*
X285322619Y-199038152D01*
D10*
D11*
X10000000Y-60000000D02*
X12000000Y-60000000D01*
D10*
D11*
X10000000Y-110000000D02*
X12000000Y-110000000D01*
D10*
D11*
X10000000Y-160000000D02*
X12000000Y-160000000D01*
D10*
D11*
X10690476Y-35216666D02*
X11309523Y-35216666D01*
X10566666Y-35588095D02*
X11000000Y-34288095D01*
X11433333Y-35588095D01*
D10*
D11*
X11092857Y-84907142D02*
X11278571Y-84969047D01*
X11340476Y-85030952D01*
X11402380Y-85154761D01*
X11402380Y-85340476D01*
X11340476Y-85464285D01*
X11278571Y-85526190D01*
X11154761Y-85588095D01*
X10659523Y-85588095D01*
X10659523Y-84288095D01*
X11092857Y-84288095D01*
X11216666Y-84350000D01*
X11278571Y-84411904D01*
X11340476Y-84535714D01*
X11340476Y-84659523D01*
X11278571Y-84783333D01*
X11216666Y-84845238D01*
X11092857Y-84907142D01*
X10659523Y-84907142D01*
D10*
D11*
X11402380Y-135464285D02*
X11340476Y-135526190D01*
X11154761Y-135588095D01*
X11030952Y-135588095D01*
X10845238Y-135526190D01*
X10721428Y-135402380D01*
X10659523Y-135278571D01*
X10597619Y-135030952D01*
X10597619Y-134845238D01*
X10659523Y-134597619D01*
X10721428Y-134473809D01*
X10845238Y-134350000D01*
X11030952Y-134288095D01*
X11154761Y-134288095D01*
X11340476Y-134350000D01*
X11402380Y-134411904D01*
D10*
D11*
X10659523Y-185588095D02*
X10659523Y-184288095D01*
X10969047Y-184288095D01*
X11154761Y-184350000D01*
X11278571Y-184473809D01*
X11340476Y-184597619D01*
X11402380Y-184845238D01*
X11402380Y-185030952D01*
X11340476Y-185278571D01*
X11278571Y-185402380D01*
X11154761Y-185526190D01*
X10969047Y-185588095D01*
X10659523Y-185588095D01*
D10*
D11*
X287002200Y-60000000D02*
X285002200Y-60000000D01*
D10*
D11*
X287002200Y-110000000D02*
X285002200Y-110000000D01*
D10*
D11*
X287002200Y-160000000D02*
X285002200Y-160000000D01*
D10*
D11*
X285692676Y-35216666D02*
X286311723Y-35216666D01*
X285568866Y-35588095D02*
X286002200Y-34288095D01*
X286435533Y-35588095D01*
D10*
D11*
X286095057Y-84907142D02*
X286280771Y-84969047D01*
X286342676Y-85030952D01*
X286404580Y-85154761D01*
X286404580Y-85340476D01*
X286342676Y-85464285D01*
X286280771Y-85526190D01*
X286156961Y-85588095D01*
X285661723Y-85588095D01*
X285661723Y-84288095D01*
X286095057Y-84288095D01*
X286218866Y-84350000D01*
X286280771Y-84411904D01*
X286342676Y-84535714D01*
X286342676Y-84659523D01*
X286280771Y-84783333D01*
X286218866Y-84845238D01*
X286095057Y-84907142D01*
X285661723Y-84907142D01*
D10*
D11*
X286404580Y-135464285D02*
X286342676Y-135526190D01*
X286156961Y-135588095D01*
X286033152Y-135588095D01*
X285847438Y-135526190D01*
X285723628Y-135402380D01*
X285661723Y-135278571D01*
X285599819Y-135030952D01*
X285599819Y-134845238D01*
X285661723Y-134597619D01*
X285723628Y-134473809D01*
X285847438Y-134350000D01*
X286033152Y-134288095D01*
X286156961Y-134288095D01*
X286342676Y-134350000D01*
X286404580Y-134411904D01*
D10*
D11*
X285661723Y-185588095D02*
X285661723Y-184288095D01*
X285971247Y-184288095D01*
X286156961Y-184350000D01*
X286280771Y-184473809D01*
X286342676Y-184597619D01*
X286404580Y-184845238D01*
X286404580Y-185030952D01*
X286342676Y-185278571D01*
X286280771Y-185402380D01*
X286156961Y-185526190D01*
X285971247Y-185588095D01*
X285661723Y-185588095D01*
D10*
D11*
X200434342Y-193785771D02*
X200434342Y-192285771D01*
X200791485Y-192285771D01*
X201005771Y-192357200D01*
X201148628Y-192500057D01*
X201220057Y-192642914D01*
X201291485Y-192928628D01*
X201291485Y-193142914D01*
X201220057Y-193428628D01*
X201148628Y-193571485D01*
X201005771Y-193714342D01*
X200791485Y-193785771D01*
X200434342Y-193785771D01*
X202577200Y-193785771D02*
X202577200Y-193000057D01*
X202505771Y-192857200D01*
X202362914Y-192785771D01*
X202077200Y-192785771D01*
X201934342Y-192857200D01*
X202577200Y-193714342D02*
X202434342Y-193785771D01*
X202077200Y-193785771D01*
X201934342Y-193714342D01*
X201862914Y-193571485D01*
X201862914Y-193428628D01*
X201934342Y-193285771D01*
X202077200Y-193214342D01*
X202434342Y-193214342D01*
X202577200Y-193142914D01*
X203077200Y-192785771D02*
X203648628Y-192785771D01*
X203291485Y-192285771D02*
X203291485Y-193571485D01*
X203362914Y-193714342D01*
X203505771Y-193785771D01*
X203648628Y-193785771D01*
X204720057Y-193714342D02*
X204577200Y-193785771D01*
X204291485Y-193785771D01*
X204148628Y-193714342D01*
X204077200Y-193571485D01*
X204077200Y-193000057D01*
X204148628Y-192857200D01*
X204291485Y-192785771D01*
X204577200Y-192785771D01*
X204720057Y-192857200D01*
X204791485Y-193000057D01*
X204791485Y-193142914D01*
X204077200Y-193285771D01*
X205434342Y-193642914D02*
X205505771Y-193714342D01*
X205434342Y-193785771D01*
X205362914Y-193714342D01*
X205434342Y-193642914D01*
X205434342Y-193785771D01*
X205434342Y-192857200D02*
X205505771Y-192928628D01*
X205434342Y-193000057D01*
X205362914Y-192928628D01*
X205434342Y-192857200D01*
X205434342Y-193000057D01*
D10*
D11*
X177002200Y-194507200D02*
X285002200Y-194507200D01*
D10*
D11*
X178434342Y-196585771D02*
X178434342Y-195085771D01*
X179291485Y-196585771D02*
X178648628Y-195728628D01*
X179291485Y-195085771D02*
X178434342Y-195942914D01*
X179934342Y-196585771D02*
X179934342Y-195585771D01*
X179934342Y-195085771D02*
X179862914Y-195157200D01*
X179934342Y-195228628D01*
X180005771Y-195157200D01*
X179934342Y-195085771D01*
X179934342Y-195228628D01*
X181505771Y-196442914D02*
X181434342Y-196514342D01*
X181220057Y-196585771D01*
X181077200Y-196585771D01*
X180862914Y-196514342D01*
X180720057Y-196371485D01*
X180648628Y-196228628D01*
X180577200Y-195942914D01*
X180577200Y-195728628D01*
X180648628Y-195442914D01*
X180720057Y-195300057D01*
X180862914Y-195157200D01*
X181077200Y-195085771D01*
X181220057Y-195085771D01*
X181434342Y-195157200D01*
X181505771Y-195228628D01*
X182791485Y-196585771D02*
X182791485Y-195800057D01*
X182720057Y-195657200D01*
X182577200Y-195585771D01*
X182291485Y-195585771D01*
X182148628Y-195657200D01*
X182791485Y-196514342D02*
X182648628Y-196585771D01*
X182291485Y-196585771D01*
X182148628Y-196514342D01*
X182077200Y-196371485D01*
X182077200Y-196228628D01*
X182148628Y-196085771D01*
X182291485Y-196014342D01*
X182648628Y-196014342D01*
X182791485Y-195942914D01*
X184148628Y-196585771D02*
X184148628Y-195085771D01*
X184148628Y-196514342D02*
X184005771Y-196585771D01*
X183720057Y-196585771D01*
X183577200Y-196514342D01*
X183505771Y-196442914D01*
X183434342Y-196300057D01*
X183434342Y-195871485D01*
X183505771Y-195728628D01*
X183577200Y-195657200D01*
X183720057Y-195585771D01*
X184005771Y-195585771D01*
X184148628Y-195657200D01*
X186005771Y-195800057D02*
X186505771Y-195800057D01*
X186720057Y-196585771D02*
X186005771Y-196585771D01*
X186005771Y-195085771D01*
X186720057Y-195085771D01*
X187362914Y-196442914D02*
X187434342Y-196514342D01*
X187362914Y-196585771D01*
X187291485Y-196514342D01*
X187362914Y-196442914D01*
X187362914Y-196585771D01*
X188077200Y-196585771D02*
X188077200Y-195085771D01*
X188434342Y-195085771D01*
X188648628Y-195157200D01*
X188791485Y-195300057D01*
X188862914Y-195442914D01*
X188934342Y-195728628D01*
X188934342Y-195942914D01*
X188862914Y-196228628D01*
X188791485Y-196371485D01*
X188648628Y-196514342D01*
X188434342Y-196585771D01*
X188077200Y-196585771D01*
X189577200Y-196442914D02*
X189648628Y-196514342D01*
X189577200Y-196585771D01*
X189505771Y-196514342D01*
X189577200Y-196442914D01*
X189577200Y-196585771D01*
X190220057Y-196157200D02*
X190934342Y-196157200D01*
X190077200Y-196585771D02*
X190577200Y-195085771D01*
X191077200Y-196585771D01*
X191577200Y-196442914D02*
X191648628Y-196514342D01*
X191577200Y-196585771D01*
X191505771Y-196514342D01*
X191577200Y-196442914D01*
X191577200Y-196585771D01*
X194577200Y-196585771D02*
X194577200Y-195085771D01*
X194720057Y-196014342D02*
X195148628Y-196585771D01*
X195148628Y-195585771D02*
X194577200Y-196157200D01*
X195791485Y-196585771D02*
X195791485Y-195585771D01*
X195791485Y-195085771D02*
X195720057Y-195157200D01*
X195791485Y-195228628D01*
X195862914Y-195157200D01*
X195791485Y-195085771D01*
X195791485Y-195228628D01*
X197148628Y-196514342D02*
X197005771Y-196585771D01*
X196720057Y-196585771D01*
X196577200Y-196514342D01*
X196505771Y-196442914D01*
X196434342Y-196300057D01*
X196434342Y-195871485D01*
X196505771Y-195728628D01*
X196577200Y-195657200D01*
X196720057Y-195585771D01*
X197005771Y-195585771D01*
X197148628Y-195657200D01*
X198434342Y-196585771D02*
X198434342Y-195800057D01*
X198362914Y-195657200D01*
X198220057Y-195585771D01*
X197934342Y-195585771D01*
X197791485Y-195657200D01*
X198434342Y-196514342D02*
X198291485Y-196585771D01*
X197934342Y-196585771D01*
X197791485Y-196514342D01*
X197720057Y-196371485D01*
X197720057Y-196228628D01*
X197791485Y-196085771D01*
X197934342Y-196014342D01*
X198291485Y-196014342D01*
X198434342Y-195942914D01*
X199791485Y-196585771D02*
X199791485Y-195085771D01*
X199791485Y-196514342D02*
X199648628Y-196585771D01*
X199362914Y-196585771D01*
X199220057Y-196514342D01*
X199148628Y-196442914D01*
X199077200Y-196300057D01*
X199077200Y-195871485D01*
X199148628Y-195728628D01*
X199220057Y-195657200D01*
X199362914Y-195585771D01*
X199648628Y-195585771D01*
X199791485Y-195657200D01*
X202077200Y-197157200D02*
X202005771Y-197085771D01*
X201862914Y-196871485D01*
X201791485Y-196728628D01*
X201720057Y-196514342D01*
X201648628Y-196157200D01*
X201648628Y-195871485D01*
X201720057Y-195514342D01*
X201791485Y-195300057D01*
X201862914Y-195157200D01*
X202005771Y-194942914D01*
X202077200Y-194871485D01*
X203362914Y-195085771D02*
X202648628Y-195085771D01*
X202577200Y-195800057D01*
X202648628Y-195728628D01*
X202791485Y-195657200D01*
X203148628Y-195657200D01*
X203291485Y-195728628D01*
X203362914Y-195800057D01*
X203434342Y-195942914D01*
X203434342Y-196300057D01*
X203362914Y-196442914D01*
X203291485Y-196514342D01*
X203148628Y-196585771D01*
X202791485Y-196585771D01*
X202648628Y-196514342D01*
X202577200Y-196442914D01*
X204077200Y-196442914D02*
X204148628Y-196514342D01*
X204077200Y-196585771D01*
X204005771Y-196514342D01*
X204077200Y-196442914D01*
X204077200Y-196585771D01*
X205577200Y-196585771D02*
X204720057Y-196585771D01*
X205148628Y-196585771D02*
X205148628Y-195085771D01*
X205005771Y-195300057D01*
X204862914Y-195442914D01*
X204720057Y-195514342D01*
X206220057Y-196442914D02*
X206291485Y-196514342D01*
X206220057Y-196585771D01*
X206148628Y-196514342D01*
X206220057Y-196442914D01*
X206220057Y-196585771D01*
X207005771Y-196585771D02*
X207291485Y-196585771D01*
X207434342Y-196514342D01*
X207505771Y-196442914D01*
X207648628Y-196228628D01*
X207720057Y-195942914D01*
X207720057Y-195371485D01*
X207648628Y-195228628D01*
X207577200Y-195157200D01*
X207434342Y-195085771D01*
X207148628Y-195085771D01*
X207005771Y-195157200D01*
X206934342Y-195228628D01*
X206862914Y-195371485D01*
X206862914Y-195728628D01*
X206934342Y-195871485D01*
X207005771Y-195942914D01*
X207148628Y-196014342D01*
X207434342Y-196014342D01*
X207577200Y-195942914D01*
X207648628Y-195871485D01*
X207720057Y-195728628D01*
X208220057Y-197157200D02*
X208291485Y-197085771D01*
X208434342Y-196871485D01*
X208505771Y-196728628D01*
X208577200Y-196514342D01*
X208648628Y-196157200D01*
X208648628Y-195871485D01*
X208577200Y-195514342D01*
X208505771Y-195300057D01*
X208434342Y-195157200D01*
X208291485Y-194942914D01*
X208220057Y-194871485D01*
X209362914Y-196014342D02*
X210505771Y-196014342D01*
X212005771Y-196585771D02*
X211148628Y-196585771D01*
X211577200Y-196585771D02*
X211577200Y-195085771D01*
X211434342Y-195300057D01*
X211291485Y-195442914D01*
X211148628Y-195514342D01*
D10*
D11*
X177002200Y-191507200D02*
X285002200Y-191507200D01*
D10*
D12*
X264411485Y-193785771D02*
X263911485Y-193071485D01*
X263554342Y-193785771D02*
X263554342Y-192285771D01*
X264125771Y-192285771D01*
X264268628Y-192357200D01*
X264340057Y-192428628D01*
X264411485Y-192571485D01*
X264411485Y-192785771D01*
X264340057Y-192928628D01*
X264268628Y-193000057D01*
X264125771Y-193071485D01*
X263554342Y-193071485D01*
X265625771Y-193714342D02*
X265482914Y-193785771D01*
X265197200Y-193785771D01*
X265054342Y-193714342D01*
X264982914Y-193571485D01*
X264982914Y-193000057D01*
X265054342Y-192857200D01*
X265197200Y-192785771D01*
X265482914Y-192785771D01*
X265625771Y-192857200D01*
X265697200Y-193000057D01*
X265697200Y-193142914D01*
X264982914Y-193285771D01*
X266197200Y-192785771D02*
X266554342Y-193785771D01*
X266911485Y-192785771D01*
X267482914Y-193642914D02*
X267554342Y-193714342D01*
X267482914Y-193785771D01*
X267411485Y-193714342D01*
X267482914Y-193642914D01*
X267482914Y-193785771D01*
X267482914Y-192857200D02*
X267554342Y-192928628D01*
X267482914Y-193000057D01*
X267411485Y-192928628D01*
X267482914Y-192857200D01*
X267482914Y-193000057D01*
D10*
D11*
X178362914Y-193714342D02*
X178577200Y-193785771D01*
X178934342Y-193785771D01*
X179077200Y-193714342D01*
X179148628Y-193642914D01*
X179220057Y-193500057D01*
X179220057Y-193357200D01*
X179148628Y-193214342D01*
X179077200Y-193142914D01*
X178934342Y-193071485D01*
X178648628Y-193000057D01*
X178505771Y-192928628D01*
X178434342Y-192857200D01*
X178362914Y-192714342D01*
X178362914Y-192571485D01*
X178434342Y-192428628D01*
X178505771Y-192357200D01*
X178648628Y-192285771D01*
X179005771Y-192285771D01*
X179220057Y-192357200D01*
X179862914Y-193785771D02*
X179862914Y-192785771D01*
X179862914Y-192285771D02*
X179791485Y-192357200D01*
X179862914Y-192428628D01*
X179934342Y-192357200D01*
X179862914Y-192285771D01*
X179862914Y-192428628D01*
X180434342Y-192785771D02*
X181220057Y-192785771D01*
X180434342Y-193785771D01*
X181220057Y-193785771D01*
X182362914Y-193714342D02*
X182220057Y-193785771D01*
X181934342Y-193785771D01*
X181791485Y-193714342D01*
X181720057Y-193571485D01*
X181720057Y-193000057D01*
X181791485Y-192857200D01*
X181934342Y-192785771D01*
X182220057Y-192785771D01*
X182362914Y-192857200D01*
X182434342Y-193000057D01*
X182434342Y-193142914D01*
X181720057Y-193285771D01*
X183077200Y-193642914D02*
X183148628Y-193714342D01*
X183077200Y-193785771D01*
X183005771Y-193714342D01*
X183077200Y-193642914D01*
X183077200Y-193785771D01*
X183077200Y-192857200D02*
X183148628Y-192928628D01*
X183077200Y-193000057D01*
X183005771Y-192928628D01*
X183077200Y-192857200D01*
X183077200Y-193000057D01*
X184862914Y-193357200D02*
X185577200Y-193357200D01*
X184720057Y-193785771D02*
X185220057Y-192285771D01*
X185720057Y-193785771D01*
X186862914Y-192785771D02*
X186862914Y-193785771D01*
X186505771Y-192214342D02*
X186148628Y-193285771D01*
X187077200Y-193285771D01*
D10*
D11*
X263434342Y-196585771D02*
X263434342Y-195085771D01*
X264791485Y-196585771D02*
X264791485Y-195085771D01*
X264791485Y-196514342D02*
X264648628Y-196585771D01*
X264362914Y-196585771D01*
X264220057Y-196514342D01*
X264148628Y-196442914D01*
X264077200Y-196300057D01*
X264077200Y-195871485D01*
X264148628Y-195728628D01*
X264220057Y-195657200D01*
X264362914Y-195585771D01*
X264648628Y-195585771D01*
X264791485Y-195657200D01*
X265505771Y-196442914D02*
X265577200Y-196514342D01*
X265505771Y-196585771D01*
X265434342Y-196514342D01*
X265505771Y-196442914D01*
X265505771Y-196585771D01*
X265505771Y-195657200D02*
X265577200Y-195728628D01*
X265505771Y-195800057D01*
X265434342Y-195728628D01*
X265505771Y-195657200D01*
X265505771Y-195800057D01*
X268148628Y-196585771D02*
X267291485Y-196585771D01*
X267720057Y-196585771D02*
X267720057Y-195085771D01*
X267577200Y-195300057D01*
X267434342Y-195442914D01*
X267291485Y-195514342D01*
X269862914Y-195014342D02*
X268577200Y-196942914D01*
X271148628Y-196585771D02*
X270291485Y-196585771D01*
X270720057Y-196585771D02*
X270720057Y-195085771D01*
X270577200Y-195300057D01*
X270434342Y-195442914D01*
X270291485Y-195514342D01*
D10*
D11*
X177002200Y-187507200D02*
X285002200Y-187507200D01*
D10*
D13*
X178714580Y-188211961D02*
X179857438Y-188211961D01*
X179036009Y-190211961D02*
X179286009Y-188211961D01*
X180274104Y-190211961D02*
X180440771Y-188878628D01*
X180524104Y-188211961D02*
X180416961Y-188307200D01*
X180500295Y-188402438D01*
X180607438Y-188307200D01*
X180524104Y-188211961D01*
X180500295Y-188402438D01*
X181107438Y-188878628D02*
X181869342Y-188878628D01*
X181476485Y-188211961D02*
X181262200Y-189926247D01*
X181333628Y-190116723D01*
X181512200Y-190211961D01*
X181702676Y-190211961D01*
X182655057Y-190211961D02*
X182476485Y-190116723D01*
X182405057Y-189926247D01*
X182619342Y-188211961D01*
X184190771Y-190116723D02*
X183988390Y-190211961D01*
X183607438Y-190211961D01*
X183428866Y-190116723D01*
X183357438Y-189926247D01*
X183452676Y-189164342D01*
X183571723Y-188973866D01*
X183774104Y-188878628D01*
X184155057Y-188878628D01*
X184333628Y-188973866D01*
X184405057Y-189164342D01*
X184381247Y-189354819D01*
X183405057Y-189545295D01*
X185155057Y-190021485D02*
X185238390Y-190116723D01*
X185131247Y-190211961D01*
X185047914Y-190116723D01*
X185155057Y-190021485D01*
X185131247Y-190211961D01*
X185286009Y-188973866D02*
X185369342Y-189069104D01*
X185262200Y-189164342D01*
X185178866Y-189069104D01*
X185286009Y-188973866D01*
X185262200Y-189164342D01*
D10*
D11*
X178934342Y-185600057D02*
X178434342Y-185600057D01*
X178434342Y-186385771D02*
X178434342Y-184885771D01*
X179148628Y-184885771D01*
X179720057Y-186385771D02*
X179720057Y-185385771D01*
X179720057Y-184885771D02*
X179648628Y-184957200D01*
X179720057Y-185028628D01*
X179791485Y-184957200D01*
X179720057Y-184885771D01*
X179720057Y-185028628D01*
X180648628Y-186385771D02*
X180505771Y-186314342D01*
X180434342Y-186171485D01*
X180434342Y-184885771D01*
X181791485Y-186314342D02*
X181648628Y-186385771D01*
X181362914Y-186385771D01*
X181220057Y-186314342D01*
X181148628Y-186171485D01*
X181148628Y-185600057D01*
X181220057Y-185457200D01*
X181362914Y-185385771D01*
X181648628Y-185385771D01*
X181791485Y-185457200D01*
X181862914Y-185600057D01*
X181862914Y-185742914D01*
X181148628Y-185885771D01*
X182505771Y-186242914D02*
X182577200Y-186314342D01*
X182505771Y-186385771D01*
X182434342Y-186314342D01*
X182505771Y-186242914D01*
X182505771Y-186385771D01*
X182505771Y-185457200D02*
X182577200Y-185528628D01*
X182505771Y-185600057D01*
X182434342Y-185528628D01*
X182505771Y-185457200D01*
X182505771Y-185600057D01*
X184291485Y-185957200D02*
X185005771Y-185957200D01*
X184148628Y-186385771D02*
X184648628Y-184885771D01*
X185148628Y-186385771D01*
X185648628Y-186385771D02*
X185648628Y-185385771D01*
X185648628Y-185671485D02*
X185720057Y-185528628D01*
X185791485Y-185457200D01*
X185934342Y-185385771D01*
X186077200Y-185385771D01*
X187220057Y-186385771D02*
X187220057Y-184885771D01*
X187220057Y-186314342D02*
X187077200Y-186385771D01*
X186791485Y-186385771D01*
X186648628Y-186314342D01*
X186577200Y-186242914D01*
X186505771Y-186100057D01*
X186505771Y-185671485D01*
X186577200Y-185528628D01*
X186648628Y-185457200D01*
X186791485Y-185385771D01*
X187077200Y-185385771D01*
X187220057Y-185457200D01*
X188577200Y-185385771D02*
X188577200Y-186385771D01*
X187934342Y-185385771D02*
X187934342Y-186171485D01*
X188005771Y-186314342D01*
X188148628Y-186385771D01*
X188362914Y-186385771D01*
X188505771Y-186314342D01*
X188577200Y-186242914D01*
X189291485Y-186385771D02*
X189291485Y-185385771D01*
X189291485Y-185528628D02*
X189362914Y-185457200D01*
X189505771Y-185385771D01*
X189720057Y-185385771D01*
X189862914Y-185457200D01*
X189934342Y-185600057D01*
X189934342Y-186385771D01*
X189934342Y-185600057D02*
X190005771Y-185457200D01*
X190148628Y-185385771D01*
X190362914Y-185385771D01*
X190505771Y-185457200D01*
X190577200Y-185600057D01*
X190577200Y-186385771D01*
X191505771Y-186385771D02*
X191362914Y-186314342D01*
X191291485Y-186242914D01*
X191220057Y-186100057D01*
X191220057Y-185671485D01*
X191291485Y-185528628D01*
X191362914Y-185457200D01*
X191505771Y-185385771D01*
X191720057Y-185385771D01*
X191862914Y-185457200D01*
X191934342Y-185528628D01*
X192005771Y-185671485D01*
X192005771Y-186100057D01*
X191934342Y-186242914D01*
X191862914Y-186314342D01*
X191720057Y-186385771D01*
X191505771Y-186385771D01*
X192505771Y-185385771D02*
X192791485Y-186385771D01*
X193077200Y-185671485D01*
X193362914Y-186385771D01*
X193648628Y-185385771D01*
X194791485Y-186314342D02*
X194648628Y-186385771D01*
X194362914Y-186385771D01*
X194220057Y-186314342D01*
X194148628Y-186171485D01*
X194148628Y-185600057D01*
X194220057Y-185457200D01*
X194362914Y-185385771D01*
X194648628Y-185385771D01*
X194791485Y-185457200D01*
X194862914Y-185600057D01*
X194862914Y-185742914D01*
X194148628Y-185885771D01*
X195505771Y-186385771D02*
X195505771Y-185385771D01*
X195505771Y-185671485D02*
X195577200Y-185528628D01*
X195648628Y-185457200D01*
X195791485Y-185385771D01*
X195934342Y-185385771D01*
X196434342Y-186242914D02*
X196505771Y-186314342D01*
X196434342Y-186385771D01*
X196362914Y-186314342D01*
X196434342Y-186242914D01*
X196434342Y-186385771D01*
X197148628Y-186385771D02*
X197148628Y-184885771D01*
X197291485Y-185814342D02*
X197720057Y-186385771D01*
X197720057Y-185385771D02*
X197148628Y-185957200D01*
X198362914Y-186385771D02*
X198362914Y-185385771D01*
X198362914Y-184885771D02*
X198291485Y-184957200D01*
X198362914Y-185028628D01*
X198434342Y-184957200D01*
X198362914Y-184885771D01*
X198362914Y-185028628D01*
X199720057Y-186314342D02*
X199577200Y-186385771D01*
X199291485Y-186385771D01*
X199148628Y-186314342D01*
X199077200Y-186242914D01*
X199005771Y-186100057D01*
X199005771Y-185671485D01*
X199077200Y-185528628D01*
X199148628Y-185457200D01*
X199291485Y-185385771D01*
X199577200Y-185385771D01*
X199720057Y-185457200D01*
X201005771Y-186385771D02*
X201005771Y-185600057D01*
X200934342Y-185457200D01*
X200791485Y-185385771D01*
X200505771Y-185385771D01*
X200362914Y-185457200D01*
X201005771Y-186314342D02*
X200862914Y-186385771D01*
X200505771Y-186385771D01*
X200362914Y-186314342D01*
X200291485Y-186171485D01*
X200291485Y-186028628D01*
X200362914Y-185885771D01*
X200505771Y-185814342D01*
X200862914Y-185814342D01*
X201005771Y-185742914D01*
X202362914Y-186385771D02*
X202362914Y-184885771D01*
X202362914Y-186314342D02*
X202220057Y-186385771D01*
X201934342Y-186385771D01*
X201791485Y-186314342D01*
X201720057Y-186242914D01*
X201648628Y-186100057D01*
X201648628Y-185671485D01*
X201720057Y-185528628D01*
X201791485Y-185457200D01*
X201934342Y-185385771D01*
X202220057Y-185385771D01*
X202362914Y-185457200D01*
X202720057Y-186528628D02*
X203862914Y-186528628D01*
X204220057Y-185385771D02*
X204220057Y-186885771D01*
X204220057Y-185457200D02*
X204362914Y-185385771D01*
X204648628Y-185385771D01*
X204791485Y-185457200D01*
X204862914Y-185528628D01*
X204934342Y-185671485D01*
X204934342Y-186100057D01*
X204862914Y-186242914D01*
X204791485Y-186314342D01*
X204648628Y-186385771D01*
X204362914Y-186385771D01*
X204220057Y-186314342D01*
X206220057Y-186314342D02*
X206077200Y-186385771D01*
X205791485Y-186385771D01*
X205648628Y-186314342D01*
X205577200Y-186242914D01*
X205505771Y-186100057D01*
X205505771Y-185671485D01*
X205577200Y-185528628D01*
X205648628Y-185457200D01*
X205791485Y-185385771D01*
X206077200Y-185385771D01*
X206220057Y-185457200D01*
X206862914Y-186385771D02*
X206862914Y-184885771D01*
X206862914Y-185457200D02*
X207005771Y-185385771D01*
X207291485Y-185385771D01*
X207434342Y-185457200D01*
X207505771Y-185528628D01*
X207577200Y-185671485D01*
X207577200Y-186100057D01*
X207505771Y-186242914D01*
X207434342Y-186314342D01*
X207291485Y-186385771D01*
X207005771Y-186385771D01*
X206862914Y-186314342D01*
D10*
D11*
X177002200Y-181507200D02*
X285002200Y-181507200D01*
D10*
D11*
X178362914Y-183614342D02*
X178577200Y-183685771D01*
X178934342Y-183685771D01*
X179077200Y-183614342D01*
X179148628Y-183542914D01*
X179220057Y-183400057D01*
X179220057Y-183257200D01*
X179148628Y-183114342D01*
X179077200Y-183042914D01*
X178934342Y-182971485D01*
X178648628Y-182900057D01*
X178505771Y-182828628D01*
X178434342Y-182757200D01*
X178362914Y-182614342D01*
X178362914Y-182471485D01*
X178434342Y-182328628D01*
X178505771Y-182257200D01*
X178648628Y-182185771D01*
X179005771Y-182185771D01*
X179220057Y-182257200D01*
X179862914Y-183685771D02*
X179862914Y-182185771D01*
X180505771Y-183685771D02*
X180505771Y-182900057D01*
X180434342Y-182757200D01*
X180291485Y-182685771D01*
X180077200Y-182685771D01*
X179934342Y-182757200D01*
X179862914Y-182828628D01*
X181791485Y-183614342D02*
X181648628Y-183685771D01*
X181362914Y-183685771D01*
X181220057Y-183614342D01*
X181148628Y-183471485D01*
X181148628Y-182900057D01*
X181220057Y-182757200D01*
X181362914Y-182685771D01*
X181648628Y-182685771D01*
X181791485Y-182757200D01*
X181862914Y-182900057D01*
X181862914Y-183042914D01*
X181148628Y-183185771D01*
X183077200Y-183614342D02*
X182934342Y-183685771D01*
X182648628Y-183685771D01*
X182505771Y-183614342D01*
X182434342Y-183471485D01*
X182434342Y-182900057D01*
X182505771Y-182757200D01*
X182648628Y-182685771D01*
X182934342Y-182685771D01*
X183077200Y-182757200D01*
X183148628Y-182900057D01*
X183148628Y-183042914D01*
X182434342Y-183185771D01*
X183577200Y-182685771D02*
X184148628Y-182685771D01*
X183791485Y-182185771D02*
X183791485Y-183471485D01*
X183862914Y-183614342D01*
X184005771Y-183685771D01*
X184148628Y-183685771D01*
X184648628Y-183542914D02*
X184720057Y-183614342D01*
X184648628Y-183685771D01*
X184577200Y-183614342D01*
X184648628Y-183542914D01*
X184648628Y-183685771D01*
X184648628Y-182757200D02*
X184720057Y-182828628D01*
X184648628Y-182900057D01*
X184577200Y-182828628D01*
X184648628Y-182757200D01*
X184648628Y-182900057D01*
D10*
D11*
X197002200Y-191507200D02*
X197002200Y-194507200D01*
D10*
D11*
X261002200Y-191507200D02*
X261002200Y-198007200D01*
D14*
%TO.P,J42,5*%
%TO.N,pinMotorMowEnable*%
X183580000Y-62630000D03*
%TO.P,J42,4*%
%TO.N,pinMotorMowDir*%
X183580000Y-60130000D03*
%TO.P,J42,3*%
%TO.N,pinMotorMowPWM*%
X183580000Y-57630000D03*
%TO.P,J42,2*%
%TO.N,GND*%
X183580000Y-55130000D03*
%TO.P,J42,1*%
%TO.N,Net-(J42-Pad1)*%
%TA.AperFunction,ComponentPad*%
G36*
G01*
X182855000Y-51780000D02*
X184305000Y-51780000D01*
G75*
G02*
X184555000Y-52030000I0J-250000D01*
G01*
X184555000Y-53230000D01*
G75*
G02*
X184305000Y-53480000I-250000J0D01*
G01*
X182855000Y-53480000D01*
G75*
G02*
X182605000Y-53230000I0J250000D01*
G01*
X182605000Y-52030000D01*
G75*
G02*
X182855000Y-51780000I250000J0D01*
G01*
G37*
%TD.AperFunction*%
%TD*%
D15*
%TO.P,J41,5*%
%TO.N,pinMotorLeftEnable*%
X178400000Y-119250000D03*
%TO.P,J41,4*%
%TO.N,pinMotorLeftDir*%
X180900000Y-119250000D03*
%TO.P,J41,3*%
%TO.N,pinMotorLeftPWM*%
X183400000Y-119250000D03*
%TO.P,J41,2*%
%TO.N,GND*%
X185900000Y-119250000D03*
%TO.P,J41,1*%
%TO.N,Net-(J26-Pad1)*%
%TA.AperFunction,ComponentPad*%
G36*
G01*
X189250000Y-118525000D02*
X189250000Y-119975000D01*
G75*
G02*
X189000000Y-120225000I-250000J0D01*
G01*
X187800000Y-120225000D01*
G75*
G02*
X187550000Y-119975000I0J250000D01*
G01*
X187550000Y-118525000D01*
G75*
G02*
X187800000Y-118275000I250000J0D01*
G01*
X189000000Y-118275000D01*
G75*
G02*
X189250000Y-118525000I0J-250000D01*
G01*
G37*
%TD.AperFunction*%
%TD*%
%TO.P,J40,5*%
%TO.N,pinMotorEnable*%
X178060000Y-82490000D03*
%TO.P,J40,4*%
%TO.N,pinMotorRightDir*%
X180560000Y-82490000D03*
%TO.P,J40,3*%
%TO.N,pinMotorRightPWM*%
X183060000Y-82490000D03*
%TO.P,J40,2*%
%TO.N,GND*%
X185560000Y-82490000D03*
%TO.P,J40,1*%
%TO.N,Net-(J26-Pad1)*%
%TA.AperFunction,ComponentPad*%
G36*
G01*
X188910000Y-81765000D02*
X188910000Y-83215000D01*
G75*
G02*
X188660000Y-83465000I-250000J0D01*
G01*
X187460000Y-83465000D01*
G75*
G02*
X187210000Y-83215000I0J250000D01*
G01*
X187210000Y-81765000D01*
G75*
G02*
X187460000Y-81515000I250000J0D01*
G01*
X188660000Y-81515000D01*
G75*
G02*
X188910000Y-81765000I0J-250000D01*
G01*
G37*
%TD.AperFunction*%
%TD*%
D14*
%TO.P,J39,4*%
%TO.N,+3V3*%
X156900000Y-113920000D03*
%TO.P,J39,3*%
%TO.N,+5V*%
X156900000Y-116420000D03*
%TO.P,J39,2*%
%TO.N,GND*%
X156900000Y-118920000D03*
%TO.P,J39,1*%
%TO.N,Net-(J39-Pad1)*%
%TA.AperFunction,ComponentPad*%
G36*
G01*
X157625000Y-122270000D02*
X156175000Y-122270000D01*
G75*
G02*
X155925000Y-122020000I0J250000D01*
G01*
X155925000Y-120820000D01*
G75*
G02*
X156175000Y-120570000I250000J0D01*
G01*
X157625000Y-120570000D01*
G75*
G02*
X157875000Y-120820000I0J-250000D01*
G01*
X157875000Y-122020000D01*
G75*
G02*
X157625000Y-122270000I-250000J0D01*
G01*
G37*
%TD.AperFunction*%
%TD*%
%TO.P,J38,4*%
%TO.N,+3V3*%
X133750000Y-113760000D03*
%TO.P,J38,3*%
%TO.N,+5V*%
X133750000Y-116260000D03*
%TO.P,J38,2*%
%TO.N,GND*%
X133750000Y-118760000D03*
%TO.P,J38,1*%
%TO.N,Net-(J38-Pad1)*%
%TA.AperFunction,ComponentPad*%
G36*
G01*
X134475000Y-122110000D02*
X133025000Y-122110000D01*
G75*
G02*
X132775000Y-121860000I0J250000D01*
G01*
X132775000Y-120660000D01*
G75*
G02*
X133025000Y-120410000I250000J0D01*
G01*
X134475000Y-120410000D01*
G75*
G02*
X134725000Y-120660000I0J-250000D01*
G01*
X134725000Y-121860000D01*
G75*
G02*
X134475000Y-122110000I-250000J0D01*
G01*
G37*
%TD.AperFunction*%
%TD*%
D16*
%TO.P,J36,2*%
%TO.N,pinReserveA10*%
X101580000Y-74380000D03*
%TO.P,J36,1*%
%TO.N,GND*%
%TA.AperFunction,ComponentPad*%
G36*
G01*
X102330000Y-77730000D02*
X100830000Y-77730000D01*
G75*
G02*
X100580000Y-77480000I0J250000D01*
G01*
X100580000Y-76280000D01*
G75*
G02*
X100830000Y-76030000I250000J0D01*
G01*
X102330000Y-76030000D01*
G75*
G02*
X102580000Y-76280000I0J-250000D01*
G01*
X102580000Y-77480000D01*
G75*
G02*
X102330000Y-77730000I-250000J0D01*
G01*
G37*
%TD.AperFunction*%
%TD*%
%TO.P,J34,2*%
%TO.N,pinReserveD9*%
X82690000Y-74070000D03*
%TO.P,J34,1*%
%TO.N,GND*%
%TA.AperFunction,ComponentPad*%
G36*
G01*
X83440000Y-77420000D02*
X81940000Y-77420000D01*
G75*
G02*
X81690000Y-77170000I0J250000D01*
G01*
X81690000Y-75970000D01*
G75*
G02*
X81940000Y-75720000I250000J0D01*
G01*
X83440000Y-75720000D01*
G75*
G02*
X83690000Y-75970000I0J-250000D01*
G01*
X83690000Y-77170000D01*
G75*
G02*
X83440000Y-77420000I-250000J0D01*
G01*
G37*
%TD.AperFunction*%
%TD*%
%TO.P,J33,2*%
%TO.N,pinReserveD8*%
X92120000Y-74150000D03*
%TO.P,J33,1*%
%TO.N,GND*%
%TA.AperFunction,ComponentPad*%
G36*
G01*
X92870000Y-77500000D02*
X91370000Y-77500000D01*
G75*
G02*
X91120000Y-77250000I0J250000D01*
G01*
X91120000Y-76050000D01*
G75*
G02*
X91370000Y-75800000I250000J0D01*
G01*
X92870000Y-75800000D01*
G75*
G02*
X93120000Y-76050000I0J-250000D01*
G01*
X93120000Y-77250000D01*
G75*
G02*
X92870000Y-77500000I-250000J0D01*
G01*
G37*
%TD.AperFunction*%
%TD*%
%TO.P,J32,2*%
%TO.N,pinReserveD13*%
X73190000Y-74070000D03*
%TO.P,J32,1*%
%TO.N,GND*%
%TA.AperFunction,ComponentPad*%
G36*
G01*
X73940000Y-77420000D02*
X72440000Y-77420000D01*
G75*
G02*
X72190000Y-77170000I0J250000D01*
G01*
X72190000Y-75970000D01*
G75*
G02*
X72440000Y-75720000I250000J0D01*
G01*
X73940000Y-75720000D01*
G75*
G02*
X74190000Y-75970000I0J-250000D01*
G01*
X74190000Y-77170000D01*
G75*
G02*
X73940000Y-77420000I-250000J0D01*
G01*
G37*
%TD.AperFunction*%
%TD*%
D14*
%TO.P,J31,5*%
%TO.N,RX3*%
X107870000Y-49900000D03*
%TO.P,J31,4*%
%TO.N,TX3*%
X107870000Y-47400000D03*
%TO.P,J31,3*%
%TO.N,GND*%
X107870000Y-44900000D03*
%TO.P,J31,2*%
%TO.N,+3V3*%
X107870000Y-42400000D03*
%TO.P,J31,1*%
%TO.N,+5V*%
%TA.AperFunction,ComponentPad*%
G36*
G01*
X107145000Y-39050000D02*
X108595000Y-39050000D01*
G75*
G02*
X108845000Y-39300000I0J-250000D01*
G01*
X108845000Y-40500000D01*
G75*
G02*
X108595000Y-40750000I-250000J0D01*
G01*
X107145000Y-40750000D01*
G75*
G02*
X106895000Y-40500000I0J250000D01*
G01*
X106895000Y-39300000D01*
G75*
G02*
X107145000Y-39050000I250000J0D01*
G01*
G37*
%TD.AperFunction*%
%TD*%
%TO.P,J30,4*%
%TO.N,SCL1*%
X97420000Y-47270000D03*
%TO.P,J30,3*%
%TO.N,SDA1*%
X97420000Y-44770000D03*
%TO.P,J30,2*%
%TO.N,GND*%
X97420000Y-42270000D03*
%TO.P,J30,1*%
%TO.N,+3V3*%
%TA.AperFunction,ComponentPad*%
G36*
G01*
X96695000Y-38920000D02*
X98145000Y-38920000D01*
G75*
G02*
X98395000Y-39170000I0J-250000D01*
G01*
X98395000Y-40370000D01*
G75*
G02*
X98145000Y-40620000I-250000J0D01*
G01*
X96695000Y-40620000D01*
G75*
G02*
X96445000Y-40370000I0J250000D01*
G01*
X96445000Y-39170000D01*
G75*
G02*
X96695000Y-38920000I250000J0D01*
G01*
G37*
%TD.AperFunction*%
%TD*%
%TO.P,J28,4*%
%TO.N,+3V3*%
X145330000Y-113710000D03*
%TO.P,J28,3*%
%TO.N,+5V*%
X145330000Y-116210000D03*
%TO.P,J28,2*%
%TO.N,GND*%
X145330000Y-118710000D03*
%TO.P,J28,1*%
%TO.N,Net-(J28-Pad1)*%
%TA.AperFunction,ComponentPad*%
G36*
G01*
X146055000Y-122060000D02*
X144605000Y-122060000D01*
G75*
G02*
X144355000Y-121810000I0J250000D01*
G01*
X144355000Y-120610000D01*
G75*
G02*
X144605000Y-120360000I250000J0D01*
G01*
X146055000Y-120360000D01*
G75*
G02*
X146305000Y-120610000I0J-250000D01*
G01*
X146305000Y-121810000D01*
G75*
G02*
X146055000Y-122060000I-250000J0D01*
G01*
G37*
%TD.AperFunction*%
%TD*%
%TO.P,J27,4*%
%TO.N,+3V3*%
X122630000Y-113910000D03*
%TO.P,J27,3*%
%TO.N,+5V*%
X122630000Y-116410000D03*
%TO.P,J27,2*%
%TO.N,GND*%
X122630000Y-118910000D03*
%TO.P,J27,1*%
%TO.N,Net-(J27-Pad1)*%
%TA.AperFunction,ComponentPad*%
G36*
G01*
X123355000Y-122260000D02*
X121905000Y-122260000D01*
G75*
G02*
X121655000Y-122010000I0J250000D01*
G01*
X121655000Y-120810000D01*
G75*
G02*
X121905000Y-120560000I250000J0D01*
G01*
X123355000Y-120560000D01*
G75*
G02*
X123605000Y-120810000I0J-250000D01*
G01*
X123605000Y-122010000D01*
G75*
G02*
X123355000Y-122260000I-250000J0D01*
G01*
G37*
%TD.AperFunction*%
%TD*%
D15*
%TO.P,J26,5*%
%TO.N,pinMotorLeft2Enable*%
X178420000Y-107480000D03*
%TO.P,J26,4*%
%TO.N,pinMotorLeft2Dir*%
X180920000Y-107480000D03*
%TO.P,J26,3*%
%TO.N,pinMotorLeft2PWM*%
X183420000Y-107480000D03*
%TO.P,J26,2*%
%TO.N,GND*%
X185920000Y-107480000D03*
%TO.P,J26,1*%
%TO.N,Net-(J26-Pad1)*%
%TA.AperFunction,ComponentPad*%
G36*
G01*
X189270000Y-106755000D02*
X189270000Y-108205000D01*
G75*
G02*
X189020000Y-108455000I-250000J0D01*
G01*
X187820000Y-108455000D01*
G75*
G02*
X187570000Y-108205000I0J250000D01*
G01*
X187570000Y-106755000D01*
G75*
G02*
X187820000Y-106505000I250000J0D01*
G01*
X189020000Y-106505000D01*
G75*
G02*
X189270000Y-106755000I0J-250000D01*
G01*
G37*
%TD.AperFunction*%
%TD*%
D14*
%TO.P,J24,5*%
%TO.N,RX2*%
X116420000Y-49870000D03*
%TO.P,J24,4*%
%TO.N,TX2*%
X116420000Y-47370000D03*
%TO.P,J24,3*%
%TO.N,GND*%
X116420000Y-44870000D03*
%TO.P,J24,2*%
%TO.N,+3V3*%
X116420000Y-42370000D03*
%TO.P,J24,1*%
%TO.N,+5V*%
%TA.AperFunction,ComponentPad*%
G36*
G01*
X115695000Y-39020000D02*
X117145000Y-39020000D01*
G75*
G02*
X117395000Y-39270000I0J-250000D01*
G01*
X117395000Y-40470000D01*
G75*
G02*
X117145000Y-40720000I-250000J0D01*
G01*
X115695000Y-40720000D01*
G75*
G02*
X115445000Y-40470000I0J250000D01*
G01*
X115445000Y-39270000D01*
G75*
G02*
X115695000Y-39020000I250000J0D01*
G01*
G37*
%TD.AperFunction*%
%TD*%
%TO.P,J23,5*%
%TO.N,RX1*%
X124820000Y-49870000D03*
%TO.P,J23,4*%
%TO.N,TX1*%
X124820000Y-47370000D03*
%TO.P,J23,3*%
%TO.N,GND*%
X124820000Y-44870000D03*
%TO.P,J23,2*%
%TO.N,+3V3*%
X124820000Y-42370000D03*
%TO.P,J23,1*%
%TO.N,+5V*%
%TA.AperFunction,ComponentPad*%
G36*
G01*
X124095000Y-39020000D02*
X125545000Y-39020000D01*
G75*
G02*
X125795000Y-39270000I0J-250000D01*
G01*
X125795000Y-40470000D01*
G75*
G02*
X125545000Y-40720000I-250000J0D01*
G01*
X124095000Y-40720000D01*
G75*
G02*
X123845000Y-40470000I0J250000D01*
G01*
X123845000Y-39270000D01*
G75*
G02*
X124095000Y-39020000I250000J0D01*
G01*
G37*
%TD.AperFunction*%
%TD*%
%TO.P,J22,5*%
%TO.N,RX0*%
X133310000Y-49920000D03*
%TO.P,J22,4*%
%TO.N,TX0*%
X133310000Y-47420000D03*
%TO.P,J22,3*%
%TO.N,GND*%
X133310000Y-44920000D03*
%TO.P,J22,2*%
%TO.N,+3V3*%
X133310000Y-42420000D03*
%TO.P,J22,1*%
%TO.N,+5V*%
%TA.AperFunction,ComponentPad*%
G36*
G01*
X132585000Y-39070000D02*
X134035000Y-39070000D01*
G75*
G02*
X134285000Y-39320000I0J-250000D01*
G01*
X134285000Y-40520000D01*
G75*
G02*
X134035000Y-40770000I-250000J0D01*
G01*
X132585000Y-40770000D01*
G75*
G02*
X132335000Y-40520000I0J250000D01*
G01*
X132335000Y-39320000D01*
G75*
G02*
X132585000Y-39070000I250000J0D01*
G01*
G37*
%TD.AperFunction*%
%TD*%
%TO.P,J21,6*%
%TO.N,+3V3*%
X44970000Y-96330000D03*
%TO.P,J21,5*%
%TO.N,pinChargeEnable*%
X44970000Y-93830000D03*
%TO.P,J21,4*%
%TO.N,pinChargeCurrent*%
X44970000Y-91330000D03*
%TO.P,J21,3*%
%TO.N,pinChargeVoltage*%
X44970000Y-88830000D03*
%TO.P,J21,2*%
%TO.N,pinBatterySwitch*%
X44970000Y-86330000D03*
%TO.P,J21,1*%
%TO.N,pinBatteryVoltage*%
%TA.AperFunction,ComponentPad*%
G36*
G01*
X44245000Y-82980000D02*
X45695000Y-82980000D01*
G75*
G02*
X45945000Y-83230000I0J-250000D01*
G01*
X45945000Y-84430000D01*
G75*
G02*
X45695000Y-84680000I-250000J0D01*
G01*
X44245000Y-84680000D01*
G75*
G02*
X43995000Y-84430000I0J250000D01*
G01*
X43995000Y-83230000D01*
G75*
G02*
X44245000Y-82980000I250000J0D01*
G01*
G37*
%TD.AperFunction*%
%TD*%
%TO.P,J20,4*%
%TO.N,pinRemoteSwitch*%
X62030000Y-46810000D03*
%TO.P,J20,3*%
%TO.N,pinRemoteMow*%
X62030000Y-44310000D03*
%TO.P,J20,2*%
%TO.N,pinRemoteSteer*%
X62030000Y-41810000D03*
%TO.P,J20,1*%
%TO.N,pinRemoteSpeed*%
%TA.AperFunction,ComponentPad*%
G36*
G01*
X61305000Y-38460000D02*
X62755000Y-38460000D01*
G75*
G02*
X63005000Y-38710000I0J-250000D01*
G01*
X63005000Y-39910000D01*
G75*
G02*
X62755000Y-40160000I-250000J0D01*
G01*
X61305000Y-40160000D01*
G75*
G02*
X61055000Y-39910000I0J250000D01*
G01*
X61055000Y-38710000D01*
G75*
G02*
X61305000Y-38460000I250000J0D01*
G01*
G37*
%TD.AperFunction*%
%TD*%
%TO.P,J19,3*%
%TO.N,Net-(J19-Pad3)*%
X88580000Y-113880000D03*
%TO.P,J19,2*%
%TO.N,GND*%
X88580000Y-116380000D03*
%TO.P,J19,1*%
%TO.N,+5V*%
%TA.AperFunction,ComponentPad*%
G36*
G01*
X89305000Y-119730000D02*
X87855000Y-119730000D01*
G75*
G02*
X87605000Y-119480000I0J250000D01*
G01*
X87605000Y-118280000D01*
G75*
G02*
X87855000Y-118030000I250000J0D01*
G01*
X89305000Y-118030000D01*
G75*
G02*
X89555000Y-118280000I0J-250000D01*
G01*
X89555000Y-119480000D01*
G75*
G02*
X89305000Y-119730000I-250000J0D01*
G01*
G37*
%TD.AperFunction*%
%TD*%
D16*
%TO.P,J18,2*%
%TO.N,pinUserSwitch3*%
X54030000Y-112190000D03*
%TO.P,J18,1*%
%TO.N,GND*%
%TA.AperFunction,ComponentPad*%
G36*
G01*
X54780000Y-115540000D02*
X53280000Y-115540000D01*
G75*
G02*
X53030000Y-115290000I0J250000D01*
G01*
X53030000Y-114090000D01*
G75*
G02*
X53280000Y-113840000I250000J0D01*
G01*
X54780000Y-113840000D01*
G75*
G02*
X55030000Y-114090000I0J-250000D01*
G01*
X55030000Y-115290000D01*
G75*
G02*
X54780000Y-115540000I-250000J0D01*
G01*
G37*
%TD.AperFunction*%
%TD*%
%TO.P,J17,2*%
%TO.N,pinUserSwitch2*%
X54090000Y-102250000D03*
%TO.P,J17,1*%
%TO.N,GND*%
%TA.AperFunction,ComponentPad*%
G36*
G01*
X54840000Y-105600000D02*
X53340000Y-105600000D01*
G75*
G02*
X53090000Y-105350000I0J250000D01*
G01*
X53090000Y-104150000D01*
G75*
G02*
X53340000Y-103900000I250000J0D01*
G01*
X54840000Y-103900000D01*
G75*
G02*
X55090000Y-104150000I0J-250000D01*
G01*
X55090000Y-105350000D01*
G75*
G02*
X54840000Y-105600000I-250000J0D01*
G01*
G37*
%TD.AperFunction*%
%TD*%
%TO.P,J16,2*%
%TO.N,pinUserSwitch1*%
X43270000Y-115100000D03*
%TO.P,J16,1*%
%TO.N,GND*%
%TA.AperFunction,ComponentPad*%
G36*
G01*
X44020000Y-118450000D02*
X42520000Y-118450000D01*
G75*
G02*
X42270000Y-118200000I0J250000D01*
G01*
X42270000Y-117000000D01*
G75*
G02*
X42520000Y-116750000I250000J0D01*
G01*
X44020000Y-116750000D01*
G75*
G02*
X44270000Y-117000000I0J-250000D01*
G01*
X44270000Y-118200000D01*
G75*
G02*
X44020000Y-118450000I-250000J0D01*
G01*
G37*
%TD.AperFunction*%
%TD*%
%TO.P,J15,2*%
%TO.N,pinButton*%
X43090000Y-104780000D03*
%TO.P,J15,1*%
%TO.N,GND*%
%TA.AperFunction,ComponentPad*%
G36*
G01*
X43840000Y-108130000D02*
X42340000Y-108130000D01*
G75*
G02*
X42090000Y-107880000I0J250000D01*
G01*
X42090000Y-106680000D01*
G75*
G02*
X42340000Y-106430000I250000J0D01*
G01*
X43840000Y-106430000D01*
G75*
G02*
X44090000Y-106680000I0J-250000D01*
G01*
X44090000Y-107880000D01*
G75*
G02*
X43840000Y-108130000I-250000J0D01*
G01*
G37*
%TD.AperFunction*%
%TD*%
D14*
%TO.P,J14,3*%
%TO.N,pinBuzzer*%
X71130000Y-127920000D03*
%TO.P,J14,2*%
%TO.N,GND*%
X71130000Y-125420000D03*
%TO.P,J14,1*%
%TO.N,+5V*%
%TA.AperFunction,ComponentPad*%
G36*
G01*
X70405000Y-122070000D02*
X71855000Y-122070000D01*
G75*
G02*
X72105000Y-122320000I0J-250000D01*
G01*
X72105000Y-123520000D01*
G75*
G02*
X71855000Y-123770000I-250000J0D01*
G01*
X70405000Y-123770000D01*
G75*
G02*
X70155000Y-123520000I0J250000D01*
G01*
X70155000Y-122320000D01*
G75*
G02*
X70405000Y-122070000I250000J0D01*
G01*
G37*
%TD.AperFunction*%
%TD*%
%TO.P,J13,3*%
%TO.N,Net-(J13-Pad3)*%
X98440000Y-113970000D03*
%TO.P,J13,2*%
%TO.N,GND*%
X98440000Y-116470000D03*
%TO.P,J13,1*%
%TO.N,+5V*%
%TA.AperFunction,ComponentPad*%
G36*
G01*
X99165000Y-119820000D02*
X97715000Y-119820000D01*
G75*
G02*
X97465000Y-119570000I0J250000D01*
G01*
X97465000Y-118370000D01*
G75*
G02*
X97715000Y-118120000I250000J0D01*
G01*
X99165000Y-118120000D01*
G75*
G02*
X99415000Y-118370000I0J-250000D01*
G01*
X99415000Y-119570000D01*
G75*
G02*
X99165000Y-119820000I-250000J0D01*
G01*
G37*
%TD.AperFunction*%
%TD*%
%TO.P,J12,4*%
%TO.N,pinSonarLeftEcho*%
X162140000Y-50170000D03*
%TO.P,J12,3*%
%TO.N,pinSonarLeftTrigger*%
X162140000Y-47670000D03*
%TO.P,J12,2*%
%TO.N,GND*%
X162140000Y-45170000D03*
%TO.P,J12,1*%
%TO.N,+3V3*%
%TA.AperFunction,ComponentPad*%
G36*
G01*
X161415000Y-41820000D02*
X162865000Y-41820000D01*
G75*
G02*
X163115000Y-42070000I0J-250000D01*
G01*
X163115000Y-43270000D01*
G75*
G02*
X162865000Y-43520000I-250000J0D01*
G01*
X161415000Y-43520000D01*
G75*
G02*
X161165000Y-43270000I0J250000D01*
G01*
X161165000Y-42070000D01*
G75*
G02*
X161415000Y-41820000I250000J0D01*
G01*
G37*
%TD.AperFunction*%
%TD*%
%TO.P,J11,4*%
%TO.N,pinSonarCenterEcho*%
X142760000Y-50050000D03*
%TO.P,J11,3*%
%TO.N,pinSonarCenterTrigger*%
X142760000Y-47550000D03*
%TO.P,J11,2*%
%TO.N,GND*%
X142760000Y-45050000D03*
%TO.P,J11,1*%
%TO.N,+3V3*%
%TA.AperFunction,ComponentPad*%
G36*
G01*
X142035000Y-41700000D02*
X143485000Y-41700000D01*
G75*
G02*
X143735000Y-41950000I0J-250000D01*
G01*
X143735000Y-43150000D01*
G75*
G02*
X143485000Y-43400000I-250000J0D01*
G01*
X142035000Y-43400000D01*
G75*
G02*
X141785000Y-43150000I0J250000D01*
G01*
X141785000Y-41950000D01*
G75*
G02*
X142035000Y-41700000I250000J0D01*
G01*
G37*
%TD.AperFunction*%
%TD*%
%TO.P,J10,4*%
%TO.N,pinSonarRightEcho*%
X152330000Y-50080000D03*
%TO.P,J10,3*%
%TO.N,pinSonarRightTrigger*%
X152330000Y-47580000D03*
%TO.P,J10,2*%
%TO.N,GND*%
X152330000Y-45080000D03*
%TO.P,J10,1*%
%TO.N,+3V3*%
%TA.AperFunction,ComponentPad*%
G36*
G01*
X151605000Y-41730000D02*
X153055000Y-41730000D01*
G75*
G02*
X153305000Y-41980000I0J-250000D01*
G01*
X153305000Y-43180000D01*
G75*
G02*
X153055000Y-43430000I-250000J0D01*
G01*
X151605000Y-43430000D01*
G75*
G02*
X151355000Y-43180000I0J250000D01*
G01*
X151355000Y-41980000D01*
G75*
G02*
X151605000Y-41730000I250000J0D01*
G01*
G37*
%TD.AperFunction*%
%TD*%
D15*
%TO.P,J9,3*%
%TO.N,pinRain*%
X69260000Y-114580000D03*
%TO.P,J9,2*%
%TO.N,GND*%
X66760000Y-114580000D03*
%TO.P,J9,1*%
%TO.N,+3V3*%
%TA.AperFunction,ComponentPad*%
G36*
G01*
X63410000Y-115305000D02*
X63410000Y-113855000D01*
G75*
G02*
X63660000Y-113605000I250000J0D01*
G01*
X64860000Y-113605000D01*
G75*
G02*
X65110000Y-113855000I0J-250000D01*
G01*
X65110000Y-115305000D01*
G75*
G02*
X64860000Y-115555000I-250000J0D01*
G01*
X63660000Y-115555000D01*
G75*
G02*
X63410000Y-115305000I0J250000D01*
G01*
G37*
%TD.AperFunction*%
%TD*%
D14*
%TO.P,J8,3*%
%TO.N,pinTilt*%
X108380000Y-113970000D03*
%TO.P,J8,2*%
%TO.N,GND*%
X108380000Y-116470000D03*
%TO.P,J8,1*%
%TO.N,+3V3*%
%TA.AperFunction,ComponentPad*%
G36*
G01*
X109105000Y-119820000D02*
X107655000Y-119820000D01*
G75*
G02*
X107405000Y-119570000I0J250000D01*
G01*
X107405000Y-118370000D01*
G75*
G02*
X107655000Y-118120000I250000J0D01*
G01*
X109105000Y-118120000D01*
G75*
G02*
X109355000Y-118370000I0J-250000D01*
G01*
X109355000Y-119570000D01*
G75*
G02*
X109105000Y-119820000I-250000J0D01*
G01*
G37*
%TD.AperFunction*%
%TD*%
D15*
%TO.P,J7,5*%
%TO.N,pinMotorRight2Enable*%
X178180000Y-94250000D03*
%TO.P,J7,4*%
%TO.N,pinMotorRight2Dir*%
X180680000Y-94250000D03*
%TO.P,J7,3*%
%TO.N,pinMotorRight2PWM*%
X183180000Y-94250000D03*
%TO.P,J7,2*%
%TO.N,GND*%
X185680000Y-94250000D03*
%TO.P,J7,1*%
%TO.N,Net-(J26-Pad1)*%
%TA.AperFunction,ComponentPad*%
G36*
G01*
X189030000Y-93525000D02*
X189030000Y-94975000D01*
G75*
G02*
X188780000Y-95225000I-250000J0D01*
G01*
X187580000Y-95225000D01*
G75*
G02*
X187330000Y-94975000I0J250000D01*
G01*
X187330000Y-93525000D01*
G75*
G02*
X187580000Y-93275000I250000J0D01*
G01*
X188780000Y-93275000D01*
G75*
G02*
X189030000Y-93525000I0J-250000D01*
G01*
G37*
%TD.AperFunction*%
%TD*%
D14*
%TO.P,J6,4*%
%TO.N,pinDropRight*%
X78720000Y-113730000D03*
%TO.P,J6,3*%
%TO.N,GND*%
X78720000Y-116230000D03*
%TO.P,J6,2*%
%TO.N,pinDropLeft*%
X78720000Y-118730000D03*
%TO.P,J6,1*%
%TO.N,GND*%
%TA.AperFunction,ComponentPad*%
G36*
G01*
X79445000Y-122080000D02*
X77995000Y-122080000D01*
G75*
G02*
X77745000Y-121830000I0J250000D01*
G01*
X77745000Y-120630000D01*
G75*
G02*
X77995000Y-120380000I250000J0D01*
G01*
X79445000Y-120380000D01*
G75*
G02*
X79695000Y-120630000I0J-250000D01*
G01*
X79695000Y-121830000D01*
G75*
G02*
X79445000Y-122080000I-250000J0D01*
G01*
G37*
%TD.AperFunction*%
%TD*%
%TO.P,J5,4*%
%TO.N,pinBumperLeft*%
X203230000Y-80180000D03*
%TO.P,J5,3*%
%TO.N,GND*%
X203230000Y-77680000D03*
%TO.P,J5,2*%
%TO.N,pinBumperRight*%
X203230000Y-75180000D03*
%TO.P,J5,1*%
%TO.N,GND*%
%TA.AperFunction,ComponentPad*%
G36*
G01*
X202505000Y-71830000D02*
X203955000Y-71830000D01*
G75*
G02*
X204205000Y-72080000I0J-250000D01*
G01*
X204205000Y-73280000D01*
G75*
G02*
X203955000Y-73530000I-250000J0D01*
G01*
X202505000Y-73530000D01*
G75*
G02*
X202255000Y-73280000I0J250000D01*
G01*
X202255000Y-72080000D01*
G75*
G02*
X202505000Y-71830000I250000J0D01*
G01*
G37*
%TD.AperFunction*%
%TD*%
%TO.P,J4,4*%
%TO.N,SCL1*%
X88240000Y-47160000D03*
%TO.P,J4,3*%
%TO.N,SDA1*%
X88240000Y-44660000D03*
%TO.P,J4,2*%
%TO.N,GND*%
X88240000Y-42160000D03*
%TO.P,J4,1*%
%TO.N,+3V3*%
%TA.AperFunction,ComponentPad*%
G36*
G01*
X87515000Y-38810000D02*
X88965000Y-38810000D01*
G75*
G02*
X89215000Y-39060000I0J-250000D01*
G01*
X89215000Y-40260000D01*
G75*
G02*
X88965000Y-40510000I-250000J0D01*
G01*
X87515000Y-40510000D01*
G75*
G02*
X87265000Y-40260000I0J250000D01*
G01*
X87265000Y-39060000D01*
G75*
G02*
X87515000Y-38810000I250000J0D01*
G01*
G37*
%TD.AperFunction*%
%TD*%
%TO.P,J3,4*%
%TO.N,SCL0*%
X79860000Y-46970000D03*
%TO.P,J3,3*%
%TO.N,SDA0*%
X79860000Y-44470000D03*
%TO.P,J3,2*%
%TO.N,GND*%
X79860000Y-41970000D03*
%TO.P,J3,1*%
%TO.N,+3V3*%
%TA.AperFunction,ComponentPad*%
G36*
G01*
X79135000Y-38620000D02*
X80585000Y-38620000D01*
G75*
G02*
X80835000Y-38870000I0J-250000D01*
G01*
X80835000Y-40070000D01*
G75*
G02*
X80585000Y-40320000I-250000J0D01*
G01*
X79135000Y-40320000D01*
G75*
G02*
X78885000Y-40070000I0J250000D01*
G01*
X78885000Y-38870000D01*
G75*
G02*
X79135000Y-38620000I250000J0D01*
G01*
G37*
%TD.AperFunction*%
%TD*%
%TO.P,J2,4*%
%TO.N,SCL0*%
X70480000Y-46880000D03*
%TO.P,J2,3*%
%TO.N,SDA0*%
X70480000Y-44380000D03*
%TO.P,J2,2*%
%TO.N,GND*%
X70480000Y-41880000D03*
%TO.P,J2,1*%
%TO.N,+3V3*%
%TA.AperFunction,ComponentPad*%
G36*
G01*
X69755000Y-38530000D02*
X71205000Y-38530000D01*
G75*
G02*
X71455000Y-38780000I0J-250000D01*
G01*
X71455000Y-39980000D01*
G75*
G02*
X71205000Y-40230000I-250000J0D01*
G01*
X69755000Y-40230000D01*
G75*
G02*
X69505000Y-39980000I0J250000D01*
G01*
X69505000Y-38780000D01*
G75*
G02*
X69755000Y-38530000I250000J0D01*
G01*
G37*
%TD.AperFunction*%
%TD*%
D17*
%TO.P,R21,2*%
%TO.N,GND*%
X143510000Y-126060000D03*
D18*
%TO.P,R21,1*%
%TO.N,Net-(J28-Pad1)*%
X143510000Y-128600000D03*
%TD*%
D17*
%TO.P,R20,2*%
%TO.N,GND*%
X120800000Y-126040000D03*
D18*
%TO.P,R20,1*%
%TO.N,Net-(J27-Pad1)*%
X120800000Y-128580000D03*
%TD*%
D17*
%TO.P,R19,2*%
%TO.N,pinOdometryLeft2*%
X148240000Y-126080000D03*
D18*
%TO.P,R19,1*%
%TO.N,Net-(J28-Pad1)*%
X148240000Y-128620000D03*
%TD*%
D17*
%TO.P,R18,2*%
%TO.N,pinOdometryRight2*%
X125420000Y-126040000D03*
D18*
%TO.P,R18,1*%
%TO.N,Net-(J27-Pad1)*%
X125420000Y-128580000D03*
%TD*%
D19*
%TO.P,JP5,3*%
%TO.N,+3V3*%
X180750000Y-43400000D03*
%TO.P,JP5,2*%
%TO.N,Net-(J42-Pad1)*%
X180750000Y-40860000D03*
D20*
%TO.P,JP5,1*%
%TO.N,+5V*%
X180750000Y-38320000D03*
%TD*%
D19*
%TO.P,JP4,3*%
%TO.N,+3V3*%
X167310000Y-127940000D03*
%TO.P,JP4,2*%
%TO.N,Net-(J26-Pad1)*%
X167310000Y-125400000D03*
D20*
%TO.P,JP4,1*%
%TO.N,+5V*%
X167310000Y-122860000D03*
%TD*%
D17*
%TO.P,R17,2*%
%TO.N,GND*%
X155090000Y-126150000D03*
D18*
%TO.P,R17,1*%
%TO.N,Net-(J39-Pad1)*%
X155090000Y-128690000D03*
%TD*%
D17*
%TO.P,R16,2*%
%TO.N,GND*%
X131940000Y-126040000D03*
D18*
%TO.P,R16,1*%
%TO.N,Net-(J38-Pad1)*%
X131940000Y-128580000D03*
%TD*%
D17*
%TO.P,R14,2*%
%TO.N,pinOdometryLeft*%
X159680000Y-126220000D03*
D18*
%TO.P,R14,1*%
%TO.N,Net-(J39-Pad1)*%
X159680000Y-128760000D03*
%TD*%
D17*
%TO.P,R6,2*%
%TO.N,pinOdometryRight*%
X136540000Y-126040000D03*
D18*
%TO.P,R6,1*%
%TO.N,Net-(J38-Pad1)*%
X136540000Y-128580000D03*
%TD*%
D21*
%TO.P,H4,1*%
%TO.N,GND*%
X41880000Y-128370000D03*
D22*
X41880000Y-128370000D03*
%TD*%
D21*
%TO.P,H3,1*%
%TO.N,GND*%
X205600000Y-128210000D03*
D22*
X205600000Y-128210000D03*
%TD*%
D21*
%TO.P,H2,1*%
%TO.N,GND*%
X205750000Y-38270000D03*
D22*
X205750000Y-38270000D03*
%TD*%
D21*
%TO.P,H1,1*%
%TO.N,GND*%
X41810000Y-38440000D03*
D22*
X41810000Y-38440000D03*
%TD*%
D23*
%TO.P,U2,~*%
%TO.N,N/C*%
X195421500Y-86526500D03*
X195421500Y-127293500D03*
D24*
%TO.P,U2,31*%
X173514000Y-90400000D03*
%TO.P,U2,30*%
X173514000Y-92940000D03*
%TO.P,U2,29*%
X173514000Y-100560000D03*
%TO.P,U2,28*%
X173514000Y-103100000D03*
%TO.P,U2,27*%
X173514000Y-105640000D03*
%TO.P,U2,26*%
X173514000Y-113260000D03*
%TO.P,U2,25*%
X173514000Y-115800000D03*
%TO.P,U2,24*%
X194342000Y-98528000D03*
%TO.P,U2,23*%
X194342000Y-102084000D03*
%TO.P,U2,22*%
X194342000Y-105640000D03*
%TO.P,U2,21*%
X194342000Y-109196000D03*
%TO.P,U2,20*%
X194342000Y-112752000D03*
%TO.P,U2,19*%
X194342000Y-116308000D03*
%TO.P,U2,18*%
%TO.N,pinMotorRightSense*%
X170974000Y-85320000D03*
%TO.P,U2,17*%
%TO.N,pinMotorRightFault*%
X170974000Y-87860000D03*
%TO.P,U2,16*%
%TO.N,GND*%
X170974000Y-90400000D03*
%TO.P,U2,15*%
%TO.N,IOREV*%
X170974000Y-92940000D03*
%TO.P,U2,14*%
%TO.N,pinMotorRightPWM*%
X170974000Y-95480000D03*
%TO.P,U2,13*%
%TO.N,pinMotorRightDir*%
X170974000Y-98020000D03*
%TO.P,U2,12*%
%TO.N,N/C*%
X170974000Y-100560000D03*
%TO.P,U2,11*%
X170974000Y-103100000D03*
%TO.P,U2,10*%
%TO.N,pinMotorEnable*%
X170974000Y-105640000D03*
%TO.P,U2,9*%
%TO.N,pinMotorLeftSense*%
X170974000Y-108180000D03*
%TO.P,U2,8*%
%TO.N,pinMotorLeftFault*%
X170974000Y-110720000D03*
%TO.P,U2,7*%
%TO.N,GND*%
X170974000Y-113260000D03*
%TO.P,U2,6*%
%TO.N,IOREV*%
X170974000Y-115800000D03*
%TO.P,U2,5*%
%TO.N,pinMotorLeftPWM*%
X170974000Y-118340000D03*
%TO.P,U2,4*%
%TO.N,pinMotorLeftDir*%
X170974000Y-120880000D03*
%TO.P,U2,3*%
%TO.N,IOREV*%
X170974000Y-123420000D03*
%TO.P,U2,2*%
%TO.N,GND*%
X170974000Y-125960000D03*
%TO.P,U2,1*%
%TO.N,N/C*%
X170974000Y-128500000D03*
%TD*%
D17*
%TO.P,R4,2*%
%TO.N,+3V3*%
X90390000Y-54790000D03*
D18*
%TO.P,R4,1*%
%TO.N,SDA1*%
X90390000Y-52250000D03*
%TD*%
D17*
%TO.P,R3,2*%
%TO.N,+3V3*%
X68080000Y-54290000D03*
D18*
%TO.P,R3,1*%
%TO.N,SDA0*%
X68080000Y-51750000D03*
%TD*%
D17*
%TO.P,R2,2*%
%TO.N,+3V3*%
X85650000Y-54820000D03*
D18*
%TO.P,R2,1*%
%TO.N,SCL1*%
X85650000Y-52280000D03*
%TD*%
D17*
%TO.P,R1,2*%
%TO.N,+3V3*%
X72780000Y-54290000D03*
D18*
%TO.P,R1,1*%
%TO.N,SCL0*%
X72780000Y-51750000D03*
%TD*%
D19*
%TO.P,JP3,3*%
%TO.N,DUE_3.3V*%
X58960000Y-80440000D03*
%TO.P,JP3,2*%
%TO.N,+3V3*%
X58960000Y-77900000D03*
D20*
%TO.P,JP3,1*%
%TO.N,Net-(D8-Pad1)*%
X58960000Y-75360000D03*
%TD*%
D19*
%TO.P,JP2,2*%
%TO.N,Net-(JP2-Pad2)*%
X62570000Y-126290000D03*
D20*
%TO.P,JP2,1*%
%TO.N,pinBuzzer*%
X62570000Y-123750000D03*
%TD*%
D19*
%TO.P,JP1,3*%
%TO.N,DUE_5V*%
X58920000Y-68700000D03*
%TO.P,JP1,2*%
%TO.N,+5V*%
X58920000Y-66160000D03*
D20*
%TO.P,JP1,1*%
%TO.N,Net-(D7-Pad1)*%
X58920000Y-63620000D03*
%TD*%
D25*
%TO.P,J29,2*%
%TO.N,Net-(D8-Pad2)*%
X44990000Y-74580000D03*
D26*
%TO.P,J29,1*%
%TO.N,GND*%
X44990000Y-69500000D03*
%TD*%
D25*
%TO.P,J25,2*%
%TO.N,Net-(D7-Pad2)*%
X44890000Y-63290000D03*
D26*
%TO.P,J25,1*%
%TO.N,GND*%
X44890000Y-58210000D03*
%TD*%
D27*
%TO.P,D8,2*%
%TO.N,Net-(D8-Pad2)*%
X52370000Y-80950000D03*
D28*
%TO.P,D8,1*%
%TO.N,Net-(D8-Pad1)*%
X52370000Y-70790000D03*
%TD*%
D27*
%TO.P,D7,2*%
%TO.N,Net-(D7-Pad2)*%
X52370000Y-67780000D03*
D28*
%TO.P,D7,1*%
%TO.N,Net-(D7-Pad1)*%
X52370000Y-57620000D03*
%TD*%
D23*
%TO.P,U1,~*%
%TO.N,N/C*%
X195421500Y-38236500D03*
X195421500Y-79003500D03*
D24*
%TO.P,U1,31*%
X173514000Y-42110000D03*
%TO.P,U1,30*%
X173514000Y-44650000D03*
%TO.P,U1,29*%
X173514000Y-52270000D03*
%TO.P,U1,28*%
X173514000Y-54810000D03*
%TO.P,U1,27*%
X173514000Y-57350000D03*
%TO.P,U1,26*%
X173514000Y-64970000D03*
%TO.P,U1,25*%
X173514000Y-67510000D03*
%TO.P,U1,24*%
X194342000Y-50238000D03*
%TO.P,U1,23*%
X194342000Y-53794000D03*
%TO.P,U1,22*%
X194342000Y-57350000D03*
%TO.P,U1,21*%
X194342000Y-60906000D03*
%TO.P,U1,20*%
X194342000Y-64462000D03*
%TO.P,U1,19*%
X194342000Y-68018000D03*
%TO.P,U1,18*%
%TO.N,pinMotorMowSense*%
X170974000Y-37030000D03*
%TO.P,U1,17*%
%TO.N,pinMotorMowFault*%
X170974000Y-39570000D03*
%TO.P,U1,16*%
%TO.N,GND*%
X170974000Y-42110000D03*
%TO.P,U1,15*%
%TO.N,IOREV*%
X170974000Y-44650000D03*
%TO.P,U1,14*%
%TO.N,pinMotorMowPWM*%
X170974000Y-47190000D03*
%TO.P,U1,13*%
%TO.N,pinMotorMowDir*%
X170974000Y-49730000D03*
%TO.P,U1,12*%
%TO.N,N/C*%
X170974000Y-52270000D03*
%TO.P,U1,11*%
X170974000Y-54810000D03*
%TO.P,U1,10*%
%TO.N,pinMotorMowEnable*%
X170974000Y-57350000D03*
%TO.P,U1,9*%
%TO.N,pinMotorMow1Sense*%
X170974000Y-59890000D03*
%TO.P,U1,8*%
%TO.N,pinMotorMowFault*%
X170974000Y-62430000D03*
%TO.P,U1,7*%
%TO.N,GND*%
X170974000Y-64970000D03*
%TO.P,U1,6*%
%TO.N,IOREV*%
X170974000Y-67510000D03*
%TO.P,U1,5*%
%TO.N,pinMotorMowPWM*%
X170974000Y-70050000D03*
%TO.P,U1,4*%
%TO.N,pinMotorMowDir*%
X170974000Y-72590000D03*
%TO.P,U1,3*%
%TO.N,IOREV*%
X170974000Y-75130000D03*
%TO.P,U1,2*%
%TO.N,GND*%
X170974000Y-77670000D03*
%TO.P,U1,1*%
%TO.N,N/C*%
X170974000Y-80210000D03*
%TD*%
D29*
%TO.P,D2,2*%
%TO.N,Net-(D2-Pad2)*%
X49430000Y-40710000D03*
D30*
%TO.P,D2,1*%
%TO.N,GND*%
X49430000Y-38170000D03*
%TD*%
D31*
%TO.P,XA1,MISO*%
%TO.N,N/C*%
X130677000Y-79570000D03*
%TO.P,XA1,GND6*%
%TO.N,GND*%
X163570000Y-102430000D03*
%TO.P,XA1,GND5*%
X161030000Y-102430000D03*
%TO.P,XA1,D53*%
%TO.N,pinBuzzer*%
X163570000Y-99890000D03*
%TO.P,XA1,D52*%
%TO.N,pinRemoteSwitch*%
X161030000Y-99890000D03*
%TO.P,XA1,D51*%
%TO.N,pinButton*%
X163570000Y-97350000D03*
%TO.P,XA1,D50*%
%TO.N,pinChargeEnable*%
X161030000Y-97350000D03*
%TO.P,XA1,D49*%
%TO.N,pinMotorLeftEnable*%
X163570000Y-94810000D03*
%TO.P,XA1,D48*%
%TO.N,pinUserSwitch3*%
X161030000Y-94810000D03*
%TO.P,XA1,D47*%
%TO.N,pinUserSwitch2*%
X163570000Y-92270000D03*
%TO.P,XA1,D46*%
%TO.N,pinUserSwitch1*%
X161030000Y-92270000D03*
%TO.P,XA1,D45*%
%TO.N,pinDropLeft*%
X163570000Y-89730000D03*
%TO.P,XA1,D44*%
%TO.N,pinRain*%
X161030000Y-89730000D03*
%TO.P,XA1,D43*%
%TO.N,pinMotorRight2Enable*%
X163570000Y-87190000D03*
%TO.P,XA1,D42*%
%TO.N,pinMotorLeft2Enable*%
X161030000Y-87190000D03*
%TO.P,XA1,D41*%
%TO.N,pinMotorRight2Dir*%
X163570000Y-84650000D03*
%TO.P,XA1,D40*%
%TO.N,pinMotorLeft2Dir*%
X161030000Y-84650000D03*
%TO.P,XA1,D39*%
%TO.N,pinBumperLeft*%
X163570000Y-82110000D03*
%TO.P,XA1,D38*%
%TO.N,pinBumperRight*%
X161030000Y-82110000D03*
%TO.P,XA1,D37*%
%TO.N,pinMotorEnable*%
X163570000Y-79570000D03*
%TO.P,XA1,D36*%
%TO.N,pinSonarLeftEcho*%
X161030000Y-79570000D03*
%TO.P,XA1,D35*%
%TO.N,pinTilt*%
X163570000Y-77030000D03*
%TO.P,XA1,D34*%
%TO.N,pinSonarLeftTrigger*%
X161030000Y-77030000D03*
%TO.P,XA1,D33*%
%TO.N,pinMotorRightDir*%
X163570000Y-74490000D03*
%TO.P,XA1,D32*%
%TO.N,pinSonarRightEcho*%
X161030000Y-74490000D03*
%TO.P,XA1,D31*%
%TO.N,pinMotorLeftDir*%
X163570000Y-71950000D03*
%TO.P,XA1,D30*%
%TO.N,pinSonarRightTrigger*%
X161030000Y-71950000D03*
%TO.P,XA1,D29*%
%TO.N,pinMotorMowDir*%
X163570000Y-69410000D03*
%TO.P,XA1,D28*%
%TO.N,pinMotorMowEnable*%
X161030000Y-69410000D03*
%TO.P,XA1,D27*%
%TO.N,pinMotorRightFault*%
X163570000Y-66870000D03*
%TO.P,XA1,D26*%
%TO.N,pinMotorMowFault*%
X161030000Y-66870000D03*
%TO.P,XA1,D25*%
%TO.N,pinMotorLeftFault*%
X163570000Y-64330000D03*
%TO.P,XA1,D24*%
%TO.N,pinSonarCenterTrigger*%
X161030000Y-64330000D03*
%TO.P,XA1,D23*%
%TO.N,pinDropRight*%
X163570000Y-61790000D03*
%TO.P,XA1,D22*%
%TO.N,pinSonarCenterEcho*%
X161030000Y-61790000D03*
%TO.P,XA1,5V4*%
%TO.N,N/C*%
X163570000Y-59250000D03*
%TO.P,XA1,5V3*%
X161030000Y-59250000D03*
%TO.P,XA1,CANT*%
%TO.N,pinOdometryRight2*%
X158490000Y-107510000D03*
%TO.P,XA1,CANR*%
%TO.N,pinOdometryRight*%
X155950000Y-107510000D03*
%TO.P,XA1,DAC1*%
%TO.N,pinOdometryLeft2*%
X153410000Y-107510000D03*
%TO.P,XA1,DAC0*%
%TO.N,pinOdometryLeft*%
X150870000Y-107510000D03*
%TO.P,XA1,A11*%
%TO.N,N/C*%
X148330000Y-107510000D03*
%TO.P,XA1,A10*%
%TO.N,pinReserveA10*%
X145790000Y-107510000D03*
%TO.P,XA1,A9*%
%TO.N,pinChargeVoltage*%
X143250000Y-107510000D03*
%TO.P,XA1,A8*%
%TO.N,pinChargeCurrent*%
X140710000Y-107510000D03*
%TO.P,XA1,A7*%
%TO.N,N/C*%
X135630000Y-107510000D03*
%TO.P,XA1,A6*%
%TO.N,pinMotorMow1Sense*%
X133090000Y-107510000D03*
%TO.P,XA1,A5*%
%TO.N,pinPerimeterLeft*%
X130550000Y-107510000D03*
%TO.P,XA1,A4*%
%TO.N,pinPerimeterRight*%
X128010000Y-107510000D03*
%TO.P,XA1,A3*%
%TO.N,pinMotorMowSense*%
X125470000Y-107510000D03*
%TO.P,XA1,A2*%
%TO.N,pinBatteryVoltage*%
X122930000Y-107510000D03*
%TO.P,XA1,A1*%
%TO.N,pinMotorLeftSense*%
X120390000Y-107510000D03*
%TO.P,XA1,*%
%TO.N,*%
X94990000Y-107510000D03*
%TO.P,XA1,D11*%
%TO.N,pinRemoteSteer*%
X101086000Y-59250000D03*
%TO.P,XA1,D12*%
%TO.N,pinRemoteMow*%
X98546000Y-59250000D03*
%TO.P,XA1,D13*%
%TO.N,pinReserveD13*%
X96006000Y-59250000D03*
%TO.P,XA1,AREF*%
%TO.N,Net-(C1-Pad2)*%
X90926000Y-59250000D03*
%TO.P,XA1,SDA1*%
%TO.N,SDA1*%
X88386000Y-59250000D03*
%TO.P,XA1,SCL1*%
%TO.N,SCL1*%
X85846000Y-59250000D03*
%TO.P,XA1,D10*%
%TO.N,pinRemoteSpeed*%
X103626000Y-59250000D03*
%TO.P,XA1,D9*%
%TO.N,pinReserveD9*%
X106166000Y-59250000D03*
%TO.P,XA1,D8*%
%TO.N,pinReserveD8*%
X108706000Y-59250000D03*
%TO.P,XA1,GND1*%
%TO.N,GND*%
X93466000Y-59250000D03*
%TO.P,XA1,D7*%
%TO.N,pinMotorRight2PWM*%
X112770000Y-59250000D03*
%TO.P,XA1,D6*%
%TO.N,pinMotorLeft2PWM*%
X115310000Y-59250000D03*
%TO.P,XA1,D5*%
%TO.N,pinMotorLeftPWM*%
X117850000Y-59250000D03*
%TO.P,XA1,D4*%
%TO.N,pinBatterySwitch*%
X120390000Y-59250000D03*
%TO.P,XA1,D3*%
%TO.N,pinMotorRightPWM*%
X122930000Y-59250000D03*
%TO.P,XA1,D2*%
%TO.N,pinMotorMowPWM*%
X125470000Y-59250000D03*
%TO.P,XA1,D1*%
%TO.N,TX0*%
X128010000Y-59250000D03*
%TO.P,XA1,D0*%
%TO.N,RX0*%
X130550000Y-59250000D03*
%TO.P,XA1,D14*%
%TO.N,RX3*%
X135630000Y-59250000D03*
%TO.P,XA1,D15*%
%TO.N,TX3*%
X138170000Y-59250000D03*
%TO.P,XA1,D16*%
%TO.N,TX2*%
X140710000Y-59250000D03*
%TO.P,XA1,D17*%
%TO.N,RX2*%
X143250000Y-59250000D03*
%TO.P,XA1,D18*%
%TO.N,TX1*%
X145790000Y-59250000D03*
%TO.P,XA1,D19*%
%TO.N,RX1*%
X148330000Y-59250000D03*
%TO.P,XA1,D20*%
%TO.N,SDA0*%
X150870000Y-59250000D03*
%TO.P,XA1,D21*%
%TO.N,SCL0*%
X153410000Y-59250000D03*
%TO.P,XA1,IORF*%
%TO.N,IOREV*%
X97530000Y-107510000D03*
%TO.P,XA1,RST1*%
%TO.N,N/C*%
X100070000Y-107510000D03*
%TO.P,XA1,3V3*%
%TO.N,DUE_3.3V*%
X102610000Y-107510000D03*
%TO.P,XA1,5V1*%
%TO.N,DUE_5V*%
X105150000Y-107510000D03*
%TO.P,XA1,GND2*%
%TO.N,GND*%
X107690000Y-107510000D03*
%TO.P,XA1,GND3*%
X110230000Y-107510000D03*
%TO.P,XA1,VIN*%
%TO.N,+9V*%
X112770000Y-107510000D03*
%TO.P,XA1,A0*%
%TO.N,pinMotorRightSense*%
X117850000Y-107510000D03*
%TO.P,XA1,5V2*%
%TO.N,N/C*%
X133217000Y-79570000D03*
%TO.P,XA1,SCK*%
X130677000Y-82110000D03*
%TO.P,XA1,MOSI*%
X133217000Y-82110000D03*
%TO.P,XA1,GND4*%
X133217000Y-84650000D03*
%TO.P,XA1,RST2*%
X130677000Y-84650000D03*
%TD*%
D23*
%TO.P,SP1,1*%
%TO.N,GND*%
X52660000Y-121010160D03*
%TO.P,SP1,2*%
%TO.N,Net-(JP2-Pad2)*%
X52660000Y-128609840D03*
%TD*%
D17*
%TO.P,R11,2*%
%TO.N,DUE_3.3V*%
X54630000Y-41230000D03*
D18*
%TO.P,R11,1*%
%TO.N,Net-(D2-Pad2)*%
X54630000Y-38690000D03*
%TD*%
D17*
%TO.P,R10,2*%
%TO.N,GND*%
X91630000Y-124970000D03*
D18*
%TO.P,R10,1*%
%TO.N,Net-(J19-Pad3)*%
X91630000Y-127510000D03*
%TD*%
D17*
%TO.P,R9,2*%
%TO.N,pinPerimeterLeft*%
X86840000Y-125060000D03*
D18*
%TO.P,R9,1*%
%TO.N,Net-(J19-Pad3)*%
X86840000Y-127600000D03*
%TD*%
D17*
%TO.P,R8,2*%
%TO.N,GND*%
X96870000Y-124970000D03*
D18*
%TO.P,R8,1*%
%TO.N,Net-(J13-Pad3)*%
X96870000Y-127510000D03*
%TD*%
D17*
%TO.P,R7,2*%
%TO.N,pinPerimeterRight*%
X101580000Y-125060000D03*
D18*
%TO.P,R7,1*%
%TO.N,Net-(J13-Pad3)*%
X101580000Y-127600000D03*
%TD*%
D25*
%TO.P,J1,2*%
%TO.N,Net-(D1-Pad2)*%
X44880000Y-51950000D03*
D26*
%TO.P,J1,1*%
%TO.N,GND*%
X44880000Y-46870000D03*
%TD*%
D27*
%TO.P,D1,2*%
%TO.N,Net-(D1-Pad2)*%
X52370000Y-54400000D03*
D28*
%TO.P,D1,1*%
%TO.N,+9V*%
X52370000Y-44240000D03*
%TD*%
D18*
%TO.P,C1,2*%
%TO.N,Net-(C1-Pad2)*%
X60590000Y-55990000D03*
D32*
%TO.P,C1,1*%
%TO.N,GND*%
X58090000Y-55990000D03*
%TD*%
D33*
%TO.N,IOREV*%
X175187800Y-86893500D03*
%TO.N,pinMotorRightPWM*%
X147813100Y-83355000D03*
%TO.N,pinMotorEnable*%
X176899000Y-86902000D03*
%TO.N,pinMotorRightDir*%
X166335800Y-78832800D03*
X179332100Y-90872100D03*
%TO.N,pinMotorLeftDir*%
X186013200Y-76273300D03*
%TO.N,pinMotorMowSense*%
X173759800Y-85556600D03*
%TO.N,pinDropRight*%
X152426300Y-90571000D03*
%TO.N,pinTilt*%
X127259700Y-93863400D03*
%TO.N,pinSonarLeftTrigger*%
X158957900Y-69944500D03*
%TO.N,pinChargeVoltage*%
X124421600Y-88920600D03*
%TO.N,pinChargeCurrent*%
X124786500Y-90499600D03*
%TO.N,pinBatteryVoltage*%
X85838600Y-83813000D03*
%TO.N,pinMotorMow1Sense*%
X172592700Y-85745200D03*
%TO.N,pinChargeEnable*%
X133674000Y-92785300D03*
%TD*%
D34*
%TO.N,SCL1*%
X85846000Y-59250000D02*
X85846000Y-58005100D01*
X85846000Y-58005100D02*
X86863300Y-56987800D01*
X86863300Y-56987800D02*
X86863300Y-53493300D01*
X86863300Y-53493300D02*
X85650000Y-52280000D01*
%TO.N,SDA1*%
X88386000Y-59250000D02*
X88386000Y-54254000D01*
X88386000Y-54254000D02*
X90390000Y-52250000D01*
D35*
%TO.N,GND*%
X54030000Y-114690000D02*
X52660000Y-116060000D01*
X52660000Y-116060000D02*
X52660000Y-121010200D01*
X55551900Y-113168100D02*
X54030000Y-114690000D01*
X163570000Y-102430000D02*
X163570000Y-103797900D01*
X170974000Y-113260000D02*
X166545600Y-108831600D01*
X166545600Y-108831600D02*
X166545600Y-106773500D01*
X166545600Y-106773500D02*
X163570000Y-103797900D01*
X152330000Y-45080000D02*
X150850700Y-45080000D01*
X142760000Y-45050000D02*
X150820700Y-45050000D01*
X150820700Y-45050000D02*
X150850700Y-45080000D01*
X185059400Y-72680000D02*
X185059400Y-77670000D01*
X185059400Y-56609400D02*
X185059400Y-72680000D01*
X185059400Y-72680000D02*
X203230000Y-72680000D01*
X185059400Y-77670000D02*
X185059400Y-80510100D01*
X185059400Y-80510100D02*
X185560000Y-81010700D01*
X185059400Y-77670000D02*
X170974000Y-77670000D01*
X185560000Y-82490000D02*
X185560000Y-81010700D01*
X183580000Y-55130000D02*
X185059400Y-56609400D01*
X185059400Y-56609400D02*
X203398800Y-38270000D01*
X203398800Y-38270000D02*
X205750000Y-38270000D01*
X145330000Y-118710000D02*
X143510000Y-120530000D01*
X143510000Y-120530000D02*
X143510000Y-126060000D01*
X79860000Y-41970000D02*
X78380700Y-41970000D01*
X70480000Y-41880000D02*
X78290700Y-41880000D01*
X78290700Y-41880000D02*
X78380700Y-41970000D01*
X44880000Y-46870000D02*
X44880000Y-48874300D01*
X49088700Y-56015600D02*
X46894300Y-58210000D01*
X56785700Y-55990000D02*
X56760100Y-56015600D01*
X56760100Y-56015600D02*
X49088700Y-56015600D01*
X44880000Y-48874300D02*
X49088700Y-53083000D01*
X49088700Y-53083000D02*
X49088700Y-56015600D01*
X58090000Y-55990000D02*
X58090000Y-57294300D01*
X73190000Y-76570000D02*
X62089400Y-65469400D01*
X62089400Y-65469400D02*
X62089400Y-61293700D01*
X62089400Y-61293700D02*
X58090000Y-57294300D01*
X44890000Y-58210000D02*
X46894300Y-58210000D01*
X58090000Y-55990000D02*
X56785700Y-55990000D01*
X159617300Y-122927000D02*
X156394300Y-126150000D01*
X170974000Y-125960000D02*
X170974000Y-126200900D01*
X170974000Y-126200900D02*
X167878600Y-129296300D01*
X167878600Y-129296300D02*
X165986600Y-129296300D01*
X165986600Y-129296300D02*
X159617300Y-122927000D01*
X159617300Y-122927000D02*
X159617300Y-121637300D01*
X159617300Y-121637300D02*
X156900000Y-118920000D01*
X155090000Y-126150000D02*
X156394300Y-126150000D01*
X185560000Y-82490000D02*
X185560000Y-83969300D01*
X185680000Y-94250000D02*
X185680000Y-84089300D01*
X185680000Y-84089300D02*
X185560000Y-83969300D01*
X185920000Y-106000700D02*
X185680000Y-105760700D01*
X185680000Y-105760700D02*
X185680000Y-94250000D01*
X122630000Y-118910000D02*
X120800000Y-120740000D01*
X120800000Y-120740000D02*
X120800000Y-126040000D01*
X65276100Y-116063900D02*
X66760000Y-114580000D01*
X55551900Y-113168100D02*
X58447700Y-116063900D01*
X58447700Y-116063900D02*
X65276100Y-116063900D01*
X65276100Y-116063900D02*
X65276100Y-119566100D01*
X65276100Y-119566100D02*
X71130000Y-125420000D01*
X54090000Y-104750000D02*
X55551900Y-106211900D01*
X55551900Y-106211900D02*
X55551900Y-113168100D01*
X77759700Y-120269600D02*
X78720000Y-121230000D01*
X78720000Y-116230000D02*
X77191900Y-117758100D01*
X77191900Y-117758100D02*
X77191900Y-119701900D01*
X77191900Y-119701900D02*
X77759700Y-120269600D01*
X77759700Y-120269600D02*
X72609300Y-125420000D01*
X71130000Y-125420000D02*
X72609300Y-125420000D01*
X185920000Y-107480000D02*
X185920000Y-106000700D01*
X107690000Y-107510000D02*
X107690000Y-108877900D01*
X108380000Y-116470000D02*
X106884200Y-114974200D01*
X106884200Y-114974200D02*
X106884200Y-109683700D01*
X106884200Y-109683700D02*
X107690000Y-108877900D01*
X93636000Y-76650000D02*
X101350000Y-76650000D01*
X101350000Y-76650000D02*
X101580000Y-76880000D01*
X92120000Y-76650000D02*
X93636000Y-76650000D01*
X93636000Y-76650000D02*
X93636000Y-60787900D01*
X93636000Y-60787900D02*
X93466000Y-60617900D01*
X93466000Y-59250000D02*
X93466000Y-60617900D01*
X133310000Y-44920000D02*
X131830700Y-44920000D01*
X124820000Y-44870000D02*
X131780700Y-44870000D01*
X131780700Y-44870000D02*
X131830700Y-44920000D01*
X96870000Y-124970000D02*
X96870000Y-118040000D01*
X96870000Y-118040000D02*
X98440000Y-116470000D01*
X203230000Y-77680000D02*
X204717200Y-76192800D01*
X204717200Y-76192800D02*
X204717200Y-74167200D01*
X204717200Y-74167200D02*
X203230000Y-72680000D01*
X44890000Y-58210000D02*
X44890000Y-60214300D01*
X44990000Y-69500000D02*
X44990000Y-67495700D01*
X44990000Y-67495700D02*
X42885700Y-65391400D01*
X42885700Y-65391400D02*
X42885700Y-62218600D01*
X42885700Y-62218600D02*
X44890000Y-60214300D01*
D36*
%TO.N,+9V*%
X52370000Y-44240000D02*
X52370000Y-45771300D01*
X112770000Y-107510000D02*
X83530800Y-78270800D01*
X83530800Y-78270800D02*
X81999200Y-78270800D01*
X81999200Y-78270800D02*
X66848600Y-63120200D01*
X66848600Y-63120200D02*
X66848600Y-60249900D01*
X66848600Y-60249900D02*
X52370000Y-45771300D01*
D34*
%TO.N,pinMotorRightFault*%
X163570000Y-66870000D02*
X163570000Y-68114900D01*
X163570000Y-68114900D02*
X164036900Y-68114900D01*
X164036900Y-68114900D02*
X167164800Y-71242800D01*
X167164800Y-71242800D02*
X167164800Y-84050800D01*
X167164800Y-84050800D02*
X170974000Y-87860000D01*
%TO.N,IOREV*%
X170974000Y-75130000D02*
X169801100Y-76302900D01*
X169801100Y-76302900D02*
X169801100Y-78148700D01*
X169801100Y-78148700D02*
X170592400Y-78940000D01*
X170592400Y-78940000D02*
X171337100Y-78940000D01*
X171337100Y-78940000D02*
X175187800Y-82790700D01*
X175187800Y-82790700D02*
X175187800Y-86893500D01*
%TO.N,pinMotorRightPWM*%
X124174900Y-59250000D02*
X124174900Y-59716800D01*
X124174900Y-59716800D02*
X147813100Y-83355000D01*
X122930000Y-59250000D02*
X124174900Y-59250000D01*
%TO.N,pinMotorEnable*%
X178060000Y-82490000D02*
X178060000Y-85741000D01*
X178060000Y-85741000D02*
X176899000Y-86902000D01*
%TO.N,pinMotorRightDir*%
X163570000Y-74490000D02*
X163570000Y-75734900D01*
X163570000Y-75734900D02*
X164036800Y-75734900D01*
X164036800Y-75734900D02*
X166335800Y-78033900D01*
X166335800Y-78033900D02*
X166335800Y-78832800D01*
X180560000Y-83846300D02*
X180560000Y-89644200D01*
X180560000Y-89644200D02*
X179332100Y-90872100D01*
X180560000Y-82490000D02*
X180560000Y-83846300D01*
%TO.N,pinMotorLeftFault*%
X163570000Y-65574900D02*
X164036800Y-65574900D01*
X164036800Y-65574900D02*
X167950800Y-69488900D01*
X167950800Y-69488900D02*
X167950800Y-83958400D01*
X167950800Y-83958400D02*
X170582400Y-86590000D01*
X170582400Y-86590000D02*
X173716500Y-86590000D01*
X173716500Y-86590000D02*
X174845800Y-87719300D01*
X174845800Y-87719300D02*
X175008100Y-87719300D01*
X175008100Y-87719300D02*
X179184500Y-91895700D01*
X179184500Y-91895700D02*
X182713700Y-91895700D01*
X182713700Y-91895700D02*
X184411400Y-93593400D01*
X184411400Y-93593400D02*
X184411400Y-100472100D01*
X184411400Y-100472100D02*
X184670000Y-100730700D01*
X184670000Y-100730700D02*
X184670000Y-108125900D01*
X184670000Y-108125900D02*
X182075900Y-110720000D01*
X182075900Y-110720000D02*
X170974000Y-110720000D01*
X163570000Y-64330000D02*
X163570000Y-65574900D01*
%TO.N,pinMotorLeftPWM*%
X117850000Y-59250000D02*
X117850000Y-63817700D01*
X117850000Y-63817700D02*
X131972000Y-77939700D01*
X131972000Y-77939700D02*
X131972000Y-80146400D01*
X131972000Y-80146400D02*
X132665600Y-80840000D01*
X132665600Y-80840000D02*
X133732600Y-80840000D01*
X133732600Y-80840000D02*
X148972600Y-96080000D01*
X148972600Y-96080000D02*
X161568900Y-96080000D01*
X161568900Y-96080000D02*
X162325000Y-96836100D01*
X162325000Y-96836100D02*
X162325000Y-103445800D01*
X162325000Y-103445800D02*
X165573400Y-106694200D01*
X165573400Y-106694200D02*
X165573400Y-112939400D01*
X165573400Y-112939400D02*
X170974000Y-118340000D01*
%TO.N,pinMotorLeftDir*%
X180900000Y-119250000D02*
X182131300Y-119250000D01*
X182131300Y-119250000D02*
X182131300Y-118018700D01*
X182131300Y-118018700D02*
X187169500Y-112980500D01*
X187169500Y-112980500D02*
X187169500Y-95625500D01*
X187169500Y-95625500D02*
X186929400Y-95385400D01*
X186929400Y-95385400D02*
X186929400Y-88350800D01*
X186929400Y-88350800D02*
X186819200Y-88240600D01*
X186819200Y-88240600D02*
X186819200Y-77079300D01*
X186819200Y-77079300D02*
X186013200Y-76273300D01*
%TO.N,pinMotorMowSense*%
X170974000Y-37030000D02*
X174694400Y-40750400D01*
X174694400Y-40750400D02*
X174694400Y-60353200D01*
X174694400Y-60353200D02*
X171347600Y-63700000D01*
X171347600Y-63700000D02*
X170589100Y-63700000D01*
X170589100Y-63700000D02*
X169292700Y-64996400D01*
X169292700Y-64996400D02*
X169292700Y-80178200D01*
X169292700Y-80178200D02*
X173759800Y-84645300D01*
X173759800Y-84645300D02*
X173759800Y-85556600D01*
%TO.N,pinMotorMowFault*%
X170974000Y-62430000D02*
X172164600Y-61239400D01*
X172164600Y-61239400D02*
X172164600Y-40760600D01*
X172164600Y-40760600D02*
X170974000Y-39570000D01*
%TO.N,pinMotorMowPWM*%
X183580000Y-57630000D02*
X183580000Y-58861300D01*
X170974000Y-70050000D02*
X172592100Y-70050000D01*
X172592100Y-70050000D02*
X180897700Y-61744400D01*
X180897700Y-61744400D02*
X180897700Y-60684900D01*
X180897700Y-60684900D02*
X182721300Y-58861300D01*
X182721300Y-58861300D02*
X183580000Y-58861300D01*
%TO.N,pinMotorMowDir*%
X183580000Y-60130000D02*
X182223700Y-60130000D01*
X170974000Y-72590000D02*
X182223700Y-61340300D01*
X182223700Y-61340300D02*
X182223700Y-60130000D01*
%TO.N,pinMotorMowEnable*%
X161030000Y-69410000D02*
X161030000Y-68165100D01*
X161030000Y-68165100D02*
X161496900Y-68165100D01*
X161496900Y-68165100D02*
X162274900Y-67387100D01*
X162274900Y-67387100D02*
X162274900Y-63849200D01*
X162274900Y-63849200D02*
X163064100Y-63060000D01*
X163064100Y-63060000D02*
X165264000Y-63060000D01*
X165264000Y-63060000D02*
X170974000Y-57350000D01*
%TO.N,pinDropRight*%
X162325100Y-61790000D02*
X162325100Y-62256900D01*
X162325100Y-62256900D02*
X161547100Y-63034900D01*
X161547100Y-63034900D02*
X160517400Y-63034900D01*
X160517400Y-63034900D02*
X159784400Y-63767900D01*
X159784400Y-63767900D02*
X159784400Y-69974700D01*
X159784400Y-69974700D02*
X160514700Y-70705000D01*
X160514700Y-70705000D02*
X161630600Y-70705000D01*
X161630600Y-70705000D02*
X162275000Y-71349400D01*
X162275000Y-71349400D02*
X162275000Y-80146400D01*
X162275000Y-80146400D02*
X161581400Y-80840000D01*
X161581400Y-80840000D02*
X160516900Y-80840000D01*
X160516900Y-80840000D02*
X152426300Y-88930600D01*
X152426300Y-88930600D02*
X152426300Y-90571000D01*
X163570000Y-61790000D02*
X162325100Y-61790000D01*
%TO.N,pinRemoteSwitch*%
X62030000Y-48041300D02*
X64557400Y-50568700D01*
X64557400Y-50568700D02*
X90390500Y-50568700D01*
X90390500Y-50568700D02*
X97276000Y-57454200D01*
X97276000Y-57454200D02*
X97276000Y-59758100D01*
X97276000Y-59758100D02*
X99708100Y-62190200D01*
X99708100Y-62190200D02*
X101911100Y-62190200D01*
X101911100Y-62190200D02*
X139610900Y-99890000D01*
X139610900Y-99890000D02*
X161030000Y-99890000D01*
X62030000Y-46810000D02*
X62030000Y-48041300D01*
%TO.N,pinSonarLeftEcho*%
X162140000Y-50170000D02*
X162140000Y-48938700D01*
X161030000Y-79570000D02*
X161030000Y-78325100D01*
X161030000Y-78325100D02*
X160563200Y-78325100D01*
X160563200Y-78325100D02*
X152140000Y-69901900D01*
X152140000Y-69901900D02*
X152140000Y-55100200D01*
X152140000Y-55100200D02*
X150902300Y-53862500D01*
X150902300Y-53862500D02*
X150902300Y-47068600D01*
X150902300Y-47068600D02*
X151640900Y-46330000D01*
X151640900Y-46330000D02*
X161220800Y-46330000D01*
X161220800Y-46330000D02*
X161310800Y-46420000D01*
X161310800Y-46420000D02*
X162807200Y-46420000D01*
X162807200Y-46420000D02*
X163526100Y-47138900D01*
X163526100Y-47138900D02*
X163526100Y-48187800D01*
X163526100Y-48187800D02*
X162775200Y-48938700D01*
X162775200Y-48938700D02*
X162140000Y-48938700D01*
%TO.N,pinTilt*%
X108380000Y-113970000D02*
X108380000Y-112738700D01*
X127259700Y-93863400D02*
X124200800Y-96922300D01*
X124200800Y-96922300D02*
X124200800Y-108042500D01*
X124200800Y-108042500D02*
X122504800Y-109738500D01*
X122504800Y-109738500D02*
X111380200Y-109738500D01*
X111380200Y-109738500D02*
X108380000Y-112738700D01*
%TO.N,pinSonarLeftTrigger*%
X162140000Y-47670000D02*
X159246900Y-50563100D01*
X159246900Y-50563100D02*
X159246900Y-69655500D01*
X159246900Y-69655500D02*
X158957900Y-69944500D01*
%TO.N,pinSonarRightEcho*%
X152330000Y-50080000D02*
X152330000Y-51311300D01*
X161030000Y-74490000D02*
X161030000Y-73245100D01*
X161030000Y-73245100D02*
X160329700Y-73245100D01*
X160329700Y-73245100D02*
X154681100Y-67596500D01*
X154681100Y-67596500D02*
X154681100Y-53662400D01*
X154681100Y-53662400D02*
X152330000Y-51311300D01*
%TO.N,pinSonarRightTrigger*%
X159785100Y-71950000D02*
X155189500Y-67354400D01*
X155189500Y-67354400D02*
X155189500Y-51035600D01*
X155189500Y-51035600D02*
X152965200Y-48811300D01*
X152965200Y-48811300D02*
X152330000Y-48811300D01*
X152330000Y-47580000D02*
X152330000Y-48811300D01*
X161030000Y-71950000D02*
X159785100Y-71950000D01*
%TO.N,pinChargeVoltage*%
X142005100Y-107510000D02*
X142005100Y-106504100D01*
X142005100Y-106504100D02*
X124421600Y-88920600D01*
X143250000Y-107510000D02*
X142005100Y-107510000D01*
%TO.N,pinChargeCurrent*%
X140710000Y-107510000D02*
X140710000Y-106128900D01*
X140710000Y-106128900D02*
X125080700Y-90499600D01*
X125080700Y-90499600D02*
X124786500Y-90499600D01*
%TO.N,pinPerimeterLeft*%
X88021300Y-125060000D02*
X88021300Y-125636000D01*
X88021300Y-125636000D02*
X91172100Y-128786800D01*
X91172100Y-128786800D02*
X105106600Y-128786800D01*
X105106600Y-128786800D02*
X122508200Y-111385200D01*
X122508200Y-111385200D02*
X125896700Y-111385200D01*
X125896700Y-111385200D02*
X129305100Y-107976800D01*
X129305100Y-107976800D02*
X129305100Y-107510000D01*
X86840000Y-125060000D02*
X88021300Y-125060000D01*
X130550000Y-107510000D02*
X129305100Y-107510000D01*
%TO.N,pinPerimeterRight*%
X101580000Y-125060000D02*
X107722400Y-125060000D01*
X107722400Y-125060000D02*
X122355800Y-110426600D01*
X122355800Y-110426600D02*
X124315400Y-110426600D01*
X124315400Y-110426600D02*
X126765100Y-107976900D01*
X126765100Y-107976900D02*
X126765100Y-107510000D01*
X128010000Y-107510000D02*
X126765100Y-107510000D01*
%TO.N,pinBatteryVoltage*%
X122930000Y-107510000D02*
X121685100Y-107510000D01*
X121685100Y-107510000D02*
X121685100Y-107976800D01*
X121685100Y-107976800D02*
X120906900Y-108755000D01*
X120906900Y-108755000D02*
X109664800Y-108755000D01*
X109664800Y-108755000D02*
X108960000Y-108050200D01*
X108960000Y-108050200D02*
X108960000Y-106934400D01*
X108960000Y-106934400D02*
X85838600Y-83813000D01*
%TO.N,pinRemoteSteer*%
X63386300Y-41810000D02*
X63386300Y-42392800D01*
X63386300Y-42392800D02*
X70545500Y-49552000D01*
X70545500Y-49552000D02*
X90921200Y-49552000D01*
X90921200Y-49552000D02*
X99841100Y-58471900D01*
X99841100Y-58471900D02*
X99841100Y-59250000D01*
X62030000Y-41810000D02*
X63386300Y-41810000D01*
X101086000Y-59250000D02*
X99841100Y-59250000D01*
%TO.N,pinRemoteMow*%
X62030000Y-45541300D02*
X65546700Y-45541300D01*
X65546700Y-45541300D02*
X70065800Y-50060400D01*
X70065800Y-50060400D02*
X90638100Y-50060400D01*
X90638100Y-50060400D02*
X98546000Y-57968300D01*
X98546000Y-57968300D02*
X98546000Y-59250000D01*
X62030000Y-44310000D02*
X62030000Y-45541300D01*
%TO.N,pinRemoteSpeed*%
X62030000Y-39310000D02*
X66290000Y-43570000D01*
X66290000Y-43570000D02*
X66290000Y-44562200D01*
X66290000Y-44562200D02*
X70681700Y-48953900D01*
X70681700Y-48953900D02*
X92551800Y-48953900D01*
X92551800Y-48953900D02*
X102381100Y-58783200D01*
X102381100Y-58783200D02*
X102381100Y-59250000D01*
X103626000Y-59250000D02*
X102381100Y-59250000D01*
%TO.N,SCL0*%
X70480000Y-46880000D02*
X71836300Y-46880000D01*
X79860000Y-46970000D02*
X71926300Y-46970000D01*
X71926300Y-46970000D02*
X71836300Y-46880000D01*
%TO.N,SDA0*%
X79860000Y-44470000D02*
X79860000Y-45701300D01*
X150870000Y-59250000D02*
X149625100Y-59250000D01*
X149625100Y-59250000D02*
X149625100Y-59716800D01*
X149625100Y-59716800D02*
X148843100Y-60498800D01*
X148843100Y-60498800D02*
X134491500Y-60498800D01*
X134491500Y-60498800D02*
X130866800Y-56874100D01*
X130866800Y-56874100D02*
X101856700Y-56874100D01*
X101856700Y-56874100D02*
X93428100Y-48445500D01*
X93428100Y-48445500D02*
X83835500Y-48445500D01*
X83835500Y-48445500D02*
X81091300Y-45701300D01*
X81091300Y-45701300D02*
X79860000Y-45701300D01*
X79860000Y-44470000D02*
X78503700Y-44470000D01*
X70480000Y-44380000D02*
X78413700Y-44380000D01*
X78413700Y-44380000D02*
X78503700Y-44470000D01*
%TO.N,TX2*%
X139465100Y-59250000D02*
X139465100Y-58783200D01*
X139465100Y-58783200D02*
X134716400Y-54034500D01*
X134716400Y-54034500D02*
X118634100Y-54034500D01*
X118634100Y-54034500D02*
X114991400Y-50391800D01*
X114991400Y-50391800D02*
X114991400Y-49394700D01*
X114991400Y-49394700D02*
X115784800Y-48601300D01*
X115784800Y-48601300D02*
X116420000Y-48601300D01*
X116420000Y-47370000D02*
X116420000Y-48601300D01*
X140710000Y-59250000D02*
X139465100Y-59250000D01*
%TO.N,RX2*%
X142005100Y-59250000D02*
X142005100Y-58783200D01*
X142005100Y-58783200D02*
X136397000Y-53175100D01*
X136397000Y-53175100D02*
X118493800Y-53175100D01*
X118493800Y-53175100D02*
X116420000Y-51101300D01*
X116420000Y-49870000D02*
X116420000Y-51101300D01*
X143250000Y-59250000D02*
X142005100Y-59250000D01*
%TO.N,TX1*%
X124820000Y-48601300D02*
X124204400Y-48601300D01*
X124204400Y-48601300D02*
X123432600Y-49373100D01*
X123432600Y-49373100D02*
X123432600Y-50400100D01*
X123432600Y-50400100D02*
X125699300Y-52666800D01*
X125699300Y-52666800D02*
X138428700Y-52666800D01*
X138428700Y-52666800D02*
X144545100Y-58783200D01*
X144545100Y-58783200D02*
X144545100Y-59250000D01*
X124820000Y-47370000D02*
X124820000Y-48601300D01*
X145790000Y-59250000D02*
X144545100Y-59250000D01*
%TO.N,RX1*%
X124820000Y-49870000D02*
X127108500Y-52158500D01*
X127108500Y-52158500D02*
X140460400Y-52158500D01*
X140460400Y-52158500D02*
X147085100Y-58783200D01*
X147085100Y-58783200D02*
X147085100Y-59250000D01*
X148330000Y-59250000D02*
X147085100Y-59250000D01*
D36*
%TO.N,+5V*%
X58920000Y-66160000D02*
X57066200Y-68013800D01*
X57066200Y-68013800D02*
X57066200Y-99581900D01*
X57066200Y-99581900D02*
X71130000Y-113645700D01*
X71130000Y-113645700D02*
X71130000Y-122920000D01*
X133750000Y-116260000D02*
X132343700Y-116260000D01*
X122630000Y-116410000D02*
X132193700Y-116410000D01*
X132193700Y-116410000D02*
X132343700Y-116260000D01*
%TO.N,+3V3*%
X44970000Y-96330000D02*
X50177900Y-96330000D01*
X50177900Y-96330000D02*
X64260000Y-110412100D01*
X64260000Y-110412100D02*
X64260000Y-114580000D01*
X108380000Y-118970000D02*
X99007400Y-109597400D01*
X99007400Y-109597400D02*
X86293200Y-109597400D01*
X86293200Y-109597400D02*
X57674600Y-80978800D01*
X57674600Y-80978800D02*
X57674600Y-79185400D01*
X57674600Y-79185400D02*
X58960000Y-77900000D01*
X142760000Y-42550000D02*
X152300000Y-42550000D01*
X152300000Y-42550000D02*
X152330000Y-42580000D01*
X156900000Y-113920000D02*
X165155100Y-122175100D01*
X165155100Y-122175100D02*
X165155100Y-125785100D01*
X165155100Y-125785100D02*
X167310000Y-127940000D01*
X133750000Y-113760000D02*
X132343700Y-113760000D01*
X122630000Y-113910000D02*
X132193700Y-113910000D01*
X132193700Y-113910000D02*
X132343700Y-113760000D01*
D34*
%TO.N,Net-(J13-Pad3)*%
X99856200Y-127510000D02*
X99856200Y-115982300D01*
X99856200Y-115982300D02*
X99075200Y-115201300D01*
X99075200Y-115201300D02*
X98440000Y-115201300D01*
X101580000Y-127600000D02*
X99946200Y-127600000D01*
X99946200Y-127600000D02*
X99856200Y-127510000D01*
X99856200Y-127510000D02*
X96870000Y-127510000D01*
X98440000Y-113970000D02*
X98440000Y-115201300D01*
%TO.N,Net-(J26-Pad1)*%
X188420000Y-107480000D02*
X188420000Y-94490000D01*
X188420000Y-94490000D02*
X188180000Y-94250000D01*
X188400000Y-119250000D02*
X188420000Y-119230000D01*
X188420000Y-119230000D02*
X188420000Y-107480000D01*
X188180000Y-94250000D02*
X188180000Y-82610000D01*
X188180000Y-82610000D02*
X188060000Y-82490000D01*
X167310000Y-125400000D02*
X168541300Y-125400000D01*
X168541300Y-125400000D02*
X169251300Y-124690000D01*
X169251300Y-124690000D02*
X182960000Y-124690000D01*
X182960000Y-124690000D02*
X188400000Y-119250000D01*
%TO.N,Net-(J19-Pad3)*%
X88580000Y-113880000D02*
X88580000Y-115111300D01*
X91630000Y-127510000D02*
X90429100Y-126309100D01*
X90429100Y-126309100D02*
X90429100Y-116325200D01*
X90429100Y-116325200D02*
X89215200Y-115111300D01*
X89215200Y-115111300D02*
X88580000Y-115111300D01*
%TO.N,Net-(D7-Pad2)*%
X52370000Y-67780000D02*
X50888700Y-67780000D01*
X50888700Y-67780000D02*
X46398700Y-63290000D01*
X46398700Y-63290000D02*
X44890000Y-63290000D01*
%TO.N,Net-(D7-Pad1)*%
X58920000Y-63620000D02*
X58920000Y-62388700D01*
X52370000Y-57620000D02*
X53851300Y-57620000D01*
X53851300Y-57620000D02*
X58620000Y-62388700D01*
X58620000Y-62388700D02*
X58920000Y-62388700D01*
%TO.N,Net-(D8-Pad2)*%
X52370000Y-80950000D02*
X50888700Y-80950000D01*
X50888700Y-80950000D02*
X50888700Y-80478700D01*
X50888700Y-80478700D02*
X44990000Y-74580000D01*
D36*
%TO.N,DUE_5V*%
X60201300Y-68700000D02*
X76190100Y-84688800D01*
X76190100Y-84688800D02*
X82328800Y-84688800D01*
X82328800Y-84688800D02*
X105150000Y-107510000D01*
X58920000Y-68700000D02*
X60201300Y-68700000D01*
%TO.N,DUE_3.3V*%
X58960000Y-80440000D02*
X60241300Y-80440000D01*
X102610000Y-107510000D02*
X98154100Y-103054100D01*
X98154100Y-103054100D02*
X82855400Y-103054100D01*
X82855400Y-103054100D02*
X60241300Y-80440000D01*
D34*
%TO.N,RX3*%
X134385100Y-59250000D02*
X130905000Y-55769900D01*
X130905000Y-55769900D02*
X112508600Y-55769900D01*
X112508600Y-55769900D02*
X107870000Y-51131300D01*
X107870000Y-49900000D02*
X107870000Y-51131300D01*
X135630000Y-59250000D02*
X134385100Y-59250000D01*
%TO.N,TX3*%
X136925100Y-59250000D02*
X136925100Y-58783200D01*
X136925100Y-58783200D02*
X132895200Y-54753300D01*
X132895200Y-54753300D02*
X115223300Y-54753300D01*
X115223300Y-54753300D02*
X109101300Y-48631300D01*
X109101300Y-48631300D02*
X107870000Y-48631300D01*
X107870000Y-47400000D02*
X107870000Y-48631300D01*
X138170000Y-59250000D02*
X136925100Y-59250000D01*
%TO.N,pinReserveA10*%
X145790000Y-107510000D02*
X144545100Y-107510000D01*
X144545100Y-107510000D02*
X144545100Y-107043200D01*
X144545100Y-107043200D02*
X111881900Y-74380000D01*
X111881900Y-74380000D02*
X101580000Y-74380000D01*
%TO.N,pinOdometryRight*%
X155950000Y-107510000D02*
X154705100Y-107510000D01*
X154705100Y-107510000D02*
X154705100Y-107043200D01*
X154705100Y-107043200D02*
X153913500Y-106251600D01*
X153913500Y-106251600D02*
X150299400Y-106251600D01*
X150299400Y-106251600D02*
X149600100Y-106950900D01*
X149600100Y-106950900D02*
X149600100Y-108037400D01*
X149600100Y-108037400D02*
X145353000Y-112284500D01*
X145353000Y-112284500D02*
X144822100Y-112284500D01*
X144822100Y-112284500D02*
X136540000Y-120566600D01*
X136540000Y-120566600D02*
X136540000Y-126040000D01*
%TO.N,pinOdometryLeft*%
X159680000Y-126220000D02*
X158498700Y-126220000D01*
X150870000Y-107510000D02*
X150870000Y-108754900D01*
X150870000Y-108754900D02*
X147029700Y-112595200D01*
X147029700Y-112595200D02*
X147029700Y-126612500D01*
X147029700Y-126612500D02*
X147748500Y-127331300D01*
X147748500Y-127331300D02*
X157387400Y-127331300D01*
X157387400Y-127331300D02*
X158498700Y-126220000D01*
%TO.N,Net-(J42-Pad1)*%
X180750000Y-40860000D02*
X180750000Y-42091300D01*
X180750000Y-42091300D02*
X181211700Y-42091300D01*
X181211700Y-42091300D02*
X183580000Y-44459600D01*
X183580000Y-44459600D02*
X183580000Y-52630000D01*
%TO.N,pinOdometryRight2*%
X125420000Y-126040000D02*
X126601300Y-126040000D01*
X158490000Y-107510000D02*
X157245100Y-107510000D01*
X157245100Y-107510000D02*
X157245100Y-107043200D01*
X157245100Y-107043200D02*
X155907200Y-105705300D01*
X155907200Y-105705300D02*
X148325000Y-105705300D01*
X148325000Y-105705300D02*
X147060000Y-106970300D01*
X147060000Y-106970300D02*
X147060000Y-108049400D01*
X147060000Y-108049400D02*
X135100000Y-120009400D01*
X135100000Y-120009400D02*
X132631900Y-120009400D01*
X132631900Y-120009400D02*
X126601300Y-126040000D01*
%TO.N,pinOdometryLeft2*%
X153410000Y-107510000D02*
X153410000Y-108754900D01*
X153410000Y-108754900D02*
X148240000Y-113924900D01*
X148240000Y-113924900D02*
X148240000Y-126080000D01*
%TO.N,pinMotorRight2Dir*%
X180680000Y-94250000D02*
X179448700Y-94250000D01*
X163570000Y-84650000D02*
X170547300Y-91627300D01*
X170547300Y-91627300D02*
X177451000Y-91627300D01*
X177451000Y-91627300D02*
X179448700Y-93625000D01*
X179448700Y-93625000D02*
X179448700Y-94250000D01*
%TO.N,pinMotorRight2PWM*%
X181948700Y-94250000D02*
X181948700Y-93614800D01*
X181948700Y-93614800D02*
X181163500Y-92829600D01*
X181163500Y-92829600D02*
X179399600Y-92829600D01*
X179399600Y-92829600D02*
X175621200Y-89051200D01*
X175621200Y-89051200D02*
X169806000Y-89051200D01*
X169806000Y-89051200D02*
X164134800Y-83380000D01*
X164134800Y-83380000D02*
X160534000Y-83380000D01*
X160534000Y-83380000D02*
X153252100Y-90661900D01*
X153252100Y-90661900D02*
X153252100Y-90927200D01*
X153252100Y-90927200D02*
X152777200Y-91402100D01*
X152777200Y-91402100D02*
X152089300Y-91402100D01*
X152089300Y-91402100D02*
X151365200Y-90678000D01*
X151365200Y-90678000D02*
X151365200Y-89509900D01*
X151365200Y-89509900D02*
X121660000Y-59804700D01*
X121660000Y-59804700D02*
X121660000Y-58749200D01*
X121660000Y-58749200D02*
X120331800Y-57421000D01*
X120331800Y-57421000D02*
X115377000Y-57421000D01*
X115377000Y-57421000D02*
X114014900Y-58783100D01*
X114014900Y-58783100D02*
X114014900Y-59250000D01*
X183180000Y-94250000D02*
X181948700Y-94250000D01*
X112770000Y-59250000D02*
X114014900Y-59250000D01*
%TO.N,pinMotorLeft2Dir*%
X180920000Y-107480000D02*
X180920000Y-106123700D01*
X161030000Y-84650000D02*
X161030000Y-85894900D01*
X161030000Y-85894900D02*
X161496900Y-85894900D01*
X161496900Y-85894900D02*
X162274900Y-86672900D01*
X162274900Y-86672900D02*
X162274900Y-87716300D01*
X162274900Y-87716300D02*
X163018600Y-88460000D01*
X163018600Y-88460000D02*
X164121000Y-88460000D01*
X164121000Y-88460000D02*
X169808600Y-94147600D01*
X169808600Y-94147600D02*
X169808600Y-95931500D01*
X169808600Y-95931500D02*
X170627100Y-96750000D01*
X170627100Y-96750000D02*
X171546300Y-96750000D01*
X171546300Y-96750000D02*
X180920000Y-106123700D01*
%TO.N,pinMotorLeft2PWM*%
X183420000Y-107480000D02*
X182188700Y-107480000D01*
X115310000Y-59250000D02*
X116554900Y-59250000D01*
X116554900Y-59250000D02*
X116554900Y-58783200D01*
X116554900Y-58783200D02*
X117383700Y-57954400D01*
X117383700Y-57954400D02*
X118404300Y-57954400D01*
X118404300Y-57954400D02*
X119120000Y-58670100D01*
X119120000Y-58670100D02*
X119120000Y-63326700D01*
X119120000Y-63326700D02*
X149333300Y-93540000D01*
X149333300Y-93540000D02*
X164103500Y-93540000D01*
X164103500Y-93540000D02*
X169145100Y-98581600D01*
X169145100Y-98581600D02*
X169145100Y-105465000D01*
X169145100Y-105465000D02*
X170590100Y-106910000D01*
X170590100Y-106910000D02*
X171405500Y-106910000D01*
X171405500Y-106910000D02*
X173346900Y-108851400D01*
X173346900Y-108851400D02*
X181452500Y-108851400D01*
X181452500Y-108851400D02*
X182188700Y-108115200D01*
X182188700Y-108115200D02*
X182188700Y-107480000D01*
%TO.N,pinMotorRight2Enable*%
X163570000Y-87190000D02*
X164814900Y-87190000D01*
X164814900Y-87190000D02*
X164814900Y-88434900D01*
X164814900Y-88434900D02*
X170630000Y-94250000D01*
X170630000Y-94250000D02*
X178180000Y-94250000D01*
%TO.N,pinMotorLeft2Enable*%
X178420000Y-107480000D02*
X178420000Y-106123700D01*
X161030000Y-87190000D02*
X161030000Y-88434900D01*
X161030000Y-88434900D02*
X161584600Y-88434900D01*
X161584600Y-88434900D02*
X162300000Y-89150300D01*
X162300000Y-89150300D02*
X162300000Y-90268700D01*
X162300000Y-90268700D02*
X163031300Y-91000000D01*
X163031300Y-91000000D02*
X164093100Y-91000000D01*
X164093100Y-91000000D02*
X169780100Y-96687000D01*
X169780100Y-96687000D02*
X169780100Y-98464900D01*
X169780100Y-98464900D02*
X170731800Y-99416600D01*
X170731800Y-99416600D02*
X171447400Y-99416600D01*
X171447400Y-99416600D02*
X172370600Y-100339800D01*
X172370600Y-100339800D02*
X172370600Y-101033400D01*
X172370600Y-101033400D02*
X173167200Y-101830000D01*
X173167200Y-101830000D02*
X174126300Y-101830000D01*
X174126300Y-101830000D02*
X178420000Y-106123700D01*
%TO.N,pinMotorLeftEnable*%
X163570000Y-96054900D02*
X164036800Y-96054900D01*
X164036800Y-96054900D02*
X167177000Y-99195100D01*
X167177000Y-99195100D02*
X167177000Y-108570100D01*
X167177000Y-108570100D02*
X170510300Y-111903400D01*
X170510300Y-111903400D02*
X173861500Y-111903400D01*
X173861500Y-111903400D02*
X178400000Y-116441900D01*
X178400000Y-116441900D02*
X178400000Y-119250000D01*
X163570000Y-94810000D02*
X163570000Y-96054900D01*
%TO.N,pinMotorMow1Sense*%
X170974000Y-59890000D02*
X168784300Y-62079700D01*
X168784300Y-62079700D02*
X168784300Y-80388800D01*
X168784300Y-80388800D02*
X172592700Y-84197200D01*
X172592700Y-84197200D02*
X172592700Y-85745200D01*
%TO.N,pinChargeEnable*%
X161030000Y-97350000D02*
X138238700Y-97350000D01*
X138238700Y-97350000D02*
X133674000Y-92785300D01*
%TD*%
M02*
