M48
; DRILL file {KiCad (5.1.9)-1} date 05/21/21 09:57:00
; FORMAT={-:-/ absolute / metric / decimal}
; #@! TF.CreationDate,2021-05-21T09:57:00+02:00
; #@! TF.GenerationSoftware,Kicad,Pcbnew,(5.1.9)-1
FMAT,2
METRIC
T1C0.635
T2C0.762
T3C0.800
T4C0.900
T5C0.950
T6C1.000
T7C1.001
T8C1.016
T9C1.100
T10C1.520
T11C2.000
T12C2.200
T13C3.200
%
G90
G05
T1
X85.839Y-83.813
X124.422Y-88.921
X124.786Y-90.5
X127.26Y-93.863
X133.674Y-92.785
X147.813Y-83.355
X152.426Y-90.571
X158.958Y-69.944
X166.336Y-78.833
X172.593Y-85.745
X173.76Y-85.557
X175.188Y-86.894
X176.899Y-86.902
X179.332Y-90.872
X186.013Y-76.273
T2
X170.974Y-37.03
X170.974Y-39.57
X170.974Y-42.11
X170.974Y-44.65
X170.974Y-47.19
X170.974Y-49.73
X170.974Y-52.27
X170.974Y-54.81
X170.974Y-57.35
X170.974Y-59.89
X170.974Y-62.43
X170.974Y-64.97
X170.974Y-67.51
X170.974Y-70.05
X170.974Y-72.59
X170.974Y-75.13
X170.974Y-77.67
X170.974Y-80.21
X170.974Y-85.32
X170.974Y-87.86
X170.974Y-90.4
X170.974Y-92.94
X170.974Y-95.48
X170.974Y-98.02
X170.974Y-100.56
X170.974Y-103.1
X170.974Y-105.64
X170.974Y-108.18
X170.974Y-110.72
X170.974Y-113.26
X170.974Y-115.8
X170.974Y-118.34
X170.974Y-120.88
X170.974Y-123.42
X170.974Y-125.96
X170.974Y-128.5
X173.514Y-42.11
X173.514Y-44.65
X173.514Y-52.27
X173.514Y-54.81
X173.514Y-57.35
X173.514Y-64.97
X173.514Y-67.51
X173.514Y-90.4
X173.514Y-92.94
X173.514Y-100.56
X173.514Y-103.1
X173.514Y-105.64
X173.514Y-113.26
X173.514Y-115.8
X194.342Y-50.238
X194.342Y-53.794
X194.342Y-57.35
X194.342Y-60.906
X194.342Y-64.462
X194.342Y-68.018
X194.342Y-98.528
X194.342Y-102.084
X194.342Y-105.64
X194.342Y-109.196
X194.342Y-112.752
X194.342Y-116.308
T3
X54.63Y-38.69
X54.63Y-41.23
X58.09Y-55.99
X60.59Y-55.99
X68.08Y-51.75
X68.08Y-54.29
X72.78Y-51.75
X72.78Y-54.29
X85.65Y-52.28
X85.65Y-54.82
X86.84Y-125.06
X86.84Y-127.6
X90.39Y-52.25
X90.39Y-54.79
X91.63Y-124.97
X91.63Y-127.51
X96.87Y-124.97
X96.87Y-127.51
X101.58Y-125.06
X101.58Y-127.6
X120.8Y-126.04
X120.8Y-128.58
X125.42Y-126.04
X125.42Y-128.58
X131.94Y-126.04
X131.94Y-128.58
X136.54Y-126.04
X136.54Y-128.58
X143.51Y-126.06
X143.51Y-128.6
X148.24Y-126.08
X148.24Y-128.62
X155.09Y-126.15
X155.09Y-128.69
X159.68Y-126.22
X159.68Y-128.76
T4
X49.43Y-38.17
X49.43Y-40.71
T5
X44.97Y-83.83
X44.97Y-86.33
X44.97Y-88.83
X44.97Y-91.33
X44.97Y-93.83
X44.97Y-96.33
X62.03Y-39.31
X62.03Y-41.81
X62.03Y-44.31
X62.03Y-46.81
X64.26Y-114.58
X66.76Y-114.58
X69.26Y-114.58
X70.48Y-39.38
X70.48Y-41.88
X70.48Y-44.38
X70.48Y-46.88
X71.13Y-122.92
X71.13Y-125.42
X71.13Y-127.92
X78.72Y-113.73
X78.72Y-116.23
X78.72Y-118.73
X78.72Y-121.23
X79.86Y-39.47
X79.86Y-41.97
X79.86Y-44.47
X79.86Y-46.97
X88.24Y-39.66
X88.24Y-42.16
X88.24Y-44.66
X88.24Y-47.16
X88.58Y-113.88
X88.58Y-116.38
X88.58Y-118.88
X97.42Y-39.77
X97.42Y-42.27
X97.42Y-44.77
X97.42Y-47.27
X98.44Y-113.97
X98.44Y-116.47
X98.44Y-118.97
X107.87Y-39.9
X107.87Y-42.4
X107.87Y-44.9
X107.87Y-47.4
X107.87Y-49.9
X108.38Y-113.97
X108.38Y-116.47
X108.38Y-118.97
X116.42Y-39.87
X116.42Y-42.37
X116.42Y-44.87
X116.42Y-47.37
X116.42Y-49.87
X122.63Y-113.91
X122.63Y-116.41
X122.63Y-118.91
X122.63Y-121.41
X124.82Y-39.87
X124.82Y-42.37
X124.82Y-44.87
X124.82Y-47.37
X124.82Y-49.87
X133.31Y-39.92
X133.31Y-42.42
X133.31Y-44.92
X133.31Y-47.42
X133.31Y-49.92
X133.75Y-113.76
X133.75Y-116.26
X133.75Y-118.76
X133.75Y-121.26
X142.76Y-42.55
X142.76Y-45.05
X142.76Y-47.55
X142.76Y-50.05
X145.33Y-113.71
X145.33Y-116.21
X145.33Y-118.71
X145.33Y-121.21
X152.33Y-42.58
X152.33Y-45.08
X152.33Y-47.58
X152.33Y-50.08
X156.9Y-113.92
X156.9Y-116.42
X156.9Y-118.92
X156.9Y-121.42
X162.14Y-42.67
X162.14Y-45.17
X162.14Y-47.67
X162.14Y-50.17
X178.06Y-82.49
X178.18Y-94.25
X178.4Y-119.25
X178.42Y-107.48
X180.56Y-82.49
X180.68Y-94.25
X180.9Y-119.25
X180.92Y-107.48
X183.06Y-82.49
X183.18Y-94.25
X183.4Y-119.25
X183.42Y-107.48
X183.58Y-52.63
X183.58Y-55.13
X183.58Y-57.63
X183.58Y-60.13
X183.58Y-62.63
X185.56Y-82.49
X185.68Y-94.25
X185.9Y-119.25
X185.92Y-107.48
X188.06Y-82.49
X188.18Y-94.25
X188.4Y-119.25
X188.42Y-107.48
X203.23Y-72.68
X203.23Y-75.18
X203.23Y-77.68
X203.23Y-80.18
T6
X43.09Y-104.78
X43.09Y-107.28
X43.27Y-115.1
X43.27Y-117.6
X54.03Y-112.19
X54.03Y-114.69
X54.09Y-102.25
X54.09Y-104.75
X58.92Y-63.62
X58.92Y-66.16
X58.92Y-68.7
X58.96Y-75.36
X58.96Y-77.9
X58.96Y-80.44
X62.57Y-123.75
X62.57Y-126.29
X73.19Y-74.07
X73.19Y-76.57
X82.69Y-74.07
X82.69Y-76.57
X92.12Y-74.15
X92.12Y-76.65
X101.58Y-74.38
X101.58Y-76.88
X167.31Y-122.86
X167.31Y-125.4
X167.31Y-127.94
X180.75Y-38.32
X180.75Y-40.86
X180.75Y-43.4
T7
X52.66Y-121.01
X52.66Y-128.61
T8
X85.846Y-59.25
X88.386Y-59.25
X90.926Y-59.25
X93.466Y-59.25
X94.99Y-107.51
X96.006Y-59.25
X97.53Y-107.51
X98.546Y-59.25
X100.07Y-107.51
X101.086Y-59.25
X102.61Y-107.51
X103.626Y-59.25
X105.15Y-107.51
X106.166Y-59.25
X107.69Y-107.51
X108.706Y-59.25
X110.23Y-107.51
X112.77Y-59.25
X112.77Y-107.51
X115.31Y-59.25
X117.85Y-59.25
X117.85Y-107.51
X120.39Y-59.25
X120.39Y-107.51
X122.93Y-59.25
X122.93Y-107.51
X125.47Y-59.25
X125.47Y-107.51
X128.01Y-59.25
X128.01Y-107.51
X130.55Y-59.25
X130.55Y-107.51
X130.677Y-79.57
X130.677Y-82.11
X130.677Y-84.65
X133.09Y-107.51
X133.217Y-79.57
X133.217Y-82.11
X133.217Y-84.65
X135.63Y-59.25
X135.63Y-107.51
X138.17Y-59.25
X140.71Y-59.25
X140.71Y-107.51
X143.25Y-59.25
X143.25Y-107.51
X145.79Y-59.25
X145.79Y-107.51
X148.33Y-59.25
X148.33Y-107.51
X150.87Y-59.25
X150.87Y-107.51
X153.41Y-59.25
X153.41Y-107.51
X155.95Y-107.51
X158.49Y-107.51
X161.03Y-59.25
X161.03Y-61.79
X161.03Y-64.33
X161.03Y-66.87
X161.03Y-69.41
X161.03Y-71.95
X161.03Y-74.49
X161.03Y-77.03
X161.03Y-79.57
X161.03Y-82.11
X161.03Y-84.65
X161.03Y-87.19
X161.03Y-89.73
X161.03Y-92.27
X161.03Y-94.81
X161.03Y-97.35
X161.03Y-99.89
X161.03Y-102.43
X163.57Y-59.25
X163.57Y-61.79
X163.57Y-64.33
X163.57Y-66.87
X163.57Y-69.41
X163.57Y-71.95
X163.57Y-74.49
X163.57Y-77.03
X163.57Y-79.57
X163.57Y-82.11
X163.57Y-84.65
X163.57Y-87.19
X163.57Y-89.73
X163.57Y-92.27
X163.57Y-94.81
X163.57Y-97.35
X163.57Y-99.89
X163.57Y-102.43
T9
X52.37Y-44.24
X52.37Y-54.4
X52.37Y-57.62
X52.37Y-67.78
X52.37Y-70.79
X52.37Y-80.95
T10
X44.88Y-46.87
X44.88Y-51.95
X44.89Y-58.21
X44.89Y-63.29
X44.99Y-69.5
X44.99Y-74.58
T11
X195.421Y-38.236
X195.421Y-79.004
X195.421Y-86.526
X195.421Y-127.293
T12
X41.81Y-38.44
X41.88Y-128.37
X205.6Y-128.21
X205.75Y-38.27
T13
X81.02Y-107.51
X82.29Y-59.25
X133.09Y-74.49
X133.09Y-102.43
X157.22Y-59.25
X163.57Y-107.51
T0
M30
